<?xml version="1.0" encoding="UTF-8" standalone="no"?>
<!-- Created with Serif DrawPlus 11, 0, 0, 18 (Mar 20, 15:09:53) (http://www.serif.com) -->
<svg version="1.1" xmlns="http://www.w3.org/2000/svg" xmlns:xlink="http://www.w3.org/1999/xlink" width="219.629" height="210.204">
	<g id="dp_group001" transform="matrix(1,0,0,1,-548.452,-275.715)">
		<path id="dp_path002" fill="#fb016e" fill-rule="evenodd" stroke="none" stroke-width="1.33333" d="M 613.364,276.381 C 648.845,276.381 677.609,305.147 677.609,340.629 C 677.609,376.112 648.845,404.877 613.364,404.877 C 577.883,404.877 549.119,376.112 549.119,340.629 C 549.119,305.147 577.883,276.381 613.364,276.381 Z "/>
		<path id="dp_path003" fill="#fb016e" fill-rule="evenodd" stroke="none" stroke-width="1.33333" d="M 709.893,410.211 C 715.919,413.972 719.929,420.663 719.929,428.292 C 719.929,440.056 710.393,449.592 698.629,449.592 C 686.865,449.592 677.329,440.056 677.329,428.292 C 677.329,416.528 686.865,406.992 698.629,406.992 C 702.764,406.992 706.625,408.171 709.893,410.211 Z M 766.883,318.935 L 631.341,447.637 L 725.589,485.017 Z "/>
	</g>
</svg>