<?xml version="1.0" encoding="UTF-8" standalone="no"?>
<!-- Created with Serif DrawPlus 11, 0, 0, 18 (Mar 20, 15:09:53) (http://www.serif.com) -->
<svg version="1.1" xmlns="http://www.w3.org/2000/svg" xmlns:xlink="http://www.w3.org/1999/xlink" width="73.6333" height="72.8333">
	<g id="dp_group001" transform="matrix(1,0,0,1,-749.381,-265.032)">
		<path id="dp_path002" fill="#fb016e" fill-rule="evenodd" stroke="none" stroke-width="1.33333" d="M 784.765,310.676 L 778.604,316.837 L 786.192,318.064 L 804.977,315.028 L 821.947,301.449 L 806.417,289.024 L 796.067,299.375 L 797.473,301.449 L 792.121,309.339 L 786.197,311.103 Z M 774.927,301.449 L 780.359,293.56 L 786.199,291.796 L 787.636,292.224 L 793.797,286.063 L 786.197,284.835 L 767.68,287.871 L 750.452,301.449 L 765.983,313.877 L 776.335,303.525 Z M 805.115,279.036 L 808.613,282.535 L 767.288,323.86 L 763.789,320.361 Z "/>
		<path id="dp_path003" fill="none" fill-rule="evenodd" stroke="none" stroke-width="1.33333" d="M 750.451,265.699 L 821.949,265.699 L 821.949,337.197 L 750.451,337.197 Z "/>
	</g>
</svg>