<?xml version="1.0" encoding="UTF-8" standalone="no"?>
<!-- Created with Serif DrawPlus 11, 0, 0, 18 (Mar 20, 15:09:53) (http://www.serif.com) -->
<svg version="1.1" xmlns="http://www.w3.org/2000/svg" xmlns:xlink="http://www.w3.org/1999/xlink" width="61.184" height="61.184">
	<g id="dp_group001" transform="matrix(1,0,0,1,-883.44,-155.824)">
		<path id="dp_path002" fill="none" fill-rule="evenodd" stroke="none" stroke-width="1.33333" d="M 884.107,156.492 L 943.956,156.492 L 943.956,216.34 L 884.107,216.34 Z "/>
		<path id="dp_path003" fill="#fb016e" fill-rule="evenodd" stroke="none" stroke-width="1.33333" d="M 919.417,207.332 L 908.647,207.332 L 911.129,198.76 L 908.817,197.121 L 908.817,190.984 L 911.129,189.343 L 916.933,189.343 L 919.245,190.984 L 919.245,197.121 L 916.933,198.76 Z M 905.657,165.916 L 905.657,179.757 L 922.405,179.757 L 922.405,165.916 L 919.693,163.336 L 908.369,163.336 Z M 887.117,185.865 L 893.491,179.757 L 897.313,179.757 L 897.313,161.672 L 902.729,156.491 L 925.332,156.491 L 930.749,161.672 L 930.749,179.757 L 934.571,179.757 L 940.945,185.865 L 940.945,216.34 L 887.117,216.34 Z "/>
	</g>
</svg>