<?xml version="1.0" encoding="UTF-8" standalone="no"?>
<!-- Created with Serif DrawPlus 11, 0, 0, 18 (Mar 20, 15:09:53) (http://www.serif.com) -->
<svg version="1.1" xmlns="http://www.w3.org/2000/svg" xmlns:xlink="http://www.w3.org/1999/xlink" width="61.184" height="61.1853">
	<g id="dp_group001" transform="matrix(1,0,0,1,-883.44,-264.223)">
		<path id="dp_path002" fill="#fb016e" fill-rule="evenodd" stroke="none" stroke-width="1.33333" d="M 919.417,315.732 L 908.647,315.732 L 911.129,307.16 L 908.817,305.523 L 908.817,299.384 L 911.129,297.744 L 916.933,297.744 L 919.245,299.384 L 919.245,305.523 L 916.933,307.16 Z M 905.657,274.316 L 908.369,271.735 L 919.693,271.735 L 922.405,274.316 L 922.405,288.157 L 893.491,288.157 L 887.117,294.265 L 887.117,324.74 L 940.945,324.74 L 940.945,294.265 L 934.571,288.157 L 930.749,288.157 L 930.749,270.072 L 925.332,264.889 L 902.729,264.889 L 897.313,270.072 L 897.313,277.336 L 905.657,277.336 Z "/>
		<path id="dp_path003" fill="none" fill-rule="evenodd" stroke="none" stroke-width="1.33333" d="M 884.107,264.891 L 943.956,264.891 L 943.956,324.739 L 884.107,324.739 Z "/>
	</g>
</svg>