<?xml version="1.0" encoding="UTF-8" standalone="no"?>
<svg xmlns:xlink="http://www.w3.org/1999/xlink" height="13.65px" width="100.0px" xmlns="http://www.w3.org/2000/svg">
  <g transform="matrix(1.0, 0.0, 0.0, 1.0, 50.0, 6.8)">
    <path d="M-19.55 0.9 L-18.75 1.1 -19.1 1.85 -25.9 2.8 -26.05 1.65 -20.95 1.2 -19.55 0.9" fill="#050505" fill-rule="evenodd" stroke="none"/>
    <path d="M-20.45 -0.65 L-18.3 0.15 -18.75 1.3 Q-22.1 -0.15 -26.3 -0.4 L-26.45 -1.6 -20.45 -0.65" fill="#050505" fill-rule="evenodd" stroke="none"/>
    <path d="M-43.55 0.9 L-42.7 1.1 -43.05 1.85 -49.9 2.8 -50.0 1.65 -44.95 1.2 -43.55 0.9" fill="#050505" fill-rule="evenodd" stroke="none"/>
    <path d="M-43.95 -0.65 L-41.8 0.15 -42.25 1.3 Q-45.6 -0.15 -49.8 -0.4 L-49.95 -1.6 -43.95 -0.65" fill="#050505" fill-rule="evenodd" stroke="none"/>
    <path d="M-15.65 -1.1 L-15.5 -0.9 Q-15.45 -0.55 -15.75 0.3 L-16.3 1.9 -17.3 4.1 Q-19.05 6.95 -22.3 6.8 L-20.65 6.3 Q-18.9 5.35 -18.25 3.0 -17.5 0.2 -17.0 -0.55 -16.5 -1.3 -15.65 -1.1" fill="#050505" fill-rule="evenodd" stroke="none"/>
    <path d="M-14.5 -1.3 L-14.15 -0.9 -14.45 0.4 -15.2 2.75 Q-15.75 4.15 -16.55 3.9 -16.75 3.8 -16.55 3.25 -15.25 -0.05 -15.2 -0.85 L-15.05 -1.1 -14.5 -1.3" fill="#050505" fill-rule="evenodd" stroke="none"/>
    <path d="M-12.55 -1.35 Q-12.15 -1.35 -12.15 -1.0 L-12.45 0.35 -13.05 2.75 Q-13.55 4.2 -14.45 4.0 -14.7 3.9 -14.55 3.4 -13.3 -0.05 -13.3 -0.85 L-13.15 -1.1 -12.55 -1.35" fill="#050505" fill-rule="evenodd" stroke="none"/>
    <path d="M-5.7 -6.2 Q-6.75 -6.3 -7.95 -5.45 -10.35 -3.7 -11.3 1.4 L-11.55 2.65 Q-11.95 3.9 -12.45 3.95 L-13.1 3.85 -13.0 3.15 -12.05 -0.45 Q-10.7 -4.3 -8.55 -5.65 L-7.6 -6.1 -5.7 -6.2" fill="#050505" fill-rule="evenodd" stroke="none"/>
    <path d="M-21.2 -3.05 Q-22.25 -3.85 -23.35 -3.7 L-24.3 -3.4 Q-23.45 -4.2 -22.1 -4.0 L-20.9 -3.65 -19.05 -2.45 Q-17.45 -1.2 -17.45 -0.7 -17.45 -0.2 -18.0 -0.25 L-18.55 -0.4 Q-19.6 -1.8 -21.2 -3.05" fill="#050505" fill-rule="evenodd" stroke="none"/>
    <path d="M-9.1 3.1 Q-7.65 5.15 -5.75 5.9 L-4.1 6.2 Q-6.4 6.7 -8.6 5.25 L-10.4 3.7 -10.65 2.95 -10.2 2.35 Q-9.75 2.1 -9.1 3.1" fill="#050505" fill-rule="evenodd" stroke="none"/>
    <path d="M14.0 4.1 Q13.45 3.2 13.0 1.85 L12.45 0.25 Q12.1 -0.6 12.2 -0.9 L12.35 -1.1 Q13.2 -1.3 13.7 -0.6 14.2 0.2 14.95 2.95 15.6 5.3 17.35 6.3 L19.0 6.8 Q15.8 6.9 14.0 4.1" fill="#050505" fill-rule="evenodd" stroke="none"/>
    <path d="M11.4 -0.85 Q11.45 -0.05 12.75 3.25 12.95 3.8 12.75 3.9 11.95 4.15 11.4 2.75 L10.7 0.4 10.35 -0.9 Q10.3 -1.25 10.7 -1.3 11.25 -1.35 11.4 -0.85" fill="#050505" fill-rule="evenodd" stroke="none"/>
    <path d="M9.5 -0.8 Q9.5 -0.05 10.75 3.4 10.9 3.95 10.65 4.0 9.75 4.2 9.25 2.8 L8.65 0.35 8.35 -0.95 Q8.35 -1.3 8.75 -1.35 9.35 -1.35 9.5 -0.8" fill="#050505" fill-rule="evenodd" stroke="none"/>
    <path d="M3.3 -6.05 L4.25 -5.65 Q6.4 -4.25 7.75 -0.45 8.4 1.5 8.65 3.15 L8.75 3.85 8.1 3.95 Q7.6 3.9 7.25 2.65 L6.95 1.4 Q6.05 -3.65 3.65 -5.45 L2.1 -6.1 1.4 -6.15 3.3 -6.05" fill="#050505" fill-rule="evenodd" stroke="none"/>
    <path d="M14.75 -0.4 L14.2 -0.25 Q13.65 -0.2 13.65 -0.7 13.65 -1.2 15.25 -2.45 L17.15 -3.65 18.3 -4.0 Q19.65 -4.2 20.5 -3.4 L19.6 -3.7 Q18.45 -3.85 17.45 -3.05 L15.5 -1.25 14.75 -0.4" fill="#050505" fill-rule="evenodd" stroke="none"/>
    <path d="M6.9 2.35 L7.3 2.95 Q7.4 3.4 7.05 3.7 L5.3 5.25 Q3.1 6.7 0.8 6.2 L2.45 5.9 Q4.35 5.15 5.8 3.1 L6.15 2.65 Q6.6 2.2 6.9 2.35" fill="#050505" fill-rule="evenodd" stroke="none"/>
    <path d="M-1.8 -0.15 L-1.95 -0.15 -1.95 -0.2 -7.4 0.35 -9.9 1.15 -9.95 1.2 Q-10.7 1.3 -10.5 0.6 L-10.15 -0.15 Q-8.95 -1.2 -5.55 -1.4 L-1.9 -1.45 1.8 -1.4 Q5.2 -1.2 6.4 -0.15 L6.7 0.6 Q6.9 1.3 6.15 1.2 L6.15 1.15 3.65 0.35 -1.8 -0.2 -1.8 -0.15" fill="#050505" fill-rule="evenodd" stroke="none"/>
    <path d="M-1.95 2.85 L-1.8 2.85 Q0.5 3.05 3.75 2.25 L6.6 1.45 Q7.05 1.7 6.8 2.4 4.1 3.9 -1.8 4.2 L-1.95 4.2 Q-7.85 3.9 -10.6 2.4 L-10.65 2.0 Q-10.65 1.6 -10.35 1.45 L-7.5 2.25 Q-4.25 3.05 -1.95 2.85" fill="#050505" fill-rule="evenodd" stroke="none"/>
    <path d="M38.95 1.85 L38.4 0.25 Q38.1 -0.6 38.15 -0.9 L38.3 -1.1 Q39.15 -1.3 39.65 -0.6 40.15 0.15 40.9 2.95 41.55 5.3 43.3 6.3 L44.95 6.8 Q41.75 6.9 40.0 4.1 39.4 3.2 38.95 1.85" fill="#050505" fill-rule="evenodd" stroke="none"/>
    <path d="M37.35 -0.8 Q37.4 -0.05 38.75 3.3 38.9 3.85 38.7 3.95 37.9 4.2 37.35 2.8 L36.65 0.45 Q36.3 -0.6 36.3 -0.85 36.3 -1.2 36.65 -1.25 37.2 -1.3 37.35 -0.8" fill="#050505" fill-rule="evenodd" stroke="none"/>
    <path d="M37.2 3.4 Q37.4 3.95 37.15 4.0 36.25 4.2 35.75 2.8 L35.1 0.35 34.8 -0.95 Q34.85 -1.3 35.25 -1.35 35.85 -1.35 36.0 -0.85 36.0 -0.05 37.2 3.4" fill="#050505" fill-rule="evenodd" stroke="none"/>
    <path d="M29.75 -6.1 L30.7 -5.65 Q32.85 -4.25 34.2 -0.4 L35.15 3.15 35.25 3.85 34.6 3.95 Q34.1 3.9 33.7 2.65 L33.45 1.4 Q32.5 -3.65 30.15 -5.45 L28.55 -6.1 27.9 -6.15 29.75 -6.1" fill="#050505" fill-rule="evenodd" stroke="none"/>
    <path d="M45.55 -3.75 Q44.45 -3.85 43.4 -3.05 L41.45 -1.25 40.7 -0.4 40.2 -0.25 Q39.65 -0.2 39.65 -0.7 39.65 -1.25 41.25 -2.45 L43.1 -3.65 44.3 -4.0 Q45.6 -4.2 46.5 -3.45 L45.55 -3.75" fill="#050505" fill-rule="evenodd" stroke="none"/>
    <path d="M33.35 2.85 L33.8 3.5 33.55 4.2 31.75 5.75 Q29.55 7.25 27.3 6.7 L28.9 6.4 Q30.8 5.65 32.25 3.6 L32.65 3.15 Q33.1 2.7 33.35 2.85" fill="#050505" fill-rule="evenodd" stroke="none"/>
    <path d="M15.4 1.2 Q14.7 1.3 14.9 0.55 L15.2 -0.2 Q16.5 -1.25 20.15 -1.45 L23.55 -1.45 27.0 -1.45 Q30.6 -1.2 31.9 -0.15 L32.2 0.55 Q32.4 1.3 31.7 1.2 L31.65 1.15 29.1 0.35 23.55 -0.15 23.55 -0.2 18.05 0.35 15.45 1.15 15.4 1.2" fill="#050505" fill-rule="evenodd" stroke="none"/>
    <path d="M14.8 2.4 L14.7 2.0 Q14.7 1.6 15.0 1.45 L17.9 2.25 23.6 2.85 29.2 2.3 32.1 1.45 Q32.55 1.7 32.3 2.4 30.45 3.45 26.8 3.95 L23.55 4.2 Q17.6 3.95 14.8 2.4" fill="#050505" fill-rule="evenodd" stroke="none"/>
    <path d="M41.4 1.45 L44.35 2.25 50.0 2.85 50.0 4.2 46.75 3.95 Q43.05 3.45 41.2 2.4 L41.15 2.0 Q41.15 1.6 41.4 1.45" fill="#050505" fill-rule="evenodd" stroke="none"/>
    <path d="M41.8 1.2 Q41.05 1.3 41.25 0.55 L41.55 -0.2 Q42.85 -1.25 46.55 -1.45 L49.95 -1.45 49.95 -0.2 44.4 0.35 41.85 1.15 41.8 1.2" fill="#050505" fill-rule="evenodd" stroke="none"/>
    <path d="M-36.6 -1.6 Q-35.75 -1.8 -35.3 -1.1 -34.8 -0.3 -34.05 2.45 -33.4 4.8 -31.6 5.8 L-29.95 6.3 Q-33.2 6.4 -34.95 3.6 L-36.0 1.35 -36.5 -0.25 -36.75 -1.45 -36.6 -1.6" fill="#050505" fill-rule="evenodd" stroke="none"/>
    <path d="M-37.6 -1.3 Q-37.55 -0.55 -36.2 2.8 -36.0 3.35 -36.2 3.45 -37.0 3.7 -37.55 2.3 L-38.3 -0.05 -38.65 -1.35 -38.25 -1.75 Q-37.75 -1.8 -37.6 -1.3" fill="#050505" fill-rule="evenodd" stroke="none"/>
    <path d="M-38.9 -1.35 Q-38.9 -0.55 -37.7 2.9 -37.5 3.4 -37.75 3.5 -38.65 3.75 -39.15 2.3 L-39.8 -0.15 -40.1 -1.5 -39.65 -1.85 Q-39.05 -1.85 -38.9 -1.35" fill="#050505" fill-rule="evenodd" stroke="none"/>
    <path d="M-44.2 -6.15 Q-42.05 -4.75 -40.7 -0.95 -40.05 1.0 -39.8 2.65 -39.6 3.2 -39.7 3.35 L-40.35 3.45 Q-40.85 3.4 -41.2 2.15 L-41.5 0.9 Q-42.4 -4.15 -44.8 -5.95 -45.55 -6.45 -46.35 -6.6 L-47.05 -6.65 -45.15 -6.55 -44.2 -6.15" fill="#050505" fill-rule="evenodd" stroke="none"/>
    <path d="M-29.4 -4.25 Q-30.5 -4.35 -31.5 -3.55 L-33.5 -1.75 -34.2 -0.9 -34.75 -0.75 Q-35.3 -0.7 -35.3 -1.2 -35.3 -1.75 -33.7 -2.95 L-31.8 -4.2 -30.65 -4.5 Q-29.3 -4.7 -28.45 -3.95 L-29.4 -4.25" fill="#050505" fill-rule="evenodd" stroke="none"/>
    <path d="M-41.55 2.35 Q-41.2 2.55 -41.15 2.95 -41.05 3.4 -41.4 3.7 L-43.15 5.25 Q-45.35 6.7 -47.65 6.2 L-46.0 5.85 Q-44.1 5.15 -42.65 3.1 L-42.3 2.6 Q-41.85 2.2 -41.55 2.35" fill="#050505" fill-rule="evenodd" stroke="none"/>
    <path d="M-26.35 1.65 L-25.3 1.6 -25.2 2.75 -28.25 2.75 Q-31.65 2.55 -33.45 1.7 L-33.55 1.35 Q-33.6 1.0 -33.3 0.85 L-31.05 1.3 -26.35 1.65" fill="#050505" fill-rule="evenodd" stroke="none"/>
    <path d="M-33.15 1.2 Q-33.9 1.3 -33.7 0.55 L-33.35 -0.2 Q-32.1 -1.25 -28.4 -1.45 L-25.0 -1.45 -25.0 -0.2 -30.55 0.35 -33.1 1.15 -33.15 1.2" fill="#050505" fill-rule="evenodd" stroke="none"/>
  </g>
</svg>
