<?xml version="1.0" encoding="UTF-8" standalone="no"?>
<svg xmlns:xlink="http://www.w3.org/1999/xlink" height="100.0px" width="72.9px" xmlns="http://www.w3.org/2000/svg">
  <g transform="matrix(1.0, 0.0, 0.0, 1.0, 36.45, 50.0)">
    <path d="M-18.2 1.65 Q-25.55 9.1 -25.55 19.5 -25.55 30.0 -18.2 37.4 -10.75 44.8 -0.35 44.8 10.15 44.8 17.55 37.4 24.95 30.0 24.95 19.5 24.95 9.1 17.55 1.65 10.15 -5.7 -0.35 -5.7 -10.75 -5.7 -18.2 1.65 M-29.8 19.5 Q-29.8 7.35 -21.15 -1.3 -12.5 -9.95 -0.35 -9.95 11.9 -9.95 20.55 -1.3 29.1 7.25 29.1 19.5 29.1 27.45 25.15 34.25 21.35 40.85 14.85 44.8 L33.35 44.8 33.35 50.0 -35.45 50.0 -35.45 44.8 -15.55 44.8 Q-22.05 40.85 -25.85 34.25 -29.8 27.4 -29.8 19.5" fill="#000000" fill-rule="evenodd" stroke="none"/>
    <path d="M-8.0 -43.9 Q-4.2 -47.85 0.55 -50.0 -4.2 -44.3 -1.7 -40.25 L4.65 -34.65 Q7.25 -32.5 8.15 -27.8 8.6 -25.4 8.55 -23.5 L16.75 -33.35 Q16.45 -29.0 17.95 -24.7 18.7 -22.5 19.55 -21.2 19.85 -22.5 20.6 -23.95 21.95 -26.95 23.95 -28.1 23.35 -26.8 24.4 -24.1 25.4 -21.3 27.3 -19.05 31.3 -14.45 30.5 -8.75 30.1 -5.85 28.9 -3.95 L31.3 -6.1 Q33.45 -9.35 32.05 -15.3 37.55 -6.95 36.2 5.45 35.1 14.8 32.45 18.45 32.05 5.0 22.35 -4.4 12.65 -13.85 -0.9 -13.85 -14.3 -13.85 -24.05 -4.5 -33.7 4.75 -34.3 18.15 -38.0 2.65 -35.3 -8.2 -34.35 -11.65 -33.0 -14.15 L-31.8 -15.95 Q-32.3 -11.1 -29.5 -9.05 -28.15 -8.05 -26.65 -8.0 -29.95 -13.55 -28.85 -20.05 L-26.95 -25.55 Q-27.25 -21.95 -24.1 -19.85 -22.6 -18.75 -21.0 -18.45 -23.45 -26.6 -19.05 -31.0 -16.75 -33.2 -14.1 -33.8 -16.0 -30.3 -15.0 -26.65 -14.25 -23.65 -12.05 -21.8 -10.0 -20.05 -9.25 -21.2 -8.4 -22.4 -10.6 -26.5 -15.6 -35.95 -8.0 -43.9" fill="#000000" fill-rule="evenodd" stroke="none"/>
  </g>
</svg>
