<?xml version="1.0" encoding="UTF-8" standalone="no"?>
<svg xmlns:xlink="http://www.w3.org/1999/xlink" height="100.0px" width="99.9px" xmlns="http://www.w3.org/2000/svg">
  <g transform="matrix(1.0, 0.0, 0.0, 1.0, 49.95, 50.0)">
    <path d="M0.4 -9.55 Q4.4 -9.55 6.95 -6.9 9.5 -4.35 9.5 -0.4 9.5 3.6 6.95 6.25 4.4 8.8 0.4 8.8 -3.65 8.8 -6.2 6.25 -8.8 3.6 -8.8 -0.4 -8.8 -4.35 -6.2 -6.9 -3.65 -9.55 0.4 -9.55" fill="#000000" fill-rule="evenodd" stroke="none"/>
    <path d="M0.4 -50.0 Q8.35 -50.0 16.1 -47.25 23.9 -44.5 30.15 -39.3 L8.0 -12.6 Q3.45 -15.6 0.4 -15.6 -4.6 -15.6 -8.6 -13.05 -12.3 -10.6 -14.1 -6.55 L-48.45 -11.85 Q-44.4 -28.7 -31.2 -39.2 -17.7 -50.0 0.4 -50.0" fill="#000000" fill-rule="evenodd" stroke="none"/>
    <path d="M35.45 -34.0 Q42.35 -27.65 46.15 -18.75 49.95 -9.85 49.95 0.4 49.95 13.9 43.6 25.1 37.35 36.0 26.35 42.35 L12.6 8.8 Q15.65 4.05 15.65 -0.4 15.65 -2.65 14.15 -5.7 L35.45 -34.0" fill="#000000" fill-rule="evenodd" stroke="none"/>
    <path d="M-35.4 35.5 Q-49.95 21.05 -49.95 0.4 L-49.95 -3.4 -14.95 1.15 Q-14.95 7.4 -10.65 11.2 -6.5 14.85 0.4 14.85 4.2 14.85 6.45 14.1 L18.7 46.95 Q11.6 50.0 0.4 50.0 -20.7 50.0 -35.4 35.5" fill="#000000" fill-rule="evenodd" stroke="none"/>
  </g>
</svg>
