<?xml version="1.0" encoding="UTF-8" standalone="no"?>
<svg xmlns:xlink="http://www.w3.org/1999/xlink" height="100.0px" width="88.95px" xmlns="http://www.w3.org/2000/svg">
  <g transform="matrix(1.0, 0.0, 0.0, 1.0, 44.45, 50.0)">
    <path d="M-14.05 29.05 Q-13.2 31.3 -12.5 33.6 -9.95 39.95 -6.6 43.5 -3.2 46.95 0.05 46.8 3.35 46.95 6.6 43.5 10.0 39.95 12.55 33.6 L14.0 29.2 Q6.45 27.05 -0.1 24.0 -6.3 26.85 -14.05 29.05 M-3.75 22.1 L-10.95 18.3 -17.15 14.3 Q-16.25 21.45 -14.95 26.05 -9.3 24.4 -3.75 22.1 M17.2 14.3 L10.8 18.4 3.6 22.1 Q9.15 24.55 15.0 26.1 16.35 20.95 17.2 14.3 M40.2 24.0 Q41.2 22.2 41.2 20.0 41.4 13.0 31.85 2.35 27.3 6.9 20.65 11.8 19.8 20.45 18.1 26.95 24.55 28.5 28.65 28.5 37.65 28.5 40.2 24.0 M29.55 0.05 Q26.2 -3.4 21.0 -7.6 L21.35 0.0 21.0 7.65 Q26.0 3.8 29.55 0.05 M41.3 -19.85 Q41.3 -22.15 40.4 -23.7 37.65 -28.25 28.55 -28.25 24.2 -28.25 18.1 -26.8 19.75 -20.35 20.65 -11.75 26.4 -7.6 31.85 -2.2 41.5 -12.7 41.3 -19.85 M-9.2 -15.7 L-17.7 -10.15 -18.15 0.0 -17.7 10.0 Q-12.75 13.55 -9.3 15.55 -5.6 17.85 0.0 20.45 5.6 17.75 9.15 15.65 13.1 13.45 17.75 10.1 L18.2 0.0 17.75 -10.05 9.35 -15.6 0.05 -20.5 Q-5.5 -17.8 -9.2 -15.7 M-10.75 -18.4 Q-8.75 -19.7 -3.55 -22.15 -9.15 -24.5 -14.95 -26.15 -16.15 -21.8 -17.15 -14.3 L-10.75 -18.4 M15.0 -26.05 Q9.35 -24.45 3.8 -22.15 L11.0 -18.35 17.2 -14.3 Q16.25 -21.5 15.0 -26.05 M0.05 -46.85 Q-3.3 -46.9 -6.6 -43.45 -9.95 -40.0 -12.5 -33.65 L-13.95 -29.15 Q-6.6 -27.25 0.05 -24.05 6.35 -26.9 14.1 -29.05 L12.55 -33.65 Q10.0 -40.0 6.6 -43.45 3.35 -46.9 0.05 -46.85 M-41.35 19.85 Q-41.35 21.95 -40.35 23.65 -37.8 28.2 -28.6 28.2 -24.15 28.2 -18.05 26.75 -19.7 20.3 -20.6 11.75 -26.5 7.45 -31.8 2.15 -41.45 12.75 -41.35 19.85 M-21.35 0.0 L-20.95 -7.75 -29.6 -0.1 -20.95 7.55 -21.35 0.0 M-40.15 -23.95 Q-41.15 -22.4 -41.15 -20.05 -41.35 -13.05 -31.8 -2.4 -27.15 -7.1 -20.6 -11.85 -19.7 -20.7 -17.95 -27.0 -24.6 -28.55 -28.6 -28.55 -37.6 -28.55 -40.15 -23.95 M-44.35 -20.05 Q-44.35 -23.15 -42.9 -25.7 -39.1 -31.7 -28.6 -31.7 -24.25 -31.7 -17.05 -30.0 -14.25 -39.1 -9.95 -44.3 -5.5 -49.75 0.05 -50.0 5.6 -49.75 10.1 -44.3 14.35 -39.1 17.2 -29.9 24.2 -31.45 28.55 -31.45 39.5 -31.45 43.15 -25.35 44.5 -23.05 44.5 -19.85 44.4 -11.15 34.05 0.05 44.2 11.25 44.3 20.0 44.3 23.1 42.95 25.65 39.15 31.65 28.65 31.65 23.85 31.6 17.1 29.95 14.25 39.05 10.1 44.25 5.55 49.7 0.05 50.0 -5.5 49.7 -10.05 44.15 -14.3 38.95 -17.15 29.85 -24.05 31.4 -28.6 31.4 -39.45 31.4 -43.1 25.3 -44.45 23.0 -44.45 19.85 -44.25 11.0 -34.0 -0.2 -44.2 -11.3 -44.35 -20.05" fill="#000000" fill-rule="evenodd" stroke="none"/>
    <path d="M-0.75 -7.95 Q2.7 -7.95 5.1 -5.5 7.55 -3.05 7.55 0.35 7.55 3.7 5.1 6.15 2.7 8.55 -0.75 8.55 -4.1 8.55 -6.6 6.15 -8.95 3.8 -8.95 0.35 -8.95 -3.1 -6.6 -5.5 -4.1 -7.95 -0.75 -7.95" fill="#000000" fill-rule="evenodd" stroke="none"/>
  </g>
</svg>
