<?xml version="1.0" encoding="UTF-8" standalone="no"?>
<svg xmlns:xlink="http://www.w3.org/1999/xlink" height="100.0px" width="100.0px" xmlns="http://www.w3.org/2000/svg">
  <g transform="matrix(1.0, 0.0, 0.0, 1.0, 50.05, 50.0)">
    <path d="M20.6 -43.55 L23.55 -43.55 23.55 -25.85 34.15 -36.45 36.25 -34.45 25.25 -23.5 43.65 -23.5 43.55 -20.65 22.4 -20.65 3.4 -1.6 30.85 -1.6 45.45 -16.2 47.4 -14.2 34.9 -1.6 49.95 -1.6 49.95 1.25 34.55 1.25 47.4 14.2 45.45 16.2 30.45 1.25 3.5 1.25 23.0 20.65 43.55 20.65 43.65 23.6 25.8 23.6 36.5 34.3 34.45 36.25 23.55 25.3 23.55 43.65 20.7 43.55 20.7 22.45 1.2 3.05 1.2 31.35 16.15 46.3 14.2 48.3 1.2 35.3 1.2 50.0 -1.65 50.0 -1.65 35.7 -14.25 48.3 -16.2 46.3 -1.65 31.75 -1.65 3.4 -21.35 23.0 -21.35 44.25 -24.2 44.25 -24.2 25.85 -34.5 36.25 -36.5 34.3 -26.45 24.15 -44.25 24.15 -44.15 21.3 -23.6 21.3 -3.55 1.25 -31.35 1.25 -46.35 16.2 -48.3 14.2 -35.35 1.25 -50.05 1.25 -50.05 -1.6 -35.75 -1.6 -48.3 -14.2 -46.35 -16.2 -31.75 -1.6 -3.35 -1.6 -23.05 -21.3 -44.15 -21.3 -44.25 -24.05 -25.9 -24.15 -36.3 -34.45 -34.2 -36.45 -24.2 -26.4 -24.1 -44.15 -21.35 -44.15 -21.35 -23.6 -1.65 -3.9 -1.65 -30.85 -16.2 -45.45 -14.25 -47.45 -1.65 -34.85 -1.65 -50.0 1.2 -50.0 1.2 -34.55 14.2 -47.45 16.15 -45.45 1.2 -30.5 1.2 -3.5 20.6 -22.9 20.6 -43.55" fill="#000000" fill-rule="evenodd" stroke="none"/>
  </g>
</svg>
