<?xml version="1.0" encoding="UTF-8" standalone="no"?>
<svg xmlns:xlink="http://www.w3.org/1999/xlink" height="99.95px" width="49.25px" xmlns="http://www.w3.org/2000/svg">
  <g transform="matrix(1.0, 0.0, 0.0, 1.0, 24.65, 50.0)">
    <path d="M12.15 -46.7 Q17.45 -43.85 20.8 -38.6 24.4 -33.0 24.6 -26.3 24.05 -28.3 22.55 -31.1 19.3 -36.8 13.7 -39.65 10.25 -41.4 6.45 -41.65 2.3 -42.0 -0.95 -40.6 -7.5 -37.85 -9.85 -29.1 -10.75 -24.85 -10.6 -22.15 -10.2 -18.55 -8.75 -13.75 L-5.55 -4.1 Q-3.45 1.9 -2.55 6.05 0.45 18.25 -0.85 27.45 -2.2 39.0 -10.2 49.95 L-8.6 44.9 Q-6.6 38.3 -6.5 31.85 -6.5 23.9 -10.3 15.05 -11.65 11.9 -14.8 5.85 L-19.85 -4.35 Q-22.6 -10.75 -23.55 -14.65 -25.3 -21.35 -24.3 -27.55 -23.2 -34.05 -19.6 -39.4 -15.7 -45.25 -10.2 -47.8 -4.7 -50.35 1.25 -49.95 7.0 -49.6 12.15 -46.7" fill="#000000" fill-rule="evenodd" stroke="none"/>
  </g>
</svg>
