<?xml version="1.0" encoding="UTF-8" standalone="no"?>
<svg xmlns:xlink="http://www.w3.org/1999/xlink" height="100.0px" width="68.55px" xmlns="http://www.w3.org/2000/svg">
  <g transform="matrix(1.0, 0.0, 0.0, 1.0, 34.25, 50.0)">
    <path d="M-9.8 -46.75 Q3.6 -52.05 15.75 -48.75 27.95 -45.35 32.25 -34.85 36.4 -24.7 32.05 -16.55 27.9 -8.85 19.0 -7.6 11.95 -6.6 6.7 -10.95 5.05 -12.25 3.8 -13.95 L2.85 -15.4 1.4 -14.8 Q-3.2 -12.8 -6.9 -9.0 -10.35 -5.45 -12.55 -0.6 -15.55 5.95 -14.95 13.95 -14.25 24.3 -7.2 35.3 0.45 47.25 9.8 49.95 4.9 50.45 -2.25 46.9 -16.55 39.8 -27.65 19.25 -38.65 -1.1 -31.3 -22.05 -28.15 -30.9 -22.3 -37.55 -16.55 -44.05 -9.8 -46.75 M12.4 -33.7 L11.15 -32.7 Q8.8 -30.55 7.75 -28.1 6.3 -24.4 8.4 -20.9 L8.85 -20.25 Q11.35 -16.55 15.15 -15.85 18.6 -15.25 21.95 -17.2 24.9 -19.0 26.4 -22.05 27.85 -24.85 27.45 -28.75 27.1 -32.6 25.0 -36.2 22.5 -40.4 18.25 -42.95 13.55 -45.8 7.3 -46.1 -0.55 -46.35 -8.5 -41.55 -18.25 -35.75 -23.9 -25.35 -30.2 -13.7 -28.95 -0.2 -27.8 11.9 -20.55 24.05 -15.5 32.6 -8.45 39.7 L-3.9 43.55 Q-12.55 35.2 -17.6 26.6 -26.95 10.75 -25.1 -5.25 -24.5 -10.3 -22.8 -14.7 L-21.25 -18.2 Q-16.0 -26.6 -8.5 -31.0 -2.45 -34.55 3.75 -35.35 8.35 -35.9 11.25 -34.85 L13.15 -34.2 12.4 -33.7" fill="#000000" fill-rule="evenodd" stroke="none"/>
  </g>
</svg>
