<?xml version="1.0" encoding="UTF-8" standalone="no"?>
<svg xmlns:xlink="http://www.w3.org/1999/xlink" height="100.0px" width="42.5px" xmlns="http://www.w3.org/2000/svg">
  <g transform="matrix(1.0, 0.0, 0.0, 1.0, 21.25, 50.0)">
    <path d="M-13.05 -33.65 Q-12.15 -37.2 -10.1 -39.9 -8.1 -42.6 -5.25 -44.0 -7.85 -42.1 -9.4 -38.8 -10.95 -35.45 -10.95 -31.85 -10.95 -23.1 -6.4 -16.15 -3.4 -11.55 2.7 -6.5 19.0 6.9 21.0 15.95 22.75 24.2 12.8 30.9 L12.65 30.45 Q12.1 25.75 11.1 21.1 10.15 16.75 7.4 12.0 5.45 8.5 1.9 3.75 L-4.55 -4.75 Q-8.15 -9.7 -10.15 -13.6 -15.55 -23.9 -13.05 -33.65 M-6.85 -46.6 Q-1.3 -48.7 4.35 -46.15 9.45 -43.85 11.8 -39.15 14.25 -34.15 12.25 -29.05 L11.75 -28.0 Q10.25 -24.8 8.55 -23.55 6.2 -21.85 3.6 -24.0 0.85 -26.25 2.45 -29.1 3.95 -31.85 7.15 -31.85 L10.05 -31.15 Q11.65 -30.8 12.2 -32.35 12.45 -36.05 10.45 -39.25 8.45 -42.55 4.55 -44.45 -1.9 -47.6 -7.55 -44.2 -12.9 -41.05 -14.7 -34.05 -17.25 -24.15 -11.95 -13.65 -9.95 -9.75 -6.4 -4.75 L0.0 3.8 Q3.5 8.6 5.5 12.15 8.2 17.0 9.15 21.4 12.0 34.25 10.95 49.7 L10.6 50.0 Q10.3 49.95 10.25 49.7 L9.2 33.95 Q8.2 25.0 5.7 18.65 3.8 13.85 -0.25 8.1 L-7.55 -1.55 Q-11.7 -7.05 -13.7 -10.55 -16.75 -15.8 -17.75 -20.6 -18.7 -25.1 -18.0 -29.9 -17.3 -34.5 -15.15 -38.85 -12.3 -44.5 -6.85 -46.6 M-12.7 -46.25 Q-6.5 -51.0 -0.45 -49.75 4.0 -48.85 7.95 -44.9 5.9 -46.85 3.3 -47.85 -2.55 -50.15 -8.1 -47.65 -13.75 -45.2 -16.4 -39.05 -18.45 -34.45 -18.95 -29.2 -19.45 -23.95 -18.35 -19.15 -17.25 -14.2 -14.05 -8.85 -11.9 -5.35 -7.55 0.2 L-5.85 2.4 Q-9.15 -0.25 -12.75 -4.6 -19.85 -13.2 -20.9 -21.55 -22.0 -30.2 -19.65 -36.65 -17.5 -42.6 -12.7 -46.25" fill="#000000" fill-rule="evenodd" stroke="none"/>
  </g>
</svg>
