<?xml version="1.0" encoding="UTF-8" standalone="no"?>
<svg xmlns:xlink="http://www.w3.org/1999/xlink" height="67.95px" width="99.95px" xmlns="http://www.w3.org/2000/svg">
  <g transform="matrix(1.0, 0.0, 0.0, 1.0, 49.95, 33.95)">
    <path d="M33.7 -19.1 Q26.9 -23.25 19.85 -22.45 15.8 -21.95 12.3 -19.95 8.7 -17.85 6.3 -14.6 3.95 -11.4 2.25 -6.15 L-0.35 2.95 Q-3.65 13.65 -7.2 19.8 -12.45 28.7 -20.2 32.05 -26.85 35.0 -35.3 33.5 -41.7 32.3 -49.9 28.45 L-49.95 28.4 -44.8 30.1 -37.8 31.55 Q-27.75 32.9 -21.0 28.8 -14.55 24.85 -10.8 15.25 -8.4 9.2 -6.3 -2.85 -5.15 -9.15 -4.4 -11.8 -3.05 -16.7 -0.8 -20.2 3.6 -27.15 10.85 -30.8 17.65 -34.2 25.55 -33.95 33.4 -33.65 40.1 -29.9 45.6 -26.75 48.35 -21.5 49.65 -19.2 49.9 -16.95 50.4 -13.85 48.45 -12.75 47.05 -11.9 44.65 -12.75 L41.15 -14.6 33.7 -19.1" fill="#000000" fill-rule="evenodd" stroke="none"/>
  </g>
</svg>
