<?xml version="1.0" encoding="UTF-8" standalone="no"?>
<svg xmlns:xlink="http://www.w3.org/1999/xlink" height="13.3px" width="100.0px" xmlns="http://www.w3.org/2000/svg">
  <g transform="matrix(1.0, 0.0, 0.0, 1.0, 50.0, 6.65)">
    <path d="M-18.55 -3.7 Q-19.15 -3.75 -19.4 -3.45 L-19.8 -3.45 -20.1 -3.55 -20.65 -2.95 -21.05 -2.2 -21.2 -2.5 -21.05 -2.9 Q-20.9 -3.05 -21.05 -3.15 L-21.3 -3.25 Q-21.75 -3.2 -22.0 -2.75 L-22.4 -1.95 Q-22.65 -2.0 -22.5 -2.5 L-22.4 -2.7 -22.35 -2.85 -22.45 -2.95 -23.4 -2.9 -24.35 -3.0 -24.3 -3.1 -22.1 -3.15 -22.05 -3.3 -22.05 -3.5 -23.6 -3.55 -25.15 -3.8 -28.3 -3.85 -30.05 -3.6 -31.75 -3.75 -34.35 -3.25 -34.3 -2.4 -34.1 -1.55 -34.35 -1.6 -34.75 -3.15 -35.6 -3.05 -36.45 -3.15 -37.2 -2.5 -37.9 -1.7 -38.0 -1.8 -37.95 -2.05 -36.9 -3.35 -39.3 -3.2 Q-40.9 -3.0 -41.75 -3.2 L-44.55 -3.05 -47.35 -2.75 -48.7 -2.85 -50.0 -2.85 -50.0 -3.25 -49.45 -3.3 -48.95 -3.25 -45.95 -3.35 -42.95 -3.65 Q-42.15 -3.4 -40.6 -3.65 L-38.2 -3.7 -37.35 -3.95 Q-36.85 -4.1 -36.75 -4.4 -36.45 -4.3 -36.45 -4.5 L-36.3 -4.6 -36.1 -4.6 -36.0 -4.4 -35.75 -4.75 Q-35.6 -4.45 -35.15 -4.5 L-34.4 -4.6 -34.25 -5.6 -33.8 -6.4 -34.05 -4.55 -31.6 -4.0 -30.0 -4.2 -28.4 -4.05 -25.45 -4.0 -23.65 -4.15 -21.8 -4.1 -21.6 -4.5 -21.45 -4.25 -21.15 -4.65 -21.0 -4.45 -20.8 -4.25 -20.6 -4.5 -19.7 -4.3 -19.7 -4.05 -19.5 -3.95 -17.65 -4.15 -15.85 -3.95 -14.4 -4.15 -12.95 -4.05 -13.0 -4.0 -9.55 -3.9 -9.65 -3.85 -7.95 -4.05 -7.95 -4.4 -7.65 -4.1 -7.45 -4.3 -7.25 -4.1 -6.95 -4.5 Q-6.85 -4.2 -6.5 -4.15 L-5.85 -4.1 -5.55 -5.05 -5.05 -5.85 Q-5.0 -5.7 -5.3 -4.7 -5.55 -3.95 -5.0 -3.8 L-2.65 -3.5 -0.2 -3.4 0.85 -3.2 2.0 -3.15 3.45 -2.95 3.45 -2.85 5.95 -2.85 5.9 -3.05 6.05 -3.1 6.1 -3.2 6.3 -3.0 6.5 -3.15 6.6 -3.05 6.8 -2.8 6.9 -3.1 7.05 -3.25 7.5 -3.0 8.05 -2.9 8.25 -3.85 Q8.4 -4.5 8.7 -4.75 L8.55 -3.8 8.45 -2.85 9.95 -2.3 9.75 -2.25 9.65 -2.15 13.5 -2.35 16.45 -2.85 19.5 -3.1 21.05 -3.15 22.55 -3.65 22.3 -3.7 22.65 -3.9 22.95 -3.75 23.05 -4.0 23.35 -3.65 23.4 -3.95 23.55 -4.25 23.9 -3.95 24.3 -4.0 24.4 -4.1 24.1 -4.95 Q23.9 -5.5 24.1 -5.8 L24.45 -4.95 24.5 -4.1 26.9 -3.85 26.05 -3.8 25.0 -3.9 24.5 -3.8 24.85 -3.55 24.95 -3.1 27.6 -3.8 30.35 -3.7 32.2 -3.9 34.05 -3.75 33.4 -3.65 35.6 -3.6 37.75 -3.4 37.5 -3.35 37.05 -3.25 38.15 -3.2 39.3 -3.25 39.15 -3.0 39.0 -2.85 36.6 -3.05 34.15 -3.4 30.8 -3.35 27.45 -3.6 26.25 -3.2 25.0 -2.75 Q24.85 -2.45 24.85 -1.9 L24.7 -1.0 24.55 -1.05 24.45 -1.2 24.6 -2.1 Q24.7 -2.65 24.3 -2.8 24.05 -2.35 23.6 -2.45 L22.75 -2.45 22.15 -2.6 21.7 -2.85 20.05 -2.7 18.45 -2.45 15.9 -2.35 13.4 -2.1 10.95 -1.9 8.45 -1.7 8.7 -0.25 Q8.4 -0.35 8.25 -1.3 8.1 -2.05 7.3 -1.8 7.05 -1.45 6.65 -1.65 L5.95 -1.8 5.0 -2.35 3.85 -2.55 1.9 -2.65 0.05 -2.95 -1.55 -2.95 -3.15 -3.2 -4.75 -3.0 -6.2 -2.5 -6.95 -2.45 -6.8 -1.9 Q-6.75 -1.6 -6.95 -1.4 L-7.3 -2.45 -8.0 -3.4 -10.25 -3.5 -12.55 -3.75 -15.05 -3.65 -17.55 -3.6 -18.55 -3.7" fill="#000000" fill-rule="evenodd" stroke="none"/>
    <path d="M23.15 -2.55 L22.4 -1.95 Q21.95 -1.6 21.5 -1.7 L22.25 -2.25 Q22.75 -2.65 23.15 -2.55" fill="#000000" fill-rule="evenodd" stroke="none"/>
    <path d="M-49.6 4.1 L-49.3 3.9 -48.3 3.95 -46.4 3.35 -46.7 2.0 Q-46.45 2.1 -46.35 2.6 L-46.15 3.3 -45.55 3.35 Q-45.2 3.4 -45.1 3.15 L-44.9 3.4 -44.85 3.25 -44.7 3.25 Q-44.6 3.2 -44.55 3.3 L-44.35 3.35 Q-44.25 3.6 -43.8 3.65 L-43.15 3.85 -41.25 3.75 -39.45 3.6 -37.15 3.7 -34.8 3.6 -34.4 3.55 -34.0 3.55 -33.95 3.85 -34.95 3.95 -36.0 4.05 -38.2 4.0 -40.35 4.0 -42.3 4.15 -44.15 4.2 -43.25 5.15 -43.2 5.3 -43.25 5.4 -43.85 4.85 Q-44.25 4.45 -44.5 4.35 L-45.15 4.5 -45.8 4.45 -46.0 5.7 -46.2 5.75 -46.1 5.05 -46.1 4.35 -48.15 4.15 -49.95 4.35 -49.6 4.1" fill="#000000" fill-rule="evenodd" stroke="none"/>
    <path d="M-23.4 4.05 L-24.35 3.9 -24.3 3.8 -22.1 3.75 -22.05 3.6 -22.05 3.45 -23.6 3.35 -25.15 3.1 -27.5 3.2 -27.85 2.7 -25.45 2.95 -21.8 2.8 -21.6 2.45 -21.45 2.65 -21.15 2.25 -21.0 2.5 -20.8 2.65 -20.7 2.55 -20.6 2.45 -19.7 2.6 -19.7 2.85 -19.5 2.95 -17.65 2.75 -15.85 2.95 -14.4 2.75 -12.95 2.85 -13.0 2.95 Q-11.8 2.8 -9.55 3.0 L-9.65 3.05 -7.95 2.85 -7.95 2.5 -7.65 2.8 -7.45 2.6 -7.25 2.8 -6.95 2.45 -6.5 2.8 -5.85 2.8 -5.55 1.85 -5.05 1.05 Q-5.0 1.2 -5.3 2.2 -5.55 2.95 -5.0 3.1 L-2.65 3.45 -0.2 3.5 Q0.15 3.8 0.85 3.75 L2.0 3.75 3.45 3.95 3.45 4.05 5.95 4.05 5.9 3.85 6.05 3.8 6.1 3.7 6.3 3.9 6.5 3.75 6.6 3.85 6.8 4.1 6.9 3.85 7.05 3.65 7.5 3.95 8.05 4.0 8.25 3.05 Q8.4 2.4 8.7 2.2 L8.55 3.1 8.45 4.05 9.95 4.65 9.75 4.65 9.65 4.8 13.5 4.6 16.45 4.1 19.5 3.8 21.05 3.75 22.55 3.25 22.3 3.25 22.65 3.05 Q22.8 2.9 22.95 3.2 L23.05 2.95 23.35 3.25 23.4 3.0 Q23.4 2.75 23.55 2.7 23.7 2.75 23.9 2.95 L24.3 2.95 24.4 2.8 24.1 1.95 Q23.9 1.45 24.1 1.1 L24.45 1.95 24.5 2.8 26.9 3.05 26.05 3.15 25.0 3.0 24.5 3.1 24.85 3.4 24.95 3.8 27.45 3.15 Q29.0 2.9 30.1 3.15 L30.1 3.55 27.45 3.3 26.25 3.7 25.0 4.15 Q24.85 4.45 24.85 5.05 L24.7 5.9 24.55 5.85 24.45 5.7 24.6 4.8 Q24.7 4.25 24.3 4.1 24.1 4.55 23.65 4.5 L23.05 4.4 22.3 5.0 21.4 5.3 22.0 4.85 22.65 4.45 21.7 4.05 20.05 4.2 18.45 4.45 15.9 4.6 13.4 4.85 10.95 5.05 8.45 5.25 8.7 6.65 Q8.4 6.55 8.25 5.65 8.1 4.85 7.3 5.15 L6.65 5.3 5.95 5.15 Q5.65 4.7 5.0 4.55 L3.85 4.35 1.9 4.25 0.05 3.95 -1.55 3.95 -3.15 3.7 -4.75 3.95 Q-5.75 4.0 -6.2 4.4 L-6.95 4.45 -6.8 5.0 Q-6.75 5.35 -6.95 5.5 L-7.3 4.45 Q-7.55 3.8 -8.0 3.5 L-10.25 3.45 -12.55 3.2 -15.05 3.3 Q-16.7 3.15 -17.55 3.3 L-18.55 3.25 Q-19.15 3.2 -19.4 3.5 L-19.8 3.5 Q-20.0 3.35 -20.1 3.35 L-20.65 4.0 -21.05 4.75 -21.2 4.4 -21.05 4.0 Q-20.9 3.85 -21.05 3.8 L-21.3 3.65 Q-21.75 3.7 -22.0 4.15 L-22.4 5.0 Q-22.65 4.95 -22.5 4.4 L-22.4 4.25 -22.35 4.05 -22.45 3.95 -23.4 4.05" fill="#000000" fill-rule="evenodd" stroke="none"/>
    <path d="M-25.45 1.45 Q-26.1 1.0 -26.95 0.8 L-28.6 0.7 -29.35 0.55 -30.05 0.4 -32.0 0.3 -33.85 0.0 -35.5 0.0 -37.1 -0.25 -38.7 -0.05 Q-39.7 0.05 -40.1 0.45 L-40.9 0.5 -40.75 1.05 Q-40.7 1.4 -40.9 1.55 L-41.25 0.5 -41.95 -0.45 -43.8 -0.55 -45.75 -0.6 -45.55 -1.1 -43.5 -0.95 -43.55 -0.9 -41.9 -1.1 -41.9 -1.45 -41.6 -1.15 -41.35 -1.35 -41.2 -1.15 -40.9 -1.5 Q-40.8 -1.25 -40.45 -1.15 L-39.75 -1.15 -39.45 -2.1 -39.0 -2.9 Q-38.95 -2.75 -39.25 -1.75 -39.45 -1.0 -38.9 -0.85 L-36.55 -0.5 -34.1 -0.45 -33.1 -0.25 -31.95 -0.2 -30.45 0.0 -30.45 0.1 -28.5 0.1 -26.5 0.8 -24.45 0.85 -24.3 0.75 -24.3 0.85 -20.4 0.6 -17.45 0.15 -14.45 -0.15 Q-13.9 0.0 -13.3 -0.15 L-12.2 -0.45 Q-12.2 -0.2 -12.35 0.1 L-13.95 0.25 -15.5 0.5 -18.0 0.6 -20.5 0.85 -23.0 1.1 -25.5 1.3 -25.45 1.45" fill="#000000" fill-rule="evenodd" stroke="none"/>
    <path d="M-8.45 0.05 L-9.5 0.3 -12.35 0.2 Q-13.4 0.05 -12.95 -0.15 L-12.25 -0.4 -11.15 -0.1 -8.5 -0.25 -6.1 -0.8 -3.6 -0.7 -1.75 -0.85 0.1 -0.75 -0.55 -0.65 1.7 -0.6 3.85 -0.4 3.55 -0.3 3.1 -0.25 4.9 -0.2 6.7 -0.1 Q6.95 -0.45 6.8 -1.2 6.6 -2.05 6.75 -2.35 L7.1 -1.25 Q7.25 -0.5 7.6 -0.2 L7.7 -0.5 8.4 -0.05 8.3 0.0 8.95 0.15 9.15 -0.15 9.6 -0.15 9.8 -0.15 9.7 0.2 13.55 0.4 13.0 0.55 15.3 0.5 17.65 0.55 17.2 0.65 16.95 0.85 19.15 0.65 Q20.5 0.45 21.3 0.65 L21.0 0.75 20.8 0.9 23.4 0.55 23.05 0.4 Q23.2 0.25 23.6 0.2 24.0 0.15 24.1 -0.1 L24.65 0.4 24.7 0.25 24.65 0.1 26.05 0.45 27.6 0.6 26.65 0.75 25.7 0.5 26.35 1.1 29.05 0.5 31.9 0.3 31.45 0.4 31.0 0.55 33.3 0.35 35.6 0.25 35.25 0.3 34.85 0.45 34.95 0.55 36.75 0.25 38.65 0.2 38.4 0.25 38.0 0.4 38.1 0.5 39.15 0.45 40.15 0.25 39.55 0.0 38.95 -0.2 39.75 -0.15 40.5 0.05 40.6 -0.15 41.2 -0.1 Q41.55 -0.05 41.7 0.25 L42.05 0.2 42.15 0.0 42.7 -0.4 43.3 -0.5 42.85 -0.15 42.55 0.2 46.1 0.85 45.15 0.95 42.4 0.45 Q42.1 0.5 42.15 0.7 L42.2 1.15 44.3 1.15 46.3 1.0 48.85 0.9 48.95 1.15 48.9 1.15 48.95 1.15 49.05 1.4 47.6 1.4 46.25 1.15 44.65 1.4 43.0 1.4 Q41.05 1.5 40.35 2.9 L40.25 2.8 40.25 2.65 40.95 2.05 41.55 1.45 Q41.3 1.15 40.9 1.45 40.55 1.75 40.25 1.45 L40.2 1.2 40.15 0.95 39.7 1.6 39.25 1.95 Q39.55 1.8 39.55 1.45 39.6 1.0 39.75 0.85 L38.35 0.65 36.85 0.65 34.5 0.75 32.15 0.65 29.2 0.9 Q27.3 0.9 26.35 1.4 L26.5 1.95 26.6 2.5 26.1 1.65 Q25.9 1.0 25.2 1.35 L24.9 1.7 24.75 1.65 24.65 1.55 24.35 1.7 24.05 1.6 Q23.75 1.15 22.85 1.15 L21.45 1.0 18.15 1.05 14.85 0.9 13.3 0.85 11.65 0.9 9.2 0.65 9.0 1.1 8.35 0.7 Q7.95 0.55 7.8 1.0 L7.3 0.9 Q7.0 0.8 7.1 0.5 L7.05 0.4 7.0 0.35 Q6.5 0.3 5.8 0.85 5.15 1.45 4.75 1.45 L5.3 0.95 5.8 0.4 Q4.95 -0.05 3.1 -0.05 L0.25 -0.4 -3.15 -0.35 -6.45 -0.6 -8.45 0.05" fill="#000000" fill-rule="evenodd" stroke="none"/>
    <path d="M25.8 -1.45 L25.65 0.1 25.5 0.1 25.5 -0.75 Q25.5 -1.3 25.8 -1.45" fill="#000000" fill-rule="evenodd" stroke="none"/>
    <path d="M-20.65 -1.45 L-20.7 -1.25 -22.8 -0.85 -23.1 -0.65 -23.15 -0.7 Q-28.45 1.05 -33.6 1.8 L-35.4 2.0 -37.25 2.25 -37.45 2.45 -37.9 2.7 Q-38.15 2.75 -38.1 2.6 L-38.5 2.7 -38.65 2.55 -39.25 2.5 -39.45 2.6 -39.55 2.6 -40.3 3.3 -40.95 4.05 -39.8 2.5 -43.95 2.35 -43.5 1.9 -41.3 2.0 -39.85 2.05 -39.7 2.05 -39.5 1.75 Q-39.4 1.6 -39.1 1.55 L-38.95 1.05 -38.8 0.55 -38.8 1.65 Q-38.7 1.5 -38.5 1.5 L-38.3 1.7 Q-37.9 1.45 -37.75 1.7 L-37.45 1.65 -36.4 0.7 -35.25 -0.25 -37.15 1.75 -30.6 0.9 Q-26.45 0.1 -23.25 -1.05 L-23.2 -1.1 Q-21.95 -1.25 -20.8 -2.0 L-20.7 -1.95 -10.65 -2.35 -10.45 -2.45 -10.45 -3.45 -10.5 -4.7 -10.35 -4.9 -10.3 -4.7 -10.25 -4.45 -10.25 -3.55 -10.15 -2.65 -10.05 -2.5 Q-9.65 -2.75 -9.55 -2.4 L-9.3 -2.55 -9.2 -2.35 -8.9 -2.35 -8.75 -2.05 -8.75 -2.0 -0.05 0.35 -0.4 -1.85 -0.05 -0.75 0.25 0.25 0.3 0.25 0.65 0.25 0.85 0.25 1.05 0.35 1.35 0.25 1.5 0.4 1.65 0.35 1.9 0.4 3.5 -1.1 3.05 -0.55 2.05 0.55 2.05 0.6 2.0 0.95 6.4 2.2 10.45 3.05 16.2 3.25 16.3 3.15 16.45 3.0 15.95 1.95 15.5 1.0 16.15 1.95 Q16.5 2.75 16.75 2.75 L17.0 2.8 Q17.0 2.7 17.3 2.65 L17.6 2.75 17.8 2.55 18.15 2.7 18.4 2.6 Q18.65 2.65 18.75 2.8 L20.7 2.45 20.3 2.9 18.8 3.15 18.7 3.35 18.65 3.5 18.8 4.3 18.95 5.05 18.65 4.25 18.3 3.65 18.05 3.55 17.8 3.75 17.4 3.65 17.2 3.8 16.85 3.7 16.75 3.8 16.5 3.75 15.95 4.15 15.4 4.5 15.8 4.05 16.25 3.6 10.7 3.4 5.3 2.3 4.95 2.2 1.8 1.35 1.75 3.0 1.7 2.15 1.5 1.45 1.35 1.35 1.2 1.4 0.8 1.35 0.7 1.25 0.5 1.4 0.2 1.25 0.05 1.35 -0.2 1.2 -1.05 1.9 -1.4 2.15 -0.85 1.6 -0.3 1.0 -0.3 0.9 -0.3 0.75 -4.35 -0.4 -8.95 -1.55 -9.05 -1.4 -9.2 -0.6 -9.3 0.2 -9.4 0.35 -9.4 -0.1 -9.4 -0.55 -9.35 -1.25 -9.4 -1.35 -9.5 -1.45 Q-9.85 -1.2 -10.0 -1.55 L-10.2 -1.45 -10.4 -1.65 -10.6 -1.6 -10.75 -1.9 -13.1 -2.25 Q-16.15 -2.7 -20.65 -1.45" fill="#000000" fill-rule="evenodd" stroke="none"/>
    <path d="M19.4 3.1 L18.6 3.3 18.65 2.9 24.0 1.2 Q26.95 0.1 29.25 -1.1 L29.4 -1.3 28.5 -2.2 27.95 -2.9 28.8 -2.25 29.6 -1.65 29.85 -1.65 Q30.1 -2.0 30.45 -1.9 L30.75 -2.15 31.0 -2.15 31.25 -2.35 31.65 -2.3 Q35.6 -4.1 41.55 -4.0 L41.75 -4.15 41.6 -5.15 41.4 -6.35 Q41.35 -6.65 41.5 -6.55 L41.65 -6.1 41.8 -5.25 42.0 -4.4 42.15 -4.25 42.6 -4.2 42.9 -4.35 43.0 -4.2 43.25 -4.25 43.45 -3.95 43.45 -3.9 48.15 -3.4 48.05 -2.9 43.35 -3.4 43.25 -3.25 43.25 -2.45 43.25 -1.65 43.2 -1.45 43.15 -1.45 43.05 -2.4 43.05 -2.8 43.0 -3.1 42.9 -3.15 42.8 -3.25 42.35 -3.3 42.15 -3.15 Q42.05 -3.15 41.9 -3.3 L41.75 -3.25 41.5 -3.5 39.15 -3.6 Q36.05 -3.6 31.8 -1.8 L31.75 -1.6 32.15 -0.8 32.45 -0.25 32.0 -0.85 31.45 -1.35 31.35 -1.35 31.2 -1.35 Q30.95 -0.95 30.55 -1.1 L30.4 -0.85 30.0 -0.8 29.25 1.5 29.45 0.45 29.7 -0.65 29.4 -0.75 Q24.3 1.75 19.4 3.1" fill="#000000" fill-rule="evenodd" stroke="none"/>
    <path d="M-14.45 3.45 L-14.55 3.3 -14.6 3.15 -16.1 2.85 -16.5 2.45 -14.6 2.75 Q-14.45 2.6 -14.25 2.6 L-13.95 2.65 -13.65 2.55 Q-13.45 2.6 -13.4 2.7 L-13.1 2.65 -12.8 2.8 Q-12.8 2.7 -12.6 2.7 -12.35 2.7 -11.95 1.9 L-11.3 0.95 -11.8 1.95 -12.25 3.0 -12.15 3.1 -12.0 3.25 -6.25 3.0 -2.2 2.2 2.15 0.95 2.15 0.9 3.6 0.4 4.3 0.1 4.25 0.3 12.95 -2.0 12.95 -2.1 13.1 -2.4 13.35 -2.35 13.45 -2.55 13.75 -2.45 14.2 -2.55 14.35 -2.7 14.4 -3.55 14.45 -4.45 14.55 -4.9 14.7 -4.75 14.65 -3.5 14.65 -2.5 14.8 -2.35 24.9 -1.95 25.05 -2.05 25.9 -1.8 26.15 -1.65 26.7 -1.6 26.75 -1.55 27.0 -1.6 27.7 -2.3 28.5 -3.05 27.25 -1.3 27.4 -1.1 Q30.65 0.05 34.75 0.9 L41.35 1.75 39.45 -0.3 40.6 0.7 41.6 1.6 41.9 1.7 42.5 1.65 42.7 1.45 43.0 1.6 42.95 1.05 43.0 0.55 43.15 1.05 43.3 1.5 43.7 1.7 43.9 2.0 44.05 2.0 47.7 1.85 48.15 2.35 44.0 2.45 45.15 4.05 44.45 3.25 43.75 2.6 43.45 2.5 Q43.3 2.8 42.8 2.5 L42.7 2.7 42.3 2.6 42.1 2.65 41.65 2.4 41.55 2.3 41.45 2.2 39.6 2.0 37.75 1.8 Q32.6 1.05 27.3 -0.7 L24.85 -1.4 24.8 -1.5 Q20.3 -2.7 17.3 -2.3 L14.95 -1.9 14.75 -1.65 14.6 -1.65 14.35 -1.45 14.15 -1.6 Q14.0 -1.25 13.7 -1.45 L13.6 -1.35 13.55 -1.3 13.55 -0.6 13.6 -0.15 13.6 0.35 13.45 0.2 13.4 -0.65 13.25 -1.4 13.15 -1.55 8.55 -0.4 4.5 0.75 3.85 0.75 Q2.7 0.95 2.2 1.35 L-0.8 2.2 -1.15 2.3 -6.5 3.35 -12.05 3.55 -11.65 4.05 -11.2 4.5 -11.75 4.1 -12.35 3.75 -12.55 3.75 -12.65 3.7 -13.0 3.8 -13.25 3.6 -13.65 3.7 -13.85 3.55 -14.1 3.65 -14.45 4.25 -14.75 5.05 -14.6 4.3 -14.45 3.45" fill="#000000" fill-rule="evenodd" stroke="none"/>
    <path d="M-25.4 -1.65 L-24.6 -2.3 -23.75 -2.95 -24.3 -2.25 -25.2 -1.3 -25.1 -1.1 -19.8 1.2 -14.5 2.85 -14.45 3.3 -15.2 3.1 Q-20.1 1.75 -25.2 -0.75 L-25.5 -0.65 -25.25 0.4 -25.05 1.5 -25.8 -0.85 -26.2 -0.9 -26.35 -1.1 Q-26.75 -0.95 -27.0 -1.4 L-27.15 -1.35 -27.25 -1.35 -27.8 -0.9 -28.3 -0.3 -28.0 -0.85 -27.55 -1.65 -27.6 -1.85 Q-31.9 -3.65 -34.95 -3.6 L-37.35 -3.55 -37.55 -3.3 -37.75 -3.35 -37.95 -3.2 Q-38.05 -3.2 -38.15 -3.35 L-38.65 -3.3 -38.75 -3.15 -38.8 -3.15 -38.85 -2.85 -38.85 -2.4 -39.0 -1.5 -39.1 -1.65 -39.05 -2.5 Q-39.0 -3.1 -39.1 -3.3 L-39.15 -3.45 -43.85 -2.9 -43.95 -3.4 -39.3 -3.9 -39.3 -4.0 -39.1 -4.25 -38.85 -4.2 -38.7 -4.4 -38.45 -4.25 Q-38.3 -4.55 -37.95 -4.25 L-37.8 -4.4 -37.65 -5.25 -37.5 -6.15 -37.3 -6.6 Q-37.15 -6.7 -37.2 -6.4 L-37.4 -5.15 -37.55 -4.15 -37.4 -4.0 Q-31.4 -4.15 -27.45 -2.3 L-27.1 -2.35 -26.8 -2.15 -26.55 -2.2 -26.3 -1.95 Q-25.95 -2.05 -25.7 -1.65 L-25.4 -1.65" fill="#000000" fill-rule="evenodd" stroke="none"/>
    <path d="M30.3 4.1 L30.8 3.75 31.25 3.25 30.25 2.95 30.35 2.75 31.2 2.75 32.0 2.85 Q32.2 2.55 32.05 1.95 31.9 1.25 32.05 1.0 L32.3 1.95 32.7 2.8 32.8 2.55 33.4 2.95 33.35 2.95 33.85 3.1 Q33.8 2.85 34.0 2.9 L34.4 2.85 34.55 2.85 34.45 3.15 37.7 3.35 37.25 3.5 39.15 3.5 41.1 3.55 40.7 3.65 40.5 3.8 42.35 3.65 44.15 3.7 43.9 3.75 Q43.65 3.8 43.7 3.9 L45.9 3.65 45.65 3.5 Q45.75 3.35 46.1 3.35 L46.5 3.1 46.95 3.55 47.0 3.4 46.95 3.3 48.15 3.6 49.4 3.75 48.65 3.85 47.85 3.65 48.35 4.1 49.95 3.85 50.0 4.0 48.35 4.35 48.5 4.85 48.55 5.3 48.15 4.6 Q48.0 4.05 47.4 4.3 L47.15 4.65 47.0 4.6 46.9 4.5 46.7 4.6 46.45 4.55 Q46.2 4.15 45.45 4.1 L44.3 4.0 41.55 4.0 38.75 3.85 37.45 3.75 36.1 3.8 34.05 3.55 33.9 3.9 33.35 3.55 Q33.0 3.4 32.9 3.85 L32.45 3.7 Q32.2 3.65 32.3 3.35 L32.25 3.3 32.2 3.25 Q31.8 3.2 31.25 3.65 30.65 4.15 30.3 4.1" fill="#000000" fill-rule="evenodd" stroke="none"/>
    <path d="M47.95 2.0 L47.8 3.3 47.7 3.3 47.7 2.6 Q47.7 2.15 47.95 2.0" fill="#000000" fill-rule="evenodd" stroke="none"/>
    <path d="M-25.95 3.05 L-25.9 3.45 -29.1 4.1 Q-30.8 4.65 -31.25 6.2 L-31.4 6.15 -31.45 5.95 -30.7 5.05 -30.1 4.2 Q-30.45 3.9 -30.85 4.4 L-31.7 4.45 -31.8 4.2 -31.9 3.95 -32.3 4.75 Q-32.5 5.35 -32.75 5.3 -32.5 5.1 -32.5 4.6 L-32.4 3.85 -34.15 3.9 -35.85 4.25 -35.7 3.6 -33.9 3.3 -34.15 3.45 -34.6 3.65 -34.45 3.8 -33.2 3.5 Q-32.45 3.35 -32.05 3.05 L-32.8 2.9 -33.55 2.75 -32.65 2.7 -31.65 2.75 -31.6 2.5 -30.85 2.4 Q-30.4 2.4 -30.15 2.75 L-29.75 2.65 -29.7 2.35 -29.1 1.8 Q-28.75 1.45 -28.4 1.55 L-28.9 2.05 Q-29.25 2.3 -29.15 2.5 L-25.95 2.6 -25.95 2.95 -29.3 2.85 Q-29.65 3.0 -29.5 3.2 L-29.35 3.7 -27.65 3.5 -25.95 3.05" fill="#000000" fill-rule="evenodd" stroke="none"/>
    <path d="M-16.9 0.1 L-16.35 -0.2 -16.6 -0.2 Q-16.45 -0.2 -16.25 -0.45 -16.15 -0.6 -15.95 -0.35 L-15.9 -0.6 -15.55 -0.3 Q-15.45 -0.4 -15.5 -0.6 L-15.4 -0.9 -15.05 -0.7 -14.65 -0.8 -14.55 -0.9 -15.0 -1.7 Q-15.25 -2.2 -15.1 -2.55 L-14.65 -1.75 Q-14.35 -1.25 -14.45 -0.9 L-12.05 -1.0 -12.9 -0.8 -13.95 -0.8 -14.4 -0.6 -14.2 -0.5 -14.0 -0.35 -13.9 -0.1 -13.85 0.0 -13.75 0.3 -13.75 0.35 -13.8 1.2 -13.8 2.1 -13.95 2.05 -14.1 1.95 -14.1 1.05 Q-14.1 0.5 -14.5 0.4 -14.65 0.85 -15.15 0.85 L-15.95 0.95 -17.0 0.75 Q-16.8 0.4 -16.9 0.1" fill="#000000" fill-rule="evenodd" stroke="none"/>
    <path d="M-15.7 0.9 L-16.3 1.6 Q-16.75 2.0 -17.2 2.0 L-16.5 1.35 -15.7 0.9" fill="#000000" fill-rule="evenodd" stroke="none"/>
  </g>
</svg>
