<?xml version="1.0" encoding="UTF-8" standalone="no"?>
<svg xmlns:xlink="http://www.w3.org/1999/xlink" height="99.65px" width="100.0px" xmlns="http://www.w3.org/2000/svg">
  <g transform="matrix(1.0, 0.0, 0.0, 1.0, 50.0, 49.8)">
    <path d="M17.5 13.35 Q13.3 18.15 4.35 27.4 -9.6 41.95 -29.15 47.7 -35.2 49.35 -39.65 49.65 L-50.0 49.1 Q-41.25 48.5 -33.35 44.8 -25.0 40.95 -19.8 34.55 -16.0 29.95 -14.1 26.85 -12.1 23.3 -10.05 17.9 -8.65 14.4 -7.35 8.65 L-5.15 -0.8 -3.0 -9.35 -0.65 -17.9 Q2.45 -27.55 8.0 -34.65 14.05 -42.35 21.9 -46.45 31.1 -51.3 39.5 -49.1 42.85 -48.25 45.6 -46.0 48.55 -43.6 49.55 -40.45 50.65 -37.2 49.1 -32.0 48.0 -28.5 46.1 -25.15 38.75 -11.7 26.3 2.9 L17.5 13.35" fill="#000000" fill-rule="evenodd" stroke="none"/>
  </g>
</svg>
