<?xml version="1.0" encoding="UTF-8" standalone="no"?>
<svg xmlns:xlink="http://www.w3.org/1999/xlink" height="97.3px" width="100.0px" xmlns="http://www.w3.org/2000/svg">
  <g transform="matrix(1.0, 0.0, 0.0, 1.0, 50.0, 48.65)">
    <path d="M28.05 -48.45 Q32.45 -47.7 36.2 -45.05 43.55 -39.65 47.2 -29.25 50.95 -18.35 49.65 -7.85 48.7 1.65 43.75 10.85 39.25 19.35 31.9 26.55 25.25 33.15 15.05 38.3 5.9 43.15 -5.95 45.9 -15.05 47.95 -28.2 48.5 -40.45 49.05 -50.0 47.3 L-40.25 46.05 -30.55 44.3 Q-25.5 43.15 -21.1 41.3 -18.2 40.1 -12.8 37.1 -4.95 32.6 1.4 24.95 6.0 19.5 8.7 11.0 10.3 6.15 10.65 1.2 L10.5 -9.75 10.4 -20.2 Q10.4 -26.75 11.15 -31.05 12.15 -36.1 13.75 -39.45 16.35 -45.05 19.55 -46.95 23.2 -49.25 28.05 -48.45" fill="#000000" fill-rule="evenodd" stroke="none"/>
  </g>
</svg>
