<?xml version="1.0" encoding="UTF-8" standalone="no"?>
<svg xmlns:xlink="http://www.w3.org/1999/xlink" height="100.0px" width="96.6px" xmlns="http://www.w3.org/2000/svg">
  <g transform="matrix(1.0, 0.0, 0.0, 1.0, 48.3, 50.0)">
    <path d="M29.15 -26.25 Q4.3 -16.1 -7.3 -5.6 -15.85 1.5 -23.2 11.25 -29.8 20.05 -34.1 29.35 L-40.3 44.0 Q-42.75 50.0 -44.1 50.0 -45.8 50.1 -47.2 43.55 -48.9 35.85 -48.0 25.9 -47.05 14.05 -41.55 1.25 -35.35 -13.05 -25.4 -23.7 -15.5 -34.8 -1.6 -41.9 11.3 -48.55 23.35 -49.65 34.4 -50.85 41.6 -47.95 48.45 -45.25 48.3 -40.45 48.1 -36.15 42.7 -32.65 39.15 -30.4 29.15 -26.25" fill="#000000" fill-rule="evenodd" stroke="none"/>
  </g>
</svg>
