<?xml version="1.0" encoding="UTF-8" standalone="no"?>
<svg xmlns:xlink="http://www.w3.org/1999/xlink" height="75.25px" width="100.05px" xmlns="http://www.w3.org/2000/svg">
  <g transform="matrix(1.0, 0.0, 0.0, 1.0, 50.0, 37.6)">
    <path d="M41.2 -3.2 L35.35 -2.65 29.5 -2.75 23.75 -2.7 18.15 -2.35 Q14.45 -2.65 12.2 -1.2 10.9 -0.35 9.8 1.25 L8.0 4.25 0.55 16.75 Q-3.8 23.85 -8.15 28.3 -13.8 34.2 -20.05 36.3 -26.3 38.3 -33.0 37.35 -41.65 35.95 -50.0 30.3 -40.25 33.0 -36.5 33.3 -28.55 34.0 -23.45 30.25 -18.65 26.75 -16.55 18.9 -14.9 12.85 -14.8 4.85 L-14.65 -2.25 Q-14.5 -6.35 -13.85 -9.25 -12.2 -16.3 -8.8 -21.65 -5.05 -27.55 0.7 -31.55 6.55 -35.6 13.35 -36.95 20.25 -38.3 27.35 -36.75 34.65 -35.2 40.2 -31.05 45.4 -27.2 48.15 -21.75 51.25 -15.55 49.25 -9.95 48.45 -7.75 46.75 -5.95 44.75 -3.85 41.2 -3.2" fill="#000000" fill-rule="evenodd" stroke="none"/>
  </g>
</svg>
