<?xml version="1.0" encoding="UTF-8" standalone="no"?>
<svg xmlns:xlink="http://www.w3.org/1999/xlink" height="100.0px" width="68.4px" xmlns="http://www.w3.org/2000/svg">
  <g transform="matrix(1.0, 0.0, 0.0, 1.0, 34.2, 50.0)">
    <path d="M-26.35 -27.45 Q-28.8 -22.55 -30.35 -16.6 -33.7 -3.3 -30.8 9.95 -27.9 23.25 -19.25 34.25 -12.0 43.3 -1.6 50.0 -13.6 43.3 -21.65 32.85 -29.6 22.4 -32.6 9.55 -35.75 -4.0 -32.6 -16.7 -30.7 -24.0 -27.0 -29.4 -22.9 -35.15 -17.8 -39.5 -22.9 -34.45 -26.35 -27.45 M-3.4 -15.8 Q-2.6 -13.85 -1.45 -12.15 L0.45 -9.7 Q-2.25 -6.15 -3.95 -2.75 -5.9 1.2 -7.0 5.6 L-8.0 10.7 Q-9.25 20.6 -4.65 29.85 -9.1 22.7 -10.4 14.15 -11.75 5.6 -9.65 -2.5 -8.75 -6.4 -6.85 -10.2 -5.35 -13.2 -3.4 -15.8 M-3.85 -26.75 L-4.15 -25.85 Q-4.85 -22.8 -4.45 -19.8 -7.7 -15.95 -9.85 -11.6 -11.8 -7.75 -12.95 -3.3 -15.15 5.65 -13.55 15.2 -12.0 24.7 -6.95 32.5 -3.6 37.65 1.1 42.4 -9.2 33.9 -14.5 22.65 -17.85 15.6 -18.65 8.85 L-18.8 7.85 Q-18.85 0.95 -17.3 -5.25 -16.15 -9.6 -14.2 -13.7 -10.4 -21.25 -3.85 -26.75 M16.65 -46.15 Q11.65 -48.65 6.05 -48.95 0.5 -49.25 -5.1 -47.35 1.35 -50.0 7.6 -50.0 14.05 -50.0 19.6 -47.25 L22.8 -45.35 Q28.0 -41.75 30.95 -36.95 33.9 -32.25 34.15 -27.05 34.3 -24.1 33.6 -21.35 32.15 -15.45 27.3 -11.3 21.85 -6.6 15.15 -6.9 11.4 -7.1 8.05 -8.7 L7.8 -8.8 5.6 -10.5 Q3.4 -12.55 2.15 -14.55 -1.3 -19.65 0.05 -24.75 L0.35 -25.85 Q0.35 -21.8 2.2 -18.8 4.05 -15.75 7.5 -14.0 L8.55 -13.55 Q14.9 -10.9 20.4 -13.25 25.15 -15.4 27.65 -20.5 L28.9 -23.9 Q29.65 -26.8 29.4 -30.1 28.85 -34.85 25.45 -39.2 21.95 -43.55 16.65 -46.15 M-9.85 -41.5 Q-2.4 -45.9 5.2 -45.7 10.5 -45.5 15.2 -43.15 19.65 -41.0 22.6 -37.25 25.65 -33.6 26.05 -29.75 26.35 -27.15 25.7 -24.75 L24.7 -21.95 Q22.75 -18.05 19.2 -16.45 15.0 -14.5 9.85 -16.6 9.45 -16.75 8.95 -17.0 4.8 -19.05 3.95 -23.5 3.3 -26.45 4.2 -30.2 L6.2 -35.5 1.5 -34.25 Q-2.7 -33.25 -7.6 -29.2 -13.9 -23.95 -18.1 -15.55 -20.25 -11.05 -21.45 -6.25 -23.2 0.65 -23.0 7.8 -23.15 8.4 -22.5 11.75 -21.6 16.55 -19.6 21.5 -13.2 37.15 1.35 47.95 -9.55 41.1 -16.65 32.1 -24.8 21.85 -27.55 9.25 -30.25 -3.3 -27.1 -15.8 -25.75 -21.2 -23.35 -25.95 -18.15 -36.5 -9.85 -41.5" fill="#000000" fill-rule="evenodd" stroke="none"/>
  </g>
</svg>
