<?xml version="1.0" encoding="UTF-8" standalone="no"?>
<svg xmlns:xlink="http://www.w3.org/1999/xlink" height="61.2px" width="100.05px" xmlns="http://www.w3.org/2000/svg">
  <g transform="matrix(1.0, 0.0, 0.0, 1.0, 50.0, 30.6)">
    <path d="M20.25 -17.2 Q21.45 -20.3 25.15 -21.75 31.35 -24.05 36.85 -21.05 31.6 -24.8 24.75 -24.65 19.65 -24.55 16.95 -21.55 14.1 -18.55 14.1 -12.75 14.1 -4.7 20.05 -3.5 22.15 -2.95 23.85 -4.55 25.65 -6.35 23.75 -8.6 22.0 -9.55 21.05 -11.0 19.0 -14.0 20.25 -17.2 M43.6 -13.1 Q41.55 -17.1 38.4 -19.8 35.15 -21.95 32.2 -22.0 L26.25 -21.3 Q23.6 -20.4 22.35 -18.55 21.0 -16.55 21.75 -13.95 22.25 -12.05 25.55 -9.75 28.75 -7.45 29.15 -5.4 L29.25 -4.45 Q29.55 -3.3 29.4 -2.0 29.1 1.5 26.45 4.0 23.5 6.85 18.9 7.0 13.0 7.15 8.6 3.55 4.55 0.2 2.95 -5.3 1.45 -10.75 2.85 -16.3 4.4 -22.15 9.0 -26.05 16.05 -32.05 26.6 -30.15 36.45 -28.45 43.4 -21.15 51.0 -13.2 49.9 -0.05 48.85 13.25 39.85 20.1 31.9 26.2 19.1 28.9 3.9 32.0 -14.8 29.45 -30.1 27.35 -41.8 28.75 L-50.0 27.25 Q-41.0 24.65 -30.7 24.1 -22.65 23.7 -13.05 24.55 L9.45 25.85 Q21.25 25.5 30.95 21.15 38.2 15.3 40.7 8.8 42.15 4.9 40.65 -0.15 39.25 -4.45 36.75 -6.8 L39.0 -0.75 Q40.05 3.95 38.45 8.0 37.35 10.8 34.55 13.7 31.8 16.5 28.9 18.0 32.65 14.1 34.35 8.7 35.9 3.95 35.55 -0.55 35.0 -6.15 32.45 -10.15 L30.0 -13.05 31.7 -12.7 Q33.65 -12.05 35.6 -10.9 41.65 -7.35 43.65 -1.9 45.45 2.85 44.9 6.65 46.6 1.85 46.3 -3.2 45.95 -8.45 43.6 -13.1" fill="#000000" fill-rule="evenodd" stroke="none"/>
  </g>
</svg>
