<?xml version="1.0" encoding="UTF-8" standalone="no"?>
<svg xmlns:xlink="http://www.w3.org/1999/xlink" height="24.05px" width="100.0px" xmlns="http://www.w3.org/2000/svg">
  <g transform="matrix(1.0, 0.0, 0.0, 1.0, 50.0, 12.0)">
    <path d="M-44.95 7.2 L-43.6 6.9 -36.75 4.9 Q-30.85 3.2 -30.35 3.55 -29.8 3.9 -29.85 4.25 L-30.0 4.6 -32.55 4.7 Q-36.05 5.15 -40.7 6.9 -43.0 7.75 -44.85 8.05 L-44.95 7.2" fill="#050505" fill-rule="evenodd" stroke="none"/>
    <path d="M-30.65 5.9 Q-32.3 6.95 -34.35 7.7 -40.35 10.05 -44.05 8.1 L-42.55 7.65 -39.35 8.05 Q-35.2 7.8 -30.7 4.75 L-30.2 4.65 -29.35 4.8 Q-29.15 4.95 -30.65 5.9" fill="#050505" fill-rule="evenodd" stroke="none"/>
    <path d="M-27.95 4.95 Q-27.55 7.4 -29.1 9.1 -28.55 8.2 -28.45 7.0 -28.15 4.65 -30.1 3.4 L-30.15 3.05 Q-30.0 2.7 -29.3 2.7 -28.3 2.65 -27.95 4.95" fill="#050505" fill-rule="evenodd" stroke="none"/>
    <path d="M-27.75 5.25 Q-27.75 4.75 -27.9 4.2 -28.2 3.1 -28.95 2.65 L-28.85 2.4 Q-28.6 2.1 -27.9 2.2 -27.15 2.3 -26.7 3.45 -26.35 4.45 -26.55 5.0 -26.75 5.4 -27.25 5.35 L-27.75 5.25" fill="#050505" fill-rule="evenodd" stroke="none"/>
    <path d="M-26.4 4.9 Q-26.35 4.2 -26.65 3.3 -27.3 1.55 -29.25 0.7 L-27.2 1.45 Q-25.15 2.55 -24.95 4.2 L-25.2 4.65 Q-25.55 5.1 -26.4 4.9" fill="#050505" fill-rule="evenodd" stroke="none"/>
    <path d="M-25.2 2.85 L-23.45 2.7 -19.3 2.95 -14.7 3.25 -12.5 3.1 Q-10.45 2.95 -7.25 1.25 L-4.0 -0.4 Q-3.5 -0.3 -3.45 -0.05 L-3.5 0.2 Q-3.5 0.5 -7.95 2.65 -10.85 4.05 -14.6 4.2 L-20.0 3.9 -23.55 3.6 -25.0 3.65 Q-25.35 3.25 -25.2 2.85" fill="#050505" fill-rule="evenodd" stroke="none"/>
    <path d="M-24.9 2.65 L-23.25 2.2 -17.8 1.8 -10.95 0.95 -7.85 0.05 -4.25 -1.35 -3.9 -1.15 Q-3.6 -0.9 -3.85 -0.55 L-7.85 1.25 -11.55 2.15 -17.0 2.9 -19.4 2.8 -20.05 2.8 -24.9 2.65" fill="#050505" fill-rule="evenodd" stroke="none"/>
    <path d="M-4.5 3.3 L-3.55 2.25 Q-2.75 0.95 -3.35 -0.3 -3.95 -1.6 -3.7 -2.1 L-2.9 -2.35 -2.3 -1.8 Q-1.9 -1.2 -1.85 -0.45 -1.75 1.7 -4.5 3.3" fill="#050505" fill-rule="evenodd" stroke="none"/>
    <path d="M-1.85 0.2 L-1.75 -0.75 Q-1.8 -1.8 -2.65 -2.45 L-2.4 -2.7 -1.55 -2.8 Q-1.0 -2.65 -0.7 -1.35 -0.4 -0.05 -0.75 0.15 L-1.4 0.3 -1.85 0.2" fill="#050505" fill-rule="evenodd" stroke="none"/>
    <path d="M-1.1 -4.0 Q0.7 -2.7 0.65 -1.0 L0.6 -0.55 Q0.4 -0.1 -0.45 -0.2 -0.4 -0.95 -0.7 -1.9 -1.25 -3.85 -2.9 -4.9 L-1.1 -4.0" fill="#050505" fill-rule="evenodd" stroke="none"/>
    <path d="M17.25 2.85 Q21.9 5.0 22.15 5.25 22.45 5.55 22.2 5.85 L21.95 6.1 Q16.2 3.65 11.2 1.1 8.05 -0.45 4.25 -0.9 L1.05 -1.05 Q0.75 -1.25 0.85 -1.75 L1.05 -2.15 Q4.6 -2.2 8.1 -1.2 L10.9 -0.15 17.25 2.85" fill="#050505" fill-rule="evenodd" stroke="none"/>
    <path d="M16.5 0.25 L18.95 1.9 Q21.1 3.3 21.2 3.8 21.35 4.3 20.7 4.3 L20.05 4.15 15.65 1.25 Q12.2 -1.2 9.55 -1.85 L3.35 -2.4 0.6 -2.15 Q0.3 -2.3 0.45 -2.6 L0.65 -3.05 2.75 -3.15 4.75 -3.15 Q9.35 -3.35 13.2 -1.7 15.5 -0.7 16.5 0.25" fill="#050505" fill-rule="evenodd" stroke="none"/>
    <path d="M23.05 6.5 Q22.45 5.95 22.25 4.9 21.95 2.8 24.35 0.55 L23.65 2.05 Q23.05 3.7 23.75 4.55 24.4 5.35 23.8 6.05 L23.05 6.55 23.05 6.5" fill="#050505" fill-rule="evenodd" stroke="none"/>
    <path d="M23.5 6.85 L24.0 6.25 Q24.45 5.6 24.25 5.0 24.05 4.25 24.85 4.65 25.65 5.0 25.45 5.5 L25.05 6.6 24.35 7.3 23.7 7.15 23.5 6.85" fill="#050505" fill-rule="evenodd" stroke="none"/>
    <path d="M28.95 6.55 L27.85 8.0 Q26.7 9.25 26.5 11.25 L26.5 9.2 Q26.65 6.95 27.65 5.8 L28.3 5.8 Q28.95 5.9 28.95 6.55" fill="#050505" fill-rule="evenodd" stroke="none"/>
    <path d="M26.8 6.65 L26.05 7.85 Q25.55 8.1 25.05 7.85 24.55 7.6 24.6 7.35 L25.15 6.8 Q25.7 6.05 25.75 5.25 L26.2 5.15 Q26.75 5.15 27.05 5.7 L26.8 6.65" fill="#050505" fill-rule="evenodd" stroke="none"/>
    <path d="M36.45 6.05 Q39.25 4.75 44.1 3.5 48.75 2.25 49.55 2.5 50.1 2.7 50.0 3.15 L49.7 3.55 45.45 4.0 Q41.15 4.8 37.85 6.55 34.6 8.25 31.15 8.4 L28.35 8.25 Q28.05 8.0 28.5 7.55 29.0 7.05 29.0 7.3 L31.25 7.45 Q33.95 7.25 36.45 6.05" fill="#050505" fill-rule="evenodd" stroke="none"/>
    <path d="M40.7 6.7 L42.75 6.0 Q45.55 4.65 47.7 4.3 L49.3 4.15 Q49.95 4.1 49.9 4.4 L49.55 4.65 Q49.2 4.55 47.35 5.1 45.15 5.7 43.05 6.7 41.1 7.7 38.65 8.05 L36.6 8.2 Q35.25 8.3 35.7 7.85 36.15 7.35 37.4 7.4 L40.7 6.7" fill="#050505" fill-rule="evenodd" stroke="none"/>
    <path d="M29.3 6.95 L29.4 6.15 29.55 6.0 Q30.6 5.8 32.4 6.0 L34.0 6.2 33.7 6.7 Q33.25 7.2 32.6 7.05 L30.6 6.95 29.3 6.95" fill="#050505" fill-rule="evenodd" stroke="none"/>
    <path d="M-49.4 -4.95 Q-47.9 -6.0 -46.1 -6.6 L-45.95 -6.3 -46.05 -5.85 -47.45 -5.25 -49.3 -4.15 -49.4 -4.95" fill="#050505" fill-rule="evenodd" stroke="none"/>
    <path d="M-46.05 -5.75 L-46.05 -5.85 Q-45.45 -5.6 -45.45 -5.2 L-49.6 -2.25 Q-50.0 -2.3 -50.0 -2.95 -48.65 -3.6 -46.05 -5.75" fill="#050505" fill-rule="evenodd" stroke="none"/>
    <path d="M-20.35 -0.9 L-18.8 -0.3 -15.9 1.25 -17.45 1.5 Q-20.35 -0.3 -21.95 -0.6 L-20.35 -0.9" fill="#050505" fill-rule="evenodd" stroke="none"/>
    <path d="M-20.45 -1.05 L-20.55 -1.0 Q-20.65 -1.55 -20.4 -1.9 L-20.15 -2.15 Q-18.8 -1.75 -13.0 0.45 -12.85 0.75 -13.15 1.1 L-13.5 1.4 Q-14.8 0.75 -17.75 -0.2 L-20.45 -1.05" fill="#050505" fill-rule="evenodd" stroke="none"/>
    <path d="M-6.95 7.15 Q-10.8 4.9 -12.75 4.2 L-12.75 3.85 Q-12.6 3.5 -12.25 3.45 L-9.65 4.75 Q-6.85 6.1 -6.2 6.5 L-6.25 6.75 -6.95 7.25 -6.95 7.15" fill="#050505" fill-rule="evenodd" stroke="none"/>
    <path d="M-5.65 6.1 Q-8.2 4.05 -9.45 3.6 L-9.45 3.1 -9.2 2.45 -7.5 3.5 -5.3 5.0 -5.3 5.35 -5.65 6.2 -5.65 6.1" fill="#050505" fill-rule="evenodd" stroke="none"/>
    <path d="M-44.75 -4.65 Q-45.95 -5.75 -45.9 -6.65 L-45.55 -7.35 -45.25 -7.55 -45.05 -7.6 -45.0 -6.65 Q-44.9 -5.6 -44.45 -5.25 -43.75 -4.65 -43.35 -2.75 L-44.3 -4.15 -44.75 -4.65" fill="#050505" fill-rule="evenodd" stroke="none"/>
    <path d="M-44.85 -7.7 L-44.4 -8.15 Q-44.0 -8.55 -44.15 -8.1 -44.35 -7.75 -43.65 -6.75 -43.0 -5.75 -43.05 -5.5 -43.2 -4.95 -43.95 -5.0 -44.75 -5.35 -44.85 -6.55 L-44.85 -7.7" fill="#050505" fill-rule="evenodd" stroke="none"/>
    <path d="M-43.75 -12.0 Q-43.85 -10.2 -42.8 -8.4 L-41.65 -6.5 Q-41.65 -6.05 -42.2 -5.9 L-42.75 -5.8 Q-44.15 -6.7 -44.1 -9.45 L-43.75 -12.0" fill="#050505" fill-rule="evenodd" stroke="none"/>
    <path d="M-42.45 -8.5 Q-42.1 -8.6 -41.85 -8.8 L-40.1 -9.15 Q-37.05 -9.45 -33.4 -7.15 -29.75 -4.9 -26.85 -4.15 L-24.7 -3.8 -24.65 -3.45 Q-24.65 -3.05 -25.15 -2.75 -25.65 -2.45 -30.35 -4.7 L-35.85 -7.4 -38.55 -8.25 Q-40.6 -8.6 -42.0 -7.7 L-42.35 -7.85 Q-42.6 -8.1 -42.45 -8.5" fill="#050505" fill-rule="evenodd" stroke="none"/>
    <path d="M-34.1 -8.3 L-34.85 -8.15 -36.05 -8.7 Q-32.6 -10.4 -27.85 -7.45 -26.25 -6.45 -25.0 -5.2 -23.9 -4.1 -24.1 -3.95 L-25.25 -4.05 Q-28.55 -7.65 -32.05 -8.25 L-34.1 -8.3" fill="#050505" fill-rule="evenodd" stroke="none"/>
    <path d="M-37.65 -7.9 Q-36.95 -7.85 -36.5 -7.45 L-38.85 -6.7 -41.35 -6.4 Q-41.65 -6.55 -41.65 -6.95 L-41.6 -7.35 -38.85 -7.45 -37.65 -7.9" fill="#050505" fill-rule="evenodd" stroke="none"/>
    <path d="M-23.15 -8.5 Q-22.15 -6.55 -22.9 -4.0 -23.6 -1.65 -24.45 -1.75 -25.05 -1.8 -25.05 -2.2 L-24.95 -2.55 Q-23.1 -3.75 -22.95 -6.2 L-23.15 -8.5" fill="#050505" fill-rule="evenodd" stroke="none"/>
    <path d="M-22.7 -4.3 L-22.25 -4.4 Q-21.8 -4.4 -21.7 -4.0 -21.6 -3.4 -22.1 -2.35 -22.65 -1.2 -23.3 -1.15 -23.9 -1.1 -24.05 -1.4 L-24.1 -1.7 Q-23.4 -2.1 -23.0 -3.25 L-22.7 -4.3" fill="#050505" fill-rule="evenodd" stroke="none"/>
    <path d="M-21.6 -3.85 Q-20.85 -3.95 -20.6 -3.5 L-20.5 -2.95 Q-20.95 -1.25 -22.85 -0.3 -23.8 0.2 -24.7 0.35 -22.9 -0.4 -22.05 -2.2 L-21.6 -3.85" fill="#050505" fill-rule="evenodd" stroke="none"/>
    <path d="M-5.8 0.5 Q-3.8 2.95 -4.3 5.9 -4.5 6.95 -4.95 7.75 -5.3 8.5 -5.55 8.45 -6.1 8.4 -6.2 8.0 -6.35 7.35 -5.55 5.6 -4.75 3.9 -5.2 2.05 L-5.8 0.5" fill="#050505" fill-rule="evenodd" stroke="none"/>
    <path d="M-3.8 4.6 Q-3.7 4.45 -3.45 4.45 -3.15 4.5 -2.9 4.7 -2.6 5.0 -2.85 6.75 -3.1 8.6 -3.6 8.75 -4.05 8.9 -4.3 8.6 L-4.5 8.25 Q-3.8 7.4 -3.7 5.9 L-3.8 4.6" fill="#050505" fill-rule="evenodd" stroke="none"/>
    <path d="M-2.35 5.45 Q-1.6 5.3 -1.45 5.9 L-1.4 6.6 Q-1.35 8.95 -2.9 10.75 L-4.45 12.05 Q-3.05 10.55 -2.55 7.85 L-2.35 5.45" fill="#050505" fill-rule="evenodd" stroke="none"/>
    <path d="M16.7 -2.95 L12.5 0.35 7.05 4.55 4.7 6.0 Q1.7 7.45 -1.35 7.4 -1.8 6.25 -1.35 5.85 L1.4 5.65 Q4.6 5.0 7.3 2.8 11.6 -0.7 16.5 -4.1 L16.75 -3.8 Q16.9 -3.4 16.7 -2.95" fill="#050505" fill-rule="evenodd" stroke="none"/>
    <path d="M9.05 6.7 Q5.75 9.0 1.85 8.75 L-1.65 8.6 -1.85 8.05 Q-2.0 7.6 -1.75 7.4 L0.6 7.7 Q3.5 7.85 5.9 6.95 8.15 6.05 11.1 2.65 14.35 -1.1 14.9 -1.45 L15.45 -1.6 Q16.0 -1.65 15.9 -0.95 15.8 -0.25 13.95 1.75 L11.85 4.0 Q10.9 5.4 9.05 6.7" fill="#050505" fill-rule="evenodd" stroke="none"/>
    <path d="M17.45 -4.75 L17.45 -4.8 18.1 -4.05 Q18.65 -3.1 18.05 -1.95 17.45 -0.8 17.95 1.5 L18.55 3.6 Q16.5 0.45 16.8 -2.45 16.85 -3.4 17.2 -4.15 L17.45 -4.75" fill="#050505" fill-rule="evenodd" stroke="none"/>
    <path d="M17.85 -5.2 L18.0 -5.65 Q18.2 -5.9 18.55 -5.8 18.9 -5.7 19.15 -4.85 L19.5 -3.35 Q19.65 -2.65 19.0 -2.15 18.3 -1.6 18.5 -2.6 18.65 -3.4 18.25 -4.4 L17.85 -5.2" fill="#050505" fill-rule="evenodd" stroke="none"/>
    <path d="M20.4 -11.35 Q20.6 -8.5 21.55 -6.8 L22.5 -4.8 Q22.5 -3.9 21.95 -3.7 L21.4 -3.7 Q20.55 -5.3 20.4 -8.5 L20.4 -11.35" fill="#050505" fill-rule="evenodd" stroke="none"/>
    <path d="M18.75 -5.9 L19.15 -6.55 20.0 -6.6 Q20.6 -6.1 20.9 -3.6 20.6 -2.85 20.15 -2.8 L19.75 -2.95 Q19.7 -4.1 19.25 -5.1 L18.75 -5.9" fill="#050505" fill-rule="evenodd" stroke="none"/>
    <path d="M22.0 -7.15 L22.65 -7.35 24.4 -7.4 Q27.35 -7.15 30.1 -4.75 32.95 -2.35 36.6 -1.25 39.2 -0.45 40.25 -0.6 L40.45 -0.05 Q40.6 0.6 40.05 0.85 39.4 1.25 35.45 -0.5 31.3 -2.25 28.9 -4.1 26.75 -5.75 24.45 -6.0 L22.55 -5.8 Q22.55 -5.45 22.1 -6.15 21.75 -6.8 22.0 -7.15" fill="#050505" fill-rule="evenodd" stroke="none"/>
    <path d="M29.05 -7.1 L30.8 -6.9 Q32.85 -6.35 34.55 -5.0 36.3 -3.6 38.2 -2.7 39.8 -2.0 40.1 -2.15 40.4 -2.25 40.4 -1.8 40.45 -1.4 39.9 -1.45 L38.55 -1.6 Q36.65 -2.1 34.25 -3.95 L32.5 -4.95 Q30.6 -5.95 29.75 -5.9 28.65 -5.9 28.3 -6.55 27.9 -7.25 29.05 -7.1" fill="#050505" fill-rule="evenodd" stroke="none"/>
    <path d="M22.8 -5.35 L23.9 -5.3 25.65 -5.5 Q26.15 -5.7 26.55 -5.0 L26.8 -4.3 25.45 -3.95 Q23.9 -3.7 23.0 -3.95 L22.9 -4.2 22.8 -5.35" fill="#050505" fill-rule="evenodd" stroke="none"/>
  </g>
</svg>
