<?xml version="1.0" encoding="UTF-8" standalone="no"?>
<svg xmlns:xlink="http://www.w3.org/1999/xlink" height="100.0px" width="60.7px" xmlns="http://www.w3.org/2000/svg">
  <g transform="matrix(1.0, 0.0, 0.0, 1.0, 30.35, 50.0)">
    <path d="M30.35 -23.55 L30.35 -15.15 27.6 -13.3 24.75 -11.65 Q23.75 -12.15 22.05 -13.35 L19.3 -15.15 5.55 -15.15 Q5.15 0.9 5.45 34.05 7.55 40.1 8.55 42.4 L6.7 46.3 4.85 50.0 -2.4 50.0 Q-3.05 49.45 -3.6 48.3 L-4.45 46.3 -6.55 42.6 -3.2 34.2 -3.2 -15.0 -10.6 -15.15 -18.2 -15.15 Q-20.3 -14.15 -24.0 -11.65 -27.2 -13.1 -30.35 -15.0 L-30.35 -23.35 Q-29.4 -24.4 -27.6 -25.5 -25.55 -26.6 -24.55 -27.25 L-19.7 -24.6 -11.6 -24.5 -3.35 -24.5 Q-3.05 -26.85 -3.1 -30.75 L-3.2 -37.3 Q-4.55 -40.4 -6.55 -43.8 L-2.6 -50.0 4.65 -50.0 Q5.65 -49.0 6.7 -47.15 L8.35 -44.0 7.0 -40.65 5.45 -37.55 5.45 -24.5 Q10.55 -24.35 20.3 -24.6 22.45 -25.5 24.95 -27.25 28.15 -25.5 30.35 -23.55" fill="#000000" fill-rule="evenodd" stroke="none"/>
  </g>
</svg>
