<?xml version="1.0" encoding="UTF-8" standalone="no"?>
<svg xmlns:xlink="http://www.w3.org/1999/xlink" height="100.0px" width="69.45px" xmlns="http://www.w3.org/2000/svg">
  <g transform="matrix(1.0, 0.0, 0.0, 1.0, 34.7, 50.0)">
    <path d="M-3.35 -47.7 Q-2.45 -49.3 -0.9 -49.8 1.0 -50.5 2.85 -48.95 L3.75 -48.25 4.05 -47.35 4.45 -46.8 Q4.8 -45.65 4.45 -44.2 6.3 -42.65 6.75 -41.7 7.25 -40.75 7.2 -39.25 7.05 -37.7 6.5 -36.8 5.95 -35.95 4.45 -35.0 L4.45 -25.15 Q4.65 -25.0 4.8 -25.15 L5.15 -25.4 Q9.0 -27.2 10.5 -28.15 10.65 -27.8 9.95 -26.4 L7.35 -21.2 19.35 -21.2 19.8 -21.7 20.05 -22.4 21.2 -23.4 Q21.6 -23.8 22.65 -24.1 L24.7 -24.25 Q27.45 -24.0 28.7 -21.2 31.8 -21.35 33.5 -19.65 34.45 -18.65 34.7 -17.5 34.95 -15.6 33.6 -14.2 L32.9 -13.25 32.1 -13.0 31.3 -12.55 Q30.05 -12.15 28.85 -12.55 L27.8 -11.3 Q27.15 -10.6 26.4 -10.25 25.45 -9.75 23.9 -9.8 22.45 -9.95 21.45 -10.5 L20.5 -11.5 19.65 -12.55 7.6 -12.55 Q8.3 -10.85 10.9 -6.05 10.55 -5.95 9.35 -6.65 5.1 -8.7 4.6 -9.0 4.25 10.4 4.45 50.0 L-4.2 50.0 -4.2 -9.1 -5.1 -8.85 -11.15 -5.6 Q-11.3 -5.95 -10.6 -7.35 L-8.0 -12.55 -18.2 -12.65 -19.5 -12.55 -20.55 -11.6 -22.1 -10.25 -26.15 -10.15 Q-28.15 -10.95 -28.8 -12.55 -30.5 -12.0 -32.25 -13.0 L-33.7 -14.2 -34.4 -15.0 -34.7 -16.55 Q-34.75 -17.7 -34.4 -18.45 L-33.45 -19.65 Q-31.4 -21.35 -28.95 -21.2 -28.1 -22.7 -27.3 -23.25 -27.2 -23.3 -27.05 -23.4 L-25.65 -24.1 -23.6 -24.25 Q-22.55 -24.25 -21.4 -23.5 L-21.3 -23.25 Q-20.65 -22.95 -19.4 -21.2 L-8.25 -21.2 Q-8.95 -22.9 -11.6 -27.75 L-10.65 -27.55 -9.9 -27.05 -4.4 -24.45 -4.2 -29.45 -4.2 -34.65 -4.75 -35.1 -5.4 -35.4 -6.35 -36.5 Q-7.45 -37.6 -7.3 -40.05 -7.0 -42.8 -4.2 -44.05 -4.35 -46.1 -3.35 -47.7" fill="#000000" fill-rule="evenodd" stroke="none"/>
  </g>
</svg>
