<?xml version="1.0" encoding="UTF-8" standalone="no"?>
<svg xmlns:xlink="http://www.w3.org/1999/xlink" height="100.0px" width="63.2px" xmlns="http://www.w3.org/2000/svg">
  <g transform="matrix(1.0, 0.0, 0.0, 1.0, 31.6, 50.0)">
    <path d="M7.75 -33.95 Q13.2 -31.55 16.1 -26.7 L16.95 -24.9 Q17.6 -23.85 18.8 -24.2 16.2 -32.15 7.75 -35.9 L7.75 -33.95 M7.95 -40.1 Q12.25 -38.6 15.4 -35.95 18.55 -33.3 20.8 -29.45 L22.05 -26.5 Q23.0 -24.35 23.5 -24.2 L24.15 -24.2 24.75 -24.2 Q20.9 -37.55 8.15 -41.9 L8.1 -40.95 7.95 -40.1 M8.15 -42.6 Q21.4 -37.45 25.3 -24.2 L31.6 -24.2 31.6 -8.65 28.1 -8.8 24.55 -8.85 Q19.9 2.95 8.7 6.85 L9.55 28.25 10.3 49.8 -0.8 49.9 -11.9 49.95 -10.15 28.5 -8.45 7.0 Q-20.4 2.2 -24.35 -9.05 L-31.55 -9.05 -31.6 -17.2 -31.4 -25.1 -28.2 -24.95 -25.1 -24.75 Q-20.15 -38.3 -7.95 -42.45 -8.4 -47.2 -7.95 -50.0 L0.2 -49.8 8.5 -49.8 8.35 -46.2 8.15 -42.6 M16.6 -24.2 Q14.25 -30.65 7.6 -33.6 L7.4 -29.45 10.05 -27.0 Q11.55 -25.6 12.3 -24.2 L16.6 -24.2 M7.05 -29.25 L8.15 -49.3 0.3 -49.45 -7.55 -49.65 Q-7.8 -45.65 -7.6 -39.0 L-7.4 -28.55 -9.7 -26.3 -11.9 -23.85 -21.45 -24.3 -31.05 -24.75 -31.25 -17.2 -31.2 -9.4 -21.1 -9.4 -15.65 -9.75 -11.0 -9.6 Q-10.35 -9.4 -8.75 -7.75 -7.15 -6.15 -7.0 -5.6 -6.8 -4.7 -7.1 -2.4 L-7.55 1.25 -11.55 49.6 -0.8 49.5 9.95 49.45 7.75 -6.35 9.7 -8.25 11.55 -9.75 21.45 -9.45 31.25 -9.05 31.25 -23.85 12.1 -23.85 Q11.25 -25.3 9.8 -26.75 L7.05 -29.25 M11.4 -9.4 Q11.1 -8.7 9.65 -7.7 8.35 -6.8 8.15 -5.95 8.0 -5.4 8.25 -4.05 8.55 -2.65 8.3 -1.65 13.25 -4.0 16.1 -9.2 L13.85 -9.4 11.4 -9.4 M16.45 -9.2 Q14.25 -4.25 8.3 -1.1 L8.45 -0.35 8.5 0.55 Q15.1 -2.5 18.25 -9.2 L16.45 -9.2 M22.6 -9.05 Q20.3 -3.95 17.1 -0.7 13.55 3.0 8.7 4.65 L8.65 5.7 Q8.6 6.35 8.85 6.5 20.4 1.55 24.05 -9.05 L22.6 -9.05 M-8.3 -35.55 Q-15.8 -31.55 -18.2 -24.55 L-16.6 -24.55 Q-13.5 -31.2 -7.95 -33.6 L-7.9 -34.8 Q-7.85 -35.55 -8.3 -35.55 M-8.3 -41.9 Q-20.75 -37.05 -24.35 -24.75 L-22.35 -24.75 Q-18.7 -35.8 -7.95 -39.9 L-7.95 -41.9 -8.3 -41.9 M-23.8 -9.05 Q-19.85 2.2 -8.3 6.5 L-8.3 4.85 Q-13.3 2.6 -16.55 -0.6 -20.15 -4.15 -21.85 -9.05 L-23.8 -9.05 M-16.9 -9.05 L-17.65 -8.85 Q-15.85 -5.55 -13.65 -3.3 -11.15 -0.8 -7.95 0.55 L-7.8 -0.15 Q-7.65 -0.55 -7.75 -0.9 L-12.45 -4.35 Q-14.75 -6.5 -15.85 -9.05 L-16.9 -9.05 M-13.15 -9.1 L-15.5 -8.85 Q-13.75 -6.25 -12.15 -4.7 -10.15 -2.65 -7.75 -1.65 L-7.4 -5.8 Q-8.05 -6.05 -9.2 -7.55 -10.3 -9.0 -11.2 -9.2 L-13.15 -9.1 M-7.75 -28.9 L-7.75 -33.2 Q-13.8 -30.4 -16.05 -24.4 L-13.65 -24.35 -11.7 -24.4 -9.8 -26.7 -7.75 -28.9" fill="#000000" fill-rule="evenodd" stroke="none"/>
    <path d="M-21.1 -20.4 Q-19.45 -18.55 -17.65 -17.35 L-17.15 -17.75 -16.8 -18.25 -18.9 -20.0 Q-20.1 -21.15 -21.1 -20.4 M-18.95 -20.25 L-16.65 -20.3 Q-14.85 -21.5 -13.9 -21.15 L-14.15 -20.05 Q-14.15 -19.5 -13.7 -19.15 -12.85 -20.6 -12.65 -22.0 -14.55 -22.5 -16.4 -21.95 -18.15 -21.45 -18.95 -20.25 M-17.5 -22.0 Q-19.5 -22.55 -21.25 -21.95 -22.85 -21.35 -23.6 -20.05 L-23.1 -19.5 -21.55 -20.4 -19.5 -21.3 -18.3 -21.35 Q-17.65 -21.4 -17.5 -22.0 M-27.25 -20.25 L-27.0 -19.9 Q-26.8 -19.8 -26.9 -19.5 -26.15 -20.25 -24.35 -20.95 L-21.65 -22.2 -24.95 -21.95 Q-26.45 -21.35 -27.25 -20.25 M-29.25 -22.4 Q-29.2 -21.05 -28.3 -19.6 -27.5 -18.2 -26.35 -17.35 -25.8 -18.1 -26.85 -19.3 -28.0 -20.65 -27.8 -21.3 L-26.8 -21.2 Q-26.25 -21.35 -26.15 -21.85 L-27.65 -22.35 -29.25 -22.4 M-29.6 -23.3 L-11.9 -22.55 Q-13.2 -20.25 -12.95 -16.5 -12.65 -13.0 -11.35 -10.65 L-30.15 -10.65 Q-29.9 -12.8 -29.9 -16.6 L-29.95 -22.75 -29.6 -23.3 M-25.25 -16.05 Q-24.4 -14.55 -22.35 -13.2 L-21.95 -13.45 -21.45 -13.75 Q-23.05 -15.7 -24.7 -16.8 -25.0 -16.25 -25.25 -16.05 M-28.5 -14.45 L-29.1 -12.9 -29.6 -11.2 Q-26.7 -10.8 -23.6 -13.9 L-24.15 -14.45 -25.95 -13.3 Q-27.0 -12.5 -28.0 -12.8 L-27.8 -13.35 -27.6 -13.9 -28.0 -14.25 -28.5 -14.45 M-28.3 -18.8 Q-29.4 -17.2 -28.35 -15.1 -27.35 -13.0 -25.8 -13.75 -26.7 -14.15 -27.15 -16.15 -27.65 -18.3 -28.3 -18.8 M-26.35 -17.0 Q-27.35 -15.8 -26.35 -15.0 L-25.15 -16.6 Q-24.3 -17.6 -24.0 -18.25 L-24.7 -18.95 -26.35 -17.0 M-16.4 -16.25 L-14.95 -14.5 Q-14.0 -13.45 -14.25 -12.5 L-15.55 -12.85 Q-16.15 -13.0 -16.4 -12.3 -15.3 -11.65 -14.5 -11.4 L-12.1 -11.05 Q-13.5 -15.05 -15.85 -16.8 -16.05 -16.4 -16.4 -16.25 M-18.25 -15.6 L-17.65 -15.35 -16.3 -16.6 Q-15.55 -17.35 -15.15 -18.05 -15.7 -19.0 -16.9 -17.85 -18.25 -16.25 -18.75 -15.9 L-18.25 -15.6 M-19.35 -14.4 Q-20.0 -14.7 -20.8 -14.05 L-22.55 -12.8 -24.2 -12.75 Q-25.15 -12.7 -25.45 -11.95 L-21.65 -12.05 Q-20.0 -12.75 -19.1 -14.25 -17.85 -13.45 -16.95 -13.9 -17.35 -14.7 -18.45 -15.45 L-20.2 -16.8 Q-21.3 -16.0 -19.7 -14.65 L-19.35 -14.4 M-22.55 -15.2 Q-20.65 -16.0 -19.3 -18.45 -19.9 -19.4 -21.75 -17.5 -23.6 -15.55 -22.55 -15.2 M-23.2 -19.5 Q-24.25 -20.5 -25.25 -20.4 -25.15 -19.65 -24.0 -18.7 L-22.2 -17.15 -21.65 -17.7 -23.2 -19.5 M-18.25 -13.2 Q-20.35 -12.6 -20.9 -11.95 -17.9 -10.6 -14.95 -14.3 L-15.3 -14.5 -15.7 -14.65 Q-16.2 -13.8 -18.25 -13.2 M-13.9 -15.55 Q-13.15 -17.05 -13.95 -19.05 -14.75 -21.05 -16.05 -20.4 -15.55 -19.85 -15.05 -17.9 -14.55 -16.1 -13.9 -15.55" fill="#000000" fill-rule="evenodd" stroke="none"/>
    <path d="M18.3 -20.9 L19.5 -21.15 Q20.65 -21.0 21.7 -20.05 L23.5 -18.6 Q23.6 -18.95 24.05 -19.15 23.2 -20.85 21.3 -21.75 19.1 -22.8 17.35 -21.5 L18.3 -20.9 M16.5 -19.95 L16.1 -20.25 Q15.1 -19.05 14.7 -18.1 14.1 -16.65 14.45 -15.2 15.2 -15.65 15.8 -17.35 16.4 -19.15 17.0 -19.7 16.8 -19.75 16.5 -19.95 M16.95 -19.9 L18.4 -18.8 18.75 -19.0 19.15 -19.15 Q18.35 -20.65 16.95 -21.45 15.4 -22.4 13.55 -22.0 13.8 -19.95 14.85 -18.95 15.2 -19.2 15.1 -19.8 14.95 -20.5 15.15 -20.75 16.1 -20.6 16.95 -19.9 M17.7 -17.35 L18.25 -16.8 20.15 -18.15 21.65 -19.85 Q20.8 -20.55 19.55 -19.4 L17.7 -17.35 M15.9 -17.35 L17.15 -15.95 18.6 -14.8 18.9 -15.15 19.35 -15.35 17.9 -16.85 16.25 -18.25 16.05 -17.85 15.9 -17.35 M17.0 -15.9 L16.6 -16.15 16.25 -16.45 14.15 -14.1 Q13.1 -12.75 12.65 -11.2 L15.1 -11.25 Q16.35 -11.45 16.8 -12.1 16.5 -12.7 15.8 -12.5 14.9 -12.3 14.65 -12.5 14.75 -13.45 15.65 -14.3 16.8 -15.35 17.0 -15.9 M17.95 -11.6 L21.5 -11.75 Q20.95 -12.35 20.35 -12.5 L18.6 -12.5 Q18.1 -12.7 17.35 -13.45 L16.1 -14.45 15.55 -13.9 Q16.2 -12.45 17.95 -11.6 M18.4 -13.0 L20.0 -14.2 Q21.05 -14.9 21.5 -15.55 L21.05 -15.9 20.6 -16.25 18.55 -14.6 Q17.15 -13.6 18.4 -13.0 M13.45 -16.5 Q13.7 -20.0 12.65 -22.75 L21.2 -22.9 30.15 -22.95 30.15 -10.1 20.95 -10.45 11.75 -10.85 Q13.2 -12.95 13.45 -16.5 M26.75 -21.15 Q26.95 -20.7 27.75 -20.65 L28.75 -20.4 Q28.6 -19.55 27.8 -18.65 26.9 -17.65 26.75 -17.0 L27.1 -16.6 Q28.55 -17.3 29.25 -18.75 30.05 -20.35 29.6 -22.2 L27.9 -21.95 26.75 -21.15 M22.05 -21.5 L25.15 -20.4 Q26.95 -19.8 27.45 -18.6 L27.7 -19.0 28.0 -19.3 Q27.2 -20.85 25.45 -21.7 23.45 -22.65 22.05 -21.5 M24.05 -15.25 L22.05 -13.35 22.55 -13.05 Q22.85 -12.8 23.1 -12.8 L24.7 -14.1 26.2 -15.35 24.05 -15.25 M24.55 -17.5 Q25.6 -15.85 27.3 -14.8 27.95 -15.75 26.6 -17.05 25.3 -18.4 24.55 -17.5 M23.65 -15.35 Q23.65 -15.75 21.9 -17.2 20.15 -18.65 19.85 -17.7 20.2 -16.75 21.9 -15.35 23.65 -13.9 23.65 -15.35 M22.75 -16.6 Q25.0 -17.8 26.2 -19.7 25.6 -20.35 23.6 -18.65 21.65 -17.0 22.75 -16.6 M21.95 -13.2 L20.4 -14.3 20.0 -13.95 19.7 -13.55 Q21.35 -12.05 22.55 -11.5 24.55 -10.55 26.2 -11.55 L25.1 -12.15 23.5 -12.1 21.95 -13.2 M24.2 -13.55 Q27.05 -10.45 29.8 -10.85 29.7 -13.05 28.75 -14.3 28.2 -13.75 28.35 -13.15 L28.75 -11.75 Q27.6 -11.6 26.3 -12.9 25.15 -14.05 24.2 -13.55 M27.3 -12.65 Q28.3 -13.8 28.8 -14.95 29.5 -16.65 28.9 -17.9 28.45 -17.35 27.7 -15.4 27.05 -13.7 26.2 -13.2 26.25 -13.15 26.65 -12.85 L27.3 -12.65" fill="#000000" fill-rule="evenodd" stroke="none"/>
    <path d="M2.9 -46.4 Q3.1 -45.95 3.8 -45.95 4.55 -46.0 4.7 -45.7 4.65 -44.75 3.65 -43.95 2.55 -43.0 2.35 -42.45 L2.9 -41.9 Q4.6 -43.05 5.25 -44.0 6.3 -45.55 5.8 -47.5 3.8 -47.35 2.9 -46.4 M2.15 -46.6 Q-0.05 -47.65 -1.45 -46.55 1.05 -45.85 3.8 -44.25 4.35 -45.55 2.15 -46.6 M4.7 -39.0 L4.15 -36.05 Q3.6 -34.45 2.55 -33.75 L3.05 -33.35 Q3.35 -33.1 3.65 -33.05 4.8 -34.1 5.4 -35.85 6.1 -38.0 4.7 -39.0 M3.8 -40.8 Q3.55 -40.9 2.25 -42.35 1.35 -43.35 0.4 -42.8 0.65 -41.85 1.65 -41.05 L3.25 -39.75 3.8 -40.8 M2.35 -38.3 L2.8 -37.7 Q3.05 -37.35 3.45 -37.35 L5.0 -40.15 Q5.75 -42.0 4.9 -43.3 L3.85 -40.55 Q3.25 -38.9 2.35 -38.3 M2.25 -33.8 Q1.15 -34.85 0.4 -34.1 2.15 -31.65 5.45 -30.5 5.65 -32.6 5.25 -34.5 4.6 -34.35 4.65 -33.5 4.7 -32.55 4.35 -32.35 3.65 -32.35 2.25 -33.8 M2.95 -37.35 L0.95 -39.2 0.4 -38.65 Q0.8 -37.7 1.75 -36.75 L3.45 -35.2 Q4.15 -36.1 2.95 -37.35 M6.25 -38.95 Q5.95 -33.05 5.95 -29.8 3.65 -31.05 -0.15 -30.8 -3.5 -30.6 -6.15 -29.45 L-6.25 -38.8 Q-6.3 -44.4 -6.5 -48.0 L6.5 -48.0 6.25 -38.95 M-5.95 -47.5 Q-6.05 -44.9 -4.85 -44.05 -4.35 -44.35 -4.45 -45.0 L-4.5 -46.05 Q-3.45 -45.95 -2.5 -45.15 L-0.9 -43.85 -0.35 -44.3 Q0.0 -44.55 0.0 -44.95 -1.1 -46.2 -2.35 -46.85 -3.9 -47.55 -5.95 -47.5 M-3.55 -43.25 L-3.75 -42.8 -0.9 -39.75 Q0.3 -40.55 -0.95 -41.85 L-3.25 -43.7 -3.55 -43.25 M-3.25 -41.7 Q-4.55 -40.35 -5.1 -38.75 -5.85 -36.6 -4.7 -35.2 L-3.85 -38.4 Q-3.25 -40.15 -2.35 -41.0 L-2.75 -41.35 -3.25 -41.7 M-4.95 -43.65 Q-5.75 -41.75 -5.2 -39.75 -4.5 -40.25 -3.9 -42.4 -3.4 -44.45 -2.5 -44.95 -4.05 -45.6 -4.95 -43.65 M-1.05 -42.05 Q-0.3 -42.35 0.7 -43.2 L2.35 -44.4 Q1.75 -45.7 0.3 -44.6 L-1.6 -42.6 -1.05 -42.05 M1.4 -41.0 L0.95 -41.35 -0.5 -39.8 -1.95 -38.3 -1.55 -37.8 -1.05 -37.35 0.45 -38.95 1.8 -40.6 1.4 -41.0 M-1.65 -37.6 L-3.25 -39.2 Q-3.55 -38.65 -3.75 -38.45 -2.45 -36.2 -0.9 -35.2 L-0.35 -35.75 -1.65 -37.6 M-0.05 -35.85 L-1.8 -33.75 -1.25 -33.6 -0.7 -33.4 0.75 -34.75 2.0 -36.3 Q1.15 -37.0 -0.05 -35.85 M-3.25 -37.0 Q-4.45 -35.6 -4.95 -34.25 -5.6 -32.45 -5.4 -30.15 -3.5 -30.55 -2.15 -31.95 L-3.15 -32.5 -4.15 -32.5 Q-4.15 -33.55 -3.4 -34.55 -2.5 -35.75 -2.35 -36.3 L-2.75 -36.65 -3.25 -37.0 M-0.7 -33.05 L-2.1 -33.9 -3.25 -34.5 Q-4.05 -32.85 -1.8 -31.95 0.5 -31.0 2.0 -32.15 1.7 -32.65 0.85 -32.85 L-0.7 -33.05" fill="#000000" fill-rule="evenodd" stroke="none"/>
    <path d="M5.6 -28.7 Q8.8 -27.15 10.7 -24.1 12.9 -20.5 12.45 -16.05 11.95 -11.05 8.0 -7.85 4.5 -5.1 0.4 -5.1 -2.6 -5.05 -5.45 -6.6 -8.2 -8.1 -9.95 -10.7 -11.8 -13.4 -12.05 -16.55 -12.3 -20.0 -10.65 -23.3 -9.6 -25.3 -7.6 -26.95 -4.85 -29.2 -1.45 -29.6 0.35 -29.85 2.35 -29.6 L5.6 -28.7 M3.4 -22.9 Q4.5 -23.9 6.15 -23.45 6.15 -24.15 5.6 -24.9 3.05 -24.9 1.75 -23.15 0.45 -21.3 1.25 -18.8 L3.9 -18.75 Q5.3 -19.0 5.95 -19.7 5.65 -20.45 4.35 -20.1 L2.35 -20.25 Q2.3 -22.0 3.4 -22.9 M3.45 -22.75 L5.55 -20.4 7.6 -18.05 7.85 -18.55 8.15 -18.95 6.1 -21.85 Q4.8 -23.5 3.45 -22.75 M6.25 -22.35 Q6.2 -21.35 7.25 -21.15 8.65 -24.25 6.05 -26.1 3.55 -27.95 0.75 -26.55 1.4 -26.05 3.95 -25.85 5.95 -25.65 6.35 -24.2 L6.25 -22.35 M7.95 -23.65 Q8.0 -22.8 7.75 -22.55 9.0 -21.4 8.45 -19.45 8.05 -18.0 6.9 -16.6 L7.3 -16.05 7.75 -15.55 8.7 -16.4 8.6 -14.2 8.15 -12.65 Q7.5 -11.7 6.0 -11.4 L3.45 -10.85 Q4.55 -9.9 6.1 -10.25 7.45 -10.5 8.6 -11.7 9.75 -12.9 10.0 -14.35 10.35 -16.0 9.4 -17.35 L9.1 -16.85 8.75 -16.45 Q9.65 -17.65 9.8 -19.65 10.05 -22.65 7.95 -23.65 M10.3 -21.7 L10.8 -19.45 Q11.05 -18.15 11.75 -17.7 12.1 -22.65 8.45 -26.2 4.7 -29.85 -0.7 -29.45 -5.6 -29.05 -8.75 -25.25 -11.95 -21.45 -11.55 -16.45 -11.3 -13.15 -9.25 -10.45 -7.3 -7.95 -4.3 -6.7 -1.3 -5.4 1.9 -5.75 5.3 -6.1 7.95 -8.3 9.2 -9.35 10.25 -11.05 11.3 -12.85 11.75 -14.65 L12.1 -15.95 Q12.2 -16.85 11.55 -17.15 11.0 -17.0 10.9 -16.4 L10.85 -15.55 Q10.1 -12.0 7.75 -9.6 5.35 -7.1 2.0 -6.7 -2.6 -6.1 -6.2 -8.7 -9.95 -11.35 -10.45 -15.9 -11.0 -20.7 -8.45 -24.0 -6.15 -27.0 -2.25 -27.85 1.6 -28.75 5.05 -27.2 8.75 -25.55 10.3 -21.7 M5.8 -15.0 L3.15 -12.85 0.75 -10.5 Q1.65 -10.05 2.2 -9.95 L6.15 -13.9 5.95 -14.45 Q5.8 -14.75 5.8 -15.0 M2.3 -13.85 Q1.6 -15.4 1.8 -16.25 3.9 -16.95 5.4 -15.65 6.9 -14.3 6.7 -11.95 8.1 -12.8 7.95 -14.1 7.85 -15.3 6.6 -16.35 5.4 -17.4 3.8 -17.8 L0.75 -17.5 1.0 -14.35 Q1.3 -12.75 2.2 -12.1 2.85 -12.65 2.3 -13.85 M3.0 -9.6 Q-0.1 -9.95 -1.25 -11.95 -1.2 -11.55 -1.5 -11.45 L-1.95 -11.2 Q-1.45 -10.1 0.0 -9.35 1.4 -8.6 3.05 -8.45 7.05 -8.0 7.95 -10.85 6.1 -9.2 3.0 -9.6 M0.15 -25.15 L0.35 -25.0 Q1.9 -23.8 2.9 -24.4 1.9 -26.3 -1.1 -26.9 -4.25 -27.5 -5.6 -25.45 -4.65 -25.25 -3.9 -25.75 -2.95 -26.35 -2.5 -26.35 -1.65 -26.4 -0.3 -25.45 0.1 -25.4 0.15 -25.15 L-0.3 -25.45 -1.05 -25.45 Q-1.65 -25.4 -3.0 -23.8 L-4.85 -21.85 -4.55 -21.25 -4.15 -20.75 -1.8 -22.55 -0.1 -24.45 0.15 -25.15 M-2.35 -24.75 Q-3.75 -25.5 -5.35 -25.25 -6.8 -24.95 -7.85 -23.9 -8.95 -22.85 -9.15 -21.5 -9.4 -20.0 -8.45 -18.6 -8.0 -19.25 -7.7 -20.95 -7.45 -22.55 -6.85 -23.15 -6.3 -23.65 -4.85 -23.85 -3.25 -24.05 -2.35 -24.75 M-5.6 -23.65 Q-6.95 -23.0 -6.8 -21.85 -6.65 -20.8 -5.45 -19.8 -4.25 -18.85 -2.8 -18.5 -1.15 -18.15 0.0 -18.8 -0.05 -22.75 -1.25 -22.75 -1.75 -22.5 -1.5 -21.4 -1.3 -20.25 -1.6 -19.85 -3.6 -19.6 -4.6 -21.0 -5.25 -21.85 -5.6 -23.65 M-6.65 -20.75 Q-8.6 -19.6 -8.95 -16.1 -9.35 -12.4 -7.0 -11.4 -7.95 -13.95 -7.75 -16.0 -7.55 -18.6 -5.6 -19.3 -5.65 -19.75 -6.05 -20.1 L-6.65 -20.75 M-5.05 -17.15 Q-4.95 -16.1 -4.05 -16.2 L-2.15 -16.45 Q-1.0 -14.95 -2.15 -13.2 -3.25 -11.45 -5.2 -12.3 L-4.85 -10.85 Q-2.3 -10.45 -1.1 -12.45 0.0 -14.3 -0.35 -17.5 L-2.8 -17.65 -5.05 -17.15 M-6.65 -18.25 L-7.4 -17.0 -5.4 -14.55 Q-4.2 -13.1 -2.9 -12.65 L-2.5 -13.0 Q-2.55 -13.65 -3.15 -14.45 L-4.3 -15.75 -6.65 -18.25 M-5.6 -13.75 Q-5.85 -14.85 -6.5 -15.35 -7.35 -13.7 -7.0 -11.95 -6.65 -10.3 -5.35 -9.2 -4.1 -8.05 -2.5 -7.9 -0.8 -7.75 0.75 -8.85 0.35 -8.9 0.0 -9.1 L-0.5 -9.6 -1.75 -9.15 -3.05 -9.05 Q-4.75 -9.3 -5.2 -11.75 L-5.6 -13.75" fill="#000000" fill-rule="evenodd" stroke="none"/>
    <path d="M3.4 -0.15 Q4.6 1.45 4.7 2.5 L4.7 5.0 Q4.75 6.05 5.6 6.5 6.55 4.15 5.95 1.55 5.3 -1.2 3.45 -1.85 2.6 -1.2 3.4 -0.15 M4.9 -1.35 Q4.95 -0.5 5.6 -0.2 L6.1 -2.6 Q6.4 -4.15 5.8 -4.9 3.7 -3.9 2.75 -3.25 1.25 -2.15 0.55 -0.75 0.9 -0.15 1.45 0.15 L2.9 -1.6 Q3.75 -2.45 4.9 -2.7 L4.9 -1.35 M2.55 4.65 L4.1 7.35 Q5.1 8.95 5.25 10.45 L5.4 12.6 Q5.55 13.55 6.15 14.05 7.15 11.4 5.95 8.3 5.15 6.05 3.25 3.8 L2.55 4.65 M3.65 7.4 Q2.45 8.8 0.0 12.25 L0.55 12.9 1.1 13.5 Q1.5 12.6 3.35 10.55 4.75 8.7 3.65 7.4 M3.25 11.05 Q2.9 11.4 2.9 11.7 L4.6 14.45 Q5.55 16.15 5.6 17.65 L5.65 19.5 Q5.7 20.35 6.35 20.75 7.35 18.15 6.2 15.0 5.5 13.15 3.65 10.45 L3.25 11.05 M3.25 0.55 L1.75 2.8 0.2 5.05 0.6 5.5 0.95 6.1 3.35 3.45 Q4.6 1.55 3.25 0.55 M4.15 14.45 L2.0 16.85 Q0.6 18.3 0.0 19.45 L0.45 19.95 0.95 20.4 2.1 19.0 3.6 17.6 Q5.3 15.9 4.15 14.45 M4.95 21.6 Q5.95 23.45 5.8 25.6 L6.3 26.45 6.9 27.25 Q7.9 21.7 3.65 17.65 L3.3 18.05 Q3.05 18.25 3.1 18.55 L4.95 21.6 M4.5 27.8 L2.35 30.3 Q0.8 31.85 0.2 32.85 L0.55 33.3 0.95 33.75 3.35 31.5 5.6 29.05 Q5.4 28.95 5.15 28.3 5.0 27.75 4.5 27.8 M4.9 27.4 Q6.05 29.2 6.15 30.5 L6.0 32.55 Q5.95 33.3 6.9 33.9 7.65 30.75 6.7 28.0 5.85 25.35 3.8 24.0 2.8 24.8 3.35 25.6 L4.9 27.4 M2.9 32.5 L5.1 34.5 Q6.15 35.8 6.35 37.35 L6.45 39.35 Q6.6 40.25 7.25 40.6 8.0 37.7 6.9 34.95 5.9 32.35 3.8 31.2 L3.4 31.85 2.9 32.5 M2.55 29.4 L0.1 26.85 -2.35 24.35 -2.9 25.1 Q-3.35 25.55 -3.4 25.95 -2.5 26.65 -0.9 28.45 0.6 30.15 1.65 30.85 L2.1 30.15 2.55 29.4 M4.15 21.1 L1.9 23.65 -0.35 26.15 0.25 26.65 Q0.55 27.0 0.95 27.05 1.15 26.4 2.0 25.6 L3.55 24.2 Q5.3 22.5 4.15 21.1 M7.6 21.0 Q8.3 40.8 8.7 48.0 L-0.65 48.15 -10.1 48.15 -7.9 21.4 -5.75 -5.4 Q-3.3 -4.15 0.45 -4.2 4.3 -4.3 6.35 -5.8 L7.6 21.0 M4.7 34.8 L2.55 37.5 0.4 40.25 Q0.95 40.55 1.25 41.15 L4.35 38.1 Q6.25 35.8 4.7 34.8 M3.8 38.8 L5.9 41.8 Q7.0 43.75 6.7 45.65 L5.05 45.0 Q4.25 44.7 3.8 45.65 L5.6 46.7 Q6.7 47.25 7.95 47.25 8.3 44.3 7.3 41.7 6.4 39.25 4.5 37.9 L4.25 38.4 3.8 38.8 M3.1 36.25 Q0.0 32.95 -2.35 31.2 L-2.65 31.6 -2.9 32.1 Q-0.55 35.0 2.35 37.5 2.35 37.15 2.7 36.9 L3.1 36.25 M3.25 43.45 L0.55 40.6 -2.5 38.05 Q-3.75 38.8 -2.7 39.9 L-0.5 41.7 1.1 43.25 2.35 44.2 3.25 43.45 M2.7 44.3 Q0.85 45.6 -1.6 45.1 L-2.5 45.75 -3.25 46.55 Q-1.8 47.35 0.1 47.0 1.8 46.7 3.4 45.65 4.9 44.65 5.45 43.45 6.1 42.15 5.25 41.3 3.85 43.45 2.7 44.3 M-5.2 -4.7 Q-5.65 -2.45 -5.05 -0.25 -4.45 1.85 -3.25 3.05 L-2.35 2.15 -3.7 -0.15 Q-4.55 -1.6 -4.15 -2.9 -3.35 -2.5 -2.95 -2.6 -2.5 -2.65 -2.15 -3.45 L-3.6 -4.15 Q-4.45 -4.6 -5.2 -4.7 M-1.05 0.7 L-2.0 2.1 -3.2 3.3 Q-4.6 4.8 -3.95 6.5 -2.95 5.6 -1.9 4.2 L-0.2 1.6 -1.05 0.7 M-1.5 -1.45 Q-1.85 -1.3 -1.8 -0.9 L-0.3 1.1 Q0.6 2.25 1.45 2.85 1.5 2.55 1.85 2.15 L2.2 1.4 0.6 -0.25 -1.05 -1.8 -0.75 -1.9 Q1.75 -2.55 2.2 -3.25 0.1 -4.2 -2.2 -2.85 -4.55 -1.5 -3.05 0.15 -2.95 -1.2 -1.1 -1.8 L-1.5 -1.45 M-1.95 4.85 L-0.2 7.35 Q0.85 8.95 1.65 9.75 1.65 9.4 1.95 9.1 L2.35 8.65 Q0.15 5.1 -1.25 3.6 L-1.65 4.15 -1.95 4.85 M-4.45 2.45 Q-4.35 1.2 -5.2 0.9 -6.15 3.1 -5.5 5.95 -4.95 8.5 -3.6 10.1 L-3.2 9.5 -2.9 8.8 -3.9 7.0 -4.7 4.85 -4.45 2.45 M-5.1 7.9 L-5.6 7.0 Q-6.65 9.25 -6.05 12.35 -5.5 15.05 -4.15 16.95 -3.75 16.95 -3.5 16.6 L-3.05 16.05 -4.55 12.75 Q-5.3 10.55 -4.7 8.8 L-5.1 7.9 M-2.0 11.4 L-2.35 12.05 -0.5 14.45 1.25 16.95 1.9 16.65 Q2.15 16.25 2.35 16.2 0.9 13.3 -1.6 10.8 L-2.0 11.4 M0.0 8.1 L-0.5 7.45 -1.05 6.85 Q-1.3 7.55 -2.05 8.45 L-3.25 9.9 Q-4.7 11.75 -4.15 13.5 -3.1 12.6 -1.95 10.95 L0.0 8.1 M-1.45 14.25 L-2.45 15.8 -3.8 17.2 Q-5.3 18.9 -4.7 20.75 -3.55 19.8 -2.3 18.1 L-0.2 15.15 -0.7 14.6 Q-1.0 14.2 -1.45 14.25 M-6.15 14.05 Q-7.3 16.35 -6.85 19.45 -6.4 22.4 -4.85 24.0 -3.9 23.65 -3.6 22.7 L-5.05 20.2 Q-5.75 18.65 -5.6 17.15 L-5.35 15.35 Q-5.4 14.5 -6.15 14.05 M-2.7 19.1 Q-0.75 20.85 1.25 23.65 2.25 23.35 2.55 22.35 L0.3 20.1 Q-1.05 18.45 -1.95 17.85 -1.95 18.15 -2.3 18.5 L-2.7 19.1 M-1.45 20.9 Q-1.75 21.6 -2.6 22.4 L-4.15 23.8 Q-5.9 25.5 -5.4 27.25 -4.9 27.1 -4.25 26.25 L-2.9 24.55 -0.9 22.55 Q-0.05 21.4 -1.45 20.9 M-7.7 33.35 Q-6.9 36.35 -4.85 37.5 -3.75 36.85 -4.4 36.05 L-5.95 34.3 Q-7.25 31.85 -6.5 29.05 L-6.95 28.3 -7.4 27.6 Q-8.55 30.25 -7.7 33.35 M-2.15 27.95 L-4.2 30.4 -6.3 32.85 -5.95 33.55 -5.6 34.3 Q-2.55 31.5 -0.7 28.85 L-1.3 28.3 Q-1.65 27.9 -2.15 27.95 M-6.15 25.8 L-6.0 23.15 Q-6.0 21.8 -6.85 21.45 -7.8 24.05 -7.15 26.85 -6.55 29.75 -4.7 30.65 L-4.35 30.15 -3.95 29.75 -5.2 27.95 Q-6.0 26.85 -6.15 25.8 M-0.8 34.8 Q-1.05 34.5 -1.45 34.45 L-2.8 35.85 -4.6 37.35 Q-6.7 39.3 -5.95 40.75 L-2.95 38.25 -0.35 35.35 -0.8 34.8 M-3.95 44.2 L-6.15 40.75 Q-7.25 38.5 -6.65 36.05 L-7.15 35.4 Q-7.35 34.9 -7.75 34.8 -9.1 37.5 -8.2 40.6 -7.4 43.45 -5.4 45.1 L-4.7 44.6 -3.95 44.2 M-1.65 42.25 L-3.4 44.0 -4.95 45.15 Q-5.9 45.75 -6.5 45.65 -7.55 45.45 -7.6 43.95 -7.65 42.2 -8.45 41.7 L-9.2 44.6 Q-9.55 46.45 -9.2 47.8 -5.85 47.9 -3.5 46.3 -1.9 45.2 0.0 42.55 -0.6 41.45 -1.65 42.25" fill="#000000" fill-rule="evenodd" stroke="none"/>
  </g>
</svg>
