<?xml version="1.0" encoding="UTF-8" standalone="no"?>
<svg xmlns:xlink="http://www.w3.org/1999/xlink" height="100.0px" width="51.95px" xmlns="http://www.w3.org/2000/svg">
  <g transform="matrix(1.0, 0.0, 0.0, 1.0, 25.95, 50.0)">
    <path d="M-4.2 -42.7 Q-3.7 -39.55 0.1 -39.65 3.75 -39.7 4.3 -42.7 4.85 -45.3 3.2 -46.85 1.85 -48.25 -0.25 -48.1 -2.45 -47.95 -3.6 -46.3 -4.6 -44.8 -4.2 -42.7 M-1.0 -50.0 L1.05 -50.0 Q5.5 -49.75 6.6 -45.15 7.65 -40.55 3.85 -38.65 L3.85 -29.95 Q8.05 -29.6 17.55 -29.75 L17.8 -30.95 17.7 -32.35 Q18.2 -32.65 18.65 -32.1 L19.35 -31.2 22.0 -28.75 24.4 -26.05 21.1 -22.75 17.7 -19.9 17.7 -22.85 3.85 -22.85 3.85 20.85 Q3.85 23.9 4.35 28.3 L5.35 35.4 Q6.05 40.85 12.35 40.15 17.25 39.65 21.65 36.55 L23.1 35.35 Q24.0 34.65 24.7 34.8 26.7 35.2 25.65 38.7 24.7 41.8 23.55 42.85 20.5 46.1 13.35 48.1 6.5 50.0 -1.0 50.0 -10.95 50.0 -17.1 47.4 -24.25 44.3 -25.95 38.0 L-25.95 36.05 Q-25.3 34.25 -23.85 34.95 L-21.55 36.7 -18.35 38.35 Q-14.05 40.4 -10.5 40.15 -6.0 39.95 -5.45 35.7 L-4.45 28.75 Q-3.9 24.35 -3.9 21.2 L-3.9 -22.85 -17.8 -22.85 -17.8 -19.75 -24.35 -26.2 -21.2 -29.65 Q-19.2 -31.75 -17.8 -32.5 L-17.8 -29.75 -3.9 -29.75 -3.9 -38.65 Q-7.6 -40.65 -6.45 -45.3 -5.3 -49.95 -1.0 -50.0" fill="#000000" fill-rule="evenodd" stroke="none"/>
  </g>
</svg>
