<?xml version="1.0" encoding="UTF-8" standalone="no"?>
<svg xmlns:xlink="http://www.w3.org/1999/xlink" height="99.95px" width="99.95px" xmlns="http://www.w3.org/2000/svg">
  <g transform="matrix(1.0, 0.0, 0.0, 1.0, 49.95, 49.95)">
    <path d="M19.2 -34.9 Q18.3 -29.75 13.95 -26.8 9.6 -23.85 4.6 -24.8 -0.6 -25.75 -4.9 -22.8 -9.1 -19.8 -10.05 -14.6 -11.0 -9.6 -8.05 -5.25 -5.4 -1.25 -0.8 -0.1 -10.55 -2.2 -16.15 -10.55 -22.1 -19.05 -20.25 -29.4 -18.25 -39.55 -9.7 -45.55 -1.05 -51.4 9.15 -49.5 14.3 -48.6 17.2 -44.35 20.15 -40.05 19.2 -34.9 M22.75 -4.9 Q19.8 -9.25 14.65 -10.15 9.5 -11.1 5.3 -8.05 1.3 -5.35 0.25 -0.8 2.35 -10.55 10.55 -16.15 19.1 -22.1 29.3 -20.25 39.6 -18.35 45.45 -9.8 51.4 -1.25 49.55 9.05 48.6 14.2 44.25 17.1 40.05 20.15 34.9 19.2 29.75 18.3 26.8 13.95 23.9 9.6 24.85 4.45 25.75 -0.7 22.75 -4.9 M-24.7 -4.55 Q-25.65 0.5 -22.7 4.8 -19.8 9.15 -14.65 10.1 -9.6 11.0 -5.25 8.1 -1.3 5.4 -0.1 0.85 -2.2 10.45 -10.4 16.15 -18.95 22.05 -29.25 20.15 -39.55 18.3 -45.4 9.75 -51.4 1.2 -49.5 -9.1 -48.6 -14.25 -44.25 -17.2 -39.9 -20.15 -34.9 -19.2 -29.75 -18.35 -26.8 -14.05 -23.75 -9.7 -24.7 -4.55 M-4.55 24.7 Q0.6 25.65 4.95 22.75 9.25 19.8 10.1 14.65 11.0 9.5 8.1 5.15 5.4 1.3 0.85 0.25 10.55 2.25 16.15 10.45 22.15 19.0 20.25 29.3 18.4 39.6 9.75 45.45 1.2 51.4 -9.0 49.55 -14.15 48.6 -17.1 44.3 -20.0 39.95 -19.2 34.8 -18.25 29.65 -13.95 26.7 -9.6 23.8 -4.55 24.7" fill="#000000" fill-rule="evenodd" stroke="none"/>
  </g>
</svg>
