<?xml version="1.0" encoding="UTF-8" standalone="no"?>
<svg xmlns:xlink="http://www.w3.org/1999/xlink" height="100.0px" width="53.6px" xmlns="http://www.w3.org/2000/svg">
  <g transform="matrix(1.0, 0.0, 0.0, 1.0, 19.8, 50.0)">
    <path d="M16.4 -34.9 L12.85 -34.6 Q8.9 -33.8 6.6 -31.3 4.35 -28.7 3.95 -24.9 3.75 -23.0 4.0 -21.6 L7.15 -22.25 Q10.75 -23.6 13.35 -26.6 15.9 -29.6 16.4 -32.55 L16.4 -34.9 M-14.75 -31.25 Q-13.85 -27.8 -11.65 -25.95 -8.0 -23.0 -2.65 -21.4 -2.45 -23.1 -2.65 -25.2 -3.15 -29.35 -5.45 -31.4 -7.65 -33.45 -11.7 -34.1 L-15.25 -34.35 -14.75 -31.25 M-1.9 -49.9 Q5.45 -50.7 11.85 -45.75 22.35 -37.7 14.3 -20.8 12.2 -16.55 6.9 -12.15 4.25 -9.9 2.05 -8.6 L3.0 -7.15 Q7.15 -4.2 13.35 -5.85 16.3 -6.55 18.05 -8.5 L20.6 -12.15 Q21.95 -14.15 22.55 -15.5 23.4 -17.55 23.5 -19.85 23.6 -22.15 23.0 -23.45 22.5 -24.6 22.55 -24.95 L23.75 -26.3 24.9 -27.3 23.75 -33.75 Q23.4 -35.1 23.8 -36.05 24.1 -36.9 24.9 -37.0 25.65 -37.15 26.2 -36.4 26.85 -35.65 26.95 -33.9 L27.3 -28.6 29.9 -34.05 Q30.3 -35.25 31.3 -35.85 32.4 -36.45 33.2 -35.85 33.9 -35.35 33.75 -34.25 33.55 -33.35 32.85 -32.45 L28.85 -26.55 29.7 -26.6 30.95 -26.3 Q33.55 -23.7 33.45 -22.6 33.3 -21.55 32.4 -20.2 31.4 -18.65 29.95 -17.8 28.15 -16.8 27.45 -16.1 26.5 -15.2 25.05 -12.5 L21.8 -6.65 Q19.6 -3.6 16.4 -2.65 L11.75 -1.3 Q10.35 -0.75 9.8 0.5 L10.05 2.35 Q11.45 10.25 9.9 17.45 L8.05 22.45 Q6.7 26.0 6.4 31.25 5.95 37.1 6.25 43.35 9.35 43.55 13.35 45.1 18.2 47.1 20.0 49.75 13.45 50.0 9.4 49.85 1.9 49.6 0.05 47.65 -2.3 49.9 -9.9 50.0 L-19.8 49.6 Q-19.45 46.35 -12.6 44.6 -9.15 43.8 -5.85 43.55 L-6.45 33.2 Q-6.75 26.75 -7.7 24.4 -8.3 23.05 -11.25 19.8 -13.55 17.4 -13.7 10.95 -13.75 6.4 -12.95 2.4 -12.3 -0.45 -11.5 -1.6 -10.35 -3.35 -7.35 -4.6 -4.6 -5.85 -3.1 -7.45 L-2.05 -8.85 -4.9 -11.35 Q-8.5 -14.9 -12.35 -19.9 -16.75 -25.65 -16.6 -33.05 -16.5 -40.1 -12.6 -44.55 -8.5 -49.15 -1.9 -49.9" fill="#000000" fill-rule="evenodd" stroke="none"/>
  </g>
</svg>
