<?xml version="1.0" encoding="UTF-8" standalone="no"?>
<svg xmlns:xlink="http://www.w3.org/1999/xlink" height="100.0px" width="55.05px" xmlns="http://www.w3.org/2000/svg">
  <g transform="matrix(1.0, 0.0, 0.0, 1.0, 27.5, 50.0)">
    <path d="M27.55 -5.4 L27.55 5.2 16.2 4.6 4.35 3.65 Q5.35 18.15 9.45 50.0 L-8.65 50.0 Q-6.75 35.05 -3.6 4.35 L-27.5 5.95 -27.5 -5.4 -17.0 -4.2 -6.25 -3.1 Q-10.5 -10.35 -12.65 -14.95 -16.65 -23.15 -16.5 -29.8 -16.4 -36.8 -12.55 -42.5 -8.55 -48.4 -2.4 -50.0 L3.15 -50.0 Q16.55 -46.95 15.85 -28.7 15.25 -12.05 6.3 -3.1 L16.9 -4.2 27.55 -5.4 M-7.0 -39.0 Q-9.9 -34.75 -9.9 -28.7 -9.9 -16.9 0.75 -4.35 6.2 -11.95 8.7 -19.3 12.45 -30.4 8.25 -37.8 5.45 -42.25 2.3 -42.85 -3.5 -44.2 -7.0 -39.0" fill="#000000" fill-rule="evenodd" stroke="none"/>
  </g>
</svg>
