<?xml version="1.0" encoding="UTF-8" standalone="no"?>
<svg xmlns:xlink="http://www.w3.org/1999/xlink" height="44.05px" width="159.0px" xmlns="http://www.w3.org/2000/svg">
  <g transform="matrix(1.0, 0.0, 0.0, 1.0, 79.5, 22.0)">
    <path d="M10.2 -16.2 Q9.5 -15.8 9.5 0.15 9.5 11.35 9.75 13.7 10.05 16.3 11.4 17.05 L42.4 18.05 62.8 18.0 Q70.0 17.8 72.5 16.45 75.0 15.15 75.4 11.3 L75.5 0.5 75.2 -9.65 Q74.9 -14.2 74.5 -15.0 73.75 -16.4 69.15 -16.65 64.5 -16.95 42.05 -16.95 L19.8 -16.75 10.2 -16.2 M-69.05 -16.65 Q-74.55 -16.35 -74.95 -15.35 -75.5 -13.7 -75.5 1.05 -75.5 11.25 -75.2 13.85 -74.9 16.3 -73.6 17.05 L-42.5 18.05 -11.45 17.05 Q-10.15 16.3 -9.85 13.85 -9.5 11.2 -9.5 1.05 L-9.7 -9.85 Q-9.85 -14.65 -10.1 -15.35 -10.5 -16.35 -15.95 -16.65 -21.75 -16.95 -42.5 -16.95 -63.3 -16.95 -69.05 -16.65 M-79.5 -17.85 L-76.8 -19.95 Q-74.9 -21.45 -70.25 -21.7 -65.55 -21.9 -41.95 -21.7 L-19.95 -21.45 Q-12.1 -21.15 -9.25 -20.25 -6.35 -19.3 -5.75 -16.8 -5.5 -15.65 -5.5 -9.7 L-5.5 -1.95 4.5 -1.95 4.5 -8.45 Q4.5 -14.05 5.55 -16.85 6.6 -19.6 9.2 -20.85 L42.1 -22.0 74.75 -20.7 Q78.05 -19.0 78.75 -15.9 79.45 -12.9 79.5 0.35 79.5 12.8 79.2 15.25 78.85 17.75 77.0 19.55 L74.55 22.05 42.25 22.05 Q24.55 22.0 16.85 21.75 9.25 21.45 8.4 20.8 6.25 19.1 5.4 16.35 4.5 13.6 4.5 8.55 L4.5 2.0 -5.0 2.55 -5.3 10.3 Q-5.55 16.05 -5.9 17.3 -6.7 19.8 -9.7 20.75 L-42.5 22.05 -70.2 21.8 Q-74.95 21.5 -76.95 20.0 L-79.5 18.0 -79.5 -17.85" fill="#000000" fill-rule="evenodd" stroke="none"/>
  </g>
</svg>
