<?xml version="1.0" encoding="UTF-8" standalone="no"?>
<svg xmlns:xlink="http://www.w3.org/1999/xlink" height="42.3px" width="41.7px" xmlns="http://www.w3.org/2000/svg">
  <g transform="matrix(1.0, 0.0, 0.0, 1.0, 20.85, 21.15)">
    <path d="M-18.85 -0.15 Q-19.35 1.15 -20.2 1.15 -21.45 1.15 -20.35 -3.5 -19.25 -8.15 -17.25 -11.35 -15.05 -14.9 -11.65 -17.35 -8.2 -19.85 -4.2 -20.75 L6.15 -20.35 Q12.05 -18.9 12.05 -16.85 12.05 -15.85 11.45 -15.95 10.85 -16.0 7.75 -17.35 2.4 -19.55 -3.1 -18.3 -8.7 -17.1 -12.95 -12.85 L-15.9 -9.15 Q-17.2 -7.15 -17.45 -5.75 -18.3 -1.5 -18.85 -0.15" fill="#000000" fill-rule="evenodd" stroke="none"/>
    <path d="M9.0 -0.7 Q9.5 -0.35 10.05 -0.35 10.6 -0.35 11.1 -0.7 L11.8 -1.6 Q12.0 -2.15 11.5 -2.5 L10.05 -2.85 Q9.1 -2.85 8.6 -2.5 8.1 -2.15 8.3 -1.6 8.5 -1.05 9.0 -0.7 M-14.6 -7.1 Q-13.5 -9.8 -11.6 -11.65 -9.8 -13.45 -6.45 -15.25 1.8 -19.5 10.0 -13.1 18.25 -6.75 16.55 2.6 15.25 9.1 10.3 12.8 5.35 16.55 -1.25 15.9 -9.65 15.15 -13.8 8.0 -17.95 0.8 -14.6 -7.1 M7.75 -12.0 L4.3 -11.75 Q2.45 -11.1 2.1 -8.8 1.75 -6.55 3.25 -5.05 5.75 -2.55 8.75 -4.6 11.75 -6.65 10.15 -9.75 9.15 -11.5 7.75 -12.0" fill="#000000" fill-rule="evenodd" stroke="none"/>
    <path d="M0.75 21.15 Q-1.65 21.15 -0.6 19.85 0.45 18.5 3.15 18.1 9.0 17.1 12.85 13.7 16.7 10.25 18.05 4.75 19.4 0.0 19.8 -0.85 20.15 -1.55 20.4 -0.9 20.7 -0.3 20.8 1.4 21.45 8.2 14.85 14.65 8.3 21.15 0.75 21.15" fill="#000000" fill-rule="evenodd" stroke="none"/>
  </g>
</svg>
