<?xml version="1.0" encoding="UTF-8" standalone="no"?>
<svg xmlns:xlink="http://www.w3.org/1999/xlink" height="25.55px" width="48.9px" xmlns="http://www.w3.org/2000/svg">
  <g transform="matrix(1.0, 0.0, 0.0, 1.0, 24.45, 12.75)">
    <path d="M7.05 -7.95 Q19.25 -3.1 22.55 1.05 24.25 3.25 24.45 6.5 24.65 9.7 23.25 11.7 22.25 13.05 21.1 12.75 20.05 12.5 15.3 9.85 9.95 6.85 6.7 6.5 3.45 6.1 -2.1 7.75 L-6.55 8.8 -10.45 9.25 Q-13.8 9.25 -18.05 7.35 -22.3 5.45 -23.35 3.5 -25.25 -0.05 -23.8 -4.6 -22.35 -9.15 -18.7 -11.15 -17.6 -11.75 -15.7 -12.25 L-12.35 -12.75 Q-5.15 -12.8 7.05 -7.95" fill="#000000" fill-rule="evenodd" stroke="none"/>
  </g>
</svg>
