<?xml version="1.0" encoding="UTF-8" standalone="no"?>
<svg xmlns:xlink="http://www.w3.org/1999/xlink" height="62.6px" width="85.1px" xmlns="http://www.w3.org/2000/svg">
  <g transform="matrix(1.0, 0.0, 0.0, 1.0, 42.55, 31.3)">
    <path d="M-7.55 -30.55 Q6.85 -33.45 20.0 -25.3 33.1 -17.15 39.05 -1.6 42.35 7.15 42.55 16.85 42.75 26.6 39.7 29.7 37.75 31.7 33.85 31.15 30.1 30.6 20.45 26.95 14.5 24.7 10.75 23.85 6.95 22.95 1.95 22.7 L-9.25 23.25 Q-13.6 24.15 -24.85 28.4 -36.35 32.65 -39.45 30.65 -42.55 28.65 -42.55 17.05 -42.45 11.25 -42.0 7.75 -41.5 4.15 -40.3 0.45 -36.15 -11.55 -27.35 -19.9 -18.5 -28.3 -7.55 -30.55" fill="#000000" fill-rule="evenodd" stroke="none"/>
  </g>
</svg>
