<?xml version="1.0" encoding="UTF-8" standalone="no"?>
<svg xmlns:xlink="http://www.w3.org/1999/xlink" height="30.4px" width="37.4px" xmlns="http://www.w3.org/2000/svg">
  <g transform="matrix(1.0, 0.0, 0.0, 1.0, 18.7, 15.2)">
    <path d="M10.45 -14.7 L11.45 -14.45 11.85 -13.9 Q11.85 -13.55 10.0 -13.3 L5.6 -13.05 Q-0.65 -13.05 -3.4 -11.3 -6.55 -9.15 -8.45 -5.6 -10.4 -2.0 -10.4 1.8 -10.4 3.7 -10.65 5.0 -10.9 6.3 -11.3 6.3 L-11.9 5.75 -12.15 4.45 Q-12.15 2.4 -14.9 2.1 -15.9 2.0 -16.85 1.5 L-17.95 0.6 Q-18.1 -0.05 -17.45 -0.25 L-14.95 -0.2 -11.65 0.3 -14.8 -0.7 Q-16.1 -1.15 -17.2 -1.85 L-18.55 -3.2 Q-19.0 -4.45 -18.2 -4.7 -17.4 -4.9 -16.65 -3.7 -15.55 -1.9 -13.35 -2.8 -11.25 -3.7 -9.95 -6.45 -8.7 -9.25 -5.7 -11.55 -2.75 -13.9 0.85 -14.9 L3.45 -15.2 6.2 -15.05 10.45 -14.7" fill="#000000" fill-rule="evenodd" stroke="none"/>
    <path d="M18.55 3.6 Q17.65 10.05 11.65 13.4 5.6 16.75 0.05 13.95 -7.25 10.1 -7.9 2.2 -8.6 -5.65 -1.95 -9.7 L1.55 -11.1 5.35 -11.7 Q11.55 -11.7 15.45 -7.15 19.35 -2.65 18.55 3.6 M11.85 0.3 Q11.85 0.7 12.3 1.0 L13.35 1.3 14.4 1.0 14.85 0.3 Q14.85 -0.15 14.4 -0.4 L13.35 -0.7 12.3 -0.4 Q11.85 -0.15 11.85 0.3 M9.55 -8.55 Q8.95 -8.5 7.85 -7.2 5.85 -4.85 7.85 -2.2 9.9 0.4 12.2 -1.55 13.85 -2.9 13.75 -4.85 13.65 -6.7 11.95 -7.7 10.05 -8.65 9.55 -8.55" fill="#000000" fill-rule="evenodd" stroke="none"/>
  </g>
</svg>
