<?xml version="1.0" encoding="UTF-8" standalone="no"?>
<svg xmlns:xlink="http://www.w3.org/1999/xlink" height="92.25px" width="100.0px" xmlns="http://www.w3.org/2000/svg">
  <g transform="matrix(1.0, 0.0, 0.0, 1.0, 50.0, 46.1)">
    <path d="M17.45 -25.2 Q15.9 -25.2 14.8 -24.1 13.75 -23.0 13.75 -21.45 13.75 -19.9 14.8 -18.85 15.9 -17.75 17.45 -17.75 19.0 -17.75 20.1 -18.85 21.15 -19.9 21.15 -21.45 21.15 -23.0 20.1 -24.1 19.0 -25.2 17.45 -25.2 M46.2 6.75 Q41.2 15.1 31.4 15.95 38.0 20.9 39.1 29.2 40.25 38.45 33.45 46.15 34.6 39.05 31.75 31.7 28.35 22.85 21.0 21.5 23.95 24.45 24.45 29.85 25.0 35.85 22.15 42.1 22.45 32.7 17.85 29.4 16.35 28.4 14.55 28.05 L13.1 28.0 Q10.35 28.4 8.1 29.95 3.65 32.95 6.4 38.5 8.0 42.5 9.6 44.55 7.9 44.1 6.1 42.95 2.45 40.65 2.05 37.25 2.15 39.15 0.75 43.7 L-1.7 36.45 Q-6.35 42.9 -8.4 43.35 -7.3 37.9 -7.0 35.2 -6.45 30.45 -8.95 29.2 -10.55 28.45 -13.1 28.5 -15.8 28.6 -17.8 29.75 -23.0 32.8 -18.55 40.75 -23.25 37.9 -24.65 33.15 -26.3 27.7 -21.85 23.2 -28.4 25.3 -31.85 30.5 -36.45 37.35 -31.9 46.15 -41.65 38.6 -36.65 26.7 -35.1 23.0 -32.25 19.35 L-29.7 16.4 Q-34.8 15.15 -39.85 11.45 -50.0 4.05 -50.0 -8.25 -50.0 -27.4 -30.1 -38.05 -15.2 -46.1 0.45 -46.1 16.25 -46.1 30.35 -38.6 49.65 -28.25 50.0 -8.55 50.1 0.15 46.2 6.75 M26.45 -16.4 Q26.45 -14.8 27.6 -13.65 28.75 -12.5 30.4 -12.5 32.1 -12.5 33.2 -13.65 34.35 -14.7 34.35 -16.4 34.35 -18.05 33.2 -19.2 32.0 -20.35 30.4 -20.35 28.8 -20.35 27.6 -19.2 26.45 -18.0 26.45 -16.4 M-27.75 -21.65 Q-29.45 -21.65 -30.7 -20.45 -31.9 -19.2 -31.9 -17.5 -31.9 -15.75 -30.7 -14.55 -29.45 -13.3 -27.75 -13.3 -26.05 -13.3 -24.8 -14.55 -23.55 -15.75 -23.55 -17.5 -23.55 -19.2 -24.8 -20.45 -26.05 -21.65 -27.75 -21.65 M-17.45 -21.45 Q-17.45 -19.75 -16.25 -18.5 -15.05 -17.3 -13.3 -17.3 -11.55 -17.3 -10.35 -18.5 -9.1 -19.75 -9.1 -21.45 -9.1 -23.2 -10.35 -24.4 -11.55 -25.65 -13.3 -25.65 -15.05 -25.65 -16.25 -24.4 -17.45 -23.2 -17.45 -21.45 M-1.3 -26.6 Q-2.5 -25.35 -2.5 -23.65 -2.5 -21.9 -1.3 -20.7 -0.05 -19.45 1.65 -19.45 3.4 -19.45 4.6 -20.7 5.85 -21.9 5.85 -23.65 5.85 -25.35 4.6 -26.6 3.4 -27.8 1.65 -27.8 -0.05 -27.8 -1.3 -26.6" fill="#000000" fill-rule="evenodd" stroke="none"/>
  </g>
</svg>
