<?xml version="1.0" encoding="UTF-8" standalone="no"?>
<svg xmlns:xlink="http://www.w3.org/1999/xlink" height="32.6px" width="32.4px" xmlns="http://www.w3.org/2000/svg">
  <g transform="matrix(1.0, 0.0, 0.0, 1.0, 16.2, 16.3)">
    <path d="M-13.45 -9.15 Q-10.65 -13.3 -6.2 -15.1 1.5 -18.2 8.85 -13.3 16.2 -8.45 16.2 -0.2 16.2 7.25 11.65 11.8 7.1 16.3 -0.3 16.3 L-5.6 15.7 Q-7.4 15.15 -9.7 13.4 -16.2 8.4 -16.2 -0.2 -16.2 -5.0 -13.45 -9.15 M-3.1 -12.25 Q-7.0 -11.5 -10.0 -7.75 -13.05 -3.9 -12.9 0.7 -12.75 4.9 -10.1 8.3 -7.45 11.7 -3.45 12.75 0.9 13.95 5.3 11.8 6.95 11.0 8.65 9.6 L11.05 6.9 Q13.8 2.35 12.15 -3.45 10.5 -9.25 6.0 -10.95 0.75 -13.05 -3.1 -12.25" fill="#000000" fill-rule="evenodd" stroke="none"/>
  </g>
</svg>
