<?xml version="1.0" encoding="UTF-8" standalone="no"?>
<svg xmlns:xlink="http://www.w3.org/1999/xlink" height="16.0px" width="45.85px" xmlns="http://www.w3.org/2000/svg">
  <g transform="matrix(1.0, 0.0, 0.0, 1.0, 22.9, 8.0)">
    <path d="M-20.25 -1.0 Q-20.95 -0.5 -21.55 -0.7 -24.3 -1.75 -21.4 -5.75 -20.1 -7.65 -17.7 -7.9 -15.25 -8.15 -13.7 -6.55 -13.1 -5.95 -12.45 -4.3 -11.85 -2.7 -11.55 -1.05 L-10.8 1.95 Q-10.25 3.35 -9.75 3.6 -8.6 4.3 -7.3 2.35 -5.95 0.45 -5.95 -1.9 -5.95 -4.7 -4.4 -6.35 -2.95 -7.85 -0.8 -7.9 4.35 -8.05 5.6 -2.2 6.7 2.9 8.05 3.15 9.45 3.4 10.6 -1.25 11.85 -5.95 12.7 -6.95 13.6 -8.0 16.55 -8.0 18.6 -8.0 19.6 -7.4 20.55 -6.8 21.55 -5.0 23.05 -2.15 22.95 -1.05 22.85 0.0 21.1 0.0 19.3 0.0 18.6 -2.5 18.0 -4.95 16.55 -4.9 15.05 -4.8 14.55 -2.25 13.55 2.45 12.7 4.05 11.8 5.75 9.8 6.45 7.15 7.45 5.2 5.7 3.25 3.9 2.55 -0.05 1.7 -4.1 0.95 -4.55 -0.35 -5.3 -1.65 -3.7 -2.95 -2.1 -2.95 0.25 -2.95 2.4 -5.1 5.2 -7.3 8.0 -8.95 8.0 -10.45 8.0 -12.7 5.25 -14.95 2.45 -14.95 0.6 -14.95 -3.6 -16.3 -4.65 -17.7 -5.65 -19.05 -2.55 -19.6 -1.5 -20.25 -1.0" fill="#000000" fill-rule="evenodd" stroke="none"/>
  </g>
</svg>
