<?xml version="1.0" encoding="UTF-8" standalone="no"?>
<svg xmlns:xlink="http://www.w3.org/1999/xlink" height="13.85px" width="41.45px" xmlns="http://www.w3.org/2000/svg">
  <g transform="matrix(1.0, 0.0, 0.0, 1.0, 20.7, 6.9)">
    <path d="M0.3 -6.9 Q6.2 -6.75 11.05 -4.35 13.25 -3.3 15.45 -1.65 L18.8 1.3 Q20.6 3.4 20.75 4.1 20.9 4.9 19.8 6.0 18.5 7.25 17.5 6.85 16.55 6.45 12.05 2.85 10.75 1.75 8.4 0.6 6.1 -0.5 4.15 -1.0 -0.45 -2.25 -5.2 -0.95 -10.0 0.35 -13.95 3.85 -16.95 6.6 -18.8 6.65 -20.7 6.7 -20.7 4.15 -20.7 2.45 -17.5 -0.35 -14.35 -3.1 -10.2 -5.0 -5.65 -7.1 0.3 -6.9" fill="#000000" fill-rule="evenodd" stroke="none"/>
  </g>
</svg>
