<?xml version="1.0" encoding="UTF-8" standalone="no"?>
<svg xmlns:xlink="http://www.w3.org/1999/xlink" height="27.0px" width="27.1px" xmlns="http://www.w3.org/2000/svg">
  <g transform="matrix(1.0, 0.0, 0.0, 1.0, 13.55, 13.5)">
    <path d="M6.9 -2.15 Q6.55 -1.85 6.7 -1.4 7.0 -0.4 8.0 -0.4 8.95 -0.4 9.25 -1.4 9.45 -1.85 9.05 -2.15 8.7 -2.5 8.0 -2.5 7.3 -2.5 6.9 -2.15 M4.85 -10.4 Q3.65 -10.3 2.5 -9.0 0.55 -6.65 2.55 -4.05 4.55 -1.4 6.9 -3.4 8.3 -4.6 8.45 -6.3 8.55 -8.0 7.25 -9.25 6.1 -10.5 4.85 -10.4 M-7.95 -11.4 Q-6.5 -12.55 -4.65 -13.0 L0.0 -13.5 Q5.25 -13.5 7.9 -11.4 11.7 -8.4 12.95 -4.0 14.15 0.1 12.85 4.2 11.55 8.25 8.3 10.8 4.75 13.5 0.0 13.5 -4.8 13.5 -8.3 10.8 -11.6 8.25 -12.9 4.2 -14.15 0.1 -13.0 -4.0 -11.75 -8.4 -7.95 -11.4" fill="#000000" fill-rule="evenodd" stroke="none"/>
  </g>
</svg>
