<?xml version="1.0" encoding="UTF-8" standalone="no"?>
<svg xmlns:xlink="http://www.w3.org/1999/xlink" height="29.95px" width="37.3px" xmlns="http://www.w3.org/2000/svg">
  <g transform="matrix(1.0, 0.0, 0.0, 1.0, 18.65, 14.95)">
    <path d="M-14.65 0.95 L-13.45 0.3 Q-12.75 -0.4 -13.0 -0.7 L-14.65 -0.95 -16.3 -0.7 Q-16.6 -0.4 -15.9 0.3 -15.2 0.95 -14.65 0.95 M4.2 -14.85 Q9.25 -15.25 11.2 -14.0 12.75 -13.15 6.2 -13.15 -1.45 -13.3 -5.55 -9.6 -9.65 -5.9 -10.4 1.85 -10.8 5.8 -11.05 6.25 -11.3 6.75 -12.05 5.05 L-13.2 3.25 Q-13.9 2.55 -14.4 2.5 L-17.25 1.95 Q-17.75 1.5 -17.4 0.05 -17.15 -0.7 -17.3 -1.5 -17.4 -2.25 -17.8 -2.5 -18.65 -3.1 -18.65 -4.0 -18.65 -4.45 -18.0 -4.3 L-16.45 -3.5 Q-14.15 -1.9 -13.25 -2.3 -12.35 -2.7 -10.05 -6.35 L-7.0 -10.1 Q-5.15 -12.0 -3.65 -12.85 -0.9 -14.45 4.2 -14.85" fill="#000000" fill-rule="evenodd" stroke="none"/>
    <path d="M5.35 -11.8 Q7.85 -11.75 10.95 -10.35 17.15 -7.35 18.4 -0.8 19.65 5.7 15.05 10.8 12.8 13.15 11.3 13.85 9.65 14.6 6.1 14.85 2.35 15.2 0.95 14.75 -0.45 14.3 -2.95 12.05 -7.3 8.3 -7.95 3.3 -8.6 -1.7 -5.4 -6.35 L-3.05 -8.7 Q-1.55 -9.9 -0.3 -10.5 2.75 -11.85 5.35 -11.8" fill="#000000" fill-rule="evenodd" stroke="none"/>
  </g>
</svg>
