<?xml version="1.0" encoding="UTF-8" standalone="no"?>
<svg xmlns:xlink="http://www.w3.org/1999/xlink" height="14.95px" width="28.6px" xmlns="http://www.w3.org/2000/svg">
  <g transform="matrix(1.0, 0.0, 0.0, 1.0, 14.3, 7.45)">
    <path d="M-6.35 -5.9 Q0.0 -9.0 6.5 -5.9 13.0 -2.8 14.1 3.85 14.65 7.15 13.65 7.45 12.65 7.75 11.9 4.45 10.9 0.1 7.45 -2.45 4.3 -4.8 0.2 -4.85 -3.9 -4.9 -7.0 -2.65 -10.4 -0.2 -11.2 4.2 -11.5 5.65 -12.05 6.55 -12.6 7.45 -13.2 7.45 -14.05 7.45 -14.25 6.85 L-14.05 4.7 Q-13.15 1.25 -11.1 -1.65 -8.95 -4.7 -6.35 -5.9" fill="#000000" fill-rule="evenodd" stroke="none"/>
  </g>
</svg>
