<?xml version="1.0" encoding="UTF-8" standalone="no"?>
<svg xmlns:xlink="http://www.w3.org/1999/xlink" height="100.0px" width="71.65px" xmlns="http://www.w3.org/2000/svg">
  <g transform="matrix(1.0, 0.0, 0.0, 1.0, 35.8, 50.0)">
    <path d="M-18.65 -44.85 L-15.0 -36.15 Q-8.35 -44.3 0.0 -44.3 8.95 -44.3 15.85 -36.7 L19.3 -44.85 Q18.9 -45.2 18.6 -45.8 18.05 -47.05 18.75 -48.5 19.55 -50.35 21.85 -49.95 24.2 -49.6 24.0 -47.5 23.9 -45.65 22.35 -44.95 L20.85 -44.6 19.75 -31.45 Q34.1 -8.6 35.85 50.0 L-35.8 49.75 Q-35.35 36.35 -33.05 19.65 -28.35 -13.7 -19.05 -30.1 L-20.25 -44.6 -21.75 -44.95 Q-23.25 -45.65 -23.35 -47.5 -23.55 -49.6 -21.25 -49.95 -18.9 -50.35 -18.15 -48.5 -17.5 -47.05 -17.95 -45.8 L-18.65 -44.85 M1.65 -25.6 Q4.8 -25.6 7.05 -23.35 9.3 -21.15 9.3 -17.95 9.3 -14.75 7.05 -12.55 4.8 -10.3 1.65 -10.3 -1.55 -10.3 -3.75 -12.55 -6.0 -14.75 -6.0 -17.95 -6.0 -21.15 -3.75 -23.35 -1.55 -25.6 1.65 -25.6 M-10.45 -28.45 Q-14.45 -22.95 -14.45 -16.15 -14.45 -9.25 -10.65 -4.95 -6.55 -0.25 1.1 -0.3 10.3 -0.45 14.1 -5.3 17.1 -9.25 17.1 -16.65 17.1 -23.15 11.8 -28.7 6.45 -34.3 0.0 -34.3 -6.15 -34.3 -10.45 -28.45" fill="#000000" fill-rule="evenodd" stroke="none"/>
  </g>
</svg>
