<?xml version="1.0" encoding="UTF-8" standalone="no"?>
<svg xmlns:xlink="http://www.w3.org/1999/xlink" height="20.7px" width="31.9px" xmlns="http://www.w3.org/2000/svg">
  <g transform="matrix(1.0, 0.0, 0.0, 1.0, 15.95, 10.35)">
    <path d="M-15.8 -9.5 Q-15.1 -10.55 0.55 -10.3 16.2 -10.05 15.95 -9.0 15.75 -8.25 1.25 -7.75 -13.25 -7.25 -15.1 -8.0 L-15.8 -8.65 Q-16.05 -9.1 -15.8 -9.5" fill="#000000" fill-rule="evenodd" stroke="none"/>
    <path d="M-2.5 2.7 Q-2.55 1.95 -3.25 1.1 -5.5 -1.6 -8.25 0.3 -11.05 2.2 -8.9 5.0 -7.75 6.5 -5.95 6.3 -4.15 6.1 -3.05 4.3 -2.45 3.4 -2.5 2.7 M-14.55 -0.75 L-15.05 -3.5 11.7 -3.5 11.7 -0.5 Q11.7 2.45 8.25 5.95 4.8 9.45 1.25 10.1 -4.05 11.1 -8.8 7.85 -13.6 4.55 -14.55 -0.75 M-10.3 -2.5 L-11.0 -2.05 -11.3 -1.0 -11.0 0.05 -10.3 0.5 Q-9.9 0.5 -9.6 0.05 -9.3 -0.4 -9.3 -1.0 -9.3 -1.55 -9.6 -2.05 -9.9 -2.5 -10.3 -2.5" fill="#000000" fill-rule="evenodd" stroke="none"/>
  </g>
</svg>
