<?xml version="1.0" encoding="UTF-8" standalone="no"?>
<svg xmlns:xlink="http://www.w3.org/1999/xlink" height="22.6px" width="114.8px" xmlns="http://www.w3.org/2000/svg">
  <g transform="matrix(1.0, 0.0, 0.0, 1.0, 57.4, 11.3)">
    <path d="M-36.1 10.85 Q-44.2 9.85 -49.75 6.8 -55.65 3.6 -57.1 -1.2 -57.7 -3.3 -57.0 -3.25 -56.3 -3.25 -52.0 -0.95 -46.45 2.05 -42.6 1.45 -38.75 0.9 -31.6 -3.95 L-25.25 -8.15 -21.35 -10.45 Q-18.8 -11.4 -12.7 -11.25 -6.5 -11.1 -3.35 -9.95 -0.8 -9.1 0.5 -9.15 1.9 -9.2 4.15 -10.15 7.85 -11.65 15.0 -11.2 20.15 -11.0 22.3 -10.2 24.45 -9.4 30.0 -5.5 37.05 -0.6 41.65 0.3 46.3 1.15 51.9 -1.35 56.15 -3.25 56.8 -3.25 57.4 -3.25 57.4 -1.45 57.4 0.9 53.5 4.25 49.6 7.65 45.15 9.15 36.8 12.1 22.75 10.55 8.75 9.0 3.15 4.55 L0.6 2.55 -4.0 5.15 Q-18.1 12.95 -36.1 10.85" fill="#000000" fill-rule="evenodd" stroke="none"/>
  </g>
</svg>
