<?xml version="1.0" encoding="UTF-8" standalone="no"?>
<svg xmlns:xlink="http://www.w3.org/1999/xlink" height="42.45px" width="55.1px" xmlns="http://www.w3.org/2000/svg">
  <g transform="matrix(1.0, 0.0, 0.0, 1.0, 27.55, 21.2)">
    <path d="M12.55 -13.1 L12.35 -15.8 Q12.15 -16.95 11.8 -16.85 L7.55 -15.7 3.75 -14.5 Q3.0 -13.95 4.9 -11.3 6.75 -8.65 8.1 -8.35 10.65 -7.7 11.6 -8.75 12.55 -9.75 12.55 -13.1 M-11.9 -17.0 Q-12.15 -17.0 -15.9 -18.5 L-19.55 -20.1 -19.25 -15.35 Q-19.0 -11.0 -17.45 -9.65 -15.9 -8.3 -13.55 -10.35 -12.3 -11.6 -11.6 -14.3 -10.9 -17.0 -11.9 -17.0 M-8.45 -15.7 L-8.45 -12.35 Q-8.45 -9.45 -6.6 -7.2 -4.8 -4.95 -2.95 -5.6 -1.55 -6.15 -0.5 -8.0 0.55 -9.85 0.55 -11.75 0.55 -12.8 -0.4 -13.45 -1.35 -14.05 -3.95 -14.7 L-8.45 -15.7 M24.15 -20.45 Q27.55 -18.65 27.55 -11.35 27.55 -2.0 22.5 6.7 17.5 15.4 10.05 18.9 3.65 21.95 -3.25 21.0 -9.75 20.05 -15.3 15.75 -27.45 6.35 -27.55 -10.2 -27.65 -15.5 -26.95 -17.8 -26.2 -20.1 -24.2 -20.85 -22.5 -21.5 -19.65 -20.85 L-9.05 -17.5 Q-4.45 -15.8 1.65 -16.2 7.8 -16.65 13.05 -19.0 20.7 -22.25 24.15 -20.45 M23.3 -16.75 Q23.55 -18.85 23.15 -19.4 22.8 -19.95 21.3 -19.85 16.8 -19.65 15.8 -18.3 14.8 -16.95 17.45 -14.6 19.6 -12.55 21.3 -13.2 23.05 -13.8 23.3 -16.75" fill="#000000" fill-rule="evenodd" stroke="none"/>
  </g>
</svg>
