<?xml version="1.0" encoding="UTF-8" standalone="no"?>
<svg xmlns:xlink="http://www.w3.org/1999/xlink" height="100.0px" width="37.5px" xmlns="http://www.w3.org/2000/svg">
  <g transform="matrix(1.0, 0.0, 0.0, 1.0, 18.75, 50.0)">
    <path d="M-13.4 3.95 L-13.4 13.1 Q-10.4 36.1 7.05 50.0 3.25 50.25 -3.35 46.4 -9.6 42.75 -13.9 38.15 L-16.9 33.6 Q-18.6 30.25 -18.75 26.25 -18.85 22.0 -16.9 19.0 -16.55 21.45 -16.35 25.9 -15.95 29.85 -14.35 32.9 L-10.75 33.85 -10.3 33.45 Q-10.2 31.75 -11.55 28.95 L-13.8 24.55 Q-15.75 19.9 -15.7 14.25 -15.7 8.3 -13.4 3.95" fill="#000000" fill-rule="evenodd" stroke="none"/>
    <path d="M9.05 19.8 Q12.95 16.95 13.6 15.65 15.6 12.0 12.4 3.25 9.5 -4.6 5.55 -9.45 L6.9 -13.25 7.05 -13.35 Q18.95 3.95 18.1 12.3 17.25 19.75 12.55 28.3 L9.75 32.95 Q8.05 35.7 7.6 37.65 6.95 40.05 7.35 43.35 L8.0 49.05 8.1 49.45 3.45 45.3 Q0.2 37.4 0.0 34.95 -0.5 30.25 3.65 24.55 4.95 22.8 9.05 19.8" fill="#000000" fill-rule="evenodd" stroke="none"/>
    <path d="M10.45 -29.35 Q11.3 -31.7 11.65 -34.85 L12.0 -40.45 Q12.65 -46.25 10.85 -50.0 13.2 -48.5 13.5 -39.75 13.75 -32.75 10.35 -24.15 L4.2 -8.6 Q2.9 -4.4 2.75 -0.9 2.55 4.8 5.7 5.85 8.0 6.7 10.85 3.65 11.85 5.15 12.25 7.4 L13.05 11.05 Q12.1 13.7 8.65 16.4 L2.9 20.5 Q-1.35 23.7 -2.25 29.5 -3.0 34.55 -1.15 38.55 L-1.3 38.65 -1.7 38.25 -8.15 25.9 Q-16.0 6.4 -4.15 -12.4 L-5.7 -7.25 -7.5 0.4 Q-8.3 4.8 -7.9 8.05 L-6.95 11.75 Q-5.9 14.6 -4.55 14.2 -2.25 13.45 -2.3 6.6 L-2.65 -1.75 Q-1.7 -7.4 3.05 -15.55 9.05 -25.85 10.45 -29.35" fill="#000000" fill-rule="evenodd" stroke="none"/>
    <path d="M14.0 -17.65 Q13.7 -20.4 15.15 -24.65 16.6 -28.5 18.75 -31.55 18.55 -30.05 17.0 -24.9 15.8 -20.9 16.05 -18.3 16.25 -16.5 17.55 -12.05 18.7 -8.15 18.75 -5.9 18.75 -4.05 18.35 -1.65 17.8 1.55 17.0 1.75 L13.5 -4.4 14.55 -11.75 14.0 -17.65" fill="#000000" fill-rule="evenodd" stroke="none"/>
    <path d="M2.1 -18.05 Q1.2 -26.3 1.15 -30.85 0.95 -39.1 3.05 -43.55 3.35 -40.9 3.25 -32.35 3.15 -25.25 4.3 -21.15 L2.1 -18.05" fill="#000000" fill-rule="evenodd" stroke="none"/>
  </g>
</svg>
