<?xml version="1.0" encoding="UTF-8" standalone="no"?>
<svg xmlns:xlink="http://www.w3.org/1999/xlink" height="12.4px" width="100.0px" xmlns="http://www.w3.org/2000/svg">
  <g transform="matrix(1.0, 0.0, 0.0, 1.0, 50.0, 6.2)">
    <path d="M49.05 -2.05 Q49.7 -1.45 49.6 -0.4 49.55 0.55 49.0 1.45 48.6 2.15 48.85 2.75 L49.5 3.55 Q50.5 4.65 49.4 5.45 48.45 6.2 46.8 6.2 L-46.95 6.2 Q-48.6 6.15 -49.5 5.45 -50.6 4.65 -49.35 3.55 L-48.7 2.75 Q-48.45 2.2 -48.85 1.45 -49.4 0.55 -49.45 -0.4 -49.5 -1.45 -48.9 -2.05 -48.25 -2.65 -48.25 -3.8 -48.25 -4.7 -48.6 -5.45 L-48.7 -5.75 -48.5 -5.45 Q-48.0 -4.6 -48.0 -3.4 -47.95 -2.25 -48.35 -1.5 L-48.5 -0.55 -47.95 0.05 -47.35 0.25 -46.75 0.15 -46.4 -0.45 Q-46.3 -1.05 -46.8 -1.95 L-47.0 -3.05 -46.8 -4.25 -46.4 -5.2 -46.25 -5.35 -46.3 -5.2 -46.65 -4.2 -46.7 -3.0 Q-46.6 -2.35 -46.3 -2.0 -45.7 -1.15 -45.6 -0.55 -45.5 0.05 -45.85 0.65 L-46.1 1.0 -46.45 1.65 -46.5 2.7 -45.85 3.9 -45.25 4.05 -44.65 3.65 Q-44.4 3.3 -44.5 2.8 L-44.45 2.3 -44.05 1.65 Q-43.2 0.75 -43.6 -0.7 -43.85 -1.5 -43.5 -2.6 L-43.15 -3.4 -43.05 -3.55 -43.05 -3.4 -43.25 -2.95 Q-43.55 -1.8 -43.05 -1.05 -41.9 0.6 -42.75 1.5 -43.35 2.15 -43.4 2.75 -43.45 3.4 -42.85 3.8 L-41.65 4.25 -40.4 4.0 -39.8 3.25 Q-39.6 2.45 -40.4 1.3 -40.95 0.45 -40.75 -0.75 L-40.05 -2.4 Q-39.6 -3.0 -39.8 -3.8 L-40.15 -4.85 Q-39.55 -4.25 -39.55 -2.95 -39.6 -1.85 -40.0 -0.8 L-40.0 0.05 -39.5 0.6 Q-39.0 0.85 -38.6 0.6 -37.9 0.2 -38.5 -1.25 -39.0 -2.4 -38.7 -3.95 L-38.5 -4.75 -38.4 -4.95 -38.4 -4.75 -38.55 -3.9 Q-38.35 -2.4 -37.9 -1.9 -37.5 -1.4 -37.4 -0.7 -37.3 0.0 -37.55 0.5 L-37.75 0.9 -38.3 1.85 -38.55 2.95 Q-38.55 3.8 -37.8 4.1 -37.3 4.3 -36.85 4.1 -36.4 3.85 -36.45 3.35 -36.5 2.8 -36.2 2.35 L-36.1 2.25 Q-35.75 2.0 -35.7 1.75 -35.6 1.3 -36.05 0.6 -36.45 -0.05 -36.4 -1.0 L-36.35 -1.75 -36.0 -2.55 -36.15 -0.9 -35.7 0.0 -35.1 0.95 Q-34.8 1.7 -35.1 2.55 -35.3 3.05 -35.1 3.45 L-34.65 3.85 -33.75 3.95 -32.85 3.65 -32.35 3.05 Q-32.2 2.5 -32.65 1.8 L-33.3 0.05 Q-33.5 -1.05 -33.2 -1.4 -32.75 -2.0 -32.55 -3.1 -32.3 -4.25 -32.55 -5.05 L-32.55 -5.2 -32.5 -5.05 Q-31.85 -3.75 -32.55 -1.4 L-32.55 -0.55 -32.1 -0.05 -31.6 0.05 -31.1 -0.1 -30.65 -0.7 Q-30.55 -1.15 -30.9 -1.7 -31.6 -3.05 -31.5 -5.0 L-31.45 -5.1 -31.4 -4.95 -31.35 -4.1 -30.45 -2.15 Q-30.05 -1.35 -30.1 -0.7 -30.1 -0.25 -30.5 0.65 L-30.95 1.9 Q-31.15 2.6 -30.8 3.1 L-30.25 3.55 -29.3 3.65 -28.4 3.35 -27.9 2.65 Q-27.75 2.0 -28.3 1.2 L-28.65 0.0 Q-28.7 -0.75 -28.35 -1.3 -27.95 -1.9 -27.95 -2.75 L-28.3 -4.2 -28.3 -4.3 -28.2 -4.25 Q-27.5 -3.1 -27.95 -1.0 -28.1 -0.35 -27.85 0.05 L-27.4 0.4 -26.8 0.4 -26.3 0.15 -26.1 -0.35 Q-26.05 -0.85 -26.65 -1.45 -27.15 -1.9 -27.2 -3.05 L-27.1 -4.95 -27.1 -5.05 -27.05 -4.95 Q-27.0 -2.7 -26.05 -1.65 -25.45 -1.05 -25.55 -0.15 -25.6 0.35 -26.1 1.45 L-26.4 2.3 Q-26.6 2.85 -26.45 3.35 L-25.7 4.05 -24.7 4.25 Q-24.15 4.2 -23.75 3.95 L-23.35 3.45 Q-23.2 2.95 -23.6 2.35 -24.0 1.75 -24.0 1.15 -24.05 0.55 -23.75 0.1 -23.35 -0.5 -23.25 -1.35 -23.2 -2.2 -23.45 -2.9 L-23.5 -3.1 -23.35 -2.95 Q-23.1 -2.4 -23.15 -1.4 L-23.35 0.4 -23.25 1.3 -22.7 1.85 -21.65 1.7 -21.3 1.15 Q-21.15 0.6 -21.65 -0.1 -22.05 -0.8 -22.05 -1.55 -22.1 -2.35 -21.75 -3.05 -21.45 -3.65 -21.4 -4.4 -21.35 -5.15 -21.55 -5.75 -21.7 -6.25 -21.45 -5.75 -21.15 -5.25 -21.2 -4.3 -21.2 -3.35 -21.5 -2.2 L-21.45 -1.55 -20.95 -1.1 -20.4 -1.05 -19.9 -1.2 -19.7 -1.55 Q-19.65 -1.9 -19.95 -2.3 -20.35 -2.85 -20.45 -3.85 -20.55 -4.85 -20.25 -5.6 L-20.1 -5.9 -20.15 -5.55 -20.2 -4.45 -19.8 -3.65 -19.1 -2.2 Q-18.95 -1.35 -19.45 -0.35 -19.75 0.2 -19.55 0.7 L-19.05 1.35 -18.45 1.5 -17.9 1.4 Q-17.55 1.25 -17.45 0.9 -17.3 0.35 -17.65 -0.5 L-17.8 -1.8 -17.7 -3.15 -17.65 -3.25 -17.6 -3.1 -17.65 -2.3 -17.45 -1.7 Q-16.7 -0.45 -16.65 0.3 -16.65 0.9 -17.25 2.4 L-17.25 3.1 -16.75 3.6 -15.6 3.7 Q-14.95 3.65 -14.6 3.3 -14.25 3.05 -14.25 2.7 -14.25 2.3 -14.6 1.95 -15.1 1.35 -15.25 0.45 -15.4 -0.6 -14.9 -1.25 -14.2 -2.15 -14.15 -3.1 -14.15 -3.85 -14.45 -4.5 -14.0 -4.0 -14.0 -3.2 L-14.4 -1.15 -14.4 -0.35 -13.9 0.15 -12.9 0.1 Q-12.65 -0.1 -12.55 -0.4 -12.4 -0.9 -12.8 -1.65 -13.3 -2.45 -13.15 -3.7 L-12.95 -4.45 -13.0 -4.05 -13.0 -3.7 -12.6 -2.5 Q-12.05 -1.35 -12.1 -0.55 -12.15 0.15 -12.8 1.45 -13.15 2.1 -13.0 2.55 L-12.6 3.0 -11.9 3.15 -11.15 2.95 Q-10.65 2.65 -10.5 2.1 -10.3 1.5 -10.75 0.7 L-10.95 -0.65 -10.7 -2.2 -10.6 -2.35 -10.65 -2.2 -10.6 -1.05 -10.1 -0.05 Q-9.8 0.5 -9.85 1.0 -9.85 1.55 -10.2 2.55 -10.45 3.25 -10.15 3.75 L-9.6 4.25 -8.6 4.45 -7.7 4.15 -7.2 3.55 Q-7.0 3.0 -7.4 2.25 L-7.85 0.95 Q-7.95 0.05 -7.4 -0.55 -6.65 -1.3 -6.65 -2.6 -6.65 -3.65 -7.1 -4.55 -6.35 -3.6 -6.4 -2.45 -6.4 -1.7 -6.85 -0.05 L-6.85 0.75 -6.4 1.2 -5.5 1.15 -5.2 0.75 Q-5.05 0.35 -5.35 -0.2 L-5.7 -1.75 -5.5 -3.25 Q-5.5 -2.35 -4.85 -1.1 -4.45 -0.35 -4.5 0.15 L-4.85 1.05 -5.5 2.65 -5.4 3.45 -4.75 4.05 -3.4 3.95 -2.85 3.35 Q-2.65 2.75 -3.0 1.85 L-3.35 1.1 -3.75 0.2 -3.65 -0.65 Q-3.15 -1.3 -2.9 -2.4 -2.7 -3.45 -2.9 -4.15 -2.4 -3.45 -2.5 -2.5 -2.6 -1.7 -3.1 -0.45 -3.35 0.1 -3.1 0.5 L-2.65 0.9 -1.7 1.1 -0.85 0.85 -0.45 0.4 Q-0.3 -0.05 -0.7 -0.6 L-1.7 -2.65 Q-1.9 -3.6 -1.4 -4.45 -0.95 -5.15 -1.15 -6.2 L-0.85 -5.25 -0.95 -4.3 Q-1.7 -2.6 -1.05 -2.0 -0.75 -1.7 0.05 -1.7 0.85 -1.65 1.2 -2.0 1.85 -2.6 1.1 -4.3 L1.0 -5.25 1.35 -6.2 Q1.05 -5.15 1.55 -4.45 2.05 -3.6 1.85 -2.65 L0.85 -0.6 Q0.45 -0.05 0.6 0.4 L1.0 0.85 1.85 1.1 2.8 0.9 3.3 0.5 3.25 -0.45 Q2.75 -1.7 2.65 -2.5 2.55 -3.45 3.05 -4.15 2.85 -3.45 3.05 -2.4 3.3 -1.3 3.8 -0.65 4.05 -0.3 3.9 0.2 L3.5 1.1 3.15 1.85 Q2.8 2.75 3.05 3.35 L3.55 3.95 4.9 4.05 5.55 3.45 5.65 2.65 5.05 1.05 4.65 0.15 5.05 -1.1 Q5.7 -2.3 5.7 -3.25 L5.85 -1.6 5.55 -0.2 Q5.2 0.35 5.35 0.75 L5.65 1.15 6.1 1.3 6.6 1.2 7.05 0.75 7.0 -0.05 Q6.55 -1.7 6.55 -2.45 6.55 -3.6 7.25 -4.55 6.8 -3.65 6.8 -2.6 6.8 -1.3 7.55 -0.55 8.1 0.05 8.0 0.95 L7.55 2.25 Q7.15 3.0 7.35 3.55 L7.85 4.15 8.75 4.45 9.75 4.25 10.3 3.75 Q10.6 3.25 10.35 2.55 10.0 1.5 10.0 1.0 10.0 0.5 10.25 -0.05 L10.75 -1.05 10.8 -2.2 10.8 -2.3 10.85 -2.2 11.1 -0.65 10.9 0.7 Q10.5 1.5 10.65 2.1 10.8 2.65 11.3 2.95 L12.05 3.15 12.8 3.0 13.15 2.55 13.0 1.45 Q12.3 0.15 12.25 -0.55 12.2 -1.35 12.75 -2.5 L13.15 -3.7 13.15 -4.05 13.15 -4.45 13.3 -3.7 Q13.45 -2.45 12.95 -1.65 12.55 -0.9 12.7 -0.4 12.8 -0.1 13.1 0.1 L14.1 0.15 14.55 -0.35 14.55 -1.15 Q13.8 -3.75 14.65 -4.5 14.3 -3.85 14.3 -3.1 14.35 -2.15 15.05 -1.25 15.55 -0.6 15.4 0.45 15.3 1.35 14.75 1.95 14.4 2.3 14.4 2.7 14.4 3.05 14.75 3.3 L15.8 3.7 16.9 3.6 Q17.7 3.25 17.4 2.4 16.8 0.9 16.85 0.3 16.85 -0.45 17.6 -1.7 L17.8 -2.3 17.75 -3.1 17.8 -3.2 17.85 -3.15 18.0 -1.8 17.8 -0.5 Q17.45 0.35 17.6 0.9 L18.05 1.4 18.6 1.5 19.2 1.35 19.7 0.7 Q19.9 0.2 19.6 -0.35 19.1 -1.35 19.3 -2.2 19.4 -2.9 19.95 -3.65 L20.4 -4.45 20.35 -5.55 20.25 -5.9 20.4 -5.6 Q20.7 -4.85 20.6 -3.85 L20.15 -2.3 19.85 -1.55 20.1 -1.2 Q20.25 -1.05 20.55 -1.05 L21.15 -1.1 21.6 -1.55 21.65 -2.2 21.35 -4.15 Q21.3 -5.05 21.55 -5.6 L21.7 -5.9 21.65 -5.6 21.55 -4.3 Q21.6 -3.6 21.9 -3.05 22.25 -2.35 22.25 -1.55 22.2 -0.8 21.8 -0.1 21.3 0.6 21.45 1.15 L21.8 1.7 22.85 1.85 23.4 1.3 23.5 0.4 23.3 -1.4 Q23.25 -2.4 23.55 -2.95 L23.65 -3.1 23.65 -2.9 Q23.35 -2.2 23.4 -1.35 23.5 -0.5 23.9 0.1 L24.2 1.15 23.8 2.35 Q23.4 2.95 23.55 3.45 L23.95 3.95 Q24.3 4.2 24.85 4.25 L25.9 4.05 26.6 3.35 Q26.8 2.85 26.55 2.3 L26.25 1.45 25.7 -0.15 Q25.6 -1.05 26.2 -1.65 27.2 -2.7 27.2 -4.95 L27.25 -5.05 27.25 -4.95 27.35 -3.05 Q27.3 -1.9 26.8 -1.45 26.2 -0.85 26.25 -0.35 L26.45 0.15 Q26.65 0.35 26.95 0.4 L27.55 0.4 28.0 0.05 Q28.3 -0.35 28.1 -1.0 27.65 -3.1 28.4 -4.25 L28.45 -4.3 28.45 -4.2 Q28.15 -3.5 28.15 -2.75 28.1 -1.85 28.5 -1.3 28.85 -0.75 28.8 0.0 L28.45 1.2 Q27.9 2.0 28.05 2.65 L28.55 3.35 29.45 3.65 30.4 3.55 31.0 3.1 Q31.3 2.6 31.1 1.9 L30.65 0.65 Q30.25 -0.25 30.25 -0.7 30.2 -1.35 30.6 -2.15 L31.5 -4.1 31.55 -4.95 31.6 -5.1 31.65 -5.0 Q31.75 -3.05 31.05 -1.7 30.75 -1.15 30.85 -0.7 30.9 -0.35 31.25 -0.1 L32.25 -0.05 32.7 -0.55 32.7 -1.4 Q32.4 -2.25 32.35 -3.05 32.25 -4.3 32.65 -5.05 L32.7 -5.2 32.7 -5.05 Q32.45 -4.25 32.7 -3.1 32.9 -2.05 33.35 -1.4 33.7 -1.05 33.5 0.05 L32.8 1.8 Q32.35 2.5 32.5 3.05 L33.0 3.65 33.9 3.95 34.8 3.85 35.25 3.45 Q35.45 3.05 35.25 2.55 34.95 1.7 35.25 0.95 L35.85 0.0 36.3 -0.9 36.35 -1.75 36.15 -2.55 36.5 -1.75 36.55 -1.0 Q36.6 -0.05 36.2 0.6 35.75 1.3 35.85 1.75 L36.25 2.25 36.35 2.35 Q36.65 2.8 36.6 3.35 36.55 3.85 37.0 4.1 37.45 4.3 37.95 4.1 38.7 3.8 38.7 2.95 L38.45 1.85 37.9 0.9 37.7 0.5 Q37.45 0.0 37.55 -0.7 37.65 -1.4 38.05 -1.9 38.45 -2.4 38.7 -3.9 L38.55 -4.75 38.55 -4.95 38.65 -4.75 38.85 -3.95 Q39.15 -2.45 38.65 -1.25 38.3 -0.4 38.4 0.1 L38.75 0.6 Q39.15 0.85 39.65 0.6 L40.15 0.05 40.15 -0.8 Q39.75 -1.85 39.7 -2.95 39.7 -4.25 40.35 -4.85 L39.95 -3.8 Q39.75 -3.0 40.2 -2.4 40.75 -1.65 40.9 -0.75 41.15 0.45 40.55 1.3 39.8 2.45 39.95 3.25 L40.55 4.0 41.8 4.25 43.0 3.8 Q43.6 3.4 43.55 2.75 43.55 2.15 42.9 1.5 42.05 0.6 43.2 -1.05 43.7 -1.8 43.4 -2.95 L43.2 -3.4 43.2 -3.5 43.3 -3.4 43.65 -2.6 Q44.0 -1.55 43.8 -0.7 43.35 0.75 44.2 1.65 L44.65 2.3 44.65 2.8 Q44.55 3.3 44.8 3.65 L45.4 4.05 46.0 3.9 46.65 2.7 46.6 1.65 46.25 1.0 46.0 0.65 Q45.65 0.05 45.75 -0.55 45.85 -1.15 46.45 -2.0 47.05 -2.75 46.8 -4.2 L46.5 -5.2 46.45 -5.35 46.6 -5.2 46.95 -4.25 47.15 -3.05 46.95 -1.95 Q46.45 -1.05 46.55 -0.45 46.6 -0.05 46.95 0.15 L47.5 0.25 48.1 0.05 48.65 -0.55 Q48.8 -1.0 48.55 -1.5 48.15 -2.25 48.15 -3.4 48.15 -4.6 48.65 -5.45 L48.85 -5.75 48.75 -5.45 Q48.4 -4.7 48.4 -3.8 48.4 -2.65 49.05 -2.05" fill="#000000" fill-rule="evenodd" stroke="none"/>
  </g>
</svg>
