<?xml version="1.0" encoding="UTF-8" standalone="no"?>
<svg xmlns:xlink="http://www.w3.org/1999/xlink" height="100.0px" width="69.1px" xmlns="http://www.w3.org/2000/svg">
  <g transform="matrix(1.0, 0.0, 0.0, 1.0, 34.55, 50.0)">
    <path d="M-23.65 -10.15 L-22.5 -7.5 Q-21.3 -4.7 -21.15 -3.7 -20.8 -1.55 -21.4 2.6 -21.6 6.8 -20.25 9.6 -18.8 12.8 -15.7 12.8 -12.8 12.8 -11.15 10.45 -9.75 8.45 -10.2 5.35 -10.6 2.6 -13.15 -1.8 -15.65 -6.15 -15.95 -8.6 -16.45 -12.15 -14.45 -15.7 -12.4 -19.2 -12.9 -21.95 -13.1 -23.0 -14.1 -24.45 -15.3 -26.1 -15.55 -26.9 -16.0 -28.1 -15.75 -29.25 -15.4 -30.7 -13.5 -33.5 -11.85 -35.9 -11.65 -38.2 L-11.45 -38.2 Q-11.45 -36.85 -12.45 -33.55 -13.3 -30.8 -12.8 -28.85 -12.4 -27.4 -10.3 -25.0 -8.25 -22.75 -8.1 -20.85 -8.0 -20.2 -9.65 -12.0 -10.7 -6.85 -6.8 -5.05 -5.55 -4.45 -3.95 -4.45 -2.25 -4.4 -1.15 -5.05 1.2 -6.3 2.0 -9.4 2.9 -12.6 1.55 -15.4 L-0.65 -19.0 Q-2.0 -21.15 -2.05 -23.2 L-2.05 -24.0 Q-1.85 -25.75 0.05 -28.45 1.9 -31.1 1.95 -33.15 2.0 -35.25 0.95 -37.6 L-0.7 -41.6 Q-1.15 -43.55 -0.8 -46.0 L0.2 -50.0 0.75 -45.9 Q1.05 -45.05 3.15 -42.05 4.75 -39.7 4.95 -37.95 5.2 -35.95 4.2 -31.85 3.2 -27.95 3.8 -25.4 4.25 -23.7 7.4 -19.25 9.85 -15.85 9.2 -12.0 8.55 -8.5 4.05 -3.25 -0.15 1.5 -0.2 6.05 -0.2 12.45 3.55 13.9 9.05 16.0 10.6 7.8 12.1 -0.25 7.6 -2.85 L7.6 -3.1 7.8 -3.1 9.2 -6.0 10.85 -9.35 Q12.0 -13.1 11.4 -16.25 L10.8 -19.6 Q10.9 -20.4 11.8 -21.5 L13.25 -23.25 Q14.7 -25.35 15.35 -27.5 16.0 -29.75 16.05 -32.75 L16.25 -32.75 16.25 -32.45 16.5 -32.3 Q19.1 -24.85 16.0 -20.3 L14.3 -17.6 Q13.45 -16.1 13.4 -14.5 13.2 -10.75 16.55 -6.5 20.2 -2.0 20.45 1.0 20.75 5.45 18.15 11.25 15.15 17.7 14.9 20.85 14.4 26.55 17.25 27.45 21.4 28.65 23.1 23.8 24.5 19.75 23.6 14.65 L21.95 8.95 22.45 4.2 Q23.0 -3.4 24.7 -6.55 27.0 -10.8 32.5 -10.8 L32.5 -10.6 32.3 -10.6 32.0 -10.25 Q29.2 -8.85 27.95 -4.6 26.85 -1.05 27.05 3.5 27.15 6.35 29.15 9.75 L32.3 15.35 Q35.95 23.35 33.7 33.3 31.25 44.15 23.4 44.6 21.45 44.7 17.75 42.5 14.15 40.35 12.0 40.5 10.6 40.6 9.05 41.15 6.85 41.9 6.85 43.15 L6.85 43.4 6.65 43.4 Q6.65 40.2 7.55 37.45 8.5 34.3 10.35 32.9 L10.35 32.45 10.15 32.45 10.15 32.2 8.1 33.8 Q5.65 36.5 4.75 41.6 L4.7 46.0 Q4.75 48.9 3.85 49.75 L-0.4 50.0 Q-2.45 50.0 -5.15 47.9 -8.4 45.3 -8.85 41.05 -9.2 37.3 -7.45 32.6 -5.9 28.2 -3.3 27.2 L-3.3 26.75 Q-6.85 26.75 -9.35 31.45 L-13.55 39.2 Q-16.25 42.35 -19.6 42.7 -25.1 43.3 -28.3 39.95 -31.7 36.4 -30.35 30.0 L-29.0 25.7 Q-27.95 23.1 -27.7 21.45 -27.05 17.45 -29.05 15.25 -31.0 12.95 -34.2 14.4 L-34.2 14.65 -34.55 14.2 Q-34.25 14.2 -32.6 12.2 -30.65 10.3 -28.45 10.6 -28.45 15.1 -26.0 18.5 L-24.2 20.75 Q-23.9 21.9 -24.65 24.45 -24.95 27.7 -23.85 30.1 -22.7 32.6 -20.35 33.35 L-17.8 33.4 Q-16.45 33.15 -15.55 32.25 -13.85 30.55 -13.5 28.05 -12.7 22.95 -18.5 20.0 -25.1 16.7 -26.0 12.8 -27.25 7.3 -24.85 1.25 L-23.95 -0.95 Q-23.45 -2.25 -23.4 -3.3 L-23.45 -8.8 -23.85 -9.9 -23.85 -10.15 -23.65 -10.15" fill="#000000" fill-rule="evenodd" stroke="none"/>
  </g>
</svg>
