<?xml version="1.0" encoding="UTF-8" standalone="no"?>
<svg xmlns:xlink="http://www.w3.org/1999/xlink" height="100.05px" width="31.35px" xmlns="http://www.w3.org/2000/svg">
  <g transform="matrix(1.0, 0.0, 0.0, 1.0, 15.65, 50.0)">
    <path d="M-4.55 -45.9 Q-0.4 -40.8 -0.65 -34.75 -0.75 -32.05 -4.4 -25.1 -6.9 -20.45 -3.3 -18.1 -0.5 -16.15 1.65 -19.3 3.4 -21.85 4.0 -26.15 4.6 -30.1 3.75 -32.45 8.3 -24.45 -0.5 -5.4 -5.15 4.75 -5.95 7.2 -7.85 13.1 -5.3 15.0 -0.5 18.6 4.05 6.5 8.55 -5.15 7.65 -15.3 9.95 -6.7 8.7 3.2 7.55 11.45 4.15 19.5 2.4 23.8 -1.6 30.9 -4.1 36.25 -1.3 38.05 3.25 40.85 9.5 25.4 15.8 9.75 13.25 0.25 18.5 13.1 12.5 29.95 6.95 45.65 -1.85 49.45 -5.05 50.9 -8.0 48.85 -11.1 46.65 -13.05 41.35 -16.55 31.75 -15.35 23.65 -14.4 17.1 -9.85 8.7 -5.05 0.1 -8.25 -13.6 -10.35 -22.25 -6.95 -28.05 L-4.4 -32.05 Q-3.15 -34.25 -3.2 -36.25 -3.3 -41.9 -5.3 -45.35 L-8.95 -50.0 -4.55 -45.9" fill="#000000" fill-rule="evenodd" stroke="none"/>
  </g>
</svg>
