<?xml version="1.0" encoding="UTF-8" standalone="no"?>
<svg xmlns:xlink="http://www.w3.org/1999/xlink" height="100.0px" width="28.05px" xmlns="http://www.w3.org/2000/svg">
  <g transform="matrix(1.0, 0.0, 0.0, 1.0, 14.0, 50.0)">
    <path d="M5.6 -50.0 Q1.85 -38.35 2.65 -27.7 2.65 -26.75 6.4 -1.8 L11.85 20.35 14.05 36.55 Q14.2 45.3 8.65 48.45 0.9 52.85 -5.9 44.7 -11.85 37.55 -13.15 27.25 -14.5 16.15 -11.55 4.85 -8.3 -7.55 -1.45 -12.6 -3.25 -6.85 -7.45 3.95 -10.6 13.65 -9.75 22.65 -8.95 30.85 -4.35 35.7 0.7 41.0 6.65 37.5 8.9 33.75 7.55 28.75 6.1 23.25 1.45 22.7 -0.2 22.8 -1.35 24.1 L-3.1 26.7 Q-5.05 20.45 -2.55 14.95 1.05 9.1 2.25 5.65 3.5 2.15 3.4 -2.55 3.4 -5.3 2.65 -11.9 2.25 -15.3 0.85 -18.45 -0.55 -21.6 -2.45 -23.2 -7.4 -21.6 -10.05 -15.4 -12.3 -8.2 -13.9 -5.45 -14.9 -13.45 -7.6 -29.55 -0.5 -45.2 5.6 -50.0" fill="#000000" fill-rule="evenodd" stroke="none"/>
  </g>
</svg>
