<?xml version="1.0" encoding="UTF-8" standalone="no"?>
<svg xmlns:xlink="http://www.w3.org/1999/xlink" height="100.0px" width="29.0px" xmlns="http://www.w3.org/2000/svg">
  <g transform="matrix(1.0, 0.0, 0.0, 1.0, 14.5, 50.0)">
    <path d="M4.95 -30.2 Q5.75 -24.45 2.7 -18.25 -0.65 -11.4 -1.8 -4.9 -2.95 1.6 -1.25 4.85 -0.35 6.6 1.4 7.0 2.75 7.2 3.7 6.3 4.95 5.1 5.1 1.6 5.2 -0.25 4.9 -5.1 L4.65 -8.85 Q4.65 -12.8 6.35 -17.3 L6.8 -17.95 Q7.05 -17.9 6.85 -17.15 5.95 -9.85 8.0 -5.4 10.45 0.0 8.85 6.9 7.5 13.05 3.75 17.85 1.75 20.5 1.4 23.5 1.1 26.0 1.95 28.1 2.9 30.55 4.45 30.65 5.95 30.95 7.35 29.5 8.85 27.8 9.55 24.55 10.3 21.3 9.75 18.55 9.3 16.1 10.75 11.15 11.0 10.4 11.2 10.5 L11.45 11.25 Q11.3 13.35 11.9 14.65 L12.3 15.55 Q13.8 18.7 14.25 20.95 15.0 25.3 13.4 29.55 12.45 32.3 10.45 34.75 L7.05 38.45 Q5.6 40.05 2.4 41.8 L-2.5 44.95 Q-5.45 47.3 -7.2 50.0 -7.45 47.35 -8.05 43.95 -9.25 37.0 -12.15 33.05 -14.2 30.25 -14.45 25.55 -14.75 20.8 -13.0 16.4 -12.15 14.5 -11.95 12.45 L-11.7 12.0 -11.55 12.45 Q-11.15 15.1 -11.6 17.8 -12.6 24.15 -10.8 25.55 -9.4 26.6 -6.85 25.3 -5.45 24.7 -4.85 22.8 -3.95 20.05 -5.15 15.2 -6.05 11.3 -7.75 7.75 L-8.95 5.45 Q-11.3 1.05 -12.15 -2.15 -13.35 -6.95 -12.1 -11.4 -10.5 -16.9 -10.8 -21.85 L-10.7 -22.7 -10.4 -21.9 Q-9.7 -18.05 -10.2 -13.65 L-10.35 -12.25 Q-10.8 -7.9 -10.65 -6.5 -10.25 -4.25 -8.2 -3.9 -6.45 -3.65 -5.0 -5.55 -3.55 -7.4 -3.25 -10.05 -2.85 -13.0 -4.1 -16.0 -6.2 -21.15 -7.3 -26.1 -8.5 -31.65 -7.65 -34.0 -6.7 -36.8 -5.9 -40.55 -5.0 -45.5 -5.4 -48.9 L-5.4 -50.0 -4.9 -48.9 Q-3.1 -42.15 -4.7 -35.85 -6.45 -28.25 -4.75 -25.95 -3.95 -24.9 -2.5 -24.9 -0.8 -24.9 0.2 -26.35 2.25 -29.2 0.55 -34.7 -0.5 -37.8 -0.8 -41.55 -1.2 -45.85 -0.3 -49.2 L0.1 -49.85 0.2 -49.05 Q-0.15 -44.2 1.25 -40.6 1.4 -40.0 2.3 -38.1 4.6 -33.5 4.95 -30.2" fill="#000000" fill-rule="evenodd" stroke="none"/>
  </g>
</svg>
