<?xml version="1.0" encoding="UTF-8" standalone="no"?>
<svg xmlns:xlink="http://www.w3.org/1999/xlink" height="74.8px" width="100.0px" xmlns="http://www.w3.org/2000/svg">
  <g transform="matrix(1.0, 0.0, 0.0, 1.0, 50.0, 37.4)">
    <path d="M1.25 8.4 Q1.3 9.65 0.2 10.1 -1.0 10.6 -1.75 9.5 -2.5 8.4 -1.5 7.0 -2.5 7.4 -2.3 8.7 -2.15 9.85 -2.5 9.9 -3.45 10.0 -4.1 8.2 -4.9 6.2 -5.45 5.95 L-9.3 5.35 Q-11.75 5.05 -13.1 3.55 -13.6 3.0 -13.45 -1.3 -13.3 -4.95 -16.05 -5.6 -13.65 -3.95 -14.75 -1.65 L-16.6 2.15 Q-16.65 3.2 -15.45 4.65 L-13.5 6.7 Q-12.0 8.15 -13.2 8.95 L-15.65 8.9 -17.05 7.6 Q-18.65 3.85 -19.45 2.55 -20.5 0.85 -22.15 -0.15 -18.55 3.45 -19.5 8.3 L-19.75 10.7 Q-19.45 12.25 -17.1 12.75 L-13.55 12.85 Q-11.95 12.95 -10.85 14.9 -9.95 16.4 -11.6 17.15 -12.95 17.8 -14.15 17.55 -14.9 17.4 -16.9 15.1 -18.8 12.8 -20.9 12.5 -19.05 13.35 -17.15 16.8 -15.35 20.0 -12.75 20.75 -8.55 21.9 -5.5 18.55 -4.6 17.6 -3.45 18.35 -2.35 19.05 -3.1 19.95 -4.35 21.3 -6.35 20.2 -3.15 22.45 0.0 20.75 L3.15 20.65 Q4.7 21.4 3.6 22.0 2.15 22.8 0.75 22.75 L-1.7 22.45 Q0.1 23.75 1.3 24.15 3.0 24.75 4.3 23.85 L4.85 23.0 5.45 22.2 6.8 22.05 Q7.35 22.25 7.55 22.85 8.3 20.05 10.0 17.15 L9.6 15.8 9.5 12.15 Q9.15 10.0 5.6 9.2 8.95 10.5 8.6 12.65 8.25 14.55 6.75 14.5 5.9 14.45 5.55 13.4 5.1 12.2 6.75 11.45 4.55 11.5 4.45 13.3 L4.4 14.35 Q4.25 15.4 3.3 14.9 2.3 14.45 2.2 13.55 2.1 12.45 2.5 10.45 2.85 8.75 2.65 8.0 2.15 5.9 -1.2 4.9 -3.05 4.35 -3.1 2.7 -3.2 1.2 -1.75 -0.1 -3.5 0.8 -3.8 2.2 -4.25 4.25 -0.45 6.15 1.25 7.0 1.25 8.4 M-29.55 9.75 L-31.3 13.95 Q-31.3 15.65 -27.8 18.7 -26.1 20.15 -27.35 21.1 L-30.0 21.15 Q-31.15 20.55 -31.55 19.85 -33.45 15.85 -34.4 14.45 -35.65 12.7 -37.4 11.65 -33.45 15.4 -34.2 20.7 L-34.4 23.3 Q-34.0 24.95 -31.4 25.35 -29.8 25.65 -27.6 25.3 -25.9 25.35 -24.6 27.4 -23.6 29.0 -25.35 29.9 -26.8 30.7 -28.1 30.4 -28.9 30.25 -31.1 27.85 -33.3 25.5 -35.55 25.25 -33.55 26.05 -31.3 29.7 -29.25 33.15 -26.4 33.85 -21.9 35.0 -18.7 31.2 -17.75 30.05 -16.45 30.85 -15.15 31.6 -16.05 32.6 -16.7 33.35 -17.65 33.4 -18.55 33.5 -19.5 33.0 -16.0 35.3 -12.55 33.3 -11.6 32.75 -10.5 32.8 -9.55 32.85 -8.85 33.25 L-8.75 33.25 -8.15 33.05 -8.05 33.0 -8.0 33.0 -5.9 31.7 -5.85 31.65 -3.65 29.8 -5.55 28.55 -7.8 28.4 Q-9.0 28.2 -9.45 27.05 -10.35 27.65 -11.25 27.55 -13.1 27.5 -14.55 25.85 L-15.95 23.95 -17.15 21.15 -17.5 20.8 -19.05 19.6 Q-19.85 18.65 -20.25 17.3 L-23.95 17.0 Q-26.15 16.7 -27.5 15.3 -28.05 14.75 -28.05 10.0 -28.1 6.05 -31.05 5.45 -28.4 7.2 -29.55 9.75 M37.3 -29.6 Q33.9 -26.05 34.55 -23.5 34.9 -22.05 37.3 -22.8 39.75 -23.6 39.6 -27.0 40.8 -24.25 39.0 -21.7 L36.3 -20.2 Q34.35 -19.3 34.3 -17.8 34.25 -15.8 35.75 -15.5 37.1 -15.2 38.5 -16.55 37.6 -15.05 36.45 -14.5 35.0 -13.85 34.25 -13.0 33.55 -12.15 34.2 -10.95 34.9 -9.8 35.75 -10.45 L37.35 -11.85 Q38.3 -12.65 39.15 -12.85 L41.7 -13.0 44.1 -12.95 Q47.45 -13.35 48.95 -14.95 47.75 -10.75 44.05 -10.45 L40.0 -10.45 Q38.55 -10.5 38.55 -9.15 38.55 -7.75 39.6 -8.0 43.15 -8.8 46.35 -7.5 43.35 -8.1 40.9 -6.6 39.85 -6.0 38.7 -4.5 37.45 -2.95 36.85 -2.55 36.1 -2.05 35.25 -2.0 L33.1 -2.0 Q32.25 -2.0 32.05 -1.1 31.85 -0.25 32.3 0.3 32.75 0.85 34.05 0.6 L35.6 0.4 Q37.75 2.2 39.55 0.9 41.25 -0.3 41.7 -3.3 42.05 -1.9 41.1 0.05 L39.1 2.75 36.4 3.45 Q34.1 3.8 33.5 4.45 31.95 3.25 30.6 3.65 28.65 4.25 28.5 8.35 28.45 10.2 27.2 10.85 26.05 11.4 25.2 10.6 24.25 9.7 24.95 8.6 25.65 7.4 27.3 7.75 L25.4 7.7 Q24.4 8.35 24.25 8.05 23.8 7.25 25.1 5.85 26.6 4.35 26.55 3.7 L25.5 -0.05 Q24.8 -2.4 25.55 -4.25 25.85 -4.9 29.8 -6.6 33.15 -8.05 32.65 -10.8 32.1 -7.95 29.55 -8.0 L25.4 -8.05 Q24.45 -7.65 23.6 -5.9 L22.55 -3.3 Q21.9 -1.35 20.65 -2.05 19.5 -2.8 19.65 -4.3 19.95 -5.7 20.25 -6.1 23.0 -9.2 23.85 -10.45 24.95 -12.15 25.15 -14.0 23.35 -9.2 18.6 -8.1 L16.25 -7.3 Q15.0 -6.35 15.55 -4.05 15.9 -2.55 16.95 -0.8 17.5 0.7 16.2 2.5 15.2 3.95 13.85 2.75 12.75 1.8 12.45 0.6 12.25 -0.1 13.55 -2.85 14.8 -5.55 14.2 -7.6 14.2 -5.55 11.9 -2.35 9.7 0.6 10.15 3.25 10.75 7.5 15.1 8.95 16.4 9.35 16.2 10.7 16.05 12.1 14.9 11.65 13.1 11.1 13.3 8.85 12.55 12.7 15.5 14.9 16.9 15.95 16.9 17.7 16.85 19.4 15.85 18.65 14.55 17.65 14.0 16.4 L13.2 14.1 Q12.75 16.3 12.9 17.5 13.1 19.3 14.45 20.05 L15.45 20.2 Q16.15 20.25 16.4 20.45 17.7 21.5 16.75 22.55 15.75 23.65 14.8 22.7 13.05 21.6 13.3 19.9 12.7 21.0 13.25 23.1 13.8 25.25 13.45 26.1 L12.9 26.9 13.15 27.8 13.35 28.25 14.65 30.25 14.75 30.45 14.8 30.45 17.95 34.55 Q20.15 30.15 22.85 28.2 25.9 26.0 28.75 27.7 28.15 26.65 25.75 25.65 23.3 24.65 22.8 23.85 22.35 23.2 22.8 22.65 L24.0 21.55 Q26.25 20.6 27.25 19.9 29.0 18.7 28.25 15.15 28.5 18.75 26.45 19.25 24.55 19.75 24.0 18.35 23.65 17.6 24.45 16.8 25.35 15.9 26.7 17.1 25.7 15.15 24.1 15.75 L23.1 16.2 Q22.15 16.5 22.15 15.4 22.15 14.35 22.95 13.85 23.95 13.25 25.8 12.85 27.5 12.4 28.1 11.9 29.85 10.55 29.3 7.15 29.05 5.3 30.45 4.5 L33.45 4.45 Q32.8 5.3 33.65 6.75 34.45 8.1 37.7 6.7 41.55 5.0 44.0 6.05 41.7 5.6 40.1 8.9 38.25 12.65 37.75 12.85 L34.7 13.05 Q33.5 13.8 34.35 15.2 35.35 16.75 36.75 16.55 37.8 16.45 38.9 15.35 39.6 14.65 41.35 15.35 42.45 15.8 43.25 15.05 44.0 14.3 43.75 13.1 45.15 14.7 43.1 16.0 41.35 17.1 41.75 18.15 42.15 19.15 43.65 18.15 44.8 17.4 46.2 15.0 47.6 13.45 49.9 15.4 47.6 14.45 46.4 16.6 45.8 17.75 45.3 20.65 L43.65 21.75 Q42.15 22.55 42.2 23.55 42.25 25.6 44.25 25.2 46.25 24.75 45.55 22.95 46.8 24.3 45.7 25.5 44.7 26.65 43.0 26.15 41.9 25.8 42.3 27.55 42.65 29.25 43.8 28.65 46.7 27.05 47.45 26.85 L50.0 27.05 47.6 27.25 Q46.4 27.7 45.85 28.7 L43.7 33.45 Q42.1 36.15 39.9 36.05 L37.7 35.6 Q36.6 35.1 36.75 34.2 36.9 33.05 37.9 32.95 38.85 32.9 39.35 33.65 L38.75 32.6 Q38.45 32.25 37.6 32.1 36.65 31.95 35.65 32.8 34.45 33.75 35.0 35.0 L30.85 37.4 Q18.15 36.95 -7.55 36.45 L-45.95 35.5 Q-46.5 35.5 -46.8 34.6 -45.2 33.45 -45.4 31.15 -45.55 29.0 -46.6 28.35 -46.1 29.8 -46.25 31.1 -46.5 32.7 -47.9 32.15 -48.55 31.9 -48.6 30.0 -48.65 28.05 -47.75 27.3 -46.75 26.45 -44.65 26.3 -42.6 26.1 -41.75 25.3 -39.95 23.5 -40.45 21.35 -40.55 24.5 -42.9 24.25 -44.45 24.1 -44.7 22.6 -44.95 21.15 -43.7 20.3 L-41.2 20.15 -38.0 20.25 -37.15 19.8 -36.7 19.0 -39.0 19.25 -41.55 18.45 -43.35 18.6 Q-44.3 19.0 -44.7 19.7 -45.2 20.55 -45.75 22.6 -46.4 24.25 -48.0 24.15 -49.8 24.1 -49.95 20.9 -50.15 17.75 -48.55 15.2 -49.4 14.45 -49.7 13.35 L-50.0 10.7 Q-50.05 9.3 -48.55 7.8 -47.05 6.15 -47.0 5.6 -46.8 4.1 -47.6 1.9 -48.35 -0.2 -48.15 -1.45 -47.9 -2.9 -46.75 -4.25 L-45.0 -6.35 Q-44.3 -7.7 -44.75 -9.25 -43.95 -7.6 -44.75 -5.4 L-46.55 -2.1 Q-47.4 -0.6 -46.3 0.85 -45.15 2.3 -43.85 1.45 -41.65 0.1 -40.2 0.05 -38.45 0.0 -38.2 2.1 -38.45 1.5 -38.75 1.35 L-39.5 1.25 Q-40.8 1.35 -41.0 2.7 -41.2 4.05 -40.1 5.2 -38.1 7.1 -36.1 6.25 -34.0 5.35 -34.1 2.45 -34.1 1.15 -37.0 -1.3 -39.65 -3.55 -39.15 -5.7 -38.85 -6.9 -37.15 -7.35 -35.4 -7.8 -35.2 -8.8 -35.0 -9.65 -35.2 -10.45 -34.35 -9.1 -34.75 -7.9 -34.95 -7.25 -36.1 -5.65 -36.7 -4.85 -35.45 -3.6 -34.2 -2.35 -33.3 -3.2 -32.45 -4.0 -32.75 -6.15 L-33.1 -9.4 Q-32.35 -12.5 -28.4 -11.0 -30.0 -10.9 -30.65 -10.35 -31.45 -9.75 -31.5 -8.3 -31.6 -6.25 -30.3 -5.0 -28.8 -3.5 -26.0 -4.1 -24.75 -4.35 -24.45 -5.95 -24.2 -7.35 -24.65 -8.65 -25.25 -10.5 -27.55 -14.1 -29.45 -16.95 -29.3 -18.4 -29.1 -20.75 -27.6 -21.95 L-24.8 -24.05 Q-24.1 -24.8 -23.8 -25.6 -23.45 -26.45 -23.15 -28.2 -22.85 -25.75 -23.5 -24.35 -24.5 -22.3 -24.7 -21.25 -24.85 -20.2 -24.4 -19.25 -23.7 -17.85 -22.45 -18.85 -21.15 -19.85 -20.65 -22.3 -20.7 -19.6 -21.85 -18.15 -23.2 -16.5 -23.35 -15.4 -23.55 -13.9 -21.4 -12.95 -19.2 -11.95 -18.6 -14.55 -18.4 -15.5 -18.45 -17.3 L-18.35 -20.1 Q-18.05 -21.65 -16.8 -23.4 -15.5 -25.25 -14.05 -25.75 -13.35 -25.95 -9.15 -25.8 -6.0 -25.7 -4.85 -27.35 -5.3 -26.05 -7.5 -24.9 -8.7 -24.3 -11.35 -23.45 -13.15 -22.85 -14.1 -20.7 -14.9 -18.95 -14.25 -17.35 -13.4 -15.45 -10.8 -16.35 -9.35 -16.8 -8.7 -18.35 -7.95 -20.2 -8.55 -23.1 -6.45 -18.9 -8.2 -15.15 -8.7 -14.05 -10.8 -12.7 -12.85 -11.35 -13.2 -10.5 -13.55 -9.85 -13.45 -9.05 -13.3 -8.15 -12.55 -7.95 -10.6 -7.45 -9.3 -8.85 -8.1 -10.15 -7.7 -12.8 -7.4 -9.95 -9.05 -7.85 -10.85 -5.6 -10.85 -4.45 -10.85 -2.6 -9.75 -1.5 -8.6 -0.2 -7.05 -1.1 -6.25 -1.55 -6.15 -4.5 -6.05 -7.75 -5.2 -8.75 -4.3 -9.85 -1.95 -9.3 0.75 -8.65 1.75 -5.6 0.8 -7.4 -1.45 -7.35 -3.8 -7.25 -4.0 -4.65 -4.15 -2.1 -1.05 -1.15 2.25 -0.15 3.9 -3.5 4.75 -5.3 4.0 -7.25 L2.35 -10.15 -0.65 -14.5 Q-2.2 -16.65 -2.55 -17.75 -3.55 -20.8 -1.95 -23.8 -0.3 -26.8 2.45 -26.9 1.3 -26.4 0.9 -25.6 0.6 -25.0 0.6 -23.95 0.65 -22.25 2.55 -22.15 4.35 -22.05 4.55 -23.75 4.65 -24.55 4.25 -25.45 L3.5 -26.85 Q2.85 -28.25 3.7 -29.45 5.7 -31.9 12.65 -30.35 10.5 -30.65 9.35 -29.6 8.25 -28.6 8.45 -26.9 8.5 -25.9 9.8 -25.25 11.3 -24.55 12.9 -26.35 13.8 -27.35 13.8 -29.1 L13.65 -31.95 Q13.7 -34.35 16.25 -34.6 18.4 -34.8 20.5 -33.7 18.2 -34.35 17.05 -33.1 15.95 -31.85 17.35 -30.95 18.45 -30.2 20.2 -31.2 22.1 -32.2 23.65 -34.75 22.9 -32.05 20.65 -29.75 18.3 -27.3 15.05 -26.0 14.3 -25.7 14.3 -24.7 14.35 -23.8 14.9 -23.5 L16.95 -23.3 Q17.95 -23.7 18.5 -25.1 18.65 -24.1 16.5 -21.4 14.8 -19.2 16.65 -17.6 18.75 -15.8 19.65 -17.8 20.4 -19.55 19.9 -21.05 19.65 -21.75 19.95 -22.25 20.2 -22.7 20.75 -22.75 23.25 -23.05 24.45 -23.75 26.15 -24.7 27.2 -27.1 26.95 -25.3 26.05 -23.8 L23.45 -20.6 Q23.25 -18.4 24.5 -17.6 25.75 -16.8 27.6 -18.5 28.85 -19.65 28.75 -22.7 28.7 -25.95 28.95 -26.3 29.4 -26.85 35.55 -30.95 39.75 -33.75 39.5 -37.4 40.65 -33.15 37.3 -29.6" fill="#000000" fill-rule="evenodd" stroke="none"/>
  </g>
</svg>
