<?xml version="1.0" encoding="UTF-8" standalone="no"?>
<svg xmlns:xlink="http://www.w3.org/1999/xlink" height="100.0px" width="27.8px" xmlns="http://www.w3.org/2000/svg">
  <g transform="matrix(1.0, 0.0, 0.0, 1.0, 13.9, 50.0)">
    <path d="M10.0 -46.35 Q12.3 -42.55 9.85 -37.9 8.65 -35.6 6.95 -34.05 L7.0 -33.25 6.8 -31.35 Q6.25 -28.5 4.0 -27.55 3.3 -27.25 3.35 -26.55 3.45 -25.95 3.9 -25.6 4.15 -25.45 5.95 -24.9 7.85 -24.0 8.9 -21.95 10.0 -19.8 11.4 -8.6 12.8 3.0 12.45 8.45 13.45 9.9 13.25 11.25 13.1 12.6 11.95 13.1 L10.55 12.95 10.25 12.35 11.2 11.95 Q12.05 11.4 11.85 10.65 L11.15 8.9 10.75 8.05 10.45 1.8 Q10.05 -5.2 9.5 -9.0 8.95 -12.85 7.5 -16.8 L6.1 -20.0 5.8 -14.9 Q5.45 -9.4 5.0 -7.15 4.55 -4.9 5.1 -0.55 L6.6 9.2 Q7.25 14.0 7.65 29.35 L7.95 43.75 10.85 45.65 Q13.75 47.8 13.9 48.85 14.05 50.0 12.05 50.0 L7.7 49.25 Q5.75 48.75 5.0 48.05 L4.65 47.4 4.5 24.45 Q4.1 19.7 3.25 14.95 1.6 5.55 -0.35 5.75 -2.35 6.0 -3.8 15.45 -4.55 20.15 -4.9 24.8 L-5.4 46.8 -6.55 47.95 Q-8.15 49.2 -10.4 49.75 -13.0 50.35 -13.4 49.15 -13.8 47.9 -11.75 46.05 L-8.95 43.5 -8.2 42.75 -8.15 28.55 Q-8.1 13.45 -7.7 8.7 -7.4 5.2 -5.55 -0.35 -4.05 -4.85 -4.5 -7.4 L-6.15 -15.8 -7.1 -20.5 -7.95 -17.2 Q-8.8 -12.85 -9.05 -7.9 -9.3 -2.95 -10.25 3.7 L-11.2 9.35 -11.75 9.65 Q-12.3 10.1 -12.4 10.95 -12.45 11.7 -11.75 11.9 -10.75 12.15 -10.55 12.4 -10.05 13.0 -10.8 13.5 -11.55 14.0 -12.4 13.5 -13.45 12.85 -13.8 11.8 -14.15 10.55 -13.25 8.85 -12.4 7.3 -11.85 1.6 L-11.1 -7.9 Q-10.8 -14.1 -10.35 -17.3 -9.65 -22.95 -7.7 -24.75 -7.1 -25.55 -5.55 -25.7 L-4.15 -25.75 Q-4.0 -26.1 -4.0 -26.5 -4.0 -27.35 -4.75 -27.55 -5.95 -27.9 -7.1 -29.85 -8.45 -32.15 -8.2 -34.75 -9.65 -36.3 -10.55 -38.55 -12.35 -43.0 -9.55 -46.5 -6.7 -50.0 -3.25 -49.9 -1.55 -49.85 -0.35 -49.05 L0.75 -49.5 3.45 -50.0 Q7.7 -50.2 10.0 -46.35 M-4.15 -34.05 Q-4.65 -33.5 -4.65 -32.85 -4.65 -32.1 -4.15 -31.6 -3.65 -31.1 -2.95 -31.1 -2.25 -31.1 -1.75 -31.6 -1.2 -32.1 -1.2 -32.85 -1.2 -33.5 -1.75 -34.05 -2.25 -34.55 -2.95 -34.55 -3.65 -34.55 -4.15 -34.05 M3.75 -33.9 Q3.3 -34.4 2.55 -34.4 1.85 -34.4 1.35 -33.9 0.85 -33.4 0.85 -32.7 0.85 -32.0 1.35 -31.5 1.85 -31.0 2.55 -31.0 3.25 -31.0 3.75 -31.5 4.25 -32.0 4.25 -32.7 4.25 -33.4 3.75 -33.9" fill="#000000" fill-rule="evenodd" stroke="none"/>
  </g>
</svg>
