<?xml version="1.0" encoding="UTF-8" standalone="no"?>
<svg xmlns:xlink="http://www.w3.org/1999/xlink" height="100.0px" width="32.9px" xmlns="http://www.w3.org/2000/svg">
  <g transform="matrix(1.0, 0.0, 0.0, 1.0, 16.45, 50.0)">
    <path d="M-12.6 -42.35 Q-10.4 -46.25 -6.65 -48.35 -4.8 -49.4 -3.35 -49.65 7.65 -51.55 13.8 -43.05 17.2 -38.35 16.25 -31.7 15.75 -28.35 14.55 -25.8 14.05 -25.15 13.65 -24.05 13.0 -22.1 13.4 -20.65 13.95 -17.7 13.45 -15.8 13.25 -14.8 12.9 -14.45 13.35 -16.0 12.45 -18.25 11.5 -20.45 10.55 -19.45 9.9 -18.7 10.95 -15.8 12.1 -12.65 11.8 -11.55 11.1 -9.3 12.25 -7.7 11.45 -8.1 10.95 -9.2 10.55 -10.25 10.85 -11.0 11.05 -11.8 10.75 -12.75 10.5 -13.75 9.9 -13.7 9.15 -13.65 9.2 -12.65 9.3 -11.35 10.55 -9.3 11.8 -7.4 10.65 -5.4 10.1 -4.3 9.3 -3.7 9.6 -4.5 9.4 -5.35 9.2 -6.25 8.4 -6.05 7.65 -5.85 7.7 -4.65 L7.95 -3.45 Q8.95 -1.0 8.05 1.55 7.3 3.75 8.2 4.75 9.95 6.15 10.3 7.15 10.5 7.7 10.3 8.0 10.0 7.3 9.7 7.45 9.3 7.5 9.6 9.25 10.15 11.9 9.4 13.05 9.15 10.35 7.85 10.7 7.0 10.9 6.9 12.45 L6.9 17.6 Q7.05 22.45 6.1 23.75 5.15 21.45 3.95 24.0 2.8 26.55 3.4 29.15 4.15 32.35 3.65 32.6 3.8 31.55 3.2 30.9 2.5 30.3 2.45 31.55 2.4 33.3 2.7 35.9 L2.0 35.2 1.5 35.2 Q0.65 39.65 2.25 45.3 3.05 48.1 4.05 50.0 -1.4 44.35 -4.45 34.6 -6.4 26.0 -6.75 25.6 -7.15 25.15 -7.2 25.8 L-7.25 26.65 Q-7.8 25.95 -8.3 23.0 L-8.65 18.5 Q-8.4 12.8 -9.7 13.2 -10.3 13.4 -10.45 14.45 L-10.45 15.55 Q-10.8 15.35 -10.9 14.2 -11.15 11.9 -10.0 7.25 -8.7 2.35 -8.7 0.75 -8.7 0.1 -9.3 -0.8 -9.55 -1.25 -10.05 -1.05 L-10.4 -0.8 Q-10.0 3.2 -12.35 5.2 L-14.85 6.45 Q-12.95 5.35 -12.7 3.6 L-11.4 -3.3 Q-11.85 -3.35 -12.4 -2.4 L-12.8 -1.55 Q-13.35 -2.7 -11.25 -6.25 -8.95 -10.2 -8.95 -10.95 -9.05 -12.15 -9.55 -11.6 L-10.4 -10.45 Q-10.85 -9.05 -11.45 -8.55 L-12.4 -6.95 -12.9 -5.75 Q-13.15 -6.4 -10.1 -12.75 -8.55 -16.4 -9.85 -17.3 -10.65 -17.95 -12.05 -17.3 L-13.3 -16.05 Q-13.95 -15.05 -14.65 -14.85 L-15.9 -13.75 -16.25 -12.95 -16.25 -13.75 Q-16.05 -14.65 -15.05 -15.2 -13.5 -16.05 -12.95 -17.15 -11.25 -19.5 -11.95 -22.65 -12.6 -25.75 -14.35 -24.1 -15.65 -22.85 -15.8 -20.0 L-15.6 -17.4 Q-16.8 -19.9 -16.35 -21.95 -15.4 -24.65 -15.0 -27.1 -15.25 -31.7 -15.1 -34.1 -14.9 -38.35 -12.6 -42.35 M0.0 -46.4 Q-5.05 -46.4 -8.55 -42.85 -12.15 -39.25 -12.15 -34.25 -12.15 -29.25 -8.55 -25.65 -5.05 -22.1 0.0 -22.1 5.0 -22.1 8.6 -25.65 12.1 -29.25 12.1 -34.25 12.1 -39.25 8.6 -42.85 5.0 -46.4 0.0 -46.4" fill="#000000" fill-rule="evenodd" stroke="none"/>
  </g>
</svg>
