<?xml version="1.0" encoding="UTF-8" standalone="no"?>
<svg xmlns:xlink="http://www.w3.org/1999/xlink" height="100.0px" width="46.3px" xmlns="http://www.w3.org/2000/svg">
  <g transform="matrix(1.0, 0.0, 0.0, 1.0, 23.15, 50.0)">
    <path d="M7.4 -36.85 Q8.5 -33.15 12.05 -28.95 16.9 -23.2 16.4 -16.3 16.1 -11.9 12.7 -3.45 10.4 2.15 11.3 7.35 12.05 11.8 14.35 13.5 16.55 15.2 17.55 12.35 18.65 9.05 16.65 1.55 22.75 8.9 19.65 14.85 L16.6 19.6 Q14.75 22.45 14.65 24.85 14.4 28.8 15.35 35.8 16.05 41.15 15.1 43.15 13.55 46.45 10.9 47.9 9.05 48.95 5.35 49.5 -1.5 50.65 -6.9 49.2 -13.1 47.6 -14.1 43.15 -14.8 40.2 -13.75 33.35 -13.05 29.05 -17.1 24.85 -11.45 26.95 -10.25 31.95 -10.05 32.65 -9.6 35.95 -9.3 38.3 -8.65 39.5 -7.2 42.1 -4.75 41.2 -2.2 40.4 -2.35 37.4 -2.5 33.3 -9.3 26.7 -15.95 20.25 -15.8 14.95 -15.75 12.8 -14.75 9.15 L-13.05 3.05 Q-11.4 -4.25 -15.5 -7.55 -10.65 -5.55 -11.05 2.4 L-11.75 9.15 Q-12.2 13.05 -11.75 15.15 -11.2 18.15 -9.5 19.35 L-6.45 19.45 Q-2.65 16.8 -6.15 7.05 -9.1 -1.9 -8.8 -7.1 -8.35 -13.7 -2.9 -19.65 -6.3 -14.7 -6.0 -7.1 -5.55 2.3 2.85 3.6 -1.25 7.75 0.4 19.2 1.65 27.45 5.7 27.0 9.7 26.55 8.75 18.2 L7.8 9.45 Q7.1 4.2 5.9 1.0 2.9 -5.75 1.7 -9.05 -0.35 -14.65 0.2 -19.3 1.9 -25.25 1.9 -27.8 1.85 -32.0 -4.75 -34.45 2.35 -32.95 3.7 -28.75 4.15 -27.25 3.55 -19.95 3.25 -15.65 4.75 -13.4 6.1 -11.45 8.1 -11.85 10.15 -12.2 11.4 -14.65 12.8 -17.35 12.3 -21.2 12.0 -23.55 10.2 -26.8 8.0 -30.35 7.1 -32.2 3.95 -38.5 8.6 -43.85 6.3 -41.05 7.4 -36.85" fill="#000000" fill-rule="evenodd" stroke="none"/>
    <path d="M17.8 -25.15 Q19.1 -21.3 20.8 -23.45 21.8 -16.7 16.35 -10.5 18.65 -14.65 17.6 -20.25 16.35 -27.0 16.9 -29.4 L17.8 -25.15" fill="#000000" fill-rule="evenodd" stroke="none"/>
    <path d="M-10.65 -10.05 Q-12.45 -13.6 -12.85 -15.0 -13.65 -17.55 -12.6 -19.0 -10.0 -17.65 -7.45 -20.1 -5.0 -22.5 -5.95 -24.6 -4.15 -21.75 -7.45 -17.55 -11.2 -12.85 -10.65 -10.05" fill="#000000" fill-rule="evenodd" stroke="none"/>
    <path d="M-16.85 16.1 Q-22.55 8.9 -20.4 2.35 -18.6 4.9 -16.25 2.25 -15.15 0.85 -14.3 -1.0 -13.9 1.65 -16.65 7.0 -18.95 11.55 -16.85 16.1" fill="#000000" fill-rule="evenodd" stroke="none"/>
    <path d="M19.6 25.5 Q17.0 29.35 17.25 33.2 15.3 26.75 18.3 22.05 18.8 24.2 21.05 21.8 L23.15 18.9 Q22.75 20.9 19.6 25.5" fill="#000000" fill-rule="evenodd" stroke="none"/>
    <path d="M13.4 9.2 Q11.35 2.65 14.4 -2.0 14.95 0.2 17.2 -2.25 L19.25 -5.2 Q18.9 -3.15 15.7 1.45 13.1 5.35 13.4 9.2" fill="#000000" fill-rule="evenodd" stroke="none"/>
    <path d="M1.4 2.25 Q-3.85 -2.0 -3.85 -7.65 -2.2 -6.15 -1.75 -9.35 L-1.55 -13.0 Q-0.8 -11.1 -0.9 -5.5 -0.95 -0.8 1.4 2.25" fill="#000000" fill-rule="evenodd" stroke="none"/>
    <path d="M6.4 -14.2 Q4.9 -17.35 4.9 -20.25 7.0 -18.3 7.85 -22.5 L8.35 -27.05 Q9.5 -24.2 9.85 -21.45 10.1 -19.15 9.75 -15.95 9.65 -14.0 8.45 -13.25 7.15 -12.45 6.4 -14.2" fill="#000000" fill-rule="evenodd" stroke="none"/>
    <path d="M3.5 23.9 Q2.05 20.65 2.05 17.8 4.15 19.8 5.0 15.6 L5.5 11.05 Q6.65 13.9 6.9 16.7 7.15 18.95 6.9 22.15 6.7 24.1 5.5 24.85 4.25 25.6 3.5 23.9" fill="#000000" fill-rule="evenodd" stroke="none"/>
    <path d="M-9.85 16.1 Q-10.3 10.8 -8.65 6.85 L-8.2 10.65 Q-7.45 14.15 -5.75 12.5 -5.75 14.85 -7.0 17.55 -7.65 18.95 -8.75 18.3 -9.75 17.7 -9.85 16.1" fill="#000000" fill-rule="evenodd" stroke="none"/>
    <path d="M-6.05 39.95 Q-7.7 38.3 -8.15 36.5 -6.3 37.35 -6.3 34.55 L-6.7 31.65 Q-4.55 34.15 -3.9 38.15 -3.75 39.35 -4.5 40.05 -5.25 40.8 -6.05 39.95" fill="#000000" fill-rule="evenodd" stroke="none"/>
    <path d="M9.7 -35.6 Q7.65 -42.05 10.8 -46.8 11.3 -44.6 13.5 -47.05 L15.6 -50.0 Q15.2 -47.95 12.05 -43.35 9.45 -39.45 9.7 -35.6" fill="#000000" fill-rule="evenodd" stroke="none"/>
    <path d="M-21.1 27.0 Q-18.85 29.4 -18.35 27.2 -15.3 31.9 -17.35 38.4 -17.05 34.55 -19.7 30.7 -22.8 26.1 -23.15 24.1 L-21.1 27.0" fill="#000000" fill-rule="evenodd" stroke="none"/>
  </g>
</svg>
