<?xml version="1.0" encoding="UTF-8" standalone="no"?>
<svg xmlns:xlink="http://www.w3.org/1999/xlink" height="100.0px" width="33.2px" xmlns="http://www.w3.org/2000/svg">
  <g transform="matrix(1.0, 0.0, 0.0, 1.0, 16.6, 50.0)">
    <path d="M-8.05 6.05 Q-8.2 7.75 -8.9 10.65 L-10.1 15.6 Q-11.35 21.75 -9.9 25.05 -12.25 22.25 -11.45 17.25 L-9.4 9.4 -12.3 17.85 Q-12.1 15.2 -11.35 13.7 -11.95 14.15 -12.45 15.75 L-13.15 18.15 Q-14.15 21.1 -13.3 24.0 -12.5 26.45 -11.5 28.0 -10.3 29.95 -8.3 31.3 -6.75 32.5 -5.5 34.75 L-4.7 35.45 Q-4.2 35.85 -4.2 36.2 L-3.8 36.7 Q-3.5 37.0 -3.65 37.3 L-3.65 37.9 -3.6 37.95 -3.55 37.95 -3.55 38.1 -3.45 38.1 -3.65 38.4 Q-3.15 38.3 -2.95 37.8 L-3.1 38.4 -3.55 39.05 -2.95 38.75 -3.05 39.1 -1.65 38.25 -2.35 38.9 -2.65 39.15 -2.95 39.45 Q-2.65 39.45 -2.45 39.25 L-2.75 39.75 -2.05 39.35 Q-2.15 39.85 -2.75 40.75 -1.45 41.1 -0.45 39.15 0.6 37.2 -0.05 35.45 -0.95 33.0 -3.65 30.85 L-5.4 29.5 Q-8.35 27.0 -9.7 23.75 -10.5 21.1 -9.5 18.05 L-7.7 11.9 Q-7.35 9.35 -7.65 6.15 -8.15 1.4 -8.0 4.5 L-8.05 6.05 M-0.4 -18.65 Q0.6 -16.5 1.05 -13.75 2.65 -5.0 -1.45 6.65 L-3.65 11.55 Q-4.8 14.5 -4.85 17.05 L-5.3 20.2 -4.6 23.65 Q-4.15 25.6 -3.4 26.85 0.3 31.4 2.25 30.4 L1.65 29.75 1.15 29.0 1.95 29.2 1.5 28.7 2.1 28.75 1.25 28.25 Q0.35 28.05 0.3 27.85 L2.15 28.15 1.9 27.8 2.65 27.95 1.35 26.6 1.9 26.9 2.5 27.05 2.25 26.7 2.35 26.65 2.25 26.45 2.35 26.35 2.25 26.4 2.25 26.35 1.55 25.6 1.05 24.75 0.8 23.85 Q0.5 23.5 0.5 22.65 0.5 21.75 0.3 21.4 -0.5 20.4 -0.7 19.1 -0.95 17.75 -0.6 16.45 0.45 11.85 3.05 7.3 5.1 3.7 5.4 1.3 L5.9 -1.85 Q6.25 -4.0 5.75 -4.85 5.85 -3.65 5.45 -2.1 L4.55 0.55 Q5.2 -3.1 4.6 -14.1 4.8 -8.35 3.45 -2.4 1.85 4.75 -1.4 8.4 1.6 2.9 2.15 -5.95 2.75 -16.05 -1.3 -20.2 L-0.4 -18.65 M-3.8 -49.3 Q2.05 -51.25 5.75 -47.65 3.8 -49.1 0.8 -48.95 -2.1 -48.8 -4.95 -47.25 -11.75 -43.5 -11.95 -36.25 -12.1 -30.1 -8.55 -24.55 L-5.7 -20.5 Q-4.05 -18.2 -3.45 -16.65 -3.75 -19.7 -7.15 -25.0 -10.5 -30.1 -10.55 -32.2 -11.05 -36.1 -9.65 -38.8 -7.95 -42.0 -3.65 -42.85 -7.5 -42.0 -9.1 -38.25 -10.7 -34.45 -8.65 -31.9 -8.9 -33.1 -8.7 -34.35 L-8.25 -36.1 Q-8.5 -34.25 -7.85 -32.25 -7.25 -30.5 -6.3 -29.55 -5.9 -29.05 -4.2 -28.45 -2.7 -27.9 -1.4 -26.0 L0.0 -23.65 0.1 -23.65 Q3.25 -21.55 5.4 -17.45 7.45 -13.5 7.95 -9.0 L9.55 -6.7 Q9.75 -9.9 8.7 -13.35 7.7 -16.55 5.85 -19.25 9.1 -14.8 10.65 -9.1 10.55 -13.15 9.1 -15.4 10.1 -14.75 10.9 -12.35 L11.9 -8.65 Q12.35 -6.9 12.15 -4.65 12.95 -2.3 12.8 0.55 14.3 -3.1 14.3 -6.25 L13.65 -7.6 14.25 -6.9 Q14.0 -9.9 12.15 -11.75 L12.9 -11.05 Q14.3 -9.15 14.5 -6.45 L14.7 -5.85 15.25 -2.8 Q15.75 -5.8 15.0 -8.45 15.6 -6.65 15.55 -4.2 L15.15 0.25 Q16.05 -2.25 16.0 -3.85 16.55 -2.8 15.7 0.8 15.15 3.1 13.9 5.15 12.45 9.0 9.1 14.3 L3.8 22.55 Q9.15 17.25 12.2 12.15 15.85 6.05 16.6 -0.45 16.45 2.75 15.15 6.8 L12.65 13.7 14.5 10.75 Q15.35 9.1 15.65 7.55 15.95 8.75 14.95 11.25 L13.4 14.8 Q12.0 18.3 9.25 21.7 7.4 24.1 5.85 27.1 4.8 29.3 3.4 32.85 2.8 34.35 3.0 36.15 3.2 37.65 3.9 39.1 L4.0 40.6 Q4.1 41.45 4.5 41.9 L4.85 42.9 4.9 42.95 4.9 43.0 Q5.0 43.65 5.4 43.9 L6.25 44.7 6.25 44.8 6.15 44.85 6.35 45.05 6.25 45.15 Q6.65 45.2 6.7 45.4 L5.25 45.25 6.05 45.85 7.2 46.35 6.2 46.5 6.65 46.8 4.25 47.1 5.6 47.25 6.2 47.3 6.8 47.45 6.0 47.65 6.45 47.8 6.8 48.05 5.65 48.15 Q5.95 48.45 6.6 48.75 L7.6 49.3 3.5 49.4 Q1.0 48.3 -0.3 46.25 L-1.65 43.65 -4.1 42.2 Q-5.7 41.1 -6.8 39.2 -7.85 37.45 -8.25 35.4 -9.9 34.65 -13.05 31.75 -14.25 30.25 -15.2 27.75 L-16.55 23.4 -16.55 19.2 Q-16.85 15.9 -15.85 11.95 L-13.8 5.2 Q-10.3 -2.85 -9.8 -9.5 -9.2 -18.65 -14.8 -22.7 L-14.45 -22.5 Q-4.7 -14.7 -13.4 7.5 -9.4 1.65 -8.15 -4.5 -6.75 -11.05 -8.7 -16.85 -6.5 -10.8 -6.95 -3.7 L-6.2 -7.3 Q-5.95 -9.35 -6.25 -10.9 -5.45 -9.9 -5.55 -7.05 L-5.8 -2.9 Q-5.7 -0.05 -7.4 4.2 L-3.9 0.8 -1.2 -1.8 -0.55 -2.5 -0.4 -2.85 Q-0.7 -7.05 -5.85 -17.95 -10.25 -23.2 -11.95 -27.1 -14.75 -33.7 -12.5 -40.15 -10.1 -47.15 -3.8 -49.3" fill="#000000" fill-rule="evenodd" stroke="none"/>
  </g>
</svg>
