<?xml version="1.0" encoding="UTF-8" standalone="no"?>
<svg xmlns:xlink="http://www.w3.org/1999/xlink" height="100.0px" width="100.3px" xmlns="http://www.w3.org/2000/svg">
  <g transform="matrix(1.0, 0.0, 0.0, 1.0, 50.15, 50.0)">
    <path d="M-7.85 38.5 Q-7.2 39.6 -3.8 40.65 -4.3 42.0 -6.45 41.75 L-7.95 44.8 Q-8.6 43.95 -8.6 41.65 -8.6 39.25 -7.85 38.5 M4.55 22.75 L4.05 22.9 Q4.05 23.25 4.55 23.4 L2.15 23.75 Q3.05 24.3 4.85 24.05 4.55 23.65 4.55 22.75 M3.95 13.65 Q2.3 13.4 2.15 12.1 L2.95 12.85 Q3.3 13.5 3.95 13.65 M10.4 19.1 L11.05 19.45 10.55 19.85 11.05 19.95 10.65 20.2 10.4 20.6 11.05 20.75 Q10.4 21.1 10.4 21.25 L10.9 21.35 10.55 21.5 Q10.25 21.6 10.25 21.85 L10.8 22.0 10.4 22.25 Q10.4 22.65 11.05 22.65 10.15 23.75 9.5 23.5 10.65 24.65 10.9 23.25 11.65 24.05 13.45 22.65 L12.45 21.6 Q13.45 22.4 12.3 19.85 12.3 20.5 11.9 19.7 L12.15 19.6 11.65 19.35 12.05 19.35 Q12.05 18.95 11.4 18.95 L10.4 19.1 M11.4 16.7 Q11.3 16.05 11.65 14.75 L12.05 12.75 Q12.7 14.4 11.4 16.7 M14.35 17.3 Q13.05 16.4 12.7 16.95 L13.45 17.2 13.2 17.3 Q13.3 17.7 13.7 17.8 L14.05 18.45 13.8 18.7 14.35 19.1 13.95 19.2 14.7 19.7 14.2 19.85 14.85 20.5 14.6 20.6 Q14.85 21.1 15.35 21.1 L14.85 21.25 Q14.95 21.6 15.45 21.6 L13.8 22.65 Q15.35 23.0 16.85 20.85 L16.25 20.35 15.85 19.7 15.85 19.85 15.6 18.45 Q15.6 18.2 14.35 17.3 M31.3 33.8 L34.95 32.65 Q36.5 32.5 36.85 32.9 L38.0 34.4 Q34.85 34.4 33.45 35.55 36.5 35.2 39.8 36.2 42.05 38.35 40.8 40.65 39.65 42.9 36.5 42.9 L37.5 39.35 Q34.35 44.3 28.4 46.2 23.3 48.0 16.85 47.1 6.45 45.85 1.3 42.0 4.45 42.55 8.1 41.0 L3.2 39.25 Q0.15 38.1 -1.25 36.7 L4.05 37.1 Q7.25 37.45 9.25 37.1 7.0 36.55 4.45 35.2 1.65 33.8 0.4 32.15 8.1 34.4 21.9 32.25 25.1 31.75 30.55 29.35 L34.35 28.95 Q37.5 28.95 37.25 30.5 33.55 30.0 31.4 31.1 27.0 33.4 25.45 33.3 28.0 34.55 31.3 33.8 M37.25 26.8 Q37.75 26.7 37.35 27.95 37.1 29.1 36.75 29.2 L36.85 27.95 Q37.0 26.8 37.25 26.8 M39.0 32.0 Q38.15 28.85 40.55 26.45 38.75 32.75 42.7 36.95 39.9 34.8 39.0 32.0 M21.15 40.9 Q23.8 40.9 21.05 39.25 L21.8 40.4 Q21.15 40.75 20.65 40.4 20.0 40.0 20.15 39.35 18.5 40.9 21.15 40.9 M17.85 17.45 Q18.0 17.7 18.65 17.95 L18.4 18.3 18.75 18.7 Q18.75 19.2 18.9 19.45 L18.4 19.95 18.9 20.1 17.85 20.5 Q18.65 21.0 19.5 20.1 20.4 19.35 19.75 18.85 18.4 17.2 18.1 15.15 17.6 14.5 16.6 14.5 L17.5 15.15 17.35 15.55 18.0 15.9 17.5 16.05 18.25 16.55 17.6 16.8 17.85 17.2 18.4 17.3 17.85 17.45 M33.05 20.35 L33.2 21.85 32.55 19.6 Q31.95 18.7 30.4 19.6 L30.9 19.45 29.8 20.1 30.15 20.1 Q29.25 20.85 29.65 21.85 29.25 21.5 29.25 20.35 29.25 19.6 28.0 19.7 L26.5 19.95 Q25.45 20.35 27.1 20.2 L26.1 21.25 26.75 21.0 Q26.0 21.5 26.6 22.5 24.1 20.5 22.95 24.3 23.2 22.4 23.7 21.6 22.05 21.1 20.4 19.7 20.65 20.2 18.4 21.1 L18.65 21.75 17.35 20.85 15.6 22.65 17.5 23.9 Q18.5 24.3 19.0 23.0 L19.15 22.65 19.25 22.25 20.4 20.75 Q20.4 21.35 22.7 23.25 21.4 22.75 20.4 21.75 L20.15 23.25 20.0 21.85 Q18.9 22.9 18.65 25.3 18.25 23.65 16.85 24.3 15.7 24.65 15.1 25.95 15.2 24.8 13.7 25.55 12.45 26.2 11.8 26.95 L12.05 26.45 Q11.15 26.3 10.15 27.3 10.55 26.2 9.15 26.55 8.0 26.8 7.25 27.3 L7.6 26.8 Q7.1 26.55 5.7 27.2 6.1 26.55 4.55 26.7 2.95 26.8 2.55 27.7 3.2 27.3 4.45 27.05 L4.55 27.2 4.95 27.2 4.95 27.6 5.35 27.6 Q5.2 28.1 5.35 28.45 5.7 27.6 6.6 27.45 6.85 28.1 7.25 27.7 L7.0 28.1 Q7.35 27.6 8.65 27.05 L9.15 27.2 9.0 27.85 9.65 27.6 Q9.0 28.2 9.25 28.6 L9.9 28.2 Q9.25 28.85 9.5 29.2 L10.15 28.6 10.25 27.6 Q10.15 28.2 10.4 29.2 10.4 28.7 10.65 28.45 L11.15 28.1 11.3 28.2 11.65 28.1 11.55 28.45 13.05 27.6 12.95 27.95 13.7 27.45 13.55 28.1 14.35 27.85 13.95 28.7 14.6 28.45 14.2 29.35 14.7 29.1 Q14.2 29.75 14.35 30.0 L15.35 30.0 Q15.2 30.0 15.1 27.45 15.2 28.2 15.6 28.7 15.6 27.2 17.1 26.95 L17.75 27.05 17.6 27.45 Q17.5 27.6 17.75 27.85 L18.1 27.6 18.0 28.45 18.5 28.2 18.25 29.1 18.65 28.95 18.5 29.75 Q19.4 29.6 19.15 27.2 19.25 27.7 19.65 28.2 20.0 26.45 20.3 26.05 20.3 27.05 20.4 26.95 L20.9 26.55 20.65 27.45 21.15 27.2 21.05 28.1 21.55 27.85 Q21.3 28.45 21.4 28.6 L21.9 28.35 Q21.65 28.95 21.8 29.1 L22.45 28.85 22.2 29.35 Q22.95 29.2 22.95 27.85 L22.95 25.8 Q22.95 27.3 23.45 28.2 22.8 25.8 24.95 25.8 L24.7 26.7 25.2 26.45 24.95 27.2 25.35 27.05 Q25.1 27.7 25.2 27.95 L25.7 27.6 25.45 28.45 26.1 28.2 25.7 28.95 Q26.85 28.6 27.25 26.7 27.5 25.05 27.1 23.65 27.5 24.15 27.5 26.2 28.0 24.3 29.8 24.65 L29.65 25.4 Q30.05 24.4 29.8 22.65 L30.15 24.15 Q30.4 24.9 31.05 24.55 L31.05 25.05 31.7 24.9 31.4 25.65 31.95 25.4 31.7 25.8 Q32.95 25.65 33.2 24.9 33.45 24.3 33.2 22.75 L33.55 24.3 Q33.7 25.15 34.35 24.8 L34.6 25.15 35.1 25.05 34.95 25.4 Q36.5 25.65 37.0 24.8 37.25 24.15 37.1 22.5 L37.5 24.8 38.0 24.65 37.75 24.9 39.25 25.3 Q39.55 20.85 38.25 19.35 L37.35 19.95 36.75 20.75 37.65 19.95 37.1 20.85 Q36.75 21.1 36.85 21.6 35.35 17.7 33.3 19.2 L33.95 19.2 Q33.2 19.35 33.05 20.35 M17.6 -4.5 Q16.5 -1.95 19.15 0.7 17.5 0.05 16.85 -1.6 16.25 -3.35 17.6 -4.5 M39.15 1.2 Q38.65 0.85 36.75 0.6 38.25 -0.3 39.15 1.2 M29.65 7.05 L28.75 5.9 Q29.25 6.05 30.3 6.9 L31.3 8.05 30.65 7.7 29.65 7.05 M23.7 -4.6 Q23.55 -3.35 23.95 -2.2 25.1 -1.2 24.45 -6.65 23.7 -6.15 23.7 -4.6 M24.95 0.2 L27.0 0.2 27.6 2.25 Q27.6 3.6 28.5 4.25 27.0 3.5 26.6 1.7 26.5 1.2 26.0 0.85 L24.95 0.2 M18.25 -18.3 Q18.1 -17.8 18.4 -17.55 16.25 -19.3 16.25 -20.6 17.1 -19.05 18.4 -19.2 L18.25 -18.3 M33.2 -11.7 Q33.05 -10.95 33.55 -9.7 L32.3 -11.1 Q32.3 -10.2 33.2 -9.55 L31.7 -10.45 Q32.55 -9.2 34.2 -9.2 33.3 -10.95 33.2 -11.7 M34.85 -10.55 L33.85 -11.85 Q34.6 -9.55 35.45 -8.55 L34.85 -10.55 M2.95 -2.2 Q3.05 -3.85 2.15 -4.1 L-0.1 -4.0 -2.0 -4.0 Q-3.3 -3.85 -3.4 -3.35 -3.9 -0.7 -1.4 -0.95 -0.1 -1.05 2.95 -2.2 M7.85 -31.75 Q10.15 -31.0 12.15 -28.85 6.45 -32.1 2.8 -31.35 5.1 -32.75 7.85 -31.75 M-4.15 -26.4 Q-3.0 -28.05 -2.15 -28.55 0.15 -29.7 4.85 -28.95 L10.8 -27.2 Q13.8 -26.65 16.35 -29.2 15.1 -25.8 11.55 -25.15 8.75 -26.3 3.7 -26.8 L0.65 -26.55 Q-1.65 -25.15 -1.9 -25.15 -1.1 -25.9 -0.75 -26.9 -2.15 -26.4 -6.05 -24.15 -5.3 -24.65 -4.15 -26.4 M16.25 -40.35 Q15.7 -41.35 14.45 -42.4 14.35 -41.35 14.85 -41.1 15.2 -40.85 16.25 -40.35 M23.3 -22.1 Q22.95 -22.1 22.05 -21.1 L20.8 -19.7 22.55 -20.95 24.6 -21.2 Q25.35 -20.7 26.1 -18.45 L28.0 -16.55 Q28.75 -15.5 29.0 -14.0 29.8 -9.95 29.8 -6.0 L29.4 -2.6 Q26.35 -2.2 25.6 -1.6 29.0 -2.2 29.0 -1.6 L29.0 0.95 Q28.75 3.85 29.5 5.15 28.9 4.25 28.4 2.85 27.75 1.1 27.9 -0.45 L24.2 -0.7 24.45 -0.3 23.3 -0.45 23.95 0.35 22.55 -0.3 23.45 0.95 21.55 0.05 23.2 2.1 Q19.25 0.7 19.15 -3.85 20.0 -9.3 20.0 -11.7 L19.15 -15.65 Q18.5 -18.3 19.25 -19.3 21.8 -22.5 23.3 -22.1 M19.9 -30.75 Q20.15 -30.1 21.05 -29.2 L22.05 -27.55 Q22.2 -26.55 21.3 -25.9 L19.5 -24.75 21.05 -26.65 Q21.9 -27.8 20.65 -28.85 19.4 -29.6 19.9 -30.75 M-9.85 47.1 Q-13.3 46.1 -11.9 42.55 -11.4 45.45 -9.1 46.2 -6.95 46.95 -4.3 45.55 -2.4 44.55 -0.5 44.2 L-3.55 43.05 Q-0.35 42.8 4.3 44.55 10.25 46.85 11.9 47.1 L25.45 48.0 Q29.65 47.75 31.55 46.95 L33.7 45.55 Q34.95 44.3 35.75 44.05 L38.65 43.95 41.7 43.8 Q43.6 43.15 44.45 41.65 45.5 40.0 43.7 38.75 44.6 39.35 44.95 38.35 45.25 37.35 44.2 36.95 44.85 37.2 46.0 36.2 48.15 35.55 50.15 38.1 47.9 36.3 45.85 37.1 47.5 37.95 47.5 39.6 46.85 37.85 45.1 37.6 45.5 38.1 45.25 39.0 44.95 39.85 45.25 40.1 L46.0 41.4 Q46.35 42.8 45.25 43.8 43.85 45.05 40.15 45.3 L36.1 45.2 35.1 46.6 Q33.7 48.0 31.3 48.85 26.35 50.5 19.25 49.75 14.7 49.1 7.5 47.1 3.7 45.7 1.8 45.55 -1.0 45.3 -3.9 46.7 -6.8 48.1 -9.85 47.1 M-33.3 23.75 Q-33.65 24.4 -33.4 25.8 -33.95 24.65 -33.95 23.65 -33.8 22.25 -32.55 23.25 L-30.75 23.75 Q-32.3 24.9 -30.25 27.95 -31.9 26.3 -32.4 24.9 -32.55 25.8 -32.05 27.05 -33.4 24.9 -33.3 23.75 M-32.55 12.5 Q-32.55 11.6 -31.9 10.95 -30.65 9.95 -30.75 11.25 -30.9 12.5 -31.65 13.25 -33.8 15.3 -37.45 14.25 -34.95 14.9 -33.05 13.25 L-35.05 12.75 -32.55 12.5 M-26.35 16.4 L-25.3 16.05 Q-27.35 18.05 -24.3 20.75 L-19.35 24.4 Q-12.25 30.85 -11.9 41.0 -13.4 34.65 -15.05 31.75 -17.1 28.45 -20.1 25.4 -22.15 27.45 -24.3 26.3 -24.45 28.45 -25.2 30.1 -26.2 32.4 -27.7 30.5 -31.25 26.2 -30.0 24.4 -29.25 23.4 -27.35 24.15 -25.3 24.8 -24.7 23.9 L-25.45 22.9 Q-25.8 22.5 -26.45 22.25 L-25.7 23.75 -27.85 21.85 -29.1 21.75 -30.15 22.9 Q-29.5 20.2 -29.75 19.6 -31.0 19.7 -31.5 21.5 -31.75 17.7 -29.6 16.95 L-26.6 16.7 Q-33.15 15.05 -32.15 19.85 L-32.55 18.2 Q-34.8 20.6 -38.0 17.7 -36.2 19.35 -34.45 18.3 L-32.65 16.7 Q-31.65 15.4 -30.9 15.15 -29.5 14.75 -27.35 16.05 L-26.35 16.4 M-18.6 17.05 Q-19.25 17.3 -20.0 17.05 -20.9 16.8 -20.65 16.05 -20.1 16.8 -18.6 17.05 M-19.0 -5.0 L-17.2 -4.75 Q-16.85 -5.65 -17.1 -5.75 L-19.0 -5.0 M-9.85 -7.4 Q-12.15 -10.45 -11.5 -14.5 -10.75 -18.7 -6.95 -21.2 -3.65 -23.4 1.05 -23.9 -1.9 -22.75 -3.55 -21.75 -1.4 -22.6 0.9 -22.6 3.7 -22.5 5.2 -21.2 3.55 -22.35 0.0 -21.2 7.25 -22.0 9.25 -14.5 L9.15 -17.65 Q11.15 -14.5 10.0 -10.7 L11.65 -12.2 Q11.05 -10.55 9.9 -9.2 13.2 -11.6 13.2 -14.4 14.6 -12.35 12.3 -9.45 10.9 -7.3 8.1 -6.15 6.45 -5.4 2.95 -4.6 L3.45 -2.35 5.85 -3.35 Q5.6 -3.1 4.45 -2.7 3.45 -2.2 3.55 -1.7 3.8 0.6 4.3 1.6 L5.85 3.35 Q7.0 4.75 6.35 5.25 4.3 6.65 2.95 -1.85 0.5 -0.45 -1.9 0.35 -1.5 2.1 -1.5 3.75 -1.4 4.75 -1.75 6.65 -2.25 8.7 -2.9 9.2 -3.55 9.85 -4.15 9.05 -4.8 8.3 -4.55 7.55 -4.3 7.05 -3.15 6.3 -2.15 5.5 -2.0 4.75 -1.9 3.75 -2.75 0.6 L-6.7 1.1 Q-11.75 1.45 -12.15 -1.6 -11.4 -0.7 -10.0 -0.2 -11.5 -1.7 -11.75 -4.5 -9.35 -0.7 -4.15 -0.7 -4.4 -2.7 -3.55 -3.85 -7.6 -4.1 -9.85 -7.4 M-38.35 -10.55 Q-39.5 -9.2 -39.5 -7.8 L-39.1 -6.4 -39.0 -7.9 Q-39.1 -8.8 -38.75 -9.2 L-36.6 -11.35 Q-35.3 -12.35 -33.55 -12.6 L-30.15 -12.75 Q-27.35 -13.0 -24.7 -9.3 L-23.8 -7.3 Q-23.3 -6.0 -22.65 -5.5 -21.9 -4.75 -20.5 -5.25 L-18.35 -6.5 Q-16.05 -7.9 -17.6 -7.3 -20.35 -5.5 -21.4 -5.4 -22.25 -5.25 -23.15 -7.15 L-24.45 -9.7 -27.6 -12.75 Q-28.75 -13.75 -31.5 -13.5 -34.05 -13.35 -35.7 -12.6 -37.2 -11.85 -38.35 -10.55 M-32.4 -32.75 Q-32.9 -33.75 -32.4 -35.15 L-36.85 -31.5 Q-34.55 -32.75 -32.4 -32.75 M-24.55 -40.35 L-28.75 -37.95 Q-31.5 -36.3 -31.9 -34.8 -32.4 -33.0 -31.0 -32.65 L-27.85 -31.85 -30.4 -31.6 Q-31.15 -31.35 -31.25 -30.85 L-31.15 -31.6 Q-35.45 -30.85 -36.95 -28.7 L-31.25 -29.45 -31.25 -30.35 -31.15 -29.85 Q-30.4 -28.95 -26.05 -28.85 -20.0 -26.8 -18.85 -18.55 -20.1 -20.2 -21.75 -20.95 -20.0 -19.85 -18.75 -15.15 L-18.85 -12.6 Q-19.0 -10.85 -18.35 -10.05 -17.2 -8.8 -16.6 -9.8 -16.05 -10.55 -16.3 -11.85 L-15.95 -14.65 Q-15.7 -15.65 -15.8 -16.3 L-15.45 -15.4 Q-15.2 -16.0 -15.2 -17.55 -15.3 -18.8 -15.7 -19.3 -15.05 -18.55 -14.7 -17.15 -14.4 -17.95 -14.7 -19.7 -14.95 -21.35 -15.3 -21.85 L-14.15 -19.85 Q-13.9 -22.75 -15.55 -25.3 -14.05 -23.1 -13.8 -22.25 -12.9 -20.45 -13.4 -18.8 -13.65 -17.55 -15.05 -13.75 L-15.05 -11.7 Q-14.95 -10.45 -15.3 -9.8 -16.05 -8.05 -16.3 -4.6 -16.45 -1.05 -16.95 0.45 -17.7 2.75 -21.25 5.65 -24.95 8.55 -25.8 10.6 -25.45 9.3 -22.9 6.4 L-27.1 6.3 -31.15 7.3 Q-29.6 6.15 -24.05 5.0 -19.5 4.0 -18.2 1.1 -19.5 2.35 -21.4 2.85 L-25.05 3.5 Q-28.85 4.5 -31.65 6.3 -32.55 6.8 -33.55 7.7 -34.45 8.2 -35.95 7.7 -37.85 5.5 -37.35 1.2 -38.35 2.6 -38.35 6.8 -41.8 5.0 -40.4 -0.55 -41.4 0.45 -42.05 4.4 -45.45 1.2 -42.15 -3.6 -43.3 -3.1 -45.3 0.35 -48.1 -4.1 -44.2 -4.35 L-46.35 -4.25 Q-47.2 -4.0 -47.5 -5.4 -46.6 8.2 -37.2 21.6 L-31.75 28.85 Q-27.45 33.15 -24.45 31.0 -24.05 36.2 -31.75 31.0 -35.3 28.45 -39.0 23.25 -42.15 18.2 -45.05 10.35 -49.4 -1.7 -50.0 -7.05 -52.55 -30.2 -15.8 -47.1 -1.4 -53.55 14.7 -45.55 21.65 -42.15 24.45 -38.45 28.0 -34.15 30.55 -28.05 30.65 -26.3 34.85 -24.15 38.25 -22.35 36.75 -20.1 L35.35 -18.3 35.75 -13.85 Q36.35 -8.65 38.5 -7.9 39.9 -7.3 40.9 -4.25 41.55 -1.95 41.7 0.2 42.2 3.5 40.65 5.25 39.8 6.4 38.15 6.05 L35.45 6.15 37.35 7.8 Q38.25 8.7 38.4 10.1 38.4 10.7 39.15 12.25 39.9 13.5 39.8 14.25 39.55 15.65 38.65 16.3 L35.75 16.4 Q35.6 17.2 35.1 17.45 L34.2 16.05 Q32.95 17.45 29.65 16.8 29.25 16.8 28.75 17.3 L27.75 17.95 25.85 17.7 Q28.9 17.7 28.75 16.15 29.25 16.7 30.05 16.3 30.65 16.05 30.9 15.4 31.15 15.8 30.9 16.15 33.45 15.9 33.7 14.4 L33.7 15.65 Q34.6 15.05 34.6 14.25 L34.85 15.4 36.0 15.65 Q37.1 16.3 37.0 15.05 L37.65 15.65 Q38.15 16.05 38.65 15.15 39.15 14.4 37.65 11.75 38.9 12.75 39.25 14.5 39.4 12.75 37.9 10.7 L36.75 9.6 Q36.1 9.05 36.35 10.1 36.1 9.6 35.45 9.05 34.6 8.45 34.2 8.7 L34.6 9.6 34.1 8.95 Q33.2 9.95 33.55 11.25 L34.1 13.4 Q33.2 11.5 31.7 10.45 29.9 9.2 28.0 9.7 27.1 12.25 29.4 15.15 L28.5 14.4 28.75 15.55 28.0 13.9 26.5 11.85 Q27.5 12.75 26.6 11.75 25.85 11.1 25.2 11.1 24.7 10.95 24.7 12.75 24.7 16.4 26.1 17.3 L25.1 16.8 Q24.85 16.7 25.1 17.45 24.45 17.2 24.2 15.3 23.95 13.65 23.2 13.65 21.9 13.5 23.95 15.55 23.2 15.4 22.2 14.25 21.15 13.15 20.3 13.15 19.5 13.0 19.9 14.65 20.15 15.8 20.55 16.55 19.75 15.3 19.4 13.65 19.0 14.0 19.75 15.9 L20.8 18.05 Q20.3 17.55 19.15 14.65 19.0 15.9 19.75 17.7 20.4 19.6 21.4 20.1 L20.4 18.05 21.15 19.2 Q22.3 20.6 22.7 20.6 L22.05 19.45 23.2 20.5 Q24.2 17.8 24.7 17.7 23.7 20.2 23.7 21.5 24.1 20.85 24.7 20.85 25.35 20.85 25.7 20.35 26.25 19.6 27.35 19.35 27.9 19.2 29.0 19.35 L30.55 18.95 Q32.05 18.3 34.1 18.05 35.85 17.8 36.75 20.5 37.1 19.45 37.75 19.2 38.5 18.95 39.0 19.95 L39.4 23.15 Q39.55 25.55 40.05 25.8 38.25 25.3 36.6 26.7 L34.85 26.95 33.05 26.7 Q31.4 26.55 29.4 27.85 26.85 29.35 25.7 29.6 17.6 31.5 7.35 30.85 1.05 30.35 -1.65 27.7 -3.65 25.65 -4.8 19.95 -5.8 14.4 -7.95 12.35 -6.2 18.3 -5.7 21.75 L-6.45 20.5 Q-5.05 27.85 0.0 30.0 -1.75 30.25 -4.3 28.95 L-8.35 26.7 Q-3.55 32.4 1.3 35.05 L-3.55 33.65 Q-6.55 32.4 -7.6 30.75 -7.6 32.5 -6.05 35.2 -4.65 37.7 -3.0 38.85 L-7.1 36.55 Q-9.5 34.95 -10.0 33.9 -9.6 35.45 -9.75 37.6 L-10.0 41.75 Q-10.5 40.9 -10.75 39.0 L-11.15 36.2 -12.4 32.75 Q-12.9 31.65 -12.65 31.5 L-11.75 30.6 Q-12.65 31.5 -13.3 31.0 L-14.15 29.35 Q-12.9 29.2 -12.25 27.7 -13.4 28.85 -14.15 28.6 L-15.7 27.05 Q-13.65 26.95 -12.25 24.65 L-14.3 25.95 -16.2 26.2 -17.45 24.8 Q-14.3 25.15 -12.5 21.75 -15.2 24.15 -17.85 23.75 L-24.05 19.7 Q-23.55 18.85 -20.75 19.95 -19.85 20.2 -18.85 20.75 -23.3 18.7 -24.15 16.55 -24.3 16.15 -23.05 16.95 L-21.65 17.8 -18.45 19.7 Q-15.45 21.0 -14.3 17.3 -15.95 18.45 -17.6 17.55 -16.6 17.3 -16.05 16.7 -20.1 15.55 -20.1 13.75 -21.0 14.9 -20.9 15.15 -21.4 14.65 -21.5 13.5 -21.5 12.5 -21.15 11.75 -22.8 12.1 -23.65 13.75 -23.65 12.1 -23.3 11.5 -24.3 12.35 -24.8 14.15 -24.7 11.85 -23.15 10.6 L-20.1 8.2 Q-19.6 7.7 -19.6 6.65 -19.6 5.65 -18.75 5.0 -19.5 6.15 -19.35 6.55 -19.1 7.4 -19.35 7.95 L-20.1 9.2 -12.8 10.7 Q-7.95 11.75 -5.8 9.6 -4.4 13.0 -1.75 13.75 -0.35 14.25 -0.25 13.15 0.0 11.5 0.65 11.1 -0.5 12.5 -0.25 15.05 0.15 17.55 1.9 18.2 L1.65 14.4 3.2 18.45 3.45 18.3 Q3.95 18.6 4.55 18.05 L5.85 17.8 Q4.85 18.05 4.85 20.6 3.2 17.8 2.4 19.2 L3.2 19.2 3.95 19.6 3.7 19.7 4.2 19.95 3.8 20.1 4.55 20.5 3.95 20.6 4.7 21.25 Q4.05 21.25 3.95 21.6 L4.7 21.85 Q3.8 22.15 4.05 22.5 4.3 22.9 4.7 22.4 L4.85 21.1 Q5.1 19.2 5.85 18.2 L6.75 18.85 6.1 18.95 Q6.1 19.2 6.75 19.45 L6.1 19.6 Q6.1 19.85 6.75 20.1 5.45 20.6 6.75 21.0 L6.1 21.35 6.75 21.6 6.1 21.75 6.2 22.25 6.75 22.4 6.2 22.5 7.0 23.15 6.35 23.25 7.25 23.75 6.75 23.9 Q6.6 23.9 7.0 24.3 6.45 24.55 5.85 24.3 6.45 25.3 8.0 24.55 9.65 23.9 9.0 22.9 L8.35 20.1 Q8.1 18.45 6.6 17.8 7.85 17.8 9.0 19.6 9.75 17.8 12.05 18.6 11.9 16.4 13.05 16.3 14.05 16.15 15.45 17.7 15.2 15.65 15.85 14.5 L18.5 14.4 Q18.4 12.75 20.0 12.25 21.65 11.85 22.3 13.4 22.45 12.75 23.7 13.15 23.45 11.35 24.35 10.7 25.1 9.95 26.75 10.85 26.6 9.7 27.75 9.05 28.75 8.45 29.9 8.7 31.05 8.95 32.2 9.45 32.95 9.6 33.55 8.2 34.2 6.8 35.6 8.2 L37.65 9.95 Q37.75 8.8 36.85 8.05 L34.95 6.8 Q33.3 5.4 33.55 3.75 33.85 2.25 35.6 1.1 35.1 1.6 34.6 2.85 L36.75 3.0 Q35.6 3.0 34.95 3.5 37.5 3.1 38.65 4.25 L35.6 4.4 Q38.25 4.4 39.15 5.25 41.05 2.5 40.65 -1.2 40.55 -3.35 39.15 -5.25 L36.25 -8.65 Q36.35 -7.9 37.0 -7.3 34.35 -8.05 31.05 -10.05 31.3 -7.55 34.6 -7.3 L31.15 -7.9 31.15 -3.6 Q30.9 -0.3 29.65 0.05 32.05 -5.4 29.5 -14.75 29.25 -16.0 28.25 -17.05 L26.25 -19.05 25.35 -20.7 Q24.85 -21.75 23.8 -21.6 24.45 -22.75 22.3 -22.6 20.4 -22.5 19.4 -21.85 19.75 -22.6 20.8 -22.85 19.9 -24.5 17.75 -24.75 18.9 -24.9 20.3 -24.0 21.9 -23.0 22.7 -23.0 25.2 -23.0 26.1 -21.2 L27.35 -22.35 26.0 -22.1 Q27.5 -24.0 30.15 -22.85 32.45 -21.85 33.45 -19.7 33.85 -18.8 33.85 -15.65 33.7 -13.0 34.6 -12.5 33.7 -19.85 33.3 -20.7 31.7 -24.9 26.5 -23.75 27.6 -24.65 30.05 -24.4 L27.9 -24.9 Q30.15 -25.15 32.3 -23.5 34.2 -22.0 34.95 -19.85 36.6 -21.1 35.35 -22.35 L32.7 -24.25 28.65 -26.8 28.25 -28.7 Q26.6 -26.8 25.6 -26.8 24.6 -26.65 23.05 -28.55 24.45 -27.7 25.7 -28.05 26.85 -28.55 27.5 -29.95 25.35 -34.4 23.45 -36.8 19.5 -41.9 15.35 -42.9 L16.1 -41.1 Q16.5 -40.25 17.35 -39.7 18.75 -38.85 20.15 -37.45 20.8 -36.7 20.8 -36.05 L20.3 -34.4 Q19.15 -31.6 17.1 -33.0 L13.45 -36.2 Q12.8 -33.4 11.9 -32.75 10.9 -31.85 8.35 -32.5 6.45 -33.15 6.35 -33.4 6.1 -33.9 7.0 -35.9 L8.1 -38.6 Q8.5 -39.7 7.6 -40.35 L5.45 -41.25 Q3.55 -42.0 2.3 -42.15 L2.95 -38.95 Q3.3 -36.95 2.65 -37.7 2.4 -38.1 2.4 -39.6 L2.05 -41.65 0.15 -42.65 Q-1.0 -43.0 0.5 -44.4 1.8 -45.55 4.95 -44.8 L9.5 -43.25 Q10.0 -44.9 9.5 -45.45 9.4 -45.7 7.6 -46.45 L3.55 -47.7 Q-2.15 -49.0 -8.2 -47.6 -15.45 -46.05 -24.55 -40.35" fill="#000000" fill-rule="evenodd" stroke="none"/>
  </g>
</svg>
