<?xml version="1.0" encoding="UTF-8" standalone="no"?>
<svg xmlns:xlink="http://www.w3.org/1999/xlink" height="100.0px" width="97.9px" xmlns="http://www.w3.org/2000/svg">
  <g transform="matrix(1.0, 0.0, 0.0, 1.0, 48.95, 50.0)">
    <path d="M-40.45 -48.45 Q-37.95 -49.05 -37.4 -49.8 -36.6 -50.95 -29.7 -44.6 -23.55 -39.05 -22.0 -36.95 L-10.05 -22.9 Q-7.35 -19.45 -5.45 -17.7 -4.3 -16.35 -2.0 -15.0 -1.0 -13.85 0.3 -14.45 1.3 -14.25 2.25 -15.2 L4.15 -16.75 3.6 -17.1 2.85 -16.75 Q4.15 -17.5 7.25 -20.6 10.7 -22.5 12.05 -24.05 L14.0 -25.4 Q15.15 -26.55 14.75 -26.55 14.0 -26.55 14.0 -26.95 L20.55 -32.1 25.15 -35.0 Q28.05 -36.95 29.75 -38.45 33.05 -41.35 38.25 -42.7 41.7 -43.85 42.65 -43.85 43.6 -43.85 45.55 -42.3 L44.8 -41.35 Q44.4 -40.8 44.95 -40.4 45.55 -40.95 46.3 -40.4 46.9 -39.8 47.45 -40.0 46.7 -39.45 47.3 -39.25 48.05 -38.85 47.65 -38.3 46.7 -37.3 47.65 -36.75 46.5 -36.55 47.3 -35.95 47.85 -35.6 48.65 -35.2 47.85 -35.2 47.3 -34.6 47.45 -34.25 48.45 -33.45 49.2 -32.9 48.8 -31.95 48.05 -30.6 48.25 -30.4 48.25 -30.0 48.8 -28.85 L47.85 -27.7 46.7 -26.75 31.9 -18.45 Q22.65 -12.7 11.3 -4.6 12.45 -3.1 14.55 -1.55 L18.2 1.35 Q22.85 5.4 26.1 8.85 L34.4 17.7 Q39.2 23.05 40.75 27.5 42.45 33.05 43.25 37.1 L44.2 42.3 Q44.8 45.2 46.1 46.9 L45.15 49.2 Q44.4 50.0 42.65 50.0 41.7 50.2 39.2 48.45 36.9 46.7 36.3 45.75 35.55 45.75 33.8 44.8 32.1 44.05 31.9 43.25 31.3 41.9 29.4 40.2 L26.3 37.7 14.95 25.2 Q6.5 15.55 2.05 11.55 L-4.3 5.0 Q-5.65 3.25 -7.95 4.8 -10.25 7.1 -11.2 7.5 -10.65 6.9 -11.2 6.7 -15.05 9.4 -25.1 14.4 L-28.95 16.7 Q-31.45 18.05 -32.95 18.25 -33.75 18.25 -36.05 19.6 -38.15 20.55 -39.3 20.2 -38.15 19.05 -38.15 17.3 L-35.1 14.8 -32.6 13.45 Q-31.25 12.5 -31.45 11.55 -21.8 6.15 -15.25 0.95 -13.15 -0.95 -14.1 -2.7 -16.05 -4.6 -17.0 -5.95 -17.0 -6.95 -18.9 -9.45 -18.75 -10.0 -19.9 -11.35 L-21.4 -13.3 -35.3 -29.8 Q-38.35 -33.45 -42.8 -37.5 -48.15 -42.9 -48.95 -43.1 -48.55 -43.1 -48.35 -43.65 L-47.6 -44.25 -46.05 -44.45 Q-45.1 -44.6 -44.9 -45.2 L-44.15 -46.75 Q-43.15 -47.9 -40.45 -48.45" fill="#000000" fill-rule="evenodd" stroke="none"/>
  </g>
</svg>
