<?xml version="1.0" encoding="UTF-8" standalone="no"?>
<svg xmlns:xlink="http://www.w3.org/1999/xlink" height="88.85px" width="99.95px" xmlns="http://www.w3.org/2000/svg">
  <g transform="matrix(1.0, 0.0, 0.0, 1.0, 49.95, 44.4)">
    <path d="M-5.0 -10.8 Q1.95 -9.75 0.3 -13.75 L-0.8 -15.9 Q-1.2 -17.35 -0.35 -18.0 1.55 -19.5 2.4 -18.0 L3.05 -16.1 Q4.5 -16.5 4.5 -18.0 L4.5 -20.55 Q5.35 -21.4 5.8 -23.05 L6.2 -25.8 Q6.4 -26.9 7.9 -30.25 8.75 -32.8 8.1 -34.9 7.05 -38.7 8.55 -39.75 8.95 -40.4 10.25 -40.8 11.5 -41.25 12.35 -40.8 L13.6 -40.0 Q14.25 -39.75 14.9 -40.8 15.1 -42.3 16.6 -43.55 18.05 -45.25 19.15 -43.55 19.75 -42.5 19.35 -41.25 18.7 -40.2 17.45 -40.8 16.8 -40.6 15.75 -38.3 14.7 -35.95 14.7 -35.1 18.7 -36.4 18.9 -33.0 18.9 -31.5 17.85 -31.1 17.65 -29.85 18.5 -28.55 18.5 -27.7 19.55 -26.65 20.4 -25.6 20.4 -24.55 L20.2 -20.95 Q20.2 -18.85 21.05 -17.8 22.5 -18.0 25.05 -21.4 L28.45 -26.25 Q31.2 -29.4 30.15 -26.25 29.1 -23.3 27.2 -23.3 26.55 -21.8 24.45 -19.9 21.9 -17.8 21.25 -16.95 20.4 -15.45 21.7 -12.95 22.95 -10.4 22.3 -9.55 20.0 -7.65 22.95 -5.75 25.5 -4.05 27.6 -4.05 L34.8 -4.5 Q35.65 -4.5 41.8 -6.15 47.75 -8.5 47.75 -6.4 47.75 -5.1 45.85 -4.25 L42.45 -3.4 37.15 -2.35 Q36.3 -1.75 34.6 -1.95 L31.85 -1.75 Q34.4 0.8 38.2 0.4 L41.4 -0.9 Q43.7 -1.75 44.35 -1.3 49.0 -0.9 46.9 3.35 44.75 7.8 41.4 4.0 42.25 7.8 47.75 8.85 51.1 9.05 49.45 11.35 47.75 13.9 46.25 12.0 39.7 13.9 33.95 16.65 L27.2 20.05 Q25.9 20.05 26.1 21.1 26.1 21.75 26.55 23.2 26.55 24.7 27.6 28.05 28.45 31.0 28.45 32.95 L28.05 34.85 Q27.6 35.9 28.05 36.5 L29.3 37.8 Q30.15 38.4 30.15 39.05 30.15 41.4 27.8 41.15 25.9 40.95 24.65 39.9 L21.25 37.35 Q20.0 36.1 19.15 36.3 L17.45 37.8 Q15.75 38.85 13.85 35.9 11.95 32.5 11.1 31.65 7.05 28.7 5.15 29.95 -0.15 33.35 -11.6 43.5 -13.5 44.95 -14.75 44.15 -15.8 43.5 -16.05 41.15 -16.05 39.5 -18.35 41.4 L-21.55 43.5 Q-24.1 43.7 -22.4 41.6 -21.1 40.3 -19.65 39.25 -17.1 37.55 -16.05 36.3 L-14.15 34.2 Q-14.35 34.2 -20.5 37.15 -24.95 39.25 -24.95 34.6 -21.55 31.85 -18.8 26.8 L-13.9 18.15 -12.0 14.1 Q-11.4 12.85 -12.2 12.0 L-14.15 10.1 Q-19.65 4.2 -22.8 1.45 -23.9 0.8 -26.4 0.8 -29.6 1.0 -30.25 0.8 -38.3 -0.05 -39.35 -1.75 -40.6 -4.25 -37.0 -3.4 L-32.35 -1.75 Q-30.45 -0.9 -28.3 -0.65 -25.55 -0.25 -26.0 -1.95 -30.25 -5.75 -33.6 -4.9 -34.45 -5.1 -36.15 -7.45 L-42.75 -8.05 -47.2 -7.0 Q-49.95 -6.6 -49.95 -9.35 -49.95 -11.65 -47.6 -11.45 L-44.0 -10.8 Q-42.95 -10.8 -41.05 -12.3 -38.7 -12.7 -35.55 -11.25 L-31.1 -9.35 Q-27.9 -8.05 -26.65 -8.5 -27.05 -9.35 -28.75 -10.4 -30.45 -11.45 -30.85 -12.5 -31.7 -15.45 -25.8 -15.45 -23.65 -15.25 -23.05 -16.1 -22.4 -17.15 -21.1 -16.75 -20.05 -16.3 -18.8 -14.4 -17.3 -13.75 -14.15 -13.15 L-5.0 -10.8" fill="#000000" fill-rule="evenodd" stroke="none"/>
  </g>
</svg>
