<?xml version="1.0" encoding="UTF-8" standalone="no"?>
<svg xmlns:xlink="http://www.w3.org/1999/xlink" height="86.55px" width="100.0px" xmlns="http://www.w3.org/2000/svg">
  <g transform="matrix(1.0, 0.0, 0.0, 1.0, 50.0, 43.3)">
    <path d="M-9.3 -8.9 L-10.35 -7.55 Q-12.85 -5.2 -15.0 -1.55 L-16.6 1.6 Q-16.95 2.55 -18.25 4.0 L-18.95 5.35 -19.7 6.7 -20.35 8.0 -21.05 9.35 -22.8 12.3 -24.4 15.3 -24.8 16.25 -25.4 17.1 -25.9 18.05 -26.25 19.0 Q-27.0 19.9 -27.75 21.55 L-29.0 24.3 Q-29.4 25.0 -29.25 25.7 L-29.6 26.7 Q-29.7 27.4 -29.9 27.6 L-30.35 27.9 -30.25 28.2 -30.0 27.85 -29.7 27.8 Q-29.25 28.05 -29.5 28.45 L-30.3 29.3 -31.05 30.25 Q-29.65 30.6 -27.75 28.7 -27.25 28.2 -26.1 27.8 L-24.4 27.05 -22.45 25.7 -21.05 24.95 -20.35 23.9 Q-19.85 23.15 -19.35 23.25 L-19.8 24.0 -19.25 23.6 Q-18.9 23.25 -18.6 23.4 -18.45 23.5 -19.4 26.9 -19.55 27.85 -19.3 28.9 L-18.75 29.65 -17.8 29.75 -15.75 29.95 -14.8 29.9 -13.85 29.85 -11.35 29.75 -8.85 29.35 -6.45 29.3 -6.0 29.3 -5.75 29.15 -4.85 29.05 1.05 28.5 3.9 28.65 6.75 28.4 12.8 28.1 18.75 27.45 19.65 27.35 Q20.15 27.2 20.1 26.75 L19.8 25.55 18.75 23.25 17.65 21.65 16.65 19.9 15.1 18.2 14.5 17.6 14.1 16.9 13.75 16.15 13.35 15.4 11.8 13.5 9.1 9.25 6.4 5.0 4.7 2.85 3.0 0.75 Q2.15 -0.5 1.85 -1.35 L0.35 -3.35 Q-4.6 -10.15 -6.3 -12.0 L-7.0 -12.1 -7.5 -11.6 -8.4 -10.4 -9.3 -8.9 M-6.65 -30.5 Q-6.85 -29.9 -6.2 -29.35 -5.5 -28.6 -5.3 -27.95 L-4.25 -25.95 -4.0 -24.95 -3.6 -24.4 -3.2 -23.6 -2.6 -22.85 -1.05 -20.65 -0.75 -19.95 -0.45 -19.25 0.4 -18.3 0.85 -17.7 1.3 -17.15 Q1.75 -16.0 2.15 -15.75 L2.55 -15.6 2.75 -15.2 3.2 -14.2 4.3 -12.5 4.8 -11.55 5.4 -10.7 Q6.5 -9.75 7.0 -8.45 7.45 -7.4 9.6 -4.6 L11.1 -2.75 12.25 -0.85 Q12.9 0.2 14.7 1.8 L15.6 3.3 16.25 4.35 17.05 5.3 18.2 6.95 18.75 7.45 19.15 8.05 19.75 8.7 20.5 9.35 21.75 11.2 22.9 12.6 24.25 14.15 25.8 16.15 27.3 18.2 27.8 19.1 28.55 19.8 Q29.1 20.1 29.65 20.95 L30.6 22.25 31.2 22.75 32.1 23.65 Q32.95 25.05 35.25 27.3 36.25 28.35 37.3 28.7 L39.7 28.9 41.95 28.65 43.05 28.8 44.1 28.9 45.6 28.2 Q46.4 27.8 47.1 28.4 49.25 30.1 49.7 30.9 50.65 32.7 48.5 34.7 47.65 35.45 46.5 35.6 L44.25 35.5 38.1 35.2 33.4 37.3 Q30.55 38.6 28.5 38.6 L23.85 37.8 21.5 37.35 18.8 37.35 7.5 36.6 Q3.65 36.6 -3.8 36.9 L-6.2 36.9 -8.7 37.1 -13.1 37.5 -14.1 37.85 -15.3 37.7 -17.85 38.1 Q-19.05 38.25 -23.05 39.5 -25.95 40.35 -27.9 40.25 L-30.4 39.65 Q-31.15 39.35 -33.2 40.15 L-35.45 41.05 -37.55 41.9 Q-39.25 42.4 -39.6 42.6 L-42.2 43.2 Q-44.6 43.45 -46.6 42.4 -48.65 41.3 -49.6 39.05 -50.0 38.0 -50.0 36.8 L-49.7 35.65 Q-49.4 34.95 -49.4 34.45 -48.5 32.55 -46.55 30.95 L-43.6 28.25 -42.7 26.85 -42.1 26.4 Q-41.75 26.05 -41.85 25.75 L-41.35 24.95 -40.55 24.05 -39.2 22.15 -37.7 20.05 -36.35 17.4 Q-35.05 14.8 -33.65 13.2 -32.5 12.3 -32.45 11.75 -32.45 10.85 -31.95 10.2 L-31.5 9.45 -31.1 8.7 -29.7 6.9 -27.05 2.3 -24.4 -1.95 -23.05 -4.05 Q-22.2 -5.3 -22.0 -6.25 -21.35 -6.65 -20.9 -7.65 L-20.1 -9.3 -19.35 -9.85 -19.1 -10.7 -18.5 -11.55 -17.95 -12.4 -17.6 -13.15 -17.25 -13.9 -16.35 -15.4 -15.7 -16.05 -15.15 -16.7 Q-14.15 -18.25 -13.8 -19.15 -12.45 -22.15 -13.3 -23.45 L-14.4 -25.65 -15.4 -28.0 -17.2 -31.0 -19.3 -33.8 -21.0 -36.6 Q-21.95 -38.3 -21.85 -39.7 -21.7 -40.7 -20.15 -42.35 L-19.1 -43.15 -17.35 -43.25 -14.25 -42.75 Q-12.65 -42.25 -12.2 -40.65 -11.55 -40.15 -11.1 -39.1 L-10.45 -37.3 -9.45 -35.65 -8.35 -33.95 -7.75 -32.1 Q-7.4 -31.1 -6.65 -30.5" fill="#000000" fill-rule="evenodd" stroke="none"/>
  </g>
</svg>
