<?xml version="1.0" encoding="UTF-8" standalone="no"?>
<svg xmlns:xlink="http://www.w3.org/1999/xlink" height="84.05px" width="100.05px" xmlns="http://www.w3.org/2000/svg">
  <g transform="matrix(1.0, 0.0, 0.0, 1.0, 50.0, 42.0)">
    <path d="M21.65 26.75 L22.2 26.4 23.2 26.2 23.1 26.5 Q23.3 26.95 23.85 25.95 23.4 27.15 23.5 27.3 23.3 27.7 22.55 27.7 L21.75 27.85 Q22.65 27.05 21.85 27.05 21.2 27.05 21.65 26.75 M36.75 29.5 L36.0 29.35 Q36.35 29.6 36.9 29.15 37.45 28.7 37.65 28.8 37.85 28.95 37.65 29.25 L37.1 29.9 37.45 29.15 36.75 29.5 M35.9 24.85 L35.25 25.65 Q34.45 25.75 35.45 24.85 L36.65 23.9 Q37.0 24.55 36.55 24.55 36.45 24.2 35.9 24.85 M48.5 17.85 Q48.7 18.4 48.95 18.05 L49.25 17.95 Q48.95 18.05 49.15 18.6 49.35 18.95 48.95 19.15 L48.15 20.35 47.3 21.6 45.65 24.45 Q46.2 24.75 48.5 21.6 L45.85 25.4 45.55 25.4 Q45.4 25.3 45.55 25.0 45.75 24.65 45.55 24.45 43.65 26.3 43.45 25.85 L42.7 27.4 Q42.05 28.6 41.8 28.6 L42.05 27.5 Q41.8 28.25 41.25 28.4 L41.35 28.7 Q39.3 30.8 40.15 30.25 39.75 30.45 39.2 31.45 38.65 32.45 37.85 32.55 38.3 32.0 37.95 31.55 36.55 33.0 36.45 32.35 L36.45 31.65 Q36.35 31.25 36.0 31.55 35.9 30.8 36.1 30.8 L36.9 30.8 37.1 30.0 37.2 30.35 39.75 28.7 42.05 26.75 41.7 27.15 Q41.5 27.4 41.7 27.6 43.8 25.1 45.1 24.2 46.1 23.65 45.4 23.9 45.3 23.45 46.3 22.25 L47.6 20.15 48.5 17.85 M15.95 -37.75 Q16.05 -37.4 16.6 -37.2 L17.05 -36.85 15.85 -37.2 Q14.85 -37.65 14.55 -37.85 15.3 -38.05 15.4 -38.4 15.4 -38.05 15.85 -38.05 L16.5 -37.95 15.95 -37.75 M41.05 -21.6 Q41.35 -21.95 41.6 -21.05 41.9 -20.2 42.15 -20.3 L44.55 -16.15 45.85 -14.05 Q46.5 -12.75 46.5 -11.75 46.2 -12.65 45.55 -13.2 44.85 -16.05 43.8 -15.9 44.75 -12.95 44.35 -12.4 44.2 -14.6 43.35 -15.5 L42.9 -16.15 Q42.45 -16.45 42.45 -16.8 42.7 -16.25 42.8 -16.7 L42.7 -17.55 41.05 -21.6 M43.8 -25.25 Q44.0 -24.7 43.55 -24.45 42.35 -25.35 41.8 -26.9 42.7 -26.25 43.1 -25.25 43.45 -25.45 43.25 -26.0 L43.8 -25.25 M41.5 -27.0 L40.7 -27.2 41.05 -26.1 40.05 -27.65 41.05 -27.65 41.5 -27.0 M4.7 39.45 L5.55 39.1 Q5.75 38.9 6.3 38.9 L7.3 38.9 5.55 39.55 6.45 39.65 Q6.1 40.0 5.35 40.0 5.75 39.8 5.35 39.55 L4.7 39.45 M-14.15 39.55 L-14.95 39.9 -15.8 39.45 -16.8 38.8 Q-17.25 38.45 -17.8 38.8 L-17.45 38.35 -17.0 37.9 -16.35 38.6 Q-15.8 39.35 -14.15 39.55 M-49.55 20.05 Q-49.1 19.95 -49.1 20.35 L-48.65 20.6 -48.35 21.05 -48.0 21.25 Q-49.1 21.25 -49.55 20.05 M-48.35 10.3 Q-48.45 10.6 -48.65 10.4 L-48.35 8.95 -48.1 10.75 Q-48.35 10.95 -48.35 10.3 M-42.2 -12.3 Q-42.3 -12.65 -42.65 -12.3 -42.4 -12.5 -42.95 -12.5 L-42.65 -13.05 Q-42.75 -12.75 -42.55 -12.75 L-42.0 -13.6 -42.2 -12.3 M-41.1 -16.45 L-41.2 -16.7 Q-41.65 -15.6 -41.1 -17.35 -40.9 -18.45 -40.25 -18.2 L-41.1 -16.45 M-36.5 -24.8 Q-36.05 -24.9 -36.4 -24.15 L-36.95 -23.7 Q-37.25 -23.05 -37.5 -22.95 -38.05 -22.6 -38.05 -21.85 -38.7 -21.95 -39.25 -21.3 L-37.4 -24.25 -36.5 -24.8 M-35.3 -26.0 L-35.85 -25.9 Q-36.2 -25.55 -36.4 -25.55 L-35.5 -26.45 Q-35.1 -26.75 -35.3 -26.0 M-33.65 -27.3 Q-32.55 -27.2 -34.1 -26.9 L-34.0 -27.1 -33.65 -27.3 M-47.15 -26.1 L-46.7 -25.7 -46.6 -25.0 Q-47.25 -25.45 -47.15 -26.1 M-10.45 -14.05 L-12.2 -13.75 Q-3.55 -13.75 0.6 -12.5 2.15 -12.1 6.45 -10.0 6.85 -9.65 8.05 -9.35 8.95 -8.9 9.05 -8.0 8.5 -7.9 6.45 -9.0 L3.8 -10.45 Q3.15 -10.55 1.3 -11.55 -0.45 -12.3 -1.35 -12.3 L-5.3 -12.85 -9.55 -13.3 -13.5 -12.3 -14.7 -8.7 Q-15.15 -9.35 -15.15 -10.1 L-15.6 -9.65 -15.35 -11.2 -15.8 -11.3 Q-16.15 -11.4 -16.25 -11.1 L-17.1 -10.35 Q-17.55 -9.9 -18.0 -9.9 -17.55 -10.1 -17.8 -10.45 L-19.0 -9.35 Q-19.65 -8.35 -18.75 -7.9 -19.2 -8.0 -19.1 -7.5 -19.0 -6.95 -19.2 -6.8 L-19.85 -7.25 Q-19.75 -6.15 -20.1 -4.85 -19.0 -6.15 -18.85 -6.6 -18.1 -6.15 -17.8 -6.95 -16.9 -7.05 -17.0 -5.85 L-17.25 -4.2 Q-17.9 -0.55 -17.65 -0.35 -16.0 0.95 -17.25 0.75 -14.7 1.3 -14.8 1.95 L-18.2 1.4 -18.1 0.85 Q-18.2 0.4 -18.45 0.4 -18.45 1.5 -17.8 2.15 -18.2 2.7 -18.75 1.3 -18.55 2.05 -19.2 1.6 -19.4 1.3 -19.85 1.4 -19.95 2.7 -19.65 4.9 -19.2 5.25 -19.0 6.25 -18.85 7.1 -18.3 7.45 L-18.2 6.45 Q-18.0 6.35 -17.45 7.2 -16.9 8.1 -16.7 7.45 L-16.35 6.55 -15.15 7.65 Q-14.15 8.4 -13.7 8.3 L-13.7 7.45 -12.4 8.65 Q-11.3 9.95 -10.9 10.05 -9.45 10.6 -7.35 12.9 -6.3 13.6 -5.95 13.05 L-5.6 12.7 Q-5.5 13.15 -5.05 12.8 -5.85 13.6 -6.4 13.6 -5.6 13.6 -4.4 14.8 L-2.55 15.0 Q-1.9 15.2 -0.7 14.35 0.75 14.35 3.25 13.35 5.65 12.5 6.85 11.5 L5.0 11.95 3.25 12.6 1.85 12.8 Q0.95 12.9 0.4 13.35 0.2 13.05 1.05 12.6 L2.4 12.5 Q1.85 12.15 2.5 12.05 L3.6 11.8 3.05 11.7 3.9 11.15 3.35 11.25 Q2.9 11.5 2.8 11.15 2.8 11.05 4.55 10.3 6.0 9.75 6.55 9.75 6.2 9.65 6.75 9.4 L7.1 9.75 Q7.4 9.1 8.85 8.2 10.15 7.35 10.35 6.65 10.15 6.45 9.95 6.65 12.35 5.25 12.55 3.95 10.6 5.35 9.95 5.35 L10.6 4.8 9.95 4.9 9.5 4.35 10.8 3.25 12.1 2.05 Q12.25 1.85 11.9 1.75 L11.7 1.5 12.1 0.95 Q12.45 0.4 12.0 0.65 15.5 -2.55 13.55 -4.2 12.45 -5.15 12.8 -5.5 L14.2 -5.7 Q13.75 -7.05 11.9 -8.35 10.05 -9.55 8.95 -9.35 5.9 -11.65 1.95 -12.75 L-2.55 -13.95 -7.25 -14.6 Q-9.0 -14.6 -9.9 -14.05 -11.0 -13.5 -10.45 -14.05 M-7.35 -23.5 Q-7.9 -23.9 -10.2 -20.75 L-12.75 -16.9 Q-12.4 -17.1 -12.2 -17.9 -11.2 -17.8 -12.75 -16.6 L-13.2 -15.9 -12.5 -16.7 Q-12.3 -16.15 -12.65 -15.9 -11.95 -15.7 -10.45 -16.35 L-8.25 -16.8 -2.35 -15.8 Q5.65 -14.6 13.9 -9.1 12.55 -12.1 9.4 -15.7 L6.75 -18.75 6.1 -18.9 Q5.65 -18.65 5.45 -19.0 L6.1 -19.45 Q3.9 -21.4 2.7 -22.15 0.5 -23.7 -1.45 -23.7 L-4.75 -23.9 -7.35 -23.5 M0.85 -39.95 Q1.3 -40.05 1.6 -40.25 1.5 -39.6 3.6 -39.7 3.45 -39.5 2.6 -39.25 1.85 -39.25 1.85 -38.95 2.5 -38.6 3.05 -39.15 3.05 -38.85 4.0 -38.95 L5.45 -39.15 9.6 -38.85 12.0 -38.6 Q13.9 -38.3 13.45 -37.85 L14.4 -37.85 Q14.75 -37.1 15.2 -36.75 L16.4 -36.4 Q17.5 -36.1 17.15 -35.65 16.3 -35.85 15.4 -36.2 15.3 -35.75 15.75 -35.45 15.3 -35.55 15.3 -35.1 15.3 -34.65 15.95 -34.35 L16.6 -33.9 Q16.4 -33.45 16.6 -33.15 L17.4 -32.5 Q17.7 -32.7 17.4 -33.0 16.95 -33.25 16.95 -33.35 L18.05 -32.9 Q18.25 -33.25 18.05 -33.8 18.9 -33.15 22.0 -31.4 24.15 -30.15 25.6 -28.95 25.5 -28.85 25.25 -28.85 L26.45 -27.55 26.6 -27.85 26.8 -28.1 27.0 -27.65 Q27.25 -27.75 27.15 -28.3 L27.0 -29.1 Q27.9 -29.2 25.6 -30.95 24.3 -31.6 21.65 -33.35 19.15 -35.1 17.6 -35.75 18.35 -35.65 23.2 -32.7 27.45 -30.05 28.0 -30.5 27.8 -30.7 27.9 -30.85 28.1 -30.95 27.9 -31.25 27.7 -31.6 27.15 -31.8 L26.15 -32.15 23.5 -34.25 23.85 -34.35 Q23.4 -35.1 22.55 -35.0 22.4 -34.8 22.65 -34.55 22.3 -34.45 21.45 -35.1 L20.55 -35.65 20.55 -35.85 Q20.65 -35.45 22.0 -35.45 21.2 -35.55 21.2 -35.75 21.85 -35.75 21.75 -36.0 22.2 -35.55 23.3 -35.45 24.6 -35.35 25.05 -34.9 25.05 -35.45 23.85 -36.0 L24.85 -36.1 23.1 -38.6 Q23.65 -38.6 22.4 -39.4 21.35 -40.15 20.65 -39.8 21.2 -39.7 21.1 -39.4 20.9 -39.4 19.9 -40.05 19.9 -39.6 20.65 -38.85 21.45 -38.2 21.2 -37.65 L20.55 -38.3 Q19.8 -38.5 19.55 -38.75 19.05 -39.6 14.75 -40.05 15.2 -40.35 16.6 -40.05 17.95 -39.6 18.5 -40.05 18.15 -40.25 19.45 -40.35 20.8 -40.5 20.55 -40.6 L19.9 -40.8 Q19.45 -40.8 19.35 -41.15 20.1 -40.7 21.85 -40.6 L24.15 -40.7 22.65 -42.0 Q23.3 -41.9 24.05 -41.25 L25.25 -40.15 Q26.25 -39.4 27.15 -37.3 L30.2 -35.45 29.75 -36.75 30.1 -36.3 30.55 -36.2 30.2 -36.55 31.05 -36.4 Q31.85 -36.2 31.95 -35.85 31.85 -35.65 32.7 -34.55 L34.15 -32.9 35.35 -31.15 Q36.0 -28.1 36.65 -29.1 L36.35 -29.4 Q36.55 -29.3 36.65 -29.75 36.65 -30.15 36.35 -30.15 L35.9 -31.8 Q36.2 -31.6 36.45 -31.8 36.1 -30.95 38.85 -26.25 39.5 -25.7 39.75 -24.25 L40.25 -21.75 Q40.6 -21.4 40.4 -21.3 40.8 -20.4 41.05 -20.3 40.25 -20.65 41.25 -19.0 42.35 -17.0 41.7 -16.9 L41.6 -17.55 41.25 -17.9 41.5 -15.8 Q41.5 -14.5 42.55 -14.05 L42.7 -14.05 Q42.7 -13.6 43.25 -13.05 43.55 -13.2 43.35 -13.5 L43.35 -13.95 44.55 -10.75 Q44.35 -11.2 44.65 -11.4 L45.1 -11.1 45.2 -11.55 Q45.55 -11.2 45.75 -9.65 45.85 -8.35 46.65 -8.0 L46.75 -8.9 47.4 -7.15 Q47.95 -6.15 47.7 -5.4 47.7 -5.95 47.3 -5.95 46.75 -5.7 47.05 -4.3 47.15 -3.55 47.4 -2.85 47.15 -2.75 46.85 -3.55 L46.65 -4.65 Q45.95 -4.5 45.95 -3.0 L45.95 -1.1 45.75 -1.55 Q45.4 -1.0 45.65 0.3 45.95 1.75 46.2 1.2 45.85 1.95 47.05 4.35 47.6 5.7 48.05 6.0 48.8 6.8 49.45 6.1 49.25 7.2 48.95 7.2 L48.8 6.65 47.3 6.65 Q46.4 6.45 46.4 6.25 46.1 6.0 46.2 5.45 L46.1 4.6 45.75 5.8 45.55 5.55 Q45.2 5.7 45.2 5.25 44.65 5.55 44.85 7.1 45.0 8.55 45.3 9.1 L46.65 9.95 Q46.4 10.05 46.4 10.4 L46.1 10.75 Q46.65 11.15 47.15 10.75 L48.25 10.05 48.05 9.85 48.8 9.65 50.0 7.75 Q50.15 8.2 49.7 9.1 49.25 9.75 49.45 10.3 L49.25 9.95 49.25 9.65 48.25 10.4 Q47.4 11.15 47.5 11.25 L48.05 10.95 47.5 12.05 Q45.3 12.8 45.3 13.6 L45.2 13.15 Q43.35 15.35 42.9 17.4 L42.45 17.5 Q43.1 16.85 43.1 16.1 L40.05 20.05 Q38.85 21.8 38.75 23.65 L38.5 21.6 37.75 22.35 Q37.95 22.25 37.65 21.8 L37.45 22.15 Q37.3 21.45 33.9 22.9 30.95 24.1 29.75 24.85 L30.75 25.1 31.05 25.75 Q31.05 26.3 31.4 26.3 L31.5 25.85 32.7 26.3 Q33.7 26.5 33.9 26.1 L33.5 26.1 Q33.35 25.85 34.05 25.65 L34.7 25.55 33.9 26.75 Q34.25 26.95 34.8 26.75 34.35 26.95 34.6 27.3 33.8 26.2 32.5 27.6 31.3 28.95 31.2 30.0 33.05 29.9 33.05 29.25 33.35 29.8 34.25 29.6 L35.55 29.35 Q35.25 29.8 34.05 30.25 32.95 30.7 32.5 31.25 32.4 31.35 31.85 30.45 30.65 29.7 30.1 31.0 L29.1 32.1 Q29.0 32.45 29.45 33.55 28.75 32.55 27.9 34.3 27.55 34.85 26.9 34.75 L25.8 34.65 Q25.7 34.5 24.95 35.05 L23.75 35.7 24.95 34.75 Q25.8 33.85 26.35 34.3 26.25 33.85 26.7 33.55 L27.45 32.85 Q27.9 32.45 27.55 32.2 27.25 31.9 27.35 31.65 28.35 31.9 27.9 31.45 28.55 32.0 29.1 31.25 L29.85 30.35 Q30.55 30.45 30.75 29.6 L30.95 28.4 Q30.95 28.95 31.3 28.95 L32.85 27.05 31.85 26.95 30.75 26.95 Q30.85 27.4 31.3 27.4 31.3 27.95 30.75 27.7 30.85 26.75 29.45 26.3 L30.2 25.85 Q29.85 25.95 29.75 25.2 29.65 24.65 29.2 25.1 L30.0 24.3 27.45 24.65 28.0 24.3 27.15 23.9 Q26.8 23.75 26.15 24.2 L25.4 24.65 Q25.15 24.2 24.5 24.2 L23.5 24.3 Q24.85 25.4 22.65 25.75 22.2 25.1 22.2 26.4 21.85 25.4 20.65 26.3 L19.15 27.7 19.25 27.05 Q19.15 26.85 18.25 27.6 L17.5 28.4 15.65 29.15 13.2 29.05 Q12.45 28.95 12.1 29.5 L10.35 29.8 8.5 30.35 Q7.3 30.7 6.75 31.25 L5.55 31.45 Q4.7 31.55 5.2 32.2 5.65 32.75 6.1 32.45 L6.3 32.85 6.0 32.75 6.2 33.2 5.1 32.65 3.05 32.75 3.7 33.1 3.7 33.3 Q3.35 33.0 3.05 33.3 3.35 34.1 4.15 33.85 L5.2 33.75 6.85 34.3 Q8.2 34.65 8.2 33.75 8.2 34.2 8.95 34.1 9.6 33.95 9.7 33.55 9.6 33.3 9.05 33.3 8.5 33.4 8.3 33.1 L9.8 33.3 11.25 33.2 Q10.7 33.1 12.0 32.65 L11.6 32.85 13.75 33.0 12.8 33.3 16.95 33.2 Q13.2 34.3 11.6 34.2 11.35 34.85 13.65 34.65 13.9 34.85 13.55 35.3 L10.8 35.05 8.6 35.4 9.15 35.7 9.3 35.95 9.05 35.95 Q8.5 36.05 8.5 36.4 L9.7 36.6 11.15 36.5 Q13.0 37.8 13.0 37.7 L12.55 38.25 12.35 37.9 11.9 37.7 11.8 38.35 10.5 38.05 Q10.8 38.35 10.35 38.6 10.7 39.1 12.0 38.8 L13.9 38.45 16.6 38.8 Q13.1 39.9 9.05 38.35 L9.5 38.35 9.8 38.15 Q9.6 37.8 8.95 37.8 L7.95 37.7 8.5 38.35 7.4 38.8 7.65 38.7 Q7.4 38.15 6.0 37.9 4.55 37.8 4.35 38.25 4.8 38.7 4.0 39.25 3.35 39.65 4.0 39.9 L2.8 39.55 3.45 38.45 2.15 39.1 3.15 38.25 Q3.25 38.05 1.7 37.8 L-0.15 37.7 0.3 38.25 Q-3.55 38.35 -4.2 38.8 L-5.6 38.6 Q-6.7 38.25 -7.15 39.0 L-5.75 39.9 Q-4.65 39.9 -4.95 40.1 L-6.3 40.35 -7.6 40.75 -6.7 41.45 -8.15 41.95 -9.55 41.75 -9.0 41.55 Q-9.55 41.3 -9.35 40.9 -9.1 40.35 -9.45 40.0 L-8.35 40.1 Q-7.7 40.45 -7.7 39.65 -5.95 40.1 -7.35 39.0 L-8.9 38.6 -10.55 38.45 Q-11.3 38.35 -13.95 37.25 -16.15 36.4 -17.25 36.5 L-15.9 37.6 Q-16.55 37.6 -17.25 36.8 -18.0 36.05 -19.65 35.3 -21.15 34.5 -22.4 34.3 -21.7 34.5 -21.05 35.6 -20.5 35.95 -20.2 35.6 L-18.85 36.7 -17.8 37.35 -19.0 37.5 Q-19.65 36.95 -19.95 37.25 L-20.4 37.8 Q-19.75 37.15 -20.95 36.4 -22.05 35.7 -22.7 35.7 L-21.7 36.6 Q-21.15 37.05 -20.6 37.15 L-20.85 37.7 -20.95 38.05 Q-21.95 37.35 -23.8 36.8 -26.0 36.15 -26.85 35.6 L-26.3 36.5 -29.15 35.6 Q-29.05 36.15 -27.85 36.5 -28.05 36.8 -28.5 36.7 L-25.75 38.8 -28.6 37.8 -31.45 36.7 -34.45 34.4 Q-37.5 31.35 -37.5 32.0 L-38.6 30.7 Q-38.9 30.9 -38.15 31.65 L-38.5 31.45 Q-38.9 31.35 -38.9 31.65 -38.8 32.45 -37.95 33.4 -39.35 32.65 -40.9 30.25 L-43.3 26.3 Q-43.2 27.15 -42.3 28.5 -41.45 29.9 -41.45 30.55 -44.5 25.95 -45.6 22.15 L-45.8 20.9 -45.95 19.6 Q-45.6 18.95 -46.05 17.75 L-46.45 15.65 Q-46.7 15.55 -47.15 16.55 L-47.45 17.75 Q-47.45 18.2 -48.1 18.95 L-48.35 19.5 -48.75 19.6 -49.3 19.6 -49.3 18.6 Q-50.65 19.3 -49.45 18.05 L-49.65 17.4 -49.55 17.5 Q-49.65 15.1 -49.2 13.9 -48.55 17.3 -48.1 17.4 L-47.35 16.0 Q-46.7 15.0 -46.45 15.45 -46.15 14.8 -46.35 13.9 L-46.9 12.35 Q-46.7 12.15 -46.35 12.8 L-46.35 11.8 -46.05 12.8 Q-45.95 13.25 -45.25 13.35 L-42.95 17.95 Q-41.55 21.05 -40.25 22.7 -40.0 22.55 -40.1 22.35 L-39.15 24.1 Q-37.5 26.3 -37.05 26.5 -37.7 26.3 -37.05 27.05 -36.5 27.85 -36.5 27.05 -36.3 27.3 -36.05 27.05 -35.5 26.95 -37.05 25.3 L-39.15 21.9 Q-38.8 22.45 -38.8 21.9 -38.8 21.45 -39.25 21.25 L-39.35 21.25 Q-40.1 19.7 -41.45 18.5 -41.45 17.2 -42.55 16.1 -45.05 11.05 -45.25 11.05 -44.5 11.05 -45.7 7.85 L-43.85 11.7 Q-43.85 10.85 -43.4 11.4 L-42.95 11.8 Q-42.95 12.7 -41.45 15.1 -41.1 14.8 -41.45 11.05 -43.1 10.05 -43.1 8.65 -42.55 8.4 -42.4 9.1 L-42.0 10.05 Q-41.55 9.95 -41.35 8.55 -41.1 7.1 -41.35 6.65 -41.45 6.25 -42.55 5.8 -43.5 5.35 -43.85 4.7 -43.85 4.15 -44.7 3.8 L-45.6 2.85 Q-45.15 2.95 -44.85 1.95 -44.5 0.95 -44.85 0.55 L-45.05 1.2 Q-45.15 0.85 -44.7 0.1 -44.3 -0.55 -44.5 -1.0 L-45.15 0.4 Q-45.4 0.1 -45.05 -1.0 L-44.6 -2.45 Q-45.25 -1.9 -44.4 -3.1 -43.4 -5.05 -43.5 -6.05 -43.85 -5.3 -44.15 -5.15 L-43.75 -6.4 Q-43.2 -7.25 -43.4 -7.7 L-43.1 -8.8 Q-42.3 -9.55 -41.65 -11.95 L-40.9 -14.05 Q-40.35 -15.6 -40.45 -16.05 L-40.25 -17.0 -39.55 -17.8 -39.55 -17.1 -38.6 -18.9 -37.7 -20.75 -36.6 -22.3 Q-35.95 -23.15 -35.95 -24.05 -35.65 -23.7 -34.0 -25.55 -32.35 -27.3 -32.55 -27.65 -31.45 -27.3 -31.8 -28.1 L-29.3 -30.3 -30.05 -30.05 Q-30.05 -30.3 -29.5 -30.4 L-28.95 -30.5 Q-29.4 -30.7 -29.05 -30.85 L-28.3 -31.15 -26.0 -32.8 -23.8 -34.8 Q-22.5 -35.85 -21.3 -36.3 L-23.05 -35.1 -24.55 -33.55 Q-23.9 -33.45 -21.4 -35.1 L-18.1 -37.3 -18.45 -36.95 Q-16.15 -37.2 -11.95 -38.3 -11.95 -38.05 -12.4 -37.95 L-12.85 -37.65 Q-12.95 -36.95 -9.55 -39.15 -9.1 -39.95 -7.6 -40.15 L-7.9 -39.8 Q-7.7 -39.8 -7.6 -39.4 -7.5 -39.05 -8.25 -38.85 -9.1 -38.75 -9.1 -38.3 -8.6 -38.3 -9.0 -37.85 -9.1 -37.3 -7.05 -37.85 L-4.65 -38.5 Q-5.2 -38.6 -5.05 -38.95 L-3.0 -38.95 -1.8 -39.05 Q-1.9 -39.4 -1.25 -39.5 L0.5 -39.4 Q0.3 -39.8 0.85 -39.95" fill="#000000" fill-rule="evenodd" stroke="none"/>
  </g>
</svg>
