<?xml version="1.0" encoding="UTF-8" standalone="no"?>
<svg xmlns:xlink="http://www.w3.org/1999/xlink" height="98.95px" width="100.0px" xmlns="http://www.w3.org/2000/svg">
  <g transform="matrix(1.0, 0.0, 0.0, 1.0, 50.0, 49.45)">
    <path d="M-9.95 -30.2 L-10.5 -30.85 -10.85 -31.75 -10.1 -31.5 -9.5 -31.05 -9.95 -30.2 Q-9.6 -30.15 -9.4 -29.6 -9.2 -29.15 -9.3 -28.8 -10.0 -28.6 -10.2 -29.1 -10.4 -29.6 -9.95 -30.2 M-16.75 -33.25 L-17.45 -32.95 -17.5 -33.8 -17.05 -33.65 -16.75 -33.25 M-13.95 -30.85 Q-14.0 -30.3 -14.85 -30.15 -15.7 -30.0 -15.2 -30.95 -15.05 -31.25 -14.5 -31.35 -13.95 -31.4 -13.95 -30.85 M-13.05 -40.9 Q-12.95 -41.1 -12.8 -40.9 L-12.85 -40.55 -13.05 -40.9 M-9.0 -37.45 Q-9.35 -38.3 -8.65 -37.75 L-9.0 -37.45 M-30.25 -18.15 Q-30.55 -18.35 -30.25 -18.45 L-29.8 -18.5 -30.25 -18.15 M-30.2 -16.75 Q-30.45 -15.6 -31.15 -16.6 -31.9 -17.6 -30.2 -16.75 M-36.6 -18.45 Q-36.7 -18.15 -37.05 -18.35 -37.35 -18.5 -37.15 -18.8 L-36.75 -18.9 -36.6 -18.45 M-38.05 -24.45 L-37.75 -24.4 -38.05 -24.15 -38.05 -24.45 M-38.4 -26.05 Q-38.85 -25.95 -38.9 -26.55 -39.0 -27.1 -38.4 -26.9 L-38.05 -26.45 Q-38.0 -26.05 -38.4 -26.05 M-30.75 -28.9 Q-31.1 -28.4 -31.35 -28.9 -31.65 -29.35 -31.25 -29.35 -30.7 -29.4 -30.75 -28.9 M-41.6 -16.75 Q-41.3 -16.3 -41.9 -16.3 -42.35 -15.65 -43.15 -16.15 -43.9 -16.7 -43.75 -17.35 L-42.75 -17.65 Q-42.1 -17.9 -42.0 -17.4 L-41.6 -16.75 M-41.95 -23.35 L-42.4 -23.3 Q-42.7 -23.5 -42.45 -23.65 L-42.05 -23.7 Q-41.85 -23.65 -41.95 -23.35 M-30.5 -30.7 Q-30.15 -30.75 -29.85 -30.3 -29.65 -29.85 -29.75 -29.55 -30.35 -29.15 -30.75 -29.85 -31.15 -30.6 -30.5 -30.7 M-14.3 -46.7 L-13.95 -46.85 -13.7 -46.6 Q-13.8 -46.2 -14.3 -46.7 M-15.0 -45.9 Q-15.5 -46.15 -15.25 -46.6 L-14.45 -46.45 Q-14.45 -45.65 -15.0 -45.9 M-16.2 -46.2 Q-16.05 -46.3 -15.85 -46.05 L-16.1 -45.8 Q-16.35 -46.1 -16.2 -46.2 M-15.85 -45.0 L-15.6 -45.3 -15.5 -45.2 -15.85 -45.0 M39.65 12.8 L39.45 12.4 40.0 12.5 39.65 12.8 M40.4 14.4 Q40.8 13.7 40.7 14.5 40.65 15.3 40.4 14.4 M39.65 13.65 L39.8 13.95 39.4 14.0 39.3 13.65 39.65 13.65 M40.55 3.4 Q40.65 3.05 40.85 3.4 L40.55 3.55 40.55 3.4 M49.45 -1.75 Q50.3 -1.35 49.85 -0.55 L49.25 -0.4 48.6 -0.45 Q47.9 -0.9 48.1 -1.6 48.65 -2.15 49.45 -1.75 M40.1 -7.55 Q41.0 -7.5 41.1 -6.75 41.3 -6.2 40.45 -6.1 L39.8 -6.2 39.45 -6.9 Q39.2 -7.55 40.1 -7.55 M39.65 -12.8 Q39.75 -12.6 39.45 -12.35 L39.2 -13.15 39.65 -12.8 M45.35 -11.45 L45.75 -11.0 45.25 -10.55 44.55 -10.75 44.6 -11.3 44.95 -11.8 45.35 -11.45 M40.5 -21.6 Q40.85 -21.7 40.8 -21.35 40.8 -21.05 40.4 -21.05 L40.5 -21.6 M42.9 -29.75 L43.1 -30.0 Q43.3 -30.2 43.4 -29.9 43.25 -29.7 42.9 -29.75 M46.7 -28.75 Q46.55 -28.8 46.55 -29.0 L46.65 -29.3 46.8 -29.0 Q46.9 -28.8 46.7 -28.75 M46.2 -29.45 L45.6 -29.35 Q45.55 -29.6 45.8 -30.0 45.95 -30.4 46.15 -30.0 L46.2 -29.45 M45.5 -30.85 L45.3 -30.55 Q45.05 -30.5 45.05 -30.8 45.05 -31.0 45.3 -31.0 L45.5 -30.85 M46.65 -31.35 L46.6 -31.8 Q46.8 -32.0 47.0 -31.65 47.1 -31.4 46.65 -31.35 M43.0 -35.1 L42.6 -34.8 Q42.45 -34.9 42.6 -35.1 42.7 -35.3 43.0 -35.1 M5.05 42.3 L5.5 42.75 Q5.55 43.35 5.1 43.15 L4.6 42.55 Q4.65 42.15 5.05 42.3 M8.6 42.45 L8.95 42.5 8.7 42.65 8.6 42.45 M13.65 42.95 Q13.45 42.5 13.8 42.55 14.15 42.6 14.15 43.05 13.8 43.35 13.65 42.95 M14.25 41.5 L13.85 41.8 Q13.75 41.55 13.95 41.4 14.1 41.3 14.25 41.5 M15.4 41.15 L15.2 41.65 Q15.0 41.45 15.05 41.1 L15.4 41.15 M17.75 49.5 Q17.7 48.95 18.1 48.45 18.55 48.4 18.35 49.0 18.15 49.6 17.75 49.5 M31.05 44.65 Q31.7 43.9 32.3 45.0 32.8 46.1 32.1 46.35 31.35 46.7 31.05 45.95 30.65 45.2 31.05 44.65 M-29.45 12.25 Q-30.35 12.25 -29.95 11.95 -29.65 11.95 -29.45 12.25 M-8.55 37.0 Q-7.95 37.65 -8.7 37.65 -9.3 37.65 -9.7 37.25 -10.2 36.75 -9.6 36.35 -9.15 36.4 -8.55 37.0 M-11.65 32.7 L-11.05 31.5 -10.4 31.9 Q-10.15 32.3 -10.4 32.55 L-11.05 32.75 -11.65 32.7 M-10.15 31.35 Q-10.15 30.65 -9.8 31.85 -10.2 32.1 -10.15 31.35 M-9.5 26.6 Q-9.1 27.2 -9.15 27.5 L-10.0 27.1 Q-10.55 26.85 -10.25 26.35 -9.95 25.9 -9.5 26.6 M-19.05 31.55 L-18.55 31.95 -19.15 32.1 -19.05 31.55 M-22.6 28.45 L-21.9 28.25 Q-21.35 28.1 -21.7 28.7 -22.0 29.15 -22.4 29.1 -22.85 29.1 -22.6 28.45 M-20.8 21.5 Q-22.0 21.95 -21.2 21.3 -20.45 20.55 -20.8 21.5 M-19.6 22.95 Q-19.55 23.35 -19.8 23.3 L-20.1 22.8 -19.6 22.95 M-23.55 22.25 L-23.15 22.35 Q-22.95 22.75 -23.3 22.7 -23.6 22.65 -23.55 22.25 M-21.4 22.3 L-21.5 21.95 Q-21.25 21.95 -21.15 22.1 L-21.4 22.3 M-18.45 21.7 L-19.3 21.85 Q-19.8 21.85 -19.9 21.4 L-19.45 21.35 Q-19.2 20.45 -18.65 20.75 -18.05 21.1 -18.45 21.7 M-24.15 19.45 Q-24.2 19.8 -24.55 19.8 L-25.25 19.7 Q-25.45 18.95 -24.15 19.45 M-24.35 21.4 Q-24.8 21.1 -24.65 20.65 -24.55 20.2 -23.85 19.8 L-22.75 19.75 -23.45 21.35 -24.35 21.4 M-24.4 17.75 L-24.65 17.7 -24.35 17.4 -24.4 17.75 M-25.45 16.65 Q-25.0 16.8 -24.95 17.3 L-25.05 18.15 Q-25.15 18.6 -24.65 18.55 L-23.95 18.55 -24.55 18.7 -25.2 19.0 -25.7 18.75 Q-26.05 18.6 -25.95 19.0 L-26.4 18.45 -26.15 17.7 Q-26.0 16.5 -25.45 16.65 M-28.55 16.95 Q-28.85 16.8 -28.5 16.25 -28.1 15.8 -27.9 15.9 -27.75 16.7 -28.55 16.95 M-29.0 12.5 Q-28.7 12.15 -28.3 12.8 L-28.65 12.75 -29.0 12.5 M-26.85 15.75 L-26.8 15.45 -26.45 15.45 Q-26.7 16.55 -26.85 15.75 M-18.9 16.55 L-19.25 17.05 -19.9 16.6 -19.5 16.5 -18.9 16.55 M-21.7 17.6 L-21.2 17.8 Q-21.1 17.9 -21.35 18.3 -20.85 18.5 -21.0 18.75 -21.2 19.1 -21.6 19.0 L-23.0 18.85 Q-22.85 18.6 -23.15 18.1 -23.4 17.65 -23.05 17.4 L-23.55 16.65 -22.45 16.95 Q-21.8 17.05 -21.7 17.6 M-21.1 15.65 L-20.45 15.75 Q-20.4 16.05 -20.8 16.05 L-21.1 15.65 M-14.3 25.4 L-14.7 25.4 Q-15.0 25.2 -14.8 25.0 L-14.4 24.95 -14.3 25.4 M-17.6 25.35 L-16.6 24.85 Q-15.95 24.65 -15.6 25.1 -15.3 25.55 -14.45 25.85 -13.6 26.15 -13.35 26.5 L-13.85 28.85 Q-14.1 30.3 -15.25 30.4 L-16.0 30.35 -16.8 30.25 -18.15 30.0 -19.25 29.2 -20.1 28.2 Q-20.4 27.6 -20.1 27.0 L-19.45 25.95 Q-19.15 25.5 -18.55 25.45 L-17.6 25.35 M-16.05 20.75 L-15.6 20.9 -16.1 21.2 -16.05 20.75 M-30.5 27.9 L-30.15 27.95 -30.2 28.25 -30.5 28.2 -30.5 27.9 M-29.95 24.6 Q-30.35 24.6 -30.45 24.4 L-30.55 23.85 Q-30.95 22.95 -30.1 22.7 -29.05 22.5 -29.05 21.95 -28.15 21.95 -27.75 23.1 -27.65 23.65 -28.1 23.9 L-28.9 24.2 Q-29.35 24.7 -29.95 24.6 M-40.75 16.9 Q-40.35 16.5 -40.0 16.7 -39.65 16.95 -39.95 17.4 L-40.5 17.45 -40.75 16.9 M-30.2 16.25 Q-30.5 15.8 -30.05 15.3 L-29.25 14.55 Q-28.95 14.85 -29.3 15.35 -29.7 16.0 -29.55 16.25 L-30.2 16.25 M-30.55 12.4 L-30.3 12.85 Q-30.2 13.2 -30.55 13.3 L-30.9 12.95 -30.55 12.4 M-34.5 16.3 Q-33.95 17.1 -34.25 18.15 -35.8 18.75 -36.55 17.85 -37.35 16.9 -36.35 16.25 L-34.5 16.3 M-34.5 7.2 L-34.95 7.15 Q-35.15 6.8 -34.8 6.85 -34.35 6.85 -34.5 7.2 M-35.75 12.2 L-35.6 12.0 -35.4 12.0 -35.4 12.25 -35.75 12.2 M-35.85 10.35 Q-35.75 10.7 -36.0 10.85 L-36.55 10.9 Q-37.15 10.45 -36.8 9.7 -36.55 9.05 -35.8 9.2 -35.2 9.3 -35.2 9.95 -35.15 10.55 -35.85 10.35 M-38.85 9.7 Q-39.15 9.25 -38.6 8.9 L-38.2 9.4 -38.85 9.7 M-41.1 6.75 L-40.05 6.95 -40.85 7.55 -41.1 6.75 M-39.6 8.4 Q-39.85 7.6 -39.1 7.55 -38.35 7.55 -38.3 8.05 -38.3 8.95 -39.6 8.4 M-36.35 8.15 L-37.2 8.1 Q-37.45 7.6 -36.95 7.2 L-36.0 7.1 -34.9 7.65 Q-34.25 7.9 -33.8 7.35 L-34.3 8.5 Q-34.6 8.75 -35.0 8.35 L-35.55 8.25 -36.35 8.15 M-38.35 2.2 Q-38.4 2.65 -39.1 2.55 -39.15 1.85 -38.35 2.2 M-37.85 4.05 L-37.5 4.0 -37.65 4.4 -37.85 4.05 M-37.05 -0.5 L-36.75 -0.45 -36.75 -0.1 -37.1 -0.05 Q-37.35 -0.25 -37.05 -0.5 M-32.3 4.4 L-32.2 3.9 -32.05 3.9 -32.05 4.3 -32.3 4.4 M-47.65 -0.7 Q-47.85 -1.0 -47.5 -1.4 -47.25 -1.3 -47.3 -1.0 -47.35 -0.7 -47.65 -0.7 M-50.0 -0.3 Q-49.7 -1.75 -48.85 -0.9 -48.8 -0.6 -49.25 -0.45 L-50.0 -0.3 M-41.75 -0.45 L-41.55 -0.4 -41.55 -0.15 -41.9 -0.2 Q-42.05 -0.5 -41.75 -0.45 M-43.7 0.2 Q-43.5 1.35 -43.05 1.5 -43.35 1.5 -43.7 1.9 L-44.3 2.55 Q-45.15 3.05 -45.65 1.45 -46.35 -0.3 -45.15 -0.45 -44.3 -0.6 -44.6 -1.3 -44.05 -1.0 -43.7 0.2 M-42.9 -12.2 L-42.75 -12.4 Q-42.55 -12.4 -42.45 -12.2 -42.35 -11.95 -42.7 -11.95 L-42.9 -12.2 M-47.0 -9.05 Q-46.85 -9.35 -46.55 -9.2 L-46.9 -8.95 -47.0 -9.05 M-46.5 -14.05 Q-46.75 -14.35 -46.5 -14.4 L-46.1 -14.3 -46.5 -14.05 M-44.5 -13.55 Q-44.4 -12.85 -44.9 -13.4 -45.35 -13.85 -44.5 -13.55 M-44.15 -15.7 L-43.9 -15.7 -44.4 -15.25 -44.15 -15.7 M-43.6 -13.25 L-43.9 -13.15 Q-44.1 -13.1 -44.0 -13.45 -43.75 -13.45 -43.6 -13.25 M-44.1 -14.8 Q-43.65 -14.9 -43.95 -14.35 -44.15 -13.85 -44.8 -14.45 L-44.1 -14.8 M-31.15 -2.5 Q-31.4 -2.25 -31.55 -2.5 -31.8 -2.7 -31.45 -2.7 -31.1 -2.7 -31.15 -2.5 M-31.35 -7.7 L-31.45 -8.0 -31.3 -8.0 -31.35 -7.7 M-31.45 -6.3 L-31.0 -6.2 -31.35 -5.9 Q-31.65 -6.15 -31.45 -6.3 M-35.85 -4.55 Q-36.2 -4.7 -36.15 -5.05 -35.95 -5.95 -35.15 -6.65 -34.25 -7.45 -33.7 -6.65 -32.7 -5.2 -32.95 -3.65 -33.05 -2.9 -33.55 -2.75 L-34.65 -2.85 Q-35.1 -3.0 -35.35 -4.05 L-35.85 -4.55 M-39.0 -13.15 L-38.45 -13.05 Q-38.65 -12.7 -39.0 -12.8 L-39.0 -13.15 M-38.3 -14.9 L-37.55 -15.25 Q-36.95 -15.5 -36.6 -14.7 -36.25 -13.9 -36.8 -13.55 -37.5 -12.4 -38.2 -13.65 L-38.85 -15.5 Q-38.65 -14.85 -38.3 -14.9 M-30.75 -10.2 L-31.75 -10.05 -32.3 -10.65 Q-32.7 -11.5 -32.05 -11.5 L-30.65 -10.85 Q-29.75 -10.35 -30.75 -10.2 M-30.9 -12.0 Q-30.45 -11.85 -30.45 -11.5 -30.9 -11.3 -31.35 -11.7 -31.85 -12.2 -31.4 -12.5 L-30.9 -12.0 M-33.0 -9.25 L-32.95 -9.55 -32.65 -9.6 Q-32.5 -9.5 -32.65 -9.2 -32.9 -8.95 -33.0 -9.25 M-33.95 -14.3 Q-34.7 -14.05 -34.55 -14.5 -33.55 -14.8 -33.95 -14.3 M-29.45 -0.6 Q-29.45 -0.3 -29.8 -0.3 -30.15 -0.25 -30.15 -0.55 L-29.85 -0.9 Q-29.5 -0.95 -29.45 -0.6 M-27.5 -3.95 L-27.1 -4.15 Q-26.85 -4.1 -27.0 -3.8 L-27.25 -3.8 -27.5 -3.95 M-27.65 -9.2 L-27.45 -9.15 Q-27.45 -8.75 -27.85 -8.8 L-27.65 -9.2 M-28.8 -9.05 L-29.65 -9.1 Q-30.2 -9.05 -30.45 -9.4 -30.1 -9.5 -29.25 -9.9 -28.55 -10.05 -28.8 -9.05 M-29.35 -14.25 Q-29.05 -13.7 -29.65 -13.45 L-30.3 -12.9 Q-30.85 -12.5 -31.0 -12.6 -30.7 -13.1 -31.15 -13.3 L-31.65 -13.75 -31.05 -14.1 -30.15 -14.4 Q-29.65 -14.75 -29.35 -14.25 M-28.95 -15.65 Q-28.95 -15.5 -29.25 -15.5 -29.45 -15.5 -29.5 -15.65 L-29.15 -16.0 -28.95 -15.65 M37.15 39.25 Q37.0 38.85 37.4 38.9 37.95 38.95 37.8 39.4 L37.25 39.85 37.15 39.25 M32.4 35.0 Q32.95 34.2 33.55 34.7 34.05 35.15 33.75 35.95 33.35 36.55 32.7 36.05 32.0 35.55 32.4 35.0 M29.85 32.6 L30.0 33.0 Q29.85 33.5 29.55 33.3 29.25 33.15 29.5 32.75 29.6 32.5 29.85 32.6 M23.1 38.7 Q23.8 38.15 24.75 38.3 25.8 38.55 25.6 39.5 L25.25 40.45 Q25.0 40.9 25.0 41.4 25.0 42.1 23.9 41.95 L22.4 41.5 Q21.5 41.1 22.0 40.2 L23.1 38.7 M18.1 35.3 L17.7 35.4 Q17.4 35.4 17.55 35.15 17.7 34.9 18.05 35.0 L18.1 35.3 M17.25 34.2 Q17.2 34.55 16.85 34.35 L16.95 34.1 17.25 34.2 M21.55 29.1 Q22.1 28.9 22.1 29.65 L21.75 30.5 Q20.65 31.45 21.55 29.1 M27.3 32.15 L27.5 32.0 27.6 32.15 27.45 32.35 27.3 32.15 M22.7 31.2 Q22.3 30.85 22.6 30.75 L23.05 30.3 Q23.65 30.3 23.4 30.85 23.15 31.35 22.7 31.2 M22.65 29.85 Q22.15 29.35 23.05 29.55 23.15 30.25 22.65 29.85 M26.15 23.9 Q26.35 24.85 25.25 24.55 24.25 24.2 24.4 23.15 25.05 22.6 25.55 22.9 26.0 23.1 26.15 23.9 M25.55 25.15 L26.75 25.9 Q27.15 26.3 26.75 26.8 26.25 27.4 26.3 27.6 25.35 27.65 24.95 25.8 24.7 24.95 25.55 25.15 M23.05 23.4 L22.75 23.65 22.65 23.45 23.05 23.4 M23.6 21.05 Q24.2 21.0 24.15 21.8 L23.9 22.8 Q23.15 22.75 23.35 22.15 L23.6 21.05 M26.6 21.8 Q26.45 22.15 26.15 21.6 25.95 21.35 25.9 20.75 25.85 20.15 26.25 20.2 26.85 20.25 27.15 20.8 27.4 21.45 26.7 21.2 L26.6 21.8 M20.45 26.3 Q20.55 25.85 20.7 26.0 L20.75 26.5 20.45 26.85 Q20.3 26.7 20.45 26.3 M26.45 17.95 L26.0 17.8 Q25.55 17.3 25.95 16.85 26.3 16.3 26.85 16.55 27.5 17.2 27.0 17.95 26.8 18.15 26.45 17.95 M27.55 13.55 L27.45 13.95 27.3 13.75 27.55 13.55 M37.05 22.55 Q37.35 22.1 37.8 22.4 38.25 22.75 37.8 22.95 L37.25 23.0 Q36.95 22.95 37.05 22.55 M31.3 18.3 Q30.65 18.65 30.25 17.9 29.85 17.2 30.15 16.6 30.35 16.25 30.7 16.2 L31.35 16.4 Q31.9 17.05 31.3 18.3 M29.25 14.05 Q28.7 14.15 28.45 13.3 28.25 12.45 27.7 12.4 27.95 11.9 28.75 12.25 L28.85 13.25 Q28.85 13.85 29.25 14.05 M36.0 16.45 Q36.1 16.25 36.5 16.45 L36.15 16.9 Q35.9 16.7 36.0 16.45 M34.7 18.25 L34.5 18.5 Q34.35 18.45 34.35 18.2 L34.7 18.25 M38.0 13.65 Q38.25 13.45 38.35 13.65 L38.1 13.85 38.0 13.65 M16.2 38.1 Q15.45 37.6 16.15 36.95 L17.4 37.05 Q18.25 37.7 17.55 38.15 L16.2 38.1 M13.6 40.15 L13.65 40.3 13.45 40.5 Q13.25 40.45 13.35 40.3 L13.6 40.15 M12.65 33.9 Q12.8 33.65 12.9 33.75 L13.2 34.0 12.9 34.1 12.65 33.9 M13.85 36.45 L13.65 36.55 13.3 36.5 Q13.05 36.1 13.3 35.35 13.85 35.15 13.85 36.45 M14.9 35.3 L15.5 34.85 Q15.9 35.2 15.65 35.8 15.35 36.45 14.95 36.05 14.65 35.7 14.9 35.3 M7.85 30.9 Q7.6 30.05 8.35 30.5 8.1 31.85 7.85 30.9 M5.95 28.9 Q6.25 29.3 5.9 29.9 L5.15 30.65 Q5.0 30.45 5.1 30.05 L5.15 29.5 5.95 28.9 M14.9 27.4 L14.85 27.65 14.55 27.8 14.6 27.3 14.9 27.4 M14.0 28.45 L14.7 28.25 15.7 27.4 16.8 27.45 17.55 28.25 18.2 27.85 Q18.45 27.45 18.65 27.65 L19.25 28.7 Q19.4 29.3 18.65 29.45 18.85 31.45 17.2 33.25 L15.45 33.95 13.65 34.05 12.9 32.55 Q12.4 31.7 12.65 31.1 L13.0 30.65 13.05 30.1 12.8 29.45 13.0 29.25 Q13.55 29.25 13.35 28.8 13.45 28.45 14.0 28.45 M4.65 39.35 L4.6 38.2 Q4.4 37.65 5.05 37.45 6.25 37.15 6.7 38.05 6.45 38.2 6.35 38.8 L6.15 39.3 4.65 39.35 M-1.4 33.9 Q-1.05 33.9 -0.95 34.4 -0.85 34.9 -0.45 34.85 -0.45 35.3 -0.65 35.35 L-1.25 35.25 Q-1.7 35.2 -1.6 34.75 L-1.4 33.9 M-3.75 39.7 Q-3.2 38.8 -2.05 39.3 -0.9 39.8 -1.7 40.85 -2.55 41.95 -3.5 41.45 -4.55 41.0 -3.75 39.7 M-3.45 33.95 L-3.9 34.05 Q-4.25 34.0 -4.15 33.65 -4.3 33.3 -3.85 33.5 -3.4 33.6 -3.45 33.95 M-6.7 35.4 L-6.7 36.1 Q-6.85 36.5 -7.1 36.4 L-7.7 36.2 -7.8 36.75 -7.95 36.75 Q-7.8 36.55 -7.9 35.8 -8.0 35.25 -7.3 35.2 -6.9 35.05 -6.7 35.4 M-4.45 31.6 Q-3.8 31.9 -4.7 33.1 -5.4 33.4 -5.7 32.8 -5.95 32.3 -5.75 31.55 -5.55 31.15 -5.1 31.25 L-4.45 31.6 M-6.1 29.95 Q-6.05 30.15 -6.5 30.15 L-6.3 29.9 Q-6.15 29.75 -6.1 29.95 M-4.2 30.25 L-5.15 30.5 Q-5.45 29.85 -4.85 29.65 L-3.75 29.45 Q-3.6 30.0 -4.2 30.25 M3.0 31.35 L3.25 31.25 3.15 31.6 3.0 31.35 M-2.8 25.45 L-2.95 24.95 Q-2.65 24.85 -2.4 25.15 L-2.15 25.6 -2.8 25.45 M33.9 9.5 Q34.6 9.4 34.9 10.05 35.15 10.7 34.2 10.6 L34.0 10.05 Q33.8 9.7 33.9 9.5 M36.1 10.05 Q35.6 9.65 36.2 8.9 36.85 8.15 37.35 8.7 37.95 9.15 37.35 10.0 L36.1 10.05 M34.05 7.85 L33.75 8.1 33.65 7.9 33.9 7.7 34.05 7.85 M32.4 11.5 L31.95 11.75 32.0 11.55 32.15 11.35 32.4 11.5 M28.35 8.75 L28.35 8.15 28.45 7.55 29.05 7.35 Q29.5 7.25 29.4 6.95 L29.1 6.05 30.0 7.05 30.8 8.1 Q31.1 8.85 29.9 9.75 L29.0 9.9 28.0 9.95 Q27.95 9.55 28.05 9.3 L28.35 8.75 M33.2 3.6 L32.45 3.15 32.15 2.85 32.3 2.3 Q32.35 1.55 33.35 2.4 34.0 3.05 34.05 3.65 L33.2 3.6 M33.15 0.8 L32.55 1.35 32.25 0.75 Q32.0 0.5 32.35 0.25 L32.8 0.4 33.15 0.8 M37.6 4.3 L37.35 4.6 37.3 4.3 37.6 4.3 M34.7 1.6 Q34.45 1.65 34.2 1.35 L34.1 0.8 Q34.4 0.4 34.75 1.0 35.15 1.6 34.7 1.6 M27.1 6.25 Q26.75 5.85 27.6 5.95 L28.65 6.1 28.6 6.85 27.1 6.25 M20.6 -4.1 Q20.6 -7.75 18.3 -10.6 16.1 -13.5 12.55 -14.3 9.1 -15.05 5.9 -13.6 2.65 -12.1 0.95 -9.0 -0.8 -12.2 -4.15 -13.65 -7.5 -15.1 -11.0 -14.15 -14.4 -13.25 -16.5 -10.4 -18.7 -7.6 -18.7 -4.1 -18.7 -0.05 -15.6 3.2 L-9.15 8.35 Q-2.65 13.0 0.95 19.05 4.65 12.9 11.4 8.05 16.15 4.65 17.65 3.05 20.6 -0.15 20.6 -4.1 M37.25 -4.15 Q36.85 -3.95 36.65 -4.45 36.45 -4.85 36.9 -4.95 L37.25 -4.6 37.25 -4.15 M37.95 -5.75 Q37.85 -5.9 38.05 -5.95 L38.25 -6.0 38.2 -5.75 37.95 -5.75 M37.85 -7.5 Q37.4 -7.55 37.45 -7.7 L37.65 -8.15 38.05 -7.8 Q38.2 -7.5 37.85 -7.5 M31.7 -5.05 L32.0 -5.15 32.3 -5.0 Q32.4 -4.65 32.0 -4.65 31.65 -4.7 31.7 -5.05 M30.4 -5.45 L30.0 -6.0 Q30.5 -6.15 29.8 -6.8 29.95 -7.05 30.4 -6.8 L31.2 -6.55 Q30.75 -6.5 30.7 -5.9 L30.9 -5.0 30.4 -5.45 M31.65 -7.9 Q32.1 -8.6 32.25 -8.15 32.35 -7.6 32.0 -7.5 L30.7 -7.05 31.05 -7.8 Q31.15 -8.2 31.65 -7.9 M30.9 -12.85 Q29.9 -12.85 30.55 -13.15 31.3 -13.45 30.9 -12.85 M29.9 -11.9 L28.7 -11.55 Q28.05 -11.3 28.5 -12.25 28.8 -13.0 29.5 -12.75 30.15 -12.6 29.9 -11.9 M30.15 -9.25 Q30.1 -8.75 29.45 -9.45 L29.55 -10.2 29.85 -10.8 29.9 -10.45 29.65 -10.15 Q30.1 -10.0 30.45 -10.45 L30.95 -11.25 Q31.5 -11.8 31.95 -11.1 32.35 -10.4 31.95 -9.9 30.15 -9.0 30.15 -9.25 M37.2 -12.45 Q36.55 -12.4 37.0 -12.85 37.3 -13.15 37.65 -13.1 37.8 -12.6 37.2 -12.45 M37.0 -14.75 L36.6 -14.8 Q36.35 -15.1 36.55 -15.35 L37.05 -15.55 Q37.2 -14.95 37.0 -14.75 M37.55 -16.85 Q37.7 -16.15 36.6 -16.5 35.5 -16.85 36.4 -17.25 L37.0 -17.1 Q37.45 -17.1 37.55 -16.85 M39.2 -17.35 Q38.85 -17.75 39.2 -18.05 39.65 -18.75 39.85 -17.4 L39.2 -17.35 M36.05 -16.15 L36.4 -16.3 Q36.5 -15.95 35.95 -15.95 L36.05 -16.15 M34.45 -21.05 Q34.6 -20.9 34.35 -19.55 33.2 -19.0 33.65 -20.15 34.15 -21.4 34.45 -21.05 M35.55 -20.4 Q35.25 -20.5 35.55 -20.6 L35.9 -20.65 35.55 -20.4 M36.75 -20.35 Q37.05 -20.25 36.9 -20.0 36.75 -19.75 36.25 -19.8 36.1 -20.35 36.75 -20.35 M32.15 -16.15 L32.35 -16.1 32.15 -15.6 32.05 -15.9 32.15 -16.15 M31.6 -17.65 L31.6 -16.9 31.1 -16.8 Q30.9 -17.0 31.1 -17.4 L31.3 -18.1 Q31.65 -18.15 31.6 -17.65 M32.95 -18.85 Q32.8 -18.7 32.7 -18.85 32.55 -19.0 32.65 -19.2 32.7 -19.45 32.85 -19.2 L32.95 -18.85 M33.15 -17.7 Q33.0 -18.05 33.35 -18.3 L33.9 -18.6 34.8 -18.55 35.65 -17.9 Q36.15 -17.4 35.8 -17.4 L35.15 -17.4 Q35.6 -17.0 35.2 -16.0 34.85 -15.1 35.6 -14.65 35.4 -14.35 35.25 -14.5 L34.9 -14.8 34.5 -14.25 34.3 -13.6 Q34.1 -13.4 33.25 -13.6 32.55 -13.7 32.7 -13.1 32.4 -13.1 31.85 -13.6 L30.9 -13.7 31.2 -14.55 31.6 -15.3 Q31.9 -15.35 31.75 -14.75 32.0 -14.55 32.3 -14.75 L32.75 -14.9 Q33.0 -14.8 32.8 -14.5 32.65 -14.3 32.85 -14.15 L33.6 -14.7 34.1 -15.3 33.65 -15.85 Q33.15 -15.65 32.95 -15.85 32.85 -16.25 33.1 -16.35 L33.6 -16.5 Q33.8 -16.75 33.5 -16.95 L33.3 -17.25 Q33.75 -17.55 33.5 -17.6 L33.15 -17.7 M29.55 -16.0 Q29.25 -16.15 29.25 -16.9 29.2 -17.55 29.3 -17.8 29.55 -18.45 30.0 -18.5 30.3 -18.4 30.15 -18.1 L30.0 -17.65 Q29.6 -17.75 29.65 -16.95 L29.55 -16.0 M29.45 -19.85 Q28.65 -20.5 28.6 -20.85 29.05 -21.05 29.45 -19.85 M31.65 -21.4 Q31.35 -21.6 31.05 -21.15 L30.65 -20.75 Q30.05 -21.4 30.0 -21.65 L30.75 -21.7 Q30.8 -22.1 31.2 -22.4 31.5 -22.4 31.65 -22.0 L31.65 -21.4 M32.45 -25.55 Q32.05 -25.25 32.1 -25.7 32.9 -25.9 32.45 -25.55 M33.1 -24.5 L33.0 -24.85 Q33.2 -25.1 33.5 -24.85 L33.1 -24.5 M33.3 -27.95 Q33.6 -27.9 33.5 -27.55 L33.15 -27.15 Q32.7 -27.1 32.8 -27.55 32.9 -28.0 33.3 -27.95 M34.3 -25.55 Q34.6 -25.8 34.6 -24.95 34.35 -24.7 34.15 -25.05 34.0 -25.4 34.3 -25.55 M26.75 -22.4 Q26.55 -23.0 27.45 -23.05 28.3 -23.1 28.05 -22.25 L26.75 -22.4 M27.0 -19.55 Q27.3 -19.35 27.45 -19.75 27.5 -20.15 27.7 -20.15 L27.5 -18.6 Q26.8 -18.5 27.0 -19.55 M20.15 -24.6 Q20.6 -25.25 21.45 -24.6 L21.7 -24.15 21.4 -23.7 Q21.05 -22.85 20.35 -23.25 19.65 -23.7 20.15 -24.6 M27.8 -24.4 Q27.1 -24.95 27.5 -25.55 28.0 -26.25 28.65 -25.7 29.3 -25.05 29.1 -24.45 L27.8 -24.4 M25.35 -23.35 L25.25 -23.7 Q25.6 -23.75 25.6 -23.25 25.45 -23.25 25.35 -23.35 M24.2 -30.5 Q24.05 -30.65 24.2 -30.75 L24.35 -30.5 Q24.25 -30.35 24.2 -30.5 M22.55 -30.95 L22.5 -30.7 22.25 -30.65 Q22.15 -30.75 22.2 -30.95 L22.55 -30.95 M23.0 -34.3 Q23.1 -35.15 23.35 -34.65 23.55 -34.05 23.0 -34.3 M27.25 -35.15 L27.0 -35.1 Q26.75 -35.15 26.8 -35.4 L27.15 -35.4 27.25 -35.15 M16.6 -33.6 Q16.85 -33.8 17.2 -33.6 17.5 -33.4 17.0 -33.2 L16.3 -33.1 Q16.3 -33.45 16.6 -33.6 M21.95 -34.45 L21.55 -35.05 Q21.95 -35.05 22.95 -36.35 23.75 -37.5 24.05 -36.9 24.7 -36.45 24.05 -35.85 L23.0 -35.15 22.65 -34.5 22.3 -33.9 21.95 -34.45 M16.7 -38.35 Q17.4 -38.3 17.45 -37.9 L17.35 -36.85 Q16.4 -36.45 16.05 -37.5 15.65 -38.45 16.7 -38.35 M20.95 -37.3 L21.85 -37.25 Q22.35 -37.1 22.15 -36.5 21.2 -36.4 20.8 -36.8 L20.95 -37.3 M19.55 -38.4 L19.5 -38.0 19.35 -38.15 19.55 -38.4 M23.65 -38.9 L23.15 -38.85 Q22.75 -39.1 23.2 -39.5 L23.65 -38.9 M24.05 -38.8 Q24.25 -39.4 24.8 -39.2 25.45 -39.05 25.05 -38.45 23.85 -37.75 24.05 -38.8 M26.7 -41.1 Q26.55 -40.75 25.8 -40.7 25.1 -40.6 25.05 -41.1 L25.5 -42.1 Q26.0 -42.85 26.45 -42.25 27.0 -41.75 26.7 -41.1 M30.55 -31.9 Q30.45 -31.6 30.35 -31.85 30.15 -32.05 30.4 -32.3 L30.55 -31.9 M33.1 -36.2 L32.8 -35.85 32.7 -36.0 Q32.85 -36.2 33.1 -36.2 M29.0 -34.8 Q28.9 -35.15 29.25 -35.45 29.65 -35.05 29.0 -34.8 M36.4 -40.35 L36.2 -40.6 Q36.9 -40.8 36.75 -40.2 36.55 -40.15 36.4 -40.35 M34.9 -39.15 Q34.45 -38.25 34.75 -38.05 L35.0 -38.0 35.1 -37.75 Q34.45 -37.35 33.5 -37.9 32.45 -38.45 31.95 -38.25 32.3 -38.55 32.05 -39.15 31.75 -39.8 31.95 -40.1 32.1 -40.5 32.75 -40.45 L33.65 -40.2 Q34.9 -40.0 34.9 -39.15 M37.25 -42.9 L37.75 -42.15 Q37.65 -41.35 37.05 -41.8 36.5 -42.25 37.25 -42.9 M7.15 -26.85 Q6.85 -27.3 7.05 -27.4 L7.7 -27.7 7.55 -27.15 7.15 -26.85 M16.0 -24.8 L16.05 -26.2 16.6 -26.35 Q16.95 -26.6 17.1 -26.5 16.5 -26.2 16.55 -25.15 16.55 -24.15 16.25 -23.9 15.85 -23.65 16.0 -24.8 M-5.1 -24.85 L-4.75 -25.1 Q-4.35 -25.15 -4.3 -25.25 -4.45 -24.55 -5.1 -24.85 M-1.75 -28.8 Q-1.7 -28.35 -2.0 -28.1 L-2.6 -27.55 Q-2.55 -28.5 -1.75 -28.8 M1.85 -26.65 L1.85 -27.25 2.1 -27.0 1.85 -26.65 M4.2 -28.95 L4.4 -29.0 4.3 -28.65 Q4.05 -28.75 4.2 -28.95 M-0.75 -30.65 L-0.35 -30.6 Q-0.35 -30.1 -0.85 -30.0 -1.35 -29.95 -1.2 -30.6 L-0.75 -30.65 M2.3 -31.6 Q2.7 -32.15 2.5 -31.2 1.85 -31.05 2.3 -31.6 M4.0 -32.3 L3.95 -31.95 3.65 -32.0 Q3.6 -32.25 3.8 -32.25 L4.0 -32.3 M3.05 -30.1 Q3.45 -31.05 3.95 -30.8 3.55 -30.55 3.8 -29.85 4.0 -29.2 3.45 -28.95 L2.9 -29.1 2.4 -28.95 1.85 -29.95 2.1 -29.95 Q1.95 -29.45 2.4 -29.55 L3.05 -30.1 M-1.2 -33.05 L-2.0 -33.0 -1.5 -33.15 Q-1.3 -33.35 -1.2 -33.05 M-2.1 -31.2 L-2.0 -30.75 -2.3 -30.55 -2.55 -31.0 -2.45 -31.5 Q-2.2 -31.45 -2.1 -31.2 M-4.15 -31.55 Q-4.25 -30.95 -4.7 -31.2 -5.15 -31.45 -4.9 -31.95 L-4.15 -31.55 M-5.75 -31.1 L-5.85 -31.6 -5.55 -31.6 -5.75 -31.1 M-6.35 -32.6 Q-6.05 -32.95 -5.75 -32.85 -5.75 -32.05 -5.95 -31.8 L-6.35 -31.55 Q-6.6 -31.6 -6.65 -31.9 -6.7 -32.25 -6.35 -32.6 M1.65 -37.15 Q0.85 -37.6 1.35 -37.95 L2.05 -38.05 Q2.45 -37.95 2.65 -37.55 2.35 -36.75 1.65 -37.15 M11.8 -32.65 Q11.55 -32.75 11.7 -33.05 12.4 -33.05 12.1 -32.65 12.05 -32.45 11.8 -32.65 M12.45 -34.1 L11.95 -34.2 Q11.7 -34.45 11.7 -34.8 11.7 -35.45 12.1 -35.0 L12.45 -34.1 M15.8 -34.3 Q15.8 -33.9 15.4 -33.85 L15.45 -34.25 15.8 -34.3 M14.15 -34.3 Q13.55 -34.1 13.85 -34.65 14.2 -35.2 14.15 -34.3 M7.35 -33.0 L7.55 -33.55 7.9 -34.0 Q8.2 -33.8 8.0 -33.4 L7.35 -33.0 M7.3 -31.2 Q7.15 -31.5 7.5 -31.55 7.85 -31.6 8.45 -31.05 9.0 -30.6 9.5 -30.8 9.3 -30.2 8.5 -29.95 L7.25 -29.45 Q6.85 -29.8 7.2 -30.2 L7.6 -30.7 7.3 -31.2 M5.6 -33.7 L6.1 -34.25 Q6.35 -34.6 6.75 -34.25 7.15 -33.9 7.05 -33.0 6.9 -32.05 6.45 -32.0 L5.9 -32.8 Q5.5 -33.35 5.6 -33.7 M9.0 -33.85 L9.0 -34.25 9.4 -34.4 Q9.3 -33.95 9.65 -33.65 L10.35 -33.25 Q10.7 -33.05 10.6 -32.65 10.55 -32.3 10.15 -32.4 L9.25 -32.65 Q9.4 -32.95 8.9 -33.1 8.5 -33.15 8.5 -32.8 8.5 -32.35 8.2 -32.35 L8.4 -33.55 9.0 -33.85 M7.45 -39.05 Q6.45 -38.9 6.15 -39.75 5.95 -40.15 6.15 -40.5 L6.5 -41.2 7.3 -40.9 8.0 -40.45 Q8.2 -40.1 8.0 -39.65 L7.45 -39.05 M11.25 -40.6 Q10.85 -40.9 11.15 -41.15 11.35 -41.35 11.65 -40.95 L11.25 -40.6 M-6.05 -49.25 Q-5.9 -48.9 -6.2 -48.9 L-6.55 -49.15 -6.25 -49.4 -6.05 -49.25 M18.15 -44.8 Q17.85 -44.45 17.5 -44.9 17.25 -45.3 17.7 -45.6 18.1 -45.75 18.2 -45.4 L18.15 -44.8 M-12.3 -21.4 L-11.85 -21.4 Q-11.65 -21.35 -11.8 -20.9 -11.95 -20.45 -12.3 -20.4 -12.55 -20.8 -12.3 -21.4 M-15.9 -18.5 L-16.05 -19.0 -15.7 -19.0 -15.9 -18.5 M-16.1 -22.25 L-17.7 -22.45 Q-17.85 -23.3 -17.1 -23.1 -16.35 -22.9 -16.1 -22.25 M-14.4 -22.55 L-14.7 -22.25 -14.75 -22.55 -14.4 -22.55 M-14.4 -24.55 Q-14.25 -24.1 -15.0 -24.1 -15.25 -24.3 -14.9 -24.55 -14.65 -24.8 -14.4 -24.55 M-13.2 -23.8 Q-12.85 -23.6 -12.85 -23.05 -12.8 -22.55 -13.2 -22.45 -13.5 -23.5 -13.2 -23.8 M-13.95 -27.3 L-14.2 -27.4 -13.8 -27.4 -13.95 -27.3 M-14.7 -29.2 Q-14.05 -29.35 -14.1 -28.4 -14.1 -27.5 -14.75 -27.75 -15.25 -27.95 -15.2 -28.5 -15.15 -29.05 -14.7 -29.2 M-7.8 -25.1 L-9.5 -25.35 -9.85 -26.3 Q-10.1 -27.05 -9.55 -26.35 -9.3 -26.05 -8.7 -25.7 L-7.8 -25.1 M-11.05 -25.25 Q-11.0 -24.85 -11.45 -25.05 L-11.35 -25.25 -11.05 -25.25 M-11.85 -24.6 Q-11.45 -24.7 -11.1 -24.4 -10.75 -24.05 -11.25 -23.9 -11.95 -23.85 -11.85 -24.6 M-12.2 -26.6 L-11.55 -26.7 Q-11.55 -26.35 -11.95 -26.35 L-12.55 -26.25 Q-12.65 -26.6 -12.2 -26.6 M-12.35 -29.55 L-12.2 -29.2 -12.35 -28.9 Q-11.65 -28.6 -11.85 -28.1 L-12.2 -28.2 Q-12.4 -28.3 -12.55 -28.0 L-12.75 -27.7 Q-13.2 -27.7 -13.1 -28.2 L-12.75 -28.55 -12.8 -28.9 -13.1 -29.1 Q-13.25 -29.4 -12.85 -29.5 L-12.35 -29.55 M-9.6 -27.9 Q-9.95 -27.9 -10.0 -28.25 L-9.4 -28.3 Q-9.2 -27.9 -9.6 -27.9 M-7.0 -27.35 L-7.1 -27.8 -6.65 -27.65 -7.0 -27.35 M-8.6 -27.05 L-9.15 -27.8 -7.95 -27.4 Q-7.7 -27.25 -8.0 -27.05 -8.3 -26.9 -8.6 -27.05 M-21.75 -16.7 Q-21.55 -16.85 -21.75 -17.35 -21.95 -17.75 -21.6 -17.9 -21.6 -17.3 -20.75 -16.7 L-20.1 -16.45 Q-19.65 -16.35 -19.6 -16.1 L-20.5 -16.05 -21.75 -16.7 M-18.65 -19.55 Q-19.2 -20.15 -19.05 -20.8 -18.55 -21.6 -17.9 -21.0 -17.15 -20.45 -17.6 -19.7 -18.0 -18.95 -18.65 -19.55 M-29.3 -19.95 Q-28.8 -19.8 -29.15 -19.4 -29.45 -19.6 -29.3 -19.95 M-28.65 -19.15 L-28.45 -19.0 -28.4 -18.8 -28.65 -18.8 -28.65 -19.15 M-29.1 -26.7 L-29.65 -26.05 Q-29.85 -25.55 -30.25 -26.05 -29.85 -27.75 -29.1 -26.7 M-27.0 -26.75 Q-27.3 -27.0 -27.0 -27.3 L-26.65 -27.1 Q-26.7 -26.6 -27.0 -26.75 M-28.7 -27.65 L-28.9 -28.1 -29.25 -28.5 Q-29.35 -28.95 -28.7 -28.8 -28.05 -28.7 -27.85 -28.35 L-27.5 -27.0 Q-27.35 -26.2 -26.7 -26.1 -27.5 -25.45 -28.0 -26.2 L-28.7 -27.65 M-24.0 -24.8 L-23.75 -24.85 -23.6 -24.65 Q-23.55 -24.5 -23.8 -24.5 -24.1 -24.55 -24.0 -24.8 M-22.1 -25.45 Q-22.1 -25.0 -21.65 -25.1 -21.15 -25.15 -21.1 -24.85 -21.9 -24.7 -22.45 -24.15 -21.6 -24.0 -20.6 -22.65 L-21.3 -22.15 -21.65 -22.6 Q-21.8 -22.9 -22.1 -22.8 L-22.15 -22.2 -22.2 -21.7 -21.6 -21.45 -20.9 -21.25 -20.35 -20.95 -19.95 -20.55 -19.75 -19.45 Q-19.7 -19.35 -19.45 -19.3 L-19.15 -19.1 -18.5 -18.15 Q-18.15 -17.7 -19.45 -18.05 L-19.9 -18.7 -20.35 -19.2 -20.3 -18.4 Q-20.1 -17.8 -20.2 -17.55 -20.85 -17.6 -21.1 -17.9 -21.25 -18.2 -21.0 -18.4 L-20.85 -18.8 -21.75 -18.45 -22.4 -18.15 -22.6 -18.45 -22.9 -18.2 -22.0 -16.95 Q-22.05 -16.8 -22.2 -16.85 L-22.45 -17.1 Q-22.55 -17.4 -22.75 -17.3 L-23.15 -17.2 -23.7 -18.0 Q-23.85 -18.7 -24.1 -18.75 L-24.6 -17.7 Q-24.95 -17.2 -25.6 -17.25 -26.15 -17.1 -25.6 -16.55 L-24.8 -16.0 Q-25.2 -15.85 -25.2 -15.25 -25.2 -14.7 -24.9 -14.9 -24.8 -14.95 -24.65 -15.45 -24.45 -15.75 -24.15 -15.45 L-24.05 -14.9 -23.8 -14.45 Q-23.4 -14.3 -23.45 -14.75 L-23.65 -15.35 -22.85 -15.1 Q-22.4 -14.75 -22.1 -14.85 -22.5 -15.35 -21.8 -15.95 L-21.35 -16.0 -21.55 -15.35 Q-21.6 -14.65 -21.15 -14.55 -20.8 -14.5 -20.3 -14.85 -20.45 -14.45 -20.05 -14.35 L-19.35 -14.35 Q-17.6 -14.35 -17.1 -13.95 L-17.3 -15.65 -16.65 -15.3 Q-16.5 -15.55 -16.7 -15.65 L-17.1 -15.9 Q-16.8 -16.1 -17.25 -16.55 L-17.6 -16.5 -17.9 -16.25 -18.75 -16.35 Q-19.35 -16.3 -19.5 -16.75 L-19.55 -17.0 Q-19.55 -17.6 -19.05 -17.3 L-18.35 -16.95 Q-18.05 -17.1 -18.25 -17.3 L-18.25 -17.7 -17.55 -18.05 Q-17.3 -18.35 -15.95 -17.65 -14.85 -17.15 -15.05 -18.6 -15.2 -20.05 -13.85 -19.7 L-11.9 -19.85 -11.65 -19.65 -12.15 -19.45 -12.35 -19.1 Q-11.85 -18.7 -11.6 -18.85 L-10.95 -19.4 -10.1 -19.35 -10.5 -20.5 -10.1 -20.6 -9.75 -20.8 -10.2 -21.2 -10.7 -21.0 -11.35 -20.85 Q-11.75 -20.95 -11.35 -21.35 -11.2 -21.6 -10.5 -21.7 -9.85 -21.75 -9.95 -22.3 L-9.4 -21.85 Q-9.05 -21.6 -9.05 -22.2 L-9.15 -22.6 -9.45 -22.9 -9.3 -23.35 Q-9.1 -23.6 -9.2 -23.8 L-8.15 -23.1 Q-8.25 -23.5 -7.55 -24.0 L-7.05 -24.05 -6.55 -23.65 Q-6.35 -23.5 -6.2 -23.65 L-5.9 -23.8 -5.5 -23.7 -4.85 -23.7 -4.1 -23.75 Q-3.6 -23.7 -3.45 -22.95 -3.1 -22.8 -3.05 -23.1 L-2.9 -23.7 -3.05 -24.7 Q-3.05 -25.4 -2.55 -25.35 L-1.9 -25.25 Q-1.5 -25.1 -1.4 -25.45 -1.9 -25.7 -1.8 -26.25 L-1.45 -27.15 -0.85 -27.05 Q-0.6 -26.9 -0.4 -27.25 -0.15 -27.1 -0.5 -26.35 L-0.95 -25.35 Q-0.95 -24.1 -0.55 -24.65 L0.0 -25.5 Q0.35 -26.05 0.8 -26.1 L0.8 -25.4 Q0.8 -25.0 1.2 -24.9 L1.6 -25.5 Q1.9 -25.9 2.25 -25.7 2.05 -26.25 2.45 -26.7 2.9 -27.15 3.5 -27.1 3.2 -28.4 4.65 -28.4 5.05 -28.4 6.25 -26.45 6.65 -26.55 6.95 -25.75 7.3 -24.95 8.0 -25.4 8.2 -25.15 7.85 -24.95 L7.3 -24.5 8.05 -24.4 8.2 -25.05 8.85 -25.0 Q9.25 -24.8 9.3 -25.1 L8.35 -25.7 7.3 -25.75 7.25 -26.3 7.6 -26.6 8.05 -26.9 8.6 -27.15 Q9.6 -27.3 9.5 -26.65 9.3 -25.75 9.5 -25.55 10.45 -26.2 10.45 -27.7 L10.0 -27.45 Q9.65 -27.45 9.75 -27.85 9.9 -28.25 9.5 -28.3 9.2 -28.65 9.7 -28.9 10.15 -29.05 10.1 -28.4 L10.95 -28.2 10.85 -28.7 Q10.8 -29.0 10.9 -29.15 L11.65 -28.75 12.45 -28.8 12.25 -29.45 Q12.05 -29.75 12.1 -30.1 L12.35 -30.8 Q12.25 -31.1 11.85 -31.2 L11.35 -31.65 10.8 -31.85 Q10.8 -32.25 11.8 -32.2 12.85 -32.15 13.0 -32.75 L13.55 -32.2 Q13.7 -31.8 13.35 -31.5 L14.55 -31.55 15.65 -32.05 16.45 -32.55 17.3 -32.95 Q18.15 -33.1 18.15 -34.5 18.1 -35.85 19.0 -35.9 19.9 -35.95 19.7 -35.0 L18.95 -33.7 Q18.35 -33.2 18.3 -32.85 18.3 -32.55 19.05 -32.25 18.75 -32.75 19.25 -33.15 L19.95 -33.9 20.75 -33.65 Q21.15 -33.35 21.4 -33.4 L22.4 -33.35 23.35 -33.45 24.55 -33.55 25.6 -32.7 Q25.5 -32.45 25.2 -32.55 L24.75 -32.6 24.3 -31.55 23.2 -31.5 21.75 -32.0 21.95 -31.6 22.0 -31.2 Q21.75 -31.65 21.3 -31.5 20.8 -31.4 21.15 -31.05 21.3 -30.85 21.05 -30.65 L20.65 -30.3 Q20.45 -30.0 20.8 -29.8 L20.95 -29.35 21.8 -29.4 22.3 -30.3 Q22.65 -29.9 22.95 -30.15 L23.5 -30.4 Q23.85 -30.35 23.85 -29.95 L23.75 -29.35 23.8 -28.7 Q23.85 -28.4 23.55 -28.25 23.4 -29.0 22.6 -29.3 22.75 -28.8 22.4 -28.2 L21.8 -27.1 21.1 -27.7 Q21.95 -28.3 21.15 -28.55 20.45 -28.75 20.5 -27.85 L20.6 -26.55 20.3 -25.9 19.8 -25.45 Q19.9 -24.8 19.65 -24.7 L19.15 -24.4 18.95 -23.85 Q18.7 -23.45 18.5 -23.6 18.2 -23.7 18.2 -24.1 18.2 -25.25 18.9 -25.55 L18.2 -25.4 17.35 -24.95 17.4 -25.55 17.85 -26.1 Q18.5 -26.3 17.85 -26.65 17.1 -26.85 17.05 -27.05 L17.1 -27.65 16.65 -28.0 Q17.2 -27.3 16.05 -26.5 L16.1 -27.1 Q16.2 -27.5 15.8 -27.65 15.75 -28.1 16.15 -28.2 L16.85 -28.3 Q17.45 -28.35 16.2 -29.15 14.85 -29.4 14.6 -30.0 L13.85 -29.1 Q13.7 -28.95 13.35 -28.9 L12.95 -28.55 13.75 -28.4 13.7 -27.85 Q13.65 -27.45 14.1 -27.7 14.85 -28.1 14.55 -27.15 L14.15 -25.85 15.1 -26.1 Q15.7 -26.05 15.5 -25.55 15.3 -25.1 15.0 -25.55 14.8 -25.65 14.25 -24.95 13.85 -24.85 14.4 -24.55 L14.95 -24.3 Q14.2 -24.2 14.7 -23.05 L15.25 -21.55 14.6 -21.45 Q14.3 -21.25 14.5 -20.9 L15.1 -20.95 15.75 -20.9 Q16.25 -21.7 16.85 -21.65 L16.85 -20.9 17.45 -21.45 Q17.9 -21.85 17.75 -22.1 L17.1 -22.15 Q16.6 -22.0 16.45 -22.15 L16.85 -22.6 17.0 -23.0 16.8 -23.5 17.2 -24.1 Q17.55 -24.4 17.7 -24.0 L17.65 -23.35 Q17.5 -23.0 17.7 -22.8 L18.95 -22.85 20.25 -22.25 21.5 -22.5 Q22.25 -22.6 22.1 -21.75 L21.7 -21.25 Q21.4 -20.95 21.55 -20.85 L22.15 -20.8 Q22.5 -20.85 22.6 -20.5 L24.2 -20.65 25.85 -20.6 Q26.15 -20.35 25.65 -20.05 L24.85 -19.85 24.8 -18.75 24.75 -17.9 25.55 -17.1 Q25.75 -16.9 25.85 -17.0 L26.05 -17.1 25.95 -16.6 25.9 -16.25 Q26.0 -16.05 26.3 -16.05 26.6 -16.05 26.7 -16.25 27.0 -16.7 27.25 -16.6 L27.8 -16.8 27.7 -16.25 27.45 -15.65 27.55 -15.1 27.8 -14.55 Q27.9 -13.7 28.05 -14.0 L28.65 -14.55 28.25 -13.5 Q27.95 -12.85 27.95 -12.4 L27.8 -11.9 27.65 -11.55 27.95 -10.85 27.1 -11.1 Q26.65 -11.2 26.3 -10.85 26.2 -10.65 26.65 -10.65 L27.3 -10.65 Q28.35 -10.05 28.5 -9.35 28.7 -8.55 27.5 -8.2 27.45 -7.95 27.7 -7.6 L27.9 -7.05 Q28.3 -7.05 28.35 -6.8 L28.4 -6.25 28.8 -5.6 Q29.15 -5.2 28.9 -4.9 L28.5 -4.6 Q28.25 -4.5 28.5 -4.2 30.1 -5.3 30.3 -4.3 L30.8 -3.75 Q31.15 -3.4 30.7 -3.25 L31.05 -2.2 31.1 -1.05 31.55 -0.05 31.6 0.8 Q31.35 0.35 30.95 0.55 30.5 0.65 30.8 1.0 L31.45 1.35 31.95 1.65 Q32.15 2.0 31.95 2.25 31.7 2.55 31.35 2.25 L30.8 1.75 Q30.4 1.5 30.15 2.0 30.3 1.2 28.85 0.6 L28.2 0.5 27.5 0.55 27.25 0.3 Q27.1 0.3 27.25 0.6 L27.8 1.0 28.25 1.5 26.9 1.35 Q26.6 1.55 26.65 1.85 L27.1 1.95 Q27.8 1.75 28.05 2.4 28.4 3.05 27.95 3.5 L28.9 3.4 29.45 3.15 Q29.3 3.0 29.55 2.75 30.45 1.95 30.95 2.35 32.0 3.1 32.4 4.1 32.65 4.7 32.25 4.9 L31.35 5.4 30.8 5.65 30.25 6.0 28.75 5.3 Q28.45 5.15 28.45 4.75 L28.35 4.1 Q27.95 3.8 27.55 3.95 L26.8 4.05 Q27.9 2.95 26.55 2.6 25.05 2.2 25.2 3.25 L25.6 3.7 Q25.9 4.0 25.8 4.2 L25.25 4.35 24.65 4.3 24.85 3.8 Q24.45 3.7 23.9 4.4 L23.35 4.75 22.7 5.25 Q22.5 5.6 22.7 5.7 L23.0 5.5 23.2 5.05 23.75 5.1 Q23.55 5.45 23.85 5.7 L24.25 6.3 Q24.35 6.7 23.9 6.7 23.4 6.7 23.4 7.05 L23.9 7.05 Q23.85 7.45 23.1 7.75 22.95 8.0 23.05 8.35 L23.05 8.9 Q23.45 8.8 24.15 9.25 24.8 9.75 25.25 9.6 24.4 8.85 24.55 7.85 24.55 7.35 24.7 7.05 24.85 6.65 25.25 6.9 L26.25 7.7 Q26.7 7.9 26.8 6.9 L27.4 7.1 Q27.0 7.45 27.25 8.15 L27.45 9.25 26.75 9.1 Q26.75 9.95 27.25 10.1 L26.9 10.45 26.6 10.8 Q26.3 10.85 26.2 10.55 L25.9 10.2 25.6 10.75 24.85 10.35 Q24.6 10.3 24.15 10.6 23.5 11.1 24.15 11.15 L24.95 11.15 Q24.35 11.6 24.65 12.15 24.95 12.75 25.55 12.85 26.0 12.9 26.25 13.6 L26.7 14.65 Q26.4 14.95 26.25 15.65 L25.8 16.6 25.35 17.05 24.8 17.4 Q23.85 17.6 23.6 17.75 L21.6 16.25 Q20.35 15.3 20.3 16.6 L19.9 17.3 Q19.65 17.75 19.85 18.1 20.05 18.35 21.2 17.45 21.3 18.05 21.95 18.6 22.3 18.1 23.2 18.2 24.4 18.35 23.85 19.55 L22.7 20.6 Q21.9 21.15 21.9 21.75 L21.55 21.7 21.5 22.3 Q21.45 22.8 21.1 22.5 L20.8 21.55 Q20.55 20.8 20.35 21.1 L20.55 22.1 Q20.65 22.6 19.85 22.35 L20.05 21.5 19.1 22.2 18.25 23.0 Q17.8 23.1 17.25 22.65 16.85 22.75 16.85 23.1 L16.85 23.8 Q17.35 23.95 17.0 24.2 16.55 24.55 16.8 24.85 L16.3 24.6 Q16.2 25.8 14.65 25.6 13.05 25.45 13.3 24.15 L12.45 23.85 Q11.95 23.55 12.2 24.45 12.6 25.6 10.1 25.6 9.35 25.65 9.25 26.35 L8.9 27.7 Q8.45 28.5 7.45 28.5 L6.25 28.75 6.1 27.1 Q6.0 26.2 6.45 25.6 6.05 25.8 5.9 25.4 L5.65 24.7 Q5.45 24.05 4.9 24.35 4.45 24.65 4.7 25.25 L2.5 25.15 Q1.9 24.75 1.55 24.65 0.95 24.4 0.6 25.0 0.8 25.55 1.5 25.8 L2.75 26.0 Q4.35 26.2 3.95 27.6 3.85 28.0 2.8 28.45 1.95 28.85 2.2 29.55 1.65 29.55 1.65 29.1 0.95 30.35 -0.6 28.1 -1.2 27.25 -1.2 26.5 L-1.0 24.8 Q-0.95 24.4 -1.15 24.4 L-1.4 24.25 Q-1.5 23.95 -1.8 24.15 L-2.25 24.4 -2.6 24.4 -3.0 24.35 -3.75 24.75 Q-3.5 24.95 -3.4 25.75 L-3.05 26.85 -2.5 27.1 Q-2.15 27.1 -2.05 27.25 L-1.4 27.95 Q-1.2 28.3 -1.8 28.6 L-4.1 28.5 Q-4.25 28.05 -4.6 28.2 L-5.35 28.25 -5.95 28.3 Q-6.35 28.4 -6.5 28.1 -6.5 27.9 -5.95 27.65 -5.55 27.45 -5.7 27.05 L-7.35 27.6 Q-8.15 27.8 -8.1 26.45 -8.5 26.5 -8.8 26.0 -9.15 25.45 -9.6 25.55 -9.45 25.05 -9.75 24.95 -10.1 24.8 -10.0 25.15 -9.9 25.65 -10.3 25.65 L-10.75 25.2 Q-11.45 25.35 -12.6 24.65 L-13.25 23.9 -14.1 23.9 Q-14.4 23.8 -14.3 23.15 L-14.75 23.05 Q-14.5 22.8 -13.9 22.8 L-12.8 22.5 Q-11.95 22.3 -12.35 22.1 L-13.45 21.95 Q-14.1 21.95 -14.75 21.4 L-15.8 20.3 -16.1 19.85 -16.65 19.95 Q-17.5 20.65 -18.3 20.2 -18.35 20.1 -19.8 19.3 -20.95 18.65 -19.9 18.15 -18.7 17.85 -18.3 17.45 -18.15 17.35 -18.15 16.55 -18.1 15.9 -17.6 15.9 L-18.25 15.05 Q-18.05 14.9 -17.45 15.25 -16.95 15.4 -17.2 14.85 L-17.85 14.05 Q-18.3 13.6 -18.25 13.15 -18.35 12.8 -18.65 12.85 L-19.05 13.2 -18.75 14.45 -18.65 15.35 Q-18.65 15.75 -18.05 15.85 -18.5 16.55 -19.3 16.05 L-20.4 15.05 Q-20.7 14.45 -20.05 14.35 -19.3 14.25 -19.25 13.95 L-20.95 14.05 -21.4 14.45 -20.85 14.65 Q-22.4 16.2 -22.3 15.2 -21.35 14.75 -23.0 14.6 -23.35 14.65 -23.3 14.95 L-23.05 15.45 Q-22.9 15.9 -23.55 15.65 -24.0 15.4 -23.4 15.1 -23.7 15.25 -24.05 14.9 L-24.55 14.2 Q-25.15 13.7 -25.35 14.8 -25.55 15.75 -25.35 16.25 L-26.15 15.3 Q-26.65 14.65 -27.2 14.8 -27.5 14.8 -27.25 14.35 L-26.9 13.85 Q-26.65 13.65 -26.95 13.2 L-27.4 12.6 -29.1 11.65 -30.05 11.25 Q-29.95 10.9 -30.2 10.85 -30.65 10.8 -31.7 11.35 L-33.15 11.55 -33.8 11.5 -34.5 11.7 -34.75 11.2 -35.05 10.7 -34.75 10.4 -34.3 10.5 -33.7 10.8 Q-33.5 10.85 -33.3 10.5 L-31.25 10.45 Q-29.85 10.7 -30.55 9.5 L-31.75 9.6 Q-32.6 9.4 -32.65 8.95 -32.4 8.35 -32.6 8.1 -32.75 7.85 -33.05 7.95 L-33.05 7.5 Q-33.1 7.1 -34.35 6.4 -35.25 5.9 -34.6 5.05 -34.5 4.9 -34.7 4.45 -34.9 4.05 -34.55 4.0 -34.5 4.75 -33.85 4.75 L-32.7 4.6 Q-32.15 4.65 -32.4 5.5 L-32.3 6.25 -31.85 6.85 -31.45 6.35 Q-31.05 6.05 -31.4 5.7 -30.9 5.9 -30.9 5.0 -30.95 4.85 -31.35 4.75 L-31.65 4.45 -31.15 3.95 -30.45 3.95 -30.25 3.5 -29.8 3.55 Q-30.25 3.95 -30.15 4.8 -30.05 4.6 -29.5 4.5 L-28.85 4.3 -28.65 3.95 -28.4 3.7 Q-27.9 3.6 -27.85 4.3 L-27.85 5.3 -28.3 5.25 Q-28.6 5.2 -28.7 5.45 L-28.1 6.25 -27.35 5.5 Q-26.9 5.15 -27.2 4.6 -26.8 4.6 -26.5 3.4 -26.25 2.4 -25.4 2.95 L-25.35 2.6 Q-24.8 3.05 -24.35 2.95 L-24.8 1.85 Q-24.9 1.45 -25.15 1.75 L-25.55 2.3 -26.3 1.45 Q-26.55 1.1 -26.0 0.5 -26.3 0.65 -26.9 0.1 L-27.75 0.0 -28.25 -0.5 -28.55 -1.0 -28.15 -1.3 -28.2 -1.65 Q-28.4 -1.85 -28.2 -2.0 -28.0 -1.25 -26.65 -0.5 -26.15 0.0 -25.85 -0.3 L-26.5 -1.4 Q-26.85 -2.05 -26.65 -2.6 L-26.05 -2.15 Q-25.55 -2.1 -25.7 -2.5 L-26.15 -3.05 Q-26.4 -3.35 -26.1 -3.5 -25.65 -3.65 -25.55 -3.8 L-25.75 -4.55 -26.4 -4.95 -26.85 -4.6 -26.65 -5.45 -27.35 -5.55 Q-27.8 -5.6 -27.75 -5.95 -28.05 -6.3 -28.05 -5.95 L-28.05 -5.45 Q-28.0 -5.05 -28.4 -5.15 -28.8 -5.35 -28.7 -5.75 -29.25 -5.55 -29.7 -6.0 -30.15 -6.5 -30.1 -6.95 L-29.3 -6.9 -28.85 -6.7 -28.45 -6.35 Q-28.1 -6.25 -27.9 -6.55 L-27.65 -7.1 Q-27.4 -7.85 -26.6 -7.3 L-25.45 -7.6 Q-24.9 -7.95 -24.9 -8.55 -25.05 -8.35 -25.45 -8.35 L-26.05 -8.3 -26.0 -9.55 -25.45 -9.2 Q-25.25 -8.95 -25.0 -9.2 -25.3 -9.35 -25.25 -9.85 L-25.2 -10.6 -25.55 -10.65 -26.0 -10.7 -26.2 -10.9 -26.45 -10.3 -26.9 -10.6 Q-26.4 -9.8 -27.7 -9.85 -28.9 -9.9 -28.85 -10.85 L-29.4 -10.65 Q-29.75 -10.45 -29.7 -10.9 L-29.3 -11.25 Q-29.0 -11.45 -29.1 -11.7 -28.65 -11.6 -28.6 -11.85 L-28.55 -12.45 Q-28.4 -12.8 -28.15 -12.45 L-27.9 -11.95 Q-27.65 -11.95 -27.1 -12.65 -26.7 -13.1 -26.25 -12.65 -26.5 -13.15 -26.1 -13.45 L-25.4 -13.9 Q-24.95 -14.35 -25.55 -14.5 -26.1 -14.7 -26.5 -14.25 -26.85 -13.85 -27.4 -14.25 L-27.05 -14.7 Q-26.7 -14.8 -26.9 -15.05 L-27.85 -15.1 -28.7 -14.3 Q-27.75 -13.45 -27.05 -13.5 L-27.05 -13.3 -27.8 -13.45 Q-28.0 -12.6 -28.3 -13.1 L-28.85 -14.15 Q-29.0 -14.7 -28.65 -15.3 -28.45 -15.75 -28.6 -16.85 L-27.5 -17.1 Q-27.2 -17.15 -27.25 -18.1 -27.25 -19.55 -27.4 -20.25 -27.2 -21.25 -27.7 -21.6 L-28.45 -22.1 Q-29.25 -22.3 -29.5 -22.8 -29.95 -23.5 -29.4 -23.75 -28.55 -24.05 -28.5 -24.2 L-27.6 -22.25 Q-27.05 -20.9 -26.45 -22.25 -26.95 -22.2 -27.1 -22.8 L-27.5 -23.65 -26.95 -24.4 Q-26.45 -24.85 -26.45 -25.15 L-26.25 -25.55 -26.05 -25.95 -26.0 -26.75 Q-26.4 -27.4 -25.65 -27.85 L-24.4 -28.55 Q-24.8 -27.9 -24.1 -27.1 -23.45 -26.45 -23.95 -26.15 L-24.95 -25.15 Q-25.15 -24.85 -24.9 -24.65 L-24.25 -24.5 -24.85 -24.15 Q-25.25 -24.0 -24.65 -23.65 L-24.05 -23.0 -23.65 -22.7 -23.15 -22.9 Q-22.9 -22.6 -22.6 -23.05 -22.4 -23.5 -22.7 -23.7 -23.35 -23.85 -23.4 -24.25 -23.05 -24.4 -22.95 -24.95 L-22.8 -25.7 Q-22.6 -25.85 -22.1 -25.45 M-20.15 -28.5 Q-19.05 -27.35 -19.8 -26.55 -20.75 -25.65 -21.5 -26.35 -22.15 -27.1 -21.8 -28.25 -21.3 -29.55 -20.15 -28.5 M-22.45 -32.8 L-22.0 -32.8 Q-21.9 -32.4 -22.1 -32.45 L-22.45 -32.8 M-26.1 -31.05 L-26.45 -30.75 -26.45 -31.1 -26.1 -31.05 M-25.7 -33.0 Q-25.35 -33.35 -25.2 -32.8 L-25.45 -32.6 -25.7 -33.0 M-25.0 -36.85 L-24.95 -36.7 Q-24.9 -36.55 -25.15 -36.5 -25.35 -36.95 -25.0 -36.85 M-7.75 -31.55 L-7.3 -31.75 Q-6.95 -31.9 -7.05 -31.55 L-7.25 -31.25 -7.3 -31.0 -6.6 -30.85 -6.05 -30.6 Q-5.95 -30.0 -5.4 -30.15 L-4.75 -30.25 Q-4.45 -30.25 -4.5 -29.8 -5.05 -30.0 -4.9 -29.55 L-4.65 -28.95 Q-5.15 -28.65 -4.95 -28.35 -4.7 -28.1 -4.6 -28.35 -4.45 -28.95 -4.2 -28.6 -3.9 -28.3 -4.2 -27.85 -4.25 -27.7 -4.6 -27.3 -4.75 -26.95 -4.2 -26.85 L-5.65 -24.85 -6.75 -25.05 -5.8 -25.85 Q-6.1 -25.8 -6.35 -26.25 L-6.5 -26.9 -6.05 -26.75 Q-5.7 -26.65 -5.75 -27.15 -5.75 -27.8 -5.55 -27.55 L-4.95 -27.4 Q-5.3 -27.5 -5.35 -27.9 L-5.4 -28.6 -5.8 -29.15 Q-6.2 -29.4 -6.3 -28.95 -6.5 -28.1 -6.75 -28.65 -7.15 -29.4 -7.6 -29.0 L-7.85 -29.55 Q-7.95 -29.3 -8.3 -29.3 -8.7 -29.3 -8.65 -29.6 -9.55 -30.65 -7.75 -31.55 M-8.95 -33.35 Q-9.0 -33.1 -9.3 -33.0 L-9.4 -33.5 Q-9.45 -33.95 -9.1 -33.8 -8.8 -33.55 -8.95 -33.35 M-9.8 -32.85 L-9.9 -32.55 -10.1 -32.85 -9.8 -32.85" fill="#000000" fill-rule="evenodd" stroke="none"/>
  </g>
</svg>
