<?xml version="1.0" encoding="UTF-8" standalone="no"?>
<svg xmlns:xlink="http://www.w3.org/1999/xlink" height="88.1px" width="99.95px" xmlns="http://www.w3.org/2000/svg">
  <g transform="matrix(1.0, 0.0, 0.0, 1.0, 49.95, 44.05)">
    <path d="M-8.15 8.4 Q-15.0 2.75 -14.9 -2.2 -14.85 -5.4 -12.65 -7.65 -10.35 -9.95 -7.15 -10.15 -1.4 -10.4 2.05 -3.3 4.6 -9.6 9.8 -10.2 13.4 -10.7 16.05 -8.85 18.75 -7.0 19.15 -3.45 19.85 2.45 13.5 8.1 L7.55 12.95 Q4.15 15.7 2.35 18.35 0.7 15.7 -2.5 12.95 L-8.15 8.4" fill="#000000" fill-rule="evenodd" stroke="none"/>
    <path d="M29.55 -6.5 Q29.75 -7.95 30.2 -8.1 30.65 -8.3 31.0 -8.1 31.4 -7.85 31.0 -7.4 L30.35 -6.95 29.9 -6.5 29.65 -4.85 29.45 -4.45 29.55 -6.5 M29.3 -15.35 L28.25 -15.25 27.0 -15.7 Q26.9 -16.6 28.25 -16.6 29.65 -16.5 29.3 -15.35 M29.45 -12.5 Q29.9 -12.7 30.3 -11.85 30.65 -11.15 30.45 -10.7 29.45 -11.85 29.45 -12.5 M30.9 -13.05 L30.85 -13.6 Q32.2 -13.6 31.45 -12.75 31.2 -12.7 30.9 -13.05 M32.45 -15.9 Q32.1 -14.95 33.0 -15.05 33.95 -15.15 33.75 -15.8 L33.3 -16.95 Q32.75 -16.7 32.45 -15.9 M20.25 -7.1 Q19.6 -9.6 17.4 -11.15 15.4 -12.6 12.65 -12.75 L12.2 -12.95 12.0 -13.4 11.85 -14.35 11.1 -14.5 10.35 -14.5 Q10.35 -14.8 10.65 -14.8 L11.1 -14.95 10.85 -15.25 10.35 -15.35 Q14.0 -17.5 18.05 -18.0 22.6 -18.45 25.7 -16.25 28.55 -14.15 29.45 -10.4 L29.75 -7.65 Q29.35 -7.3 29.0 -6.4 29.2 -6.3 29.2 -5.1 29.2 -4.1 29.45 -4.45 29.1 -1.75 27.65 0.65 26.7 0.55 26.0 1.75 25.15 2.9 26.15 2.75 L24.05 5.3 23.45 4.3 Q22.95 3.65 23.25 3.2 23.6 2.75 22.9 2.35 L21.95 1.9 23.15 2.0 24.55 2.2 Q25.25 2.9 25.25 2.35 25.35 1.75 24.8 1.65 24.15 1.3 23.6 1.3 L22.45 1.3 Q22.05 1.35 21.6 0.65 L20.85 -0.35 Q20.4 -0.9 20.8 -1.2 L21.35 -1.8 Q20.8 -2.1 20.8 -2.3 20.6 -2.55 20.6 -3.55 20.8 -5.55 20.25 -7.1 M26.25 -10.95 Q26.0 -9.75 26.45 -9.4 26.8 -9.1 27.7 -11.75 27.45 -11.85 27.1 -11.2 26.8 -10.6 26.25 -10.95 M21.35 -7.2 L21.35 -5.75 Q21.35 -4.85 20.8 -4.4 21.6 -4.4 22.5 -3.75 23.8 -2.75 24.05 -2.65 24.45 -2.35 25.15 -2.35 26.0 -2.3 25.8 -2.85 L25.45 -3.1 Q25.1 -3.2 25.1 -3.45 25.1 -3.65 25.8 -4.65 26.25 -5.4 25.8 -6.0 L24.45 -6.95 23.9 -7.1 Q23.6 -7.2 24.0 -7.5 L23.05 -7.55 22.35 -7.85 Q21.4 -8.05 21.35 -7.2 M25.1 -18.35 Q25.55 -18.35 25.55 -18.05 L25.55 -17.5 Q25.15 -17.5 25.1 -17.8 24.9 -18.05 25.1 -18.35 M22.5 -19.55 Q22.35 -20.35 22.6 -20.45 L23.9 -20.6 Q23.8 -20.15 23.35 -19.9 L22.5 -19.55 M18.75 -27.2 Q18.15 -26.85 18.15 -25.9 L18.25 -25.3 17.6 -25.2 15.6 -24.8 15.05 -26.55 15.6 -26.35 Q15.05 -25.75 15.85 -25.75 16.6 -25.65 17.05 -26.2 18.05 -27.75 18.75 -27.2 M18.5 -24.0 Q18.25 -23.65 18.4 -23.55 18.6 -23.45 18.85 -24.1 L18.5 -24.0 M26.0 -24.25 L23.8 -24.9 24.55 -25.55 Q24.8 -25.8 24.55 -26.3 24.35 -26.75 24.6 -27.0 24.8 -27.3 25.15 -27.0 L26.45 -25.8 Q27.1 -25.2 27.9 -25.2 27.25 -24.1 26.0 -24.25 M31.0 -20.8 L29.9 -21.0 Q29.3 -20.8 29.2 -20.15 29.1 -19.55 29.55 -18.25 29.55 -17.8 30.45 -17.9 L31.65 -18.15 Q32.2 -19.35 31.4 -20.35 33.55 -17.9 34.75 -14.35 L35.4 -10.75 35.4 -7.85 Q35.05 -1.75 33.65 -1.35 L32.85 -1.2 Q32.45 -1.2 32.55 -1.75 32.55 -2.85 31.9 -2.3 L32.3 -3.9 Q32.45 -5.0 32.95 -5.0 L33.1 -6.5 Q33.2 -7.4 32.65 -6.55 32.95 -9.95 32.0 -12.85 L32.55 -11.95 Q32.85 -11.5 33.1 -11.75 L33.85 -12.4 Q34.4 -12.75 34.65 -12.4 35.1 -13.5 34.55 -13.85 34.0 -14.25 33.4 -13.15 31.9 -14.15 31.85 -13.6 29.3 -21.55 20.4 -21.8 16.85 -21.9 12.75 -20.25 11.55 -19.8 10.65 -19.15 L9.35 -18.8 8.55 -17.8 7.25 -16.8 Q6.9 -18.0 6.15 -17.45 L5.9 -17.8 Q5.9 -17.35 5.25 -17.25 4.55 -17.25 4.35 -16.95 3.9 -16.35 4.45 -15.9 4.8 -15.6 5.55 -15.25 L5.0 -14.7 Q4.15 -15.7 3.35 -15.7 3.35 -15.35 2.95 -15.15 2.7 -14.95 2.6 -15.5 L2.6 -16.05 2.25 -16.35 Q3.15 -16.8 4.55 -18.25 L6.8 -20.45 Q9.3 -22.45 12.3 -23.7 14.1 -24.45 15.6 -24.8 L17.75 -24.45 Q18.25 -24.75 18.25 -25.2 L20.35 -25.3 23.8 -24.9 Q23.45 -24.35 23.7 -23.7 26.35 -25.45 31.0 -20.8 M33.3 -25.2 Q33.85 -24.8 33.65 -23.9 33.55 -23.35 32.0 -24.1 31.45 -24.35 31.85 -25.0 32.1 -25.55 33.3 -25.2 M48.9 -8.65 L49.35 -9.5 49.75 -9.2 49.75 -8.65 48.9 -8.65 M45.6 -16.25 L45.05 -16.35 Q45.55 -16.8 45.9 -16.5 45.9 -16.15 45.6 -16.25 M48.2 -14.05 L48.55 -14.4 48.75 -13.85 Q48.75 -13.5 48.35 -13.5 48.2 -13.7 48.2 -14.05 M48.1 -15.6 Q48.1 -14.8 47.55 -14.8 46.9 -14.8 46.8 -15.35 46.8 -15.95 47.35 -15.95 48.0 -16.35 48.1 -15.6 M42.05 -8.5 L42.8 -8.85 Q43.5 -7.85 41.95 -8.05 41.4 -8.1 42.05 -8.5 M41.4 -9.6 L40.7 -9.3 Q40.35 -9.6 40.8 -9.6 L41.4 -9.6 M36.6 -5.4 L36.15 -5.65 Q35.65 -5.75 35.75 -6.1 35.85 -6.55 36.4 -6.75 L37.3 -7.0 Q38.05 -7.4 38.85 -6.55 L40.05 -5.0 Q40.7 -4.3 40.05 -4.4 L38.95 -4.65 Q39.5 -3.85 38.6 -2.3 37.7 -0.8 38.7 0.1 38.4 0.45 37.7 -0.1 37.05 -0.45 36.6 0.55 36.05 1.9 34.2 0.8 33.75 0.55 33.5 1.1 33.1 1.65 32.85 1.35 L34.0 -1.35 Q34.3 -1.2 33.95 -0.45 33.75 -0.1 34.55 -0.45 L35.65 -0.8 36.4 -1.45 Q36.5 -2.45 35.85 -2.45 34.95 -2.55 34.75 -2.85 34.75 -3.45 35.5 -3.55 36.3 -3.75 36.3 -4.4 35.4 -4.75 35.95 -4.95 L36.6 -5.4 M36.95 -15.8 Q37.6 -15.35 36.75 -15.25 36.4 -16.35 36.95 -15.8 M38.95 -10.85 Q39.05 -11.3 39.25 -11.15 L39.4 -10.7 Q39.4 -10.4 38.85 -9.65 L38.4 -8.3 Q37.7 -8.1 37.3 -8.65 36.95 -9.1 37.5 -9.65 38.4 -10.75 38.95 -10.85 M42.5 -16.5 L42.95 -16.8 Q43.35 -16.95 43.45 -16.6 L42.9 -16.35 Q42.6 -16.25 42.5 -16.5 M38.3 -17.5 L38.7 -17.5 39.05 -17.25 Q39.05 -16.9 38.25 -16.9 L38.3 -17.5 M40.25 -17.25 Q39.95 -17.7 40.35 -18.05 L40.95 -18.0 40.95 -17.05 Q40.5 -16.9 40.25 -17.25 M37.3 -18.7 Q36.95 -18.8 37.15 -19.15 38.05 -19.45 37.75 -18.9 37.6 -18.6 37.3 -18.7 M37.5 -18.0 L36.85 -17.7 Q36.6 -18.0 36.95 -18.25 37.4 -18.6 37.5 -18.0 M40.05 -21.7 Q39.8 -21.15 39.3 -21.15 38.6 -21.25 38.95 -22.0 39.25 -22.65 39.85 -22.45 40.35 -22.25 40.05 -21.7 M37.05 -27.0 Q36.75 -26.45 36.15 -27.1 35.6 -27.85 36.5 -28.1 L37.05 -27.0 M39.05 -25.75 Q38.4 -25.35 38.15 -25.3 37.6 -25.1 37.4 -25.75 37.2 -26.55 37.95 -27.1 38.6 -27.55 39.05 -26.9 39.6 -26.35 39.05 -25.75 M36.3 -24.0 Q37.05 -23.9 37.15 -22.9 37.3 -22.1 35.05 -21.25 34.2 -21.1 33.75 -20.6 L33.4 -19.9 Q33.3 -19.45 32.85 -19.35 32.55 -19.6 32.45 -20.35 32.45 -21.15 32.1 -21.45 33.0 -21.15 33.75 -22.0 L34.95 -23.45 Q35.6 -24.1 36.3 -24.0 M41.7 -25.0 Q43.25 -24.2 42.35 -23.25 L41.8 -22.55 Q41.4 -22.15 40.95 -22.25 39.05 -22.35 39.7 -24.0 40.4 -25.65 41.7 -25.0 M46.8 -17.7 L47.2 -17.45 Q47.2 -16.95 46.7 -16.95 46.35 -16.9 46.45 -17.45 46.55 -17.7 46.8 -17.7 M49.35 -17.7 L49.45 -18.45 Q49.9 -18.8 50.0 -18.15 50.1 -17.6 49.35 -17.7 M30.45 -28.1 Q31.0 -28.3 31.45 -27.9 31.85 -27.35 31.0 -27.3 L29.8 -27.35 Q30.0 -27.9 30.45 -28.1 M34.2 -28.95 L35.1 -29.0 Q35.65 -29.4 35.95 -29.0 34.85 -28.85 34.55 -27.2 34.3 -25.45 33.75 -25.2 32.95 -24.75 33.5 -26.75 L34.2 -28.95 M29.1 -28.95 Q28.65 -28.75 28.65 -29.1 L28.9 -29.55 29.45 -29.45 Q29.45 -29.1 29.1 -28.95 M31.2 -35.5 Q31.75 -36.15 33.2 -35.5 33.75 -35.2 33.5 -34.4 L32.95 -33.1 Q32.0 -32.95 31.3 -33.85 30.65 -34.65 31.2 -35.5 M22.8 -28.2 Q22.7 -27.9 22.35 -28.2 22.05 -28.45 22.15 -28.75 22.35 -29.1 22.7 -28.85 23.05 -28.45 22.8 -28.2 M26.25 -30.55 Q26.25 -31.1 26.55 -30.95 L26.8 -30.1 Q26.25 -30.1 26.25 -30.55 M24.25 -31.95 L24.8 -31.55 Q25.0 -31.2 24.8 -30.1 L24.25 -28.4 23.35 -28.2 22.9 -29.55 Q22.35 -30.5 22.5 -31.0 L23.05 -31.95 Q23.5 -32.65 23.8 -32.1 L24.25 -31.95 M19.05 -32.05 Q18.7 -31.3 19.25 -30.65 L20.25 -29.65 Q20.7 -29.1 20.4 -28.65 L19.4 -28.55 Q18.85 -28.75 18.4 -29.3 L17.6 -30.1 Q17.2 -30.3 16.95 -29.85 L16.6 -29.2 Q17.3 -28.85 16.6 -28.45 15.85 -28.1 16.15 -29.0 17.15 -29.85 16.85 -30.3 16.5 -31.1 17.75 -31.1 L18.25 -31.75 Q18.4 -32.3 19.05 -32.05 M21.25 -32.6 Q21.8 -32.2 21.4 -31.75 20.95 -31.85 20.85 -32.3 20.8 -32.65 21.25 -32.6 M18.7 -38.05 Q18.15 -37.85 17.3 -38.5 16.5 -39.25 17.05 -39.7 17.95 -40.35 18.85 -39.4 19.7 -38.5 18.7 -38.05 M18.05 -43.35 L18.95 -42.35 Q19.15 -41.7 18.7 -40.95 18.15 -40.4 17.5 -40.25 15.95 -40.4 15.65 -41.9 15.6 -42.5 16.05 -43.05 L16.85 -44.05 18.05 -43.35 M32.65 -6.55 L32.65 -5.55 Q32.55 -5.0 32.1 -5.0 31.9 -5.4 32.1 -5.85 L32.65 -6.55 M31.3 -0.2 L32.1 0.55 32.85 1.35 31.1 4.3 Q30.35 3.4 29.45 4.2 L28.0 5.4 Q30.1 2.75 31.3 -0.2 L30.55 -0.1 31.3 -1.2 31.9 -2.3 31.3 -0.2 M33.5 -3.45 Q33.2 -3.1 33.4 -2.75 L33.85 -3.45 Q33.65 -3.85 33.5 -3.45 M8.55 -14.05 Q8.75 -14.7 8.25 -15.15 7.8 -15.6 7.8 -16.05 7.9 -16.6 8.75 -16.25 L9.75 -15.5 Q9.9 -15.25 10.35 -15.35 L8.55 -14.05 8.55 -13.5 Q8.25 -13.3 7.8 -13.5 L8.55 -14.05 M0.25 -19.0 Q0.25 -17.9 0.8 -17.7 0.5 -17.05 -0.7 -17.35 L-1.4 -17.25 -1.7 -16.5 -1.25 -16.05 Q0.8 -14.25 2.7 -11.95 L4.25 -13.85 4.8 -14.4 5.35 -14.5 Q6.1 -14.4 5.8 -14.95 5.25 -15.35 6.0 -15.6 L7.25 -16.8 Q7.65 -15.6 7.1 -14.6 6.35 -13.5 7.8 -13.5 4.35 -10.4 2.9 -6.75 1.05 -10.5 -2.3 -13.3 L-6.05 -15.95 -7.0 -16.4 Q-7.55 -16.7 -7.55 -17.05 -7.55 -17.6 -7.0 -17.25 L-7.35 -16.8 Q-7.05 -16.7 -6.25 -17.15 -5.6 -17.5 -5.25 -16.9 -4.7 -16.8 -4.95 -17.6 L-4.6 -17.9 Q-4.4 -17.9 -4.5 -18.15 L-4.25 -17.9 Q-3.95 -18.6 -1.95 -16.7 L-2.3 -17.45 Q-2.3 -18.0 -2.95 -18.15 L-3.85 -18.25 -5.5 -19.15 Q-7.0 -20.05 -8.8 -20.7 -11.2 -21.25 -12.0 -21.9 L-13.35 -21.65 -14.9 -21.65 -17.65 -21.55 Q-18.2 -22.55 -19.15 -22.25 L-19.65 -21.8 Q-20.05 -21.45 -19.75 -21.25 -20.85 -20.9 -19.85 -20.55 -18.85 -20.25 -19.4 -21.15 L-18.5 -20.8 Q-20.6 -19.25 -21.3 -19.55 -22.25 -19.8 -22.6 -19.05 -23.05 -18.45 -22.8 -17.6 -24.95 -15.15 -25.7 -12.25 -26.6 -12.5 -26.9 -12.85 L-28.0 -14.35 -28.0 -14.95 Q-28.0 -15.35 -28.25 -15.25 -27.45 -17.25 -25.7 -19.45 -25.45 -19.8 -24.8 -20.0 -24.25 -20.15 -23.95 -20.45 L-23.5 -21.15 -23.05 -21.9 Q-19.15 -24.65 -14.55 -24.9 -10.1 -25.3 -5.6 -23.1 -3.5 -22.0 -1.6 -20.55 L0.25 -19.0 M2.5 -20.55 L2.05 -20.55 Q2.5 -19.7 2.9 -19.9 2.5 -20.25 2.5 -20.55 M4.05 -24.55 Q4.9 -24.45 4.55 -23.65 3.9 -24.0 3.9 -23.65 3.8 -23.45 4.0 -22.7 L3.35 -21.9 Q2.8 -21.35 3.5 -21.15 3.9 -21.1 4.15 -22.0 5.15 -21.9 4.6 -20.8 L3.6 -19.8 Q2.95 -19.15 4.0 -18.8 L3.15 -18.25 Q2.95 -16.95 2.6 -16.6 L0.05 -19.55 0.6 -19.45 Q0.85 -19.05 1.15 -19.25 1.6 -19.35 1.5 -20.0 1.4 -20.55 1.8 -20.7 1.6 -20.8 1.9 -21.0 L2.15 -21.1 Q2.6 -21.1 2.6 -22.0 2.8 -22.65 2.15 -23.1 1.6 -23.55 1.25 -22.8 L0.7 -22.1 Q0.15 -21.65 0.05 -22.35 L0.15 -23.35 Q0.15 -23.8 -0.6 -23.55 -1.05 -23.35 -1.05 -24.45 -1.4 -24.1 -1.95 -24.25 -2.4 -24.35 -2.3 -24.9 -2.5 -25.2 -2.8 -25.3 -3.05 -25.35 -3.25 -25.55 L-3.85 -27.0 Q-3.7 -27.2 -3.25 -26.65 L-2.5 -26.1 Q-2.15 -27.0 -0.75 -27.55 L1.05 -27.45 0.7 -26.9 Q0.4 -26.55 0.6 -26.45 L1.4 -26.3 Q1.95 -26.2 2.15 -25.9 L2.35 -25.3 Q2.45 -24.8 2.7 -24.65 L4.05 -24.55 M13.5 -19.7 Q15.05 -21.1 15.6 -19.55 16.15 -17.9 14.65 -17.5 13.3 -17.15 12.85 -18.0 12.45 -18.8 13.5 -19.7 M13.85 -21.1 L14.5 -21.45 Q14.4 -22.1 14.0 -22.1 L13.85 -21.1 M10.85 -18.15 Q10.55 -18.15 10.0 -17.45 9.45 -16.8 9.2 -16.95 8.2 -17.45 9.3 -18.45 10.35 -19.45 10.85 -18.15 M8.65 -26.0 Q8.65 -25.3 8.1 -24.8 L6.9 -24.25 Q7.25 -25.55 8.65 -26.0 M8.25 -23.25 Q9.35 -23.45 9.0 -22.35 8.35 -21.8 8.0 -22.55 7.65 -23.2 8.25 -23.25 M16.3 -31.85 Q17.15 -31.0 15.2 -30.4 15.1 -30.85 15.6 -31.2 L16.3 -31.85 M11.1 -28.55 Q11.55 -28.65 11.75 -28.3 11.55 -27.45 10.65 -27.55 9.8 -27.65 10.35 -28.65 L11.1 -28.55 M9.1 -29.3 L8.35 -28.95 8.25 -29.85 Q8.2 -30.4 8.65 -30.55 9.1 -30.4 9.1 -29.3 M10.75 -32.95 L11.3 -32.6 Q10.9 -31.85 9.9 -32.85 L10.75 -32.95 M5.8 -31.3 Q5.55 -30.55 4.9 -30.75 4.25 -30.95 4.45 -31.65 4.6 -32.3 5.0 -32.05 L5.8 -31.3 M2.9 -32.4 Q2.5 -31.95 2.05 -32.2 1.6 -32.6 1.9 -33.1 L2.7 -33.85 Q3.35 -34.3 3.7 -34.05 3.35 -32.75 2.9 -32.4 M0.85 -34.2 Q-0.3 -33.5 -0.2 -34.4 -0.15 -34.95 0.35 -34.75 L0.85 -34.2 M12.2 -39.35 Q12.95 -39.7 13.1 -39.15 13.4 -38.6 12.95 -38.05 12.4 -37.6 12.0 -38.3 11.55 -39.05 12.2 -39.35 M-3.6 -29.85 Q-3.25 -28.45 -4.35 -28.75 -5.35 -29.0 -5.05 -30.0 -4.8 -31.1 -4.35 -30.95 -3.85 -30.75 -3.6 -29.85 M-5.05 -28.0 Q-4.95 -28.85 -4.05 -27.9 -3.95 -27.3 -4.5 -27.35 -5.15 -27.45 -5.05 -28.0 M-9.55 -31.1 L-8.6 -31.0 Q-8.15 -30.85 -8.1 -30.5 -8.7 -30.4 -8.35 -29.55 -7.9 -28.65 -8.1 -28.4 -8.7 -29.0 -9.1 -28.75 L-9.7 -28.1 Q-10.55 -28.1 -10.25 -29.0 -9.9 -29.95 -9.45 -29.45 -9.25 -29.65 -9.65 -30.3 -10.0 -30.95 -9.55 -31.1 M-7.25 -33.95 Q-7.15 -33.4 -7.55 -33.5 -7.9 -33.5 -8.1 -33.85 -8.25 -34.3 -7.7 -34.4 -7.15 -34.4 -7.25 -33.95 M-1.5 -36.7 Q-1.15 -36.3 -1.4 -35.85 -1.6 -35.5 -2.15 -35.5 -2.15 -37.25 -1.5 -36.7 M-5.25 -33.95 Q-4.8 -33.95 -3.85 -33.4 -2.95 -32.75 -3.25 -32.4 L-4.25 -31.1 Q-5.45 -32.95 -5.25 -33.95 M-14.9 -33.5 Q-15.2 -33.3 -15.45 -33.2 L-15.4 -33.6 Q-15.1 -33.85 -14.9 -33.5 M-14.4 -38.6 L-15.45 -38.4 Q-15.55 -39.35 -15.3 -39.8 -13.9 -38.7 -14.4 -38.6 M-11.75 -29.75 Q-12.0 -28.3 -13.0 -28.95 -13.85 -29.45 -13.55 -30.3 -13.3 -31.1 -12.45 -31.3 -11.35 -31.2 -11.75 -29.75 M-17.3 -33.65 Q-17.2 -34.05 -17.05 -33.75 -16.55 -33.3 -17.3 -33.1 L-17.3 -33.65 M-14.65 -36.5 Q-14.4 -36.75 -14.2 -36.4 -14.0 -36.05 -14.55 -35.95 -14.85 -36.25 -14.65 -36.5 M-13.1 -33.3 Q-13.55 -34.3 -11.9 -34.65 -10.25 -35.05 -10.55 -33.75 -10.7 -33.2 -11.8 -32.95 -12.8 -32.75 -13.1 -33.3 M-15.75 -41.8 Q-16.2 -40.9 -16.5 -41.6 -16.65 -42.25 -15.75 -41.8 M-24.25 -28.1 L-24.25 -28.45 Q-25.8 -30.2 -24.35 -32.2 -22.85 -34.2 -21.5 -31.85 -20.5 -30.0 -21.6 -29.0 L-22.05 -28.2 Q-22.3 -27.9 -22.7 -28.1 -23.15 -28.3 -24.25 -28.1 M-27.0 -29.55 L-27.45 -29.4 -27.35 -29.75 Q-27.15 -29.75 -27.0 -29.55 M-25.5 -27.85 L-26.05 -27.9 Q-26.15 -28.4 -25.9 -28.55 L-25.5 -27.85 M18.25 43.0 L18.85 43.05 Q19.3 43.45 18.75 43.9 18.25 44.25 17.95 43.9 17.75 43.45 18.25 43.0 M35.5 30.0 L34.55 29.95 Q34.2 29.65 34.55 29.1 35.2 28.45 35.75 29.1 36.4 29.85 35.5 30.0 M20.05 32.2 Q20.95 32.5 20.6 33.2 20.35 33.85 19.5 33.65 L19.5 32.65 Q19.5 32.05 20.05 32.2 M20.4 27.55 Q21.05 26.65 22.25 27.3 22.6 28.2 22.25 29.1 21.7 30.1 20.8 29.4 19.8 28.45 20.4 27.55 M32.3 21.35 Q32.1 21.1 32.55 20.9 33.0 20.7 33.2 21.1 L32.3 21.35 M27.65 28.65 Q28.0 27.9 28.8 28.2 29.55 28.4 29.8 29.1 30.1 30.3 29.1 31.55 28.2 32.5 27.45 31.05 26.65 29.5 27.65 28.65 M37.2 30.5 Q37.5 30.2 38.15 30.65 L37.3 31.2 37.15 30.85 Q37.05 30.55 37.2 30.5 M41.6 27.0 L41.6 26.55 42.05 26.75 41.6 27.0 M43.6 27.0 Q43.8 26.85 44.25 27.2 44.6 27.45 44.45 27.75 L43.8 27.65 Q43.5 27.4 43.6 27.0 M44.6 25.85 L44.55 25.1 45.25 25.45 44.6 25.85 M36.5 20.35 L36.2 19.05 Q36.15 18.25 36.75 18.45 38.15 18.8 37.85 20.0 37.75 20.35 36.5 20.35 M42.45 18.25 Q43.05 19.35 41.8 20.45 40.5 21.65 39.8 20.1 39.15 19.25 40.4 18.35 L42.45 18.25 M45.15 28.65 Q45.55 28.2 45.9 28.65 46.25 29.1 45.7 29.3 L45.15 29.2 45.15 28.65 M44.8 14.95 Q44.8 15.9 43.25 15.9 42.6 15.8 42.35 15.4 L42.05 14.35 Q41.9 12.95 43.35 13.3 44.9 13.7 44.8 14.95 M39.15 15.4 Q39.15 14.7 39.8 15.15 39.8 16.05 39.15 15.4 M36.5 17.15 Q36.3 16.35 37.15 16.45 37.5 16.5 37.6 17.05 37.7 17.5 37.4 17.8 36.65 18.0 36.5 17.15 M40.05 12.05 Q39.8 12.85 39.05 12.05 40.4 11.15 40.05 12.05 M36.65 16.05 Q36.4 15.4 37.15 15.4 L37.3 15.8 36.65 16.05 M38.75 8.85 L37.75 8.65 Q36.95 7.65 36.3 7.4 36.05 7.2 36.15 6.65 36.2 6.1 36.5 5.75 37.05 5.2 38.3 6.85 38.95 7.95 38.75 8.85 M43.9 11.7 L44.0 11.15 Q44.8 11.05 43.9 11.7 M41.4 3.4 Q41.5 4.1 40.6 4.1 39.7 4.2 39.95 3.75 40.8 2.9 41.4 3.4 M44.0 3.85 L44.55 4.55 Q44.7 5.1 44.15 5.2 L44.0 3.85 M39.7 -1.8 L39.95 -2.3 40.5 -2.3 Q40.6 -1.8 39.7 -1.8 M41.4 -0.8 Q41.4 0.2 40.95 0.45 40.35 0.9 40.35 -0.25 40.25 -1.3 41.4 -0.8 M42.6 -2.65 Q42.45 -1.8 41.05 -2.45 39.7 -3.1 40.5 -3.75 L41.7 -3.45 Q42.7 -3.0 42.6 -2.65 M46.7 -4.3 Q47.25 -3.9 46.8 -3.1 46.25 -2.35 45.7 -3.0 45.25 -3.45 45.7 -4.0 46.15 -4.65 46.7 -4.3 M31.2 17.25 L31.55 16.9 Q31.65 18.05 31.2 17.8 L31.2 17.25 M20.25 15.35 L21.8 13.95 Q20.4 14.9 19.4 14.5 18.85 14.35 18.5 14.9 L17.75 15.4 Q16.95 15.4 17.4 16.6 17.6 17.05 17.05 17.8 L20.25 15.35 M17.3 10.95 Q17.7 11.15 17.4 11.4 L18.05 11.75 Q18.25 12.15 18.05 12.5 L17.3 11.95 Q16.65 11.7 16.5 11.95 16.05 12.3 15.65 11.95 L16.75 11.25 16.95 11.5 17.15 11.15 Q17.15 10.85 17.3 10.95 M26.1 10.75 L26.55 10.3 27.2 10.2 28.0 10.3 28.45 9.6 Q28.75 9.2 29.1 9.4 L29.75 9.5 Q30.35 8.6 30.65 9.3 30.9 10.15 29.9 10.4 L28.35 10.7 29.1 10.95 28.65 12.15 27.9 11.95 Q27.55 11.85 27.25 12.5 27.1 13.6 27.25 14.05 L26.15 12.15 Q27.0 12.15 26.1 10.75 M23.25 6.0 L24.05 5.3 23.45 6.55 23.25 6.0 18.85 9.65 16.75 11.25 16.3 10.75 Q16.2 10.6 16.5 10.2 L15.95 10.15 Q15.65 9.85 15.85 9.6 16.6 9.6 16.4 9.05 16.15 8.75 16.3 8.5 16.85 8.5 16.85 8.95 17.15 8.65 16.85 7.3 17.2 7.2 17.6 7.95 L17.95 8.85 18.3 8.4 18.25 7.75 17.15 6.85 Q17.7 6.75 17.6 6.3 L17.3 5.55 16.65 5.95 16.65 4.95 Q17.15 5.1 17.2 5.4 17.4 5.2 17.6 5.4 L17.95 5.4 18.5 4.65 19.8 3.75 19.95 4.4 19.4 4.2 19.3 4.85 Q19.25 5.5 19.4 5.4 L20.8 5.0 20.5 5.65 Q20.25 6.1 20.6 5.95 L21.35 5.85 Q21.8 5.85 21.6 5.55 L21.35 5.1 Q21.35 4.45 21.8 4.75 21.6 4.45 21.95 4.4 22.35 4.4 22.35 4.2 L22.35 5.1 Q22.05 5.65 22.5 5.75 L23.25 6.0 M19.3 -2.35 L18.85 -2.9 Q19.3 -3.0 19.05 -3.3 18.75 -3.55 18.75 -3.0 L18.75 -2.9 Q18.7 -2.35 17.95 -3.2 18.7 -4.2 17.15 -3.2 17.6 -3.2 17.4 -2.9 L15.95 -3.1 16.6 -3.2 Q17.05 -3.2 16.95 -3.65 L16.5 -4.45 Q16.05 -5.0 15.65 -4.65 15.95 -4.45 15.85 -3.55 15.75 -2.65 15.4 -2.65 15.2 -2.65 15.05 -4.45 L15.2 -4.2 15.6 -4.1 Q15.4 -4.75 15.5 -4.75 L15.95 -5.2 Q16.05 -5.65 16.65 -5.65 17.7 -5.65 17.7 -5.95 L17.05 -6.85 Q17.75 -7.2 17.4 -7.65 L16.85 -7.1 16.05 -7.55 Q15.4 -7.5 15.3 -7.75 L14.55 -9.3 Q13.65 -9.5 13.3 -9.85 13.5 -10.2 14.2 -10.05 L15.2 -9.95 15.05 -10.4 14.65 -10.7 Q14.2 -10.85 14.0 -11.5 17.15 -10.85 18.6 -8.1 20.05 -5.55 19.3 -2.35 M31.1 4.3 Q31.65 5.0 31.4 5.65 31.1 6.4 30.3 6.5 29.9 6.5 29.2 6.85 L31.1 4.3 M27.2 5.3 L28.0 5.4 26.9 6.85 27.2 7.05 Q27.55 7.3 27.7 6.85 28.25 7.3 29.2 6.85 27.25 9.3 24.35 11.85 L22.25 13.7 Q22.95 13.25 23.5 13.3 24.15 13.5 24.6 14.4 25.15 15.4 25.6 15.6 26.0 15.8 26.65 15.05 27.2 14.5 27.55 15.15 L28.0 13.8 Q28.2 13.15 29.1 13.05 29.9 13.05 30.0 12.4 L29.8 10.95 Q30.1 11.7 31.3 13.3 32.2 14.95 31.65 15.9 31.2 16.9 30.1 17.25 L28.0 17.15 27.45 17.7 Q26.9 17.9 26.8 18.05 L25.9 20.45 Q27.2 20.7 26.8 22.1 26.45 23.65 27.0 24.1 26.1 24.0 26.1 22.8 26.0 21.25 25.55 21.0 24.25 22.8 22.05 23.65 L17.7 23.9 Q17.2 25.2 16.5 21.8 16.05 20.45 16.05 19.8 15.95 19.15 16.2 18.7 L15.75 19.05 Q13.55 20.6 13.1 21.0 13.0 20.45 13.55 18.9 13.75 18.25 14.1 18.35 L14.95 18.35 Q14.65 17.9 15.4 16.9 L15.5 16.8 Q16.05 16.05 16.5 15.8 L24.55 9.2 26.35 7.3 Q26.55 6.85 26.8 6.85 26.25 6.3 27.0 5.2 27.7 4.2 27.9 4.4 28.2 4.75 27.2 5.3 M27.8 0.65 L28.25 1.55 Q28.55 2.1 28.25 2.45 27.9 2.3 27.25 2.45 L26.15 2.75 27.0 1.55 Q27.65 0.55 27.8 0.65 M30.3 1.3 Q29.65 1.0 29.65 0.75 29.75 0.2 30.2 0.65 30.65 1.0 30.3 1.3 M-18.75 -27.2 Q-19.6 -26.65 -19.5 -27.45 -19.4 -28.3 -18.75 -27.2 M-14.0 -25.45 Q-14.55 -25.55 -14.4 -26.1 L-13.55 -26.0 Q-13.45 -25.35 -14.0 -25.45 M-13.65 -23.55 L-14.45 -23.8 Q-15.0 -23.7 -14.9 -23.25 -14.75 -22.8 -14.2 -23.0 -13.55 -23.1 -13.65 -23.55 M-3.95 -21.1 Q-3.95 -21.8 -4.6 -22.0 -5.25 -22.25 -5.35 -21.35 -5.45 -20.55 -4.7 -20.45 -3.85 -20.35 -3.95 -21.1 M-8.45 -17.15 L-9.8 -16.7 Q-10.7 -16.25 -10.45 -15.7 -10.35 -15.5 -9.45 -15.35 -8.8 -15.15 -9.0 -14.5 L-8.45 -14.6 -8.0 -14.5 -8.45 -13.85 -8.9 -13.3 Q-9.35 -13.25 -9.8 -14.15 -10.25 -15.15 -10.45 -15.25 L-11.55 -15.15 Q-12.2 -15.25 -12.45 -14.8 -13.3 -13.7 -13.2 -13.4 L-12.55 -12.3 Q-12.3 -11.6 -12.8 -11.3 L-12.2 -11.05 Q-12.1 -10.75 -12.9 -10.75 L-13.3 -11.15 -13.65 -10.95 -13.75 -11.2 -14.0 -11.5 -14.55 -11.2 -14.45 -10.5 Q-14.9 -10.85 -15.0 -10.3 -15.1 -9.5 -15.4 -9.4 L-15.0 -9.1 Q-14.85 -9.95 -14.4 -9.3 L-13.75 -8.65 Q-13.35 -8.75 -13.3 -9.5 -13.2 -10.15 -13.35 -10.4 -12.55 -10.4 -12.75 -9.75 L-13.3 -8.75 Q-14.3 -6.55 -14.45 -6.65 -13.9 -7.3 -15.0 -6.95 -14.85 -6.3 -15.0 -6.2 -15.55 -5.95 -16.0 -6.5 -16.4 -6.95 -15.65 -7.3 L-16.3 -7.5 Q-16.65 -7.5 -16.65 -7.95 -16.4 -8.2 -16.75 -8.75 L-17.4 -9.4 -18.1 -9.3 -18.85 -9.05 Q-19.6 -8.75 -19.05 -7.75 -18.65 -6.85 -17.95 -7.1 L-16.5 -7.2 Q-17.2 -6.85 -16.65 -6.3 L-16.1 -5.65 Q-16.2 -5.45 -17.2 -6.0 -17.3 -5.65 -16.75 -5.1 -16.85 -4.85 -18.1 -5.95 -17.2 -6.4 -17.65 -6.55 -18.1 -6.75 -18.3 -6.4 L-18.5 -6.65 Q-18.65 -6.5 -18.75 -6.75 L-19.15 -7.3 Q-19.6 -7.55 -19.3 -6.85 L-18.95 -6.0 -19.3 -6.1 -19.5 -6.3 Q-19.5 -6.0 -20.05 -3.45 L-19.75 -2.45 Q-19.6 -2.2 -18.65 -2.45 L-19.2 -1.45 Q-19.05 -1.35 -19.05 -0.25 -18.85 0.2 -19.4 0.35 -19.95 0.45 -19.85 1.0 -22.05 -1.8 -21.7 -2.75 -21.05 -4.3 -21.3 -6.3 L-22.05 -7.95 Q-22.6 -9.05 -22.5 -9.5 -22.25 -11.5 -21.4 -13.25 -19.65 -16.95 -15.95 -17.9 -12.45 -18.8 -8.45 -17.15 L-7.9 -17.7 -7.8 -16.9 Q-8.1 -16.95 -8.45 -17.15 M-9.9 -25.65 Q-10.0 -26.3 -9.25 -26.1 -8.35 -25.9 -8.15 -26.1 -8.25 -25.55 -8.9 -25.75 L-9.9 -25.65 M-7.9 -23.45 L-8.35 -23.65 -8.6 -23.25 Q-7.9 -22.9 -7.9 -23.45 M-8.25 -22.15 Q-8.7 -22.9 -9.45 -22.8 -10.0 -21.55 -8.8 -21.45 -7.9 -21.45 -8.25 -22.15 M-5.8 -25.2 Q-5.5 -25.65 -5.05 -24.9 L-4.35 -23.7 -2.6 -22.1 Q-5.25 -22.8 -5.45 -23.25 -6.05 -24.65 -5.8 -25.2 M-18.5 -20.8 Q-17.95 -21.0 -17.5 -21.15 L-17.4 -20.45 -18.5 -20.8 M11.0 16.15 L10.55 16.35 Q10.3 16.25 11.0 15.4 L11.75 14.7 14.4 12.95 14.2 13.3 Q14.0 13.7 14.2 13.8 L14.65 14.15 Q14.85 13.6 15.2 14.05 15.05 13.4 15.85 13.8 16.65 14.05 16.3 14.7 L16.65 14.7 16.95 14.7 Q15.2 16.15 15.5 15.15 L14.85 15.35 Q14.5 15.6 14.3 15.25 L13.75 15.7 Q13.2 15.8 13.2 16.05 13.3 16.35 13.85 16.25 L14.65 16.45 14.3 16.7 Q14.0 16.7 14.1 16.9 14.3 17.25 14.75 17.05 L10.65 20.55 9.35 21.15 9.55 21.55 8.75 22.35 Q8.75 22.2 8.35 22.1 L8.2 21.7 9.2 21.65 Q8.8 21.35 8.55 20.8 8.25 20.15 8.75 20.1 L9.0 20.45 9.3 20.7 Q9.9 20.15 9.45 19.8 L8.55 19.05 Q8.35 18.9 8.55 18.55 L8.55 18.0 8.25 17.5 8.75 17.05 Q8.75 17.9 9.0 18.0 L9.3 16.9 Q10.0 17.35 9.75 17.6 L9.35 17.9 10.55 17.8 10.85 18.0 10.65 16.9 11.3 17.45 11.4 18.0 11.45 18.55 Q12.3 18.0 12.75 18.0 13.1 18.0 12.95 17.5 L12.55 16.95 Q13.0 16.95 12.95 16.35 L12.55 16.6 Q12.4 16.8 12.3 16.45 12.45 15.6 12.2 15.7 11.85 15.9 12.0 16.35 L11.55 16.05 11.1 15.7 11.0 16.15 M2.45 17.35 Q3.05 17.45 2.95 17.05 3.25 17.45 3.45 17.15 L3.9 16.45 4.9 16.95 Q5.55 17.45 5.8 16.15 6.0 15.5 6.55 15.95 L7.2 16.7 8.25 16.25 Q9.0 16.7 9.0 16.25 9.0 15.8 8.25 15.7 7.0 15.35 7.55 14.7 8.1 15.7 8.1 13.95 L9.3 14.6 Q10.1 14.95 9.9 15.25 10.55 15.05 10.75 15.5 L8.75 17.05 Q8.45 16.7 8.0 16.9 8.25 17.5 7.35 18.45 6.25 19.25 5.9 19.6 4.6 20.9 3.45 22.55 L-0.2 18.15 0.35 17.7 0.85 18.45 1.05 18.0 Q1.25 17.8 1.05 17.5 L1.4 17.25 1.7 17.6 Q1.8 17.35 2.45 17.35 M2.5 16.35 L2.9 16.95 Q2.7 16.8 2.45 16.95 L1.9 16.6 2.5 16.35 M-11.8 16.15 L-12.2 15.9 -11.45 15.35 Q-11.35 15.5 -11.8 16.15 M-10.9 15.15 Q-10.65 15.4 -10.55 15.25 L-10.2 14.9 -9.8 15.15 -10.25 15.25 Q-10.55 15.35 -10.45 15.5 -10.1 15.4 -9.7 16.45 L-9.25 17.8 -8.8 18.35 Q-8.35 18.45 -8.1 18.0 -8.0 17.8 -7.45 17.7 -6.9 17.5 -6.9 17.05 L-6.5 17.15 Q-6.25 17.25 -6.05 17.45 L-5.25 18.15 -5.6 18.35 -4.8 18.6 0.4 23.8 Q-1.3 23.35 -2.4 24.25 -5.45 21.1 -11.45 16.45 L-11.35 16.45 Q-10.2 16.6 -10.2 15.9 -10.45 16.05 -10.7 15.6 L-11.25 15.05 -10.9 15.15 M-17.1 14.05 L-16.85 14.7 -16.55 15.25 Q-16.85 14.7 -15.85 14.4 L-16.2 15.4 Q-16.75 15.25 -16.95 15.4 -16.95 15.9 -16.4 16.25 -15.75 16.6 -15.75 16.95 -15.4 16.95 -15.4 16.45 L-15.0 15.6 Q-15.4 15.6 -14.9 15.05 L-14.45 14.4 Q-14.75 14.5 -15.3 13.95 L-15.0 14.05 Q-14.75 14.25 -14.65 14.05 -14.55 13.95 -14.1 14.35 L-13.2 15.05 -12.45 15.7 -12.65 16.45 -12.0 16.45 -12.2 17.05 Q-12.3 17.5 -12.55 17.25 L-13.0 16.6 -13.2 17.25 -13.85 16.7 Q-13.55 17.7 -13.75 18.0 L-14.2 17.5 -14.4 18.45 -13.75 19.0 Q-13.9 19.25 -14.55 19.0 L-15.4 19.05 Q-15.95 18.55 -15.3 18.15 -16.75 16.7 -18.05 20.1 -18.85 22.1 -19.85 22.65 L-21.4 22.8 -23.05 22.2 -25.25 21.7 -26.5 20.55 -27.9 18.8 Q-28.6 17.8 -28.55 16.7 -28.55 15.8 -26.45 13.95 -25.8 13.4 -24.6 13.5 L-22.7 13.6 -20.95 13.3 Q-20.7 13.3 -20.2 13.6 L-19.65 13.5 Q-19.4 13.85 -19.65 14.15 -19.85 14.4 -19.65 14.5 -19.15 14.8 -19.05 14.4 L-18.85 13.5 Q-18.65 12.95 -18.2 12.95 L-17.1 12.15 Q-16.5 13.05 -17.5 13.25 L-16.3 13.15 Q-17.3 13.85 -17.1 14.05 M-19.05 9.2 L-18.4 9.4 Q-17.95 9.6 -18.3 9.85 -18.75 10.2 -18.65 10.5 L-19.4 9.85 -20.75 8.5 Q-20.3 8.4 -19.85 8.75 L-19.05 9.2 M-14.4 10.95 Q-14.1 11.25 -13.65 11.25 -13.55 11.6 -13.85 11.5 L-14.3 11.6 -14.2 12.6 Q-14.2 13.4 -14.65 13.3 L-14.2 13.8 Q-14.2 14.4 -16.65 12.3 L-17.85 11.15 Q-18.2 10.85 -18.5 10.7 L-17.95 10.75 -17.05 11.4 Q-16.5 11.85 -16.1 11.7 -15.95 12.05 -16.3 12.5 -16.1 13.05 -15.1 11.6 L-15.65 11.4 Q-16.1 11.25 -15.85 11.05 L-15.1 10.7 Q-15.55 11.25 -15.1 11.25 L-14.4 10.95 M-19.2 -0.2 Q-19.05 -0.55 -19.5 -0.65 -19.95 -0.8 -19.95 -0.45 -20.05 -0.2 -19.65 -0.2 L-19.2 -0.2 M-18.4 2.75 L-15.75 5.3 -10.9 9.4 -5.45 13.7 Q-2.25 16.15 -0.2 18.15 -0.4 18.25 -0.6 18.0 L-0.85 17.6 -2.05 17.35 -2.8 16.45 Q-3.05 16.45 -3.15 17.05 -3.25 17.8 -3.5 17.8 L-4.5 17.7 Q-4.15 18.05 -4.4 18.35 -4.7 18.7 -5.25 18.15 -4.5 17.45 -4.6 17.05 L-5.9 17.6 -5.9 17.15 Q-5.8 16.9 -6.05 16.7 -6.45 17.05 -7.15 16.45 L-8.25 15.35 -14.85 10.2 -18.95 6.5 Q-20.5 4.95 -20.5 4.2 -20.5 3.65 -20.7 3.75 L-20.95 4.1 -21.05 4.1 -20.2 2.85 -19.85 2.35 -19.85 1.9 Q-18.6 2.55 -18.4 2.75 M-13.0 -6.95 L-12.9 -7.3 -12.65 -7.2 Q-12.8 -7.0 -13.0 -6.95 M-18.4 -14.35 Q-18.1 -14.6 -17.95 -14.95 L-18.5 -15.25 Q-18.65 -14.7 -18.4 -14.35 M-18.95 -12.4 L-19.6 -12.25 Q-19.85 -11.85 -19.5 -11.7 -19.2 -11.5 -19.05 -11.85 -18.75 -12.25 -18.95 -12.4 M-10.65 -17.05 Q-10.55 -17.6 -10.8 -17.8 -11.2 -17.6 -11.35 -17.8 -11.75 -17.15 -11.65 -16.35 -11.65 -15.5 -11.0 -16.35 -10.7 -16.6 -10.65 -17.05 M-14.9 -20.45 L-14.45 -20.25 Q-14.75 -20.05 -15.0 -20.0 L-14.9 -20.45 M-12.45 -21.15 L-12.1 -21.65 Q-11.75 -21.55 -11.75 -21.1 -11.65 -20.6 -11.8 -20.15 -12.1 -19.6 -12.55 -19.7 L-12.45 -21.15 M15.65 11.95 L15.05 12.3 14.4 12.3 Q14.55 11.6 15.65 11.95 M-30.45 -12.25 Q-30.7 -12.25 -30.8 -12.75 -30.9 -13.3 -30.55 -13.15 L-30.0 -12.7 -30.35 -12.05 -30.45 -12.25 M-33.2 -14.35 Q-32.9 -14.6 -33.1 -14.95 L-33.65 -15.8 Q-33.85 -16.5 -32.75 -16.25 -31.55 -15.9 -31.45 -15.05 L-31.45 -12.85 Q-31.35 -11.5 -30.45 -11.15 L-32.2 -11.05 Q-32.55 -11.2 -32.65 -11.95 L-32.75 -13.15 -33.2 -14.35 M-37.2 -18.0 Q-37.65 -18.6 -36.65 -18.45 L-35.4 -18.0 Q-35.55 -17.45 -36.2 -17.5 -36.75 -17.5 -37.2 -18.0 M-34.75 -19.9 Q-35.1 -20.15 -34.85 -20.45 -34.55 -20.7 -34.3 -20.45 L-34.1 -20.0 Q-34.1 -19.7 -34.45 -19.8 -34.1 -19.55 -34.0 -18.9 -33.85 -18.25 -34.1 -17.9 -35.2 -17.45 -35.65 -18.8 -36.2 -20.15 -34.75 -19.9 M-35.85 -22.55 L-35.55 -22.25 -36.1 -22.15 Q-36.4 -22.35 -36.2 -22.7 L-35.85 -22.55 M-37.5 -22.65 Q-38.05 -22.7 -37.75 -23.2 L-36.95 -23.1 Q-37.05 -22.55 -37.5 -22.65 M-33.1 -24.75 Q-33.75 -24.25 -33.35 -25.3 -32.45 -25.1 -33.1 -24.75 M-20.2 -17.9 L-21.05 -16.4 Q-22.25 -16.15 -22.7 -17.25 -22.85 -17.7 -20.95 -19.35 -19.95 -18.5 -20.2 -17.9 M-27.25 -20.05 Q-27.35 -19.55 -27.8 -19.7 -28.35 -19.9 -28.0 -20.45 L-27.25 -20.05 M-28.9 -27.35 Q-28.6 -27.1 -28.8 -26.9 -29.0 -26.75 -29.25 -26.9 -29.55 -27.2 -29.35 -27.35 -29.15 -27.65 -28.9 -27.35 M-27.45 -26.35 L-28.25 -26.0 Q-29.1 -26.9 -27.45 -26.35 M-25.25 -27.0 Q-24.8 -26.9 -24.9 -26.65 -24.95 -26.35 -25.5 -26.45 L-25.25 -27.0 M-27.05 -22.35 L-26.9 -24.25 Q-26.8 -23.1 -25.05 -23.2 -23.4 -23.2 -23.5 -21.55 L-24.95 -20.25 Q-25.9 -19.7 -26.6 -20.6 -27.15 -21.15 -27.05 -22.35 M-21.6 -24.25 Q-21.75 -25.3 -20.95 -24.65 L-21.6 -24.25 M-20.4 -25.0 Q-20.2 -25.3 -19.75 -25.0 -19.3 -24.75 -19.5 -24.35 -19.75 -24.2 -20.2 -24.35 -20.7 -24.65 -20.4 -25.0 M15.1 16.05 L15.3 15.8 Q15.6 15.6 15.4 16.6 L14.55 15.9 Q14.75 15.5 15.1 16.05 M14.55 12.85 L14.55 12.7 Q14.75 12.3 15.1 12.4 L14.85 13.15 14.55 12.85 M-33.65 -15.8 Q-33.75 -15.5 -34.2 -15.6 L-34.65 -15.95 Q-34.55 -16.4 -34.1 -16.25 L-33.65 -15.8 M-28.7 -13.5 L-27.35 -12.25 Q-26.5 -11.2 -25.9 -11.2 L-26.15 -8.1 Q-26.15 -6.55 -26.35 -6.3 L-26.5 -5.55 -25.8 -5.2 -25.5 -4.2 -25.35 -3.0 Q-25.25 -2.35 -24.8 -2.0 -24.6 -2.0 -21.85 3.0 L-21.05 4.1 -20.95 4.1 -20.75 4.4 Q-20.5 4.85 -20.7 5.0 L-21.15 5.65 -20.15 5.5 Q-19.4 5.5 -20.05 6.2 L-19.5 6.95 Q-19.3 7.4 -19.95 8.2 L-20.5 8.1 -20.75 8.5 -22.3 6.95 Q-25.35 3.75 -27.15 0.3 -28.1 -1.3 -28.9 -3.55 -30.0 -6.55 -29.1 -6.95 L-28.15 -7.3 Q-27.9 -7.5 -28.15 -8.1 L-28.55 -9.3 Q-28.7 -9.95 -29.55 -9.75 -29.35 -12.3 -28.45 -14.6 -28.45 -13.6 -28.7 -13.5 M-33.85 -5.55 Q-33.35 -5.95 -32.9 -5.75 -32.55 -5.2 -32.9 -4.75 -33.2 -4.3 -33.75 -4.75 -33.75 -3.85 -34.3 -4.3 -34.9 -4.75 -34.0 -4.95 -34.3 -5.3 -33.85 -5.55 M-37.4 -11.15 Q-36.2 -10.6 -37.1 -10.4 L-37.4 -11.15 M-31.35 -9.65 L-29.55 -9.75 -29.55 -6.85 Q-30.45 -6.75 -31.1 -7.75 -31.75 -8.85 -31.35 -9.65 M-32.75 -7.0 L-32.2 -6.95 -33.3 -6.5 -33.1 -6.85 -32.75 -7.0 M-37.1 -5.2 L-37.2 -5.45 Q-38.1 -5.45 -38.5 -6.1 L-36.3 -6.5 Q-35.1 -6.5 -35.85 -5.0 -36.3 -5.55 -37.1 -5.2 M-37.85 -13.85 Q-37.2 -13.4 -36.0 -14.25 -35.3 -14.35 -35.0 -13.7 -34.65 -12.95 -35.2 -12.6 L-36.2 -12.25 -37.2 -11.95 Q-37.85 -11.4 -38.2 -11.5 -37.55 -12.25 -38.3 -12.7 -39.05 -13.25 -38.85 -13.7 -38.5 -14.35 -37.85 -13.85 M-37.85 -15.6 Q-37.4 -15.6 -37.85 -15.15 -38.05 -14.95 -38.3 -15.25 L-38.65 -15.6 -37.85 -15.6 M-25.9 -11.2 L-25.7 -12.25 -25.45 -11.6 -25.9 -11.2 M-25.8 -5.2 L-25.9 -6.65 Q-25.7 -7.3 -24.95 -7.95 -23.25 -9.1 -22.5 -8.95 -22.85 -6.0 -22.4 -4.3 L-21.95 -2.55 Q-21.95 -1.55 -22.95 -1.45 -24.6 -1.3 -25.05 -2.55 -25.25 -4.65 -25.8 -5.2 M13.75 21.9 Q14.3 22.55 13.85 22.8 13.1 23.45 12.75 24.8 11.75 24.45 12.1 23.65 L12.95 22.1 12.85 21.45 Q12.75 21.15 13.1 21.0 L13.75 21.9 M-20.3 30.3 Q-20.6 29.55 -20.05 29.65 -19.3 29.65 -19.6 30.55 -20.15 30.95 -20.3 30.3 M-28.6 36.15 Q-28.1 35.7 -28.0 36.25 L-28.0 37.05 Q-28.35 37.25 -28.7 36.85 -29.0 36.5 -28.6 36.15 M-36.3 22.1 Q-36.3 22.45 -36.65 22.65 -36.95 22.8 -36.55 23.25 -35.45 24.65 -39.85 23.2 -39.5 22.9 -39.65 22.25 -39.95 21.55 -39.85 21.25 L-39.6 20.35 -39.85 19.45 -38.4 20.15 Q-37.5 20.55 -37.3 21.25 L-36.75 21.7 -36.3 22.1 M-34.45 19.05 Q-34.45 19.6 -35.1 19.35 -35.75 19.15 -35.4 18.6 L-34.45 19.05 M-33.85 20.15 L-34.55 20.25 Q-35.0 20.15 -34.65 19.7 L-33.65 19.05 Q-33.1 18.7 -33.3 19.35 -33.45 19.9 -33.85 20.15 M-32.2 20.9 L-32.75 21.7 -33.55 21.0 Q-33.9 20.8 -33.75 20.6 -33.65 20.35 -32.2 20.9 M-31.35 22.0 L-31.9 21.9 -31.35 21.15 -30.9 21.8 Q-31.0 22.0 -31.35 22.0 M-30.55 18.8 L-31.1 19.45 -31.25 18.7 -30.55 18.8 M-19.75 26.1 L-19.95 25.9 Q-19.95 25.65 -19.65 25.75 -19.4 25.75 -19.3 25.9 L-19.75 26.1 M-27.6 26.85 L-27.0 26.55 Q-26.8 26.55 -26.45 26.85 -26.05 27.1 -26.35 27.55 L-26.9 28.4 Q-27.55 29.65 -28.45 29.55 L-29.0 29.5 -29.45 29.55 -29.65 28.55 Q-29.8 27.85 -29.25 27.45 -28.8 27.1 -27.6 26.85 M-28.9 25.75 L-28.35 26.1 Q-28.35 26.65 -29.1 26.45 L-30.2 26.1 -29.55 25.55 Q-29.25 25.45 -28.9 25.75 M-27.6 24.65 Q-28.1 24.45 -28.7 24.65 L-29.8 24.9 -30.55 24.45 Q-31.1 24.1 -31.1 24.75 L-31.8 23.75 -31.55 23.25 -31.0 22.7 -30.45 21.45 Q-30.1 20.7 -29.35 21.0 -28.6 21.35 -28.9 22.35 L-29.35 23.9 Q-29.45 24.25 -28.6 24.35 -27.8 24.45 -27.6 24.65 M-32.65 13.7 Q-33.0 13.85 -33.2 13.5 -33.45 12.95 -33.65 12.95 -33.2 12.7 -32.65 13.7 M-29.25 14.15 Q-29.7 14.35 -30.1 13.95 -30.8 13.15 -30.2 12.05 -29.55 10.95 -28.45 11.3 -27.55 11.75 -27.6 12.8 -27.7 13.85 -28.8 13.3 -28.8 13.85 -29.25 14.15 M-35.3 16.5 L-34.75 16.45 Q-34.55 17.05 -35.1 17.45 -36.1 18.25 -35.95 18.9 -37.3 18.6 -37.1 18.05 L-35.95 16.95 -35.3 16.5 M-36.85 12.95 L-36.1 12.25 -36.0 13.15 Q-36.0 13.85 -36.55 13.7 -37.1 13.5 -36.85 12.95 M-35.0 13.8 L-35.2 14.35 Q-35.95 14.35 -35.75 13.6 L-35.0 13.8 M-34.4 12.4 L-35.0 12.15 Q-35.45 11.95 -35.0 11.7 -34.4 11.85 -34.4 12.4 M-34.4 6.4 L-35.95 7.05 Q-36.5 6.3 -36.0 5.55 L-34.4 6.4 M-36.75 11.15 Q-37.3 11.05 -37.1 10.75 -37.05 10.5 -36.55 10.6 L-36.75 11.15 M-32.75 10.05 L-32.3 11.05 -33.55 11.15 Q-33.65 10.75 -33.35 10.5 L-32.75 10.05 M-33.45 7.6 Q-32.1 7.95 -32.0 8.3 -31.75 9.4 -32.8 9.4 L-33.75 9.95 Q-34.4 10.4 -34.75 9.95 -35.4 9.15 -34.2 8.85 -34.55 8.5 -34.2 7.95 -33.9 7.5 -33.45 7.6 M-34.1 5.1 Q-34.1 4.2 -32.75 4.85 -33.0 5.55 -34.1 5.1 M-29.65 2.45 Q-29.25 2.1 -29.25 2.35 L-29.55 3.0 Q-29.8 2.75 -29.65 2.45 M-33.55 -0.75 Q-34.0 -0.9 -33.85 -1.65 L-33.2 -1.3 Q-33.1 -0.65 -33.55 -0.75 M-37.1 -0.2 L-37.65 -0.25 Q-37.95 -0.45 -37.75 -0.75 -36.75 -0.65 -37.1 -0.2 M-36.75 -2.35 Q-36.55 -2.75 -36.0 -2.35 L-35.65 -2.3 Q-34.75 -1.8 -35.65 -1.3 L-37.2 -1.2 -36.75 -2.35 M-29.0 -1.8 Q-29.45 -1.75 -29.9 -2.2 -30.35 -2.55 -29.8 -2.65 -28.6 -2.85 -29.0 -1.8 M-27.6 4.4 Q-26.15 4.55 -26.5 3.2 -25.6 4.0 -25.5 5.85 -25.45 7.75 -24.9 8.4 -25.5 8.2 -26.5 9.05 -25.45 10.05 -24.35 9.2 -24.95 10.75 -25.7 10.95 -26.05 11.05 -26.35 10.75 L-26.8 10.05 -27.55 9.95 -28.35 9.95 -29.15 9.4 -30.2 9.2 Q-30.45 8.2 -29.45 7.85 -29.15 7.65 -29.15 7.3 L-29.25 6.5 Q-29.25 4.4 -27.6 4.4 M-28.25 1.85 L-28.9 1.85 Q-29.25 1.65 -29.55 1.85 -30.2 2.3 -30.9 2.3 -30.8 2.65 -31.1 2.9 L-31.65 3.0 Q-31.75 2.65 -31.45 2.3 -32.2 2.2 -32.35 1.1 -32.65 0.2 -32.3 -0.45 -32.0 -1.2 -31.25 -1.0 L-30.65 -0.9 -30.35 -1.35 -30.0 -1.2 Q-29.7 -1.1 -30.0 -0.9 L-29.45 -1.35 Q-29.25 -1.8 -29.0 -1.65 -28.35 -1.45 -27.8 -0.55 -27.0 1.2 -28.25 1.85 M-27.45 -1.35 L-26.9 -0.75 -25.25 -0.75 Q-24.7 -1.2 -24.95 -1.8 -25.25 -2.45 -25.8 -2.65 L-26.45 -2.2 Q-26.7 -1.65 -27.15 -1.8 -27.7 -1.9 -27.45 -1.35 M-39.2 7.5 Q-38.6 9.3 -39.4 10.4 L-40.95 10.6 Q-42.05 10.4 -42.6 9.85 -43.35 9.3 -43.35 8.3 -43.4 7.4 -42.7 6.75 L-40.95 6.55 Q-39.75 6.95 -39.2 7.5 M-38.85 14.95 Q-38.95 14.4 -38.6 14.25 -38.2 14.05 -37.85 14.4 -37.5 14.9 -38.1 15.15 -38.65 15.5 -38.85 14.95 M-49.8 6.1 Q-49.0 5.65 -48.55 6.1 -48.0 6.55 -48.7 7.3 -49.15 7.65 -49.65 7.1 -50.2 6.65 -49.8 6.1 M-40.7 2.3 L-41.3 2.3 Q-41.6 2.0 -41.4 1.65 L-40.75 1.75 Q-40.4 2.0 -40.7 2.3 M-43.6 -2.2 Q-43.85 -0.9 -44.7 -1.55 -45.5 -2.2 -44.95 -2.75 -44.8 -2.85 -43.6 -2.2 M-45.9 -0.45 L-46.45 -0.35 -46.15 -0.65 -45.9 -0.45 M-46.05 -2.1 L-46.6 -1.75 Q-46.8 -2.3 -46.45 -2.45 -46.15 -2.65 -46.05 -2.1 M-42.3 -2.2 Q-42.4 -1.8 -42.8 -2.1 L-43.25 -2.55 Q-42.5 -2.85 -42.3 -2.2 M-39.75 0.35 L-39.3 -0.1 Q-39.05 0.0 -39.2 0.55 L-39.75 0.35 M-39.15 -10.4 Q-39.75 -11.5 -38.95 -11.6 -38.95 -11.15 -38.3 -10.6 -37.55 -10.05 -37.65 -9.5 -38.4 -9.3 -39.15 -10.4 M-41.25 -7.95 L-41.25 -9.2 Q-41.3 -10.05 -40.75 -10.15 -40.4 -10.2 -38.5 -8.95 L-37.85 -8.05 Q-37.55 -7.4 -38.4 -7.5 -40.5 -7.5 -41.25 -7.95 M-44.25 -11.05 L-43.6 -11.5 Q-43.15 -11.4 -43.05 -10.85 -43.15 -10.4 -43.8 -10.5 -44.35 -10.5 -44.25 -11.05 M-42.4 -16.9 Q-42.05 -17.05 -41.95 -16.7 L-42.6 -16.35 Q-42.8 -16.7 -42.4 -16.9 M8.75 22.35 L9.0 22.7 Q9.3 22.8 9.55 21.9 9.8 21.0 10.3 21.0 L10.85 22.0 10.65 22.2 10.3 22.25 10.75 22.65 9.65 23.25 Q9.35 23.35 9.45 23.8 L9.2 24.55 7.55 26.45 Q6.45 25.9 5.8 25.9 7.0 24.1 8.75 22.35 M-0.4 26.65 L0.25 27.75 -0.05 29.0 Q-0.2 29.55 -0.75 29.75 -1.85 29.95 -3.8 28.65 L-4.9 27.65 Q-5.45 27.1 -4.35 26.0 L-2.85 24.75 Q-2.4 23.9 -2.05 24.75 L-0.4 26.65 M15.95 24.45 L15.85 25.3 Q15.65 25.65 15.85 26.0 16.3 27.3 15.95 27.9 15.75 28.45 15.05 28.3 L13.95 27.85 Q13.1 27.2 13.3 26.2 12.95 25.1 13.1 24.45 13.4 23.75 14.55 23.65 15.65 23.65 15.95 24.45 M10.55 25.35 L11.2 25.45 Q10.45 26.1 10.55 25.35 M12.45 21.55 Q12.85 22.25 12.1 22.7 L11.1 23.65 10.45 24.55 9.35 24.8 Q9.8 24.55 9.65 24.1 L12.45 21.55 M0.4 23.8 Q2.7 24.45 1.35 27.0 1.6 28.45 2.9 31.2 3.6 29.2 5.0 27.1 5.15 28.0 5.9 28.45 L6.8 27.3 Q7.45 26.35 7.8 26.55 8.2 26.85 8.0 27.55 L7.55 28.45 6.7 28.55 5.9 28.45 Q4.55 30.3 3.15 32.95 2.6 31.2 1.35 29.2 L0.8 28.4 0.4 27.55 0.95 27.3 1.35 27.0 1.15 25.3 Q1.05 24.45 0.4 23.8 M14.85 41.25 L15.2 41.05 Q15.5 41.45 15.05 41.6 L14.85 41.25 M-3.25 41.05 Q-3.35 40.7 -2.85 40.7 -2.5 40.7 -2.5 40.95 -2.6 41.7 -3.25 41.05 M-15.2 40.8 Q-14.0 40.9 -15.45 42.35 -16.0 42.9 -15.85 42.0 -15.65 41.05 -15.2 40.8 M-7.7 41.5 Q-7.45 40.45 -6.45 41.15 -7.9 42.6 -7.7 41.5 M-3.85 36.3 Q-3.4 36.15 -3.4 36.4 L-3.85 36.7 Q-4.05 36.5 -3.85 36.3 M-9.15 35.75 Q-9.25 36.7 -9.9 36.25 -10.65 35.75 -10.55 35.05 -10.45 34.4 -9.8 34.75 -9.15 35.25 -9.15 35.75 M-9.0 39.15 Q-9.45 39.5 -9.8 38.7 -9.55 38.4 -9.35 38.7 L-9.0 39.15 M-6.35 30.75 L-7.25 30.65 -8.0 30.2 Q-8.1 29.55 -7.6 29.55 -7.25 29.5 -6.9 29.95 L-6.05 28.95 Q-5.45 28.4 -5.05 30.2 -4.8 31.85 -6.35 30.75 M-9.15 31.75 L-9.15 31.5 -8.7 31.55 -9.15 31.75 M-3.95 29.5 L-4.5 29.5 -4.15 28.75 -3.8 28.95 Q-3.7 29.2 -3.95 29.5 M-3.4 31.1 Q-2.95 31.2 -2.85 32.1 -2.85 33.05 -2.25 33.15 -2.85 34.4 -3.95 33.3 -4.25 33.05 -3.85 32.2 L-3.4 31.1 M-11.75 39.7 Q-11.65 38.7 -11.2 38.35 -10.9 38.05 -9.8 37.7 -9.55 38.25 -10.0 38.8 L-10.9 39.7 -11.45 40.15 Q-11.8 40.25 -11.75 39.7 M-17.85 32.2 Q-16.65 32.6 -16.0 33.95 -16.0 34.95 -17.05 34.6 -17.85 34.4 -18.3 33.6 -18.85 32.65 -17.85 32.2 M-13.3 33.3 Q-13.55 33.5 -14.0 33.15 -14.55 32.65 -14.65 32.65 L-14.85 33.2 Q-14.9 33.6 -15.3 33.4 -14.9 33.15 -14.85 31.85 -14.75 30.95 -13.65 31.1 -12.75 31.1 -12.75 32.05 -12.65 32.85 -13.3 33.3 M-17.3 27.85 L-16.85 28.0 -17.4 28.65 Q-17.55 28.2 -17.3 27.85 M-18.85 28.1 L-19.6 28.45 Q-19.65 28.1 -19.3 27.85 -19.05 27.55 -18.85 28.1 M-18.4 23.8 Q-17.85 24.0 -17.55 24.65 -17.2 25.3 -17.65 25.65 -18.05 26.0 -18.65 25.85 L-19.85 25.55 -19.15 24.65 -18.4 23.8 M-16.4 24.0 L-16.4 24.75 Q-16.85 24.9 -17.05 24.45 -17.2 24.0 -16.95 23.75 -16.3 23.65 -16.4 24.0 M-11.9 21.9 L-11.75 22.2 Q-11.2 23.0 -12.0 23.8 -12.9 24.65 -13.2 23.65 -14.4 24.65 -15.65 24.2 -16.95 23.65 -16.5 21.9 -16.2 20.9 -15.4 20.35 -14.55 19.8 -13.65 20.15 -12.45 20.7 -12.0 21.35 L-11.9 21.9 M-9.8 26.2 Q-9.45 25.1 -8.15 25.75 -6.9 26.45 -7.15 27.2 -7.45 27.9 -8.25 28.45 L-9.8 28.4 -11.25 28.2 Q-12.1 27.85 -12.2 27.1 -12.35 26.1 -11.35 25.85 -10.55 25.65 -9.8 26.2 M-6.6 24.1 L-8.35 24.35 -8.45 23.55 Q-8.45 23.2 -7.7 23.1 L-6.6 23.2 -5.6 23.0 Q-5.5 24.0 -6.6 24.1 M-10.0 22.9 Q-9.65 22.7 -9.65 23.0 -9.65 23.35 -9.9 23.35 L-10.35 23.25 -10.0 22.9 M13.4 30.0 Q13.3 28.85 14.3 29.1 L15.75 30.1 Q16.65 31.05 16.2 32.05 L15.5 32.65 Q14.95 32.95 14.95 33.5 13.4 33.3 13.4 30.0 M8.8 35.4 Q8.75 36.7 8.1 35.7 7.45 34.75 8.8 35.4 M4.8 39.7 Q5.0 39.35 6.15 39.35 L6.9 39.5 7.55 39.35 Q9.45 37.95 9.45 40.9 9.45 43.9 7.45 42.15 7.35 42.8 6.1 42.6 L4.45 42.25 Q4.9 41.8 4.8 40.95 L4.8 39.7 M7.35 37.6 Q7.2 37.3 7.8 37.15 8.55 36.85 8.55 36.6 9.75 36.85 8.8 37.8 7.8 38.7 7.35 37.6 M7.2 35.5 Q6.8 36.5 6.15 36.7 5.0 36.95 5.55 35.5 6.15 33.95 6.8 34.2 7.55 34.4 7.2 35.5 M2.05 35.15 Q2.6 34.6 3.05 35.6 3.45 36.5 2.9 36.7 2.35 36.8 2.05 36.15 1.9 35.5 2.05 35.15 M-0.7 33.6 Q-0.2 33.5 0.05 34.05 L0.4 34.85 -0.7 35.4 Q-0.6 35.25 -0.95 34.4 -1.25 33.75 -0.7 33.6 M6.25 29.65 L5.9 30.1 Q5.25 30.2 5.6 29.3 5.9 28.4 6.35 28.85 L6.25 29.65 M5.25 28.65 Q5.1 28.45 4.7 28.65 L4.9 29.1 5.25 28.65" fill="#000000" fill-rule="evenodd" stroke="none"/>
  </g>
</svg>
