<?xml version="1.0" encoding="UTF-8" standalone="no"?>
<svg xmlns:xlink="http://www.w3.org/1999/xlink" height="100.0px" width="49.5px" xmlns="http://www.w3.org/2000/svg">
  <g transform="matrix(1.0, 0.0, 0.0, 1.0, 24.75, 50.0)">
    <path d="M-10.5 -39.95 Q-5.85 -42.6 -0.45 -42.4 4.85 -42.2 9.75 -40.35 L13.65 -38.55 17.6 -43.35 16.5 -44.85 Q15.55 -46.65 16.35 -48.2 17.2 -49.8 18.5 -50.0 19.4 -50.1 20.2 -49.6 21.55 -48.85 21.8 -47.25 22.15 -44.95 18.75 -42.85 17.5 -39.0 17.3 -35.05 L18.85 -33.15 Q20.75 -30.7 22.15 -27.5 26.4 -17.3 23.7 -3.75 21.25 8.8 12.9 16.85 10.25 19.4 7.4 21.1 L5.0 22.4 5.05 26.45 Q9.65 26.7 13.75 30.15 18.1 33.8 16.55 36.8 15.1 38.85 11.35 36.15 L8.0 33.05 8.65 43.25 13.75 44.25 Q18.85 46.1 18.85 50.0 L0.35 49.55 -1.05 43.95 -2.25 49.3 -21.0 49.3 -19.2 46.65 Q-16.55 44.05 -12.2 44.15 -12.5 42.45 -12.15 38.2 L-11.75 34.2 Q-12.7 35.95 -13.95 37.35 -16.55 40.1 -18.45 38.4 -20.75 36.25 -16.85 31.7 -13.0 26.95 -8.05 26.1 L-8.35 22.95 -8.25 22.4 Q-12.15 20.6 -16.15 15.75 -24.2 5.95 -24.7 -9.5 -25.2 -22.6 -21.65 -29.7 -20.55 -32.0 -19.15 -33.3 L-18.0 -34.25 -19.15 -42.1 Q-21.05 -42.75 -22.65 -45.25 -23.7 -46.95 -23.0 -48.05 L-21.3 -49.3 Q-20.0 -50.0 -18.35 -48.65 -16.35 -46.95 -18.0 -43.0 -15.75 -40.15 -14.15 -37.25 L-10.5 -39.95 M-0.15 11.75 Q-2.2 12.0 -5.05 10.4 L-7.55 8.75 -7.1 13.0 Q-5.65 17.35 -0.85 17.8 4.0 18.2 6.25 12.95 L7.5 7.55 Q3.15 11.3 -0.15 11.75 M7.3 -12.2 Q3.8 -6.55 4.5 -4.45 5.2 -2.6 11.65 -2.3 17.95 -1.95 19.55 -3.55 21.15 -5.15 18.4 -11.5 15.7 -17.95 13.3 -17.95 10.95 -17.95 7.3 -12.2 M-8.65 -1.4 Q-3.05 -4.35 -1.3 -7.25 0.15 -9.65 -6.5 -15.25 -13.1 -20.6 -14.75 -19.8 -16.4 -18.95 -17.85 -10.5 -19.4 -1.8 -17.05 -0.1 -14.6 1.65 -8.65 -1.4" fill="#000000" fill-rule="evenodd" stroke="none"/>
  </g>
</svg>
