<?xml version="1.0" encoding="UTF-8" standalone="no"?>
<svg xmlns:xlink="http://www.w3.org/1999/xlink" height="100.0px" width="74.0px" xmlns="http://www.w3.org/2000/svg">
  <g transform="matrix(1.0, 0.0, 0.0, 1.0, 37.0, 50.0)">
    <path d="M-10.9 21.8 Q-10.9 22.1 -10.55 21.95 -10.2 21.8 -10.55 21.6 -10.9 21.5 -10.9 21.8 M-8.75 22.8 Q-8.75 22.45 -9.1 22.35 -9.45 22.25 -9.5 22.7 -9.55 23.15 -9.15 23.1 L-8.75 22.8 M-9.45 22.3 L-9.6 22.1 Q-9.9 22.0 -9.9 22.3 L-9.6 22.5 -9.45 22.3 M-7.75 22.25 L-7.85 22.55 -7.45 22.6 Q-7.2 22.45 -7.45 22.25 L-7.75 22.25 M-2.45 27.95 Q-2.75 27.85 -2.65 28.1 L-2.45 28.15 Q-2.25 28.05 -2.45 27.95 M-1.5 27.05 Q-2.0 27.1 -1.8 27.5 -1.35 28.1 -1.1 27.4 -1.05 26.95 -1.5 27.05 M-0.95 24.9 L-1.2 24.95 Q-1.25 25.2 -1.0 25.1 -0.65 25.05 -0.95 24.9 M-1.75 26.05 Q-1.65 25.75 -1.95 25.7 -2.35 25.65 -2.15 26.0 L-1.75 26.05 M-3.05 26.55 L-4.0 26.3 Q-4.65 26.4 -4.1 27.15 -3.55 28.0 -3.1 27.4 -2.5 26.75 -3.05 26.55 M-2.6 21.85 Q-2.75 22.15 -2.4 22.05 -2.05 21.95 -2.3 21.75 -2.6 21.6 -2.6 21.85 M-0.75 22.7 Q-0.95 22.95 -0.6 22.95 -0.25 22.9 -0.55 22.7 L-0.75 22.7 M-0.4 23.6 Q-0.15 23.4 -0.4 23.25 L-0.7 23.3 -0.7 23.6 -0.4 23.6 M3.6 24.0 Q3.6 24.5 4.25 24.15 4.8 23.85 3.65 23.25 L3.6 24.0 M0.7 26.35 Q0.8 26.2 0.5 26.05 0.2 25.9 0.15 26.15 L0.1 26.75 Q0.05 27.15 0.45 27.0 L0.5 26.6 Q0.45 26.25 0.7 26.35 M3.55 22.2 L3.45 22.35 3.7 22.5 Q3.9 22.35 3.7 22.2 L3.55 22.2 M3.3 21.85 L3.2 21.95 Q3.2 22.2 3.45 22.05 3.7 21.95 3.4 21.85 L3.3 21.85 M25.2 45.55 L25.55 45.6 Q25.8 45.4 25.45 45.3 25.1 45.3 25.2 45.55 M16.4 41.55 L16.25 41.35 Q15.85 41.2 15.9 41.55 15.95 41.9 16.25 41.75 L16.4 41.55 M18.45 41.05 L19.05 41.65 19.7 42.25 Q19.8 41.65 20.3 42.0 L21.1 42.55 20.9 41.85 Q20.8 41.4 21.4 41.8 L21.25 41.2 21.05 40.7 21.95 39.55 21.75 39.7 Q21.8 39.5 22.1 39.55 22.45 39.65 22.7 39.35 L22.65 40.75 22.55 40.65 22.3 40.7 22.15 40.85 22.35 41.15 22.65 41.0 Q22.65 41.7 22.85 41.9 21.15 41.4 21.4 43.25 L23.15 43.3 Q23.35 45.2 22.9 47.75 22.95 47.3 22.55 47.45 22.45 47.1 22.0 47.2 L21.35 47.2 Q20.9 46.95 21.4 46.7 L22.1 46.4 Q22.7 46.2 22.45 45.5 22.2 44.75 21.6 44.7 20.85 44.65 20.8 45.25 L20.7 46.15 20.35 46.3 20.1 46.6 Q20.05 47.05 21.15 47.4 L20.75 47.5 Q20.5 47.5 20.4 47.85 19.0 45.2 15.6 44.3 15.9 44.0 17.15 43.85 18.3 43.65 18.5 43.1 18.05 42.7 16.95 42.5 L15.35 42.05 Q15.0 41.85 14.9 40.9 14.8 40.0 15.0 39.7 L15.15 39.9 15.45 39.8 Q15.55 39.55 15.05 39.55 L14.95 39.65 Q15.0 39.35 15.45 39.15 15.3 39.65 15.8 39.45 L16.9 39.15 17.55 39.45 Q17.95 39.55 17.75 39.9 L16.95 40.4 Q17.25 40.7 18.45 41.05 M16.75 35.6 L16.55 35.6 16.45 35.7 16.75 35.9 Q17.0 35.75 16.75 35.6 M19.05 33.9 Q19.25 33.7 18.95 33.6 18.65 33.45 18.75 33.8 18.8 34.15 19.05 33.9 M23.25 36.05 Q23.3 36.6 23.75 36.4 24.25 36.25 24.1 35.85 23.95 35.4 23.6 35.5 23.2 35.6 23.25 36.05 M21.6 36.45 Q21.1 36.35 21.25 36.8 21.4 37.2 21.85 36.9 L21.6 36.45 M22.7 34.65 Q22.75 35.0 23.25 34.9 23.8 34.8 23.8 34.5 23.8 34.05 23.2 34.2 22.65 34.3 22.7 34.65 M24.1 32.8 Q23.9 32.65 23.85 32.9 23.85 33.2 24.05 33.1 L24.15 33.0 24.1 32.8 M13.65 36.5 L12.3 36.4 8.05 36.8 3.85 37.45 Q6.2 36.5 7.2 35.6 L1.3 36.95 Q7.55 32.55 14.5 32.6 13.8 33.15 14.8 33.2 15.75 33.2 15.05 32.6 17.1 32.65 19.2 33.65 L20.15 34.3 Q19.65 34.0 19.1 34.3 18.5 34.6 18.75 35.45 18.9 35.95 19.8 35.3 20.8 34.6 21.0 34.9 22.2 36.25 22.45 37.8 22.6 38.8 21.5 38.3 20.35 37.75 20.7 37.3 L20.45 37.4 Q19.95 37.3 20.3 36.3 19.6 36.3 19.6 36.65 L19.95 37.4 Q19.3 37.8 15.95 36.8 16.7 36.0 14.95 36.25 L13.65 36.5 M10.2 35.2 Q11.05 35.5 10.45 34.75 9.85 34.0 9.95 34.9 L9.25 34.15 Q8.8 33.65 8.4 33.75 7.95 33.9 7.85 34.6 7.7 35.25 8.3 35.3 L9.25 35.2 Q9.85 35.05 10.2 35.2 M12.6 35.1 Q12.6 35.25 12.8 35.2 L12.85 35.0 12.7 34.95 12.6 35.1 M13.95 33.6 Q13.25 34.1 13.85 34.9 14.35 35.5 15.0 35.1 15.65 34.65 15.1 33.95 14.65 33.2 13.95 33.6 M10.45 30.6 L10.8 30.6 Q10.9 30.4 10.65 30.35 L10.45 30.4 10.45 30.6 M11.6 26.75 Q11.4 26.7 11.4 26.9 L11.55 27.1 11.8 26.95 11.6 26.75 M13.55 29.6 L13.7 29.5 13.6 29.3 Q13.4 29.15 13.35 29.4 L13.55 29.6 M14.05 28.75 L14.2 28.9 14.4 28.85 14.25 28.6 Q14.0 28.55 14.05 28.75 M13.6 28.05 Q13.8 27.8 13.25 27.65 12.85 27.55 12.9 28.1 L13.0 28.45 12.3 28.5 Q11.25 28.7 11.65 29.25 12.65 30.8 13.15 28.7 L13.15 28.5 13.25 28.35 13.6 28.05 M6.35 29.15 Q6.55 29.55 6.85 29.3 7.1 29.1 6.85 28.9 L6.05 28.85 6.3 29.15 5.75 29.3 Q5.4 29.55 5.75 29.75 6.2 29.9 6.2 29.65 6.15 29.25 6.35 29.15 M9.3 27.7 Q9.1 27.4 8.65 27.9 L8.1 28.65 Q7.35 29.6 8.25 30.2 9.1 30.8 9.7 29.85 9.9 29.45 9.75 28.75 L9.3 27.7 M9.1 26.8 L9.1 27.15 Q9.45 27.5 9.35 27.0 9.3 26.5 9.1 26.8 M5.4 25.15 L5.75 25.15 6.05 25.05 Q6.05 24.8 5.75 24.85 L5.4 25.15 M5.8 22.8 L6.3 22.8 Q6.6 22.8 6.35 22.4 6.15 22.0 5.85 22.4 5.6 22.75 5.8 22.8 M5.05 22.75 Q4.85 23.0 4.9 23.3 L5.45 22.8 Q5.8 22.35 5.55 22.4 L5.05 22.75 M7.05 23.3 L7.0 23.1 Q6.85 23.05 6.85 23.2 6.85 23.4 7.05 23.3 M7.45 21.8 Q7.8 21.4 7.3 21.15 6.85 20.95 6.65 21.4 6.5 21.85 6.85 22.0 L7.45 21.8 M11.95 23.95 Q11.8 24.15 12.1 24.15 12.4 24.1 12.15 23.95 L12.05 23.9 11.95 23.95 M13.1 24.15 Q12.75 23.95 12.55 24.3 12.4 24.65 12.7 24.9 12.95 25.15 13.25 24.8 13.55 24.35 13.1 24.15 M9.4 26.3 Q9.35 26.65 9.7 26.55 10.1 26.4 9.75 26.2 9.5 26.05 9.4 26.3 M9.35 24.65 L11.15 24.55 Q12.1 23.85 11.25 23.3 10.35 22.85 10.35 23.85 8.85 23.75 9.35 24.65 M11.3 25.7 Q11.0 25.55 11.05 25.85 11.05 26.15 11.3 26.05 L11.4 25.9 11.3 25.7 M9.95 20.75 Q9.7 20.65 9.65 20.9 9.6 21.2 9.95 21.0 10.3 20.9 9.95 20.75 M9.45 21.0 L9.6 20.85 9.4 20.65 Q9.1 20.6 9.15 20.85 9.2 21.1 9.45 21.0 M10.75 21.45 L10.8 21.1 Q10.6 21.05 10.5 21.25 L10.5 21.5 10.75 21.45 M19.45 27.25 Q19.8 27.05 19.35 26.95 19.05 26.85 19.05 27.1 19.1 27.5 19.45 27.25 M20.6 27.0 Q20.8 26.8 20.55 26.65 20.15 26.45 20.25 26.85 20.35 27.25 20.6 27.0 M20.85 27.4 Q20.9 28.15 21.4 27.55 21.95 27.0 21.1 27.05 L21.25 26.8 20.7 27.4 Q20.2 28.05 20.05 27.5 L19.9 27.75 19.95 28.0 20.45 27.95 20.85 27.4 M22.5 28.1 Q22.7 27.85 22.4 27.65 22.05 27.4 21.8 27.65 21.45 28.0 21.85 28.2 L22.5 28.1 M22.85 29.15 Q23.25 29.25 23.15 28.85 23.0 28.4 22.7 28.65 22.55 28.75 22.65 29.05 22.7 29.3 22.85 29.15 M15.15 29.15 L15.3 29.35 15.5 29.25 15.45 29.1 Q15.25 28.95 15.15 29.15 M15.0 27.75 Q14.95 27.45 14.65 27.65 14.35 27.9 14.5 28.15 L14.9 28.2 15.0 27.75 M14.9 27.2 Q15.25 27.05 14.9 26.7 14.5 26.3 14.3 26.7 14.2 26.95 14.45 27.15 L14.9 27.2 M18.05 28.35 L18.25 28.3 18.25 28.1 18.05 28.15 18.05 28.35 M18.9 29.3 L19.15 29.45 Q19.4 29.3 19.1 29.2 18.9 29.15 18.9 29.3 M18.65 27.05 Q18.6 27.2 18.85 27.2 L19.0 27.0 18.85 26.85 18.65 27.05 M18.2 27.45 L18.65 27.35 18.45 27.15 18.2 27.45 M18.9 27.9 L18.3 27.75 Q18.1 28.05 18.95 28.5 L18.7 28.25 18.9 27.9 M17.1 26.2 Q16.8 26.05 16.9 26.4 L17.2 26.45 17.1 26.2 M17.75 25.8 L17.6 26.05 Q17.6 26.55 18.1 26.3 18.65 26.1 18.15 25.8 17.95 25.65 17.75 25.8 M17.2 24.75 Q17.05 24.6 16.95 24.75 L17.1 24.9 17.2 24.75 M15.7 26.4 L15.45 26.45 15.45 26.7 15.7 26.7 Q15.9 26.55 15.7 26.4 M17.0 21.1 Q17.35 20.95 16.9 20.9 16.7 20.9 16.7 21.0 16.75 21.25 17.0 21.1 M17.6 23.0 L17.55 22.15 Q17.3 21.9 16.8 21.85 L16.15 21.7 Q15.9 21.8 15.6 22.2 L15.2 22.8 15.25 22.85 14.9 22.95 14.55 22.8 14.05 22.6 Q14.0 22.15 14.5 22.05 14.15 21.85 13.9 21.15 L13.3 20.35 12.4 21.4 Q12.2 21.1 11.75 21.55 L12.2 22.05 Q12.5 22.75 12.2 22.65 12.45 22.75 12.45 22.3 L12.6 22.7 12.4 23.05 Q12.8 23.25 12.75 23.05 L12.8 22.7 14.3 23.8 14.75 23.75 15.1 23.55 15.45 23.75 15.7 23.5 15.95 23.95 16.25 24.3 16.2 24.05 16.15 23.9 16.7 24.05 Q16.75 25.05 17.45 24.35 L17.6 24.0 17.6 23.7 17.6 23.0 M22.95 24.5 L22.75 24.45 22.65 24.55 22.9 24.75 22.95 24.5 M20.5 23.15 L20.85 22.8 20.55 22.55 Q20.3 22.5 20.2 22.7 20.0 23.1 20.5 23.15 M21.35 22.75 Q20.9 22.65 21.05 23.0 21.25 23.35 21.5 23.1 L21.6 22.95 21.35 22.75 M20.65 20.8 Q20.85 20.6 20.5 20.6 20.25 20.5 20.35 20.75 L20.65 20.8 M24.75 42.6 L24.55 42.95 24.75 42.9 24.75 42.6 M25.3 39.45 L25.6 39.45 Q25.85 39.35 25.6 39.2 L25.4 39.25 25.3 39.45 M24.9 37.9 L25.0 38.2 25.3 38.05 25.2 37.75 Q25.0 37.7 24.9 37.9 M24.55 34.3 L24.75 34.1 24.6 33.85 Q24.4 33.75 24.4 34.0 24.4 34.25 24.55 34.3 M25.45 35.65 L25.45 35.45 25.25 35.5 25.3 35.7 25.45 35.65 M25.0 29.65 Q24.65 29.5 24.6 29.9 24.6 30.25 24.9 30.3 25.15 30.35 25.25 30.05 25.3 29.75 25.0 29.65 M-36.0 -27.35 Q-35.85 -27.3 -35.8 -27.6 L-36.0 -27.55 -36.0 -27.35 M-36.45 -30.2 L-36.2 -30.2 Q-36.05 -30.3 -36.25 -30.4 L-36.4 -30.35 -36.45 -30.2 M-35.85 -28.2 L-35.4 -28.3 Q-35.35 -28.6 -35.6 -28.5 L-35.85 -28.2 M18.6 20.2 Q17.4 19.2 18.05 20.55 L18.35 20.85 Q19.7 21.15 18.6 20.2 M18.2 19.7 Q18.55 19.7 18.55 19.4 L18.2 19.05 Q17.85 19.0 17.85 19.3 17.85 19.65 18.2 19.7 M16.85 20.4 Q17.05 20.3 16.85 20.25 L16.7 20.2 Q16.7 20.45 16.85 20.4 M15.65 17.7 L15.7 17.95 Q15.95 17.85 15.8 17.55 15.65 17.5 15.65 17.7 M15.7 19.55 Q15.65 19.9 16.0 19.75 16.4 19.55 16.0 19.45 15.75 19.35 15.7 19.55 M15.2 19.95 L15.5 20.55 15.95 21.05 16.55 21.75 15.95 20.8 15.2 19.95 M10.8 20.1 L11.0 20.5 10.85 20.95 Q13.45 19.85 14.1 19.15 14.4 18.9 15.8 18.4 L14.05 18.7 Q14.8 18.55 14.0 18.1 12.85 18.65 13.5 19.0 12.9 19.05 12.1 19.45 L10.8 20.1 M10.55 18.7 Q10.45 18.8 10.6 18.9 L10.85 19.0 10.75 18.8 10.55 18.7 M10.75 16.15 Q10.8 16.5 11.05 16.3 11.3 16.2 11.0 16.0 10.7 15.75 10.75 16.15 M10.2 17.35 Q10.35 16.8 9.7 16.8 9.05 16.8 9.2 17.45 L9.7 17.75 10.2 17.35 M10.25 15.8 Q9.9 15.65 9.95 16.05 L10.15 16.25 10.05 16.4 Q10.0 16.75 10.3 16.85 10.55 16.9 10.7 16.6 10.8 16.35 10.55 16.2 L10.3 16.15 10.35 16.1 Q10.6 16.0 10.25 15.8 M13.15 17.2 Q13.45 17.15 13.2 17.0 13.1 16.85 13.0 17.0 12.9 17.25 13.15 17.2 M11.9 15.8 Q12.1 15.65 11.9 15.5 L11.6 15.55 Q11.45 15.75 11.6 15.85 L11.9 15.8 M8.7 19.25 L8.6 19.35 Q8.5 19.65 8.8 19.55 L8.85 19.25 8.7 19.25 M7.7 17.95 Q7.65 18.3 7.95 18.1 8.25 17.95 7.95 17.8 7.7 17.7 7.7 17.95 M8.85 17.7 L8.3 18.35 Q7.8 18.95 7.65 18.45 L7.5 18.7 7.6 18.9 Q8.0 19.0 8.2 18.7 L8.85 17.7 M6.25 18.3 L6.05 18.1 5.8 18.4 6.25 18.3 M6.35 18.55 Q5.5 18.35 4.7 18.9 3.85 19.55 4.65 20.25 5.7 21.3 6.6 20.1 7.45 18.85 6.35 18.55 M6.55 17.75 Q6.35 17.65 6.25 17.85 L6.4 18.15 6.65 18.0 6.55 17.75 M8.75 16.8 Q9.05 16.35 8.65 15.95 L10.05 15.2 Q9.55 13.9 8.75 14.4 7.8 14.85 8.35 15.5 L7.5 15.6 Q6.95 15.75 6.8 16.0 L6.5 16.15 6.3 16.5 Q6.5 16.85 6.8 16.6 L7.0 17.4 7.95 17.3 8.75 16.8 M7.8 14.25 Q7.65 14.3 7.65 14.45 7.65 14.9 8.05 14.65 8.4 14.4 8.0 14.2 L7.8 14.25 M7.75 11.75 L7.6 11.6 Q7.35 11.45 7.35 11.75 7.4 12.0 7.65 11.9 L7.75 11.75 M8.75 12.15 L8.25 11.9 Q7.75 11.8 7.85 12.25 7.85 12.95 8.75 12.15 M8.95 12.4 L9.15 12.6 9.25 12.45 9.15 12.25 8.95 12.4 M5.6 11.95 Q5.5 12.0 5.55 12.15 L5.75 11.95 5.6 11.95 M5.3 13.7 Q5.3 13.95 5.5 13.8 L5.55 13.55 5.4 13.5 5.3 13.7 M7.0 9.4 L7.15 9.3 7.05 9.1 6.85 9.2 Q6.85 9.4 7.0 9.4 M9.45 9.85 Q9.7 9.45 9.45 9.15 L8.8 9.2 Q8.45 9.7 8.85 9.95 L9.45 9.85 M13.65 7.1 L13.8 7.35 14.0 7.2 13.9 6.95 Q13.7 6.85 13.65 7.1 M12.85 7.95 Q12.4 8.1 12.85 8.2 L12.9 8.15 Q13.4 7.75 12.85 7.95 M11.95 8.45 L12.45 7.95 12.9 7.15 12.45 7.55 Q11.85 8.15 11.95 8.45 M12.55 6.0 L12.35 6.05 Q12.3 6.35 12.55 6.2 12.85 6.1 12.55 6.0 M11.95 6.15 L11.8 6.0 Q11.45 5.9 11.65 6.2 L11.95 6.15 M13.5 6.35 Q13.45 5.85 13.1 5.95 12.8 6.05 12.8 6.4 L13.05 6.7 Q13.55 6.8 13.5 6.35 M10.35 3.6 Q10.85 3.45 10.5 2.75 10.15 2.15 9.7 2.65 9.45 3.0 9.65 3.4 9.9 3.8 10.35 3.6 M9.35 4.8 Q9.75 4.8 9.4 4.65 L9.25 4.65 Q8.95 4.8 9.35 4.8 M12.6 4.95 Q12.45 4.9 12.25 5.15 12.1 5.4 12.3 5.45 L12.6 4.95 M7.3 7.85 L6.85 8.25 Q6.6 8.65 6.7 8.7 6.85 8.75 7.1 8.4 L7.3 7.85 M5.4 7.7 Q5.8 7.5 5.45 7.25 L5.1 7.25 Q4.95 7.3 4.95 7.5 5.0 7.9 5.4 7.7 M5.4 5.9 L5.1 5.95 Q4.95 6.15 5.2 6.2 L5.4 6.1 5.4 5.9 M7.55 3.05 Q8.1 3.2 8.15 2.65 L8.05 1.85 7.55 3.05 M8.0 4.15 Q7.95 4.45 8.3 4.35 8.6 4.2 8.3 4.1 L8.0 4.15 M7.1 2.15 L7.2 1.95 7.05 1.7 Q6.75 1.55 6.75 1.95 L7.1 2.15 M6.95 -0.15 Q7.35 -0.2 7.15 -0.35 L6.95 -0.3 6.95 -0.15 M8.4 0.35 L8.1 0.25 8.55 -0.25 8.7 -0.65 7.9 -0.05 Q7.55 0.5 7.65 0.9 7.8 1.6 8.35 1.15 8.85 0.7 8.4 0.35 M6.4 -3.5 Q5.7 -2.65 6.65 -1.75 7.55 -0.9 8.1 -2.25 8.45 -3.15 7.75 -3.65 7.0 -4.25 6.4 -3.5 M3.45 18.9 Q3.6 18.55 3.1 18.45 2.65 18.35 2.6 18.8 2.55 19.15 2.9 19.2 3.35 19.2 3.45 18.9 M2.05 18.9 Q1.9 19.2 2.3 19.1 2.65 19.05 2.35 18.85 L2.05 18.9 M3.25 20.35 L2.25 20.45 Q1.75 20.5 2.25 21.2 L3.0 21.15 3.25 20.35 M-0.15 20.5 L-0.05 20.35 -0.2 20.15 Q-0.5 20.1 -0.4 20.35 -0.35 20.6 -0.15 20.5 M3.1 14.65 Q3.05 14.85 3.15 14.85 3.4 14.8 3.25 14.5 3.1 14.45 3.1 14.65 M4.15 17.15 L3.95 17.15 3.85 17.25 Q3.85 17.45 4.05 17.35 L4.15 17.15 M3.05 15.0 Q2.9 14.65 2.75 15.0 2.45 15.45 2.6 15.45 L2.95 15.3 3.05 15.0 M2.4 15.9 L2.3 15.65 Q2.0 15.55 2.15 15.85 2.25 16.15 2.4 15.9 M4.1 15.2 Q4.0 15.35 4.25 15.6 L4.5 16.0 Q5.0 15.75 5.0 15.2 L4.6 14.9 4.1 15.2 M-1.9 19.65 L-2.35 19.2 -2.3 20.6 Q-2.15 21.75 -1.75 21.4 L-1.15 20.6 Q-0.85 19.85 -1.2 19.7 L-1.9 19.65 M-2.1 17.7 L-2.25 18.05 -2.0 18.35 Q-1.5 18.4 -1.6 17.95 -1.7 17.55 -2.1 17.7 M-1.15 18.8 Q-1.3 18.65 -1.35 18.9 -1.4 19.15 -1.15 19.05 L-1.1 18.9 -1.15 18.8 M-4.75 18.9 L-5.05 18.95 -5.05 19.3 -4.7 19.25 Q-4.5 19.05 -4.75 18.9 M-5.1 18.8 L-4.6 18.9 Q-4.3 18.8 -4.35 18.5 -4.35 18.1 -4.75 18.25 -5.15 18.35 -5.1 18.8 M-3.35 17.75 L-3.1 17.95 -2.95 17.75 -3.15 17.55 -3.35 17.75 M-1.65 17.45 Q-1.55 17.0 -1.9 17.0 -2.25 17.0 -2.3 17.5 L-1.65 17.45 M-2.3 9.7 Q-1.9 9.7 -1.85 9.3 -1.8 8.9 -2.25 8.85 -2.65 8.85 -2.65 9.25 -2.7 9.7 -2.3 9.7 M-1.5 9.05 L-1.05 9.0 -1.85 8.95 -1.5 9.05 M-0.65 9.2 Q-0.85 9.15 -0.9 9.35 L-0.75 9.65 Q-0.55 9.75 -0.45 9.5 -0.35 9.25 -0.65 9.2 M1.85 13.6 Q1.6 13.5 1.65 13.75 1.7 14.0 1.9 13.85 L1.85 13.6 M0.5 13.95 Q0.4 14.2 0.65 14.15 L0.7 13.95 Q0.6 13.75 0.5 13.95 M0.45 13.1 Q0.45 13.55 0.6 13.4 L0.6 13.2 0.45 13.1 M-0.05 12.8 Q1.2 12.4 -0.15 12.05 L-0.55 12.25 Q-1.35 13.2 -0.05 12.8 M0.85 12.6 Q0.85 12.8 1.0 12.8 L1.3 12.65 1.05 12.35 Q0.85 12.3 0.85 12.6 M1.7 12.6 L1.7 12.8 2.05 12.8 Q2.2 12.6 1.9 12.55 L1.7 12.6 M-7.0 20.2 Q-7.4 20.2 -7.4 20.55 -7.4 21.1 -7.0 21.3 L-6.55 20.95 Q-6.25 20.8 -6.45 20.45 -6.6 20.15 -7.0 20.2 M-5.65 18.2 Q-5.65 18.05 -5.8 18.05 -6.2 17.9 -5.95 18.25 -5.7 18.6 -5.65 18.2 M-8.3 18.9 Q-9.2 18.65 -9.95 19.6 -10.7 20.65 -10.2 21.45 L-9.5 21.4 -9.05 20.8 -8.3 20.55 Q-7.9 20.35 -7.8 20.0 L-7.5 20.1 Q-7.3 20.0 -7.55 19.85 L-7.75 19.9 -7.95 19.35 -6.95 19.1 -6.05 18.5 -6.4 18.3 -6.7 18.35 Q-6.95 17.4 -7.85 17.9 -8.8 18.35 -8.3 18.9 M-9.8 18.05 L-8.3 18.1 -6.9 17.25 Q-6.3 16.9 -5.1 16.65 L-3.2 16.05 -1.4 15.75 Q-0.2 15.5 0.3 14.95 L0.15 15.65 -0.45 15.75 -0.95 16.45 -1.25 17.2 Q-1.15 18.6 -0.3 18.9 L0.5 19.0 1.15 19.4 0.05 20.35 Q0.35 20.4 0.7 20.1 L1.2 19.6 1.55 20.0 Q1.85 20.35 2.0 19.85 L1.75 19.35 1.4 19.1 1.75 17.3 Q1.75 16.75 0.6 15.95 L1.35 15.65 2.0 15.2 Q2.15 14.75 0.3 14.85 L-1.85 15.2 Q-2.45 15.65 -3.5 15.95 L-5.35 16.4 Q-5.65 15.95 -9.8 18.05 M-8.85 14.85 L-8.95 14.85 -9.05 14.9 -8.85 15.1 Q-8.6 14.95 -8.85 14.85 M-6.95 15.6 Q-7.05 15.15 -7.2 15.55 L-7.1 15.9 -6.85 16.1 -6.95 15.6 M-6.2 14.9 L-6.1 15.15 -5.8 15.05 Q-5.65 14.85 -5.9 14.8 L-6.2 14.9 M-12.15 17.9 Q-12.4 17.8 -12.45 18.0 L-12.35 18.25 Q-12.15 18.3 -12.1 18.15 -12.0 18.0 -12.15 17.9 M-11.65 18.25 Q-11.35 18.2 -11.6 18.0 -11.7 17.85 -11.85 18.0 L-11.65 18.25 M-14.9 18.35 Q-15.25 18.2 -15.2 18.55 -15.15 18.9 -14.85 18.75 L-14.75 18.55 -14.9 18.35 M-14.4 20.2 L-15.2 20.1 -15.9 20.15 Q-16.15 20.55 -15.75 20.9 L-15.15 21.1 -14.15 20.65 Q-13.6 20.15 -14.4 20.2 M-13.15 19.65 Q-13.55 19.95 -13.15 20.05 L-12.3 20.2 -12.5 19.95 -12.75 19.8 Q-12.8 19.35 -13.15 19.65 M-13.65 17.1 L-14.25 17.4 -14.7 17.8 -13.65 17.1 M-13.35 17.2 L-13.15 17.4 Q-12.95 17.35 -13.15 17.15 L-13.35 17.2 M-11.05 16.95 L-11.3 17.1 -11.1 17.25 Q-10.9 17.1 -11.05 16.95 M-13.0 11.85 L-13.0 11.6 -13.2 11.5 -13.15 11.75 -13.0 11.85 M-14.85 10.05 L-14.6 10.25 -14.5 10.05 -14.7 9.85 -14.85 10.05 M-14.15 9.15 L-14.3 9.25 -14.25 9.45 -14.0 9.35 -14.15 9.15 M-11.3 10.25 L-11.55 10.35 -11.15 10.65 Q-10.75 10.6 -11.15 10.3 L-11.3 10.25 M-9.25 8.55 L-9.15 8.55 -9.25 8.4 -9.25 8.55 M-9.15 8.9 L-8.85 9.2 Q-8.55 9.2 -8.4 8.95 -8.35 8.7 -8.75 8.7 -9.1 8.65 -9.15 8.9 M-5.65 9.55 L-5.6 9.9 Q-5.35 10.0 -5.3 9.75 L-5.4 9.55 -5.65 9.55 M-10.05 6.25 Q-9.85 6.15 -9.9 5.9 -9.9 5.6 -10.2 5.55 -10.75 5.45 -10.6 6.0 -10.45 6.55 -10.05 6.25 M-9.35 4.0 Q-8.95 4.0 -8.9 3.8 -8.6 2.9 -9.35 3.3 -10.2 3.75 -9.35 4.0 M-8.8 5.4 L-8.85 5.05 Q-9.1 3.9 -9.6 5.05 -10.15 6.25 -9.05 5.6 L-8.8 5.4 M-8.05 3.4 Q-7.9 3.15 -8.15 3.05 -8.5 2.9 -8.55 3.2 -8.65 3.55 -8.4 3.6 -8.15 3.65 -8.05 3.4 M-11.95 6.9 L-12.05 6.75 -11.85 6.9 Q-11.55 6.5 -11.9 6.25 -12.2 6.0 -12.65 6.25 -13.15 6.55 -12.8 7.05 L-12.3 7.95 Q-12.8 7.35 -14.2 8.25 L-13.45 9.4 -12.6 10.25 Q-12.45 10.2 -12.6 9.9 -12.75 9.6 -12.85 9.75 -12.75 9.2 -12.0 9.0 L-10.95 8.7 -10.45 8.0 Q-10.3 7.95 -9.9 8.25 L-9.25 8.35 -9.7 7.6 Q-9.95 7.15 -10.4 7.2 L-11.75 7.1 Q-11.6 7.25 -11.9 7.4 -11.8 7.15 -11.95 6.9 M-13.45 7.4 Q-13.55 7.0 -13.75 7.4 -13.9 7.75 -13.55 7.65 L-13.45 7.4 M-15.2 8.45 L-15.0 8.35 Q-14.9 8.15 -15.1 8.1 L-15.25 8.2 -15.2 8.45 M-13.7 6.4 Q-13.5 6.6 -13.5 6.3 -13.5 6.05 -13.7 6.15 -13.9 6.25 -13.7 6.4 M-13.15 4.55 Q-13.7 4.4 -14.0 5.0 -14.3 5.6 -13.7 5.8 -13.05 6.15 -12.75 5.45 -12.45 4.75 -13.15 4.55 M-14.3 3.65 Q-14.45 3.15 -14.9 3.45 -15.2 3.65 -15.1 4.0 -14.9 4.35 -14.55 4.25 -14.1 4.1 -14.3 3.65 M-14.6 2.8 L-14.75 2.6 Q-15.0 2.65 -14.8 2.85 -14.65 3.1 -14.6 2.8 M-13.75 3.65 Q-14.1 3.6 -13.95 3.9 L-13.65 4.15 Q-13.45 4.25 -13.4 4.0 -13.35 3.75 -13.75 3.65 M-11.8 2.5 L-12.25 3.25 Q-10.95 2.05 -11.05 1.85 -11.15 1.65 -11.8 2.5 M-10.5 5.0 L-10.75 5.1 Q-10.85 5.35 -10.55 5.4 -10.3 5.5 -10.4 5.15 L-10.5 5.0 M-13.85 1.75 L-13.15 1.35 Q-12.9 0.95 -13.45 0.85 -14.0 0.75 -14.1 1.15 -14.25 1.75 -13.85 1.75 M-14.4 1.45 Q-14.7 0.75 -15.3 1.15 -15.95 1.6 -15.6 2.2 -15.25 2.75 -14.75 2.4 -14.2 2.0 -14.4 1.45 M-14.05 0.7 L-13.45 0.75 Q-13.15 0.65 -13.5 0.45 L-14.1 0.35 Q-14.45 0.55 -14.05 0.7 M-6.75 0.95 Q-6.8 1.3 -6.45 1.15 -6.05 0.95 -6.45 0.8 L-6.75 0.95 M-7.25 -2.0 L-7.0 -2.2 Q-6.85 -2.45 -7.15 -2.55 -7.4 -2.7 -7.45 -2.35 L-7.25 -2.0 M4.05 6.0 Q4.15 5.8 3.85 5.75 3.6 5.65 3.55 5.9 L3.75 6.15 Q4.0 6.2 4.05 6.0 M1.55 5.45 L1.45 5.15 Q1.2 5.05 1.15 5.3 L1.3 5.6 1.55 5.45 M1.3 4.6 Q1.35 4.2 1.05 4.3 L1.1 4.55 1.3 4.6 M1.1 3.9 L1.3 3.5 Q1.2 2.9 0.5 2.8 L-0.15 2.9 -0.15 2.8 -0.35 2.6 -0.55 2.8 -0.3 3.0 -0.25 3.0 -0.4 3.3 0.05 4.0 Q0.4 4.45 0.15 4.65 -0.2 5.0 0.15 5.2 0.45 5.45 0.85 5.4 1.25 5.3 1.1 4.8 L0.85 4.5 0.8 4.15 1.1 3.9 M3.9 3.65 Q4.4 3.0 3.5 3.35 2.6 3.75 3.6 3.75 L3.9 3.65 M2.15 4.6 Q2.6 4.65 2.5 4.15 2.4 3.65 1.95 3.95 L1.85 4.3 2.15 4.6 M-2.4 6.6 L-2.9 6.7 Q-3.1 7.05 -2.75 7.2 -2.45 7.3 -2.3 7.05 -2.15 6.75 -2.4 6.6 M-4.35 6.0 L-4.35 6.15 -4.2 6.2 Q-4.15 5.85 -4.35 6.0 M-4.2 8.2 L-5.2 6.95 Q-5.5 6.65 -6.6 6.45 L-5.75 5.65 Q-5.15 5.2 -5.4 4.7 -5.85 3.9 -6.7 4.15 -7.45 4.45 -7.15 5.3 -7.35 4.85 -7.3 6.4 -7.25 7.6 -6.8 6.55 L-7.3 7.4 Q-7.85 7.9 -7.5 8.55 L-6.85 9.15 -6.25 9.75 Q-6.3 9.0 -6.15 9.2 L-5.8 9.65 Q-5.45 9.15 -5.05 9.55 L-4.3 10.05 Q-4.45 9.7 -4.0 9.2 -3.6 8.75 -4.2 8.2 M-4.7 2.8 Q-5.05 3.35 -4.15 2.55 L-4.15 2.45 Q-4.35 2.25 -4.7 2.8 M-1.15 4.8 L-1.05 5.15 -0.65 5.05 Q-0.6 4.8 -0.8 4.7 L-1.15 4.8 M-2.35 2.95 Q-2.25 2.7 -2.4 2.6 -2.7 2.4 -2.85 2.75 -3.05 3.2 -2.6 3.15 L-2.35 2.95 M-2.35 3.75 Q-2.3 3.6 -2.4 3.55 -2.75 3.35 -2.8 3.7 -2.8 4.1 -2.45 4.0 L-2.35 3.75 M-1.2 3.4 Q-1.7 3.25 -1.25 3.85 L-0.5 3.8 Q-0.85 3.5 -1.2 3.4 M-2.95 1.2 Q-2.6 1.1 -2.9 0.9 -3.15 0.7 -3.15 1.0 L-2.95 1.2 M-2.9 -0.45 Q-2.9 -0.2 -2.7 -0.3 L-2.65 -0.45 -2.7 -0.55 Q-2.9 -0.7 -2.9 -0.45 M-2.35 0.55 L-2.4 0.65 -2.15 0.55 -2.35 0.55 M-3.45 -2.75 L-3.15 -2.45 Q-2.8 -2.4 -2.8 -2.65 -2.8 -2.85 -3.05 -2.85 L-3.45 -2.75 M-2.9 -2.0 Q-2.6 -2.1 -2.85 -2.3 -3.15 -2.45 -3.15 -2.15 -3.15 -1.85 -2.9 -2.0 M-1.3 -0.85 L-2.05 -0.8 Q-2.45 -0.3 -1.95 -0.05 -1.6 0.15 -1.35 -0.2 -1.1 -0.5 -1.3 -0.85 M-2.55 -1.4 L-2.8 -1.3 Q-2.9 -0.95 -2.55 -1.1 -2.2 -1.2 -2.55 -1.4 M-2.0 -2.15 L-2.2 -2.1 -2.15 -1.9 -1.9 -1.95 -2.0 -2.15 M-0.2 1.25 Q-0.05 0.8 -0.45 0.8 -0.7 0.75 -0.8 1.05 L-0.75 1.45 Q-0.4 1.7 -0.2 1.25 M0.0 1.0 L0.35 1.05 0.2 0.8 Q-0.15 0.7 0.0 1.0 M0.3 2.15 Q0.4 1.95 0.2 1.9 0.05 1.9 0.0 2.05 L0.1 2.2 0.3 2.15 M-0.1 -1.65 L-0.15 -1.85 Q-0.4 -2.05 -0.35 -1.75 -0.3 -1.5 -0.1 -1.65 M-16.65 19.55 Q-16.65 19.85 -16.4 19.7 -16.25 19.7 -16.45 19.5 -16.65 19.25 -16.65 19.55 M-15.6 11.25 L-15.45 11.4 -15.0 11.3 Q-15.2 11.1 -15.35 11.05 -15.6 10.9 -15.6 11.25 M-25.95 1.9 Q-26.0 2.35 -25.5 2.3 -25.05 2.25 -25.05 1.85 -25.1 1.4 -25.45 1.45 -25.9 1.5 -25.95 1.9 M-16.25 7.2 L-15.45 6.6 Q-15.05 6.05 -15.75 6.15 -16.35 6.25 -16.75 6.95 -17.15 7.75 -16.25 7.2 M-17.5 7.35 L-17.35 7.2 Q-17.35 6.7 -17.55 7.05 -17.8 7.45 -17.5 7.35 M-17.0 6.9 Q-16.85 6.8 -17.0 6.65 -17.15 6.55 -17.15 6.75 L-17.0 6.9 M-17.3 6.15 Q-17.5 6.0 -17.55 6.25 L-17.45 6.5 Q-17.3 6.55 -17.2 6.4 L-17.3 6.15 M-17.1 5.95 Q-17.2 6.3 -16.9 6.15 -16.5 6.05 -16.85 5.9 L-17.1 5.95 M-19.6 7.45 L-19.2 7.05 Q-18.95 6.75 -19.35 6.45 -19.9 6.05 -20.1 6.65 -20.25 7.25 -19.6 7.45 M-16.45 5.35 L-16.2 5.3 Q-16.1 5.1 -16.3 5.05 L-16.5 5.15 -16.45 5.35 M-17.4 5.1 Q-17.4 5.4 -17.15 5.25 -16.95 5.1 -17.15 4.95 L-17.3 4.95 -17.4 5.1 M-17.15 3.7 L-16.75 3.4 Q-16.6 3.0 -16.9 2.9 -17.3 2.7 -17.4 3.2 -17.5 3.65 -17.15 3.7 M-23.1 3.5 L-22.9 3.7 Q-22.6 3.6 -22.8 3.4 -23.1 3.25 -23.1 3.5 M-21.5 3.35 Q-21.6 4.45 -20.45 4.55 -19.3 4.65 -19.2 3.5 -19.2 2.4 -20.35 2.3 -21.45 2.2 -21.5 3.35 M-20.4 5.25 Q-20.8 5.35 -20.8 5.7 -20.7 6.1 -20.25 6.0 -19.8 5.95 -19.9 5.55 -20.0 5.2 -20.4 5.25 M-22.15 2.45 L-22.45 2.45 -22.6 2.45 -22.55 2.6 -22.15 2.45 M-23.45 -3.05 Q-23.55 -2.65 -23.15 -2.7 -22.7 -2.7 -22.85 -3.15 L-23.15 -3.3 -23.45 -3.05 M-16.65 1.45 Q-16.75 1.05 -17.05 1.2 L-17.15 1.6 -16.95 1.85 Q-16.6 1.85 -16.65 1.45 M-18.25 -2.45 Q-18.15 -2.9 -18.55 -2.9 -18.9 -2.75 -18.7 -1.95 L-18.65 -2.35 -18.25 -2.45 M-16.6 -1.45 L-16.3 -1.65 Q-16.35 -2.1 -16.65 -1.8 -17.0 -1.5 -16.6 -1.45 M-15.8 -1.75 L-15.85 -1.55 Q-15.45 -1.6 -15.6 -1.75 L-15.8 -1.75 M-16.65 -1.1 L-17.0 -0.75 Q-17.0 -0.35 -16.55 -0.35 -16.15 -0.35 -16.25 -0.8 L-16.65 -1.1 M-17.5 -2.65 Q-17.8 -2.4 -17.4 -2.25 -17.05 -2.05 -17.15 -2.5 -17.25 -2.85 -17.5 -2.65 M-17.4 -3.65 Q-16.9 -3.95 -17.35 -4.45 -17.9 -4.95 -18.25 -4.3 -18.55 -3.75 -18.2 -3.55 L-17.4 -3.65 M-20.15 -3.8 Q-19.95 -4.05 -20.25 -4.2 -20.7 -4.4 -20.55 -3.95 -20.4 -3.5 -20.15 -3.8 M-19.75 -6.15 L-19.6 -5.95 -19.45 -6.05 -19.5 -6.2 -19.75 -6.15 M-17.45 -8.35 Q-17.1 -8.4 -17.15 -8.5 L-17.35 -8.5 -17.45 -8.35 M-21.15 -5.5 L-21.25 -5.2 Q-20.8 -5.5 -21.0 -5.65 L-21.15 -5.5 M-21.4 -4.9 Q-22.1 -5.15 -22.25 -4.6 L-22.15 -3.55 Q-21.85 -2.75 -21.35 -3.25 -20.85 -3.7 -21.15 -4.0 -21.35 -4.15 -21.15 -4.45 -21.0 -4.7 -21.4 -4.9 M-23.85 -3.65 Q-23.6 -3.65 -23.4 -3.8 -23.2 -4.0 -23.55 -4.2 -23.95 -4.4 -24.05 -4.0 -24.2 -3.55 -23.85 -3.65 M-22.95 -5.85 L-23.65 -5.65 -23.15 -5.55 Q-22.65 -5.6 -22.95 -5.85 M-22.9 -5.35 L-23.15 -5.2 Q-23.25 -4.9 -22.95 -4.8 -22.6 -4.75 -22.7 -5.15 L-22.9 -5.35 M-24.85 -7.9 Q-24.85 -7.85 -24.35 -8.15 -24.3 -7.9 -23.95 -8.65 L-24.85 -7.9 M-23.85 -6.8 Q-23.75 -6.85 -23.8 -7.0 L-23.9 -7.15 Q-24.25 -7.3 -24.15 -6.95 -24.1 -6.55 -23.85 -6.8 M-25.05 -7.4 L-24.9 -7.75 -25.3 -7.35 -25.05 -7.4 M-24.75 -6.85 Q-25.1 -7.05 -24.9 -6.6 -24.75 -6.15 -24.6 -6.45 L-24.75 -6.85 M-21.8 -7.15 Q-22.0 -6.85 -21.65 -6.85 L-21.5 -7.0 -21.5 -7.15 Q-21.6 -7.5 -21.8 -7.15 M-23.9 -11.9 Q-24.4 -11.95 -24.05 -11.55 -23.6 -11.1 -23.6 -11.35 L-23.3 -11.3 -23.5 -11.7 -23.9 -11.9 M-23.55 -10.75 Q-24.1 -10.35 -23.85 -9.8 -23.55 -9.35 -23.05 -9.8 -23.2 -9.5 -22.85 -9.6 -22.45 -9.65 -22.75 -9.8 -23.55 -10.45 -23.55 -10.75 M-23.15 -13.65 Q-23.05 -13.3 -22.8 -13.55 L-23.0 -13.7 -23.15 -13.65 M-21.65 -13.45 L-22.5 -13.6 Q-22.8 -13.35 -22.1 -12.6 -21.4 -11.8 -21.1 -12.05 -20.55 -12.45 -21.05 -12.65 L-21.55 -13.0 Q-21.1 -13.05 -21.65 -13.45 M-22.6 -13.85 L-22.75 -14.1 -23.0 -14.0 -22.85 -13.75 Q-22.65 -13.7 -22.6 -13.85 M-19.75 -12.5 L-20.0 -12.45 -19.8 -12.3 Q-19.55 -12.35 -19.75 -12.5 M-18.95 -10.3 L-19.1 -10.3 -19.15 -10.15 -18.95 -10.1 Q-18.75 -10.25 -18.95 -10.3 M-26.1 -5.65 Q-26.15 -5.35 -25.8 -5.55 -25.5 -5.65 -25.85 -5.8 -26.0 -5.9 -26.1 -5.65 M-28.75 -5.55 Q-28.45 -5.6 -28.45 -5.9 L-28.75 -6.15 -29.1 -5.8 Q-29.1 -5.45 -28.75 -5.55 M-27.8 -5.6 Q-28.5 -5.95 -28.0 -5.15 L-27.3 -5.1 Q-26.95 -5.15 -27.8 -5.6 M-28.1 -7.2 L-28.15 -7.4 -28.35 -7.2 Q-28.3 -6.95 -28.1 -7.2 M-29.5 -9.55 Q-29.7 -9.1 -29.15 -8.85 -28.7 -8.6 -28.45 -9.0 -28.15 -9.5 -28.75 -9.8 -29.3 -10.2 -29.5 -9.55 M-27.65 -6.9 L-27.35 -6.85 -27.55 -7.15 Q-27.85 -7.2 -27.65 -6.9 M-26.6 -8.05 L-26.6 -7.85 -26.35 -7.9 -26.4 -8.1 -26.6 -8.05 M-27.6 -8.8 Q-27.4 -8.7 -27.4 -8.9 L-27.5 -9.1 -27.7 -9.05 -27.6 -8.8 M-25.6 -9.45 L-25.6 -9.1 -25.25 -9.15 Q-25.1 -9.4 -25.3 -9.5 L-25.6 -9.45 M-31.4 -6.05 Q-31.35 -5.6 -30.95 -5.8 -30.65 -6.05 -30.95 -6.35 -31.4 -6.55 -31.4 -6.05 M-32.0 -12.0 Q-30.95 -11.75 -31.35 -11.95 L-31.65 -12.1 -32.0 -12.0 M-30.5 -12.05 Q-30.45 -11.9 -30.3 -11.9 L-30.0 -11.9 -30.5 -12.05 M-31.0 -13.7 Q-30.05 -14.5 -30.55 -14.65 L-31.0 -13.7 M-30.95 -13.25 Q-30.85 -13.6 -31.15 -13.15 -31.45 -12.75 -31.2 -12.65 -31.1 -12.55 -30.95 -13.25 M-31.75 -13.55 Q-31.8 -13.25 -31.5 -13.35 -31.2 -13.4 -31.4 -13.6 L-31.75 -13.55 M-31.65 -14.15 L-31.95 -14.3 -31.85 -14.0 Q-31.75 -13.8 -31.65 -13.9 -31.45 -13.95 -31.65 -14.15 M-27.15 -12.5 L-27.4 -12.45 -27.25 -12.25 -27.1 -12.35 -27.15 -12.5 M-29.45 -12.1 L-29.2 -11.7 -29.75 -11.7 Q-29.8 -11.35 -29.15 -11.2 L-28.15 -10.95 -29.15 -11.0 -26.95 -10.7 -27.6 -11.0 -26.5 -10.75 -25.55 -10.7 -26.15 -10.85 Q-26.0 -11.1 -26.15 -11.2 L-26.5 -11.4 -26.4 -10.9 -27.15 -11.2 -27.95 -11.2 Q-28.05 -10.9 -29.45 -11.55 L-28.6 -11.55 -29.2 -11.9 -29.45 -12.1 M-29.45 -13.75 Q-29.25 -13.8 -29.25 -14.05 L-29.45 -14.35 Q-29.85 -14.5 -29.85 -14.1 -29.85 -13.7 -29.45 -13.75 M-29.1 -13.85 L-29.2 -13.7 -29.0 -13.5 -28.9 -13.75 -29.1 -13.85 M-28.7 -14.55 Q-28.75 -14.15 -27.95 -14.45 -27.25 -14.7 -28.0 -15.15 L-28.65 -15.2 -28.7 -14.55 M-26.75 -15.55 L-26.8 -15.4 Q-26.7 -15.15 -26.55 -15.3 -26.35 -15.45 -26.6 -15.55 L-26.75 -15.55 M-28.4 -18.0 L-28.2 -17.85 Q-27.95 -17.95 -28.15 -18.1 L-28.4 -18.0 M-28.9 -18.25 L-29.1 -18.1 -29.0 -17.9 Q-28.8 -17.85 -28.75 -18.05 L-28.9 -18.25 M-28.05 -19.7 L-28.65 -19.65 Q-29.05 -19.55 -28.5 -19.25 -28.1 -19.25 -28.05 -19.7 M-33.55 -16.2 Q-33.7 -16.05 -33.25 -15.7 L-32.55 -15.05 -33.55 -16.2 M-33.65 -23.7 L-33.5 -23.5 Q-33.15 -23.45 -33.35 -23.7 -33.55 -23.95 -33.65 -23.7 M-33.1 -27.5 L-33.2 -27.25 Q-32.65 -27.25 -32.8 -27.55 L-33.1 -27.5 M-23.85 -17.85 L-24.05 -17.95 Q-24.4 -18.05 -24.15 -17.85 -23.95 -17.65 -23.85 -17.85 M-23.3 -19.05 L-23.2 -19.45 -23.45 -19.9 Q-23.7 -19.85 -23.6 -19.45 L-23.3 -19.05 M-5.55 -15.4 Q-5.3 -15.1 -5.1 -15.4 -4.85 -15.75 -5.2 -15.8 L-5.55 -15.75 -5.55 -15.4 M-2.3 -4.65 Q-2.3 -5.0 -2.45 -5.0 -2.7 -4.95 -2.5 -4.35 -2.3 -3.7 -2.3 -4.25 L-2.3 -4.65 M-2.7 -5.8 L-2.95 -5.75 -2.95 -5.45 Q-2.8 -5.35 -2.65 -5.55 -2.5 -5.7 -2.7 -5.8 M-2.25 -5.45 L-2.45 -5.3 Q-2.4 -5.0 -2.2 -5.2 -2.05 -5.35 -2.25 -5.45 M-4.75 -4.8 Q-4.65 -4.4 -4.2 -4.6 -3.8 -4.75 -4.1 -5.1 L-4.55 -5.2 Q-4.85 -5.1 -4.75 -4.8 M-4.1 -3.8 L-3.9 -4.2 Q-4.15 -4.55 -4.4 -4.1 -4.6 -3.65 -4.1 -3.8 M-3.25 -4.6 Q-3.25 -4.35 -3.05 -4.45 -2.8 -4.55 -3.0 -4.75 L-3.15 -4.75 -3.25 -4.6 M-4.8 -8.95 L-4.45 -8.7 Q-4.3 -8.75 -4.3 -8.95 L-4.45 -9.15 Q-4.8 -9.35 -4.8 -8.95 M-4.05 -9.4 L-3.7 -9.6 Q-3.45 -10.0 -4.05 -10.05 -4.6 -10.05 -4.05 -9.4 M1.7 -13.75 Q1.5 -13.75 1.45 -13.55 L1.6 -13.3 Q1.85 -13.15 2.0 -13.45 L1.7 -13.75 M-6.95 -4.0 L-6.75 -3.95 Q-6.55 -4.1 -6.75 -4.2 -7.05 -4.35 -6.95 -4.0 M-8.85 -5.9 Q-9.0 -5.65 -8.7 -5.7 -8.35 -5.75 -8.6 -5.9 L-8.85 -5.9 M-8.3 -5.85 Q-8.5 -5.6 -8.1 -5.4 L-7.55 -5.5 Q-7.35 -5.8 -7.7 -5.95 L-8.3 -5.85 M-8.75 -7.65 Q-8.75 -7.3 -8.4 -7.6 -8.1 -7.9 -8.5 -7.9 L-8.75 -7.65 M-6.6 -7.1 Q-5.95 -6.9 -5.8 -7.4 -5.65 -8.0 -6.3 -8.0 -6.95 -8.0 -6.9 -7.8 -7.2 -7.25 -6.6 -7.1 M-6.85 -8.4 L-7.0 -8.55 -7.15 -8.4 -6.95 -8.25 -6.85 -8.4 M-5.5 -8.55 L-5.75 -8.3 Q-5.7 -7.9 -5.4 -8.2 -5.1 -8.45 -5.5 -8.55 M-12.45 -8.45 Q-11.8 -7.0 -12.8 -6.3 -13.4 -5.8 -15.15 -6.0 -16.85 -6.15 -17.6 -6.65 L-19.45 -8.35 -21.1 -10.3 Q-20.1 -10.05 -20.8 -10.85 -21.45 -11.65 -21.25 -10.5 -24.85 -14.85 -26.1 -19.6 -27.65 -25.4 -24.9 -29.4 L-25.3 -25.8 Q-25.4 -22.9 -24.6 -22.5 L-23.95 -23.75 -23.2 -24.9 Q-23.7 -22.1 -22.9 -18.7 L-23.2 -18.8 -23.65 -18.35 Q-24.0 -17.7 -23.35 -17.5 L-22.45 -17.05 Q-23.0 -16.85 -22.6 -15.6 L-22.7 -15.7 -23.1 -15.65 -22.9 -15.4 -22.55 -15.45 Q-22.15 -14.4 -21.75 -14.55 L-20.75 -13.5 Q-19.75 -12.55 -19.65 -13.35 -19.75 -12.65 -18.75 -11.25 -17.65 -9.75 -17.0 -9.8 L-17.4 -12.6 Q-17.55 -14.2 -17.1 -15.4 -17.05 -14.0 -15.95 -12.7 L-13.9 -10.5 Q-12.9 -9.5 -12.45 -8.45 M-13.7 -8.85 L-13.95 -8.65 -13.95 -8.45 -13.75 -8.5 Q-13.65 -8.65 -13.7 -8.85 M-14.45 -9.5 Q-14.9 -9.65 -14.95 -9.25 -14.95 -8.85 -14.6 -8.85 -14.35 -8.85 -14.25 -9.1 -14.15 -9.4 -14.45 -9.5 M-10.75 -9.75 L-11.0 -9.75 -11.0 -9.55 Q-10.9 -9.4 -10.7 -9.55 -10.55 -9.65 -10.75 -9.75 M-11.55 -12.25 L-11.55 -11.85 -11.15 -11.9 Q-11.1 -12.25 -11.35 -12.45 L-11.55 -12.25 M-6.5 -12.5 Q-6.65 -11.9 -6.1 -12.15 -5.75 -12.45 -6.0 -12.7 -6.4 -13.1 -6.5 -12.5 M-6.6 -10.55 Q-6.5 -10.8 -6.8 -10.9 -7.15 -10.95 -6.95 -10.65 -6.8 -10.3 -6.6 -10.55 M-8.75 -13.95 Q-9.05 -13.5 -8.55 -13.85 L-8.45 -13.7 -8.4 -13.65 Q-7.85 -13.65 -8.1 -14.1 -8.55 -14.35 -8.75 -13.95 M-9.2 -14.85 L-9.5 -14.65 -9.55 -14.35 Q-9.35 -14.2 -9.15 -14.45 -8.85 -14.7 -9.2 -14.85 M-7.05 -14.05 L-7.05 -14.45 -7.2 -14.2 -7.2 -13.9 Q-7.15 -13.8 -7.05 -14.05 M-7.3 -15.0 Q-7.25 -15.55 -7.9 -15.15 -8.15 -15.7 -8.55 -14.95 -8.9 -14.25 -8.05 -14.4 -7.3 -14.5 -7.3 -15.0 M-6.25 -13.5 Q-6.6 -12.95 -6.05 -12.9 -5.55 -12.85 -5.3 -13.3 -6.0 -13.8 -6.25 -13.5 M-7.05 -16.1 Q-7.5 -16.3 -7.6 -15.8 -7.65 -15.35 -7.15 -15.3 -6.85 -15.3 -6.75 -15.65 -6.7 -16.0 -7.05 -16.1 M-7.75 -17.0 Q-7.45 -17.15 -7.75 -17.3 -8.05 -17.45 -8.05 -17.15 -8.05 -16.85 -7.75 -17.0 M-5.55 -17.15 L-5.85 -17.15 Q-6.05 -16.8 -5.65 -16.85 -5.25 -16.9 -5.55 -17.15 M-8.05 -16.4 Q-8.35 -16.6 -8.2 -16.25 -8.1 -15.95 -7.95 -16.2 L-8.05 -16.4 M-9.85 -16.75 L-10.05 -16.2 Q-9.75 -16.05 -9.7 -16.4 -9.65 -16.7 -9.85 -16.75 M-9.2 -17.35 L-9.75 -17.5 Q-10.1 -17.45 -10.0 -17.1 -9.85 -16.75 -9.45 -16.85 -9.15 -17.0 -9.2 -17.35 M-8.1 -17.65 Q-7.9 -17.75 -8.05 -17.85 L-8.25 -17.85 -8.3 -17.7 -8.1 -17.65 M-8.75 -19.1 Q-9.3 -19.0 -9.5 -18.7 -9.7 -18.4 -8.85 -18.4 L-7.95 -18.45 -7.8 -19.2 -8.75 -19.1 M-10.05 -19.6 L-9.5 -19.5 Q-9.1 -19.55 -9.05 -19.85 -8.8 -20.95 -9.75 -20.3 -10.95 -19.5 -10.05 -19.6 M-8.6 -21.5 L-8.8 -21.45 -8.65 -21.25 -8.5 -21.35 -8.6 -21.5 M-6.7 -20.7 Q-6.85 -21.45 -7.55 -21.25 -8.25 -21.05 -7.85 -20.4 -7.6 -20.1 -7.15 -20.15 -6.65 -20.25 -6.7 -20.7 M-5.8 -20.1 L-5.9 -20.35 Q-6.35 -20.55 -6.15 -20.1 -5.9 -19.7 -5.8 -20.1 M-10.7 -17.75 L-10.75 -17.5 -10.4 -17.45 Q-10.15 -17.6 -10.4 -17.75 L-10.7 -17.75 M-11.3 -19.45 Q-11.15 -19.65 -11.35 -19.75 -11.7 -19.9 -11.6 -19.6 -11.55 -19.25 -11.3 -19.45 M-11.6 -20.9 Q-11.45 -20.85 -11.35 -21.0 -11.2 -21.2 -11.4 -21.3 -11.65 -21.45 -11.7 -21.2 L-11.6 -20.9 M-11.2 -21.75 L-11.45 -21.95 -11.75 -21.75 Q-11.7 -21.45 -11.45 -21.5 -11.2 -21.5 -11.2 -21.75 M-12.85 -25.35 Q-12.85 -24.85 -12.4 -25.05 -11.9 -25.3 -12.35 -25.55 L-12.7 -25.6 -12.85 -25.35 M-8.9 -22.1 Q-8.55 -22.3 -8.9 -22.45 L-9.15 -22.25 Q-9.15 -21.9 -8.9 -22.1 M-7.8 -26.3 Q-7.45 -26.35 -7.75 -26.5 L-8.0 -26.5 Q-8.15 -26.25 -7.8 -26.3 M-5.65 -26.0 Q-5.85 -26.35 -6.2 -26.0 -6.55 -25.6 -6.15 -25.7 L-5.65 -26.0 M3.2 -17.05 Q3.2 -16.65 3.5 -16.45 L2.7 -14.65 Q1.05 -10.55 2.0 -7.1 2.35 -5.6 3.55 -2.85 L3.9 -1.25 Q4.15 -0.2 4.9 0.0 5.35 -0.5 5.5 -1.75 L5.8 -3.65 Q6.2 -4.9 8.0 -7.95 7.85 -7.65 8.0 -6.75 L8.2 -5.35 Q8.45 -3.05 9.4 -0.4 9.2 -0.65 9.05 -0.4 8.9 -0.1 9.1 0.0 L9.5 -0.25 10.15 1.0 11.3 2.6 13.9 5.6 Q14.8 6.6 14.8 8.3 14.7 10.5 14.9 11.05 14.25 10.7 14.2 10.55 L13.65 10.0 12.75 9.75 Q10.8 8.55 6.95 4.8 L7.45 4.25 Q7.5 3.8 7.2 3.5 L6.4 3.4 5.75 3.55 4.45 2.3 Q3.45 1.3 3.6 0.85 3.5 1.15 4.35 1.15 5.15 1.1 5.35 0.8 5.6 0.45 4.55 0.15 3.4 -0.2 3.1 0.4 L2.75 -0.4 3.0 -0.2 Q3.3 -0.25 3.3 -0.65 3.4 -2.35 2.9 -2.1 2.4 -1.8 2.5 -0.95 1.8 -2.55 1.15 -2.7 L0.8 -3.85 1.0 -3.9 Q1.3 -4.2 0.9 -4.35 L0.65 -4.35 Q0.3 -5.6 -0.3 -6.0 1.45 -5.25 0.8 -7.6 0.15 -9.8 -1.05 -7.95 -1.85 -10.8 -2.1 -13.2 L-1.15 -12.9 Q-0.4 -12.55 -0.4 -12.4 L-1.25 -11.8 Q-1.2 -12.2 -1.5 -12.1 -1.8 -11.95 -1.5 -11.7 -1.3 -11.5 -0.65 -11.9 L0.3 -12.65 Q0.0 -13.05 0.15 -14.15 0.3 -15.1 -0.6 -15.55 0.1 -15.6 0.95 -16.65 1.6 -17.5 3.65 -18.0 L3.3 -17.6 3.2 -17.05 M0.7 -19.05 L0.5 -19.0 0.45 -18.75 0.8 -18.8 0.7 -19.05 M-4.95 -17.5 L-5.15 -17.55 -5.05 -17.15 Q-4.85 -17.25 -4.95 -17.5 M-3.95 -25.35 Q-3.95 -25.05 -3.65 -25.2 L-3.7 -25.5 Q-3.95 -25.7 -3.95 -25.35 M-4.5 -27.1 Q-4.85 -27.25 -4.85 -26.9 L-4.5 -26.8 Q-4.25 -26.95 -4.5 -27.1 M0.45 -25.35 L0.2 -25.3 Q0.05 -25.0 0.4 -25.1 0.75 -25.15 0.45 -25.35 M2.15 -25.3 L2.15 -24.9 2.55 -24.65 Q3.3 -24.65 2.85 -25.3 2.35 -26.0 2.15 -25.3 M0.05 -33.75 Q0.1 -33.4 0.4 -33.55 0.7 -33.85 0.4 -34.0 0.0 -34.15 0.05 -33.75 M0.7 -33.3 L0.8 -33.4 0.7 -33.5 Q0.5 -33.6 0.55 -33.4 L0.7 -33.3 M-3.95 -31.15 Q-4.0 -30.5 -3.45 -30.55 L-3.2 -30.85 -3.0 -31.15 Q-3.9 -31.75 -3.95 -31.15 M-4.05 -30.05 Q-3.85 -30.2 -4.05 -30.3 -4.35 -30.55 -4.35 -30.2 -4.3 -29.9 -4.05 -30.05 M-4.5 -27.85 Q-4.1 -27.85 -3.75 -28.4 -3.4 -29.05 -3.7 -29.35 L-5.1 -29.4 -5.8 -28.9 -5.2 -28.25 Q-4.85 -27.8 -4.5 -27.85 M-4.1 -33.65 L-4.0 -33.45 -4.5 -33.2 Q-5.25 -32.7 -4.55 -32.55 -4.15 -32.4 -4.2 -32.8 L-4.05 -33.15 -3.85 -33.45 Q-3.7 -33.45 -3.7 -33.65 L-3.9 -33.85 -4.1 -33.65 M-1.8 -32.65 Q-2.35 -33.05 -2.6 -32.35 -2.8 -31.8 -1.6 -31.85 L-1.6 -32.2 -1.8 -32.65 M-0.95 -35.9 L-1.0 -36.05 -1.15 -35.95 -1.15 -35.7 -0.95 -35.9 -0.9 -35.75 Q-0.65 -36.6 -1.05 -36.2 L-0.85 -36.05 -0.95 -35.9 M-5.4 -35.85 L-5.1 -35.9 Q-4.9 -36.1 -5.1 -36.2 L-5.35 -36.2 -5.4 -35.85 M-5.25 -36.8 L-5.45 -36.8 Q-5.65 -36.55 -5.3 -36.55 -5.0 -36.6 -5.25 -36.8 M-1.15 -37.0 Q-0.75 -36.8 -0.9 -37.35 L-0.9 -37.25 -1.2 -37.25 Q-1.45 -37.1 -1.15 -37.0 M2.5 -36.2 Q2.8 -36.85 1.95 -37.15 1.15 -37.45 1.1 -36.95 0.55 -36.55 1.35 -35.95 2.2 -35.3 2.5 -36.2 M1.25 -34.35 L1.25 -34.65 0.75 -34.3 1.25 -34.35 M-6.7 -28.85 Q-6.85 -29.0 -6.9 -28.75 -6.9 -28.55 -6.7 -28.6 L-6.6 -28.7 -6.7 -28.85 M-8.8 -30.1 Q-8.85 -29.7 -8.45 -29.95 -8.05 -30.1 -8.35 -30.3 L-8.6 -30.25 -8.8 -30.1 M-10.35 -31.8 L-10.0 -32.1 -9.65 -32.45 -10.2 -32.35 Q-10.0 -32.85 -10.65 -31.9 L-10.35 -31.8 M-5.7 -32.0 Q-6.65 -33.25 -6.25 -32.15 -5.85 -31.1 -5.7 -32.0 M-7.5 -32.7 L-7.9 -33.25 -8.45 -33.05 -8.95 -32.65 Q-9.25 -32.45 -8.65 -32.15 L-7.65 -32.05 Q-7.4 -32.25 -7.5 -32.7 M-10.6 -31.65 L-10.8 -31.3 -10.7 -30.85 Q-10.55 -30.65 -10.3 -30.85 -10.1 -31.05 -10.4 -31.25 -10.25 -31.6 -10.6 -31.65 M-8.6 -37.0 L-9.05 -36.55 -8.6 -36.65 Q-8.35 -36.8 -8.6 -37.0 M4.2 -43.65 Q3.85 -43.75 3.85 -43.4 3.95 -43.0 4.3 -43.3 4.65 -43.55 4.2 -43.65 M4.0 -44.55 Q3.7 -44.5 3.9 -44.4 L4.3 -44.35 4.0 -44.55 M-19.15 -30.8 L-18.9 -30.85 Q-18.8 -31.05 -19.0 -31.1 -19.15 -31.15 -19.15 -31.0 L-19.15 -30.8 M-19.55 -38.35 Q-19.75 -37.95 -19.3 -38.1 -18.85 -38.25 -19.3 -38.4 L-19.55 -38.35 M-19.3 -39.0 L-19.05 -38.6 Q-18.75 -38.55 -18.65 -38.85 -18.55 -39.2 -18.9 -39.25 -19.25 -39.4 -19.3 -39.0 M-35.05 -28.6 Q-34.95 -28.8 -35.15 -28.9 L-35.4 -28.75 -35.25 -28.5 Q-35.1 -28.4 -35.05 -28.6 M-33.3 -30.4 Q-32.95 -30.5 -32.85 -30.65 -32.8 -30.9 -33.15 -30.75 L-33.5 -30.5 Q-33.65 -30.3 -33.3 -30.4 M-33.1 -31.45 Q-33.1 -30.95 -32.7 -31.2 -32.35 -31.45 -32.75 -31.65 L-33.0 -31.65 -33.1 -31.45 M-31.15 -31.5 Q-31.65 -31.75 -32.2 -31.3 -32.8 -30.8 -32.4 -30.35 -33.0 -30.55 -33.5 -30.1 -34.0 -29.75 -34.1 -29.15 -34.15 -28.4 -33.85 -28.45 L-33.2 -28.55 -33.65 -28.0 -33.8 -27.95 -33.8 -27.9 -33.65 -28.0 -32.6 -28.5 Q-31.95 -28.95 -31.95 -29.35 -31.85 -29.65 -32.1 -29.95 -31.25 -30.1 -30.85 -30.45 -30.2 -31.0 -31.15 -31.5 M-31.15 -36.4 Q-31.15 -36.7 -31.5 -36.75 L-32.05 -36.55 Q-30.75 -35.2 -31.15 -36.4 M-31.15 -35.75 Q-32.25 -35.15 -32.15 -34.5 -32.0 -33.9 -31.45 -34.1 -31.0 -34.3 -30.9 -34.8 -29.45 -35.05 -29.75 -35.65 L-31.15 -35.75 M-33.4 -35.4 L-33.6 -35.85 Q-34.15 -35.9 -33.95 -35.5 -33.8 -35.1 -33.4 -35.4 M-33.15 -34.95 Q-32.95 -34.55 -32.7 -34.8 -32.45 -35.0 -32.6 -35.25 L-33.05 -35.4 Q-33.4 -35.35 -33.15 -34.95 M-25.35 -39.05 L-25.65 -38.75 Q-25.6 -38.35 -25.1 -39.1 L-25.35 -39.05 M-28.6 -38.45 L-28.45 -38.1 -28.3 -38.3 -28.6 -38.45 M-25.6 -41.1 L-25.8 -41.05 -25.75 -40.85 Q-25.4 -41.0 -25.6 -41.1 M-31.45 -40.7 L-30.35 -41.45 -29.45 -42.1 Q-30.2 -40.0 -29.4 -39.1 L-28.1 -40.2 -27.95 -40.1 Q-27.8 -38.6 -26.7 -39.15 -25.45 -39.75 -26.3 -40.35 -26.55 -40.6 -27.45 -40.7 L-25.75 -41.85 Q-26.3 -41.3 -25.65 -41.55 -25.05 -41.8 -25.5 -41.9 -21.6 -42.35 -18.8 -39.35 -15.85 -36.2 -17.35 -32.5 -18.1 -30.7 -19.9 -30.1 L-23.5 -30.2 Q-24.8 -30.8 -24.8 -32.55 -24.75 -34.3 -23.15 -34.25 -23.5 -34.2 -22.85 -32.95 L-21.85 -31.55 Q-20.5 -30.9 -19.8 -32.15 L-18.75 -34.2 Q-18.2 -34.8 -18.8 -36.2 -19.3 -37.4 -20.0 -37.9 L-21.9 -38.95 -22.7 -39.0 Q-23.3 -39.0 -23.1 -38.85 -27.25 -39.2 -28.6 -33.8 -29.6 -29.75 -28.75 -24.95 L-30.25 -24.95 -31.65 -24.3 -31.75 -25.6 -32.1 -26.0 Q-32.4 -26.25 -32.35 -26.0 -33.05 -26.0 -33.4 -25.6 -33.8 -25.15 -33.5 -24.5 -33.35 -24.15 -32.6 -24.05 -31.85 -23.95 -31.9 -23.6 L-32.1 -22.9 Q-32.2 -22.4 -31.9 -22.3 -31.55 -22.15 -30.95 -21.05 L-29.4 -20.95 Q-28.35 -21.7 -27.95 -21.45 -27.35 -21.05 -27.15 -19.85 L-26.95 -17.95 Q-26.8 -17.35 -25.8 -16.45 L-24.4 -13.85 -23.65 -12.2 -22.65 -10.8 -21.55 -9.6 Q-21.35 -9.25 -21.55 -8.9 -21.7 -8.65 -21.45 -8.55 -21.95 -7.85 -21.55 -7.9 L-20.8 -8.15 Q-20.45 -8.2 -19.15 -6.6 L-15.7 -3.2 Q-12.75 -0.5 -9.5 1.45 L-4.6 4.15 Q-0.45 6.55 -0.6 7.1 L-1.1 7.55 -0.7 7.6 Q-0.6 8.2 -1.15 8.25 L-0.7 8.5 -0.4 8.05 0.2 9.3 0.6 9.8 0.85 9.9 0.9 10.25 0.85 10.6 1.8 10.65 Q2.4 10.8 2.25 11.2 2.4 10.9 2.7 10.9 2.85 11.2 2.6 11.85 2.3 12.45 2.55 12.75 4.35 13.55 4.35 13.1 L4.75 12.75 4.85 12.45 Q5.15 12.45 5.45 11.5 L5.75 10.3 Q5.35 10.45 5.5 10.05 L10.15 12.5 10.85 13.0 11.6 13.35 Q12.1 13.4 12.1 13.7 L12.05 14.25 12.15 14.15 12.55 14.9 Q11.25 14.9 13.0 15.35 L12.7 15.75 13.2 15.85 13.4 15.5 13.45 15.5 14.55 16.1 Q15.4 16.45 15.25 15.5 L16.85 16.65 Q16.4 16.65 16.6 17.05 L16.9 16.7 18.15 17.7 17.35 17.95 18.25 17.9 18.25 17.95 18.3 17.9 Q19.0 18.2 19.9 19.2 L21.2 20.9 Q22.3 22.05 23.15 23.85 L23.6 24.6 Q23.85 25.1 23.7 25.4 23.4 25.95 23.7 26.05 23.95 26.2 24.05 25.75 L24.65 27.25 24.5 27.25 Q24.95 27.6 26.1 32.2 24.75 31.55 25.0 32.95 25.25 34.3 26.25 33.15 26.7 35.7 26.7 38.3 L26.55 40.4 26.2 42.3 26.45 42.2 Q25.8 47.4 24.1 50.0 L23.95 48.95 23.75 47.9 24.0 44.1 Q24.75 44.35 24.55 43.75 L24.05 43.0 Q23.85 42.8 24.2 42.2 24.6 41.55 24.4 41.3 L23.9 40.65 Q23.7 40.4 23.65 39.7 23.55 37.7 24.65 37.4 26.25 37.0 25.05 36.5 23.95 36.0 23.4 37.05 L22.8 35.15 22.0 33.2 Q24.1 33.0 24.25 31.75 24.1 31.85 23.65 31.55 23.35 31.3 23.3 31.85 L22.4 30.35 Q21.85 29.4 21.15 29.65 20.55 29.9 20.3 31.2 20.2 31.95 21.75 31.8 L21.55 32.5 Q21.5 32.85 21.8 33.15 L20.15 32.15 18.65 31.0 18.35 30.55 18.55 29.95 Q18.85 29.0 18.05 28.85 L16.85 28.55 Q17.2 28.2 16.95 27.85 L16.5 27.8 Q16.35 28.0 16.65 28.35 16.9 28.7 16.6 28.95 15.4 29.3 15.3 29.5 L15.3 29.9 Q15.35 30.2 15.5 30.15 L14.4 30.15 Q13.65 30.0 13.4 30.15 L10.55 31.15 Q7.55 32.1 5.7 32.0 L4.1 31.55 2.6 31.35 3.8 30.35 4.65 29.45 Q4.2 29.15 4.3 28.95 L4.95 28.55 7.0 27.7 8.85 26.55 Q9.75 25.65 8.4 25.2 L6.35 25.05 Q2.45 27.1 2.45 26.6 2.95 26.75 2.95 24.7 L2.95 23.5 Q3.0 23.15 2.5 23.05 L1.75 22.85 1.75 22.2 Q1.55 21.8 0.95 21.7 0.3 21.6 0.65 22.2 L1.2 23.0 0.75 23.75 Q0.55 24.15 0.6 24.75 L0.9 26.1 1.55 26.4 2.3 26.5 Q2.0 26.55 2.15 26.85 2.15 26.6 2.25 26.8 L0.05 28.0 -5.55 27.65 -4.95 27.05 -5.45 27.1 Q-5.2 27.05 -5.25 27.0 L-5.75 27.05 -5.95 27.5 -8.2 26.4 Q-10.15 25.45 -10.35 25.85 -10.0 25.15 -8.3 24.4 L-8.35 25.05 -8.3 25.7 Q-8.1 25.95 -7.5 26.0 -6.95 26.05 -6.8 26.25 L-6.2 25.05 Q-5.9 24.35 -6.8 24.05 -5.85 23.9 -5.35 23.25 L-4.75 24.7 Q-4.1 25.45 -3.35 24.5 -2.75 23.55 -3.45 23.05 -4.1 22.65 -5.0 22.75 -4.3 21.75 -6.3 21.55 -7.95 21.4 -6.35 23.4 L-7.65 23.5 Q-7.4 23.4 -7.7 23.25 -8.0 23.25 -7.9 23.5 L-7.9 23.55 -12.4 23.0 -12.3 22.95 Q-12.0 22.75 -12.35 22.55 -12.55 22.45 -12.6 22.65 L-12.5 22.95 -14.5 22.15 -16.65 21.15 -18.65 20.65 Q-18.0 20.5 -16.05 18.35 -14.25 16.8 -12.9 16.6 L-11.65 16.55 Q-10.9 16.5 -10.65 16.05 -10.85 15.7 -11.6 15.7 L-12.75 15.65 Q-12.35 15.05 -13.15 15.0 L-14.5 14.9 Q-10.35 13.35 -4.7 14.65 L-1.95 14.45 Q-1.0 13.6 -2.0 12.85 -2.8 12.4 -3.85 12.2 -2.0 11.35 -4.3 10.9 -6.45 10.45 -5.15 12.15 L-7.9 12.5 Q-6.85 12.15 -7.95 11.05 -9.05 10.0 -9.6 10.25 -9.05 10.0 -9.95 9.3 L-11.25 9.2 Q-11.85 10.05 -10.9 10.05 -9.65 10.1 -9.65 10.3 L-10.1 10.75 -10.4 11.4 -9.95 12.05 -9.35 12.6 Q-12.05 12.7 -13.55 11.6 -13.05 11.3 -13.15 10.55 -13.25 9.7 -13.95 9.95 -15.0 10.25 -14.45 10.85 -13.85 11.55 -14.0 11.7 -14.45 12.1 -16.4 11.3 -18.1 10.65 -18.7 10.1 -18.6 9.6 -17.3 9.3 L-15.7 8.7 Q-15.9 8.35 -16.7 8.1 -16.45 8.0 -16.65 7.85 -16.9 7.75 -16.9 7.95 L-16.9 8.05 -18.7 7.7 -20.1 7.5 -21.1 7.0 -22.0 6.35 -23.2 5.6 -24.4 4.8 Q-25.85 3.45 -26.5 3.2 L-27.9 2.7 -29.05 2.15 Q-27.7 1.05 -23.6 1.2 L-21.15 1.5 -18.6 1.65 Q-17.25 1.5 -17.15 0.85 -16.95 0.1 -17.75 -0.5 L-19.2 -1.3 -19.7 -1.8 -20.2 -2.3 -20.85 -2.2 Q-21.35 -1.9 -21.45 -1.9 -22.85 -1.5 -25.9 -2.7 L-30.25 -4.55 -32.35 -5.35 -34.3 -6.25 -33.2 -6.95 -32.2 -7.25 -31.5 -6.7 Q-31.2 -6.95 -31.35 -7.25 L-31.6 -7.1 Q-31.75 -7.05 -31.7 -7.4 L-30.15 -7.25 -28.65 -7.3 Q-28.6 -7.6 -29.0 -7.65 L-29.45 -7.95 -29.45 -8.7 Q-29.45 -9.25 -29.75 -9.35 -30.15 -9.5 -30.35 -8.6 -30.55 -7.7 -30.2 -7.85 -31.2 -7.4 -32.6 -9.4 -33.6 -10.9 -34.05 -12.3 -32.65 -12.4 -33.35 -13.45 L-34.6 -14.75 -35.25 -16.5 -35.85 -18.3 -33.8 -18.1 Q-33.25 -18.0 -32.7 -17.5 L-31.6 -16.8 Q-31.3 -17.15 -31.8 -18.1 L-31.65 -18.05 Q-31.3 -18.05 -31.25 -18.4 -31.2 -18.8 -31.65 -18.8 L-32.0 -18.45 -33.7 -20.75 -35.05 -22.35 Q-36.4 -24.0 -36.65 -27.25 -36.75 -30.85 -37.0 -32.45 L-34.8 -29.8 Q-34.2 -29.9 -34.55 -32.75 L-34.55 -34.4 -34.3 -34.35 Q-34.15 -34.45 -34.3 -34.55 L-34.55 -34.55 Q-34.4 -36.1 -33.7 -37.6 L-33.2 -38.45 -32.45 -39.05 Q-31.9 -39.2 -31.7 -39.75 L-31.45 -40.7 M-21.15 -40.0 Q-21.3 -40.25 -21.3 -39.95 L-21.15 -39.75 Q-21.0 -39.85 -21.15 -40.0 M35.8 -35.75 Q36.1 -35.85 35.8 -36.15 35.45 -36.25 35.5 -35.95 35.55 -35.6 35.8 -35.75 M35.8 -37.65 Q35.95 -37.15 36.3 -37.5 36.55 -37.85 36.1 -37.95 35.6 -38.1 35.8 -37.65 M35.7 -38.6 L35.45 -38.7 35.1 -38.95 34.8 -38.95 Q34.65 -38.7 35.2 -38.45 35.75 -38.25 35.8 -38.45 L35.7 -38.6 M25.05 -34.9 L25.8 -35.45 26.45 -36.15 Q27.0 -35.55 27.7 -36.65 28.85 -34.75 27.9 -32.15 26.65 -34.05 25.05 -34.9 M24.55 -37.5 L24.25 -37.65 Q24.05 -37.35 24.4 -37.3 L24.55 -37.5 M31.5 -39.65 L31.65 -39.8 Q31.5 -40.1 31.25 -39.6 L31.5 -39.65 M31.7 -39.15 Q31.5 -39.4 31.5 -39.1 31.45 -38.8 31.7 -38.9 L31.7 -39.15 M33.5 -38.2 Q33.5 -37.85 33.8 -37.8 34.1 -37.75 34.2 -38.05 34.25 -38.35 33.95 -38.45 L33.5 -38.2 M24.35 -45.15 L24.55 -44.9 24.8 -45.1 24.6 -45.35 24.35 -45.15 M4.5 -39.1 L4.95 -40.4 Q5.5 -42.65 3.4 -42.4 3.95 -43.25 1.4 -42.25 L1.35 -42.55 Q1.1 -42.75 1.0 -42.55 0.85 -42.25 1.3 -42.2 L0.65 -41.45 Q0.55 -41.25 0.6 -40.45 0.7 -39.45 1.5 -38.8 2.4 -38.15 3.35 -38.3 L4.5 -39.1 M15.6 -38.6 L15.6 -38.7 15.45 -38.8 Q15.2 -38.85 15.3 -38.6 15.4 -38.35 15.6 -38.6 M15.8 -39.6 Q15.9 -39.3 16.1 -39.55 16.3 -39.75 16.0 -39.85 15.7 -39.95 15.8 -39.6 M16.8 -39.25 Q16.95 -39.0 17.0 -39.25 L16.9 -39.4 Q16.6 -39.5 16.8 -39.25 M17.45 -38.5 Q17.7 -37.35 17.85 -37.5 18.3 -37.7 18.2 -38.55 18.1 -39.45 17.6 -39.55 17.15 -39.6 17.45 -38.5 M22.25 -36.6 Q22.35 -36.2 22.65 -36.35 22.85 -36.5 22.45 -36.95 22.2 -37.05 22.25 -36.6 M19.4 -36.4 L19.45 -36.75 Q19.15 -37.0 19.1 -36.65 19.05 -36.25 19.4 -36.4 M4.45 -32.3 Q4.75 -32.0 4.7 -32.5 4.65 -33.0 4.45 -32.7 L4.45 -32.3 M5.0 -32.95 Q5.4 -33.1 5.05 -33.3 4.85 -33.45 4.75 -33.2 4.65 -32.85 5.0 -32.95 M6.7 -34.2 Q7.0 -34.45 6.65 -34.65 6.3 -34.75 6.3 -34.45 6.3 -34.0 6.7 -34.2 M5.95 -38.4 Q6.15 -38.7 5.6 -38.8 L4.95 -38.6 Q4.9 -38.3 5.95 -38.4 M11.25 -33.95 Q10.85 -34.15 10.85 -33.8 10.8 -33.4 11.1 -33.4 L11.35 -33.6 Q11.5 -33.8 11.25 -33.95 M11.75 -35.15 Q11.4 -34.6 11.55 -34.3 12.5 -34.35 12.75 -35.25 12.95 -36.2 12.4 -35.85 L11.75 -35.15 M9.5 -36.1 L9.45 -35.85 9.75 -35.8 Q10.0 -35.95 9.75 -36.1 L9.5 -36.1 M11.0 -36.45 L10.7 -36.05 Q10.75 -35.7 11.15 -35.75 11.65 -35.8 11.45 -36.2 11.3 -36.5 11.0 -36.45 M9.45 -37.35 L9.4 -37.65 9.15 -37.5 Q8.85 -37.25 9.15 -37.1 9.5 -37.0 9.45 -37.35 M10.95 -37.85 Q10.45 -37.7 10.85 -37.1 11.15 -36.55 11.75 -36.35 L11.65 -36.15 11.9 -36.05 12.0 -36.15 11.9 -36.3 Q12.45 -36.2 12.6 -36.85 15.05 -34.7 14.7 -32.6 L13.6 -32.75 Q14.65 -33.85 13.2 -33.85 11.75 -33.85 12.65 -32.9 L11.6 -33.05 Q12.15 -33.2 12.15 -33.3 12.2 -33.55 11.4 -33.3 L10.5 -33.0 9.35 -33.05 7.25 -32.95 Q7.7 -33.0 8.25 -33.4 8.9 -33.85 8.7 -34.2 8.35 -34.9 7.4 -34.4 6.5 -34.0 6.95 -33.4 L6.25 -33.65 Q6.35 -33.05 5.25 -31.95 L3.55 -30.4 Q1.85 -28.55 1.4 -28.55 L0.8 -28.35 Q0.45 -28.15 1.0 -28.0 0.4 -27.4 0.15 -26.65 0.45 -26.45 1.1 -26.65 L2.05 -27.0 3.55 -26.9 5.05 -26.55 Q3.25 -25.2 2.25 -22.25 L0.7 -17.25 0.1 -17.9 -0.8 -18.05 -1.2 -18.3 -1.55 -18.3 Q-1.9 -17.7 -2.2 -17.85 -2.1 -20.2 -1.6 -22.45 L-0.8 -25.2 0.5 -28.4 Q2.15 -31.9 4.55 -34.25 6.15 -36.0 7.6 -37.05 10.25 -39.05 10.95 -37.85 M13.1 -42.1 L13.35 -42.05 13.3 -42.3 Q13.0 -42.4 13.1 -42.1 M10.1 -41.75 Q11.25 -41.7 10.75 -42.45 L9.75 -43.25 Q9.1 -43.55 9.0 -42.65 8.9 -41.75 10.1 -41.75 M10.25 -43.35 L10.8 -43.4 Q11.05 -43.75 10.65 -43.9 L10.2 -43.8 Q10.05 -43.6 10.25 -43.35 M11.5 -42.95 L11.25 -42.95 Q11.15 -42.8 11.35 -42.7 L11.6 -42.75 11.5 -42.95 M11.75 -43.85 L11.7 -43.5 Q12.1 -42.8 12.2 -43.7 12.3 -44.55 11.75 -43.85 M11.8 -44.4 L12.15 -44.45 12.2 -44.85 Q12.0 -45.35 11.7 -44.95 11.4 -44.5 11.8 -44.4 M13.3 -44.9 Q13.3 -44.7 13.5 -44.8 L13.55 -45.0 Q13.3 -45.15 13.3 -44.9 M13.85 -42.85 L13.55 -43.2 13.15 -43.2 Q13.05 -43.0 13.5 -42.6 13.95 -42.3 14.05 -42.45 L13.85 -42.85 M5.7 -43.3 Q5.25 -42.3 6.45 -42.0 7.6 -41.65 7.65 -42.75 7.75 -43.6 6.9 -43.85 6.1 -44.1 5.7 -43.3 M6.6 -44.4 L6.5 -44.4 7.35 -44.45 6.1 -44.7 5.35 -44.55 6.6 -44.4 M6.45 -45.15 L6.3 -44.9 Q6.45 -44.8 6.25 -44.75 6.95 -44.75 6.9 -44.95 L6.45 -45.15 M5.5 -44.4 L5.1 -44.35 4.7 -44.35 5.5 -44.4 M8.3 -43.65 Q8.75 -43.75 8.25 -44.0 L8.0 -43.95 Q7.8 -43.5 8.3 -43.65 M7.25 -44.0 L7.7 -44.0 7.35 -44.15 7.45 -44.25 7.25 -44.2 7.25 -44.0 M9.15 -44.45 L8.9 -44.4 9.2 -44.3 Q9.55 -44.3 9.5 -44.4 L9.15 -44.45 M7.3 -46.3 Q7.45 -46.55 7.1 -46.65 6.8 -46.8 6.75 -46.45 6.7 -46.25 6.9 -46.15 L7.3 -46.3 M13.25 -46.5 Q13.2 -46.35 13.45 -46.15 L13.95 -46.05 14.4 -46.4 13.85 -46.55 13.25 -46.5 M21.45 -39.85 L21.2 -39.85 21.2 -39.7 20.5 -39.7 Q19.9 -39.55 20.1 -39.15 20.6 -38.55 21.25 -38.8 21.9 -39.05 21.35 -39.6 L21.3 -39.65 21.45 -39.65 Q21.8 -39.7 21.45 -39.85 M20.8 -43.8 Q21.2 -43.8 21.25 -44.25 21.35 -44.65 20.9 -44.7 20.4 -44.75 20.4 -44.3 20.35 -43.8 20.8 -43.8 M20.9 -45.45 L20.75 -45.65 Q20.5 -45.7 20.65 -45.5 20.8 -45.3 20.9 -45.45 M21.8 -43.5 L21.7 -43.7 Q21.5 -43.8 21.5 -43.6 21.45 -43.45 21.65 -43.4 L21.8 -43.5 M22.35 -43.05 Q22.65 -43.0 22.8 -43.25 L22.6 -43.2 Q22.2 -43.15 22.0 -43.6 22.15 -43.05 22.35 -43.05 M22.25 -43.95 Q21.9 -43.85 22.05 -43.75 L22.35 -43.75 22.75 -43.55 22.9 -43.4 22.9 -43.45 Q23.05 -43.85 22.65 -44.0 L22.25 -43.95 M22.5 -45.65 Q22.5 -45.4 22.75 -45.45 L22.9 -45.65 22.7 -45.85 Q22.45 -45.9 22.5 -45.65 M23.75 -45.55 L23.7 -45.75 23.5 -45.85 Q23.25 -45.75 23.45 -45.55 23.6 -45.35 23.75 -45.55 M15.45 -40.2 L16.35 -40.4 17.05 -40.45 Q16.65 -39.85 17.9 -40.15 L18.35 -40.45 17.85 -40.75 18.9 -40.8 18.7 -40.6 Q20.4 -41.75 23.45 -40.05 25.8 -38.7 27.45 -36.85 26.25 -36.85 25.8 -36.3 L25.55 -35.5 Q24.55 -35.5 24.75 -35.15 L23.35 -36.0 Q23.85 -36.0 23.65 -36.4 23.45 -36.85 23.1 -36.5 22.9 -36.2 22.45 -36.3 L21.7 -36.45 Q21.5 -36.2 21.55 -35.6 L21.65 -34.75 Q21.7 -33.75 21.15 -32.15 21.45 -33.2 19.45 -35.2 19.7 -35.1 20.15 -35.35 L20.5 -35.75 Q20.0 -36.55 19.55 -36.2 19.15 -35.85 19.3 -35.4 L18.4 -36.25 Q17.05 -37.6 15.4 -38.2 L12.0 -38.05 Q11.75 -38.65 15.45 -40.2 M16.4 -44.1 Q16.55 -43.65 16.65 -43.95 L16.65 -44.1 16.55 -44.3 Q16.2 -44.5 16.4 -44.1 M14.9 -45.65 Q14.8 -45.3 15.15 -45.25 L15.5 -45.45 15.35 -45.8 Q15.0 -46.0 14.9 -45.65 M14.45 -45.15 L14.35 -45.4 Q14.0 -45.6 14.15 -45.2 14.25 -44.85 14.45 -45.15 M15.65 -44.7 Q15.55 -44.45 15.7 -44.5 16.0 -44.45 16.15 -45.05 L16.4 -45.9 15.9 -45.15 15.5 -45.2 Q15.5 -44.85 15.8 -45.0 L15.65 -44.7 M18.0 -43.75 Q18.25 -43.9 18.0 -44.05 17.6 -44.25 17.7 -43.85 17.75 -43.6 18.0 -43.75 M16.9 -44.1 Q16.8 -43.85 17.0 -43.9 L17.15 -44.0 17.1 -44.2 Q17.0 -44.35 16.9 -44.1 M17.3 -44.6 Q17.0 -44.75 17.05 -44.4 17.15 -44.05 17.4 -44.3 17.6 -44.45 17.3 -44.6 M18.3 -48.6 Q18.5 -48.25 18.75 -48.5 L18.85 -48.7 18.6 -48.9 Q18.15 -48.95 18.3 -48.6 M14.35 -46.7 Q14.6 -46.75 14.45 -46.9 L14.2 -46.85 Q14.15 -46.65 14.35 -46.7 M16.2 -47.05 Q16.0 -47.15 16.0 -46.95 15.95 -46.7 16.2 -46.8 16.45 -46.95 16.2 -47.05 M17.75 -49.05 L17.4 -48.9 Q17.2 -48.5 17.7 -48.45 18.15 -48.45 18.05 -48.8 L17.75 -49.05 M23.45 -48.65 Q22.95 -48.8 22.95 -48.4 22.95 -47.85 23.2 -47.95 23.5 -47.85 23.7 -48.25 23.85 -48.55 23.45 -48.65 M23.35 -47.45 L23.0 -47.45 23.0 -47.15 Q23.2 -46.95 23.35 -47.15 L23.35 -47.45 M21.05 -46.1 Q21.55 -46.1 21.5 -46.5 21.4 -47.0 20.9 -47.0 20.3 -47.0 20.45 -46.45 20.55 -46.1 21.05 -46.1 M20.25 -46.2 L19.45 -46.1 19.75 -46.0 19.4 -45.65 20.55 -45.6 20.25 -46.2 M19.75 -47.0 L19.5 -46.9 Q19.45 -46.55 19.8 -46.7 20.15 -46.9 19.75 -47.0 M19.55 -47.7 L19.45 -47.9 Q19.2 -48.0 19.3 -47.75 L19.55 -47.7 M22.2 -49.5 Q22.5 -49.35 22.9 -49.7 L26.15 -49.6 29.45 -48.45 Q27.25 -47.6 26.25 -47.6 26.7 -48.25 25.8 -48.4 24.9 -48.55 24.9 -48.05 24.9 -47.65 25.6 -47.25 L26.55 -46.85 28.45 -46.4 28.35 -45.95 Q28.3 -45.75 28.7 -45.8 L28.9 -46.35 29.5 -46.35 Q30.3 -46.15 31.65 -45.35 L33.1 -44.45 33.8 -43.3 Q34.25 -42.5 34.7 -42.45 L33.55 -42.35 32.55 -42.2 32.95 -41.35 33.9 -41.25 33.35 -40.9 34.25 -41.0 34.75 -40.6 34.4 -40.5 Q33.9 -40.25 34.1 -39.8 34.8 -39.9 34.85 -40.3 L34.85 -40.5 35.75 -39.6 36.5 -38.0 Q36.35 -37.8 36.55 -37.75 L36.8 -36.65 Q37.1 -34.85 37.0 -32.55 L33.6 -36.85 Q31.55 -39.1 29.45 -40.4 L30.2 -40.85 30.7 -41.25 30.55 -41.85 30.5 -43.35 29.55 -44.55 30.65 -45.15 Q31.35 -45.7 30.3 -45.8 L29.65 -45.85 Q29.3 -45.8 29.2 -45.4 29.45 -44.95 29.05 -44.75 L28.45 -44.35 27.75 -43.15 Q27.5 -42.5 28.2 -41.7 L29.2 -41.45 Q30.0 -41.4 30.1 -41.05 29.35 -40.4 28.2 -41.05 L26.35 -42.1 23.15 -42.7 19.95 -43.1 20.1 -43.7 19.65 -43.45 19.0 -43.05 18.35 -43.45 Q18.15 -43.65 17.45 -43.2 16.75 -42.7 14.85 -42.3 L13.6 -42.0 12.85 -41.8 12.4 -42.2 11.9 -41.9 11.85 -42.0 11.55 -41.85 11.6 -41.75 10.85 -41.3 10.85 -41.45 Q10.75 -41.75 10.5 -41.45 10.3 -41.2 10.45 -41.05 9.0 -40.25 9.0 -40.35 L8.25 -39.85 7.3 -39.6 Q7.6 -39.25 6.0 -38.25 3.25 -36.6 0.85 -33.4 L-0.6 -32.2 -0.75 -31.85 -0.7 -31.4 Q-0.65 -31.05 -1.0 -30.55 L-1.45 -29.75 Q-3.8 -25.35 -4.35 -21.6 -5.75 -22.8 -5.55 -21.5 -5.3 -20.05 -4.5 -20.55 -4.95 -17.45 -3.85 -11.85 L-3.2 -7.9 Q-2.3 -7.5 -1.65 -5.8 L-0.8 -3.3 0.45 -1.25 1.95 0.6 Q1.4 0.25 0.85 0.6 0.3 0.95 0.4 1.6 L1.1 2.5 Q1.75 3.05 1.8 2.85 L1.7 2.6 1.45 2.5 1.9 1.9 2.5 1.35 Q4.15 3.55 6.55 5.8 6.4 5.8 6.3 5.95 L6.65 5.9 Q6.0 6.3 6.9 6.35 L8.45 7.55 10.7 10.0 Q10.25 9.75 9.55 10.2 8.85 10.7 8.6 10.6 L7.5 10.05 6.55 9.4 3.7 7.95 2.55 7.0 2.2 6.35 1.8 6.35 Q2.0 5.95 1.8 5.5 L1.5 5.8 Q1.4 5.95 1.3 5.65 L0.65 6.15 -0.3 5.6 -7.6 1.6 Q-7.1 1.35 -7.4 0.95 L-8.0 0.35 Q-7.1 0.4 -7.6 -0.2 L-8.3 -0.15 Q-8.25 -0.6 -9.05 -0.65 -9.5 -0.65 -8.65 -1.45 -8.2 -1.8 -8.7 -2.2 -9.2 -2.6 -9.6 -2.2 L-10.2 -1.25 -10.05 -0.65 Q-9.8 -0.3 -9.6 -0.55 L-10.2 0.3 -12.0 -1.5 -13.8 -3.35 -10.5 -3.1 -7.7 -3.05 Q-5.6 -2.7 -5.9 -1.65 L-5.95 -0.9 -6.3 -0.95 Q-6.55 -0.85 -6.4 -0.55 L-6.15 -0.4 -5.9 -0.45 -5.85 -0.5 -5.75 0.05 Q-5.65 0.6 -5.15 0.7 L-4.25 0.95 Q-4.5 1.05 -4.35 1.25 L-4.15 1.35 Q-3.15 -0.55 -3.25 -1.05 -3.15 -1.7 -3.4 -2.05 L-4.1 -2.35 Q-4.55 -2.5 -4.75 -2.7 -4.4 -3.7 -5.1 -3.5 -5.75 -3.25 -5.25 -2.55 -5.6 -2.0 -7.1 -3.5 -10.1 -6.5 -10.95 -8.05 -10.15 -7.55 -10.3 -8.4 -10.5 -9.3 -11.05 -8.3 L-11.85 -10.25 Q-11.8 -11.5 -12.25 -11.9 -13.0 -12.55 -12.6 -12.95 L-12.95 -13.35 -13.3 -13.75 -13.05 -13.75 -12.9 -13.6 Q-12.65 -13.7 -12.9 -13.75 L-13.05 -13.75 Q-12.1 -13.8 -10.4 -13.05 -10.9 -12.7 -9.8 -12.3 L-8.45 -12.1 Q-8.35 -12.65 -9.15 -13.45 L-10.35 -14.55 -11.4 -16.25 -12.15 -18.1 -12.4 -19.5 Q-12.75 -20.2 -12.0 -20.5 L-12.2 -21.25 -12.55 -22.0 -12.95 -24.85 Q-13.25 -26.4 -14.05 -27.4 -12.55 -27.1 -11.25 -25.75 L-9.2 -23.15 -8.35 -22.2 Q-7.8 -21.9 -7.6 -22.75 -7.45 -23.5 -7.95 -24.9 L-9.05 -27.25 -10.25 -29.55 Q-11.5 -32.1 -11.05 -36.05 -10.75 -35.5 -9.7 -36.75 -8.85 -37.9 -10.6 -38.2 L-10.0 -39.5 -8.1 -36.8 Q-6.85 -34.7 -7.55 -34.05 -7.3 -34.05 -7.25 -34.2 L-6.95 -33.7 Q-6.65 -33.2 -6.5 -33.45 -6.4 -33.65 -6.55 -33.7 L-6.7 -33.9 Q-5.7 -33.4 -5.5 -34.9 -5.35 -36.4 -6.65 -36.0 L-5.95 -38.45 Q-4.45 -37.8 -3.15 -35.4 L-2.9 -34.25 Q-2.6 -33.45 -2.3 -33.4 -1.65 -33.8 -1.55 -35.55 L-1.4 -37.45 Q-1.4 -37.35 -1.3 -37.4 -1.15 -37.4 -1.15 -37.55 L-0.5 -37.9 0.0 -38.5 Q0.35 -39.2 0.05 -39.4 -0.45 -39.7 -0.8 -39.15 L-1.25 -38.25 Q0.1 -41.8 1.0 -43.15 L2.15 -44.3 3.3 -44.55 3.2 -44.3 Q3.05 -44.1 3.3 -44.05 3.5 -44.0 3.55 -44.15 L3.75 -44.35 3.3 -44.55 4.35 -44.85 2.95 -44.9 6.15 -47.0 Q8.2 -48.3 9.15 -49.35 L8.8 -47.8 8.4 -46.15 8.25 -46.35 Q7.85 -46.5 7.85 -46.1 7.85 -45.65 8.25 -45.75 L8.4 -45.95 8.45 -45.25 12.65 -47.4 Q16.1 -49.1 20.55 -49.7 20.2 -49.25 20.95 -49.05 21.65 -48.8 21.35 -49.75 L22.2 -49.5" fill="#000000" fill-rule="evenodd" stroke="none"/>
  </g>
</svg>
