<?xml version="1.0" encoding="UTF-8" standalone="no"?>
<svg xmlns:xlink="http://www.w3.org/1999/xlink" height="96.15px" width="100.0px" xmlns="http://www.w3.org/2000/svg">
  <g transform="matrix(1.0, 0.0, 0.0, 1.0, 50.0, 48.05)">
    <path d="M3.2 44.55 Q3.75 44.95 4.0 44.3 4.15 43.75 3.75 43.45 L2.9 43.6 Q2.65 44.0 3.2 44.55 M-4.75 35.15 Q-3.9 35.15 -3.9 34.2 -3.9 33.4 -4.75 33.5 -5.7 33.65 -5.55 34.35 -5.55 35.0 -4.75 35.15 M-3.9 37.6 Q-3.1 38.0 -3.1 36.9 -2.95 35.85 -3.9 36.5 -4.85 37.2 -3.9 37.6 M4.0 41.4 Q4.7 42.25 4.8 41.15 4.8 40.6 4.4 40.6 3.45 40.6 4.0 41.4 M-16.05 29.0 Q-15.65 28.9 -15.5 28.35 -15.35 27.65 -15.9 27.8 -16.6 27.9 -16.6 28.45 -16.75 28.9 -16.3 29.0 -16.6 29.0 -16.45 29.4 L-16.2 30.1 Q-15.8 30.4 -15.5 29.85 -15.35 29.15 -16.05 29.0 M-15.9 23.95 Q-16.3 22.45 -17.7 23.0 -19.05 23.4 -18.9 24.8 -18.8 26.85 -17.15 26.3 -15.35 25.9 -15.9 23.95 M-18.35 21.9 Q-17.7 23.0 -17.55 21.65 -17.55 20.95 -18.1 20.95 -19.2 20.95 -18.35 21.9 M6.45 22.05 Q7.4 22.2 7.55 21.25 7.7 19.75 6.45 19.85 5.25 20.0 5.35 21.1 5.5 21.9 6.45 22.05 M4.7 23.55 Q4.7 24.1 5.25 24.8 5.9 25.6 6.2 24.65 6.6 23.7 5.65 23.55 4.7 22.9 4.7 23.55 M26.9 40.75 Q26.9 40.05 26.4 39.9 25.3 39.9 25.95 41.0 26.8 42.1 26.9 40.75 M27.35 36.8 Q27.6 35.55 26.5 35.55 25.4 35.7 25.55 36.8 25.85 37.6 26.5 37.6 27.2 37.75 27.35 36.8 M30.05 39.25 L30.45 38.4 Q30.6 38.0 30.35 37.45 29.9 36.9 29.1 36.8 28.15 36.8 27.75 37.35 26.8 38.55 28.3 39.5 29.8 40.45 30.05 39.25 M13.85 46.2 Q14.1 48.25 15.45 47.55 L16.3 46.75 Q16.55 46.05 16.15 45.65 15.05 45.65 15.45 44.55 15.35 43.75 14.35 43.75 13.55 44.0 13.85 46.2 M18.75 41.15 Q19.85 41.55 19.95 40.35 20.25 39.25 19.4 38.7 19.15 37.35 17.9 39.1 16.95 40.45 18.75 41.15 M22.0 33.5 L21.85 33.25 21.6 33.8 Q21.45 34.35 22.0 34.2 22.55 34.2 22.55 33.8 22.0 33.65 22.0 33.5 M21.85 17.55 Q22.3 17.55 22.4 17.15 22.95 15.9 21.75 16.2 20.5 16.35 21.05 17.3 21.35 17.7 21.85 17.55 M20.5 19.45 Q21.35 18.9 21.05 17.55 20.5 16.05 18.75 16.6 16.85 17.15 17.9 18.1 L19.0 19.35 20.5 19.45 M31.85 33.25 Q32.25 32.15 31.3 32.15 30.35 32.15 30.35 32.95 30.35 33.5 31.0 33.8 31.7 34.05 31.85 33.25 M24.35 27.5 Q25.55 27.8 25.7 26.3 25.85 24.8 24.45 24.9 23.25 25.05 23.25 26.0 23.1 27.25 24.35 27.5 M27.75 23.95 Q27.45 24.25 27.9 24.8 L28.4 25.35 29.25 25.2 29.9 25.05 Q29.9 24.8 27.75 23.95 M23.25 23.15 Q24.45 21.65 23.4 20.95 22.3 20.15 21.85 21.65 L22.0 23.4 Q22.3 24.25 23.25 23.15 M25.0 23.7 Q26.1 22.75 25.85 22.45 25.4 22.2 25.0 22.75 24.75 23.4 25.0 23.7 M-20.85 30.65 Q-20.3 31.45 -19.75 31.2 -19.2 30.9 -19.2 29.95 -19.35 28.75 -20.3 29.3 -21.35 29.7 -20.85 30.65 M-22.85 26.4 L-22.35 28.45 Q-20.85 28.35 -20.95 27.4 -21.25 26.3 -22.85 26.4 M-28.75 18.65 Q-28.05 20.15 -27.4 20.3 -26.7 20.3 -26.55 18.5 -26.4 17.15 -28.2 16.75 -29.85 16.35 -28.75 18.65 M-26.95 20.95 Q-27.1 21.35 -26.55 21.5 -26.15 21.65 -26.0 21.1 -26.0 20.85 -26.4 20.7 -26.85 20.55 -26.95 20.95 M-24.9 19.75 Q-25.85 20.85 -24.65 22.35 -23.4 23.7 -22.2 22.75 -20.7 21.5 -22.05 19.75 -23.4 17.95 -24.9 19.75 M-19.85 24.4 Q-19.45 24.9 -19.05 24.25 -18.8 23.95 -19.2 23.55 -19.45 23.3 -19.85 23.55 -20.3 23.85 -19.85 24.4 M-20.3 15.1 Q-18.9 14.95 -19.35 14.15 -19.6 14.0 -20.0 14.4 L-20.3 15.1 M-26.95 15.8 Q-26.55 15.35 -26.95 14.95 -27.25 14.4 -27.9 14.55 -29.0 14.95 -28.2 15.8 -27.4 16.6 -26.95 15.8 M-29.7 10.75 Q-30.4 11.3 -29.7 11.7 -29.4 11.85 -29.0 11.15 -28.9 10.2 -29.7 10.75 M-29.55 11.95 Q-30.25 11.95 -29.95 12.5 L-29.7 13.35 Q-29.95 12.65 -30.8 12.5 -31.9 12.35 -32.0 13.2 -32.3 14.15 -31.2 14.55 -30.1 14.85 -29.85 13.85 -29.4 15.5 -28.2 14.4 -26.95 13.35 -28.2 12.9 L-29.55 11.95 M-37.6 10.45 Q-36.4 10.35 -36.65 8.95 -36.9 7.6 -38.0 7.85 -39.1 8.15 -38.85 9.35 -38.7 10.75 -37.6 10.45 M-34.75 10.85 Q-34.35 11.95 -33.9 10.85 -33.9 10.35 -34.2 10.2 -35.15 9.9 -34.75 10.85 M-44.15 5.4 Q-44.0 6.1 -43.35 5.95 -42.65 5.95 -42.5 5.3 -42.4 4.35 -43.35 4.6 -44.3 4.75 -44.15 5.4 M-45.95 2.0 L-45.25 2.15 Q-44.7 1.85 -44.7 1.35 -44.85 0.65 -45.5 1.05 -46.35 1.45 -45.95 2.0 M-41.55 2.15 Q-41.3 1.05 -42.25 1.35 -43.35 1.45 -42.65 2.4 -41.95 3.35 -41.55 2.15 M-39.25 6.1 Q-36.25 6.35 -35.55 3.5 -35.4 2.7 -37.45 1.75 L-39.4 0.65 -40.45 1.85 Q-41.45 2.95 -41.15 3.25 -40.9 3.65 -40.6 5.15 -40.45 5.95 -39.25 6.1 M-35.55 0.8 Q-35.4 0.65 -35.4 0.35 -35.4 0.1 -35.7 0.1 -36.5 -0.15 -36.25 0.65 -35.95 1.6 -35.55 0.8 M-38.85 -7.15 Q-39.1 -7.4 -41.95 -8.65 -42.1 -8.1 -40.45 -7.4 L-38.85 -7.15 M-37.45 -3.85 Q-36.65 -4.0 -36.5 -4.65 -36.25 -5.5 -36.9 -6.05 -35.95 -6.45 -36.65 -7.4 -37.35 -8.35 -38.0 -7.8 -38.3 -7.55 -38.3 -5.9 -38.15 -4.15 -37.75 -4.0 -41.15 -2.65 -38.15 -2.5 -35.0 -2.35 -37.45 -3.85 M-43.6 -4.15 L-43.05 -3.05 Q-42.65 -2.65 -42.4 -2.75 -43.05 -4.15 -43.6 -4.15 M-41.15 -7.15 L-42.65 -5.5 Q-43.45 -4.55 -42.65 -4.15 -42.25 -3.85 -41.15 -3.7 -41.3 -4.0 -40.45 -5.75 -39.8 -7.25 -41.15 -7.15 M-35.15 -9.15 Q-35.15 -9.6 -35.85 -9.45 L-36.65 -9.3 Q-35.95 -8.65 -35.15 -9.15 M-37.05 -13.8 Q-38.0 -13.95 -38.45 -13.15 -38.85 -12.15 -38.0 -11.65 -36.9 -10.65 -36.25 -12.05 -35.7 -13.55 -37.05 -13.8 M-36.1 -16.0 Q-37.45 -15.45 -36.4 -14.75 -35.55 -14.2 -35.3 -15.15 -34.75 -16.55 -36.1 -16.0 M-19.2 -5.1 Q-19.85 -6.6 -21.35 -5.2 -23.0 -3.85 -21.8 -2.5 -21.1 -1.55 -18.8 -2.65 -18.9 -4.25 -19.2 -5.1 M-21.8 -10.65 L-20.7 -10.8 Q-20.55 -12.05 -20.95 -11.75 L-21.8 -10.65 M-21.65 -9.05 L-21.5 -8.5 Q-21.1 -8.1 -20.7 -8.65 -20.4 -9.3 -20.95 -9.45 -21.5 -9.45 -21.65 -9.05 M-23.4 -23.1 Q-22.35 -22.55 -21.8 -23.5 -21.1 -24.7 -22.2 -25.25 -23.3 -25.95 -23.95 -24.7 -24.5 -23.75 -23.4 -23.1 M-26.85 -18.7 Q-25.85 -18.6 -25.75 -19.4 -25.35 -20.65 -26.4 -20.65 -27.65 -20.75 -27.65 -19.8 -27.65 -19.0 -26.85 -18.7 M-38.45 -30.85 Q-37.9 -30.3 -37.6 -31.0 -37.45 -31.55 -37.9 -31.8 L-38.7 -31.7 Q-38.95 -31.25 -38.45 -30.85 M-36.4 -36.2 Q-36.65 -37.4 -37.2 -37.8 -37.05 -36.7 -37.6 -37.0 -38.7 -37.7 -39.25 -36.7 -39.8 -35.75 -39.1 -35.2 L-38.0 -34.25 Q-38.85 -34.15 -38.45 -33.45 -38.0 -32.75 -37.75 -33.6 L-37.75 -34.25 Q-37.75 -34.95 -37.2 -34.7 -36.9 -34.25 -36.4 -34.4 -36.1 -34.15 -36.1 -33.6 L-35.7 -33.2 Q-35.15 -33.05 -35.15 -33.7 L-35.55 -34.7 Q-36.25 -35.1 -36.4 -36.2 M-37.75 -40.4 Q-37.75 -39.45 -36.8 -39.6 -36.25 -39.6 -36.4 -40.4 -36.5 -41.1 -37.05 -41.2 -37.75 -41.2 -37.75 -40.4 M-43.35 -43.8 Q-42.95 -44.9 -44.0 -44.5 -45.25 -43.95 -44.3 -43.4 -43.6 -42.7 -43.35 -43.8 M9.85 16.05 Q10.4 15.8 9.2 15.9 8.1 16.05 8.1 16.45 8.35 16.85 9.85 16.05 M11.1 -13.65 Q10.3 -12.3 11.8 -11.75 13.15 -11.2 13.85 -12.6 14.35 -13.8 13.15 -14.5 11.8 -15.15 11.1 -13.65 M10.7 -14.1 Q10.55 -15.3 9.3 -15.05 8.1 -14.9 8.8 -14.1 8.5 -13.15 9.6 -13.0 10.8 -12.7 10.7 -14.1 M33.35 -6.15 Q33.2 -6.85 32.5 -6.7 L31.3 -6.6 31.55 -5.5 Q31.7 -4.8 32.1 -4.65 32.65 -4.55 33.05 -5.1 33.45 -5.65 33.35 -6.15 M29.65 -10.15 Q29.1 -11.2 28.15 -10.55 L26.65 -9.45 Q27.6 -10.95 26.65 -11.9 25.3 -13.15 25.3 -13.8 25.7 -14.5 25.55 -15.15 25.4 -15.85 24.9 -15.45 24.2 -15.05 24.75 -14.5 L21.2 -14.35 Q18.6 -13.8 19.7 -12.3 20.8 -11.9 20.65 -10.65 L22.0 -9.85 23.8 -9.3 25.55 -8.9 Q24.2 -7.0 26.1 -5.65 28.0 -4.4 29.1 -6.45 30.35 -8.9 29.65 -10.15 M34.3 -8.75 Q34.55 -9.15 34.3 -9.45 33.45 -9.85 33.75 -8.9 33.9 -7.95 34.3 -8.75 M-12.8 10.35 Q-12.25 10.45 -12.25 9.8 -12.25 9.25 -12.65 9.25 -13.2 9.1 -13.2 9.5 -13.3 10.05 -12.8 10.35 M-18.35 3.5 L-18.35 3.1 Q-18.5 2.85 -18.8 2.85 -19.75 2.95 -19.2 3.65 -18.65 4.35 -18.35 3.5 M-14.8 8.4 Q-14.8 7.75 -15.65 8.0 -16.3 8.3 -16.2 8.85 -15.9 9.25 -15.35 9.1 -14.8 8.95 -14.8 8.4 M-14.55 6.35 Q-13.6 6.8 -13.3 5.7 -12.9 4.2 -14.3 5.0 -15.8 5.85 -14.55 6.35 M-6.35 6.8 Q-6.1 6.1 -6.65 6.1 -7.3 5.95 -7.3 6.65 -7.2 7.05 -6.75 7.05 L-6.35 6.8 M-6.9 3.65 Q-5.4 2.95 -5.15 4.2 -4.6 8.15 -4.2 12.1 -5.25 11.0 -5.15 12.5 -5.0 13.85 -4.05 12.9 L-3.75 17.95 Q-4.3 17.15 -4.6 17.85 L-3.75 18.5 -3.75 24.25 Q-3.75 28.35 -3.9 28.75 -4.2 29.0 -3.9 29.4 -4.6 28.45 -5.8 28.9 -7.05 29.4 -6.5 30.8 -6.1 31.45 -5.15 31.6 -4.3 31.6 -3.9 30.8 L-3.75 30.1 Q-2.7 33.25 -1.05 34.9 1.4 37.75 5.65 38.85 3.45 41.3 6.6 41.55 9.75 41.85 8.25 39.1 13.15 39.4 16.7 37.2 16.85 38.95 18.35 37.9 19.85 36.65 18.05 36.25 22.3 32.85 21.35 26.85 21.85 27.25 22.4 26.7 22.4 26.15 20.9 25.2 20.1 23.15 18.45 21.5 19.7 21.8 18.85 20.85 18.2 19.85 18.05 21.25 15.45 19.35 12.45 19.35 13.7 17.7 11.35 17.7 9.2 17.7 10.8 19.45 9.6 19.75 8.5 20.55 7.3 21.65 7.4 22.75 7.55 23.7 8.8 24.65 10.15 25.75 10.3 26.55 9.75 26.4 9.85 26.95 9.85 27.5 10.4 27.4 10.15 28.45 8.5 28.2 7.3 28.05 6.05 27.4 3.6 25.9 2.25 22.05 L3.6 22.6 Q4.4 22.75 4.95 22.2 5.8 21.1 4.8 20.4 5.8 19.2 4.4 17.95 3.2 16.6 1.95 17.55 2.65 14.85 5.25 12.9 7.7 11.0 10.7 10.75 15.2 10.6 13.3 11.85 L12.05 14.85 Q12.45 14.55 14.1 15.5 15.6 16.6 16.85 15.9 L18.2 13.75 Q18.85 12.1 20.1 12.35 23.5 13.2 27.45 16.6 31.15 19.85 32.65 23.15 31.4 23.15 32.1 24.1 32.65 25.2 32.95 23.95 L33.35 26.15 Q33.45 27.65 33.75 27.5 34.55 32.55 32.8 34.35 L31.0 35.0 Q29.65 35.7 30.35 36.1 31.0 36.5 31.7 35.95 32.65 35.0 32.8 35.0 31.4 38.4 29.5 40.45 27.6 42.4 26.8 42.1 L27.45 42.4 Q20.9 48.4 12.85 48.1 4.95 47.85 -1.45 41.7 0.45 41.4 -1.2 39.8 -2.7 38.3 -2.8 40.35 -6.65 36.25 -7.6 30.9 -8.4 26.85 -8.4 24.65 -8.4 23.55 -7.2 22.75 -5.95 21.9 -5.95 21.1 -5.8 19.75 -6.25 19.2 -6.65 18.65 -7.85 18.35 -8.4 18.25 -8.4 16.2 -8.15 13.85 -8.3 13.2 -8.8 6.8 -9.35 3.5 -8.8 4.35 -6.9 3.65 M-15.8 -3.3 Q-16.45 -3.45 -16.75 -2.65 -16.85 -1.8 -16.2 -1.65 -15.25 -1.25 -15.1 -2.2 -14.95 -3.15 -15.8 -3.3 M-17.0 -6.05 Q-17.85 -6.45 -17.95 -6.85 -18.25 -7.4 -17.95 -7.95 -17.55 -8.65 -17.55 -9.15 -18.5 -11.5 -19.2 -11.1 -20.15 -10.55 -20.15 -9.85 -20.3 -9.3 -19.45 -8.2 L-19.05 -7.15 -18.8 -6.15 -17.0 -6.05 M-15.9 -16.4 Q-17.0 -15.6 -15.65 -15.6 -15.1 -15.6 -15.1 -16.15 -14.95 -17.35 -15.9 -16.4 M-11.4 -11.9 Q-11.0 -11.75 -10.75 -11.9 -10.05 -12.3 -10.85 -12.7 -11.7 -13.25 -11.7 -12.45 L-11.4 -11.9 M-3.25 -7.15 Q-2.7 -7.15 -2.15 -8.35 -2.95 -8.9 -3.5 -8.1 -4.05 -7.25 -3.25 -7.15 M-4.3 -11.5 Q-3.65 -11.9 -3.5 -12.85 -3.5 -13.55 -3.75 -14.1 -4.05 -14.9 -4.45 -13.8 -5.8 -14.2 -6.65 -12.85 -7.3 -11.35 -5.95 -11.2 -5.15 -10.95 -4.3 -11.5 M-1.6 -9.15 Q-0.75 -9.15 0.3 -9.85 1.55 -10.65 1.55 -11.5 1.55 -12.6 0.05 -11.2 -1.45 -9.85 -1.6 -9.15 M5.8 -15.05 Q5.35 -14.75 5.65 -14.5 4.8 -14.35 4.8 -16.15 L4.7 -15.3 Q4.7 -14.9 4.3 -15.3 5.1 -13.0 5.5 -13.15 6.2 -14.35 5.8 -15.05 M3.45 -18.85 Q3.45 -19.4 2.35 -20.75 3.2 -19.15 3.2 -13.95 3.6 -13.65 3.6 -12.7 3.6 -11.75 4.15 -11.5 4.55 -15.3 3.85 -15.15 L3.45 -18.85 M6.2 -19.8 Q5.1 -19.8 5.65 -17.9 6.05 -16.0 6.85 -15.6 9.2 -14.5 9.05 -17.35 8.9 -20.2 6.2 -19.8 M1.95 -19.95 L1.55 -18.2 Q1.4 -17.65 1.95 -17.65 L2.8 -17.5 Q3.05 -17.65 1.95 -19.95 M-17.95 -18.7 Q-17.7 -18.2 -16.6 -18.7 -15.65 -19.15 -15.5 -19.7 -15.8 -20.5 -17.0 -19.8 -18.25 -19.25 -17.95 -18.7 M20.9 -17.35 Q21.05 -18.6 19.95 -18.45 18.6 -18.3 18.85 -17.75 19.15 -16.8 19.95 -16.55 20.8 -16.25 20.9 -17.35 M40.55 -6.3 L45.6 -4.4 Q48.5 -3.15 50.0 -1.4 46.15 -1.55 41.5 1.45 L34.15 7.05 Q31.0 9.5 25.15 10.05 L23.25 10.05 Q21.75 9.9 22.0 9.35 L22.55 9.65 22.7 6.5 22.15 5.55 Q21.75 4.75 22.55 5.0 L22.85 5.3 22.95 5.3 Q24.05 4.85 24.35 6.1 L25.0 8.15 27.05 8.3 Q28.4 8.4 28.95 7.45 29.8 6.25 30.2 5.95 31.3 5.4 30.45 4.2 L29.1 2.3 Q28.3 1.05 27.2 1.85 25.85 2.95 25.3 2.7 24.2 1.85 23.5 1.45 22.4 0.8 22.0 2.15 20.25 4.05 22.0 4.6 21.35 6.25 20.5 2.95 L16.85 2.55 Q14.9 2.95 13.4 4.75 11.8 6.8 13.4 8.0 8.25 6.1 4.95 3.35 L1.7 0.35 Q0.75 -1.4 -0.1 -2.1 0.2 -1.15 -0.35 -1.4 L-1.6 -2.35 -3.5 -3.7 -1.45 -3.6 Q-2.25 -2.9 -1.2 -2.65 0.05 -2.2 -0.5 -3.3 3.3 -2.65 5.8 -1.0 7.4 0.1 12.05 -0.7 15.45 -1.15 18.85 -3.15 19.4 -3.6 20.1 -3.45 20.65 -3.3 20.9 -3.6 21.35 -4.0 21.2 -4.25 21.05 -4.55 21.6 -4.95 19.15 -4.8 15.45 -6.3 11.25 -7.95 9.45 -8.2 3.45 -9.15 -2.15 -7.0 -5.55 -6.05 -6.35 -4.0 L-6.65 -1.95 Q-6.65 -0.6 -6.1 -1.0 -5.95 -0.05 -6.35 0.35 -7.05 0.9 -7.2 1.6 -7.75 1.2 -8.55 1.2 -9.35 1.35 -9.65 2.0 -10.05 -1.0 -10.85 -3.6 L-11.55 -5.35 Q-12.1 -6.6 -11.8 -7.15 -11.4 -7.8 -12.35 -8.9 L-14.0 -10.4 Q-15.5 -13.55 -16.75 -14.9 -19.05 -17.1 -18.9 -17.75 -17.7 -17.35 -18.65 -18.6 -19.2 -18.2 -19.6 -18.45 L-20.7 -19.25 Q-23.0 -21.6 -25.75 -22.15 -24.8 -22.25 -24.9 -23.65 -24.9 -25.15 -25.75 -25.4 L-27.1 -25.0 Q-27.9 -24.45 -28.2 -25.0 -28.9 -26.1 -30.5 -27.05 L-32.0 -27.3 -33.5 -27.05 Q-34.75 -24.2 -35.0 -24.2 L-34.05 -22.4 Q-33.5 -21.2 -32.7 -20.75 -31.2 -19.95 -28.35 -21.3 L-27.5 -22.15 Q-27.25 -22.4 -26.0 -22.15 -27.65 -22.25 -26.7 -21.7 -26.15 -21.3 -24.9 -20.65 -23.15 -19.4 -23.0 -18.05 -23.85 -17.75 -23.95 -16.7 -23.95 -15.45 -23.3 -14.65 L-22.45 -14.5 Q-21.9 -14.35 -22.05 -13.95 -22.05 -13.55 -22.2 -13.15 -21.9 -12.7 -19.2 -15.45 -16.2 -11.9 -16.05 -10.65 -16.05 -10.4 -15.1 -9.45 -14.15 -8.65 -14.15 -7.65 -14.15 -6.6 -12.1 -3.15 -11.15 0.5 -11.8 2.7 -12.1 3.35 -11.4 5.15 L-11.8 7.6 -11.95 9.9 Q-12.1 11.7 -12.65 11.95 -14.8 13.45 -13.3 15.25 -12.8 15.9 -13.05 17.3 L-13.45 19.45 Q-13.6 18.5 -14.4 18.8 -15.25 18.9 -15.1 19.75 -14.95 20.4 -14.4 20.55 -13.85 20.7 -13.6 20.15 -13.6 20.7 -13.75 21.1 L-14.4 21.65 Q-14.95 22.2 -14.95 22.6 L-14.3 22.35 -13.85 21.65 Q-14.7 28.6 -14.3 31.35 -15.8 32.3 -14.8 33.5 L-12.9 35.55 Q-11.55 38.0 -18.8 34.45 -23.0 31.45 -24.35 29.85 L-25.05 29.0 -24.1 29.3 -23.85 28.9 -23.4 28.6 Q-22.75 25.75 -24.8 27.25 -25.6 27.9 -25.6 28.45 -32.85 19.6 -33.5 11.7 -39.1 14.0 -44.3 8.85 -41.7 9.1 -43.45 6.8 -45.4 4.6 -45.65 7.35 L-46.75 5.0 -47.55 2.7 -47.7 3.1 Q-48.65 0.1 -47.15 -3.3 L-47.0 -2.65 Q-46.75 -2.35 -46.35 -2.5 -45.95 -2.65 -45.8 -3.05 -45.5 -3.7 -46.05 -3.85 -46.6 -3.85 -47.0 -3.45 -45.95 -5.75 -41.45 -10.55 -41.15 -8.35 -39.65 -10.15 -38.3 -11.75 -40.35 -11.75 -37.35 -15.15 -35.55 -19.0 -34.05 -16.7 -34.05 -13.15 -34.05 -11.1 -34.6 -7.0 -35.0 -4.0 -34.35 -0.45 L-32.95 3.25 Q-31.45 4.75 -32.95 4.45 -31.9 6.1 -27.8 8.95 -24.1 11.55 -23.3 13.75 -22.85 14.7 -21.9 14.95 -21.1 15.1 -20.3 14.4 -20.15 14.3 -20.15 13.6 L-19.75 12.9 Q-19.45 12.8 -19.05 13.35 -18.65 13.85 -18.9 14.15 L-16.3 13.85 Q-14.7 13.75 -14.55 11.4 -14.4 9.8 -16.3 9.25 -18.25 8.85 -19.35 9.9 -19.45 8.7 -20.4 9.5 -21.35 10.45 -21.1 10.75 L-19.6 10.6 Q-19.85 11.85 -20.95 11.3 -22.2 10.45 -23.0 11.55 -23.7 9.25 -23.7 7.35 -23.7 8.95 -21.1 8.55 -18.35 8.15 -19.05 6.65 -20.0 4.45 -21.65 4.2 -22.2 4.05 -22.75 4.75 -23.4 5.4 -23.85 5.4 L-23.4 -1.65 -23.7 -4.65 Q-23.85 -7.15 -23.55 -7.4 -23.7 -6.15 -22.6 -6.45 -21.5 -6.6 -21.5 -7.55 -21.9 -7.55 -21.8 -9.15 -21.8 -11.75 -22.2 -12.45 -22.75 -13.15 -23.85 -13.15 -23.7 -13.65 -23.95 -14.5 -24.35 -15.15 -25.35 -15.45 -27.5 -16.0 -28.2 -13.65 -31.9 -16.25 -34.6 -20.35 -37.35 -24.45 -38.3 -28.8 -38.15 -29.75 -39.65 -32.35 -41.0 -34.7 -40.45 -35.2 -39.5 -36.2 -39.5 -37.8 -39.5 -39.7 -41.0 -40.0 -40.35 -40.55 -40.75 -41.35 -41.15 -42.3 -41.95 -42.05 L-42.5 -41.2 Q-42.65 -40.7 -43.05 -40.55 -44.55 -39.85 -45.95 -41.2 L-48.0 -43.95 Q-51.1 -48.2 -49.35 -48.05 -48.4 -48.05 -45.4 -46.7 -45.95 -46.7 -46.2 -46.0 -46.05 -45.45 -45.4 -45.7 -44.85 -46.0 -44.7 -46.4 L-41.45 -44.75 Q-37.35 -42.6 -34.75 -38.9 L-29.85 -32.2 Q-26.95 -28.8 -23.55 -26.75 -19.85 -24.3 -20.0 -23.9 -20.3 -23.35 -19.6 -23.1 -19.05 -22.8 -18.9 -23.5 L-16.3 -20.9 Q-11.4 -15.7 -8.3 -7.65 -8.3 -11.2 -7.2 -10.55 -7.45 -11.35 -6.9 -12.85 -6.25 -14.75 -4.05 -18.05 L-2.4 -19.8 Q-1.6 -20.35 -0.5 -20.1 0.2 -20.1 0.45 -20.65 0.75 -21.3 0.2 -21.6 1.15 -22.15 1.15 -22.0 L1.7 -21.3 Q1.95 -22.25 2.8 -22.55 L3.05 -22.0 Q3.3 -21.45 3.6 -21.6 4.4 -21.6 3.3 -22.7 L7.15 -22.7 Q6.85 -22.15 7.55 -21.7 8.25 -21.45 8.35 -22.25 10.95 -21.05 11.8 -16.25 12.85 -16.55 14.5 -17.9 16.3 -19.15 17.25 -19.55 L23.4 -19.7 Q29.4 -18.3 33.05 -14.1 L36.45 -9.7 Q38.5 -7.25 40.55 -6.3 M37.7 2.3 Q38.4 0.25 37.55 -1.55 36.45 -3.3 34.45 -3.45 31.0 -3.45 30.6 0.25 30.2 3.9 33.2 4.35 L35.8 4.45 Q35.95 3.9 36.6 3.65 L37.7 2.3" fill="#000000" fill-rule="evenodd" stroke="none"/>
  </g>
</svg>
