<?xml version="1.0" encoding="UTF-8" standalone="no"?>
<svg xmlns:xlink="http://www.w3.org/1999/xlink" height="94.75px" width="100.0px" xmlns="http://www.w3.org/2000/svg">
  <g transform="matrix(1.0, 0.0, 0.0, 1.0, 50.0, 47.35)">
    <path d="M-2.3 -7.1 Q-2.15 -7.4 -2.45 -7.4 L-2.5 -7.1 -2.2 -6.8 -2.3 -7.1 M-7.45 -9.2 Q-7.55 -9.0 -7.35 -9.05 -7.15 -9.05 -7.25 -9.2 L-7.45 -9.2 M-2.15 -8.6 L-1.9 -8.55 Q-1.75 -8.7 -1.95 -8.75 L-2.15 -8.75 -2.15 -8.6 M-2.45 -8.85 Q-2.3 -8.65 -2.2 -8.85 -2.05 -9.0 -2.3 -9.0 L-2.45 -8.85 M-3.4 -9.0 Q-3.25 -8.9 -3.15 -8.9 -2.9 -9.25 -3.25 -9.2 L-3.4 -9.0 M-2.45 -10.25 Q-2.45 -10.45 -2.75 -10.45 L-3.15 -10.4 -2.8 -10.15 -2.45 -10.25 M-4.8 -13.45 Q-4.4 -13.5 -4.5 -13.95 -4.6 -14.3 -4.95 -14.05 -5.2 -13.95 -5.1 -13.65 L-4.8 -13.45 M-6.1 -14.9 Q-6.45 -14.6 -6.2 -14.35 -6.0 -14.1 -5.75 -14.35 -5.45 -14.6 -5.6 -14.9 -5.8 -15.2 -6.1 -14.9 M-4.1 -13.05 Q-3.7 -13.2 -4.0 -13.5 -4.25 -13.75 -4.5 -13.5 L-4.6 -13.05 Q-4.5 -12.8 -4.1 -13.05 M-2.95 -11.85 L-3.1 -11.6 -2.85 -11.4 Q-2.55 -11.9 -2.95 -11.85 M-3.65 -11.7 Q-3.65 -11.9 -3.9 -11.9 -4.1 -11.85 -3.95 -11.65 L-3.65 -11.7 M-2.95 -12.55 L-3.1 -12.75 -3.1 -12.45 Q-2.85 -12.3 -2.95 -12.55 M0.0 -3.95 L0.15 -4.15 0.05 -4.25 -0.15 -4.15 Q-0.25 -4.0 0.0 -3.95 M-36.5 15.6 Q-36.35 15.75 -36.35 15.55 -36.4 15.3 -36.55 15.45 L-36.5 15.6 M-35.8 15.55 L-35.05 15.75 -34.8 15.3 Q-34.75 15.05 -35.0 14.9 -35.5 14.55 -35.85 14.9 -36.35 15.3 -35.8 15.55 M-33.1 15.45 Q-32.85 15.35 -32.95 15.25 -33.0 15.05 -33.2 15.25 L-33.1 15.45 M-34.45 15.45 L-34.2 15.3 Q-34.15 15.0 -34.4 15.25 -34.6 15.3 -34.45 15.45 M-44.5 7.65 L-44.75 7.75 -44.75 7.95 -44.45 7.9 Q-44.35 7.75 -44.5 7.65 M-40.05 5.75 L-39.9 5.6 Q-39.9 5.4 -40.05 5.55 -40.25 5.7 -40.05 5.75 M-39.5 6.4 L-39.4 6.6 Q-39.3 6.5 -39.35 6.4 L-39.5 6.4 M-41.75 6.5 L-41.75 6.65 -41.6 6.7 Q-41.5 6.65 -41.55 6.5 -41.6 6.35 -41.75 6.5 M-41.7 6.0 Q-41.8 5.85 -42.0 6.0 L-42.05 6.3 -41.7 6.3 Q-41.55 6.1 -41.7 6.0 M-42.0 6.45 L-42.1 6.45 Q-42.4 6.7 -42.05 6.7 -41.7 6.7 -42.0 6.45 M-41.45 6.2 L-41.2 6.2 Q-41.0 6.1 -41.4 5.85 L-41.45 6.2 M-42.6 7.15 L-42.7 7.45 -42.4 7.6 Q-42.15 7.55 -42.3 7.3 -42.4 7.0 -42.6 7.15 M-38.0 -0.4 L-38.2 -0.45 Q-38.35 -0.35 -38.15 -0.2 -37.9 -0.15 -38.0 -0.4 M-31.7 0.25 Q-31.7 -0.1 -31.8 0.1 L-32.4 0.0 Q-31.75 0.4 -31.7 0.25 M-30.65 11.75 L-31.1 11.7 -30.95 11.8 -30.65 11.75 M-31.05 12.2 Q-31.45 12.1 -31.65 12.85 -31.85 13.7 -30.85 13.5 -29.8 13.35 -30.25 12.65 -30.6 12.2 -31.05 12.2 M-29.8 12.0 L-29.9 12.2 Q-29.7 12.55 -29.65 12.1 -29.5 11.7 -29.8 12.0 M-29.65 10.3 L-29.6 10.55 -29.4 10.4 -29.5 10.25 -29.65 10.3 M-29.65 11.0 Q-29.6 11.2 -29.45 10.9 -29.35 10.6 -29.6 10.85 L-29.65 11.0 M-30.0 11.05 Q-30.15 10.7 -30.35 11.0 -30.5 11.3 -30.25 11.35 -29.95 11.4 -30.0 11.05 M-27.9 9.85 L-28.2 10.1 -27.9 10.4 Q-27.55 10.4 -27.6 10.1 L-27.9 9.85 M-27.25 7.95 L-27.25 8.15 Q-27.0 8.2 -27.05 7.95 -27.1 7.75 -27.25 7.95 M-33.1 14.05 Q-33.3 14.35 -32.95 14.25 -32.65 14.1 -32.9 14.0 L-33.1 14.05 M-32.7 14.55 L-33.2 14.6 -32.95 15.15 Q-32.65 15.25 -32.75 14.9 -32.55 14.75 -32.7 14.55 M-34.2 11.4 L-34.2 11.65 Q-34.0 11.75 -34.0 11.45 -34.0 11.1 -34.2 11.4 M-35.35 14.4 L-35.05 14.35 Q-34.65 14.15 -35.55 14.25 -35.6 14.4 -35.35 14.4 M-35.35 11.6 L-35.0 11.5 -35.0 11.2 Q-35.2 11.05 -35.35 11.2 L-35.35 11.6 M-36.65 10.85 Q-35.9 11.2 -35.55 10.55 -35.25 9.95 -35.95 9.85 -36.45 9.75 -36.85 10.2 -37.3 10.55 -36.65 10.85 M-35.0 10.9 L-34.8 11.0 -34.65 10.85 -35.0 10.9 M-32.7 10.7 L-32.9 10.7 -32.75 10.85 -32.7 10.8 -32.4 11.1 -32.25 10.6 Q-32.55 10.45 -32.65 10.7 L-32.65 10.75 -32.7 10.7 M-34.1 10.45 Q-34.5 10.75 -34.2 11.05 -34.0 11.35 -33.55 11.05 L-33.55 11.2 -33.45 11.35 Q-33.3 10.9 -33.55 11.05 -33.2 10.75 -33.45 10.45 -33.7 10.15 -34.1 10.45 M-33.55 9.65 L-33.75 9.7 Q-33.9 9.9 -33.6 9.9 -33.3 9.9 -33.45 9.7 L-33.3 9.55 Q-33.25 9.1 -33.55 9.4 L-33.6 9.6 -33.55 9.65 M-31.95 8.85 Q-32.05 8.75 -32.15 8.95 L-32.1 9.1 -31.95 9.1 Q-31.8 9.0 -31.95 8.85 M-33.5 4.85 Q-33.45 4.7 -33.55 4.65 L-33.75 4.6 -33.75 4.85 -33.5 4.85 M-36.35 4.1 L-36.35 4.35 -36.15 4.2 Q-36.15 3.95 -36.35 4.1 M-37.4 5.1 Q-37.6 4.9 -37.75 5.3 -37.95 5.7 -37.6 5.75 -37.35 5.8 -37.3 5.5 L-37.4 5.1 M-35.55 3.65 Q-35.6 3.5 -35.7 3.55 L-35.8 3.8 -35.6 3.9 -35.55 3.65 M-35.3 1.95 L-35.4 2.2 -35.25 2.05 Q-35.1 1.85 -35.3 1.95 M-35.05 0.7 L-34.9 0.8 -34.7 0.6 Q-34.65 0.4 -34.9 0.4 L-35.05 0.7 M-36.1 1.15 L-36.1 1.6 Q-35.7 1.65 -35.85 1.35 -35.9 1.0 -36.1 1.15 M-32.95 3.7 Q-33.0 3.5 -33.15 3.65 L-33.1 3.9 -32.95 3.7 M-34.0 3.55 Q-34.15 3.15 -34.65 3.65 -35.2 4.2 -34.9 4.35 -34.65 4.55 -34.3 4.1 -33.9 3.75 -34.0 3.55 M-34.5 1.15 Q-34.45 0.8 -34.75 1.05 L-34.8 1.25 Q-34.6 1.45 -34.5 1.15 M-34.1 1.15 Q-33.8 1.3 -33.85 0.95 -34.0 0.6 -34.2 0.85 -34.35 1.1 -34.1 1.15 M-33.7 0.6 Q-33.55 0.95 -33.3 0.8 L-33.2 0.45 Q-33.25 0.15 -33.5 0.25 L-33.7 0.6 M-32.35 0.8 L-32.15 0.6 Q-32.15 0.4 -32.4 0.5 L-32.45 0.6 -32.35 0.8 M-31.45 3.95 Q-31.5 3.65 -31.7 3.9 -32.0 4.05 -31.7 4.2 -31.45 4.25 -31.45 3.95 M-27.95 -3.15 L-28.15 -3.4 -28.45 -3.35 Q-28.75 -3.05 -28.4 -2.85 -28.0 -2.75 -27.95 -3.15 M-29.75 -0.8 L-29.65 -0.7 Q-29.5 -0.7 -29.45 -1.05 L-29.65 -0.9 -29.7 -0.95 -29.75 -0.8 M-29.3 -1.5 L-29.3 -1.3 Q-29.0 -1.0 -29.0 -1.4 -29.0 -1.8 -29.3 -1.5 M-31.7 -1.05 L-31.35 -1.25 Q-31.25 -1.6 -31.55 -1.55 L-31.8 -1.35 -31.7 -1.05 M-30.85 -2.25 L-31.1 -2.2 Q-31.4 -1.95 -31.05 -1.85 -30.75 -1.65 -30.65 -2.0 L-30.85 -2.25 M-29.5 -7.15 Q-29.5 -7.4 -29.65 -7.25 L-29.7 -7.1 Q-29.6 -6.95 -29.5 -7.15 M-29.3 -7.1 L-29.6 -6.7 -29.7 -6.25 Q-29.3 -5.8 -29.3 -7.1 M-26.25 -4.75 Q-26.1 -4.75 -26.15 -4.9 L-26.4 -4.95 -26.25 -4.75 M-26.5 -5.05 Q-26.25 -5.15 -26.5 -5.45 -26.05 -5.45 -26.4 -5.65 -26.65 -5.5 -26.85 -5.45 -27.25 -5.25 -27.0 -5.1 L-26.5 -5.05 M-27.8 -4.55 Q-28.1 -4.8 -28.1 -4.35 L-27.8 -4.05 -27.65 -4.25 -27.8 -4.55 M-28.4 -6.5 Q-28.1 -6.5 -28.25 -6.7 L-28.5 -6.7 Q-28.75 -6.5 -28.4 -6.5 M-28.3 -6.1 Q-28.4 -6.35 -28.6 -6.3 L-28.9 -6.0 Q-28.85 -5.6 -29.1 -5.4 L-29.65 -5.1 Q-30.15 -4.75 -30.45 -3.25 L-30.6 -3.95 Q-30.9 -4.35 -31.2 -4.25 L-31.5 -4.0 -31.35 -3.65 -31.05 -3.3 -30.9 -2.8 Q-30.75 -2.25 -30.35 -2.2 -30.0 -2.1 -29.95 -2.7 L-29.7 -3.9 Q-29.45 -4.55 -29.0 -4.75 -29.45 -3.95 -28.6 -4.45 -27.7 -4.85 -28.7 -4.85 -28.2 -5.2 -28.3 -6.1 M-27.05 -6.7 L-26.75 -6.4 -26.85 -6.8 -27.2 -7.15 -27.05 -6.7 M-33.5 -0.65 L-33.45 -0.2 -33.1 -0.15 Q-32.85 -0.35 -33.1 -0.65 -33.25 -0.9 -33.5 -0.65 M-33.5 -1.2 L-33.3 -0.9 Q-33.0 -0.75 -32.95 -1.2 -32.9 -1.6 -33.25 -1.5 L-33.5 -1.2 M-33.9 -0.15 L-34.05 -0.1 Q-34.35 0.15 -34.0 0.2 -33.6 0.25 -33.8 -0.05 L-33.9 -0.15 M-31.8 -3.55 L-31.85 -3.35 Q-31.75 -3.15 -31.7 -3.4 -31.65 -3.65 -31.8 -3.55 M-26.65 -8.1 L-26.95 -8.1 Q-27.25 -7.9 -26.85 -7.9 -26.45 -7.9 -26.65 -8.1 M-26.65 -8.6 L-26.7 -8.75 Q-26.7 -9.05 -26.95 -8.85 -27.2 -8.65 -26.85 -8.6 L-26.7 -8.55 -26.7 -8.35 Q-26.5 -8.15 -26.45 -8.35 L-26.65 -8.6 M-26.1 -9.15 L-26.35 -9.2 Q-26.5 -9.0 -26.25 -8.9 -26.1 -8.85 -26.1 -9.15 M-28.1 -7.5 Q-28.1 -7.9 -28.5 -7.7 L-28.6 -7.4 -28.45 -7.2 Q-28.1 -7.0 -28.1 -7.5 M-27.4 -7.6 L-28.25 -8.7 -27.95 -7.6 -27.7 -7.6 -27.4 -7.6 M-22.95 -5.6 Q-23.1 -5.4 -22.85 -5.4 -22.65 -5.4 -22.8 -5.65 -22.8 -5.95 -22.95 -5.6 M-23.6 -6.3 Q-23.8 -6.1 -23.5 -6.1 -23.25 -6.05 -23.3 -6.3 -23.45 -6.5 -23.6 -6.3 M-22.9 -6.7 Q-22.65 -6.85 -22.85 -6.95 L-22.95 -6.9 Q-23.2 -6.65 -22.9 -6.7 M-22.1 -5.75 L-22.05 -5.5 Q-21.8 -5.4 -21.9 -5.65 -21.95 -5.95 -22.1 -5.75 M-22.0 -10.45 Q-21.8 -10.25 -21.75 -10.5 L-21.95 -10.65 -22.0 -10.45 M-25.2 -8.85 Q-24.75 -9.25 -25.25 -9.5 L-25.85 -9.45 Q-26.15 -9.15 -25.9 -8.85 -25.55 -8.4 -25.2 -8.85 M-24.1 -9.3 Q-23.8 -9.2 -23.85 -9.5 -23.9 -9.8 -24.15 -9.55 L-24.1 -9.3 M-24.95 -10.45 L-25.35 -10.65 Q-25.6 -10.65 -25.45 -10.4 -24.7 -9.9 -24.95 -10.45 M-24.75 -10.55 Q-24.55 -10.4 -24.6 -10.7 -24.6 -11.0 -24.75 -10.75 L-24.75 -10.55 M-23.8 -10.75 Q-23.7 -10.55 -23.4 -10.55 -23.0 -10.55 -23.2 -10.8 L-23.5 -10.85 -23.8 -10.75 M-22.55 -11.3 L-22.2 -11.55 Q-22.0 -11.8 -22.35 -11.9 -22.9 -12.15 -22.8 -11.45 L-22.65 -11.05 -22.7 -11.1 -22.9 -11.1 Q-23.0 -10.95 -22.8 -10.95 L-22.6 -11.0 -22.55 -11.3 M-19.0 -12.15 L-19.15 -12.3 Q-19.35 -12.3 -19.35 -12.15 -19.25 -11.9 -19.0 -12.15 M-15.75 -13.5 Q-15.6 -13.65 -15.75 -13.75 L-16.0 -13.7 -15.9 -13.5 -15.75 -13.5 M-18.0 -18.4 L-18.25 -18.45 -18.2 -18.3 Q-18.0 -18.15 -18.0 -18.4 M-16.6 -20.0 Q-16.8 -20.2 -17.0 -20.0 L-16.95 -19.6 -16.5 -19.65 Q-16.4 -19.9 -16.6 -20.0 M-19.3 -21.3 L-19.25 -20.8 -19.05 -20.3 Q-18.85 -20.4 -19.3 -21.3 M-18.15 -21.3 Q-18.5 -21.55 -18.45 -21.0 -18.4 -20.5 -17.95 -20.55 -17.8 -21.05 -18.15 -21.3 M-18.2 -22.3 Q-18.35 -22.05 -18.15 -22.0 -17.9 -22.0 -17.9 -22.25 L-18.2 -22.3 M-16.6 -21.55 L-17.0 -21.1 Q-17.3 -20.75 -16.9 -20.75 -16.2 -21.55 -16.6 -21.55 M-22.65 -21.15 L-22.6 -20.85 Q-22.35 -20.8 -22.35 -21.05 -22.35 -21.3 -22.65 -21.15 M-19.85 -20.15 Q-19.7 -20.0 -19.6 -20.15 -19.45 -20.25 -19.55 -20.4 L-19.85 -20.4 -19.85 -20.15 M-19.65 -21.45 Q-19.9 -21.35 -19.6 -21.15 -19.3 -21.05 -19.35 -21.4 -19.4 -21.7 -19.65 -21.45 M-23.3 -23.4 L-23.2 -23.5 -23.3 -23.65 -23.5 -23.45 -23.3 -23.4 M-23.55 -25.6 Q-23.2 -25.6 -23.3 -25.9 L-23.7 -25.9 Q-23.9 -25.6 -23.55 -25.6 M-20.05 -27.9 L-20.15 -27.75 Q-20.15 -27.6 -19.95 -27.65 -19.75 -27.65 -19.85 -27.9 -19.9 -28.1 -20.05 -27.9 M-20.25 -26.2 L-20.45 -26.1 -20.3 -26.0 Q-20.0 -26.1 -20.25 -26.2 M-22.4 -27.25 L-22.35 -27.05 Q-22.1 -27.05 -22.25 -27.25 L-22.35 -27.3 -22.4 -27.25 M-21.75 -27.05 L-21.6 -26.5 -20.85 -26.65 Q-20.65 -26.5 -20.55 -27.25 L-21.05 -27.55 Q-21.3 -27.8 -21.5 -27.55 L-21.75 -27.05 M-19.05 -27.85 Q-19.25 -27.65 -18.95 -27.65 -18.7 -27.65 -18.8 -27.85 -18.85 -28.05 -19.05 -27.85 M-19.4 -27.0 Q-19.3 -27.25 -19.55 -27.2 -19.35 -27.2 -19.65 -27.0 -19.45 -26.8 -19.4 -27.0 M-18.5 -28.95 Q-18.35 -29.4 -18.8 -29.35 L-19.1 -29.1 Q-19.25 -28.8 -19.05 -28.7 -18.65 -28.45 -18.5 -28.95 M-17.2 -28.45 Q-17.5 -28.35 -17.25 -28.2 -17.05 -28.1 -16.95 -28.35 -16.9 -28.55 -17.2 -28.45 M-13.85 -27.9 Q-14.1 -27.8 -13.85 -27.65 L-13.75 -27.8 -13.85 -27.9 M-15.85 -27.85 L-15.85 -27.6 -15.7 -27.8 -15.85 -27.85 M-14.0 -29.45 L-13.7 -29.55 -14.1 -29.65 -14.0 -29.45 M-14.65 -28.75 L-14.7 -29.05 -15.15 -28.15 Q-14.65 -27.65 -14.65 -28.75 M-15.15 -30.15 Q-14.85 -29.7 -14.7 -30.25 -14.6 -30.9 -14.9 -30.55 L-15.05 -30.55 -15.25 -30.7 Q-15.8 -31.0 -15.7 -30.5 -15.55 -29.9 -15.4 -30.3 L-15.15 -30.15 M-16.95 -32.7 L-16.95 -32.55 -16.75 -32.55 -16.75 -32.8 Q-16.9 -32.95 -16.95 -32.7 M1.4 -19.85 L1.6 -20.2 1.35 -20.0 1.35 -20.15 1.3 -19.95 1.4 -19.85 M1.65 -23.7 L1.1 -23.75 0.65 -23.4 Q0.5 -22.85 1.2 -22.9 1.8 -23.05 1.65 -23.7 M-0.5 -23.1 Q-0.3 -22.85 -0.25 -23.15 -0.15 -23.4 -0.4 -23.25 -0.7 -23.25 -0.5 -23.1 M0.15 -22.6 L0.15 -22.45 0.35 -22.5 0.35 -22.6 0.15 -22.6 M0.15 -24.65 Q-0.1 -24.4 0.2 -24.5 L0.35 -24.65 0.15 -24.65 M-1.0 -25.1 L-1.05 -24.95 -0.95 -24.85 Q-0.8 -25.15 -1.0 -25.1 M1.65 -24.35 Q1.9 -24.7 1.55 -24.85 1.3 -24.9 1.2 -24.65 1.05 -24.4 1.25 -24.3 L1.65 -24.35 M-0.25 -27.3 Q-0.55 -26.5 0.2 -26.15 0.9 -25.9 1.2 -26.65 1.55 -27.45 0.9 -27.75 0.05 -28.15 -0.25 -27.3 M2.2 -26.35 L1.95 -26.35 Q1.8 -26.15 2.1 -26.1 L2.2 -26.35 M-2.9 -16.0 L-3.1 -16.1 Q-3.4 -16.05 -3.1 -15.85 -2.85 -15.7 -2.9 -16.0 M-4.1 -17.5 L-3.9 -17.25 Q-3.6 -17.15 -3.5 -17.55 -3.45 -18.0 -3.8 -17.8 L-4.1 -17.5 M-2.95 -17.85 Q-3.15 -18.05 -3.35 -17.85 L-3.15 -17.7 Q-3.2 -17.55 -3.35 -17.7 -3.4 -17.45 -3.15 -17.55 L-2.95 -17.85 M-6.55 -16.0 Q-6.2 -15.8 -6.45 -16.45 L-6.65 -16.1 Q-6.35 -16.1 -6.55 -16.0 M-7.05 -17.6 Q-7.3 -17.5 -7.05 -17.35 -6.9 -17.25 -6.9 -17.5 -6.9 -17.75 -7.05 -17.6 M-5.9 -18.2 L-6.1 -18.0 Q-6.0 -17.7 -5.8 -17.9 -5.6 -18.15 -5.9 -18.2 M-5.45 -21.35 Q-5.1 -21.6 -5.2 -22.05 -5.45 -22.85 -6.15 -22.35 -6.95 -21.95 -6.3 -21.45 L-5.45 -21.35 M-3.65 -18.65 L-3.95 -18.75 -4.05 -18.5 Q-4.0 -18.3 -3.75 -18.4 -3.5 -18.45 -3.65 -18.65 M-2.65 -21.7 Q-3.45 -21.9 -2.95 -21.6 -2.5 -21.3 -2.65 -21.7 M-7.5 -15.45 L-7.45 -15.65 -7.6 -15.55 -7.65 -15.35 -7.5 -15.45 M-13.1 -15.2 L-13.2 -15.5 -13.55 -15.2 Q-13.65 -14.9 -13.35 -14.9 L-13.1 -15.2 M-8.1 -18.65 L-9.3 -18.7 Q-10.45 -18.35 -9.8 -17.5 -9.55 -17.15 -9.3 -17.15 L-8.7 -17.0 Q-8.4 -17.0 -8.15 -17.85 -7.55 -16.85 -7.35 -17.3 -7.25 -17.7 -7.6 -17.9 L-8.2 -18.5 Q-7.95 -18.4 -8.1 -18.65 M-12.0 -27.35 Q-12.35 -27.3 -12.1 -27.0 -11.75 -26.6 -11.65 -26.75 -11.45 -27.0 -11.75 -27.2 -11.6 -27.5 -12.0 -27.35 M-8.55 -27.95 L-8.85 -27.9 Q-9.0 -27.65 -8.7 -27.75 -8.4 -27.8 -8.55 -27.95 M-7.85 -26.35 L-8.35 -26.9 Q-8.95 -27.0 -8.95 -26.2 -8.95 -25.5 -8.2 -25.75 -7.75 -25.85 -7.85 -26.35 M-10.4 -29.65 Q-10.3 -29.45 -10.15 -29.55 -9.95 -29.6 -10.0 -29.75 -10.1 -30.0 -10.3 -29.9 L-10.4 -29.65 M-9.25 -29.0 L-9.25 -28.75 Q-9.0 -28.65 -9.0 -28.85 L-9.25 -29.0 M-3.35 -23.4 Q-3.1 -23.55 -3.35 -23.8 L-3.7 -23.75 -3.65 -23.5 -3.35 -23.4 M-3.45 -22.8 Q-3.15 -22.8 -3.25 -22.95 L-3.5 -23.05 Q-3.75 -22.8 -3.45 -22.8 M-6.75 -25.3 L-6.65 -25.15 Q-6.35 -24.95 -6.4 -25.3 -6.45 -25.7 -6.7 -25.5 L-6.75 -25.3 M-6.2 -26.15 L-6.4 -26.15 -6.4 -25.9 Q-6.3 -25.85 -6.15 -26.0 L-6.2 -26.15 M-6.2 -29.6 Q-6.4 -29.15 -5.9 -29.15 -5.5 -29.1 -5.4 -29.45 -5.25 -29.9 -5.7 -29.9 -6.1 -29.95 -6.2 -29.6 M-1.45 -27.75 Q-1.65 -27.55 -1.4 -27.45 -1.15 -27.35 -1.15 -27.6 L-1.45 -27.75 M-2.95 -27.55 Q-3.15 -27.35 -2.95 -27.3 L-2.65 -27.35 -2.75 -27.55 -2.95 -27.55 M-3.9 -28.45 L-3.5 -27.95 Q-3.15 -27.8 -2.95 -28.05 L-2.95 -28.4 -2.9 -28.7 -3.1 -28.75 -3.5 -28.65 -3.9 -28.45 M-3.5 -29.85 L-3.6 -30.0 -3.7 -30.0 Q-3.9 -29.95 -3.7 -29.85 -3.6 -29.7 -3.5 -29.85 M-4.55 -31.1 L-4.95 -30.75 Q-5.0 -30.25 -4.55 -30.3 -4.0 -30.4 -4.1 -30.8 -4.2 -31.15 -4.55 -31.1 M-5.55 -31.15 L-5.3 -31.1 Q-5.2 -31.3 -5.4 -31.4 L-5.55 -31.15 M-6.4 -31.4 Q-6.9 -31.4 -6.7 -30.8 -6.55 -30.25 -6.15 -30.6 L-5.75 -31.3 -6.4 -31.4 M-6.3 -33.05 L-6.65 -33.05 -6.7 -32.7 -6.3 -32.65 Q-6.05 -32.85 -6.3 -33.05 M-5.0 -32.8 L-5.1 -32.9 -5.2 -32.65 -5.0 -32.8 M-6.2 -33.55 Q-6.2 -33.8 -6.4 -33.65 L-6.4 -33.45 Q-6.2 -33.4 -6.2 -33.55 M-10.8 -29.95 L-10.85 -29.85 Q-10.75 -29.6 -10.6 -29.9 L-10.8 -29.95 M-10.6 -31.3 L-10.9 -31.45 -11.2 -31.2 Q-11.3 -30.9 -10.9 -30.9 -10.55 -30.9 -10.6 -31.3 M-12.65 -31.05 Q-12.85 -30.85 -12.6 -30.8 L-12.45 -30.9 -12.55 -31.05 -12.65 -31.05 M-13.1 -30.1 Q-12.8 -30.8 -13.25 -30.25 -13.75 -29.7 -13.15 -30.0 L-13.35 -29.15 Q-13.25 -28.55 -13.05 -28.65 L-12.1 -28.55 -11.1 -28.4 -10.85 -27.9 Q-10.75 -27.6 -10.5 -27.65 -10.0 -27.75 -9.5 -28.25 L-9.35 -28.75 Q-9.5 -29.1 -9.8 -28.95 L-10.3 -28.4 Q-10.4 -28.75 -10.8 -28.95 L-11.5 -29.15 -11.6 -29.65 -11.7 -29.95 -11.5 -29.85 Q-11.2 -29.6 -11.0 -29.95 -10.8 -30.4 -11.2 -30.5 L-11.5 -30.4 -11.8 -30.15 -12.45 -30.25 -13.1 -30.1 M-0.3 -31.4 Q0.95 -33.65 2.25 -33.75 1.65 -31.65 1.7 -29.45 1.85 -27.0 2.8 -25.3 3.15 -24.7 3.0 -23.95 L2.55 -21.4 2.45 -18.8 2.55 -18.05 Q2.65 -17.55 2.4 -17.3 2.45 -17.6 2.2 -17.35 1.95 -17.15 2.25 -17.2 L1.6 -16.6 1.6 -17.55 Q1.8 -17.35 1.9 -17.55 L1.85 -17.8 1.6 -17.7 1.35 -18.8 1.3 -19.7 Q0.95 -19.35 1.05 -19.85 1.25 -20.15 1.05 -20.15 L0.95 -19.85 Q-0.1 -22.2 -1.75 -24.1 -0.8 -25.1 -1.75 -25.5 -2.2 -25.75 -2.75 -25.2 L-3.5 -25.85 -3.35 -24.9 -3.5 -24.8 -3.6 -24.65 Q-3.4 -24.4 -3.35 -24.7 L-2.5 -21.55 -2.45 -21.35 -2.65 -21.3 Q-3.05 -21.0 -2.6 -20.8 L-2.25 -20.85 -1.0 -17.3 Q-1.45 -17.35 -1.3 -16.9 -1.15 -16.45 -0.8 -16.75 L-0.85 -16.4 -0.8 -16.1 Q-0.65 -16.85 -0.5 -15.85 L0.0 -14.4 Q-1.15 -14.65 -1.9 -16.85 L-2.9 -20.15 -4.55 -23.95 -4.9 -25.6 -4.65 -25.55 -4.65 -25.85 -4.9 -25.8 -5.1 -25.45 -4.7 -26.2 -4.4 -26.9 -5.25 -25.8 -5.4 -26.75 -5.5 -27.8 Q-5.55 -28.1 -5.9 -28.4 L-6.4 -28.85 -7.2 -29.7 -7.5 -29.6 -7.55 -29.75 -7.85 -29.7 -7.9 -29.4 -7.75 -29.4 -7.65 -29.3 -7.2 -28.1 Q-8.05 -28.15 -7.6 -27.65 -7.15 -27.2 -7.05 -27.85 L-5.55 -25.15 Q-6.2 -23.95 -6.3 -24.05 -5.9 -24.55 -6.0 -24.7 L-6.95 -24.2 -6.4 -24.25 -6.6 -23.9 Q-6.1 -23.55 -5.45 -24.9 L-5.75 -24.1 -5.45 -24.65 -4.85 -23.25 -5.0 -23.1 Q-4.85 -22.95 -4.85 -23.2 L-4.5 -21.9 -4.35 -20.5 -3.8 -19.6 Q-3.25 -19.05 -3.2 -18.7 L-2.2 -16.35 -1.1 -13.9 -3.8 -16.0 -3.45 -16.15 Q-3.2 -16.3 -3.5 -16.55 -4.0 -16.85 -4.0 -16.1 -4.65 -16.45 -4.25 -16.6 -3.65 -16.7 -3.95 -17.0 L-4.4 -17.9 -4.9 -17.55 Q-5.4 -17.05 -5.3 -16.7 -5.2 -16.25 -4.1 -15.75 L-3.6 -15.1 Q-3.35 -14.8 -3.5 -14.4 -3.7 -13.9 -3.25 -13.7 -2.9 -13.45 -2.55 -13.7 L-1.65 -12.45 Q-1.1 -11.6 -1.05 -11.05 -1.05 -10.95 -2.35 -10.35 L-1.6 -9.5 Q-1.95 -9.3 -1.7 -9.15 L-1.25 -8.75 Q-0.4 -9.75 -1.15 -9.6 -0.8 -9.9 -0.75 -10.4 L-0.4 -9.05 0.1 -7.9 0.45 -6.5 Q1.05 -3.0 0.3 0.0 -0.25 -1.6 -1.55 -3.45 -0.85 -3.15 -0.8 -3.6 -0.8 -3.95 -1.35 -4.25 L-0.85 -4.8 Q-0.65 -5.1 -0.85 -5.45 L-1.4 -5.4 Q-1.45 -4.85 -1.75 -4.6 -2.15 -4.35 -2.55 -4.85 L-3.4 -5.65 -3.95 -6.5 -3.05 -7.55 -2.95 -6.95 -2.75 -6.35 -3.1 -6.1 Q-3.4 -5.95 -3.15 -5.95 L-2.0 -6.4 -2.65 -6.35 Q-2.55 -6.55 -2.75 -7.25 L-2.95 -8.15 Q-2.95 -7.75 -3.4 -7.9 L-3.95 -8.35 Q-4.3 -8.9 -4.85 -8.75 L-6.0 -8.2 -5.9 -8.95 Q-5.9 -9.5 -6.6 -9.25 -7.65 -8.75 -6.2 -8.05 -6.05 -7.9 -6.3 -7.75 L-6.65 -7.55 -8.45 -7.85 -9.15 -8.1 Q-9.85 -8.2 -9.9 -7.9 -10.0 -7.6 -9.05 -7.6 L-11.1 -6.85 -11.0 -7.1 Q-11.1 -6.95 -11.1 -7.15 L-11.0 -7.2 Q-10.9 -7.15 -10.9 -7.25 L-11.35 -7.1 -11.1 -6.85 -12.65 -5.8 Q-11.6 -8.0 -10.8 -7.8 -10.3 -7.6 -9.7 -8.7 -9.5 -9.45 -7.35 -10.05 L-5.45 -10.2 Q-4.8 -10.2 -4.55 -9.85 -3.5 -10.2 -3.9 -9.55 -3.95 -9.35 -4.7 -9.85 -5.15 -10.05 -4.9 -9.55 -4.65 -9.05 -4.5 -9.5 -4.3 -9.25 -4.0 -9.3 -3.75 -9.45 -3.7 -9.75 L-2.9 -9.2 -3.65 -10.95 Q-3.15 -10.8 -3.15 -11.3 L-3.5 -11.6 Q-3.75 -11.65 -3.9 -11.3 -4.8 -12.85 -6.6 -13.5 -7.9 -13.65 -8.25 -14.2 -8.45 -13.9 -9.15 -13.8 L-10.45 -13.8 -9.6 -14.65 -9.5 -14.4 -9.4 -14.85 Q-9.35 -15.25 -9.0 -15.1 -8.65 -14.9 -8.5 -15.8 L-10.0 -16.65 -10.85 -16.3 -11.65 -15.7 -14.05 -13.95 Q-15.9 -12.7 -16.45 -12.85 L-16.4 -13.45 Q-15.75 -14.2 -16.1 -14.5 L-16.6 -14.85 -17.2 -14.85 -17.8 -14.2 -17.95 -13.2 -17.25 -12.5 Q-17.65 -11.7 -18.95 -11.0 L-21.05 -9.85 Q-20.8 -10.8 -21.9 -10.25 -22.9 -9.75 -21.9 -9.3 L-24.4 -7.75 -23.8 -7.3 Q-23.45 -7.1 -23.4 -7.45 L-22.65 -7.3 -22.0 -7.1 Q-21.75 -6.7 -21.45 -6.9 L-20.9 -7.2 -18.25 -7.45 Q-19.05 -6.6 -21.1 -5.65 -23.3 -4.55 -23.9 -5.1 L-24.4 -5.15 -24.7 -4.85 -25.0 -4.55 -25.5 -4.45 -26.55 -4.2 Q-26.5 -3.95 -27.1 -3.45 L-28.0 -2.75 -28.4 -1.85 -28.6 -0.8 -29.1 -0.7 -29.65 -0.45 -29.75 0.3 Q-29.7 0.6 -30.3 0.85 -30.15 0.7 -30.45 0.5 L-30.55 0.75 -30.75 1.0 -30.3 0.1 -30.0 -0.35 -30.15 -0.3 Q-29.7 -1.05 -30.0 -1.0 L-30.45 -0.3 Q-30.25 -0.7 -30.45 -0.75 L-30.75 -0.4 Q-30.5 -0.4 -30.75 -0.05 L-30.6 -0.2 -30.5 -0.15 -30.85 0.85 Q-30.95 1.1 -31.8 1.15 L-33.0 1.25 Q-32.65 1.25 -33.15 1.35 -32.95 1.05 -33.2 1.0 -33.5 0.85 -33.6 1.25 L-33.45 1.45 -33.15 1.4 -33.4 1.85 Q-33.45 1.3 -33.75 1.7 -34.1 2.2 -33.55 2.0 L-32.9 1.75 Q-32.35 1.45 -32.75 1.3 -32.3 1.4 -31.85 3.05 -31.65 2.9 -31.65 3.25 -31.7 3.65 -31.35 3.65 -31.1 3.65 -30.75 4.3 L-32.1 4.6 Q-31.7 3.55 -32.75 4.0 -34.0 4.4 -33.15 4.9 L-34.45 5.3 -34.5 4.85 Q-35.8 5.15 -35.0 5.55 L-36.4 5.85 Q-36.35 6.2 -36.7 6.1 L-37.15 5.9 Q-37.0 6.3 -37.15 6.35 L-37.6 6.3 -37.9 6.1 Q-37.95 6.5 -38.35 6.6 L-38.45 7.15 -38.8 7.3 -39.2 7.3 -39.1 7.5 -39.9 7.6 -40.55 7.55 -40.35 7.8 -40.0 7.85 -40.25 8.05 -40.55 8.05 -40.5 8.05 -40.6 7.95 Q-40.4 8.05 -40.5 7.9 L-41.55 7.8 Q-42.4 7.8 -42.05 8.55 -42.4 8.35 -42.55 8.55 L-42.45 9.05 Q-42.35 9.35 -42.05 9.3 L-41.75 9.3 -42.0 9.45 -41.75 9.65 -41.5 9.65 -41.25 9.6 -41.15 10.3 -40.1 11.3 -40.0 11.15 -39.8 11.1 -39.75 11.45 -39.45 11.3 Q-39.15 11.15 -39.15 11.45 L-38.45 10.8 Q-38.35 11.45 -37.9 11.7 -37.35 11.95 -37.05 11.2 -36.8 10.7 -37.3 10.4 L-37.9 9.95 Q-36.45 9.95 -34.8 9.25 L-34.1 8.85 -33.85 9.25 Q-33.9 8.85 -33.45 9.0 L-32.7 9.15 -32.95 8.8 Q-33.2 8.5 -32.95 8.45 L-32.7 8.55 -32.6 8.45 -32.7 8.25 -32.95 8.2 -30.3 6.4 -31.55 9.15 -32.65 12.05 Q-33.0 11.35 -33.4 12.2 -33.8 12.95 -33.1 12.85 -32.6 12.7 -31.55 11.3 -30.3 10.45 -30.6 10.25 L-28.25 7.2 -27.65 7.85 -27.1 7.8 Q-26.8 7.5 -27.1 7.2 -27.8 6.65 -27.3 5.8 L-26.25 4.4 -26.85 7.75 -26.7 7.85 -27.0 7.9 -26.85 8.15 -26.75 8.45 -26.85 9.15 Q-27.05 9.9 -28.3 11.4 -29.75 13.25 -32.05 15.15 -33.85 16.65 -36.2 18.1 -37.9 19.1 -39.1 19.15 L-38.35 18.4 -38.05 18.6 Q-37.85 18.45 -37.9 17.85 L-37.05 16.3 Q-36.05 14.05 -35.95 12.1 L-36.35 11.9 Q-36.65 11.6 -36.7 11.8 -36.8 12.5 -37.1 12.65 L-38.05 12.85 Q-39.7 12.9 -41.45 11.9 -43.3 10.75 -45.85 7.75 -44.75 7.75 -43.45 6.95 -43.65 7.15 -43.35 7.2 L-43.15 7.05 -43.35 6.9 -40.2 4.55 Q-39.35 3.9 -37.05 3.7 -34.9 3.5 -34.0 2.75 L-36.55 2.55 Q-37.7 1.95 -38.6 0.75 L-39.2 -0.7 Q-39.65 -0.8 -39.9 -1.8 L-39.95 -3.25 Q-39.75 -2.1 -38.6 -1.3 -37.55 -0.5 -36.4 -0.65 L-35.8 -0.2 Q-35.4 0.1 -35.1 -0.2 -34.8 -0.5 -35.05 -1.05 -34.65 -1.25 -33.8 -1.95 -34.0 -1.3 -33.45 -1.8 -32.9 -2.2 -33.6 -2.15 -32.15 -3.55 -30.25 -7.0 -28.85 -9.2 -26.4 -10.95 L-25.6 -11.1 Q-25.05 -11.3 -25.3 -11.65 L-24.4 -12.1 Q-23.9 -12.2 -23.1 -13.0 -23.6 -11.85 -22.55 -12.45 -21.4 -13.1 -22.55 -13.2 L-20.65 -14.05 Q-21.1 -12.75 -19.7 -13.1 -18.45 -13.45 -19.7 -14.4 L-19.05 -14.65 Q-18.55 -14.85 -18.65 -14.55 -18.45 -15.1 -16.45 -15.65 L-13.7 -16.25 -11.95 -16.6 -12.05 -16.4 -11.95 -16.25 Q-11.7 -16.1 -11.7 -16.3 -11.65 -16.55 -11.9 -16.6 L-10.45 -16.9 Q-13.35 -18.3 -15.2 -17.6 -13.4 -18.3 -13.65 -18.4 -11.3 -19.5 -9.9 -19.8 L-6.0 -19.55 Q-7.0 -19.6 -6.3 -18.8 -5.6 -18.1 -5.45 -19.25 L-4.8 -18.8 -5.2 -19.3 -5.15 -19.65 -5.3 -19.85 -5.25 -19.9 Q-5.2 -20.1 -5.45 -20.1 L-5.5 -19.9 -5.45 -19.85 -5.45 -19.65 -6.0 -20.2 Q-6.2 -20.6 -6.55 -20.7 -6.95 -20.75 -7.65 -21.3 L-8.8 -22.15 Q-8.25 -22.2 -8.75 -22.5 -9.25 -22.8 -9.1 -22.3 -9.7 -22.75 -10.6 -23.05 L-10.15 -23.55 Q-9.9 -23.9 -10.1 -24.1 L-8.35 -24.25 Q-8.65 -23.95 -8.05 -23.9 -7.5 -23.8 -7.75 -24.25 L-6.95 -24.05 Q-11.35 -27.15 -16.1 -27.05 -15.8 -27.15 -15.9 -27.35 L-16.15 -27.25 -16.1 -27.05 Q-19.7 -27.05 -21.35 -24.2 -22.35 -22.35 -21.95 -21.25 -21.6 -20.4 -21.1 -20.55 -20.55 -20.7 -20.6 -21.55 -19.95 -21.15 -19.95 -21.85 L-20.2 -22.8 Q-19.3 -23.7 -17.85 -23.8 -16.2 -23.8 -15.75 -22.05 L-15.9 -21.3 Q-15.0 -20.4 -16.75 -19.0 -18.35 -17.75 -19.45 -17.6 -20.8 -17.35 -22.0 -17.9 -23.2 -18.45 -23.6 -19.55 L-24.25 -20.4 -24.6 -21.75 Q-24.45 -21.45 -24.25 -21.6 -24.0 -21.75 -24.15 -22.0 L-24.4 -22.15 -24.6 -21.9 -24.65 -22.6 -24.15 -22.55 -23.6 -22.65 -23.3 -22.35 Q-23.15 -22.35 -22.8 -22.65 -22.4 -22.95 -22.6 -23.1 L-23.15 -23.15 -23.6 -23.1 -23.85 -23.65 -24.6 -23.75 Q-23.85 -28.75 -15.8 -30.4 L-17.8 -32.85 -17.65 -33.15 -17.85 -32.9 -18.7 -33.55 Q-14.65 -33.35 -12.0 -32.35 -9.25 -31.35 -8.65 -30.1 L-8.4 -30.7 Q-8.25 -31.0 -8.35 -31.2 L-7.95 -31.2 Q-7.8 -31.4 -7.95 -31.6 L-8.35 -31.6 -8.4 -31.35 -8.55 -32.3 -8.4 -34.1 Q-8.25 -35.35 -8.75 -35.75 L-6.95 -34.4 -7.15 -34.25 -7.0 -33.85 -6.9 -34.4 -3.65 -31.6 Q-3.2 -31.1 -3.4 -30.85 -3.6 -30.5 -3.35 -30.2 L-2.45 -29.35 Q-1.95 -28.95 -2.0 -28.1 L-0.3 -31.4 M-0.1 -30.7 Q0.1 -30.5 0.15 -30.8 0.2 -31.1 0.0 -30.9 L-0.1 -30.7" fill="#000000" fill-rule="evenodd" stroke="none"/>
    <path d="M24.25 32.3 L24.25 32.05 24.0 32.1 24.05 32.3 24.25 32.3 M29.0 32.85 Q28.65 32.9 28.55 33.25 28.55 33.5 29.05 33.5 29.5 33.55 29.35 33.15 29.3 32.75 29.0 32.85 M27.55 32.25 L27.6 32.45 27.9 32.55 Q28.15 32.4 27.9 32.15 27.75 31.95 27.55 32.25 M26.85 30.7 L26.75 30.95 27.0 31.0 27.05 30.8 Q26.95 30.6 26.85 30.7 M27.05 30.25 Q27.25 30.5 27.3 30.2 27.45 29.9 27.2 30.0 26.95 30.1 27.05 30.25 M27.45 30.55 Q27.45 30.35 27.25 30.55 27.05 30.65 27.3 30.7 L27.45 30.55 M28.65 30.05 L28.8 29.95 28.8 29.7 Q28.65 29.7 28.65 30.05 M27.9 31.25 Q27.95 30.95 27.75 31.2 L27.65 31.3 27.9 31.25 M16.55 33.55 Q16.35 33.75 16.55 33.85 L16.75 33.65 Q16.75 33.35 16.55 33.55 M16.55 30.2 Q16.25 30.55 16.7 30.8 L17.4 30.65 Q17.0 29.45 16.55 30.2 M21.25 35.6 L21.0 35.55 20.85 35.8 21.15 35.8 21.25 35.6 M21.3 35.05 L21.15 34.6 20.65 34.65 Q20.25 34.95 20.65 35.1 L21.3 35.05 M18.5 36.15 L18.1 35.6 Q17.75 35.35 17.7 35.95 17.7 36.55 18.5 36.15 M17.4 32.95 L17.2 32.95 Q16.95 33.15 17.25 33.25 L17.5 33.05 17.4 32.95 M17.55 32.6 Q17.4 32.85 17.6 33.0 L18.0 33.05 Q18.35 32.9 18.1 32.6 17.8 32.3 17.55 32.6 M21.7 32.85 Q21.35 32.6 21.35 33.15 21.4 33.6 21.85 33.55 22.0 33.0 21.7 32.85 M22.5 33.45 L22.2 33.45 Q21.95 33.75 22.25 33.85 22.6 33.95 22.65 33.6 L22.5 33.45 M22.85 31.8 L23.1 32.05 23.45 32.1 Q23.8 32.0 23.45 31.75 L22.85 31.8 M22.5 30.8 L22.35 31.15 22.35 31.1 22.25 31.4 22.5 31.75 22.8 31.55 22.5 31.15 22.5 30.8 M22.9 29.1 L22.45 29.35 22.25 29.8 Q22.0 30.7 23.1 30.0 24.1 29.4 22.9 29.1 M18.7 24.95 L18.6 24.95 Q18.4 25.1 18.65 25.2 L18.8 25.05 18.7 24.95 M17.15 25.3 Q17.0 25.45 17.2 25.5 17.45 25.6 17.4 25.35 L17.15 25.3 M18.45 25.9 Q18.0 25.55 17.8 25.9 17.6 26.4 17.15 26.35 L17.75 27.0 18.6 27.1 19.1 26.65 18.95 26.15 18.45 25.9 M16.45 28.25 Q16.4 28.0 16.25 28.15 L16.15 28.45 16.4 28.5 16.45 28.25 M15.65 26.45 Q15.45 26.7 15.7 26.7 L15.95 26.5 15.8 26.4 15.65 26.45 M16.45 25.35 Q15.85 25.55 16.1 25.85 16.35 26.1 16.55 25.85 16.7 25.55 16.45 25.35 M15.8 25.8 L16.0 25.3 15.55 25.35 Q15.45 25.6 15.8 25.8 M29.85 28.55 L30.1 28.35 29.8 28.25 Q29.6 28.45 29.85 28.55 M30.85 25.9 L31.1 25.95 Q31.3 25.8 31.0 25.75 L30.85 25.9 M31.15 25.3 Q31.35 25.5 31.4 25.2 31.45 24.9 31.2 25.05 L31.15 25.3 M30.7 24.6 L30.1 24.65 Q29.7 24.75 29.95 25.2 30.45 26.15 30.7 24.6 M31.4 23.45 Q31.75 22.95 31.3 22.65 31.0 22.5 30.7 22.85 30.45 23.15 30.6 23.45 31.05 23.85 31.4 23.45 M31.6 23.7 L31.35 23.9 Q31.35 24.2 31.6 24.0 L31.6 23.7 M34.15 24.0 Q34.0 23.45 33.65 23.8 33.2 24.2 33.5 24.3 L34.0 24.45 Q34.3 24.45 34.15 24.0 M32.75 25.35 L32.65 25.25 32.55 25.35 32.75 25.35 M35.1 23.5 L34.95 23.4 Q34.85 23.3 34.85 23.45 L34.95 23.55 35.1 23.5 M27.8 28.85 L27.9 28.7 27.75 28.7 Q27.5 28.9 27.8 28.85 M28.35 28.75 L28.5 28.5 28.25 28.45 Q28.1 28.6 28.35 28.75 M26.6 28.25 L26.55 28.35 26.65 28.5 26.7 28.3 Q26.7 28.2 26.6 28.25 M27.5 29.05 L27.6 28.85 27.5 28.75 27.45 28.9 27.5 29.05 M24.5 28.6 Q24.3 28.8 24.5 28.9 L24.7 28.85 Q24.9 28.7 24.5 28.6 M23.9 28.5 L24.2 28.15 Q24.25 27.85 24.0 27.85 23.6 27.7 23.6 28.05 23.5 28.5 23.9 28.5 M24.0 29.15 Q23.8 29.35 24.05 29.35 L24.1 29.15 24.0 29.15 M24.95 26.45 L25.85 26.5 25.6 25.95 24.95 26.45 M25.8 24.1 L26.15 23.85 Q26.35 23.6 26.1 23.55 L25.8 24.1 M27.25 25.85 L26.65 25.9 Q26.4 26.35 27.0 26.5 26.75 26.75 26.9 27.0 L27.3 27.35 Q27.0 27.65 27.35 27.75 27.6 27.9 27.75 27.6 27.85 27.35 27.6 27.25 L27.75 26.85 27.55 26.45 27.35 26.15 27.25 25.85 M28.95 25.5 L28.4 25.9 Q28.1 26.1 28.35 26.35 28.55 26.65 28.75 26.35 29.1 26.65 29.4 26.55 L29.9 26.2 29.95 25.75 29.6 25.45 28.95 25.5 M33.5 22.1 L33.35 21.5 33.65 21.2 Q33.55 20.9 33.25 21.05 L33.1 21.25 33.25 21.5 32.8 21.7 32.3 21.75 32.2 22.35 Q32.0 22.8 32.3 23.0 31.4 23.1 32.0 23.7 32.6 24.3 32.65 23.6 32.8 23.4 32.55 23.15 L33.4 22.7 33.5 22.1 M30.5 22.0 Q30.25 22.0 30.15 22.15 29.9 22.55 30.3 22.6 30.75 22.7 30.7 22.3 L30.7 22.1 30.8 21.95 Q30.75 21.75 30.6 21.8 30.5 21.85 30.55 22.0 L30.55 22.05 30.5 22.0 M10.75 -5.6 Q10.5 -5.5 10.75 -5.45 10.95 -5.25 11.0 -5.7 10.55 -5.7 10.95 -5.6 L10.75 -5.6 M9.15 -5.45 Q9.0 -5.25 9.2 -5.05 9.3 -4.85 9.5 -5.05 9.75 -5.2 9.5 -5.5 L9.15 -5.45 M10.65 -5.9 L10.4 -5.9 10.35 -5.7 Q10.45 -5.5 10.55 -5.65 L10.65 -5.9 M9.9 -6.65 Q9.8 -6.0 10.7 -6.5 L10.5 -6.9 10.05 -6.8 9.8 -7.45 Q8.95 -7.75 9.05 -6.85 9.25 -6.0 9.9 -6.65 M8.9 -7.75 L9.05 -7.6 Q9.05 -8.1 8.85 -8.0 8.75 -7.9 8.9 -7.75 M10.05 -12.8 Q9.65 -13.05 9.8 -12.55 9.95 -12.15 10.25 -12.0 10.35 -12.4 10.05 -12.8 M9.75 -13.5 L9.55 -13.65 9.45 -13.5 9.6 -13.45 9.75 -13.5 M9.65 -13.9 Q10.1 -14.05 9.9 -14.5 9.75 -14.85 9.3 -14.6 8.95 -14.35 9.05 -14.05 9.2 -13.7 9.65 -13.9 M28.05 5.75 Q28.2 5.55 27.95 5.25 L27.55 5.2 Q27.3 5.45 27.55 5.75 27.8 6.05 28.05 5.75 M28.7 4.55 Q28.25 4.7 28.45 5.1 28.75 5.45 29.25 4.6 L28.7 4.55 M28.05 4.55 L28.35 4.1 28.1 3.65 27.5 3.75 27.05 4.0 Q26.9 4.2 27.35 4.35 L28.05 4.55 M32.65 5.75 Q32.45 5.85 32.6 6.0 32.65 6.45 33.1 6.2 33.55 6.0 33.1 5.75 32.95 5.6 32.65 5.75 M33.25 5.1 Q32.95 5.2 33.2 5.4 33.5 5.55 33.5 5.25 L33.25 5.1 M32.35 4.35 L33.05 4.3 Q33.2 4.0 32.95 3.75 L32.35 3.7 Q31.95 4.05 32.35 4.35 M35.0 5.45 Q34.9 5.3 34.85 5.45 L34.85 5.6 35.0 5.55 35.0 5.45 M32.0 5.9 L32.15 6.05 32.3 5.9 32.15 5.85 32.05 5.8 31.9 5.8 32.0 5.9 M29.7 6.0 L30.0 5.7 29.9 5.15 28.9 5.5 28.95 5.8 29.3 5.5 29.5 5.8 29.7 6.0 M30.1 5.9 Q29.8 6.3 30.2 6.2 30.6 6.15 30.3 5.9 30.25 5.75 30.1 5.9 M29.35 4.25 L29.25 4.1 29.05 4.2 Q28.8 4.35 29.1 4.4 29.4 4.5 29.35 4.25 M30.15 3.8 Q29.7 3.8 29.8 4.25 29.85 4.7 30.25 4.65 30.7 4.65 30.6 4.25 30.55 3.75 30.15 3.8 M32.05 4.55 Q32.0 4.35 31.9 4.55 L31.95 4.65 32.05 4.55 M31.65 4.05 L31.9 3.8 31.65 3.9 Q31.5 4.0 31.65 4.05 M30.0 1.4 L29.95 1.65 Q30.25 1.95 30.3 1.55 30.45 1.15 30.0 1.4 M32.3 2.8 L32.55 2.8 32.35 2.5 Q32.15 2.6 32.3 2.8 M32.35 3.35 L32.75 3.35 32.6 3.15 Q32.5 3.15 32.35 3.35 M21.65 2.95 L21.7 2.8 Q21.7 2.65 21.4 3.05 21.1 3.35 21.6 3.25 L21.65 3.45 21.85 2.95 21.65 2.95 M20.45 -3.55 Q20.35 -3.6 20.2 -3.45 19.95 -3.15 20.35 -3.25 20.65 -3.35 20.45 -3.55 M21.7 -4.85 L22.0 -4.85 Q22.55 -5.25 21.75 -5.15 20.95 -5.05 21.7 -4.85 M21.95 -4.0 L21.95 -4.3 Q21.75 -4.55 21.6 -4.3 21.55 -4.2 21.65 -4.05 L21.95 -4.0 M21.15 -3.75 Q21.6 -3.65 21.45 -4.05 L21.3 -4.25 21.1 -4.25 Q20.75 -3.95 21.15 -3.75 M11.4 -3.55 Q11.8 -4.0 11.4 -4.3 10.95 -4.55 10.7 -4.15 10.4 -3.75 10.75 -3.35 11.05 -3.05 11.4 -3.55 M14.65 -0.4 Q14.95 -0.6 14.6 -0.7 L14.45 -0.45 14.65 -0.4 M15.7 -2.7 L15.55 -2.85 15.35 -2.8 Q15.2 -2.55 15.45 -2.5 L15.7 -2.7 M13.3 -2.95 L13.75 -2.35 14.05 -1.6 14.35 -1.5 14.35 -1.7 14.2 -1.9 13.3 -2.95 M12.85 -2.7 Q12.55 -2.8 12.55 -2.45 12.5 -2.1 12.85 -2.0 L13.05 -2.4 12.85 -2.7 M12.6 -4.15 L12.5 -4.2 Q12.2 -4.15 12.5 -4.0 12.75 -3.9 12.6 -4.15 M12.85 -5.1 L12.85 -5.2 12.7 -5.2 Q12.55 -5.1 12.7 -5.05 L12.85 -5.1 M12.3 -6.85 Q12.45 -6.7 12.45 -6.9 L12.25 -7.0 12.3 -6.85 M14.3 -5.05 L14.2 -5.1 14.05 -5.1 Q13.9 -4.95 14.15 -4.9 L14.3 -5.05 M12.1 -7.85 L11.9 -8.05 11.65 -8.0 Q11.35 -7.75 11.7 -7.6 12.0 -7.5 12.1 -7.85 M21.6 -7.85 Q21.35 -7.6 21.65 -7.55 22.0 -7.5 21.9 -7.8 L21.6 -7.85 M26.3 -0.9 L26.4 -0.65 26.65 -0.8 26.45 -1.0 Q26.3 -1.1 26.3 -0.9 M24.05 -0.65 L23.75 -0.45 Q23.65 -0.2 23.9 -0.35 L24.05 -0.65 M24.2 -2.65 Q24.35 -2.45 24.1 -2.15 L24.3 -2.25 Q24.6 -2.85 24.35 -2.95 L24.2 -2.65 M24.65 -18.3 L24.65 -18.45 24.4 -18.6 Q24.4 -18.05 24.65 -18.3 M24.0 -19.65 L24.0 -19.85 23.8 -19.9 23.8 -19.7 24.0 -19.65 M23.3 -20.15 Q23.45 -20.0 23.45 -20.45 L23.35 -20.95 Q23.05 -21.1 23.05 -20.7 23.0 -20.25 23.3 -20.15 M23.3 -25.75 Q23.2 -25.6 23.35 -25.55 L23.5 -25.55 23.3 -25.75 M24.0 -25.0 L23.9 -25.2 23.65 -25.15 Q23.6 -24.95 23.8 -24.9 24.0 -24.85 24.0 -25.0 M25.45 -25.75 L25.75 -25.8 25.6 -25.9 25.45 -25.75 M26.0 -25.55 L25.3 -25.4 Q25.25 -26.0 24.9 -26.1 24.4 -26.35 24.1 -25.85 23.75 -25.4 24.2 -24.95 L24.8 -24.9 25.25 -25.1 25.75 -24.7 Q26.1 -24.5 26.25 -25.1 26.35 -25.55 26.0 -25.55 M24.35 -28.2 L24.0 -28.5 Q23.65 -28.7 23.6 -28.35 23.5 -28.1 23.9 -28.1 L24.35 -28.2 M25.6 -29.1 Q25.7 -28.95 25.8 -28.95 L26.0 -29.15 Q25.95 -29.4 25.7 -29.35 L25.6 -29.1 M25.1 -29.05 L24.85 -28.95 Q24.6 -28.65 25.0 -28.55 25.4 -28.55 25.3 -28.85 L25.1 -29.05 M27.85 -26.3 L27.95 -26.15 28.05 -26.3 27.85 -26.3 M31.6 -26.15 L31.0 -26.3 Q30.9 -26.05 31.4 -26.05 31.95 -26.0 31.6 -26.15 M30.4 -26.7 L30.6 -26.95 30.4 -27.2 30.2 -26.95 30.4 -26.7 M19.7 -19.85 L19.65 -19.65 Q19.85 -19.4 19.9 -19.65 L19.7 -19.85 M18.2 -19.8 L18.15 -20.1 Q17.9 -20.2 18.0 -19.9 L18.1 -19.55 Q17.9 -19.85 18.0 -19.5 L18.05 -19.2 18.35 -18.75 18.6 -18.45 Q18.7 -18.15 19.0 -18.6 19.35 -19.0 19.3 -19.4 19.3 -19.85 18.9 -19.8 L18.2 -19.8 M18.45 -20.55 Q18.3 -20.75 18.2 -20.55 L18.3 -20.3 18.5 -20.25 18.45 -20.55 M20.05 -21.3 Q19.7 -21.15 19.95 -21.05 20.25 -20.95 20.15 -21.15 L20.05 -21.3 M19.1 -21.9 L18.75 -22.25 Q18.35 -22.3 18.3 -21.95 18.9 -21.15 19.1 -21.9 M19.35 -21.95 Q19.35 -21.7 19.5 -21.75 L19.55 -21.75 19.65 -21.6 19.7 -22.0 19.4 -22.05 19.5 -22.0 19.35 -21.95 M22.85 -19.95 Q22.65 -19.8 22.85 -19.6 L23.2 -19.65 23.15 -19.95 Q23.05 -20.15 22.85 -19.95 M20.65 -18.8 Q20.65 -19.0 20.35 -19.0 L19.95 -19.0 Q19.9 -18.75 20.25 -18.7 L20.65 -18.8 M20.4 -19.8 Q20.2 -19.55 20.5 -19.6 20.8 -19.65 20.55 -19.85 L20.4 -19.8 M21.35 -21.9 L21.15 -22.2 20.8 -22.15 Q20.55 -21.85 20.95 -21.65 21.3 -21.45 21.35 -21.9 M22.05 -20.6 L21.85 -20.7 Q21.65 -20.5 21.75 -20.4 21.95 -20.25 22.05 -20.4 L22.05 -20.6 M22.75 -20.6 L22.5 -20.5 Q22.55 -20.3 22.65 -20.45 L22.75 -20.6 M22.45 -21.55 L22.3 -21.55 Q22.15 -21.4 22.35 -21.3 L22.55 -21.45 22.45 -21.55 M16.1 -17.2 L16.0 -17.3 15.8 -17.25 Q15.55 -17.05 15.85 -17.0 L16.1 -17.2 M11.05 -18.95 Q11.1 -18.7 11.3 -18.9 L11.2 -19.1 11.05 -18.95 M11.3 -20.75 Q11.25 -21.0 11.0 -20.85 10.75 -20.8 10.8 -20.5 10.95 -20.2 11.2 -20.3 L11.3 -20.75 M11.35 -19.7 L11.35 -20.1 Q11.1 -20.45 10.95 -20.1 10.7 -19.65 11.05 -19.6 L11.35 -19.7 M16.55 -22.6 Q16.85 -22.6 16.7 -22.85 L16.4 -22.8 Q16.25 -22.55 16.55 -22.6 M11.05 -23.75 L11.3 -23.9 Q11.3 -24.2 11.05 -24.0 L11.05 -23.75 M11.8 -25.45 Q11.95 -25.2 12.0 -25.55 12.15 -25.85 11.9 -25.7 11.65 -25.55 11.8 -25.45 M11.85 -28.75 Q11.65 -28.95 11.4 -28.75 11.2 -28.5 11.35 -28.4 L11.7 -28.2 11.85 -28.75 M20.5 -24.05 L20.65 -24.2 20.45 -24.25 Q20.35 -24.1 20.5 -24.05 M20.65 -24.65 L21.55 -24.4 Q22.5 -24.5 20.8 -25.45 20.45 -25.5 20.4 -25.15 20.35 -24.8 20.65 -24.65 M22.45 -25.45 L22.05 -25.55 22.25 -25.3 22.45 -25.25 22.45 -25.45 M19.05 -23.35 L18.65 -23.2 Q18.75 -23.05 19.0 -23.1 19.25 -23.2 19.05 -23.35 M17.7 -22.85 L18.45 -23.15 17.7 -23.1 Q17.2 -22.85 17.7 -22.85 M18.45 -24.05 Q18.2 -23.8 18.5 -23.75 18.8 -23.7 18.8 -24.0 L18.7 -24.1 18.45 -24.05 M19.3 -24.55 Q19.25 -24.8 19.05 -24.65 18.9 -24.5 19.05 -24.4 19.3 -24.35 19.3 -24.55 M19.9 -24.65 L19.85 -24.4 Q20.1 -24.2 20.1 -24.55 20.15 -24.85 19.9 -24.65 M19.6 -25.1 L19.6 -25.3 19.4 -25.3 19.4 -25.15 19.6 -25.1 M22.55 -26.9 Q22.45 -26.65 22.75 -26.3 23.05 -25.8 23.6 -26.1 L24.25 -26.3 Q24.5 -26.15 24.6 -26.4 L24.55 -26.7 24.3 -26.7 24.2 -26.65 24.05 -27.25 23.6 -27.65 23.15 -28.15 22.85 -27.55 22.55 -26.9 M21.9 -27.5 Q21.85 -27.35 21.95 -27.3 L22.2 -27.3 22.15 -27.55 21.9 -27.5 M21.9 -30.3 L21.0 -30.25 Q20.35 -29.45 21.3 -29.35 22.0 -29.3 22.05 -29.6 L21.9 -30.3 M22.65 -30.4 L22.85 -30.55 22.65 -30.7 Q22.5 -30.55 22.65 -30.4 M22.25 -32.6 L21.75 -32.55 21.45 -32.2 Q21.4 -32.7 20.85 -31.95 20.45 -31.3 21.15 -30.8 21.55 -30.55 21.7 -31.05 L22.0 -31.75 22.6 -32.25 23.2 -32.9 Q23.6 -33.85 22.25 -32.6 M19.55 -33.8 L19.6 -34.1 19.3 -34.05 Q19.1 -33.85 19.3 -33.8 L19.55 -33.8 M20.8 -35.55 Q21.0 -35.8 20.8 -35.95 L20.4 -35.9 Q20.25 -35.75 20.45 -35.55 L20.8 -35.55 M20.75 -36.15 Q21.05 -36.15 21.05 -36.5 L20.75 -36.8 Q20.45 -36.8 20.5 -36.5 20.5 -36.2 20.75 -36.15 M16.1 -31.5 L15.8 -31.9 Q13.8 -32.8 14.65 -31.8 15.5 -30.85 16.1 -31.5 M22.8 -37.35 L22.55 -37.65 Q22.15 -37.8 22.15 -37.35 22.15 -36.9 22.55 -37.05 L22.8 -37.35 M25.7 -30.15 L25.75 -29.95 26.0 -30.0 25.85 -30.25 25.8 -30.1 25.7 -30.15 M24.2 -30.45 Q23.7 -30.7 23.35 -30.1 23.05 -29.55 23.45 -29.15 24.2 -28.65 24.65 -29.35 25.1 -30.0 24.2 -30.45 M23.4 -34.4 Q23.7 -34.4 23.8 -34.65 23.95 -34.95 23.7 -35.15 23.3 -35.6 23.05 -35.0 22.75 -34.4 23.4 -34.4 M24.2 -37.25 Q23.8 -36.95 24.25 -36.65 24.6 -36.4 24.95 -36.8 25.3 -37.25 24.95 -37.4 L24.2 -37.25 M25.4 -36.05 Q25.25 -35.8 25.4 -35.8 25.6 -35.55 25.6 -35.9 25.6 -36.3 25.4 -36.05 M25.2 -36.3 Q25.25 -36.15 25.4 -36.3 L25.45 -36.45 25.2 -36.5 25.2 -36.3 M10.45 -22.65 Q9.65 -22.35 10.8 -22.3 11.3 -22.9 10.45 -22.65 M9.85 -15.65 Q10.1 -15.5 10.05 -15.8 L9.8 -15.85 Q9.55 -15.75 9.85 -15.65 M10.55 -16.95 L10.55 -17.2 10.4 -17.3 10.4 -17.0 10.55 -16.95 M9.85 -18.3 L9.65 -18.3 Q9.45 -18.0 10.25 -17.45 L9.85 -18.3 M35.4 22.65 Q35.8 22.35 35.3 22.35 34.7 22.4 35.1 22.55 34.95 22.55 34.55 22.15 L33.85 21.85 Q33.65 21.95 33.7 22.15 L33.8 22.6 Q33.75 23.1 34.25 23.4 34.65 23.7 34.95 23.15 L35.4 22.65 M36.35 22.55 L36.4 22.4 36.3 22.4 36.2 22.6 36.35 22.55 M36.5 22.0 L36.2 22.05 Q36.1 22.3 36.4 22.25 36.65 22.25 36.5 22.0 M38.25 20.35 L38.2 20.0 Q37.9 19.7 37.75 20.2 37.55 20.6 38.25 20.35 M40.5 18.5 L40.3 18.55 Q40.05 18.8 40.35 18.85 40.7 18.9 40.6 18.7 L40.5 18.5 M41.6 18.45 L42.3 17.9 Q42.95 16.75 41.8 16.6 41.05 16.4 40.8 16.95 L40.25 17.65 40.0 17.3 Q39.85 17.1 39.65 17.4 39.45 17.8 39.85 17.8 L40.3 17.7 40.55 18.25 Q40.7 18.6 41.0 18.6 L40.9 18.5 41.6 18.45 M48.15 6.0 L48.1 6.15 48.25 6.1 Q48.3 5.8 48.15 6.0 M44.3 12.8 Q44.05 13.15 44.35 13.4 L44.95 13.35 Q45.15 12.95 44.85 12.65 44.55 12.4 44.3 12.8 M45.45 10.3 L45.65 10.25 Q45.75 10.1 45.5 10.2 L45.45 10.3 M46.8 10.0 L46.6 10.2 46.45 10.6 Q46.65 11.4 46.8 10.0 M41.0 5.55 L41.0 5.45 Q40.9 5.3 40.8 5.5 L40.9 5.6 41.0 5.55 M35.3 5.1 Q35.45 4.9 35.6 5.0 35.85 5.15 35.85 4.9 35.9 4.55 35.5 4.8 L35.15 4.0 Q34.95 3.4 34.45 3.5 L34.25 4.95 34.7 5.2 35.3 5.1 M35.6 4.05 Q35.4 4.3 35.75 4.3 36.05 4.3 35.85 4.05 35.8 3.9 35.6 4.05 M36.45 4.2 Q36.75 3.95 36.5 3.75 36.35 3.55 36.15 3.75 L36.05 4.05 Q36.15 4.35 36.45 4.2 M37.35 4.35 Q37.2 4.1 36.95 4.35 36.7 4.6 36.95 4.7 L37.3 4.7 37.35 4.35 M35.6 3.1 Q35.4 3.35 35.6 3.55 L36.0 3.45 36.0 3.15 35.6 3.1 M44.9 5.1 Q45.05 4.85 44.85 4.7 L44.55 5.25 44.9 5.1 M42.6 4.3 L42.8 4.9 Q42.9 5.25 43.45 5.1 L43.75 4.65 Q43.75 4.4 44.35 4.5 L45.5 4.55 47.65 4.6 Q49.05 4.5 49.65 3.9 L49.45 4.35 50.0 4.3 Q49.6 4.35 49.45 4.5 L49.3 4.9 49.1 5.3 Q48.85 5.5 48.7 6.2 L48.4 7.25 Q48.45 6.95 48.15 6.95 47.85 6.95 47.95 7.25 L47.65 7.3 Q47.5 7.5 47.5 7.65 47.5 7.95 47.8 7.95 L48.25 7.85 48.1 8.05 Q47.95 7.95 47.9 8.15 L47.95 8.4 47.95 8.7 47.55 9.15 Q47.25 9.55 47.4 9.6 L45.35 13.75 Q41.7 19.9 37.0 22.8 36.95 22.0 36.3 22.85 L36.0 22.65 35.5 22.7 Q35.25 22.95 35.4 23.25 L35.8 23.55 35.55 23.7 Q35.7 23.5 35.45 23.55 35.25 23.75 35.5 23.8 L33.85 24.95 Q33.95 24.3 33.4 24.75 32.9 25.2 33.55 25.25 L32.6 25.9 32.35 26.4 31.95 26.45 31.6 26.55 Q31.4 26.85 31.5 27.0 L31.3 27.55 30.6 28.5 Q29.95 29.65 29.8 30.7 L28.8 30.5 Q28.45 30.6 28.4 31.1 L28.35 31.8 28.95 32.1 Q29.25 32.25 29.65 31.75 29.7 32.55 30.1 33.55 L30.7 35.3 Q29.3 35.35 27.65 33.6 L28.05 33.65 27.85 33.35 Q27.65 33.15 27.5 33.35 26.4 31.95 26.0 30.35 25.5 28.5 26.25 27.05 25.8 27.55 25.1 29.05 24.3 30.65 24.6 30.85 24.85 30.95 24.35 32.3 L24.0 32.6 Q23.75 32.85 24.05 32.9 L21.45 35.7 Q19.8 37.4 19.65 38.9 18.45 37.7 18.35 37.15 L17.55 36.6 16.7 35.5 Q17.15 35.65 16.95 35.3 16.75 34.95 16.65 35.35 15.7 33.9 15.25 32.4 L15.5 33.0 15.8 33.45 16.65 33.2 Q17.0 32.85 16.6 32.45 L16.35 31.4 16.1 30.9 16.25 30.8 16.05 30.65 16.0 30.85 Q15.8 30.7 15.5 30.85 L15.75 30.3 15.65 29.8 Q15.2 29.65 15.55 29.4 15.7 28.6 15.8 28.5 L16.0 27.85 Q15.95 27.4 15.7 27.75 15.5 28.0 15.1 28.05 L14.2 28.15 14.55 26.5 Q14.45 25.95 14.5 25.1 L14.75 24.05 Q14.85 23.45 14.6 22.95 L15.1 23.15 Q15.35 23.2 15.2 23.45 L15.1 23.9 15.55 24.45 Q15.5 24.95 16.15 25.0 L17.15 25.1 Q16.95 24.95 17.6 24.5 18.2 24.1 18.5 24.05 L18.6 24.5 18.75 24.9 18.75 24.4 Q18.7 23.9 19.2 23.8 L20.85 23.4 21.95 23.1 Q22.75 22.95 22.15 23.45 L21.3 24.2 Q20.5 23.55 20.5 24.5 20.2 24.4 20.1 24.7 19.95 25.0 20.4 25.05 20.75 25.05 20.65 24.7 L21.1 24.75 19.25 27.1 Q19.1 27.15 18.9 28.0 L18.5 29.05 17.9 29.6 Q17.55 29.95 17.6 30.5 L17.9 30.95 18.15 31.3 Q17.9 31.1 17.9 31.5 17.9 32.0 18.15 31.7 18.2 32.85 18.9 34.2 19.8 33.2 20.25 33.05 20.65 33.0 20.85 32.55 L21.3 32.0 Q20.75 31.7 21.65 30.3 L22.85 28.45 24.6 25.2 Q24.9 25.95 25.4 25.1 25.95 24.35 24.9 24.5 L25.5 22.7 27.0 24.3 Q27.95 25.35 27.9 26.15 L28.25 24.65 Q28.45 23.7 28.75 23.15 29.35 22.25 30.85 21.7 L32.3 21.2 33.7 20.5 34.3 19.9 Q34.45 20.25 34.25 20.25 L34.35 20.5 33.55 20.9 34.05 21.5 34.15 21.45 34.45 21.5 34.45 21.7 34.9 21.35 35.7 21.5 36.35 21.4 Q36.1 21.35 36.4 21.2 L36.65 21.1 36.65 20.95 Q36.65 20.8 36.8 20.9 36.75 20.2 37.0 19.95 L36.8 19.85 Q37.0 19.6 36.75 19.6 36.45 19.65 36.35 19.45 37.05 19.3 35.6 18.75 35.85 18.75 35.75 18.55 L35.6 18.55 35.55 18.75 35.4 18.4 35.6 18.45 35.6 18.0 Q35.7 17.7 35.85 17.8 L36.2 18.3 Q36.7 18.75 36.9 18.7 36.6 19.15 36.95 19.6 37.3 20.0 37.65 19.45 37.95 19.05 37.65 18.75 37.4 18.5 37.0 18.6 37.3 18.4 36.9 17.9 L36.6 17.3 37.8 16.9 37.6 16.65 38.1 16.5 Q38.1 17.5 38.35 18.15 L41.7 13.75 42.05 13.7 Q41.9 13.4 42.2 13.15 42.35 13.55 42.8 13.55 42.55 13.95 42.6 14.45 42.65 15.05 43.2 15.15 L43.55 15.3 Q43.8 15.5 43.95 15.3 L44.1 14.75 Q44.3 14.65 43.95 13.65 44.7 12.9 43.25 13.45 L43.45 12.65 Q43.5 12.2 42.95 12.1 L43.85 10.9 Q43.95 11.4 44.1 11.05 44.35 10.7 44.0 10.75 L45.95 8.15 Q46.2 7.9 46.9 7.65 L47.05 7.35 47.25 7.0 Q47.25 7.2 47.4 7.2 L47.6 7.0 Q47.2 6.65 47.8 5.85 L48.85 4.7 45.25 5.5 45.0 5.2 44.65 5.6 42.85 5.9 42.85 5.6 Q42.6 5.75 42.8 5.9 42.6 6.35 41.6 6.1 L40.3 5.9 Q40.25 5.5 39.75 5.6 L39.65 5.7 39.75 5.45 Q40.0 5.1 39.75 4.7 L39.3 4.0 38.65 4.05 Q38.35 4.1 37.9 4.9 37.8 5.55 38.4 5.8 39.05 6.2 39.55 5.8 L39.55 6.1 Q39.7 6.7 38.45 6.2 L38.45 6.4 37.3 6.5 Q36.65 6.6 36.45 6.3 36.3 6.05 36.15 6.2 L36.05 6.6 35.55 6.5 35.7 6.35 Q35.85 5.9 36.15 6.05 L36.65 6.3 Q37.1 6.3 37.1 5.75 37.05 5.5 36.75 5.55 L36.4 5.7 36.3 5.3 35.85 5.15 Q35.25 5.25 35.45 5.9 34.85 6.0 35.2 6.35 L35.4 6.5 33.1 6.45 32.35 6.45 32.45 6.35 Q32.45 6.1 32.25 6.3 L32.25 6.45 31.85 6.45 31.9 6.35 31.9 6.1 31.6 6.15 Q31.5 6.4 31.65 6.45 L29.1 6.35 29.25 6.15 29.0 6.15 29.0 6.3 Q26.35 6.3 27.15 5.55 L27.3 5.8 27.45 5.6 27.15 5.15 27.0 4.95 27.15 4.95 27.25 4.8 Q27.2 4.65 26.85 4.65 26.55 4.65 26.7 4.85 25.95 4.35 25.6 4.25 L25.8 4.1 Q25.25 4.0 24.9 4.3 L24.1 4.85 24.0 4.6 23.6 4.5 Q23.35 4.5 23.3 4.8 23.15 5.1 23.35 5.2 20.75 4.5 18.75 3.5 L19.35 3.1 19.6 3.25 20.05 3.2 Q20.55 2.8 19.1 2.8 L19.6 2.6 19.65 2.5 19.85 2.5 Q20.05 2.35 19.85 2.25 L19.65 2.25 19.65 2.3 19.6 2.0 Q19.7 1.9 20.05 1.75 L20.4 1.55 19.85 0.85 18.8 0.95 18.15 1.1 17.55 1.35 17.2 0.85 16.9 1.05 16.75 1.3 17.1 1.7 16.85 2.25 Q16.55 2.0 16.65 1.75 L16.7 1.25 Q16.55 0.7 15.8 0.75 15.15 0.8 15.05 1.3 9.5 -2.65 6.65 -9.35 L7.1 -9.55 7.45 -9.95 8.0 -9.45 7.85 -9.35 Q7.6 -9.25 7.85 -9.2 L8.05 -9.35 Q9.05 -8.55 10.35 -8.0 L9.85 -9.2 Q9.6 -9.95 9.85 -10.25 8.85 -11.0 8.85 -16.75 8.85 -20.2 9.45 -23.25 L9.8 -23.1 9.65 -24.4 10.55 -27.3 Q11.95 -30.55 13.9 -32.35 15.2 -33.65 18.3 -35.65 21.3 -37.7 22.6 -39.05 22.55 -37.95 23.1 -38.6 23.6 -39.3 23.0 -39.45 27.15 -43.6 27.45 -47.35 27.9 -44.2 26.4 -38.45 26.1 -39.3 25.75 -38.25 25.3 -37.35 26.25 -37.8 25.2 -34.1 24.2 -32.55 27.0 -33.35 29.7 -35.95 29.8 -34.25 28.25 -31.1 28.2 -32.35 27.0 -32.25 25.85 -32.2 26.25 -31.05 26.45 -30.25 27.05 -30.5 L28.1 -30.85 26.0 -27.55 Q29.3 -28.8 32.5 -25.75 L31.0 -25.75 Q30.7 -25.4 29.55 -25.25 L27.9 -25.0 28.1 -25.5 27.95 -26.0 Q27.6 -26.0 27.55 -25.45 27.45 -24.95 27.85 -24.95 L27.35 -25.0 24.55 -24.2 Q22.8 -23.75 21.85 -22.8 L22.6 -22.35 Q23.05 -22.05 22.85 -21.6 22.8 -21.4 23.0 -21.35 L23.35 -21.3 23.9 -21.25 24.3 -20.6 23.9 -21.0 Q23.5 -21.25 23.45 -20.7 23.45 -20.2 24.0 -20.4 24.5 -20.55 24.7 -19.35 L24.85 -17.9 23.35 -18.4 Q23.7 -18.5 23.65 -19.0 23.65 -19.5 23.2 -19.5 22.8 -19.5 22.6 -19.1 22.35 -18.7 22.75 -18.45 L22.2 -18.75 22.3 -19.5 21.45 -19.35 20.75 -18.95 21.05 -18.4 19.2 -17.85 Q17.5 -17.05 16.6 -15.8 14.65 -13.05 16.15 -8.45 15.05 -11.0 14.85 -13.3 14.95 -12.85 14.95 -13.75 L14.85 -14.9 Q14.85 -15.95 15.1 -16.6 L15.35 -16.7 15.5 -16.75 Q15.4 -17.25 15.2 -16.95 L15.55 -17.35 15.95 -17.85 15.5 -17.75 16.45 -19.25 16.9 -19.4 Q17.15 -19.4 17.2 -19.55 L17.25 -19.95 17.5 -20.25 18.7 -21.0 16.45 -21.15 Q15.2 -21.0 14.25 -20.45 L17.85 -24.55 Q18.0 -24.1 18.35 -24.4 18.7 -24.8 18.2 -24.9 L19.9 -26.5 20.65 -27.0 21.4 -27.8 22.2 -28.4 Q22.5 -29.0 22.8 -28.5 L23.3 -29.15 22.3 -29.35 Q22.65 -28.85 21.95 -28.95 L19.5 -28.45 18.4 -28.2 Q17.75 -28.05 17.5 -27.65 L20.4 -32.25 Q21.05 -33.55 21.55 -33.85 21.85 -34.05 21.75 -34.3 L21.7 -34.7 17.9 -31.75 Q18.05 -32.0 17.75 -32.25 L17.3 -32.2 17.25 -31.7 17.75 -31.6 Q16.1 -30.7 15.95 -30.4 15.65 -30.45 15.5 -30.0 L15.25 -29.45 Q14.9 -29.3 14.95 -29.85 L15.1 -30.5 14.75 -30.8 14.35 -31.0 Q13.95 -31.1 13.45 -30.55 13.05 -30.0 13.5 -29.7 14.9 -28.95 14.6 -28.45 14.5 -29.0 13.6 -28.55 12.75 -28.2 13.3 -27.3 13.75 -26.35 12.45 -24.4 L12.15 -22.45 Q11.9 -21.1 11.8 -19.65 L11.6 -17.85 Q11.2 -18.05 10.95 -18.2 L10.95 -17.55 Q11.25 -17.05 11.65 -17.75 11.85 -17.75 11.25 -16.55 11.0 -16.05 11.1 -15.85 11.25 -15.7 11.0 -15.45 L10.75 -15.15 10.95 -15.1 11.2 -14.95 10.85 -14.6 Q10.5 -14.5 10.5 -14.4 L10.75 -14.0 10.8 -13.7 11.35 -13.35 11.3 -13.0 11.05 -12.6 11.5 -12.6 Q11.8 -12.7 11.7 -12.5 L11.4 -12.1 11.0 -11.7 Q10.25 -11.25 10.8 -11.1 L11.05 -11.3 11.1 -11.55 11.3 -11.35 11.2 -11.0 11.05 -11.05 Q10.95 -10.95 11.1 -10.75 L11.35 -10.65 Q11.25 -10.45 10.85 -10.4 10.5 -10.35 10.4 -10.05 10.25 -9.65 11.05 -9.05 L11.05 -9.2 Q11.55 -8.95 11.8 -9.2 11.9 -8.95 11.7 -9.0 11.85 -8.6 12.15 -9.2 L12.25 -9.55 Q12.55 -9.6 12.8 -8.85 L13.15 -7.7 13.6 -6.8 13.3 -6.9 13.3 -7.0 Q13.3 -7.3 13.05 -7.15 12.9 -7.0 13.05 -6.9 L13.15 -6.85 13.0 -6.65 Q12.6 -6.25 12.8 -5.9 13.1 -5.4 13.4 -5.9 13.7 -6.35 13.6 -6.7 L13.8 -6.1 13.65 -5.95 13.45 -5.7 Q13.5 -5.6 13.9 -5.45 L14.35 -5.2 14.8 -4.5 Q14.45 -4.2 14.5 -3.7 14.55 -3.35 14.85 -3.3 L15.5 -3.3 16.7 -2.1 Q15.2 -1.3 16.4 -0.45 17.6 0.4 18.1 -0.8 L20.75 1.25 22.75 1.85 Q24.0 2.15 24.35 2.8 24.8 2.55 25.4 3.05 L26.35 2.95 29.5 3.5 Q29.2 4.0 29.65 3.8 L30.1 3.55 29.05 3.1 Q28.15 2.6 28.25 2.5 28.1 2.75 27.85 2.6 L27.25 2.35 Q28.95 1.45 27.85 1.3 L27.65 1.0 27.6 0.5 27.25 -0.05 Q27.6 0.0 27.35 -0.3 27.15 -0.5 27.05 -0.15 25.6 -1.2 25.55 -1.05 L24.8 -0.4 24.35 0.2 23.9 -0.2 23.65 0.1 24.2 0.4 23.95 0.6 Q23.45 0.95 23.35 0.45 23.2 0.0 23.6 -0.35 23.8 -1.0 23.5 -0.75 23.05 -0.45 23.5 -0.5 L23.15 0.2 22.65 -0.9 22.05 -1.0 Q21.45 -1.0 21.25 -1.25 19.3 -3.6 19.0 -6.95 L20.15 -6.7 20.15 -3.55 Q20.75 -3.9 20.55 -5.05 L20.4 -6.7 20.75 -6.95 Q21.0 -7.1 20.85 -7.3 20.75 -7.6 20.95 -7.6 L21.25 -7.7 21.3 -8.2 21.85 -8.6 Q21.95 -7.15 22.55 -5.9 L23.0 -5.15 23.15 -4.45 Q22.75 -5.1 22.55 -4.0 22.35 -2.85 22.85 -3.0 L23.3 -3.4 23.6 -4.0 24.2 -3.35 24.6 -2.65 Q23.8 -1.35 23.95 -0.8 L24.5 -2.1 Q24.8 -2.55 25.3 -2.25 L26.1 -1.6 Q27.8 -0.4 31.2 1.1 L30.8 1.35 30.5 1.75 Q30.45 2.15 30.7 2.0 L31.0 1.75 Q30.9 2.5 31.75 2.45 32.65 2.45 32.55 1.65 35.6 2.9 38.85 3.65 L40.75 3.9 42.6 4.3" fill="#000000" fill-rule="evenodd" stroke="none"/>
    <path d="M-11.0 14.35 Q-11.1 14.1 -11.4 14.35 -11.65 14.6 -11.4 14.9 L-10.9 14.95 Q-10.75 14.7 -11.0 14.35 M-12.2 14.4 Q-12.3 14.6 -12.05 14.6 -11.8 14.55 -11.95 14.35 L-12.2 14.4 M-12.35 13.4 Q-12.6 13.75 -12.25 13.8 L-11.75 13.7 Q-11.6 13.5 -11.9 13.25 -12.2 13.0 -12.35 13.4 M-12.95 12.5 L-13.1 12.65 -12.85 12.7 Q-12.65 12.55 -12.95 12.5 M-13.05 11.2 L-13.05 11.45 Q-12.8 11.65 -12.8 11.35 -12.8 11.0 -13.05 11.2 M-11.8 12.4 Q-11.7 12.35 -11.75 12.2 -11.9 12.0 -12.0 12.1 L-12.0 12.3 -11.8 12.4 M-9.65 6.35 L-9.5 6.2 Q-9.5 6.0 -9.65 6.1 L-9.65 6.35 M-12.25 6.65 Q-12.6 7.05 -12.1 7.3 -11.75 7.5 -11.45 7.15 -11.15 6.8 -11.45 6.6 L-12.25 6.65 M-12.8 4.7 Q-12.65 4.85 -12.55 4.8 L-12.5 4.6 Q-12.6 4.4 -12.75 4.55 L-12.8 4.7 M-11.35 5.55 L-11.5 5.55 -11.45 5.75 -11.3 5.7 Q-11.2 5.6 -11.35 5.55 M-20.3 24.9 L-20.8 24.9 -20.95 25.3 -20.55 25.25 -20.3 24.9 M-20.5 23.75 Q-20.45 23.3 -20.8 23.5 L-21.1 23.8 -20.85 24.05 Q-20.55 24.15 -20.5 23.75 M-19.95 23.5 Q-20.15 23.25 -20.3 23.5 L-20.15 23.6 -20.3 23.6 -20.15 23.75 -19.95 23.5 M-19.7 23.1 L-19.7 23.3 -19.55 23.3 -19.55 23.15 -19.7 23.1 M-20.85 20.8 L-20.8 20.5 -21.15 20.45 Q-21.45 20.75 -21.1 20.85 L-20.85 20.8 M-22.7 16.1 L-22.8 16.35 -22.4 16.45 -22.7 16.1 M-19.9 17.25 L-19.95 17.35 Q-19.75 17.4 -19.75 17.25 -19.75 17.05 -19.9 17.25 M-20.35 17.55 L-20.65 17.6 -20.45 18.2 -20.3 18.4 -19.25 18.1 -19.9 17.8 -20.35 17.55 M-20.9 17.25 Q-20.75 17.05 -21.05 17.0 -20.95 17.25 -21.15 17.2 L-20.9 17.25 M-22.0 18.0 L-21.95 18.25 -21.75 18.1 Q-21.8 17.85 -22.0 18.0 M-21.35 15.9 L-21.2 16.05 -20.9 16.4 Q-20.55 16.2 -21.35 15.9 M-22.0 14.9 L-22.0 15.05 -21.8 15.0 Q-21.8 14.9 -22.0 14.9 M-14.3 18.85 Q-15.15 18.4 -15.0 19.4 -14.9 20.65 -14.6 20.25 L-14.35 19.55 -14.3 18.85 M-18.85 19.4 Q-18.8 19.0 -19.25 19.05 -19.65 19.05 -19.4 19.45 L-19.1 19.6 Q-18.85 19.6 -18.85 19.4 M-18.25 18.15 Q-18.25 17.9 -18.4 18.3 L-18.35 18.7 -18.25 18.15 M-19.35 17.6 L-19.15 17.35 Q-19.15 17.05 -19.35 17.35 L-19.35 17.6 M-18.0 17.2 Q-18.25 17.35 -18.1 17.55 L-17.8 17.55 -17.8 17.3 Q-17.9 17.1 -18.0 17.2 M-19.45 15.55 Q-19.3 15.65 -19.45 15.0 L-19.6 15.35 -19.45 15.55 M-19.0 16.2 Q-18.75 15.95 -19.05 15.75 -19.35 15.5 -19.6 15.75 -19.85 16.1 -19.55 16.3 L-19.0 16.2 M-18.45 16.4 L-18.4 16.7 -18.0 16.75 Q-17.7 16.75 -17.95 16.5 L-18.45 16.4 M-14.95 17.2 Q-14.55 17.2 -14.85 16.95 L-15.05 16.95 Q-15.3 17.2 -14.95 17.2 M-15.3 17.6 L-15.85 17.55 Q-16.2 17.5 -16.35 17.9 -16.45 18.45 -15.8 18.4 -15.2 18.3 -15.3 17.6 M-16.15 15.9 Q-16.6 16.2 -15.8 16.35 -15.05 16.45 -14.85 16.15 -14.55 15.6 -15.4 15.3 L-16.15 15.9 M-14.95 15.2 Q-14.95 15.55 -14.55 15.65 -14.1 15.75 -13.95 15.45 -13.65 14.85 -14.25 14.65 -14.85 14.45 -14.95 15.2 M-19.4 14.75 L-19.85 14.55 -19.55 14.95 -19.1 15.15 -19.4 14.75 M-15.15 13.35 L-15.0 13.5 Q-14.75 13.45 -14.9 13.25 -15.0 13.1 -15.15 13.35 M-16.15 12.55 Q-15.9 12.55 -16.05 12.4 -16.1 12.25 -16.3 12.4 L-16.15 12.55 M-16.0 11.6 Q-16.3 11.8 -15.9 11.8 -15.55 11.8 -15.75 11.6 L-16.0 11.6 M-14.25 12.9 Q-14.4 12.65 -14.65 12.9 -14.9 13.15 -14.65 13.35 L-14.3 13.35 Q-14.1 13.15 -14.25 12.9 M-17.95 13.65 L-17.7 13.75 -17.65 13.45 -17.85 13.4 -18.0 13.4 -17.95 13.65 M-18.95 14.75 Q-18.95 14.6 -19.05 14.75 L-19.1 14.9 -19.0 14.95 Q-18.85 14.95 -18.95 14.75 M-18.15 13.7 Q-18.25 13.45 -18.45 13.65 -18.65 13.75 -18.4 13.85 L-18.15 13.7 M-17.05 10.6 Q-16.9 10.8 -16.8 10.5 -16.75 10.25 -17.0 10.4 L-17.05 10.6 M-14.75 10.8 L-14.6 10.55 -14.85 10.5 Q-15.0 10.75 -14.75 10.8 M-13.7 9.95 L-13.85 9.95 -14.3 10.0 -14.6 10.25 -14.25 10.7 -13.7 10.6 -13.7 10.3 -13.7 9.95 M-15.8 10.0 Q-16.0 10.2 -15.75 10.25 -15.55 10.3 -15.5 10.15 L-15.55 10.0 -15.8 10.0 M-15.15 10.6 L-15.0 10.45 Q-15.05 10.2 -15.2 10.4 L-15.25 10.5 -15.15 10.6 M-15.85 9.0 Q-15.75 8.65 -16.05 8.5 -16.4 8.4 -16.5 8.7 -16.7 9.05 -16.35 9.15 L-15.85 9.0 M-15.45 7.6 Q-15.9 7.9 -15.7 8.2 L-15.15 8.35 Q-14.75 8.15 -14.9 7.85 -15.0 7.35 -15.45 7.6 M-14.3 8.7 L-14.45 8.7 Q-14.65 8.75 -14.45 8.85 L-14.3 8.85 -14.3 8.7 M-19.7 13.75 L-19.95 13.75 Q-20.15 14.0 -19.95 14.05 L-19.65 13.95 -19.7 13.75 M-21.4 14.85 Q-21.4 14.45 -21.65 14.7 L-21.65 15.0 Q-21.4 15.15 -21.4 14.85 M-22.35 12.65 L-22.1 12.5 -22.2 12.35 -22.35 12.4 Q-22.65 12.55 -22.35 12.65 M-22.65 11.4 Q-23.1 11.35 -23.2 11.7 -23.4 12.1 -22.9 12.1 -22.5 12.2 -22.35 11.8 -22.25 11.4 -22.65 11.4 M-24.9 11.9 Q-24.6 11.75 -24.55 12.1 -23.85 12.35 -24.55 11.5 L-24.85 11.6 -24.9 11.9 M-23.6 10.1 Q-23.9 10.5 -23.5 10.75 -23.15 11.0 -22.85 10.55 -22.6 10.2 -22.95 9.95 -23.4 9.7 -23.6 10.1 M-24.95 9.7 Q-25.15 9.55 -25.3 9.7 -25.5 9.95 -25.3 10.1 L-24.95 10.1 Q-24.75 9.9 -24.95 9.7 M-23.75 8.1 Q-23.45 8.15 -23.5 7.9 L-23.6 7.75 -23.8 7.8 Q-24.05 8.05 -23.75 8.1 M-23.2 7.75 Q-23.2 7.65 -23.4 7.65 L-23.4 7.85 Q-23.2 7.9 -23.2 7.75 M-22.6 5.85 Q-22.6 5.7 -22.8 5.75 L-22.8 6.0 -22.6 5.85 M-24.0 7.45 Q-23.75 6.7 -24.1 6.9 -24.35 7.15 -24.05 7.15 L-24.0 7.45 M-23.5 4.5 L-23.7 4.35 -23.75 4.5 -23.7 4.6 Q-23.5 4.65 -23.5 4.5 M-22.2 2.6 L-22.4 2.6 Q-22.65 2.85 -22.35 2.95 -22.1 3.15 -22.05 2.85 -22.05 2.65 -22.2 2.6 M-16.35 5.9 Q-16.05 6.1 -16.15 5.75 -16.2 5.45 -16.45 5.5 L-16.45 5.75 -16.35 5.9 M-16.45 6.45 L-16.2 6.3 Q-16.2 5.9 -16.45 6.15 -16.65 6.35 -16.45 6.45 M-14.45 5.3 Q-14.85 5.0 -14.95 5.5 L-15.05 6.05 -15.25 5.8 Q-15.45 6.0 -15.3 6.6 L-14.75 7.25 Q-14.05 7.3 -14.05 6.75 -14.0 6.2 -14.6 5.9 L-14.4 5.7 Q-14.35 5.45 -14.45 5.3 M-13.85 4.7 Q-13.85 4.55 -14.0 4.6 -14.25 4.6 -14.0 4.85 L-13.85 4.7 M-14.0 3.05 Q-14.9 2.65 -14.95 3.5 -15.0 4.3 -14.0 4.1 -13.35 4.05 -13.45 3.65 L-14.0 3.05 M-15.4 2.55 Q-15.15 2.65 -15.2 2.45 -15.2 2.2 -15.4 2.35 L-15.4 2.55 M-19.85 -2.35 Q-20.15 -1.8 -19.6 -1.55 -19.1 -1.3 -18.85 -1.85 -18.65 -2.35 -19.05 -2.65 -19.55 -2.85 -19.85 -2.35 M-20.8 -1.3 Q-20.0 -1.65 -20.85 -1.65 -20.45 -1.9 -20.75 -2.4 -20.95 -2.85 -21.35 -2.55 -20.45 -3.95 -19.95 -4.05 -19.35 -2.85 -19.35 -3.15 L-17.9 -2.85 -19.95 0.15 -20.2 -0.05 -20.25 0.2 Q-20.2 0.4 -20.05 0.3 L-20.8 1.65 Q-21.7 0.6 -21.95 1.75 -22.2 3.05 -21.35 2.8 L-21.65 3.1 Q-21.95 3.4 -21.6 3.15 -21.6 4.0 -22.3 5.8 L-22.6 8.7 -22.4 10.3 -21.95 12.7 Q-22.05 14.65 -21.7 14.1 -21.6 13.95 -21.05 15.5 -20.5 17.0 -20.5 17.3 -20.15 15.75 -20.0 11.6 L-19.75 11.8 -19.55 11.65 -18.95 11.75 -18.55 11.8 -17.1 13.0 -16.65 13.45 Q-16.4 13.75 -16.6 14.0 L-17.05 14.65 Q-16.65 14.05 -16.75 13.85 -17.65 14.85 -17.7 14.4 -17.8 14.25 -17.9 14.4 L-17.85 14.6 -17.1 14.4 -17.3 14.85 Q-16.9 15.05 -16.2 13.75 L-16.5 14.55 Q-15.15 12.4 -15.6 12.65 L-15.3 12.25 Q-15.05 11.9 -15.2 11.8 L-15.8 12.6 -16.35 13.5 -16.2 13.5 -16.35 13.75 -17.55 9.65 Q-17.7 8.95 -17.3 8.95 -16.8 9.0 -16.8 8.75 L-16.8 8.45 -16.6 8.35 Q-16.5 8.25 -16.7 8.1 L-16.45 7.8 Q-16.2 7.8 -16.05 7.6 L-16.35 7.3 Q-16.4 6.95 -16.65 6.95 -17.2 7.3 -17.3 7.25 -17.0 6.6 -17.6 6.75 L-18.0 7.15 -18.2 6.2 -18.4 4.9 -17.35 5.2 -17.65 5.45 Q-18.0 5.85 -17.55 5.75 L-17.3 5.5 -16.95 5.4 -16.1 5.25 -15.45 5.15 -15.7 4.5 -15.5 4.7 -15.4 4.55 -15.55 3.95 Q-16.1 3.95 -16.15 3.35 -16.35 2.55 -16.2 1.55 -15.45 0.75 -16.1 0.7 -15.55 -1.65 -13.7 -3.55 L-13.55 -3.25 Q-13.35 -3.7 -13.65 -3.65 L-12.65 -4.3 -11.95 -5.1 -10.75 -5.9 Q-13.05 -4.0 -13.85 -2.2 -14.15 -0.35 -14.6 0.25 L-14.55 0.6 Q-14.35 0.85 -14.45 1.05 -14.75 1.45 -14.4 1.7 L-13.75 2.2 -12.9 3.7 Q-11.05 6.0 -9.05 6.05 -9.8 7.3 -11.15 7.85 L-14.0 8.15 -13.65 9.1 -13.95 9.45 -13.5 9.9 Q-13.05 9.55 -12.95 10.15 L-10.45 13.2 Q-11.45 13.1 -10.5 14.15 -10.0 14.7 -9.85 14.55 -9.6 14.35 -10.1 13.8 -9.55 13.85 -8.65 14.85 L-7.35 16.15 -9.85 16.2 Q-9.6 16.1 -9.8 15.9 L-10.0 15.95 Q-10.2 16.15 -9.95 16.2 -11.45 15.9 -12.55 14.95 -12.45 14.7 -12.75 14.55 L-13.35 14.05 Q-12.9 19.95 -15.0 22.55 L-15.15 21.05 Q-15.3 19.85 -15.6 19.6 L-16.5 18.3 -17.4 16.95 Q-17.5 19.7 -19.6 24.65 L-20.3 26.35 Q-20.85 27.4 -21.45 27.75 L-21.75 28.7 -22.85 30.05 Q-21.7 28.15 -21.7 24.95 -21.5 25.25 -21.5 24.8 -21.6 24.35 -21.7 24.75 L-21.95 22.6 Q-21.6 22.1 -21.6 21.7 L-22.2 20.65 Q-22.6 19.95 -22.2 19.6 -22.1 20.05 -21.8 19.45 -21.5 18.85 -22.0 18.9 -21.8 18.55 -22.1 18.6 L-22.5 18.8 -22.1 19.0 Q-22.55 19.1 -22.95 17.9 L-23.5 16.2 -24.45 13.8 Q-23.7 14.05 -24.15 13.4 -24.65 12.65 -24.65 13.35 -25.3 11.7 -25.45 9.7 L-25.5 7.95 Q-25.5 6.6 -25.15 6.5 -24.75 6.4 -24.85 6.0 L-25.0 5.4 -24.25 2.95 Q-24.05 3.4 -23.6 3.1 -23.25 2.8 -23.2 2.5 -23.45 1.25 -23.3 0.85 -22.9 -0.3 -22.0 -1.05 -21.8 -1.25 -21.65 -2.15 -21.6 -1.7 -21.05 -1.6 -21.5 -0.95 -20.8 -1.3 M-19.9 -1.1 L-19.9 -0.75 -19.55 -0.8 Q-19.4 -1.0 -19.6 -1.1 -19.75 -1.3 -19.9 -1.1 M-20.45 -0.75 Q-20.75 -0.5 -20.45 -0.35 -20.2 -0.2 -20.05 -0.5 L-20.15 -0.75 Q-20.25 -0.95 -20.45 -0.75 M-22.6 -0.3 L-22.65 -0.05 -22.5 0.1 Q-22.3 -0.45 -22.6 -0.3" fill="#000000" fill-rule="evenodd" stroke="none"/>
    <path d="M-16.15 44.85 Q-16.0 44.95 -16.0 44.7 -16.0 44.5 -16.15 44.55 -16.45 44.75 -16.15 44.85 M-5.85 38.6 L-5.6 38.9 Q-5.3 38.95 -5.3 38.65 -5.25 38.35 -5.55 38.35 -5.85 38.3 -5.85 38.6 M-7.5 42.05 L-7.75 42.2 -7.8 42.1 -7.85 42.3 -7.75 42.4 Q-7.55 42.4 -7.5 42.05 M-8.45 42.6 Q-8.35 42.35 -8.5 42.3 L-8.8 42.65 -8.65 42.7 -8.75 43.0 -8.55 42.9 -8.45 42.6 M-12.75 42.8 Q-12.8 42.65 -12.9 42.75 L-12.8 43.0 Q-12.65 42.95 -12.75 42.8 M-12.95 41.25 Q-13.1 41.4 -12.5 41.4 L-12.25 41.3 Q-12.05 41.15 -12.6 41.0 L-12.6 41.25 -12.95 41.25 M-8.85 40.85 L-9.15 40.85 Q-9.4 41.1 -9.1 41.2 -8.75 41.4 -8.75 41.0 L-8.85 40.85 M-9.0 35.4 Q-8.75 35.5 -8.7 35.05 -8.7 34.7 -8.95 34.8 L-9.0 35.4 M-7.55 35.8 Q-7.75 35.7 -7.85 35.9 L-7.85 36.25 -7.5 36.2 Q-7.3 35.9 -7.55 35.8 M-9.55 37.2 Q-9.55 36.85 -9.8 37.1 L-9.8 37.35 Q-9.55 37.5 -9.55 37.2 M-9.9 35.95 L-10.25 35.9 Q-10.5 36.1 -10.15 36.15 -9.7 36.15 -9.9 35.95 M-9.95 35.25 Q-10.1 35.05 -10.2 35.2 -10.45 35.4 -10.15 35.5 -9.85 35.55 -9.95 35.25 M-8.1 35.1 Q-7.9 34.9 -8.25 34.8 L-8.5 34.95 -8.45 35.2 Q-8.25 35.4 -8.1 35.1 M-8.1 33.55 L-7.85 33.65 -8.15 33.3 -8.1 33.55 M-11.05 35.7 Q-11.05 36.25 -10.8 36.2 L-10.8 35.95 -11.05 35.7 M-9.3 33.5 Q-9.15 33.3 -9.5 33.3 -9.8 33.25 -9.6 33.5 -9.4 33.75 -9.3 33.5 M-3.9 35.9 L-4.0 36.15 -3.8 36.45 Q-3.5 36.0 -3.65 35.9 L-3.9 35.9 M-6.75 35.1 Q-6.35 35.2 -6.15 34.75 -6.05 34.35 -6.35 34.05 L-6.75 33.9 -7.0 34.1 -7.35 33.75 Q-7.65 33.6 -7.8 34.1 L-7.9 34.65 Q-7.45 34.75 -6.75 35.1 M-4.5 34.4 Q-4.25 34.15 -4.6 33.75 -5.1 33.2 -5.4 33.95 -5.7 34.8 -5.1 34.7 L-4.5 34.4 M-4.95 34.75 Q-5.7 34.65 -5.2 35.2 -4.8 35.7 -4.8 35.05 L-4.95 34.75 M-6.85 33.2 Q-7.05 33.45 -6.7 33.5 -6.3 33.55 -6.45 33.25 L-6.85 33.2 M-38.05 25.8 Q-38.2 26.1 -37.85 26.15 -38.0 25.9 -37.75 25.75 L-38.05 25.8 M-15.6 44.4 Q-15.45 44.55 -15.45 44.25 L-15.55 44.1 -15.6 44.4 M-16.3 44.65 Q-16.2 44.35 -16.45 44.55 L-16.5 44.8 Q-16.4 44.95 -16.3 44.65 M-15.4 42.7 L-15.9 42.75 Q-16.45 43.1 -16.1 43.5 -15.75 43.85 -15.3 43.1 -15.05 42.8 -15.4 42.7 M-15.25 42.6 Q-15.0 42.65 -15.05 42.4 L-15.2 42.35 -15.3 42.4 -15.25 42.6 M-16.8 43.9 Q-17.2 44.4 -16.9 44.5 L-16.6 44.2 -16.4 43.9 Q-16.45 43.35 -16.8 43.9 M-16.6 41.6 L-16.65 41.9 Q-16.15 42.3 -16.15 42.05 L-16.2 41.8 Q-16.35 41.5 -16.6 41.6 M-17.55 42.4 L-17.4 42.65 -17.2 42.5 -17.25 42.3 Q-17.4 42.2 -17.55 42.4 M-17.35 41.8 Q-17.1 41.6 -17.5 41.1 L-18.1 40.45 Q-18.85 40.15 -19.3 41.1 -19.65 42.0 -18.85 42.35 L-18.0 42.2 -17.35 41.8 M-16.95 41.7 Q-16.75 41.5 -17.1 41.4 L-17.25 41.6 Q-17.1 41.9 -16.95 41.7 M-22.6 41.6 Q-21.95 41.85 -21.8 41.0 -21.7 40.25 -22.4 40.35 -22.9 40.45 -22.95 40.95 -23.0 41.45 -22.6 41.6 M-20.0 41.7 L-19.9 41.55 Q-19.95 41.4 -20.05 41.5 L-20.0 41.7 M-24.4 43.9 L-24.45 43.65 Q-25.0 43.2 -24.85 43.65 -24.65 44.2 -24.4 43.9 M-25.45 42.05 Q-25.05 42.05 -25.05 41.6 -25.0 41.2 -25.45 41.25 -25.75 41.3 -25.75 41.7 L-25.45 42.05 M-23.2 39.25 Q-23.5 39.4 -23.2 39.5 -22.9 39.65 -23.0 39.35 L-23.2 39.25 M-24.25 40.35 L-24.45 40.45 -24.35 40.8 Q-24.15 40.9 -24.1 40.65 -24.0 40.35 -24.25 40.35 M-25.15 38.05 L-25.6 38.75 Q-26.05 39.4 -25.9 39.65 L-25.05 39.75 -24.4 39.15 Q-24.25 38.85 -24.7 38.35 L-25.15 38.05 M-23.9 38.9 L-23.9 38.65 -24.15 38.65 -24.15 38.9 -23.9 38.9 M-22.85 38.15 Q-23.1 38.25 -22.9 38.5 L-22.55 38.45 Q-22.5 38.3 -22.6 38.2 L-22.85 38.15 M-19.6 39.65 Q-20.45 39.85 -20.35 40.0 L-18.8 39.45 -19.6 39.65 M-21.45 37.45 Q-21.8 37.2 -21.9 37.6 L-21.65 38.05 Q-22.05 37.9 -21.95 38.25 L-21.75 38.75 -21.45 38.45 -21.6 38.15 Q-21.35 38.2 -21.2 37.9 -21.15 37.6 -21.45 37.45 M-21.1 35.35 Q-21.35 35.4 -21.15 35.55 L-20.95 35.55 -21.1 35.35 M-20.35 36.15 L-20.15 36.1 Q-20.0 35.9 -20.25 35.95 L-20.35 36.15 M-21.05 36.1 L-21.05 35.9 Q-21.35 35.65 -21.3 35.95 -21.2 36.3 -21.05 36.1 M-22.5 37.15 Q-22.05 37.1 -22.4 36.75 L-23.1 36.7 Q-23.4 37.05 -23.0 37.3 L-22.35 37.35 -22.5 37.15 M-21.75 35.4 L-21.5 35.55 Q-21.4 35.2 -21.65 35.25 L-21.75 35.4 M-21.4 34.6 L-21.6 35.0 -21.35 35.2 Q-20.85 35.1 -21.4 34.6 M-22.3 34.65 L-22.05 34.6 Q-21.95 34.35 -22.2 34.4 -22.4 34.4 -22.3 34.65 M-21.65 34.15 L-21.5 34.2 -21.4 34.05 Q-21.4 33.9 -21.6 33.95 L-21.65 34.15 M-20.05 35.3 Q-19.85 35.0 -20.15 35.1 -19.95 34.95 -20.2 34.45 -20.35 34.05 -20.6 34.35 -21.2 35.0 -20.6 35.25 -20.85 35.3 -20.75 35.6 L-20.5 35.85 Q-20.25 35.95 -20.25 35.4 L-20.05 35.3 M-25.25 34.65 Q-25.25 34.9 -25.5 34.8 -25.75 34.95 -25.65 35.2 L-25.35 35.4 Q-25.05 35.4 -25.25 34.65 M-24.05 36.75 L-23.55 36.8 Q-23.4 36.55 -23.55 36.4 -23.75 36.15 -24.0 36.25 -24.3 36.4 -24.05 36.75 M-19.3 34.2 Q-19.15 34.1 -19.3 33.95 L-19.45 33.95 -19.3 34.2 M-18.85 35.3 L-19.1 35.25 -19.15 35.4 -19.05 35.55 -18.85 35.3 M-16.6 31.55 L-16.65 31.95 -16.35 31.7 Q-16.2 31.3 -16.6 31.55 M-18.7 32.1 Q-18.5 32.0 -18.65 31.85 L-18.8 31.95 Q-18.95 32.15 -18.7 32.1 M-17.8 31.1 L-17.85 30.3 -18.7 30.55 -19.3 30.95 -18.85 31.75 -18.2 31.7 Q-17.8 31.45 -17.8 31.1 M-30.55 38.05 L-30.45 37.9 Q-30.3 37.75 -30.5 37.7 -30.65 37.6 -30.65 37.75 L-30.55 38.05 M-30.6 37.6 Q-30.45 37.45 -30.55 37.3 -30.65 37.15 -30.8 37.3 L-30.8 37.5 -30.6 37.6 M-29.8 38.3 L-30.0 38.25 -30.0 38.45 -29.8 38.45 -29.8 38.3 M-26.25 37.75 L-26.05 37.65 Q-25.9 37.4 -26.15 37.5 -26.4 37.6 -26.25 37.75 M-34.3 34.7 Q-33.85 34.6 -34.05 34.05 -34.15 33.5 -34.6 33.75 -34.95 33.9 -34.9 34.4 -34.75 34.9 -34.3 34.7 M-35.8 33.95 L-35.85 34.25 -35.55 34.35 Q-35.25 34.25 -35.4 33.9 L-35.8 33.95 M-35.9 32.55 L-35.3 32.55 Q-34.9 32.45 -35.25 32.0 L-35.7 31.95 Q-36.05 32.15 -35.9 32.55 M-34.8 33.45 L-35.25 33.5 Q-35.4 33.75 -35.2 33.85 L-34.8 33.85 Q-34.5 33.6 -34.8 33.45 M-31.95 32.15 L-32.3 32.15 Q-32.55 32.3 -32.35 32.55 -32.15 32.75 -31.95 32.55 -31.75 32.35 -31.95 32.15 M-34.35 33.15 Q-33.3 32.65 -34.15 32.1 L-33.9 31.75 Q-33.8 31.5 -34.05 31.25 L-34.9 31.3 Q-35.3 31.95 -34.65 32.15 -35.3 33.55 -34.35 33.15 M-27.4 35.8 Q-27.65 35.4 -27.7 35.9 L-27.7 36.5 Q-27.85 36.9 -27.5 37.15 L-26.7 37.35 Q-25.5 37.2 -26.15 36.1 -26.85 34.95 -27.4 35.8 M-30.05 37.1 L-30.45 37.15 -30.35 37.5 -30.0 37.45 Q-29.8 37.35 -30.05 37.1 M-28.8 35.85 Q-29.4 35.8 -29.35 36.3 -29.2 36.9 -28.7 37.05 -28.15 37.15 -28.2 36.55 -28.3 35.9 -28.8 35.85 M-28.55 30.0 L-28.45 29.8 Q-28.5 29.65 -28.6 29.8 L-28.55 30.0 M-28.7 28.15 L-28.55 28.15 -28.2 28.2 Q-27.85 27.95 -28.7 27.95 L-28.7 28.15 M-28.55 29.2 L-28.5 29.45 Q-28.25 29.6 -28.3 29.35 -28.4 29.1 -28.55 29.2 M-30.55 23.75 Q-30.9 23.6 -30.95 24.1 -31.05 24.6 -30.8 24.65 -30.5 24.7 -30.35 24.3 -30.25 23.85 -30.55 23.75 M-30.55 22.9 L-30.8 22.9 -30.75 23.15 -30.5 23.15 Q-30.45 23.0 -30.55 22.9 M-30.2 22.9 L-29.9 22.65 Q-29.9 22.4 -30.05 22.3 -30.45 22.15 -30.5 22.6 -30.55 23.0 -30.2 22.9 M-26.7 25.2 Q-26.95 25.1 -27.1 25.35 -27.25 25.6 -27.0 25.8 L-26.4 25.25 Q-25.9 25.0 -26.4 24.9 -26.95 24.75 -26.7 25.2 M-26.8 25.8 L-26.75 25.95 -26.55 25.8 Q-26.65 25.6 -26.8 25.8 M-34.6 28.8 Q-34.4 28.6 -34.7 28.3 -35.0 28.05 -35.05 28.35 L-34.6 28.8 M-34.35 27.85 Q-34.45 27.6 -34.65 27.85 L-34.7 28.05 -34.45 28.2 Q-34.15 28.15 -34.35 27.85 M-36.5 26.95 Q-37.6 26.4 -37.7 27.55 -37.95 28.25 -37.65 28.35 L-36.4 28.2 Q-36.15 28.05 -36.2 27.6 -36.25 27.05 -36.5 26.95 M-35.1 26.7 L-34.95 26.7 Q-34.8 26.55 -35.1 26.5 -35.3 26.55 -35.1 26.7 M-37.3 26.05 L-37.45 26.05 -37.45 26.2 -37.35 26.2 -37.3 26.05 M-36.95 25.55 Q-37.0 25.35 -37.1 25.5 L-37.15 25.65 -37.0 25.75 Q-36.85 25.75 -36.95 25.55 M-34.05 25.2 Q-34.35 25.5 -34.0 25.6 -33.7 25.65 -33.75 25.3 -33.8 24.95 -34.05 25.2 M-33.6 25.85 L-34.4 25.9 Q-34.9 26.25 -34.65 26.65 L-33.75 26.7 Q-33.15 26.25 -33.6 25.85 M-33.7 23.7 Q-34.15 23.3 -34.65 23.85 -35.0 24.4 -34.5 24.75 L-33.7 24.65 Q-33.2 24.05 -33.7 23.7 M-31.75 23.0 Q-31.95 23.15 -31.75 23.2 L-31.55 23.15 Q-31.45 22.85 -31.75 23.0 M-33.45 22.1 Q-33.15 22.4 -33.15 22.0 -33.15 21.55 -33.45 21.85 L-33.45 22.1 M-28.3 19.0 Q-28.4 18.75 -28.5 18.85 L-28.55 19.05 -28.3 19.0 M-29.15 20.55 L-29.0 20.65 Q-28.85 20.55 -29.1 20.5 L-29.3 20.65 Q-29.05 20.8 -29.15 20.55 M-31.5 20.55 Q-31.75 20.8 -31.5 20.85 -31.2 20.95 -31.2 20.65 -31.35 20.35 -31.5 20.55 M-29.3 19.0 Q-29.65 19.05 -29.7 19.55 L-29.4 20.2 Q-29.05 20.5 -28.6 20.0 -28.2 19.55 -28.45 19.4 -28.85 18.85 -29.3 19.0 M-29.5 18.45 L-29.9 18.5 Q-30.15 18.8 -29.75 19.0 -29.4 19.1 -29.35 18.75 L-29.5 18.45 M-30.65 17.95 Q-30.9 18.25 -30.55 18.4 -30.2 18.55 -30.15 18.2 -30.0 17.95 -30.25 17.85 -30.5 17.7 -30.65 17.95 M-17.05 29.4 L-16.75 29.45 Q-16.6 29.35 -16.7 29.05 -16.8 28.9 -17.0 29.05 -17.25 29.2 -17.05 29.4 M-46.9 30.2 Q-47.15 30.5 -46.8 30.5 -46.45 30.5 -46.55 30.2 L-46.75 30.0 -46.9 30.2 M-41.6 33.65 Q-41.15 34.15 -40.95 33.5 -40.8 32.9 -41.6 33.65 M-39.7 33.55 Q-39.9 33.6 -39.8 33.8 L-39.5 33.85 -39.45 33.6 -39.7 33.55 M-43.25 32.4 L-43.05 32.15 Q-43.05 31.95 -43.3 32.1 L-43.25 32.4 M-43.45 32.95 Q-43.45 32.65 -43.65 32.75 L-43.65 32.95 Q-43.5 33.15 -43.45 32.95 M-42.85 31.85 Q-43.15 32.15 -42.9 32.45 -42.55 32.9 -42.15 32.45 -41.75 32.1 -42.25 31.8 L-42.85 31.85 M-42.0 31.45 Q-42.15 31.7 -41.95 31.65 -41.7 31.55 -41.85 31.45 L-42.0 31.45 M-40.25 28.7 Q-40.35 28.25 -40.55 28.5 L-40.5 28.75 -40.25 28.7 M-39.75 29.2 L-40.05 29.6 -39.9 30.1 -39.35 30.0 Q-39.05 29.75 -39.3 29.5 L-39.65 29.45 Q-39.5 29.15 -39.75 29.2 M-40.5 27.75 L-40.7 27.9 Q-40.85 28.05 -40.6 28.15 L-40.35 27.95 -40.5 27.75 M-39.05 26.35 Q-38.75 26.45 -38.8 26.15 -38.85 25.85 -39.1 26.05 L-39.05 26.35 M-42.75 27.35 Q-42.55 27.35 -42.65 27.1 -42.95 27.0 -42.95 27.25 -43.0 27.4 -42.75 27.35 M-43.25 27.9 L-43.2 28.15 -42.95 27.95 -43.0 27.75 -43.25 27.9 M-44.4 26.85 L-44.25 27.0 Q-44.05 26.95 -44.2 26.8 L-44.4 26.85 M-40.1 21.35 L-40.1 21.5 -39.95 21.5 Q-39.8 21.4 -39.95 21.25 -40.05 21.1 -40.1 21.35 M-40.05 22.1 Q-39.65 22.1 -39.8 21.8 -39.95 21.45 -40.2 21.8 -40.4 22.1 -40.05 22.1 M-40.8 21.65 L-40.85 21.95 -40.6 21.75 -40.8 21.65 M-26.75 13.85 Q-26.5 13.5 -26.5 14.1 -26.5 14.65 -26.75 14.85 L-27.2 16.75 -28.15 16.4 -28.75 16.75 -29.0 17.4 Q-29.75 17.05 -29.4 17.55 -29.0 18.1 -28.9 17.65 L-28.2 18.25 -27.65 18.3 Q-29.45 23.55 -30.95 25.55 -30.8 25.1 -31.35 24.9 -31.85 24.6 -32.25 24.9 L-32.7 25.0 -33.0 25.3 Q-32.7 25.9 -32.65 25.55 L-32.85 26.15 -32.85 26.7 -32.45 26.1 Q-32.4 26.5 -31.95 26.5 L-32.95 27.05 -32.1 27.15 Q-32.55 27.85 -31.85 27.95 L-31.1 27.95 -31.15 27.55 -31.2 27.05 -30.35 26.45 -29.4 26.05 Q-30.2 27.25 -28.8 26.8 -27.5 26.4 -29.3 25.9 -26.85 24.45 -24.45 22.25 -24.4 22.95 -26.75 28.3 L-27.0 28.25 -27.9 29.05 -28.25 29.9 -28.85 30.5 Q-29.35 30.65 -29.2 31.2 L-28.9 32.1 -28.5 34.15 Q-27.95 33.95 -27.55 34.4 -27.05 34.9 -26.45 34.75 L-25.5 34.5 -24.6 34.4 -23.75 33.9 -22.95 33.25 -21.05 31.85 -20.15 30.95 -19.85 31.15 -19.4 31.0 -19.7 30.9 -20.05 30.9 Q-17.9 28.55 -17.2 26.8 -15.2 30.1 -16.1 30.35 -16.4 29.5 -16.6 30.1 L-16.65 30.5 -16.7 30.4 Q-17.1 30.25 -17.4 30.7 -17.7 31.2 -17.35 31.45 -16.8 31.75 -16.5 31.2 -16.3 30.85 -16.45 30.6 L-16.3 30.5 Q-15.75 30.05 -16.35 32.1 L-17.5 33.45 Q-18.25 34.1 -18.45 34.8 L-18.1 34.9 -19.4 36.1 Q-20.55 37.1 -20.5 37.4 -20.35 38.0 -19.15 38.6 L-18.45 38.95 Q-17.85 39.1 -18.35 39.25 L-17.35 39.45 Q-16.65 39.55 -16.6 40.05 -16.4 39.75 -15.7 40.05 L-14.7 40.55 -11.8 41.0 Q-12.25 41.5 -11.65 41.4 -11.0 41.25 -11.45 40.95 -9.9 40.9 -8.45 40.0 -7.05 39.1 -6.3 37.7 -5.9 37.1 -5.9 36.45 -6.0 35.7 -6.55 35.35 -7.05 35.3 -7.25 35.9 L-7.6 37.0 Q-8.05 37.5 -8.95 37.7 -9.8 37.9 -10.5 37.7 L-11.35 37.3 -11.8 36.85 Q-12.35 35.9 -11.95 34.6 -11.45 33.25 -10.55 32.9 -10.45 33.5 -10.1 33.15 -9.8 32.75 -9.95 32.55 -8.65 32.0 -7.15 32.15 -4.35 32.55 -3.65 35.55 -3.05 38.35 -4.7 40.7 L-5.7 41.8 Q-5.9 41.4 -6.3 41.5 -6.65 41.7 -6.6 42.1 -6.45 42.7 -8.35 43.0 L-7.8 42.45 -8.2 42.8 -7.95 42.1 -8.45 43.0 Q-8.65 43.25 -9.35 43.3 L-10.25 43.4 -14.25 43.5 Q-13.1 46.9 -12.1 47.4 L-14.4 46.55 -14.75 46.3 -15.0 46.05 -17.0 45.35 Q-20.75 43.25 -21.05 41.45 L-21.7 43.5 Q-21.75 43.05 -22.3 42.95 L-22.9 42.75 -23.0 42.1 -23.45 41.6 Q-24.15 41.1 -24.65 41.75 -25.2 42.4 -24.65 43.0 L-24.25 43.8 -24.25 44.7 -26.4 41.5 Q-27.4 39.45 -27.0 37.75 L-29.4 40.6 Q-31.25 42.4 -32.6 42.15 L-32.0 41.15 -31.7 41.1 Q-31.5 41.15 -31.5 41.0 L-31.25 40.45 Q-31.25 40.1 -31.65 40.1 -30.9 38.2 -30.75 36.25 L-30.35 36.5 -30.0 36.5 Q-29.8 36.3 -29.95 35.9 L-29.6 36.55 Q-29.75 36.5 -29.9 36.7 L-29.5 36.75 Q-29.15 36.4 -29.5 36.25 -29.9 34.2 -30.65 34.6 L-30.55 33.85 Q-30.5 33.5 -30.95 33.25 -31.4 33.05 -31.55 33.45 L-32.0 33.95 Q-33.9 34.8 -36.25 35.0 -42.6 35.7 -45.9 32.45 L-46.5 31.8 -46.85 31.1 -46.85 30.65 Q-47.0 30.5 -47.2 30.65 -48.35 28.9 -49.15 26.4 L-49.65 24.3 -49.7 22.9 -50.0 21.65 Q-50.05 20.55 -49.75 20.15 -48.65 24.5 -46.2 27.65 -43.25 31.4 -39.45 31.7 -39.95 32.45 -39.0 32.85 -38.05 33.15 -37.9 32.1 -38.15 31.4 -37.35 31.55 L-36.2 31.25 Q-35.6 31.15 -34.5 30.65 L-36.95 30.6 -39.3 30.25 Q-39.1 30.2 -39.3 30.05 L-40.0 30.1 -41.0 29.8 -42.45 29.2 Q-44.1 28.35 -45.0 26.95 -44.45 27.0 -44.75 26.45 -45.05 25.9 -45.3 26.45 L-45.95 25.05 Q-44.55 26.95 -41.15 27.3 L-39.2 27.55 -38.6 27.25 Q-38.9 27.65 -38.5 27.35 L-38.0 27.05 Q-40.25 26.45 -40.95 23.1 -41.45 20.0 -40.85 19.05 -39.45 22.85 -36.7 23.0 L-35.3 22.95 Q-35.2 23.3 -35.1 22.95 -35.0 22.6 -35.3 22.9 L-34.3 21.85 Q-33.4 21.35 -33.7 21.2 L-33.0 20.8 Q-32.6 20.5 -32.85 20.35 L-31.95 19.35 -31.75 19.15 -31.5 19.1 -31.05 18.2 -30.25 17.6 Q-29.95 17.65 -29.8 17.35 -29.65 17.05 -30.0 17.0 L-29.05 16.1 -28.75 15.65 -28.55 15.3 Q-28.7 16.05 -28.15 15.5 -27.6 15.0 -28.25 14.95 L-27.6 14.1 Q-27.1 13.5 -26.75 13.85" fill="#000000" fill-rule="evenodd" stroke="none"/>
    <path d="M21.05 -11.55 L21.0 -11.8 22.0 -11.6 Q21.75 -10.25 21.85 -8.85 21.55 -9.85 20.65 -9.45 L21.05 -11.55" fill="#000000" fill-rule="evenodd" stroke="none"/>
    <path d="M20.15 -12.25 L20.65 -12.9 Q20.85 -12.3 20.15 -11.6 19.85 -11.35 20.15 -11.1 L20.5 -10.65 Q20.5 -9.25 20.25 -9.2 19.4 -9.35 19.2 -8.95 L19.05 -9.05 19.3 -9.85 19.1 -9.65 Q19.35 -11.3 20.15 -12.25" fill="#000000" fill-rule="evenodd" stroke="none"/>
    <path d="M11.65 26.65 L11.85 26.45 11.6 26.45 Q11.35 26.55 11.65 26.65 M12.8 27.85 Q12.75 27.65 12.55 27.75 L12.6 28.0 12.85 28.05 12.8 27.85 M13.2 25.9 Q13.05 25.75 12.9 25.9 12.75 26.15 12.9 26.25 L13.2 26.2 13.2 25.9 M10.25 29.35 L10.25 29.2 10.15 29.05 Q9.95 29.0 9.85 29.15 9.75 29.4 9.95 29.45 9.0 29.95 8.4 30.6 8.7 29.2 9.8 27.65 11.0 25.95 12.2 25.55 12.75 25.45 12.75 25.2 L12.55 24.65 Q12.5 24.35 13.4 23.55 L14.5 22.65 14.3 24.9 Q14.0 25.55 14.0 27.85 L13.75 28.0 Q13.6 28.25 13.95 28.2 11.7 28.6 10.25 29.35" fill="#000000" fill-rule="evenodd" stroke="none"/>
    <path d="M18.9 9.45 Q19.0 8.95 18.75 8.75 18.95 8.45 18.15 8.85 17.85 9.4 18.45 9.85 L18.9 9.45 M17.8 10.3 Q18.05 10.3 17.9 10.1 17.8 9.75 17.6 10.0 L17.6 10.2 17.8 10.3 M19.8 8.7 Q19.6 8.85 19.8 8.95 L19.95 8.8 Q19.9 8.55 19.8 8.7 M21.85 9.85 L21.95 9.9 22.05 9.7 Q22.0 9.55 21.9 9.7 L21.85 9.85 M21.75 8.7 Q22.35 8.85 22.3 9.25 L22.2 10.15 21.95 11.0 Q22.15 10.25 21.35 10.3 20.55 10.4 20.8 11.1 L16.95 10.15 17.25 9.9 17.25 9.55 Q17.2 9.35 17.4 9.35 L17.7 9.35 17.6 9.05 17.7 8.7 Q17.8 8.55 18.2 8.45 L18.7 8.45 19.1 8.2 19.85 8.25 20.75 8.5 21.75 8.7" fill="#000000" fill-rule="evenodd" stroke="none"/>
    <path d="M-12.85 -10.55 Q-12.35 -9.9 -12.9 -10.5 L-12.85 -10.55 -13.1 -10.95 Q-13.45 -11.45 -13.65 -11.25 L-13.55 -10.95 -13.35 -10.85 -12.95 -10.65 -12.9 -10.5 -13.45 -10.05 -13.35 -9.0 -13.05 -7.9 -12.65 -8.05 Q-14.75 -6.6 -16.4 -4.65 L-16.4 -5.1 -16.8 -5.2 -16.95 -4.75 Q-16.8 -4.35 -16.5 -4.55 L-16.7 -4.3 Q-17.1 -4.3 -17.4 -4.6 L-17.6 -4.8 -17.85 -4.75 -18.85 -5.2 -19.6 -4.95 -18.4 -6.35 Q-18.45 -5.95 -18.2 -6.25 -17.95 -6.55 -18.25 -6.5 -16.35 -8.55 -14.95 -9.35 L-20.35 -8.95 Q-16.8 -11.65 -13.05 -12.45 -8.55 -13.4 -5.2 -11.3 L-7.55 -11.05 Q-8.85 -10.8 -9.8 -10.35 L-10.7 -11.1 -11.8 -11.8 -12.85 -10.55 M-11.5 -11.85 Q-11.3 -11.7 -11.35 -12.0 -11.4 -12.25 -11.6 -12.1 L-11.5 -11.85 M-16.6 -5.6 L-16.65 -5.4 -16.5 -5.35 -16.6 -5.6 M-16.7 -7.1 Q-16.9 -6.9 -16.6 -6.9 -16.2 -6.85 -16.4 -7.1 L-16.5 -6.9 -16.45 -7.15 -16.65 -7.1 -16.7 -7.1" fill="#000000" fill-rule="evenodd" stroke="none"/>
    <path d="M15.35 7.05 L15.5 7.0 15.4 6.9 Q15.05 7.05 15.35 7.05 M13.5 6.0 L13.65 6.1 13.7 5.9 Q13.65 5.75 13.6 5.85 L13.5 6.0 M11.8 2.55 Q11.95 2.85 12.75 3.15 L15.85 6.65 Q15.75 6.75 16.4 7.05 L17.25 7.45 16.35 7.75 Q15.75 7.8 15.55 8.05 15.25 7.95 15.2 8.45 L14.95 9.0 Q14.5 9.15 14.75 8.15 L14.5 7.75 14.2 7.5 14.8 7.2 14.25 6.75 Q13.95 6.75 14.0 7.15 L13.9 7.5 13.7 6.95 13.7 6.35 13.35 6.0 12.9 6.0 12.7 5.25 Q12.45 5.55 12.3 5.45 12.2 5.3 12.25 5.0 L12.25 4.65 11.85 4.6 11.6 4.5 11.0 4.65 10.75 4.4 Q10.55 4.3 10.65 4.0 L10.45 4.3 10.15 4.4 Q9.9 4.1 10.1 3.15 10.1 2.65 9.65 2.95 L9.65 3.2 9.85 3.4 9.55 3.45 9.35 3.1 9.35 3.15 9.45 3.05 9.5 3.1 9.25 2.95 9.0 3.05 Q9.55 1.65 9.0 1.75 L9.75 1.15 9.65 0.6 Q11.35 1.7 11.8 2.55" fill="#000000" fill-rule="evenodd" stroke="none"/>
    <path d="M11.9 18.8 Q11.7 19.0 11.9 19.05 L12.1 18.85 Q12.1 18.6 11.9 18.8 M12.9 17.55 L13.05 17.4 Q13.05 17.2 12.9 17.3 12.7 17.4 12.9 17.55 M13.95 17.7 L13.9 17.85 14.0 17.95 13.95 17.7 M13.75 17.05 L13.65 17.0 Q13.5 17.25 13.65 17.25 L13.75 17.05 M14.25 16.15 Q14.05 16.35 14.3 16.4 L14.5 16.2 14.35 16.1 14.25 16.15 M15.15 15.65 L14.8 15.55 Q14.55 15.65 14.6 15.95 14.65 16.3 14.95 16.15 15.35 16.05 15.15 15.65 M15.4 15.15 L15.25 15.15 Q15.1 15.3 15.25 15.35 L15.5 15.25 15.4 15.15 M16.65 16.65 Q16.55 16.5 16.4 16.65 16.15 16.9 16.45 17.0 16.75 17.2 16.75 16.9 L16.65 16.65 M22.25 19.45 Q22.05 19.1 21.7 19.35 21.4 19.6 21.65 19.95 L22.15 20.0 22.25 19.45 M17.55 20.85 L17.7 20.75 17.55 20.6 17.5 20.75 17.55 20.85 M18.7 21.7 Q18.35 21.45 18.2 21.85 18.1 22.35 18.45 22.4 L18.8 22.1 Q18.95 21.75 18.7 21.7 M19.65 19.25 Q19.1 19.25 18.95 20.05 18.75 20.55 19.35 20.95 20.25 21.4 20.8 20.6 L20.75 19.9 20.35 19.1 19.65 19.25 M19.0 16.05 Q18.75 16.35 19.05 16.6 L19.65 16.5 Q19.85 16.2 19.55 15.9 19.25 15.65 19.0 16.05 M18.7 15.6 L18.8 15.75 19.2 15.65 19.1 15.3 Q18.95 15.15 18.75 15.3 L18.7 15.5 18.65 15.45 Q18.65 15.15 18.4 15.35 18.15 15.6 18.45 15.65 L18.7 15.6 M18.8 15.15 Q19.1 15.2 19.0 14.9 L18.75 14.85 Q18.45 15.0 18.8 15.15 M22.25 17.6 L22.15 17.5 21.9 17.55 Q21.75 17.8 22.0 17.8 L22.25 17.6 M22.15 17.2 Q22.0 17.3 22.15 17.4 22.35 17.55 22.35 17.25 22.35 16.95 22.15 17.2 M22.75 16.95 L22.9 17.0 22.9 16.75 22.75 16.65 22.75 16.95 M20.65 17.85 Q20.85 17.95 20.85 17.7 20.85 17.4 20.7 17.6 20.5 17.6 20.65 17.85 M25.4 16.4 L25.25 16.6 Q25.45 16.75 25.5 16.5 L25.4 16.4 M26.75 17.7 L26.65 17.6 26.45 17.6 Q26.3 17.85 26.55 17.9 L26.75 17.7 M26.4 16.15 Q26.55 15.85 26.3 15.65 L25.8 15.75 Q25.45 16.05 25.85 16.3 26.3 16.5 26.4 16.15 M28.45 15.6 L28.75 15.3 Q28.75 15.0 28.45 15.05 28.1 15.05 28.15 15.3 L28.45 15.6 M29.4 15.8 L29.55 15.5 Q29.4 15.25 29.2 15.35 28.95 15.5 29.1 15.75 L29.4 15.8 M-4.0 19.3 L-3.7 19.6 Q-3.4 19.65 -3.4 19.35 -3.4 19.05 -3.7 19.05 -3.95 19.0 -4.0 19.3 M-2.45 19.15 L-2.35 18.9 -2.6 18.85 -2.65 19.1 -2.45 19.15 M-2.2 18.7 L-2.15 18.85 -2.0 18.7 Q-2.0 18.5 -2.2 18.7 M-6.3 18.9 Q-5.9 19.15 -5.85 18.75 -5.8 18.3 -6.15 18.45 L-6.4 18.7 -6.3 18.9 M-6.65 20.15 L-6.95 20.35 -6.7 20.65 Q-6.4 20.75 -6.4 20.45 -6.35 20.2 -6.65 20.15 M-5.3 20.3 Q-5.45 19.95 -5.7 20.3 L-5.55 20.55 Q-5.2 20.65 -5.3 20.3 M-5.6 19.25 L-5.8 19.3 Q-6.05 19.55 -5.75 19.6 -5.45 19.65 -5.45 19.35 L-5.6 19.25 M-4.65 17.9 Q-5.15 18.1 -4.95 18.4 L-4.6 18.8 Q-4.25 18.9 -4.25 18.4 -4.2 17.85 -4.65 17.9 M-1.75 16.1 Q-2.2 15.3 -3.05 15.5 -3.9 15.65 -3.95 16.5 -4.0 17.1 -3.35 17.25 L-2.35 17.35 Q-2.5 17.95 -1.9 18.0 -1.3 18.1 -1.25 17.5 -1.1 17.1 -1.65 16.9 L-1.6 16.5 -1.75 16.1 M3.6 18.9 Q3.9 18.9 3.7 18.7 3.65 18.5 3.45 18.7 3.3 18.9 3.6 18.9 M1.3 18.25 L1.4 18.15 1.25 18.1 Q1.0 18.2 1.3 18.25 M0.9 17.05 Q0.7 17.7 1.4 17.7 2.15 17.8 2.0 17.05 1.95 16.65 1.5 16.65 1.0 16.65 0.9 17.05 M0.1 17.4 L-0.25 17.6 -0.5 17.95 Q-0.5 18.5 -0.2 18.3 L0.15 18.4 0.3 18.1 0.3 17.7 0.1 17.4 M0.2 16.95 L0.1 17.2 0.45 17.2 Q0.7 17.0 0.45 16.9 L0.2 16.95 M-0.75 18.1 Q-0.75 17.8 -1.05 17.9 -1.3 18.0 -1.05 18.2 -0.75 18.4 -0.75 18.1 M0.0 16.6 Q-0.1 16.2 -0.4 16.5 -0.65 16.8 -0.25 16.8 0.1 16.9 0.0 16.6 M2.55 17.4 Q2.45 17.55 2.65 17.65 L2.8 17.5 Q2.75 17.25 2.55 17.4 M9.2 19.05 L8.75 19.0 Q8.45 19.25 8.65 19.45 8.85 19.7 8.95 19.55 L9.15 19.3 9.15 19.4 9.2 19.05 M6.5 19.05 L6.65 19.1 6.8 18.9 6.65 18.85 6.5 19.05 M7.3 19.05 Q7.15 19.15 7.3 19.3 L7.55 19.3 7.55 19.05 Q7.45 18.9 7.3 19.05 M7.0 18.3 Q7.2 18.0 6.85 17.9 6.5 17.8 6.5 18.15 L6.7 18.45 7.0 18.3 M5.1 18.3 L5.25 18.5 5.6 18.5 Q6.0 18.2 5.6 18.1 5.05 17.95 5.2 18.2 L4.85 17.4 4.35 16.6 Q3.95 16.4 3.65 17.5 3.35 18.55 4.3 18.75 L4.8 18.6 5.1 18.3 M5.05 16.8 Q4.8 17.0 4.95 17.1 L5.25 17.05 5.25 16.8 5.05 16.8 M5.95 16.35 Q5.95 16.7 6.25 16.5 L6.3 16.05 5.95 15.6 Q5.5 15.55 5.65 15.8 L6.0 16.15 Q5.8 16.2 5.95 16.35 M6.8 16.65 L6.5 16.7 Q6.25 16.95 6.5 17.05 6.8 17.25 6.85 16.95 L6.8 16.65 M8.75 17.55 L8.75 17.25 8.45 17.3 Q8.35 17.5 8.55 17.6 L8.75 17.55 M9.25 16.4 L9.25 16.2 9.05 16.15 Q8.9 16.2 9.0 16.4 9.2 16.6 9.25 16.4 M9.3 15.2 L9.3 15.3 9.45 15.45 9.3 15.15 Q9.2 14.95 9.15 15.25 L9.15 15.0 9.05 15.2 Q8.95 15.35 9.2 15.5 9.05 15.3 9.3 15.2 M8.7 13.4 Q8.7 13.15 8.55 13.35 8.35 13.5 8.55 13.55 L8.7 13.4 M8.65 14.6 L8.45 14.25 8.15 13.95 Q7.85 13.55 7.4 14.3 6.95 14.95 7.7 15.25 L8.35 15.2 Q8.7 15.0 8.65 14.6 M7.1 8.1 L6.85 8.05 6.7 8.25 Q6.8 8.4 7.0 8.35 L7.1 8.1 M2.75 14.4 L3.1 14.05 Q3.1 13.7 2.75 13.65 2.3 13.55 2.3 14.0 2.3 14.4 2.75 14.4 M-0.75 12.7 Q-0.55 12.95 -0.5 12.6 -0.45 12.3 -0.7 12.4 L-0.75 12.7 M1.2 12.25 L0.95 12.3 Q0.7 12.5 1.0 12.5 1.3 12.5 1.2 12.25 M4.15 5.25 Q3.75 5.85 4.15 5.6 5.8 5.45 4.85 5.0 4.45 4.8 4.15 5.25 M3.75 4.65 L3.3 4.7 Q3.1 5.1 3.3 5.4 3.45 5.75 3.75 5.3 4.05 4.95 3.75 4.65 M2.7 4.35 L2.85 4.25 2.7 4.1 Q2.55 4.25 2.7 4.35 M1.35 3.1 L1.55 2.95 1.4 2.8 1.35 3.1 M1.65 1.1 Q1.55 1.25 1.7 1.25 L1.9 1.1 1.8 1.05 1.65 1.1 M1.8 1.45 L1.55 1.55 1.0 1.6 Q0.65 1.7 0.8 2.25 L1.35 2.2 1.8 1.45 M2.1 3.55 Q2.45 3.7 2.5 3.35 L2.3 3.15 2.0 3.15 Q1.8 3.45 2.1 3.55 M4.35 0.4 L4.5 0.55 Q4.8 0.75 4.75 0.4 4.65 0.0 4.45 0.15 L4.35 0.4 M7.5 2.2 L7.75 2.25 Q8.0 2.15 7.8 1.9 7.55 1.65 7.45 1.9 L7.5 2.2 M6.1 2.6 Q6.35 2.65 6.3 2.45 6.25 2.25 6.1 2.35 5.9 2.6 6.1 2.6 M5.05 2.35 Q5.6 2.45 5.4 1.95 5.35 1.75 5.15 1.75 4.95 1.75 4.85 1.9 4.5 2.3 5.05 2.35 M5.4 2.9 L5.75 2.85 Q6.0 2.55 5.75 2.35 5.6 2.25 5.4 2.55 5.25 2.8 5.4 2.9 M7.55 1.05 L7.75 1.0 Q7.8 0.7 7.55 0.85 L7.55 1.05 M-3.4 12.65 Q-3.15 12.85 -3.05 12.55 -2.95 12.4 -3.1 12.3 L-3.4 12.25 Q-3.7 12.5 -3.4 12.65 M-3.4 11.9 Q-3.15 12.0 -3.2 11.7 -3.2 11.35 -3.4 11.65 L-3.4 11.9 M-2.55 12.3 Q-2.35 12.2 -2.5 11.95 L-2.85 11.9 -2.85 12.25 -2.55 12.3 M-4.85 11.6 Q-5.0 11.15 -5.4 11.5 -5.75 11.9 -5.25 12.05 L-4.9 11.9 -4.85 11.6 M-5.25 10.4 Q-5.75 10.0 -6.3 10.4 L-7.0 11.2 Q-7.65 12.1 -5.9 11.6 -4.35 11.1 -5.25 10.4 M-6.7 9.45 L-6.55 9.4 Q-6.55 9.15 -6.65 9.3 -6.9 9.3 -6.7 9.45 M-6.45 8.5 L-6.55 9.0 -6.4 9.55 Q-6.15 9.45 -6.45 8.5 M-5.3 8.25 L-5.5 8.15 -5.75 8.35 -5.3 8.25 M-2.0 10.4 Q-2.3 10.2 -2.65 10.55 -2.95 10.85 -3.1 10.75 -3.15 10.25 -3.4 10.1 -3.9 9.75 -4.4 10.55 -4.95 11.35 -4.0 11.4 -4.5 12.1 -3.75 11.75 -2.95 11.4 -3.8 11.4 L-3.6 11.05 -3.2 11.5 Q-2.9 11.65 -2.8 11.3 -2.35 11.8 -1.9 11.3 -1.4 10.7 -2.0 10.4 M-7.5 10.5 L-7.55 10.6 -7.45 10.7 -7.35 10.5 -7.5 10.5 M-7.95 8.15 L-8.25 8.1 -8.35 8.45 -8.05 8.45 Q-7.85 8.35 -7.95 8.15 M-7.5 2.35 Q-7.95 1.95 -7.85 2.35 -7.75 2.85 -7.45 2.6 -7.3 2.5 -7.5 2.35 M-7.65 1.85 Q-7.55 2.05 -7.45 1.75 -7.35 1.4 -7.6 1.65 -7.85 1.65 -7.65 1.85 M-1.7 5.7 Q-2.15 5.55 -2.15 6.0 -2.15 6.45 -1.7 6.3 L-1.55 6.0 Q-1.45 5.75 -1.7 5.7 M-3.45 7.35 L-3.9 7.45 -3.8 7.8 -3.45 7.8 Q-3.25 7.55 -3.45 7.35 M-3.5 7.2 Q-3.2 7.2 -3.2 6.8 -3.25 6.45 -3.6 6.5 -3.95 6.5 -3.8 6.8 L-3.5 7.2 M-6.1 6.75 L-5.9 6.95 Q-5.6 6.95 -5.75 6.7 -5.8 6.6 -5.9 6.6 L-6.1 6.75 M-4.55 2.2 L-4.6 2.45 -4.4 2.3 Q-4.35 2.15 -4.55 2.2 M-3.15 3.55 Q-2.95 3.5 -3.1 3.25 -3.25 3.1 -3.4 3.25 L-3.35 3.45 Q-3.25 3.65 -3.15 3.55 M-7.2 -2.4 L-6.9 -2.45 Q-6.75 -2.55 -6.95 -2.7 L-7.2 -2.65 -7.2 -2.4 M-7.55 -1.5 Q-8.5 -0.9 -8.05 -0.15 -7.55 0.55 -6.65 0.25 L-6.1 0.1 Q-6.1 -0.6 -6.4 -1.1 -6.85 -1.95 -7.55 -1.5 M-8.55 -1.05 L-8.65 -0.9 -8.45 -0.75 Q-8.25 -0.75 -8.35 -1.0 L-8.55 -1.05 M4.35 -0.3 L4.35 -0.05 Q4.2 0.0 3.45 -1.6 L2.55 -3.6 4.5 -2.55 5.25 -2.0 5.15 -1.8 6.3 -1.55 9.05 0.25 8.75 0.3 Q8.55 0.25 8.4 0.45 8.2 0.6 8.3 1.0 L8.15 1.55 8.55 1.65 8.75 1.85 8.05 1.95 8.1 2.05 Q7.85 2.15 7.85 2.25 L7.75 2.55 7.6 2.45 7.45 2.45 7.45 2.65 7.5 2.9 7.7 3.1 7.1 3.45 6.55 3.4 Q6.4 3.35 6.3 3.8 L6.2 4.7 Q6.1 6.75 8.1 9.1 6.55 8.45 4.3 6.4 L0.5 3.5 0.7 3.2 0.5 3.15 0.45 3.45 -0.95 2.9 -0.55 3.65 Q-1.4 3.55 -1.75 4.55 -1.9 4.9 -1.05 5.55 -0.75 5.85 -1.0 6.2 L-1.35 6.75 -1.0 7.2 Q-0.55 7.3 -0.5 7.45 -3.75 7.45 -5.85 9.3 L-5.0 9.4 -4.8 9.75 Q-4.5 9.75 -4.6 9.45 L-1.05 10.25 Q0.4 10.5 0.0 10.85 L1.35 11.05 2.75 10.9 2.1 11.6 Q1.65 12.0 2.1 12.5 L2.7 13.0 Q3.1 12.65 4.25 12.5 L3.75 13.75 2.85 14.7 Q2.7 14.75 2.65 15.2 L2.2 15.55 1.85 15.65 Q1.7 15.8 1.95 15.9 L1.1 16.45 2.7 16.2 4.2 16.05 4.2 16.3 4.6 16.35 4.6 16.6 5.75 16.5 Q5.9 16.3 4.6 16.2 4.35 15.85 5.05 15.5 L5.95 15.05 Q8.35 13.4 9.45 11.45 8.95 13.45 9.55 15.2 9.3 14.9 9.45 15.25 9.55 15.65 9.6 15.3 L10.2 16.5 9.6 17.3 Q9.3 18.0 9.8 17.95 L10.95 17.5 Q11.35 17.2 11.25 16.9 L11.05 16.4 11.25 16.45 11.3 16.7 11.5 16.5 11.6 17.1 11.9 16.8 11.65 16.5 13.5 16.35 13.5 16.05 13.6 16.15 Q13.5 16.35 13.7 16.4 L13.8 16.2 14.05 16.3 Q14.05 15.85 14.35 15.85 L14.5 15.45 15.35 15.0 Q16.35 15.5 16.9 15.65 L16.6 15.95 16.65 16.15 16.75 16.1 17.0 16.65 17.55 16.8 Q17.0 17.35 17.5 18.1 13.65 18.15 9.85 20.0 L8.95 20.55 Q8.45 20.75 8.15 20.35 L7.3 19.7 6.85 19.15 Q6.7 19.05 6.6 19.25 L6.35 19.35 6.0 18.75 5.15 18.85 3.6 19.0 0.6 18.85 -1.9 18.9 Q-1.95 19.15 -1.35 19.25 -6.2 20.45 -8.05 24.1 -8.1 23.7 -8.15 24.1 L-8.1 24.3 Q-8.7 26.85 -9.0 26.95 L-9.05 25.5 -8.75 23.2 -7.9 20.75 -7.75 20.75 Q-7.45 20.75 -7.6 20.5 -7.75 20.3 -7.85 20.55 L-7.2 19.35 Q-6.15 17.6 -4.5 16.2 L-2.9 15.05 Q-1.65 14.3 -1.55 14.75 -1.65 14.15 -1.15 14.25 L-0.2 14.4 Q1.05 13.7 0.7 13.5 L1.8 13.35 1.6 13.1 Q1.25 13.45 0.4 13.4 L-0.1 12.95 Q-0.5 12.7 -0.8 13.1 L-2.25 13.15 -3.4 13.1 -4.25 13.2 -5.1 12.95 -5.3 12.85 Q-5.3 12.7 -5.45 12.7 L-5.85 12.85 -8.45 12.0 -8.4 11.95 -8.4 11.75 -8.5 11.75 Q-8.7 11.8 -8.55 11.95 L-8.5 12.0 -9.0 11.75 -10.7 10.4 -10.6 10.75 -11.6 9.6 -10.75 9.65 Q-10.3 9.55 -10.25 10.0 -10.2 10.55 -9.65 10.7 -8.2 11.1 -8.5 11.35 -8.35 11.2 -8.55 10.9 L-8.95 10.6 Q-8.1 9.55 -8.25 9.25 -8.4 9.0 -9.1 9.05 L-10.1 9.05 -7.05 6.1 Q-5.25 4.65 -3.25 4.7 L-4.7 4.35 Q-4.5 4.1 -4.65 3.9 L-4.7 3.4 Q-4.7 3.8 -4.25 3.8 -3.75 3.8 -3.7 3.4 -3.65 3.05 -3.95 2.85 L-4.55 2.95 -4.65 2.55 -4.95 2.25 -4.85 1.95 -4.6 1.7 Q-4.3 0.95 -4.95 0.4 L-5.75 0.3 -6.35 0.8 Q-6.65 1.35 -6.2 1.7 L-5.55 2.3 -5.8 2.9 Q-6.05 3.35 -5.5 3.55 L-6.1 3.8 -6.85 3.35 -8.4 2.0 Q-9.3 1.05 -9.5 -0.35 -9.8 -0.95 -9.7 -1.55 -9.6 -2.55 -9.1 -3.4 -8.35 -4.75 -6.7 -5.95 -7.9 -4.3 -6.2 -2.35 -5.15 -0.95 -3.1 0.2 L-2.05 0.8 -1.45 1.1 -0.95 0.8 Q-0.55 0.5 0.0 0.5 L0.75 0.55 1.6 0.7 Q2.25 0.85 2.15 1.0 1.8 1.35 2.4 1.4 2.95 1.4 2.5 0.95 L3.25 1.4 Q2.75 1.4 2.7 1.55 L3.4 1.6 Q4.15 2.2 4.35 3.25 L4.6 2.65 Q4.8 2.2 4.35 2.25 L4.15 0.1 4.75 0.0 4.35 -0.3 M4.3 -1.95 Q3.9 -1.85 3.95 -1.65 L4.35 -1.4 Q4.6 -1.3 4.65 -1.7 4.65 -2.0 4.3 -1.95 M18.65 14.0 Q18.5 14.1 18.6 14.3 L18.8 14.35 18.9 14.1 Q18.8 13.85 18.65 14.0 M17.0 13.8 L16.55 13.75 16.55 13.5 18.2 13.55 19.9 13.95 21.1 14.05 Q21.9 14.15 21.85 14.6 L21.95 16.35 22.25 16.2 22.6 16.5 22.25 15.05 Q22.05 14.25 23.0 14.35 L23.45 15.45 Q23.45 15.3 23.5 15.45 L23.3 15.75 Q23.15 15.95 23.4 16.1 23.2 15.95 23.9 15.85 24.5 15.65 24.3 15.95 L24.35 15.75 Q24.25 15.6 24.2 15.75 24.2 15.6 24.35 15.65 L24.4 15.6 24.7 15.95 24.85 15.65 24.55 15.55 25.7 14.85 25.55 14.65 27.95 14.7 Q31.4 14.35 30.85 15.25 L30.7 15.55 Q30.7 15.25 30.4 15.35 30.25 15.5 30.4 15.6 L30.55 15.65 30.0 16.05 29.0 16.45 27.6 17.4 25.5 18.6 25.6 18.15 25.4 17.85 Q25.75 17.55 25.3 17.0 25.0 16.7 24.65 16.75 24.3 16.9 24.35 17.35 L24.6 17.9 24.55 18.45 Q24.3 18.7 25.1 18.85 20.55 21.35 18.5 22.85 L18.5 22.7 Q18.6 22.4 18.35 22.55 18.15 22.65 18.3 22.8 L18.45 22.9 18.4 22.9 17.7 22.95 17.15 22.3 16.35 22.4 15.5 23.0 15.65 22.5 Q15.75 22.15 15.35 22.05 L15.75 21.8 15.85 21.8 16.05 21.65 17.0 20.6 Q18.65 19.45 19.0 19.7 19.3 18.6 22.3 18.1 L20.15 17.95 19.4 17.05 19.9 18.0 19.4 18.1 Q19.65 17.8 19.35 17.8 18.95 17.85 19.25 18.0 L18.7 18.0 Q19.0 17.65 18.75 17.05 18.5 16.45 18.0 16.7 L18.15 15.9 Q18.15 15.45 17.7 15.3 17.45 15.2 16.95 15.65 L15.7 15.05 15.8 14.95 16.0 14.95 16.15 14.7 16.35 15.0 16.95 15.05 17.15 14.35 16.9 14.0 17.0 13.8" fill="#000000" fill-rule="evenodd" stroke="none"/>
    <path d="M-19.6 11.15 L-19.9 11.2 -20.0 11.45 -20.05 10.45 -19.95 9.6 -19.45 10.4 Q-19.25 10.8 -19.6 11.15" fill="#000000" fill-rule="evenodd" stroke="none"/>
    <path d="M38.65 11.7 L38.35 12.85 Q38.1 12.7 38.05 13.0 L38.15 14.05 38.1 15.55 Q37.9 16.6 37.8 16.2 L37.9 16.05 37.3 15.75 36.8 15.35 36.95 15.3 36.9 15.3 36.9 15.25 36.9 14.75 Q36.65 14.4 36.7 14.25 37.25 12.8 38.65 11.7" fill="#000000" fill-rule="evenodd" stroke="none"/>
    <path d="M30.15 11.0 L30.4 10.75 30.1 10.7 Q29.8 10.9 30.15 11.0 M23.9 10.3 Q24.0 10.1 23.75 10.0 23.5 9.95 23.4 10.15 23.2 10.45 23.45 10.5 23.75 10.6 23.9 10.3 M24.65 10.0 Q24.25 9.85 24.1 10.25 24.05 10.6 24.3 10.7 L24.85 10.55 Q25.1 10.2 24.65 10.0 M23.0 10.6 Q22.85 10.5 22.35 11.0 L22.45 9.75 Q22.5 10.15 22.8 9.85 23.1 9.55 22.75 9.55 22.55 9.45 22.55 8.95 27.35 9.95 31.2 9.75 31.05 10.6 31.95 9.75 L32.75 9.75 34.4 9.3 36.1 9.05 35.25 9.55 35.25 9.3 Q35.4 9.75 33.35 10.3 32.75 10.3 32.65 10.55 L31.65 10.85 31.5 10.55 31.15 10.85 Q31.05 11.1 30.8 10.7 L31.1 10.5 31.0 10.1 30.7 10.1 30.4 10.15 30.8 11.0 25.2 11.5 23.95 11.35 Q23.65 11.2 23.75 10.9 23.2 11.05 23.0 10.6" fill="#000000" fill-rule="evenodd" stroke="none"/>
    <path d="M-17.3 -27.35 Q-16.95 -27.2 -17.35 -27.15 L-17.35 -27.25 -17.3 -27.35" fill="#000000" fill-rule="evenodd" stroke="none"/>
    <path d="M15.05 -14.9 L15.05 -14.25 14.95 -14.6 15.05 -14.9" fill="#000000" fill-rule="evenodd" stroke="none"/>
  </g>
</svg>
