<?xml version="1.0" encoding="UTF-8" standalone="no"?>
<svg xmlns:xlink="http://www.w3.org/1999/xlink" height="100.0px" width="83.2px" xmlns="http://www.w3.org/2000/svg">
  <g transform="matrix(1.0, 0.0, 0.0, 1.0, 41.6, 50.0)">
    <path d="M-3.0 -47.4 L-3.3 -47.25 Q-3.5 -47.25 -3.55 -47.4 -3.1 -47.65 -3.0 -47.4" fill="#000000" fill-rule="evenodd" stroke="none"/>
    <path d="M-5.95 -46.85 L-5.7 -46.95 -5.6 -46.8 -5.75 -46.75 Q-5.95 -46.75 -5.95 -46.85" fill="#000000" fill-rule="evenodd" stroke="none"/>
    <path d="M8.15 -45.35 Q8.65 -45.4 8.95 -44.8 9.25 -44.15 8.85 -43.8 9.25 -44.55 8.15 -45.35" fill="#000000" fill-rule="evenodd" stroke="none"/>
    <path d="M-2.55 -44.95 Q-1.9 -44.85 -1.7 -44.45 -1.1 -44.55 -1.2 -44.15 L-1.55 -43.4 -1.0 -43.35 Q-0.55 -43.3 -0.7 -43.05 L-1.2 -43.2 Q-1.55 -43.2 -1.7 -43.35 L-1.55 -43.8 -1.35 -44.25 -2.55 -44.55 -3.6 -45.1 -2.55 -44.95" fill="#000000" fill-rule="evenodd" stroke="none"/>
    <path d="M8.45 -44.95 L8.65 -44.4 8.4 -44.6 8.45 -44.95" fill="#000000" fill-rule="evenodd" stroke="none"/>
    <path d="M13.4 -44.05 L13.5 -43.9 13.35 -43.75 13.3 -43.9 13.4 -44.05" fill="#000000" fill-rule="evenodd" stroke="none"/>
    <path d="M7.5 -43.75 L7.6 -42.8 Q7.75 -42.15 7.45 -41.85 L7.4 -42.9 7.5 -43.75" fill="#000000" fill-rule="evenodd" stroke="none"/>
    <path d="M9.25 -43.55 Q9.55 -43.25 9.95 -43.25 9.6 -42.6 9.25 -42.45 L9.2 -42.55 Q9.1 -42.6 9.15 -42.7 L9.4 -42.65 9.55 -43.0 9.4 -43.25 Q9.2 -43.35 9.25 -43.55" fill="#000000" fill-rule="evenodd" stroke="none"/>
    <path d="M14.25 -42.55 Q14.4 -42.75 14.55 -42.55 14.7 -42.35 14.45 -42.3 L14.25 -42.55" fill="#000000" fill-rule="evenodd" stroke="none"/>
    <path d="M9.55 -42.35 L9.8 -42.15 9.85 -41.85 9.55 -42.35" fill="#000000" fill-rule="evenodd" stroke="none"/>
    <path d="M21.1 -39.3 L21.25 -39.5 21.45 -39.35 21.1 -39.3" fill="#000000" fill-rule="evenodd" stroke="none"/>
    <path d="M-19.95 -38.75 L-19.85 -38.8 Q-19.7 -38.8 -19.7 -38.7 L-19.85 -38.65 -19.95 -38.75" fill="#000000" fill-rule="evenodd" stroke="none"/>
    <path d="M13.15 -38.65 L13.2 -38.45 13.15 -38.25 Q12.9 -38.5 13.15 -38.65" fill="#000000" fill-rule="evenodd" stroke="none"/>
    <path d="M19.25 -38.55 L19.45 -38.5 19.4 -38.25 19.35 -38.4 19.25 -38.55" fill="#000000" fill-rule="evenodd" stroke="none"/>
    <path d="M15.05 -36.5 L15.35 -36.5 15.35 -36.25 Q15.05 -36.2 15.05 -36.5" fill="#000000" fill-rule="evenodd" stroke="none"/>
    <path d="M4.65 -36.15 L4.45 -35.9 Q4.35 -35.95 4.4 -36.05 L4.65 -36.15" fill="#000000" fill-rule="evenodd" stroke="none"/>
    <path d="M10.4 -35.75 L10.6 -35.6 10.55 -35.45 Q10.4 -35.4 10.35 -35.6 10.25 -35.75 10.4 -35.75" fill="#000000" fill-rule="evenodd" stroke="none"/>
    <path d="M-4.9 -32.95 L-4.65 -32.7 Q-4.45 -32.5 -4.55 -32.35 L-4.9 -32.55 -4.9 -32.95" fill="#000000" fill-rule="evenodd" stroke="none"/>
    <path d="M15.85 -32.1 L15.65 -31.8 15.25 -31.8 15.85 -32.1" fill="#000000" fill-rule="evenodd" stroke="none"/>
    <path d="M-6.55 -30.85 L-6.4 -30.7 -6.4 -30.6 -6.65 -30.65 -6.55 -30.85" fill="#000000" fill-rule="evenodd" stroke="none"/>
    <path d="M-18.6 -30.75 Q-18.05 -30.75 -18.1 -30.3 -18.6 -30.25 -18.6 -30.75" fill="#000000" fill-rule="evenodd" stroke="none"/>
    <path d="M28.35 -30.25 L29.1 -29.1 28.55 -29.55 Q28.3 -29.9 28.35 -30.25" fill="#000000" fill-rule="evenodd" stroke="none"/>
    <path d="M8.65 -29.7 L9.0 -29.75 9.25 -29.65 8.95 -29.55 Q8.7 -29.6 8.65 -29.7" fill="#000000" fill-rule="evenodd" stroke="none"/>
    <path d="M30.4 -28.25 L30.5 -28.05 30.35 -27.95 30.25 -28.15 30.4 -28.25" fill="#000000" fill-rule="evenodd" stroke="none"/>
    <path d="M16.25 -26.95 Q16.15 -28.2 17.6 -28.2 19.1 -28.15 19.2 -27.15 L18.4 -27.6 17.65 -27.55 18.25 -26.65 17.25 -27.35 Q16.55 -27.55 16.25 -26.95" fill="#000000" fill-rule="evenodd" stroke="none"/>
    <path d="M28.0 -28.15 Q29.8 -26.2 30.8 -23.75 L30.0 -24.75 29.3 -25.9 28.5 -27.1 28.0 -28.15" fill="#000000" fill-rule="evenodd" stroke="none"/>
    <path d="M30.9 -28.0 L31.0 -27.65 Q30.65 -27.65 30.65 -27.95 L30.9 -28.0" fill="#000000" fill-rule="evenodd" stroke="none"/>
    <path d="M8.45 -27.95 L8.95 -27.55 8.5 -27.6 Q8.3 -27.85 8.45 -27.95" fill="#000000" fill-rule="evenodd" stroke="none"/>
    <path d="M-2.65 -27.8 L-3.2 -25.8 -3.65 -23.7 Q-3.85 -24.6 -3.45 -25.85 L-2.65 -27.8" fill="#000000" fill-rule="evenodd" stroke="none"/>
    <path d="M-19.2 -27.35 L-18.8 -27.25 Q-18.65 -27.1 -18.85 -27.05 L-19.2 -27.35" fill="#000000" fill-rule="evenodd" stroke="none"/>
    <path d="M31.55 -27.3 L31.65 -27.1 31.45 -26.95 31.35 -27.15 31.55 -27.3" fill="#000000" fill-rule="evenodd" stroke="none"/>
    <path d="M13.85 -26.35 L13.75 -25.9 13.35 -25.6 13.55 -26.0 13.85 -26.35" fill="#000000" fill-rule="evenodd" stroke="none"/>
    <path d="M15.65 -25.25 L16.45 -23.8 17.1 -23.15 17.45 -22.55 Q15.65 -23.75 15.65 -25.25" fill="#000000" fill-rule="evenodd" stroke="none"/>
    <path d="M12.25 -24.35 L12.25 -23.9 Q12.0 -23.9 12.0 -24.15 12.0 -24.35 12.25 -24.35" fill="#000000" fill-rule="evenodd" stroke="none"/>
    <path d="M13.0 -23.5 L13.15 -23.3 12.95 -23.15 12.8 -23.35 13.0 -23.5" fill="#000000" fill-rule="evenodd" stroke="none"/>
    <path d="M21.8 -21.85 L21.7 -21.65 Q21.45 -21.6 21.5 -21.8 L21.8 -21.85" fill="#000000" fill-rule="evenodd" stroke="none"/>
    <path d="M12.95 -21.6 L13.2 -21.6 Q13.2 -21.35 13.0 -21.35 L12.95 -21.6" fill="#000000" fill-rule="evenodd" stroke="none"/>
    <path d="M18.3 -21.6 Q18.45 -21.05 19.2 -20.15 L19.95 -18.85 18.8 -20.1 Q18.0 -20.9 18.3 -21.6" fill="#000000" fill-rule="evenodd" stroke="none"/>
    <path d="M21.2 -21.1 L21.5 -21.1 Q21.55 -20.85 21.4 -20.9 L21.2 -21.1" fill="#000000" fill-rule="evenodd" stroke="none"/>
    <path d="M-5.45 -21.15 L-5.6 -21.0 -5.8 -21.05 Q-5.7 -21.0 -5.65 -21.1 L-5.45 -21.15" fill="#000000" fill-rule="evenodd" stroke="none"/>
    <path d="M-6.4 -21.05 L-6.45 -20.8 -6.8 -20.7 -6.4 -21.05" fill="#000000" fill-rule="evenodd" stroke="none"/>
    <path d="M34.1 -20.95 L34.35 -20.85 Q34.35 -20.65 34.1 -20.7 L34.1 -20.95" fill="#000000" fill-rule="evenodd" stroke="none"/>
    <path d="M-5.6 -20.25 Q-5.8 -20.0 -5.85 -20.25 L-5.7 -20.3 -5.6 -20.25" fill="#000000" fill-rule="evenodd" stroke="none"/>
    <path d="M33.35 -19.75 L33.6 -19.75 33.6 -19.55 Q33.35 -19.5 33.35 -19.75" fill="#000000" fill-rule="evenodd" stroke="none"/>
    <path d="M-29.05 -19.85 L-28.75 -19.75 Q-28.55 -19.75 -28.6 -19.55 L-29.05 -19.85" fill="#000000" fill-rule="evenodd" stroke="none"/>
    <path d="M12.05 -19.7 L12.2 -19.0 12.05 -18.35 11.95 -19.1 12.05 -19.7" fill="#000000" fill-rule="evenodd" stroke="none"/>
    <path d="M-36.65 -19.65 L-36.35 -19.65 Q-36.2 -19.55 -36.35 -19.4 L-36.65 -19.65" fill="#000000" fill-rule="evenodd" stroke="none"/>
    <path d="M-12.05 -19.65 Q-12.25 -19.4 -12.75 -19.35 L-13.55 -19.35 -14.3 -19.05 Q-14.8 -18.8 -15.1 -18.85 -13.4 -19.6 -12.05 -19.65" fill="#000000" fill-rule="evenodd" stroke="none"/>
    <path d="M13.35 -19.4 L13.25 -19.2 Q13.05 -19.15 13.15 -19.35 L13.35 -19.4" fill="#000000" fill-rule="evenodd" stroke="none"/>
    <path d="M19.35 -17.3 L19.4 -16.95 19.25 -16.65 19.2 -17.0 Q19.2 -17.3 19.35 -17.3" fill="#000000" fill-rule="evenodd" stroke="none"/>
    <path d="M32.4 -15.8 Q31.1 -16.25 30.8 -16.85 32.2 -16.1 32.9 -15.95 L33.65 -15.8 Q34.15 -15.65 34.3 -15.35 L32.7 -15.65 33.05 -15.15 33.05 -15.45 33.25 -15.3 33.35 -15.0 33.45 -15.15 33.75 -14.35 33.8 -13.5 33.55 -14.15 33.35 -14.8 33.35 -14.55 32.75 -15.0 32.4 -15.8" fill="#000000" fill-rule="evenodd" stroke="none"/>
    <path d="M36.65 -16.75 L36.8 -16.55 36.85 -16.3 Q36.7 -16.25 36.55 -16.45 36.4 -16.7 36.65 -16.75" fill="#000000" fill-rule="evenodd" stroke="none"/>
    <path d="M37.0 -16.7 L37.2 -16.35 37.2 -16.05 Q36.85 -16.55 37.0 -16.7" fill="#000000" fill-rule="evenodd" stroke="none"/>
    <path d="M-14.7 -16.7 L-14.6 -16.5 Q-14.5 -16.35 -14.65 -16.35 -15.05 -16.7 -14.7 -16.7" fill="#000000" fill-rule="evenodd" stroke="none"/>
    <path d="M16.1 -15.9 Q16.85 -16.8 17.35 -16.45 17.25 -16.55 16.3 -15.65 L15.2 -14.55 Q15.4 -15.1 16.1 -15.9" fill="#000000" fill-rule="evenodd" stroke="none"/>
    <path d="M34.05 -16.3 Q35.55 -16.55 35.6 -15.85 L34.85 -16.05 Q34.25 -16.1 34.05 -16.3" fill="#000000" fill-rule="evenodd" stroke="none"/>
    <path d="M31.6 -15.95 L32.2 -15.6 32.55 -14.85 Q31.95 -15.1 31.6 -15.95" fill="#000000" fill-rule="evenodd" stroke="none"/>
    <path d="M36.65 -15.4 L37.05 -15.35 37.25 -14.95 Q36.85 -14.95 36.65 -15.4" fill="#000000" fill-rule="evenodd" stroke="none"/>
    <path d="M-9.35 -15.2 L-9.6 -15.15 -9.75 -15.4 -9.35 -15.2" fill="#000000" fill-rule="evenodd" stroke="none"/>
    <path d="M19.4 -15.2 L19.8 -13.5 20.1 -11.8 Q19.75 -12.25 19.4 -13.55 19.05 -15.0 19.4 -15.2" fill="#000000" fill-rule="evenodd" stroke="none"/>
    <path d="M16.5 -15.05 L15.9 -14.2 Q15.3 -13.6 14.9 -13.5 15.35 -14.6 16.5 -15.05" fill="#000000" fill-rule="evenodd" stroke="none"/>
    <path d="M34.95 -14.85 L35.0 -14.55 Q34.75 -14.5 34.75 -14.7 L34.95 -14.85" fill="#000000" fill-rule="evenodd" stroke="none"/>
    <path d="M31.95 -14.8 L32.05 -14.6 31.95 -14.45 Q31.65 -14.8 31.95 -14.8" fill="#000000" fill-rule="evenodd" stroke="none"/>
    <path d="M31.5 -13.25 Q31.95 -11.85 31.8 -11.75 30.4 -13.15 30.1 -14.05 L30.3 -13.8 30.45 -13.7 30.25 -14.7 30.65 -13.85 Q30.85 -13.25 31.1 -13.1 L30.7 -14.8 31.5 -13.25" fill="#000000" fill-rule="evenodd" stroke="none"/>
    <path d="M36.35 -13.5 L36.65 -12.25 35.95 -13.4 Q35.65 -14.2 35.8 -14.8 L36.35 -13.5" fill="#000000" fill-rule="evenodd" stroke="none"/>
    <path d="M35.3 -14.8 Q35.65 -14.1 35.4 -13.95 L35.2 -14.4 Q35.1 -14.7 35.3 -14.8" fill="#000000" fill-rule="evenodd" stroke="none"/>
    <path d="M34.45 -14.45 L34.75 -14.0 34.85 -13.55 Q34.55 -13.55 34.45 -13.95 34.3 -14.35 34.45 -14.45" fill="#000000" fill-rule="evenodd" stroke="none"/>
    <path d="M-2.75 -14.35 L-2.5 -13.9 -2.4 -13.45 -2.7 -13.9 -2.75 -14.35" fill="#000000" fill-rule="evenodd" stroke="none"/>
    <path d="M-17.3 -12.75 L-17.7 -12.85 -18.0 -13.2 -18.85 -13.45 -19.3 -13.95 -19.55 -14.35 -19.15 -13.95 -18.8 -13.6 Q-18.25 -13.35 -17.8 -13.2 L-17.3 -12.75 Q-16.95 -12.25 -17.75 -12.15 L-17.3 -12.75" fill="#000000" fill-rule="evenodd" stroke="none"/>
    <path d="M36.55 -14.15 Q37.1 -14.2 37.6 -12.8 L37.0 -13.35 36.55 -14.15" fill="#000000" fill-rule="evenodd" stroke="none"/>
    <path d="M36.35 -14.25 L36.9 -13.2 37.3 -12.05 Q36.35 -13.05 36.35 -14.25" fill="#000000" fill-rule="evenodd" stroke="none"/>
    <path d="M32.5 -14.05 Q32.6 -13.7 32.3 -13.7 32.0 -14.15 32.5 -14.05" fill="#000000" fill-rule="evenodd" stroke="none"/>
    <path d="M38.6 -13.95 L39.1 -11.3 Q38.6 -11.6 38.4 -12.5 38.25 -13.45 38.6 -13.95" fill="#000000" fill-rule="evenodd" stroke="none"/>
    <path d="M34.1 -13.9 L34.3 -13.45 Q34.35 -13.15 34.1 -13.1 33.95 -13.2 33.9 -13.55 33.8 -13.95 34.1 -13.9" fill="#000000" fill-rule="evenodd" stroke="none"/>
    <path d="M37.65 -13.35 L38.25 -12.55 38.4 -11.65 Q37.55 -12.95 37.65 -13.35" fill="#000000" fill-rule="evenodd" stroke="none"/>
    <path d="M-38.9 -13.35 L-38.9 -13.1 Q-39.2 -13.05 -39.15 -13.35 L-38.9 -13.35" fill="#000000" fill-rule="evenodd" stroke="none"/>
    <path d="M15.4 -13.15 Q15.55 -12.4 14.5 -11.95 14.65 -12.75 15.4 -13.15" fill="#000000" fill-rule="evenodd" stroke="none"/>
    <path d="M35.4 -13.1 L35.8 -12.55 35.55 -12.75 35.4 -13.1" fill="#000000" fill-rule="evenodd" stroke="none"/>
    <path d="M34.1 -12.85 L34.5 -12.55 34.6 -12.05 Q34.35 -12.1 34.1 -12.85" fill="#000000" fill-rule="evenodd" stroke="none"/>
    <path d="M32.9 -12.8 L33.1 -12.5 32.9 -12.2 32.75 -12.5 32.9 -12.8" fill="#000000" fill-rule="evenodd" stroke="none"/>
    <path d="M-1.75 -12.45 Q-0.95 -11.1 2.05 -10.35 0.7 -10.35 -0.5 -11.05 L-1.3 -11.8 -1.75 -12.45" fill="#000000" fill-rule="evenodd" stroke="none"/>
    <path d="M39.0 -12.25 L39.3 -12.3 39.3 -12.0 Q39.0 -11.9 39.0 -12.25" fill="#000000" fill-rule="evenodd" stroke="none"/>
    <path d="M37.65 -12.0 Q38.35 -11.55 38.2 -10.9 37.55 -11.6 37.65 -12.0" fill="#000000" fill-rule="evenodd" stroke="none"/>
    <path d="M-21.45 -12.0 L-21.05 -11.65 Q-20.95 -11.3 -21.1 -11.1 L-21.45 -12.0" fill="#000000" fill-rule="evenodd" stroke="none"/>
    <path d="M37.0 -11.8 L37.6 -11.35 37.65 -10.7 Q37.05 -11.45 37.0 -11.8" fill="#000000" fill-rule="evenodd" stroke="none"/>
    <path d="M33.45 -11.8 Q33.65 -10.9 33.3 -11.4 32.85 -11.8 33.45 -11.8" fill="#000000" fill-rule="evenodd" stroke="none"/>
    <path d="M30.45 -11.6 L31.1 -11.55 31.35 -11.1 30.9 -11.35 30.45 -11.6" fill="#000000" fill-rule="evenodd" stroke="none"/>
    <path d="M11.9 -9.35 Q12.7 -11.6 13.55 -11.5 13.1 -11.3 12.7 -10.45 L11.9 -9.35" fill="#000000" fill-rule="evenodd" stroke="none"/>
    <path d="M29.5 -11.5 Q30.35 -11.5 30.45 -11.15 L29.9 -11.15 Q29.55 -11.25 29.5 -11.5" fill="#000000" fill-rule="evenodd" stroke="none"/>
    <path d="M15.1 -11.45 L14.95 -10.75 14.45 -10.3 Q14.7 -11.25 15.1 -11.45" fill="#000000" fill-rule="evenodd" stroke="none"/>
    <path d="M33.6 -11.3 Q34.1 -10.65 33.7 -10.35 L33.5 -10.8 33.6 -11.3" fill="#000000" fill-rule="evenodd" stroke="none"/>
    <path d="M20.7 -11.15 L21.45 -10.55 21.85 -9.75 21.15 -10.45 20.7 -11.15" fill="#000000" fill-rule="evenodd" stroke="none"/>
    <path d="M12.05 -11.1 L11.9 -9.65 Q11.75 -8.8 11.25 -8.65 L11.55 -9.95 Q11.7 -10.8 12.05 -11.1" fill="#000000" fill-rule="evenodd" stroke="none"/>
    <path d="M28.45 -10.95 Q28.6 -11.15 28.7 -10.95 L28.6 -10.75 28.45 -10.95" fill="#000000" fill-rule="evenodd" stroke="none"/>
    <path d="M13.6 -11.05 Q13.8 -10.65 13.3 -10.15 L13.3 -10.7 13.6 -11.05" fill="#000000" fill-rule="evenodd" stroke="none"/>
    <path d="M36.8 -10.95 L37.4 -10.25 Q37.6 -9.75 37.3 -9.45 L36.8 -10.95" fill="#000000" fill-rule="evenodd" stroke="none"/>
    <path d="M29.15 -10.95 L29.65 -10.7 29.35 -10.7 Q29.1 -10.75 29.15 -10.95" fill="#000000" fill-rule="evenodd" stroke="none"/>
    <path d="M32.75 -10.65 L34.65 -8.55 33.4 -9.4 Q32.65 -10.0 32.75 -10.65" fill="#000000" fill-rule="evenodd" stroke="none"/>
    <path d="M28.55 -10.5 L28.7 -10.55 28.8 -10.45 Q28.45 -10.25 28.55 -10.5" fill="#000000" fill-rule="evenodd" stroke="none"/>
    <path d="M13.0 -10.35 L12.6 -8.9 12.4 -7.35 Q12.2 -7.55 12.25 -8.1 L12.2 -8.8 Q12.05 -8.45 11.7 -8.45 L12.05 -8.9 Q12.25 -9.15 12.0 -9.15 L13.0 -10.35" fill="#000000" fill-rule="evenodd" stroke="none"/>
    <path d="M28.15 -10.15 L28.2 -9.95 27.85 -9.9 28.15 -10.15" fill="#000000" fill-rule="evenodd" stroke="none"/>
    <path d="M34.05 -10.05 Q34.05 -9.6 33.8 -10.05 L34.05 -10.05" fill="#000000" fill-rule="evenodd" stroke="none"/>
    <path d="M13.3 -9.8 L13.15 -9.35 13.05 -8.95 Q12.8 -9.0 12.9 -9.4 13.05 -9.85 13.3 -9.8" fill="#000000" fill-rule="evenodd" stroke="none"/>
    <path d="M23.15 -9.65 Q23.25 -9.45 23.0 -9.45 L22.8 -9.6 23.15 -9.65" fill="#000000" fill-rule="evenodd" stroke="none"/>
    <path d="M4.0 -9.55 L4.15 -9.35 3.95 -9.2 3.8 -9.4 4.0 -9.55" fill="#000000" fill-rule="evenodd" stroke="none"/>
    <path d="M31.35 -9.45 L31.8 -8.15 Q31.4 -8.15 31.25 -8.6 31.1 -9.15 31.35 -9.45" fill="#000000" fill-rule="evenodd" stroke="none"/>
    <path d="M14.7 -9.45 L14.45 -9.05 14.45 -9.3 14.7 -9.45" fill="#000000" fill-rule="evenodd" stroke="none"/>
    <path d="M2.45 -9.4 L2.3 -9.15 2.25 -9.4 2.45 -9.4" fill="#000000" fill-rule="evenodd" stroke="none"/>
    <path d="M23.45 -9.05 L23.9 -9.2 24.25 -9.0 23.8 -8.85 23.45 -9.05" fill="#000000" fill-rule="evenodd" stroke="none"/>
    <path d="M22.45 -9.15 L22.8 -8.15 Q22.85 -7.35 22.55 -7.05 L22.55 -8.2 22.45 -9.15" fill="#000000" fill-rule="evenodd" stroke="none"/>
    <path d="M3.2 -9.05 L3.5 -9.1 3.45 -8.8 Q3.1 -8.7 3.2 -9.05" fill="#000000" fill-rule="evenodd" stroke="none"/>
    <path d="M0.15 -9.15 L0.55 -9.0 0.95 -8.85 Q0.8 -8.45 0.15 -9.15" fill="#000000" fill-rule="evenodd" stroke="none"/>
    <path d="M4.3 -8.95 L4.2 -8.75 Q3.95 -8.7 4.0 -8.85 L4.3 -8.95" fill="#000000" fill-rule="evenodd" stroke="none"/>
    <path d="M-33.9 -8.95 L-33.85 -8.65 -34.05 -8.85 -33.9 -8.95" fill="#000000" fill-rule="evenodd" stroke="none"/>
    <path d="M3.75 -8.55 L4.05 -8.55 Q4.2 -8.45 4.0 -8.3 3.7 -8.3 3.75 -8.55" fill="#000000" fill-rule="evenodd" stroke="none"/>
    <path d="M25.55 -7.45 L26.6 -8.1 27.6 -8.45 Q26.3 -7.45 25.55 -7.45" fill="#000000" fill-rule="evenodd" stroke="none"/>
    <path d="M29.9 -8.45 L30.3 -8.0 Q30.4 -7.6 30.15 -7.45 L29.9 -8.45" fill="#000000" fill-rule="evenodd" stroke="none"/>
    <path d="M13.0 -8.4 L13.05 -8.1 12.95 -7.9 13.0 -8.4" fill="#000000" fill-rule="evenodd" stroke="none"/>
    <path d="M10.75 -8.1 L10.9 -7.75 Q10.6 -7.7 10.6 -7.9 L10.75 -8.1" fill="#000000" fill-rule="evenodd" stroke="none"/>
    <path d="M-8.35 -8.05 L-8.3 -7.8 -8.5 -7.65 -8.35 -8.05" fill="#000000" fill-rule="evenodd" stroke="none"/>
    <path d="M23.1 -7.9 L23.15 -7.5 Q22.9 -7.45 22.9 -7.65 L23.1 -7.9" fill="#000000" fill-rule="evenodd" stroke="none"/>
    <path d="M-0.55 -7.1 L-0.25 -7.4 0.05 -7.35 Q-0.45 -7.0 -0.55 -7.1" fill="#000000" fill-rule="evenodd" stroke="none"/>
    <path d="M22.15 -7.3 L22.4 -6.7 Q22.45 -6.2 22.05 -6.2 L22.0 -6.85 Q21.95 -7.2 22.15 -7.3" fill="#000000" fill-rule="evenodd" stroke="none"/>
    <path d="M11.65 -7.15 L11.85 -7.0 Q11.85 -6.85 11.65 -6.9 L11.65 -7.15" fill="#000000" fill-rule="evenodd" stroke="none"/>
    <path d="M28.65 -6.75 Q28.8 -6.35 28.4 -6.35 28.15 -6.85 28.65 -6.75" fill="#000000" fill-rule="evenodd" stroke="none"/>
    <path d="M34.45 -5.8 Q34.7 -6.45 35.5 -6.35 35.4 -5.9 34.45 -5.8" fill="#000000" fill-rule="evenodd" stroke="none"/>
    <path d="M33.25 -6.35 Q34.05 -6.0 33.9 -5.45 33.35 -5.6 33.25 -6.35" fill="#000000" fill-rule="evenodd" stroke="none"/>
    <path d="M31.75 -6.35 Q32.0 -5.8 31.55 -5.1 31.0 -4.35 30.4 -4.45 L31.75 -6.35" fill="#000000" fill-rule="evenodd" stroke="none"/>
    <path d="M25.0 -6.35 L24.95 -5.1 24.8 -3.85 24.9 -3.0 24.65 -2.15 24.65 -4.25 Q24.7 -5.5 25.0 -6.35" fill="#000000" fill-rule="evenodd" stroke="none"/>
    <path d="M-11.45 -6.05 L-11.35 -5.8 Q-11.65 -5.7 -11.65 -6.0 L-11.45 -6.05" fill="#000000" fill-rule="evenodd" stroke="none"/>
    <path d="M21.85 -5.8 L21.85 -5.3 Q21.75 -5.0 21.5 -5.05 L21.85 -5.8" fill="#000000" fill-rule="evenodd" stroke="none"/>
    <path d="M36.65 -4.9 Q36.75 -5.15 37.1 -5.1 37.45 -5.0 37.4 -4.7 L36.95 -4.65 Q36.65 -4.65 36.65 -4.9" fill="#000000" fill-rule="evenodd" stroke="none"/>
    <path d="M21.2 -5.05 L21.3 -4.65 21.05 -4.35 21.0 -4.75 21.2 -5.05" fill="#000000" fill-rule="evenodd" stroke="none"/>
    <path d="M12.45 -4.9 Q12.8 -5.25 12.85 -4.9 L12.65 -4.8 Q12.5 -4.8 12.45 -4.9" fill="#000000" fill-rule="evenodd" stroke="none"/>
    <path d="M28.75 -4.65 L28.25 -4.15 27.55 -3.75 27.05 -2.95 26.5 -2.15 Q27.15 -4.2 28.75 -4.65" fill="#000000" fill-rule="evenodd" stroke="none"/>
    <path d="M11.85 -4.65 L11.9 -4.3 Q11.55 -4.2 11.3 -4.45 L11.85 -4.65" fill="#000000" fill-rule="evenodd" stroke="none"/>
    <path d="M10.0 -4.65 L10.05 -4.45 10.0 -4.3 Q9.9 -4.4 9.95 -4.5 L10.0 -4.65" fill="#000000" fill-rule="evenodd" stroke="none"/>
    <path d="M39.35 -4.5 Q39.65 -4.55 39.85 -4.2 L40.05 -3.6 Q39.65 -3.65 39.35 -4.5" fill="#000000" fill-rule="evenodd" stroke="none"/>
    <path d="M34.95 -4.35 L35.3 -4.45 35.6 -4.25 35.25 -4.2 Q35.05 -4.25 34.95 -4.35" fill="#000000" fill-rule="evenodd" stroke="none"/>
    <path d="M20.55 -4.25 L20.5 -4.0 20.3 -4.05 Q20.25 -4.25 20.55 -4.25" fill="#000000" fill-rule="evenodd" stroke="none"/>
    <path d="M-23.75 -3.9 L-23.45 -4.05 Q-23.15 -4.0 -23.15 -3.75 -23.9 -3.55 -23.75 -3.9" fill="#000000" fill-rule="evenodd" stroke="none"/>
    <path d="M28.55 -3.85 L29.05 -3.95 29.4 -3.75 28.95 -3.65 Q28.65 -3.7 28.55 -3.85" fill="#000000" fill-rule="evenodd" stroke="none"/>
    <path d="M-29.95 -3.55 Q-29.85 -3.8 -29.6 -3.65 -29.35 -3.5 -29.55 -3.25 -29.95 -3.25 -29.95 -3.55" fill="#000000" fill-rule="evenodd" stroke="none"/>
    <path d="M35.7 -3.45 Q36.35 -3.7 36.15 -2.05 35.55 -2.1 35.7 -3.45" fill="#000000" fill-rule="evenodd" stroke="none"/>
    <path d="M15.25 -3.55 L15.5 -1.85 15.35 -0.25 Q15.1 -0.85 15.1 -1.95 15.05 -3.05 15.25 -3.55" fill="#000000" fill-rule="evenodd" stroke="none"/>
    <path d="M11.25 -3.25 L11.45 -3.35 11.55 -3.15 Q11.25 -3.15 11.25 -3.25" fill="#000000" fill-rule="evenodd" stroke="none"/>
    <path d="M-2.45 -3.15 Q-1.85 -3.65 -2.15 -2.95 -2.45 -2.25 -2.45 -3.15" fill="#000000" fill-rule="evenodd" stroke="none"/>
    <path d="M26.5 -3.05 Q25.85 -2.75 25.35 -1.95 L24.5 -0.5 Q24.65 -1.4 25.15 -2.1 25.7 -3.0 26.5 -3.05" fill="#000000" fill-rule="evenodd" stroke="none"/>
    <path d="M19.6 -2.8 L19.7 -2.5 Q19.65 -2.3 19.5 -2.35 19.4 -2.45 19.45 -2.6 L19.6 -2.8" fill="#000000" fill-rule="evenodd" stroke="none"/>
    <path d="M25.9 -2.2 L26.15 -2.2 26.15 -2.0 Q25.8 -1.9 25.9 -2.2" fill="#000000" fill-rule="evenodd" stroke="none"/>
    <path d="M19.4 -1.9 L19.25 -1.65 19.2 -1.9 19.4 -1.9" fill="#000000" fill-rule="evenodd" stroke="none"/>
    <path d="M32.4 -1.85 L32.5 -1.6 32.3 -1.5 Q32.2 -1.6 32.25 -1.75 32.25 -1.9 32.4 -1.85" fill="#000000" fill-rule="evenodd" stroke="none"/>
    <path d="M31.75 -1.35 L31.95 -1.4 31.95 -1.1 Q31.65 -1.0 31.75 -1.35" fill="#000000" fill-rule="evenodd" stroke="none"/>
    <path d="M39.8 -1.35 Q40.5 -0.65 40.1 -0.5 L39.75 -1.15 39.35 -0.75 Q39.25 -0.95 39.45 -1.15 39.6 -1.35 39.8 -1.35" fill="#000000" fill-rule="evenodd" stroke="none"/>
    <path d="M29.2 -1.15 L29.3 -1.35 29.55 -1.3 29.45 -1.1 29.2 -1.15" fill="#000000" fill-rule="evenodd" stroke="none"/>
    <path d="M25.9 -1.35 L25.9 -1.1 Q25.6 -1.0 25.6 -1.3 L25.9 -1.35" fill="#000000" fill-rule="evenodd" stroke="none"/>
    <path d="M5.25 -1.3 Q4.8 -0.45 3.9 -0.35 L5.25 -1.3" fill="#000000" fill-rule="evenodd" stroke="none"/>
    <path d="M27.5 -1.1 Q27.7 -0.55 27.15 -0.4 27.0 -0.6 27.15 -0.85 L27.5 -1.1" fill="#000000" fill-rule="evenodd" stroke="none"/>
    <path d="M23.85 -0.85 L23.8 -0.45 Q23.75 -0.3 23.55 -0.35 23.65 -0.8 23.85 -0.85" fill="#000000" fill-rule="evenodd" stroke="none"/>
    <path d="M40.85 -0.7 L40.65 -0.1 40.4 0.45 Q40.2 0.2 40.35 -0.3 40.45 -0.75 40.85 -0.7" fill="#000000" fill-rule="evenodd" stroke="none"/>
    <path d="M13.95 -0.65 L14.75 1.95 Q15.35 4.05 14.7 4.25 L14.3 1.8 13.75 -0.65 13.95 -0.65" fill="#000000" fill-rule="evenodd" stroke="none"/>
    <path d="M23.15 -0.4 L23.45 -0.25 23.2 -0.15 23.15 -0.4" fill="#000000" fill-rule="evenodd" stroke="none"/>
    <path d="M38.25 0.55 Q38.25 0.1 38.75 -0.15 39.3 -0.4 39.5 0.0 L38.8 0.2 38.25 0.55" fill="#000000" fill-rule="evenodd" stroke="none"/>
    <path d="M2.05 -0.25 L1.7 0.1 1.25 0.2 Q1.45 -0.15 2.05 -0.25" fill="#000000" fill-rule="evenodd" stroke="none"/>
    <path d="M24.1 0.05 L23.95 0.4 Q23.7 0.5 23.85 0.75 23.6 0.6 22.45 1.35 L20.95 2.35 Q21.95 1.05 24.1 0.05" fill="#000000" fill-rule="evenodd" stroke="none"/>
    <path d="M6.9 0.45 Q6.9 0.15 7.2 0.25 L7.15 0.55 6.9 0.45" fill="#000000" fill-rule="evenodd" stroke="none"/>
    <path d="M-28.95 0.4 Q-28.4 -0.15 -28.5 0.45 -28.55 1.1 -28.95 0.4" fill="#000000" fill-rule="evenodd" stroke="none"/>
    <path d="M-9.4 0.55 Q-9.15 0.95 -9.6 1.15 L-9.55 0.85 -9.4 0.55" fill="#000000" fill-rule="evenodd" stroke="none"/>
    <path d="M39.9 0.65 L39.85 1.15 40.45 1.15 40.0 1.45 39.45 1.55 Q39.55 1.0 39.9 0.65" fill="#000000" fill-rule="evenodd" stroke="none"/>
    <path d="M29.65 0.65 Q30.2 0.75 29.6 0.95 29.0 1.1 29.65 0.65" fill="#000000" fill-rule="evenodd" stroke="none"/>
    <path d="M27.9 0.75 Q28.5 0.8 28.55 1.35 28.25 1.4 28.1 1.15 L27.9 0.75" fill="#000000" fill-rule="evenodd" stroke="none"/>
    <path d="M13.85 1.0 L13.9 1.2 13.7 1.25 13.85 1.0" fill="#000000" fill-rule="evenodd" stroke="none"/>
    <path d="M-20.65 1.0 L-20.45 1.3 Q-20.35 1.6 -20.55 1.7 L-20.65 1.0" fill="#000000" fill-rule="evenodd" stroke="none"/>
    <path d="M7.5 1.45 L7.65 1.95 Q7.4 2.0 7.3 1.7 7.2 1.4 7.5 1.45" fill="#000000" fill-rule="evenodd" stroke="none"/>
    <path d="M40.4 2.7 Q39.7 2.95 39.7 2.4 39.7 1.75 39.9 1.75 L40.1 2.3 40.4 2.7" fill="#000000" fill-rule="evenodd" stroke="none"/>
    <path d="M-10.2 1.85 L-9.85 1.9 -9.8 2.25 -10.05 2.1 -10.2 1.85" fill="#000000" fill-rule="evenodd" stroke="none"/>
    <path d="M39.5 1.9 Q39.65 2.15 39.2 2.4 38.7 2.65 38.6 2.3 L39.5 1.9" fill="#000000" fill-rule="evenodd" stroke="none"/>
    <path d="M21.65 2.3 Q21.6 2.1 21.8 2.05 22.0 1.95 22.05 2.15 21.9 2.55 21.65 2.3" fill="#000000" fill-rule="evenodd" stroke="none"/>
    <path d="M7.3 2.3 Q7.65 2.2 8.0 2.7 8.35 3.15 8.1 3.45 L7.3 2.3" fill="#000000" fill-rule="evenodd" stroke="none"/>
    <path d="M39.25 2.5 L39.5 3.35 Q39.5 4.0 39.65 4.25 L39.25 3.9 38.95 3.4 Q38.45 4.05 38.2 3.75 L38.5 3.35 38.95 3.05 Q38.9 2.7 39.25 2.5" fill="#000000" fill-rule="evenodd" stroke="none"/>
    <path d="M26.7 2.8 Q26.9 3.25 26.5 3.05 26.4 2.8 26.7 2.8" fill="#000000" fill-rule="evenodd" stroke="none"/>
    <path d="M20.35 2.85 Q19.85 3.65 18.3 4.0 19.4 3.05 20.35 2.85" fill="#000000" fill-rule="evenodd" stroke="none"/>
    <path d="M4.1 2.95 Q4.3 2.75 4.5 2.95 4.7 3.15 4.5 3.35 4.0 3.4 4.1 2.95" fill="#000000" fill-rule="evenodd" stroke="none"/>
    <path d="M26.0 3.35 Q26.05 3.0 26.35 3.15 L26.25 3.4 26.0 3.35" fill="#000000" fill-rule="evenodd" stroke="none"/>
    <path d="M14.3 3.05 Q14.45 3.9 14.05 3.85 L14.05 3.35 Q14.05 3.05 14.3 3.05" fill="#000000" fill-rule="evenodd" stroke="none"/>
    <path d="M29.95 3.35 Q30.05 3.85 29.5 4.25 28.9 4.7 28.6 4.25 29.2 4.25 29.95 3.35" fill="#000000" fill-rule="evenodd" stroke="none"/>
    <path d="M30.35 3.55 L30.2 4.25 Q30.0 4.7 30.1 4.95 L29.35 4.45 29.9 4.65 30.0 4.0 Q30.1 3.55 30.35 3.55" fill="#000000" fill-rule="evenodd" stroke="none"/>
    <path d="M7.85 3.55 L8.25 4.15 Q8.45 4.5 8.25 4.75 L7.85 4.1 Q7.6 3.5 7.85 3.55" fill="#000000" fill-rule="evenodd" stroke="none"/>
    <path d="M20.5 3.6 L20.45 3.95 Q20.35 4.1 20.15 3.85 L20.5 3.6" fill="#000000" fill-rule="evenodd" stroke="none"/>
    <path d="M13.85 3.65 L13.95 4.05 13.7 4.3 Q13.4 3.8 13.85 3.65" fill="#000000" fill-rule="evenodd" stroke="none"/>
    <path d="M39.1 4.0 Q39.15 4.75 37.25 5.65 37.05 5.2 37.5 4.95 L38.25 4.65 38.55 4.2 Q38.75 3.95 39.1 4.0" fill="#000000" fill-rule="evenodd" stroke="none"/>
    <path d="M30.5 4.15 L30.65 4.65 30.4 5.1 30.35 4.55 Q30.3 4.15 30.5 4.15" fill="#000000" fill-rule="evenodd" stroke="none"/>
    <path d="M7.7 4.5 L7.85 4.85 7.85 5.15 Q7.55 4.65 7.7 4.5" fill="#000000" fill-rule="evenodd" stroke="none"/>
    <path d="M31.0 5.45 L30.8 5.05 Q30.7 4.75 30.9 4.7 L31.1 5.1 31.0 5.45" fill="#000000" fill-rule="evenodd" stroke="none"/>
    <path d="M-22.7 4.75 Q-22.5 4.55 -22.3 4.75 -22.1 4.95 -22.25 5.15 -22.7 5.25 -22.7 4.75" fill="#000000" fill-rule="evenodd" stroke="none"/>
    <path d="M19.4 4.85 L19.7 6.15 20.15 7.45 Q19.65 7.4 19.45 6.55 19.3 5.75 18.65 5.85 18.05 5.9 17.4 6.45 L16.25 7.25 Q16.75 5.9 18.8 5.45 L18.6 5.1 Q18.9 5.05 19.25 5.3 19.2 5.0 19.4 4.85" fill="#000000" fill-rule="evenodd" stroke="none"/>
    <path d="M17.55 4.9 Q17.7 4.75 17.85 4.9 L17.85 5.15 Q17.55 5.2 17.55 4.9" fill="#000000" fill-rule="evenodd" stroke="none"/>
    <path d="M16.95 4.95 L16.55 5.6 16.0 5.85 16.95 4.95" fill="#000000" fill-rule="evenodd" stroke="none"/>
    <path d="M24.1 5.7 Q23.4 5.8 24.05 5.5 24.65 5.2 24.1 5.7" fill="#000000" fill-rule="evenodd" stroke="none"/>
    <path d="M-16.15 5.35 Q-15.8 5.3 -15.35 5.75 L-15.75 5.6 Q-16.0 5.4 -16.15 5.35" fill="#000000" fill-rule="evenodd" stroke="none"/>
    <path d="M38.05 5.5 L38.1 5.75 37.85 5.85 Q37.85 5.45 38.05 5.5" fill="#000000" fill-rule="evenodd" stroke="none"/>
    <path d="M27.7 5.65 L27.6 5.9 27.45 5.65 27.7 5.65" fill="#000000" fill-rule="evenodd" stroke="none"/>
    <path d="M6.8 6.95 L6.35 6.8 6.7 6.35 6.95 5.85 Q7.15 6.05 6.95 6.4 L6.8 6.95" fill="#000000" fill-rule="evenodd" stroke="none"/>
    <path d="M-33.55 6.05 L-33.4 6.3 -33.5 6.6 -33.75 6.35 -33.55 6.05" fill="#000000" fill-rule="evenodd" stroke="none"/>
    <path d="M36.15 6.25 Q36.25 6.05 36.65 6.1 37.05 6.15 36.9 6.45 L36.45 6.45 36.15 6.25" fill="#000000" fill-rule="evenodd" stroke="none"/>
    <path d="M28.05 6.45 Q28.65 5.95 28.3 6.65 28.0 7.35 28.05 6.45" fill="#000000" fill-rule="evenodd" stroke="none"/>
    <path d="M14.8 7.05 Q14.75 6.85 14.95 6.75 L15.25 6.75 14.8 7.05" fill="#000000" fill-rule="evenodd" stroke="none"/>
    <path d="M-6.45 6.8 L-6.4 7.0 -6.6 7.05 -6.45 6.8" fill="#000000" fill-rule="evenodd" stroke="none"/>
    <path d="M8.5 6.85 Q8.7 7.15 8.35 7.3 7.9 7.45 7.95 7.0 L8.5 6.85" fill="#000000" fill-rule="evenodd" stroke="none"/>
    <path d="M6.2 6.85 Q6.4 6.85 6.55 7.0 L6.6 7.25 Q6.15 7.15 6.2 6.85" fill="#000000" fill-rule="evenodd" stroke="none"/>
    <path d="M6.2 7.2 L6.45 7.7 Q6.2 7.75 6.05 7.45 5.9 7.15 6.2 7.2" fill="#000000" fill-rule="evenodd" stroke="none"/>
    <path d="M17.65 7.25 L17.65 7.45 17.35 7.35 17.65 7.25" fill="#000000" fill-rule="evenodd" stroke="none"/>
    <path d="M29.2 7.4 L29.2 7.75 28.95 7.55 29.2 7.4" fill="#000000" fill-rule="evenodd" stroke="none"/>
    <path d="M31.25 7.55 Q31.5 7.8 31.35 8.05 L31.0 7.8 Q31.0 7.55 31.25 7.55" fill="#000000" fill-rule="evenodd" stroke="none"/>
    <path d="M-6.85 7.85 L-6.85 8.1 -7.1 8.0 -6.85 7.85" fill="#000000" fill-rule="evenodd" stroke="none"/>
    <path d="M5.65 7.9 L5.8 8.25 5.6 8.1 Q5.55 7.95 5.65 7.9" fill="#000000" fill-rule="evenodd" stroke="none"/>
    <path d="M-5.95 7.95 Q-5.8 8.1 -5.9 8.25 -5.95 8.4 -6.15 8.35 -6.15 7.9 -5.95 7.95" fill="#000000" fill-rule="evenodd" stroke="none"/>
    <path d="M27.25 8.1 Q27.3 7.95 27.45 8.1 L27.45 8.35 Q27.15 8.45 27.25 8.1" fill="#000000" fill-rule="evenodd" stroke="none"/>
    <path d="M6.4 8.35 Q6.55 8.2 6.7 8.35 L6.65 8.65 Q6.35 8.65 6.4 8.35" fill="#000000" fill-rule="evenodd" stroke="none"/>
    <path d="M31.45 8.35 L31.5 8.7 31.25 8.85 31.15 8.55 Q31.2 8.3 31.45 8.35" fill="#000000" fill-rule="evenodd" stroke="none"/>
    <path d="M19.0 8.35 L19.15 8.7 Q18.85 8.75 18.85 8.6 18.8 8.4 19.0 8.35" fill="#000000" fill-rule="evenodd" stroke="none"/>
    <path d="M18.45 8.95 L18.6 9.2 18.4 9.4 18.25 9.15 18.45 8.95" fill="#000000" fill-rule="evenodd" stroke="none"/>
    <path d="M27.25 9.2 Q27.4 9.05 27.55 9.2 L27.5 9.45 Q27.2 9.55 27.25 9.2" fill="#000000" fill-rule="evenodd" stroke="none"/>
    <path d="M17.9 9.55 L18.2 9.5 18.2 9.8 17.9 9.55" fill="#000000" fill-rule="evenodd" stroke="none"/>
    <path d="M30.3 9.55 L30.15 9.8 30.05 9.6 30.3 9.55" fill="#000000" fill-rule="evenodd" stroke="none"/>
    <path d="M8.05 9.65 L8.15 9.85 8.0 10.0 7.85 9.8 8.05 9.65" fill="#000000" fill-rule="evenodd" stroke="none"/>
    <path d="M7.1 9.75 L7.1 10.05 Q6.85 10.05 6.85 9.9 6.85 9.75 7.1 9.75" fill="#000000" fill-rule="evenodd" stroke="none"/>
    <path d="M5.65 9.8 L5.95 9.95 5.95 10.2 Q5.65 10.2 5.65 9.8" fill="#000000" fill-rule="evenodd" stroke="none"/>
    <path d="M11.5 9.85 L12.15 10.3 Q12.65 10.6 12.8 10.85 12.45 10.9 12.05 10.55 L11.35 10.05 11.5 9.85" fill="#000000" fill-rule="evenodd" stroke="none"/>
    <path d="M9.35 9.85 Q9.7 9.9 9.95 10.1 L10.15 10.55 9.65 10.35 9.35 9.85" fill="#000000" fill-rule="evenodd" stroke="none"/>
    <path d="M10.65 9.95 L11.2 10.25 11.6 10.6 10.95 10.4 Q10.6 10.15 10.65 9.95" fill="#000000" fill-rule="evenodd" stroke="none"/>
    <path d="M4.3 10.0 Q4.55 9.95 4.6 10.15 L4.35 10.35 4.3 10.0" fill="#000000" fill-rule="evenodd" stroke="none"/>
    <path d="M12.65 10.05 L13.75 10.95 Q13.35 11.1 12.95 10.7 12.5 10.35 12.65 10.05" fill="#000000" fill-rule="evenodd" stroke="none"/>
    <path d="M4.5 10.55 Q5.25 10.45 6.0 11.55 L4.5 10.55" fill="#000000" fill-rule="evenodd" stroke="none"/>
    <path d="M6.65 10.6 L6.55 10.75 6.4 10.6 6.65 10.6" fill="#000000" fill-rule="evenodd" stroke="none"/>
    <path d="M8.95 10.7 L9.2 10.7 9.2 10.95 Q8.85 11.05 8.95 10.7" fill="#000000" fill-rule="evenodd" stroke="none"/>
    <path d="M7.9 10.6 Q8.4 10.6 8.2 10.9 8.0 11.3 7.9 10.6" fill="#000000" fill-rule="evenodd" stroke="none"/>
    <path d="M27.25 10.95 Q27.2 10.65 27.35 10.7 L27.5 10.95 27.35 11.05 27.25 10.95" fill="#000000" fill-rule="evenodd" stroke="none"/>
    <path d="M32.95 11.05 Q33.4 10.75 33.45 11.05 L33.1 11.35 32.95 11.05" fill="#000000" fill-rule="evenodd" stroke="none"/>
    <path d="M33.85 10.95 L33.7 11.3 33.55 11.15 33.85 10.95" fill="#000000" fill-rule="evenodd" stroke="none"/>
    <path d="M-18.25 11.05 Q-18.95 12.1 -18.95 12.75 L-19.05 13.45 -19.45 13.9 Q-19.25 13.7 -19.1 12.3 -18.95 11.2 -18.25 11.05" fill="#000000" fill-rule="evenodd" stroke="none"/>
    <path d="M10.7 11.7 Q10.5 11.6 10.65 11.45 10.75 11.3 10.95 11.45 L10.7 11.7" fill="#000000" fill-rule="evenodd" stroke="none"/>
    <path d="M6.2 11.35 Q6.85 11.6 7.75 12.85 L7.2 12.6 Q6.85 12.3 7.1 12.1 L6.6 11.8 6.2 11.35" fill="#000000" fill-rule="evenodd" stroke="none"/>
    <path d="M28.35 11.45 L28.35 11.75 Q28.0 11.8 28.0 11.5 L28.35 11.45" fill="#000000" fill-rule="evenodd" stroke="none"/>
    <path d="M31.95 12.45 Q31.65 13.05 31.95 13.05 L32.1 12.8 32.2 13.5 31.85 13.95 31.85 13.6 31.95 13.15 Q31.45 13.5 31.65 12.65 31.85 11.85 32.15 11.55 L31.95 12.45" fill="#000000" fill-rule="evenodd" stroke="none"/>
    <path d="M31.35 12.75 Q31.5 13.1 31.1 13.45 L31.25 14.4 31.35 16.4 Q30.95 16.2 30.9 15.4 L30.85 14.25 Q30.4 16.7 30.25 18.55 29.7 18.15 29.75 17.05 L29.75 15.4 29.3 17.55 29.3 18.45 Q29.25 18.75 28.8 18.8 29.1 18.45 29.05 17.4 L28.9 15.95 28.55 17.2 27.9 18.35 27.9 16.55 28.05 14.75 28.1 13.4 Q28.15 12.6 28.35 12.1 L28.45 13.35 28.55 14.55 28.85 13.1 Q29.0 12.15 29.3 11.65 L29.35 13.45 Q29.35 14.5 29.5 15.25 L29.8 13.6 Q29.85 12.5 30.25 12.05 L30.2 13.35 Q30.1 14.2 30.25 14.65 L30.55 13.45 Q30.75 12.6 31.35 12.75" fill="#000000" fill-rule="evenodd" stroke="none"/>
    <path d="M26.35 12.1 L26.45 12.25 26.2 12.3 26.35 12.1" fill="#000000" fill-rule="evenodd" stroke="none"/>
    <path d="M33.55 12.4 L33.7 12.2 33.9 12.4 33.55 12.4" fill="#000000" fill-rule="evenodd" stroke="none"/>
    <path d="M9.0 12.2 L9.3 12.2 9.25 12.45 Q8.9 12.55 9.0 12.2" fill="#000000" fill-rule="evenodd" stroke="none"/>
    <path d="M11.6 12.25 L11.7 12.45 11.55 12.6 11.45 12.4 11.6 12.25" fill="#000000" fill-rule="evenodd" stroke="none"/>
    <path d="M10.4 12.25 L10.55 12.45 10.35 12.6 10.2 12.4 10.4 12.25" fill="#000000" fill-rule="evenodd" stroke="none"/>
    <path d="M-27.6 12.55 L-27.2 12.5 -27.05 12.8 -27.4 12.85 -27.6 12.55" fill="#000000" fill-rule="evenodd" stroke="none"/>
    <path d="M8.3 12.55 L8.35 12.8 Q8.1 12.8 8.15 12.65 8.2 12.5 8.3 12.55" fill="#000000" fill-rule="evenodd" stroke="none"/>
    <path d="M34.2 12.75 L34.05 13.35 33.5 13.75 Q33.65 12.9 34.2 12.75" fill="#000000" fill-rule="evenodd" stroke="none"/>
    <path d="M3.35 12.8 Q3.6 12.75 3.7 13.2 L3.6 13.75 Q3.35 13.5 3.35 12.8" fill="#000000" fill-rule="evenodd" stroke="none"/>
    <path d="M33.45 13.0 L33.3 13.6 Q33.2 13.9 32.9 13.75 L33.15 13.2 Q33.4 12.7 33.45 13.0" fill="#000000" fill-rule="evenodd" stroke="none"/>
    <path d="M35.5 13.45 L35.8 13.45 35.65 13.7 35.5 13.45" fill="#000000" fill-rule="evenodd" stroke="none"/>
    <path d="M31.4 13.6 L31.65 14.2 Q31.8 14.6 32.1 14.65 32.0 15.3 31.55 14.65 31.1 14.0 31.4 13.6" fill="#000000" fill-rule="evenodd" stroke="none"/>
    <path d="M32.35 13.65 L32.55 14.4 32.9 15.15 Q32.9 14.85 33.25 14.85 L33.1 15.5 32.75 16.0 Q31.9 14.4 32.35 13.65" fill="#000000" fill-rule="evenodd" stroke="none"/>
    <path d="M26.85 14.05 L27.1 14.0 27.1 14.3 Q26.75 14.4 26.85 14.05" fill="#000000" fill-rule="evenodd" stroke="none"/>
    <path d="M6.55 14.25 L6.95 14.15 7.3 14.3 6.85 14.4 Q6.6 14.4 6.55 14.25" fill="#000000" fill-rule="evenodd" stroke="none"/>
    <path d="M-19.85 14.15 Q-19.85 14.6 -20.5 14.7 L-21.45 14.55 -20.6 14.45 -19.85 14.15" fill="#000000" fill-rule="evenodd" stroke="none"/>
    <path d="M6.05 14.3 Q6.15 14.55 5.9 14.6 5.6 14.6 5.6 14.45 L6.05 14.3" fill="#000000" fill-rule="evenodd" stroke="none"/>
    <path d="M4.35 14.45 Q5.3 14.5 4.75 14.7 4.2 14.9 4.35 14.45" fill="#000000" fill-rule="evenodd" stroke="none"/>
    <path d="M6.95 15.05 L7.55 14.95 Q7.95 15.1 7.9 15.4 L6.95 15.05" fill="#000000" fill-rule="evenodd" stroke="none"/>
    <path d="M5.3 15.05 Q5.45 14.9 5.75 14.9 L6.05 15.15 5.6 15.25 5.3 15.05" fill="#000000" fill-rule="evenodd" stroke="none"/>
    <path d="M-11.65 15.1 L-11.4 15.25 -11.5 15.45 -11.65 15.1" fill="#000000" fill-rule="evenodd" stroke="none"/>
    <path d="M6.05 15.4 L6.75 15.3 Q7.15 15.4 7.15 15.8 L6.05 15.4" fill="#000000" fill-rule="evenodd" stroke="none"/>
    <path d="M6.0 15.65 Q6.45 15.55 6.85 15.8 L7.35 16.45 Q6.5 16.2 6.0 15.65" fill="#000000" fill-rule="evenodd" stroke="none"/>
    <path d="M27.15 15.75 Q27.25 15.55 27.4 15.7 L27.4 16.0 Q27.15 16.05 27.15 15.75" fill="#000000" fill-rule="evenodd" stroke="none"/>
    <path d="M-11.55 15.85 L-11.55 16.2 -11.55 16.4 -11.7 16.15 -11.55 15.85" fill="#000000" fill-rule="evenodd" stroke="none"/>
    <path d="M7.9 16.75 Q7.95 16.45 8.2 16.5 8.45 16.6 8.4 16.85 L8.2 16.85 7.9 16.75" fill="#000000" fill-rule="evenodd" stroke="none"/>
    <path d="M6.8 16.45 L7.0 16.75 7.15 17.1 6.85 16.8 Q6.65 16.5 6.8 16.45" fill="#000000" fill-rule="evenodd" stroke="none"/>
    <path d="M-8.15 16.55 Q-6.75 16.85 -5.75 18.45 L-8.15 16.55" fill="#000000" fill-rule="evenodd" stroke="none"/>
    <path d="M-8.5 16.95 Q-7.35 17.35 -7.1 18.5 L-8.5 16.95" fill="#000000" fill-rule="evenodd" stroke="none"/>
    <path d="M-21.55 17.3 Q-21.2 17.15 -21.1 17.45 L-21.4 17.55 -21.55 17.3" fill="#000000" fill-rule="evenodd" stroke="none"/>
    <path d="M6.8 17.3 L6.95 17.7 6.85 18.15 Q6.45 17.35 6.8 17.3" fill="#000000" fill-rule="evenodd" stroke="none"/>
    <path d="M31.2 17.45 L31.1 18.45 31.0 19.4 30.9 18.3 Q30.85 17.65 31.2 17.45" fill="#000000" fill-rule="evenodd" stroke="none"/>
    <path d="M-11.3 17.65 L-11.6 18.1 -12.0 18.45 Q-11.8 17.85 -11.3 17.65" fill="#000000" fill-rule="evenodd" stroke="none"/>
    <path d="M6.05 17.7 Q6.65 18.3 6.35 18.6 L5.9 18.1 Q5.7 17.65 6.05 17.7" fill="#000000" fill-rule="evenodd" stroke="none"/>
    <path d="M34.1 17.95 Q34.25 17.8 34.4 17.95 L34.4 18.25 Q34.1 18.25 34.1 17.95" fill="#000000" fill-rule="evenodd" stroke="none"/>
    <path d="M-11.15 18.25 Q-11.2 18.95 -12.2 19.55 L-11.15 18.25" fill="#000000" fill-rule="evenodd" stroke="none"/>
    <path d="M-8.7 18.55 L-8.55 19.05 -8.6 19.55 -8.7 18.55" fill="#000000" fill-rule="evenodd" stroke="none"/>
    <path d="M-2.5 18.8 L-2.25 18.7 Q-2.0 18.7 -2.05 18.85 L-2.3 18.95 -2.5 18.8" fill="#000000" fill-rule="evenodd" stroke="none"/>
    <path d="M-11.05 19.15 Q-11.05 19.5 -11.35 19.85 L-12.05 20.35 -11.05 19.15" fill="#000000" fill-rule="evenodd" stroke="none"/>
    <path d="M33.65 19.35 L33.7 19.6 33.55 19.75 Q33.4 19.45 33.65 19.35" fill="#000000" fill-rule="evenodd" stroke="none"/>
    <path d="M3.0 19.85 L3.35 19.75 3.6 20.0 3.25 20.1 3.0 19.85" fill="#000000" fill-rule="evenodd" stroke="none"/>
    <path d="M28.95 19.95 L29.0 20.1 28.9 20.2 28.85 20.1 28.95 19.95" fill="#000000" fill-rule="evenodd" stroke="none"/>
    <path d="M3.9 20.05 L4.15 20.0 4.25 20.2 Q3.9 20.35 3.9 20.05" fill="#000000" fill-rule="evenodd" stroke="none"/>
    <path d="M29.7 20.15 L29.75 20.35 Q29.5 20.45 29.5 20.15 L29.7 20.15" fill="#000000" fill-rule="evenodd" stroke="none"/>
    <path d="M4.65 20.45 Q4.85 20.25 5.0 20.45 L5.05 20.85 Q4.6 20.85 4.65 20.45" fill="#000000" fill-rule="evenodd" stroke="none"/>
    <path d="M-0.2 21.05 L1.0 20.95 0.35 21.0 -0.2 21.05" fill="#000000" fill-rule="evenodd" stroke="none"/>
    <path d="M5.45 21.3 Q5.55 21.15 5.7 21.3 L5.6 21.5 5.45 21.3" fill="#000000" fill-rule="evenodd" stroke="none"/>
    <path d="M24.5 21.35 Q24.65 21.2 24.8 21.35 L24.8 21.65 Q24.5 21.65 24.5 21.35" fill="#000000" fill-rule="evenodd" stroke="none"/>
    <path d="M6.05 21.7 Q6.55 21.7 6.95 22.9 7.3 24.05 7.15 24.55 L6.7 23.1 6.05 21.7" fill="#000000" fill-rule="evenodd" stroke="none"/>
    <path d="M27.25 21.95 L27.55 21.9 27.5 22.2 Q27.2 22.3 27.25 21.95" fill="#000000" fill-rule="evenodd" stroke="none"/>
    <path d="M30.05 22.2 Q30.15 22.05 30.3 22.2 L30.3 22.45 Q29.95 22.55 30.05 22.2" fill="#000000" fill-rule="evenodd" stroke="none"/>
    <path d="M28.45 22.35 L28.75 22.3 28.75 22.6 28.45 22.35" fill="#000000" fill-rule="evenodd" stroke="none"/>
    <path d="M28.65 22.95 Q28.75 23.2 28.45 23.2 L28.4 22.95 28.65 22.95" fill="#000000" fill-rule="evenodd" stroke="none"/>
    <path d="M6.75 24.1 Q7.25 25.15 6.8 25.4 L6.6 24.7 Q6.5 24.05 6.75 24.1" fill="#000000" fill-rule="evenodd" stroke="none"/>
    <path d="M-6.8 24.35 L-6.75 24.55 -6.85 24.7 -6.95 24.5 -6.8 24.35" fill="#000000" fill-rule="evenodd" stroke="none"/>
    <path d="M28.8 25.2 L28.85 25.6 28.8 26.0 28.7 25.55 Q28.6 25.25 28.8 25.2" fill="#000000" fill-rule="evenodd" stroke="none"/>
    <path d="M29.15 25.55 L29.45 25.5 Q29.6 25.65 29.4 25.8 29.05 25.9 29.15 25.55" fill="#000000" fill-rule="evenodd" stroke="none"/>
    <path d="M-4.15 25.95 L-4.1 26.3 -4.35 26.4 -4.15 25.95" fill="#000000" fill-rule="evenodd" stroke="none"/>
    <path d="M-0.95 26.15 L-0.45 26.2 -0.75 26.25 -0.95 26.15" fill="#000000" fill-rule="evenodd" stroke="none"/>
    <path d="M9.15 27.45 Q9.5 27.8 9.8 27.85 9.65 27.65 9.95 27.55 L10.4 28.45 9.9 28.25 9.35 28.05 8.65 28.2 8.8 28.0 8.95 27.75 Q8.5 27.6 8.5 27.05 L9.15 27.45" fill="#000000" fill-rule="evenodd" stroke="none"/>
    <path d="M30.65 27.3 Q30.8 27.15 30.95 27.3 L30.9 27.55 Q30.55 27.65 30.65 27.3" fill="#000000" fill-rule="evenodd" stroke="none"/>
    <path d="M5.45 28.1 L5.3 28.45 5.25 28.2 5.45 28.1" fill="#000000" fill-rule="evenodd" stroke="none"/>
    <path d="M-3.2 28.45 L-2.9 28.35 Q-2.6 28.35 -2.65 28.55 L-2.95 28.6 -3.2 28.45" fill="#000000" fill-rule="evenodd" stroke="none"/>
    <path d="M7.15 28.75 Q7.1 29.25 7.6 29.55 L8.35 30.1 Q9.65 31.3 9.0 31.25 L7.7 29.9 Q6.55 28.75 7.15 28.75" fill="#000000" fill-rule="evenodd" stroke="none"/>
    <path d="M32.4 29.15 L32.6 29.7 Q32.65 30.2 32.35 30.25 L32.35 29.6 Q32.3 29.25 32.4 29.15" fill="#000000" fill-rule="evenodd" stroke="none"/>
    <path d="M11.8 29.15 L11.65 29.65 11.15 29.95 11.35 29.5 11.8 29.15" fill="#000000" fill-rule="evenodd" stroke="none"/>
    <path d="M32.95 29.6 L33.2 29.55 33.35 29.7 Q33.3 29.85 33.1 29.8 L32.95 29.6" fill="#000000" fill-rule="evenodd" stroke="none"/>
    <path d="M13.05 30.85 L13.65 31.05 Q14.05 31.2 14.15 31.45 13.9 31.45 12.6 30.85 L12.8 31.1 12.8 31.3 Q12.1 31.0 11.9 30.05 L12.45 30.25 13.0 30.65 13.05 30.5 13.15 30.35 12.8 29.7 Q13.15 29.65 13.35 30.25 L13.6 30.05 13.05 30.85" fill="#000000" fill-rule="evenodd" stroke="none"/>
    <path d="M2.5 30.25 Q1.85 30.3 1.3 30.9 L0.55 31.95 Q1.25 30.05 2.5 30.25" fill="#000000" fill-rule="evenodd" stroke="none"/>
    <path d="M-7.3 30.25 Q-7.05 30.0 -6.95 30.25 L-6.95 30.7 Q-7.3 30.65 -7.3 30.25" fill="#000000" fill-rule="evenodd" stroke="none"/>
    <path d="M28.0 30.45 L28.15 30.9 27.8 30.7 Q27.75 30.45 28.0 30.45" fill="#000000" fill-rule="evenodd" stroke="none"/>
    <path d="M34.55 30.75 Q34.55 31.55 33.9 31.15 34.15 30.8 34.55 30.75" fill="#000000" fill-rule="evenodd" stroke="none"/>
    <path d="M9.85 30.75 Q9.85 31.45 9.4 31.6 9.15 31.1 9.85 30.75" fill="#000000" fill-rule="evenodd" stroke="none"/>
    <path d="M8.3 31.55 L8.45 31.75 8.5 32.05 8.2 31.85 Q8.1 31.6 8.3 31.55" fill="#000000" fill-rule="evenodd" stroke="none"/>
    <path d="M28.25 31.75 L28.3 32.0 28.05 32.05 Q28.05 31.7 28.25 31.75" fill="#000000" fill-rule="evenodd" stroke="none"/>
    <path d="M34.6 31.95 L35.05 31.9 Q35.35 31.9 35.4 32.05 L34.6 31.95" fill="#000000" fill-rule="evenodd" stroke="none"/>
    <path d="M-3.9 32.4 Q-3.75 32.5 -3.85 32.65 L-4.1 32.75 -4.15 32.5 -3.9 32.4" fill="#000000" fill-rule="evenodd" stroke="none"/>
    <path d="M16.6 33.35 Q16.8 33.65 17.15 33.5 17.55 33.35 17.75 33.5 L17.6 33.65 17.35 33.75 18.3 34.5 17.55 34.1 16.85 34.05 16.35 34.15 16.0 33.85 Q15.95 33.75 16.15 33.75 L16.25 33.7 15.85 33.3 15.55 32.9 15.85 33.0 16.15 33.1 15.6 32.6 Q16.05 32.55 16.6 33.35" fill="#000000" fill-rule="evenodd" stroke="none"/>
    <path d="M6.85 32.85 L6.6 32.9 6.4 32.8 6.65 32.75 6.85 32.85" fill="#000000" fill-rule="evenodd" stroke="none"/>
    <path d="M-0.55 32.75 Q-0.75 34.05 -1.65 34.65 L-0.55 32.75" fill="#000000" fill-rule="evenodd" stroke="none"/>
    <path d="M27.9 32.95 Q28.1 33.35 27.85 33.3 L27.8 33.1 Q27.8 32.95 27.9 32.95" fill="#000000" fill-rule="evenodd" stroke="none"/>
    <path d="M1.45 33.15 Q1.5 33.05 1.6 33.1 L1.75 33.25 1.6 33.3 1.45 33.15" fill="#000000" fill-rule="evenodd" stroke="none"/>
    <path d="M34.4 33.55 L34.75 33.55 34.55 33.85 Q34.35 33.85 34.4 33.55" fill="#000000" fill-rule="evenodd" stroke="none"/>
    <path d="M-2.85 34.8 L-1.85 33.5 -2.25 34.3 -2.85 34.8" fill="#000000" fill-rule="evenodd" stroke="none"/>
    <path d="M9.6 33.85 L9.85 33.8 10.0 34.05 9.75 34.1 9.6 33.85" fill="#000000" fill-rule="evenodd" stroke="none"/>
    <path d="M-2.55 34.35 L-3.65 34.8 Q-3.65 34.2 -2.55 34.35" fill="#000000" fill-rule="evenodd" stroke="none"/>
    <path d="M-1.95 34.8 L-1.7 34.75 -1.5 34.95 -1.95 34.8" fill="#000000" fill-rule="evenodd" stroke="none"/>
    <path d="M19.6 34.85 L20.65 35.3 21.5 35.95 20.4 35.7 Q19.8 35.4 19.6 34.85" fill="#000000" fill-rule="evenodd" stroke="none"/>
    <path d="M-2.1 35.2 Q-1.9 35.15 -1.75 35.35 L-2.2 35.6 -2.5 35.4 Q-2.35 35.25 -2.15 35.55 L-2.1 35.2" fill="#000000" fill-rule="evenodd" stroke="none"/>
    <path d="M26.15 35.65 L26.2 35.95 26.0 36.0 26.15 35.65" fill="#ffffff" fill-rule="evenodd" stroke="none"/>
    <path d="M28.15 36.25 Q27.95 35.85 28.3 36.0 28.65 36.15 28.15 36.25" fill="#000000" fill-rule="evenodd" stroke="none"/>
    <path d="M27.85 36.5 Q28.05 36.7 27.85 36.85 L27.65 36.7 27.85 36.5" fill="#000000" fill-rule="evenodd" stroke="none"/>
    <path d="M13.35 36.65 L14.2 37.35 14.9 38.05 Q14.4 38.1 13.9 37.6 L13.35 36.65" fill="#000000" fill-rule="evenodd" stroke="none"/>
    <path d="M22.95 36.85 L22.8 37.1 Q22.6 37.2 22.6 36.9 L22.95 36.85" fill="#000000" fill-rule="evenodd" stroke="none"/>
    <path d="M23.75 37.1 Q24.35 36.95 24.7 37.65 24.4 37.75 23.75 37.1" fill="#000000" fill-rule="evenodd" stroke="none"/>
    <path d="M10.35 37.25 L10.75 37.65 10.5 37.55 10.35 37.25" fill="#000000" fill-rule="evenodd" stroke="none"/>
    <path d="M5.1 37.35 L5.15 37.6 4.9 37.5 5.1 37.35" fill="#000000" fill-rule="evenodd" stroke="none"/>
    <path d="M16.6 38.65 L16.8 38.75 16.9 38.95 16.65 38.85 16.6 38.65" fill="#000000" fill-rule="evenodd" stroke="none"/>
    <path d="M18.25 39.3 L18.1 39.55 18.0 39.3 18.25 39.3" fill="#000000" fill-rule="evenodd" stroke="none"/>
    <path d="M20.75 40.65 Q21.2 40.65 21.3 41.0 L20.95 40.95 20.75 40.65" fill="#000000" fill-rule="evenodd" stroke="none"/>
    <path d="M21.75 41.45 Q22.55 41.55 22.7 41.85 L22.15 41.9 21.75 41.45" fill="#000000" fill-rule="evenodd" stroke="none"/>
    <path d="M27.6 42.25 L28.25 42.1 28.9 42.15 29.35 41.85 29.85 41.8 Q29.7 42.4 28.85 42.55 28.05 42.65 27.6 42.25" fill="#000000" fill-rule="evenodd" stroke="none"/>
    <path d="M22.55 42.85 Q22.25 42.4 22.75 42.0 L23.55 42.05 Q23.6 41.75 24.45 42.3 L25.45 42.95 24.6 42.85 23.9 42.35 23.1 42.25 22.55 42.85" fill="#000000" fill-rule="evenodd" stroke="none"/>
    <path d="M10.4 42.2 L10.85 42.15 11.1 42.4 Q10.55 42.5 10.4 42.2" fill="#000000" fill-rule="evenodd" stroke="none"/>
    <path d="M26.0 42.85 L27.45 42.35 26.9 42.95 26.0 42.85" fill="#000000" fill-rule="evenodd" stroke="none"/>
    <path d="M16.25 42.35 Q17.05 42.1 17.95 42.35 19.35 42.6 19.6 42.95 L18.75 42.85 17.85 42.55 17.0 42.6 16.25 42.35" fill="#000000" fill-rule="evenodd" stroke="none"/>
    <path d="M15.2 42.4 Q16.05 42.7 17.05 43.85 15.65 43.55 15.2 42.4" fill="#000000" fill-rule="evenodd" stroke="none"/>
    <path d="M10.2 42.7 L10.8 42.7 11.25 43.1 10.6 43.15 Q10.2 43.0 10.2 42.7" fill="#000000" fill-rule="evenodd" stroke="none"/>
    <path d="M7.2 42.95 L7.5 42.95 7.65 43.25 7.35 43.25 7.2 42.95" fill="#000000" fill-rule="evenodd" stroke="none"/>
    <path d="M20.1 43.1 Q21.0 43.15 20.5 43.35 20.0 43.55 20.1 43.1" fill="#000000" fill-rule="evenodd" stroke="none"/>
    <path d="M21.85 43.25 L21.6 43.55 21.2 43.55 Q21.25 43.25 21.85 43.25" fill="#000000" fill-rule="evenodd" stroke="none"/>
    <path d="M10.0 43.35 L11.1 43.45 11.85 44.0 Q10.5 44.1 10.0 43.35" fill="#000000" fill-rule="evenodd" stroke="none"/>
    <path d="M8.65 43.45 L9.05 43.4 9.25 43.7 8.85 43.75 8.65 43.45" fill="#000000" fill-rule="evenodd" stroke="none"/>
    <path d="M17.25 43.55 L18.4 44.65 Q17.5 44.45 17.25 43.55" fill="#000000" fill-rule="evenodd" stroke="none"/>
    <path d="M22.45 44.25 L22.45 44.55 Q22.2 44.55 22.2 44.25 L22.45 44.25" fill="#000000" fill-rule="evenodd" stroke="none"/>
    <path d="M19.75 45.0 L20.2 44.95 20.35 45.35 19.95 45.4 Q19.7 45.3 19.75 45.0" fill="#000000" fill-rule="evenodd" stroke="none"/>
    <path d="M37.95 -16.5 L37.95 -16.35 37.8 -15.85 37.4 -16.6 37.0 -17.35 37.3 -17.3 36.7 -18.0 35.95 -18.65 Q35.55 -19.0 34.9 -20.25 34.35 -21.3 33.55 -23.8 L32.0 -27.25 30.85 -28.75 30.4 -28.9 30.15 -28.65 Q30.4 -29.9 29.4 -30.75 29.3 -30.55 29.65 -29.9 L29.0 -30.85 28.2 -31.65 28.55 -31.0 28.75 -30.3 27.75 -31.3 26.95 -32.5 27.25 -31.9 27.45 -31.2 26.7 -32.0 25.75 -32.45 26.8 -31.35 27.25 -30.65 27.6 -30.8 27.75 -30.0 28.55 -28.9 30.15 -25.95 28.5 -28.15 26.7 -30.25 27.25 -29.35 26.5 -29.95 25.8 -30.6 29.35 -25.05 30.95 -22.0 31.65 -20.85 32.1 -19.7 31.85 -21.05 Q32.3 -20.45 32.75 -18.55 32.8 -19.55 32.2 -21.1 31.55 -22.85 31.45 -23.55 32.2 -22.7 32.8 -20.6 L33.35 -19.2 33.6 -17.85 Q34.05 -18.2 33.95 -19.2 L33.85 -20.75 Q34.4 -19.5 34.4 -17.45 L34.65 -18.55 Q35.0 -18.35 34.8 -17.25 35.2 -17.55 35.15 -18.25 L34.85 -19.4 Q35.5 -18.75 35.3 -17.8 35.1 -16.75 34.15 -16.65 33.3 -16.55 32.0 -17.2 L30.05 -18.2 31.25 -15.6 32.2 -12.85 Q31.95 -12.95 31.85 -13.45 L31.6 -14.25 30.4 -16.45 30.5 -15.85 30.5 -15.2 29.65 -17.1 28.8 -19.05 29.7 -16.35 28.25 -19.4 Q28.3 -18.25 29.1 -16.0 L27.85 -18.75 Q27.55 -18.1 28.25 -16.35 L27.15 -19.05 Q27.9 -16.75 27.8 -12.2 28.2 -12.5 28.2 -14.25 28.35 -13.2 28.65 -13.0 29.0 -13.1 28.8 -14.05 L29.15 -13.45 Q29.35 -13.4 29.35 -13.95 L29.95 -13.0 Q30.2 -13.1 30.05 -13.25 L30.85 -12.35 29.4 -12.45 Q28.55 -12.3 28.15 -11.75 L27.6 -11.0 27.35 -10.7 27.25 -10.3 Q26.85 -10.5 26.75 -10.0 L26.35 -10.1 25.95 -10.15 26.1 -9.95 25.15 -9.9 25.35 -9.7 25.6 -9.55 Q24.15 -9.45 23.3 -9.9 L22.7 -10.45 22.2 -11.05 Q20.95 -11.6 20.6 -13.4 19.85 -16.7 21.5 -20.35 L21.4 -19.35 21.2 -18.25 21.9 -20.05 22.45 -21.85 22.4 -21.0 22.2 -20.15 22.65 -21.25 Q22.85 -22.0 23.2 -22.25 23.4 -21.95 23.1 -21.45 24.25 -23.05 26.1 -22.65 25.25 -23.4 22.75 -24.0 20.4 -24.55 19.5 -25.55 L21.65 -24.75 Q21.1 -25.25 19.75 -27.7 18.75 -29.65 17.3 -30.05 L18.9 -30.25 Q19.45 -30.6 19.8 -31.55 L20.7 -33.45 Q21.3 -34.4 22.4 -34.55 21.4 -33.95 21.2 -33.35 23.2 -34.35 26.85 -33.35 26.25 -34.1 25.05 -34.45 L22.9 -34.85 25.2 -34.75 23.7 -35.55 Q24.15 -35.55 24.8 -35.15 L24.1 -35.7 23.3 -36.15 24.1 -35.9 23.75 -36.5 23.15 -37.0 23.35 -37.0 22.85 -37.7 22.55 -38.2 20.9 -40.75 Q19.45 -42.5 16.55 -44.6 14.3 -46.25 11.35 -47.25 L5.65 -48.75 Q5.8 -48.2 6.6 -47.45 6.0 -47.65 5.6 -48.45 L5.3 -48.75 5.05 -48.85 5.25 -48.55 4.8 -48.85 4.2 -49.0 2.6 -49.15 -0.7 -49.35 -6.55 -48.55 Q-13.75 -46.7 -18.3 -44.15 -20.65 -42.8 -23.75 -40.45 -25.25 -39.3 -27.0 -36.45 -27.55 -35.5 -27.75 -34.0 -27.45 -33.65 -27.55 -33.1 L-27.75 -32.2 Q-28.2 -30.9 -27.7 -29.8 -27.45 -29.1 -27.6 -27.65 -27.6 -29.35 -27.95 -30.1 -28.25 -30.65 -28.15 -31.35 L-27.75 -32.6 -27.75 -33.65 -27.9 -34.7 -27.5 -35.9 -27.1 -37.15 -29.5 -34.5 -31.75 -31.7 -33.65 -28.95 -35.45 -26.05 -37.05 -22.9 -38.5 -19.75 -39.7 -16.25 -40.25 -14.95 -40.15 -14.8 -40.05 -14.7 -40.35 -14.35 -40.25 -13.9 -40.4 -13.9 -40.45 -13.7 -40.25 -13.3 -40.4 -13.35 -40.6 -13.5 Q-40.75 -12.95 -40.1 -12.0 -40.35 -11.8 -40.6 -12.55 -40.85 -12.15 -40.55 -11.65 L-40.15 -10.85 Q-40.35 -10.8 -40.75 -11.6 -41.05 -9.55 -39.15 -6.95 -39.75 -7.25 -40.2 -8.1 L-40.95 -9.4 Q-41.0 -5.7 -39.4 -1.6 L-36.05 5.7 Q-35.95 5.0 -36.45 3.65 -35.85 2.6 -36.3 1.7 L-36.15 1.4 -36.2 1.05 -36.25 0.15 -35.75 -0.9 -36.45 -1.5 Q-35.55 -1.45 -35.75 -0.65 L-36.05 0.7 -35.95 2.75 -36.15 3.5 -36.05 4.25 Q-35.75 5.25 -35.9 5.65 -36.15 6.25 -34.65 8.1 L-33.4 9.9 -32.0 11.5 -29.4 14.45 -26.8 17.2 -23.95 19.65 -24.45 18.95 -24.55 18.65 -24.45 18.55 -22.75 20.15 -20.9 21.45 -21.4 20.45 Q-19.35 22.7 -17.85 23.0 L-18.3 22.5 Q-18.65 22.25 -18.6 21.85 -16.75 23.5 -15.0 23.9 L-15.95 23.3 Q-16.6 23.0 -16.7 22.45 -15.25 23.7 -13.0 23.7 L-13.85 23.4 -14.55 22.85 Q-13.85 22.95 -12.75 23.4 -11.85 23.6 -11.1 22.8 L-12.25 23.05 Q-13.05 23.1 -13.35 22.65 -11.4 23.0 -10.65 21.5 -12.05 22.45 -12.85 22.05 L-11.9 21.75 -11.1 21.1 -12.0 21.5 -13.0 21.45 Q-11.65 21.3 -10.9 20.35 -10.65 20.05 -10.7 19.2 L-10.85 18.0 -11.0 15.45 Q-11.1 14.0 -11.45 13.0 -11.25 12.95 -11.25 13.15 L-11.35 12.35 -11.55 11.55 Q-11.15 11.75 -10.9 12.95 -10.8 12.35 -11.1 11.8 L-11.7 10.7 Q-11.4 10.75 -11.1 11.25 L-10.7 12.05 -11.3 9.95 -10.85 10.55 Q-10.75 10.15 -11.05 9.5 L-11.45 8.55 Q-11.25 8.55 -11.1 8.75 -11.15 8.05 -11.95 7.6 L-13.35 7.0 Q-11.2 7.1 -10.55 8.15 -10.35 7.2 -11.15 5.25 -10.75 5.25 -10.35 6.0 -10.25 5.6 -10.45 5.15 -10.8 4.7 -11.25 4.75 -11.35 4.2 -10.7 4.55 L-10.0 5.1 Q-10.3 4.25 -11.25 4.05 -10.95 3.65 -10.45 4.05 L-9.8 4.5 Q-10.1 3.5 -11.45 3.4 L-10.7 3.3 -10.15 3.75 Q-10.1 3.4 -10.45 3.1 -10.85 2.85 -11.15 2.8 -12.3 2.65 -12.6 3.55 -12.6 2.35 -11.15 2.55 -9.75 2.7 -9.6 3.8 -9.4 1.05 -8.5 -0.05 L-8.8 1.05 -9.05 2.1 Q-9.1 2.55 -8.3 2.75 L-6.95 2.95 Q-5.95 3.0 -4.45 2.3 -2.75 1.55 -2.05 1.45 -3.35 2.25 -3.9 2.35 L-1.55 1.65 0.55 0.35 0.2 0.95 -0.4 1.3 0.85 0.95 2.1 0.4 1.65 0.8 3.55 0.25 5.4 -0.45 6.35 -1.15 7.2 -2.2 Q7.0 -1.55 5.95 -0.7 6.85 -0.8 7.85 -1.55 L9.6 -2.8 Q9.65 -2.45 9.15 -2.1 L8.65 -1.45 Q9.4 -1.35 10.0 -2.45 L10.5 -3.2 Q10.35 -3.4 10.5 -3.6 10.65 -3.1 10.3 -2.25 L10.0 -0.9 10.6 -1.4 11.15 -2.15 10.85 -1.25 10.55 -0.35 Q10.8 -0.3 11.0 -0.6 L11.35 -1.05 11.3 -0.2 Q11.2 0.35 11.5 0.6 L11.6 -0.25 Q11.65 -0.75 11.85 -1.05 L12.05 0.35 Q12.0 1.35 12.1 1.75 12.55 3.15 13.2 4.0 13.85 4.75 13.7 6.3 13.5 8.05 13.75 8.75 L14.7 7.75 Q15.45 7.1 15.65 7.35 L15.6 7.25 Q16.0 7.25 16.0 6.8 L16.5 8.85 16.8 9.85 Q17.05 10.35 17.6 10.2 19.1 9.75 20.05 8.55 L20.65 7.95 21.35 7.65 22.3 7.2 23.3 6.2 23.5 5.9 23.55 5.7 Q23.8 5.65 23.85 5.85 L24.3 5.65 25.55 4.4 Q25.7 4.0 25.45 3.75 L24.7 3.25 Q24.2 2.75 24.1 2.15 L23.45 2.55 22.75 2.85 22.15 3.75 Q21.95 4.15 22.25 4.7 L22.7 5.65 Q22.15 5.55 22.0 4.3 21.0 4.55 19.7 5.55 19.75 5.05 20.45 4.65 L21.5 4.25 20.9 3.95 Q20.9 3.85 21.05 3.85 L21.25 3.95 21.45 3.4 21.65 3.6 21.85 3.8 22.55 2.8 Q22.95 2.3 23.55 2.25 L23.1 2.2 22.6 2.45 Q22.5 2.0 23.0 1.85 L23.85 1.95 Q24.85 0.4 25.55 0.05 L25.2 0.0 Q25.2 -0.3 25.55 -0.4 L26.1 -0.35 26.65 -1.35 Q27.35 -2.3 28.65 -2.6 L28.5 -2.7 28.4 -2.85 28.8 -2.95 29.15 -2.75 28.95 -3.05 Q29.25 -3.2 29.3 -2.85 29.55 -3.35 30.3 -3.65 L31.55 -3.95 31.45 -4.1 Q31.35 -4.1 31.4 -4.25 L31.95 -4.1 32.0 -4.85 Q32.25 -4.85 32.2 -4.5 32.15 -4.15 32.35 -4.15 32.2 -4.65 32.35 -5.05 32.5 -5.55 32.95 -5.6 L32.65 -5.0 32.5 -4.35 Q32.7 -4.65 34.05 -5.15 L35.5 -5.45 35.35 -5.6 36.75 -5.8 38.0 -5.6 38.2 -5.95 38.25 -5.55 Q38.7 -6.05 39.7 -5.4 39.25 -6.7 36.95 -7.75 34.7 -8.75 34.25 -10.25 L35.1 -9.4 35.85 -8.55 Q36.6 -8.1 37.3 -8.1 L37.35 -8.65 37.2 -9.25 37.55 -9.0 37.85 -8.75 37.85 -10.05 38.2 -9.95 Q38.35 -9.75 38.4 -9.8 L38.45 -10.05 38.5 -10.35 38.75 -9.45 39.5 -11.05 39.7 -10.1 39.85 -10.2 40.0 -9.95 Q40.1 -11.0 39.15 -13.4 L38.85 -14.15 38.25 -14.5 Q37.6 -14.5 37.45 -14.8 L38.2 -15.0 Q38.4 -15.1 38.25 -15.7 L37.95 -16.5 M38.25 -17.25 L39.4 -14.35 40.6 -10.3 Q41.1 -7.55 39.1 -7.25 39.05 -6.95 39.4 -6.7 L39.85 -6.2 Q40.2 -5.8 40.1 -4.95 L40.65 -4.15 41.15 -3.4 41.25 -2.2 41.55 -0.5 41.4 1.15 40.7 2.7 Q40.1 3.8 40.2 4.25 L40.2 5.2 39.45 5.65 Q38.8 5.8 39.05 6.6 L39.6 7.75 Q40.1 9.05 39.35 10.35 38.6 11.65 37.3 11.85 38.4 13.95 36.9 17.85 36.45 19.0 35.5 20.15 L33.7 22.2 Q32.75 23.3 32.7 24.45 L32.95 25.7 Q33.15 26.5 32.9 26.95 L34.4 28.45 34.75 28.9 34.85 29.4 35.85 30.6 Q36.5 31.3 36.3 32.25 36.75 32.6 36.75 33.25 L36.65 34.45 36.75 35.45 36.45 36.4 35.05 38.2 Q33.05 40.4 31.95 42.95 30.55 46.1 28.55 47.95 27.6 48.7 26.45 49.05 L24.1 49.5 21.05 50.0 18.0 49.4 Q14.95 48.5 12.5 47.15 L9.4 45.55 Q7.6 44.65 6.45 43.75 L4.5 41.75 2.75 39.6 0.65 37.75 Q-0.8 36.7 -1.8 36.6 -4.3 36.35 -6.4 34.65 -8.55 33.0 -9.65 30.45 -10.7 28.05 -10.7 25.2 -13.55 25.35 -16.9 24.1 L-22.55 21.3 Q-25.75 19.5 -27.15 17.95 L-31.55 13.0 Q-41.6 0.95 -41.6 -9.75 -41.4 -13.55 -39.85 -17.85 -38.7 -21.1 -36.45 -25.4 L-34.15 -29.25 -33.1 -30.55 -32.1 -31.85 Q-30.15 -34.8 -26.75 -38.3 L-25.65 -39.55 -24.4 -40.7 -22.0 -42.6 Q-20.0 -44.1 -16.7 -45.7 -9.65 -49.05 -4.2 -49.7 2.8 -50.65 9.4 -48.65 16.45 -46.55 20.95 -41.7 L22.85 -39.0 24.6 -36.2 Q25.7 -34.75 28.7 -32.25 30.05 -30.9 30.4 -29.75 L31.05 -29.05 31.95 -28.45 33.25 -26.3 34.05 -23.95 35.0 -21.3 Q35.6 -19.8 36.45 -19.0 L37.4 -18.15 38.25 -17.25 M38.25 -4.5 Q38.25 -5.05 37.45 -5.25 36.65 -5.5 36.25 -5.25 36.7 -4.3 36.9 -2.15 37.0 -1.65 37.9 -1.75 L39.25 -2.0 38.4 -4.45 Q38.25 -4.2 38.6 -3.55 38.95 -2.9 38.7 -2.6 38.3 -2.9 38.2 -3.5 L38.05 -4.55 38.25 -4.5 M39.7 -4.95 L39.05 -5.2 38.4 -5.25 Q39.5 -3.35 39.5 -2.15 L40.2 -2.1 40.95 -2.0 40.5 -3.65 Q39.8 -4.45 39.7 -4.95 M41.15 -1.55 L39.2 -1.45 37.1 -1.3 36.6 -1.25 36.5 -0.75 Q36.65 -1.0 37.1 -1.05 L37.8 -0.9 36.95 -0.6 Q36.5 -0.45 36.55 0.05 L36.95 -0.4 37.45 -0.65 37.1 -0.1 36.7 0.45 37.15 0.1 37.75 -0.05 37.5 0.45 Q37.25 0.7 37.4 0.95 L37.7 1.1 38.0 1.15 Q37.95 1.9 37.5 1.5 L37.0 0.95 37.0 1.85 37.0 2.7 37.4 2.05 Q37.75 1.5 38.0 2.05 37.25 2.35 37.75 3.45 L37.45 3.55 37.3 3.35 37.0 3.5 36.45 3.35 Q36.55 3.1 36.8 3.2 36.5 2.75 36.65 1.95 L35.85 3.15 Q35.45 3.85 35.9 4.45 L36.05 4.15 Q36.1 3.85 36.3 3.85 L36.55 4.55 36.8 5.25 Q36.3 5.55 36.15 4.7 36.05 4.7 35.7 5.0 L35.2 5.45 Q34.95 5.95 35.1 7.05 L34.6 6.45 34.05 5.9 Q33.65 5.85 33.45 4.95 L33.1 3.6 32.35 4.25 31.6 4.75 31.6 1.6 31.2 3.55 Q30.95 3.2 31.1 2.55 L31.25 1.45 31.05 2.1 30.8 2.7 Q30.7 2.65 30.75 2.35 L30.8 1.9 30.5 2.3 Q30.3 2.3 30.4 2.05 L30.2 2.35 29.9 2.65 29.85 2.6 29.55 3.35 Q29.25 3.05 29.4 2.7 29.15 2.7 29.15 3.3 29.2 3.85 28.9 3.85 L28.8 3.6 28.8 3.25 Q28.65 3.45 28.65 3.8 L28.35 4.15 27.5 4.65 27.05 4.9 26.7 5.3 26.35 5.9 25.5 6.6 25.05 6.95 24.7 7.4 23.1 8.5 24.35 8.75 24.8 8.45 24.7 7.85 25.15 8.25 25.75 6.95 26.3 6.65 Q26.25 6.2 26.65 6.15 L26.25 7.4 Q25.85 8.15 25.8 8.55 25.7 9.75 25.95 11.5 L26.6 14.4 Q26.95 16.1 26.9 17.3 26.45 15.0 25.8 13.65 L25.9 16.55 25.8 19.4 25.15 14.75 24.8 19.05 Q24.45 18.85 24.45 18.25 L24.45 17.25 Q23.95 18.7 23.95 21.5 L24.15 21.0 24.45 20.55 24.15 22.5 Q23.85 23.75 24.05 24.45 24.25 23.1 24.6 21.85 L24.7 22.05 25.0 21.65 25.0 22.05 25.85 20.45 26.7 18.8 26.6 19.55 26.3 20.2 Q26.7 20.0 27.0 19.2 27.3 18.4 27.65 18.15 L27.25 19.55 27.85 18.95 Q28.2 18.55 28.55 18.5 L27.95 19.8 27.05 20.95 25.45 23.4 Q24.45 24.2 25.0 25.25 L26.15 26.9 24.7 26.35 Q24.8 26.8 25.5 27.2 L26.45 27.95 26.35 27.6 26.15 27.25 27.2 28.3 27.7 29.65 26.7 28.7 25.6 27.85 Q27.0 29.75 27.15 32.05 L26.35 30.25 25.45 28.45 Q25.55 29.2 26.4 31.5 27.1 33.35 26.95 34.65 26.6 34.4 26.5 33.55 26.45 32.65 26.2 32.35 L26.4 34.85 26.45 37.35 27.05 36.0 Q27.25 36.5 26.55 37.65 L27.4 37.05 27.15 37.55 26.9 38.0 27.35 37.95 27.85 37.8 Q27.7 38.35 27.0 38.55 L25.75 38.85 Q25.8 39.2 26.4 39.55 L27.05 40.4 Q27.15 41.2 26.45 41.5 25.75 41.9 25.1 41.5 24.4 41.1 24.4 40.35 L22.3 40.45 Q21.0 39.45 20.3 39.2 L19.0 39.0 Q18.15 38.85 17.85 38.35 L15.8 37.25 16.0 37.45 16.15 37.65 Q14.75 37.0 14.05 35.8 L15.2 36.5 Q15.9 36.95 16.45 37.0 17.05 37.05 17.6 36.3 18.0 35.75 18.0 35.2 L19.25 34.75 Q19.2 34.95 19.5 35.6 L19.05 35.4 Q18.9 35.25 18.55 35.4 L17.95 35.9 17.85 36.65 17.75 37.45 Q17.75 37.8 18.05 38.0 L19.4 38.95 20.6 38.8 21.45 37.9 21.8 36.9 Q22.05 36.15 22.55 36.25 L21.75 38.05 Q21.35 39.15 22.2 39.75 L23.1 40.3 24.1 40.25 24.45 39.25 24.7 38.15 24.9 38.55 24.95 39.0 Q26.4 38.2 25.35 37.25 24.4 36.35 23.15 36.15 22.65 36.1 22.2 35.55 L21.2 34.9 Q19.55 34.65 19.25 33.85 L17.45 32.25 16.35 32.0 15.9 32.1 Q15.75 32.35 15.5 32.4 14.3 32.75 13.8 33.45 13.5 33.9 13.55 34.45 L13.55 35.55 Q12.95 35.35 11.75 34.45 L10.15 33.5 Q9.5 33.25 9.95 31.65 10.35 30.1 10.95 29.9 11.15 30.2 10.75 31.75 L10.7 32.55 Q10.6 33.0 10.75 33.15 12.4 34.95 13.15 34.0 L13.6 33.2 14.3 32.55 15.1 32.3 15.7 31.75 Q15.8 31.3 15.0 30.7 L13.9 29.8 13.3 29.1 12.5 29.05 12.0 29.0 11.9 28.45 Q11.95 27.95 11.2 27.65 L10.0 27.0 Q9.6 26.35 8.3 26.75 7.0 27.15 6.8 27.95 6.5 28.8 6.95 30.1 L6.8 30.1 6.55 30.05 6.9 31.15 7.3 32.2 Q6.8 32.0 6.55 31.25 L6.15 30.05 Q6.05 30.5 6.4 31.25 L6.75 32.4 Q5.75 31.35 5.75 29.6 5.5 29.75 5.5 30.3 L5.45 31.15 Q5.1 30.9 5.2 30.15 L5.6 29.15 5.0 29.65 4.5 30.3 Q4.4 29.5 5.25 29.0 L6.2 28.1 Q6.4 28.15 6.3 28.35 L6.4 28.6 Q6.4 27.7 7.25 26.05 8.1 24.55 7.85 23.35 7.1 20.0 4.0 19.2 L0.5 18.4 Q-1.6 17.85 -2.95 17.15 -6.85 15.2 -7.65 12.85 L-6.5 13.9 -5.45 15.1 -6.95 12.5 Q-7.6 11.05 -7.65 9.65 -7.2 10.35 -6.95 11.9 L-5.95 13.8 -6.5 11.8 Q-6.7 10.6 -6.25 9.8 L-6.1 11.15 -5.85 12.45 Q-6.1 10.4 -5.25 7.55 L-5.3 10.75 -5.3 11.35 -4.8 7.8 Q-4.35 5.45 -3.35 3.85 -3.8 4.25 -4.2 5.35 L-5.1 6.85 Q-4.7 4.65 -3.15 3.0 -3.65 2.8 -4.65 4.3 L-5.8 6.25 -5.3 4.7 -4.45 3.25 Q-5.7 3.9 -6.5 5.7 -7.0 6.65 -7.5 8.75 -7.5 6.0 -5.7 3.45 L-6.4 3.95 -7.0 4.5 -6.9 4.0 -6.65 3.45 Q-7.1 3.45 -7.1 3.6 L-7.15 4.15 -7.45 3.85 Q-7.8 4.35 -8.1 4.0 -8.4 3.65 -8.25 3.15 L-8.5 3.5 -8.65 3.95 -8.85 3.6 -9.65 6.4 -9.65 8.95 -10.2 13.95 -9.95 20.2 -10.0 22.85 -10.15 25.45 Q-10.05 30.45 -6.7 33.6 -4.85 35.25 -3.2 35.85 L-1.05 35.85 Q0.35 35.75 0.8 36.25 L-0.4 36.45 1.55 37.65 3.3 39.1 4.7 40.8 6.15 42.5 7.95 43.7 10.0 44.35 Q11.3 44.8 13.7 46.1 L13.75 45.85 Q13.7 45.7 13.9 45.7 L14.15 45.9 13.9 46.1 15.6 47.25 Q15.0 47.3 14.05 46.8 L12.55 45.9 Q10.65 44.9 9.05 44.4 9.75 44.95 10.85 45.5 L12.8 46.3 14.35 47.2 16.0 48.0 20.3 49.05 22.5 49.1 23.15 48.8 23.7 48.35 23.3 47.85 24.1 48.05 Q24.55 48.3 24.6 48.75 L26.15 48.45 Q26.1 48.35 25.2 47.95 L27.1 47.6 Q28.35 47.45 28.6 46.75 L27.75 46.95 26.9 46.9 28.85 45.95 Q30.15 45.4 30.5 44.55 29.9 45.05 28.85 45.4 L27.1 45.95 Q27.6 45.55 29.1 44.7 L31.1 43.35 Q29.7 44.25 27.55 44.85 L23.75 45.55 25.8 44.85 27.9 44.1 26.65 44.15 25.4 43.95 28.0 43.25 30.45 42.25 30.15 41.95 Q29.95 41.6 30.4 41.65 L31.25 41.55 32.1 41.2 29.9 41.2 29.1 41.5 28.35 41.75 Q27.65 41.7 27.35 40.9 27.1 40.25 27.3 39.55 27.55 39.75 27.6 40.35 L28.5 39.9 28.9 39.1 Q28.9 38.6 28.3 38.75 L27.25 39.05 Q27.4 38.75 27.85 38.6 28.05 38.5 28.55 38.35 L28.05 38.15 Q28.1 37.9 28.4 37.9 28.7 37.9 28.7 37.5 28.55 36.2 28.75 35.65 L28.9 36.45 28.9 37.25 29.15 35.9 29.15 34.45 29.7 35.25 29.9 36.15 Q30.05 35.55 29.7 34.45 L29.15 32.85 Q29.65 33.25 30.0 34.2 L30.35 35.6 30.0 33.85 29.35 32.0 29.7 32.45 Q29.7 32.0 29.3 31.4 28.8 30.7 28.8 30.35 30.0 31.65 30.65 33.35 31.1 33.15 30.3 31.75 L29.15 30.1 28.9 30.3 28.1 28.7 27.0 27.2 25.8 25.45 Q25.2 24.35 25.65 23.55 L25.7 24.5 Q25.7 25.1 26.1 25.25 L27.85 25.2 28.7 24.5 29.7 24.55 31.45 24.65 31.1 24.25 30.7 23.9 31.45 24.1 32.15 24.35 31.75 23.85 31.1 23.55 31.85 23.65 32.4 23.5 31.75 23.25 31.1 22.8 31.75 22.9 32.3 23.1 Q33.0 23.1 32.5 22.65 L31.75 22.15 32.35 22.25 32.95 22.25 Q32.45 21.8 32.1 21.7 L33.25 21.7 Q33.65 21.75 33.8 20.9 L34.85 17.3 Q35.1 17.9 35.0 18.75 L34.75 20.15 Q35.7 18.4 35.5 14.1 36.0 14.55 36.05 15.65 L36.05 17.35 36.35 15.75 36.5 14.1 Q36.85 14.35 36.85 15.2 L36.8 16.4 Q37.5 14.8 37.05 12.85 L36.75 12.2 36.45 11.65 35.95 10.6 Q35.85 11.05 36.05 12.05 L35.55 11.0 35.3 9.85 35.3 10.5 35.2 11.05 35.0 10.1 Q34.95 9.4 34.6 9.25 L34.75 10.2 Q34.9 10.8 34.55 11.05 L34.15 9.9 33.65 8.85 Q33.55 9.05 33.75 9.55 34.0 10.0 33.85 10.25 33.55 10.1 33.4 9.45 L32.9 8.65 33.1 10.2 32.6 8.9 32.55 9.65 32.2 10.35 32.5 10.35 32.75 10.35 32.25 11.05 31.6 11.65 Q31.5 11.45 31.7 11.15 L31.95 10.75 31.8 10.85 Q31.65 11.0 31.55 10.95 L31.6 10.45 31.8 9.85 31.6 9.85 Q31.4 9.9 31.35 9.75 L31.6 9.35 31.75 9.1 31.45 9.05 31.75 8.95 31.35 7.0 30.9 6.95 30.7 6.6 Q30.7 6.45 30.9 6.5 L31.05 6.4 30.5 5.3 Q31.35 5.4 31.35 5.9 L32.25 5.9 Q32.8 6.1 33.6 7.05 34.45 7.85 34.95 7.9 35.3 7.95 35.8 7.45 36.3 7.05 36.65 7.0 L36.6 7.3 36.3 7.55 37.8 6.6 36.7 7.75 Q35.9 8.4 35.75 8.95 L36.25 8.8 Q36.55 8.65 36.7 8.65 36.65 9.1 35.5 9.35 L36.65 9.4 Q36.8 9.3 37.6 8.75 L37.15 9.45 Q36.75 9.85 36.8 10.15 L38.35 8.7 Q38.45 9.15 37.85 10.0 39.1 9.55 38.85 7.95 38.3 6.1 38.3 5.35 L38.9 5.35 39.45 5.1 39.8 4.8 39.7 4.3 Q40.75 2.05 41.05 0.6 L41.15 -1.55 M35.95 -4.6 L34.85 -4.8 33.45 -4.65 32.6 -3.95 33.0 -3.4 33.35 -2.8 34.1 -1.85 35.1 -1.7 Q36.0 -1.95 36.45 -1.7 36.4 -3.7 35.95 -4.6 M27.35 -27.25 L27.8 -26.7 Q27.75 -27.2 27.1 -27.85 27.15 -27.5 27.35 -27.25 M24.3 -32.75 L24.8 -32.3 Q24.95 -32.55 24.5 -32.85 24.1 -33.15 23.65 -33.1 23.75 -33.0 24.3 -32.75 M27.2 -20.25 L27.7 -19.7 27.35 -20.35 27.05 -20.95 Q26.9 -20.7 27.2 -20.25 M26.55 -18.8 L26.65 -18.25 26.85 -17.7 26.8 -18.2 26.55 -18.8 M29.5 -18.95 L28.2 -20.8 26.9 -22.2 Q26.8 -22.0 28.0 -20.55 L29.5 -18.95 M-4.55 11.65 L-4.4 11.55 -4.45 11.3 -4.55 11.65 M-4.45 14.25 L-4.55 14.35 -4.1 14.85 Q-4.0 14.75 -4.2 14.45 L-4.5 14.1 -4.45 14.25 M-4.65 14.95 L-4.2 15.8 -3.6 16.55 Q-3.45 16.4 -3.7 16.15 L-4.1 15.8 -4.65 14.95 M-10.9 21.2 Q-10.6 20.85 -10.65 20.5 L-11.45 21.55 Q-11.15 21.55 -10.9 21.2 M27.1 -14.65 Q27.35 -14.75 27.25 -15.55 27.0 -15.55 27.0 -15.15 L27.1 -14.65 M27.5 -11.75 L27.15 -11.1 27.45 -11.45 27.85 -11.65 27.5 -11.75 M30.9 -3.35 Q30.1 -3.05 29.75 -2.55 L30.7 -1.35 31.45 -0.05 32.6 -0.95 Q33.3 -1.45 33.9 -1.5 L33.15 -2.55 Q32.5 -3.2 32.35 -3.65 L30.9 -3.35 M25.75 3.75 Q26.25 4.0 27.0 3.5 L28.05 2.5 28.0 1.95 29.65 1.9 Q30.4 1.55 30.8 0.7 31.15 -0.05 30.55 -0.9 L29.35 -2.25 Q27.85 -2.25 26.45 -0.5 26.2 -0.2 27.05 0.65 L28.15 1.9 26.85 0.7 25.4 0.6 Q23.95 1.8 24.85 2.8 L25.75 3.75 M34.05 4.35 L33.7 3.55 Q33.6 3.9 33.85 4.35 L34.2 5.15 34.05 4.35 M4.45 0.8 Q3.2 1.8 3.2 2.85 3.25 4.0 4.85 4.3 L4.75 4.0 4.55 3.6 Q5.2 3.8 5.45 4.7 L5.65 3.85 Q6.3 4.5 5.85 6.0 L6.1 5.7 6.4 5.45 Q6.6 6.15 5.85 6.8 5.0 7.55 4.9 7.95 4.7 8.65 5.3 8.95 L6.5 9.0 7.75 8.65 7.75 8.4 7.75 8.15 8.85 8.25 Q8.5 8.05 8.6 7.85 L10.0 7.75 Q9.1 7.35 8.9 5.95 8.7 4.7 9.2 3.8 9.2 6.0 9.75 6.8 L9.6 5.8 Q9.4 5.1 9.55 4.7 L9.9 5.45 10.0 6.25 9.95 4.4 Q9.9 3.35 10.1 2.65 L11.1 3.2 11.9 4.05 Q11.05 2.2 9.25 1.55 9.5 1.4 10.0 1.75 L9.55 1.4 Q9.15 1.2 9.25 1.05 L9.05 0.75 Q8.75 0.65 8.7 0.85 L8.1 0.4 7.3 0.2 5.8 0.25 Q4.9 0.45 4.45 0.8 M10.3 2.85 Q10.0 2.95 10.7 3.65 L11.55 4.5 Q11.1 3.45 10.7 3.45 L10.3 2.85 M10.65 4.25 Q10.6 3.8 10.2 3.75 10.1 5.3 11.1 7.2 10.6 5.9 10.65 4.95 L10.65 4.25 M11.15 5.7 L11.6 6.95 11.55 5.5 Q11.4 4.55 10.95 4.3 10.85 4.9 11.15 5.7 M12.35 7.35 Q12.7 6.75 11.85 5.65 L12.0 6.5 12.35 7.35 M14.95 8.25 L14.35 9.0 Q14.1 9.3 14.35 10.0 L14.85 11.05 15.8 11.0 16.7 10.35 16.2 9.2 15.95 8.05 14.95 8.25 M14.7 11.55 Q14.35 10.7 13.1 10.2 L11.05 9.35 Q11.8 8.8 13.15 9.75 L12.75 9.25 Q12.4 8.9 12.75 8.95 12.2 8.35 11.1 8.5 10.2 8.65 9.45 9.05 L10.0 8.45 6.95 9.3 Q5.05 9.85 4.5 8.45 L4.5 8.95 4.45 9.4 Q4.1 9.15 4.1 8.3 3.8 8.55 3.85 9.25 L3.9 10.35 Q3.65 10.15 3.6 9.55 L3.6 8.65 Q3.0 9.1 3.25 10.1 L3.9 11.55 Q3.15 11.35 2.75 9.45 2.45 10.4 3.15 11.1 3.95 11.95 3.95 12.3 4.05 14.15 5.3 14.05 L6.1 13.8 6.9 13.75 7.5 13.95 8.1 14.15 Q8.55 14.2 9.4 13.65 L10.05 13.6 10.75 13.4 10.5 13.15 10.2 12.95 Q11.0 12.9 12.55 13.65 L12.45 13.25 13.15 13.85 13.7 14.65 Q13.8 14.45 13.5 14.05 L13.3 13.55 Q13.85 13.65 14.3 14.95 L14.1 13.75 13.7 12.45 Q14.2 12.95 14.7 14.95 L14.8 14.0 Q14.85 13.4 15.2 13.2 15.1 13.75 15.15 14.7 L15.2 16.15 15.55 14.8 Q15.75 13.95 16.25 13.65 15.75 15.75 15.85 16.85 L16.55 15.3 Q16.9 14.15 17.3 13.75 L16.85 15.25 16.5 16.75 Q17.2 16.1 17.65 14.6 18.15 12.9 18.6 12.3 L18.8 12.45 Q18.7 12.15 19.6 11.4 L20.9 10.6 20.9 11.15 20.55 11.7 Q21.0 11.75 21.3 11.0 21.65 10.2 22.05 10.15 L21.85 10.45 22.35 10.7 Q22.25 10.4 22.4 10.15 L22.65 9.7 22.6 8.75 21.15 9.95 Q19.9 10.6 19.55 10.95 L18.3 12.3 16.9 13.45 Q16.75 13.25 17.05 12.95 L17.3 12.55 Q16.25 13.1 16.25 12.85 L16.4 12.6 14.7 12.4 Q14.8 12.15 15.1 12.2 L14.7 11.95 15.2 11.9 14.75 11.7 14.3 11.55 14.7 11.55 M8.1 14.25 L7.15 13.9 5.95 14.1 4.7 14.15 Q3.5 13.8 3.75 12.15 2.5 11.75 2.2 10.55 2.05 10.8 2.25 11.3 L2.75 12.05 Q2.15 11.95 1.9 10.85 1.7 10.95 1.85 11.25 L2.05 11.7 Q1.9 11.85 1.7 11.3 1.35 12.05 1.45 13.25 1.55 14.55 2.1 15.0 3.05 15.85 2.75 16.9 2.4 17.8 2.85 18.05 L3.05 17.65 2.85 17.65 Q2.55 17.45 3.05 16.95 L3.2 17.15 3.15 17.45 3.4 17.55 3.3 17.9 Q3.15 18.3 3.45 18.4 L4.1 18.55 Q5.6 18.95 6.05 19.45 L5.3 18.7 4.35 18.1 Q5.05 18.1 5.75 18.55 L6.95 19.45 7.35 18.8 6.95 18.85 6.55 18.95 Q6.65 18.65 7.6 18.2 8.15 17.9 7.45 17.1 7.8 16.95 8.1 17.7 L8.95 15.95 Q8.75 16.0 8.55 16.2 L8.25 16.4 Q8.35 15.8 8.8 15.15 L9.65 14.05 8.85 14.1 8.1 14.25 M6.55 19.85 Q6.35 20.0 6.65 20.25 L7.1 20.65 6.9 20.2 6.55 19.85 M8.4 26.35 L8.85 26.25 8.05 26.2 8.4 26.35 M25.25 9.8 L25.15 9.25 Q24.9 9.6 25.25 10.25 L25.25 9.8 M25.35 11.55 L24.95 10.15 25.0 10.9 25.35 11.55 M21.75 10.6 L21.45 11.05 Q21.75 11.0 21.75 10.8 L21.85 10.5 21.75 10.6 M25.25 12.4 L25.0 11.3 Q24.9 11.55 24.95 11.95 25.05 12.35 25.25 12.4 M17.35 19.85 Q17.35 20.15 17.65 20.15 L17.7 19.95 17.35 19.85 M31.8 25.95 Q31.3 25.7 32.0 25.65 L31.5 25.0 Q31.2 24.7 30.7 24.75 L29.7 24.9 29.15 24.75 28.65 24.85 Q28.25 25.0 27.6 26.4 27.4 26.9 27.5 27.2 L27.85 28.05 28.0 27.5 28.2 26.95 Q28.45 27.05 28.35 27.5 L28.25 28.1 28.55 27.75 28.75 27.3 28.6 28.15 Q28.55 28.8 28.9 28.85 L29.6 28.25 Q30.15 27.55 30.5 27.5 L30.1 27.95 Q29.65 28.25 29.55 28.45 29.3 29.35 29.75 29.9 30.45 29.1 31.0 28.8 30.35 29.2 30.35 30.75 30.4 31.6 31.1 31.25 L32.1 30.65 31.9 31.9 31.45 33.1 31.95 32.6 32.3 31.95 32.3 32.65 32.15 33.3 Q32.7 33.35 33.3 32.75 33.95 32.05 34.3 31.95 L33.0 33.5 Q32.3 34.45 32.3 35.4 32.85 35.45 33.6 34.95 L34.85 34.6 35.05 34.75 35.5 34.65 34.75 35.4 33.75 35.7 32.3 35.95 32.4 36.1 Q32.05 36.2 31.85 36.45 31.6 36.2 31.6 35.75 L31.6 34.95 Q31.05 33.85 31.1 33.25 30.95 33.5 30.9 35.8 30.85 37.55 29.5 37.85 29.95 38.45 30.9 37.55 L32.2 36.35 33.15 36.35 34.05 36.15 Q35.25 35.55 35.55 35.6 L34.0 36.7 34.8 36.55 Q34.7 37.2 33.25 37.45 L31.2 37.65 32.65 37.7 Q33.55 37.85 33.7 38.5 33.85 39.15 33.3 39.65 L32.5 40.65 Q32.65 41.0 33.55 39.6 L34.65 37.7 34.55 37.35 Q35.3 37.35 35.8 36.55 L36.5 35.05 35.95 35.0 Q36.75 33.6 36.1 32.6 35.45 32.65 35.6 32.3 L35.85 31.6 Q35.55 30.5 34.8 30.25 L33.65 30.1 33.6 29.85 Q34.15 29.75 34.3 29.3 34.45 28.75 33.9 28.55 L33.1 28.6 32.25 28.45 32.75 28.1 Q33.05 27.95 33.3 27.95 32.9 27.45 32.4 27.35 L31.4 27.25 32.05 26.85 32.55 26.25 31.8 25.95 M35.05 34.85 Q34.6 34.75 33.5 35.3 L32.95 35.5 32.7 35.65 33.85 35.35 35.05 34.85 M32.95 38.4 L33.15 38.95 Q33.4 38.8 33.2 38.45 L32.95 37.95 Q32.8 38.05 32.95 38.4 M29.2 39.35 Q28.95 39.6 28.65 40.2 L28.05 41.0 29.3 40.95 30.15 40.0 30.85 39.2 31.1 38.9 31.0 38.45 29.0 38.4 Q29.3 39.2 30.85 38.65 L30.2 39.1 29.2 39.35 M30.5 40.9 Q30.9 40.9 30.5 40.55 30.2 40.15 30.5 40.9 M26.15 39.5 Q25.95 39.9 26.2 40.15 L25.95 40.0 25.7 39.75 25.35 40.5 Q24.95 40.95 25.45 41.15 L25.35 40.75 26.05 41.25 Q26.45 41.5 26.6 40.95 26.85 39.9 26.15 39.5 M31.8 40.3 Q31.65 40.25 31.6 40.4 L31.45 40.55 Q31.5 40.75 31.7 40.65 L31.8 40.3 M33.05 38.8 L32.7 38.45 32.9 39.2 33.05 38.8 M36.05 -1.05 L33.6 -0.35 Q35.25 -0.25 36.05 -1.05" fill="#000000" fill-rule="evenodd" stroke="none"/>
    <path d="M3.7 -45.55 L5.2 -45.75 Q3.75 -45.75 3.45 -45.05 L3.6 -44.65 3.25 -44.4 2.25 -44.2 Q1.3 -44.3 1.15 -45.15 0.4 -45.0 0.7 -43.8 L0.35 -43.75 0.3 -43.45 -0.35 -43.4 Q-0.25 -43.2 -0.4 -43.1 L-0.45 -43.45 -0.1 -43.4 Q0.1 -43.4 0.2 -43.55 L0.0 -44.0 0.3 -43.95 0.55 -44.0 Q0.3 -44.5 0.55 -44.95 0.8 -45.3 1.35 -45.25 1.25 -44.1 2.8 -44.5 3.3 -44.6 3.3 -44.95 3.35 -45.35 3.7 -45.55 M5.55 -45.7 L6.35 -45.65 6.6 -46.0 6.7 -46.5 6.65 -47.05 6.75 -46.95 6.95 -46.65 6.8 -46.5 Q7.15 -46.1 6.4 -45.5 L6.75 -45.2 6.65 -44.9 Q6.6 -45.6 5.55 -45.7" fill="#000000" fill-rule="evenodd" stroke="none"/>
    <path d="M-8.1 -46.15 L-8.1 -45.7 -8.05 -45.25 -8.35 -45.95 Q-8.4 -46.4 -8.85 -46.55 L-9.5 -46.7 -9.95 -47.15 -9.0 -46.65 -8.1 -46.15" fill="#000000" fill-rule="evenodd" stroke="none"/>
    <path d="M-7.55 -44.25 L-7.05 -44.1 -6.85 -43.65 -6.05 -43.4 Q-6.15 -43.3 -6.35 -43.25 -6.7 -43.15 -7.0 -43.6 L-7.65 -44.1 -8.45 -44.65 -7.95 -44.55 -7.55 -45.05 Q-7.15 -45.25 -7.1 -44.95 L-7.75 -44.75 Q-8.1 -44.5 -7.55 -44.25" fill="#000000" fill-rule="evenodd" stroke="none"/>
    <path d="M-4.9 -44.55 L-5.0 -44.6 -5.0 -44.7 -4.8 -44.75 -4.65 -44.4 -4.9 -44.55" fill="#000000" fill-rule="evenodd" stroke="none"/>
    <path d="M10.35 -41.7 L10.6 -41.55 10.7 -41.25 10.4 -41.45 Q10.3 -41.6 10.35 -41.7" fill="#000000" fill-rule="evenodd" stroke="none"/>
    <path d="M8.85 -40.15 L8.6 -40.35 8.65 -40.65 8.8 -40.3 9.2 -40.1 9.2 -39.7 9.1 -39.85 8.85 -40.15" fill="#000000" fill-rule="evenodd" stroke="none"/>
    <path d="M19.95 -33.45 Q19.95 -32.5 19.6 -32.5 L19.7 -33.05 19.95 -33.45" fill="#000000" fill-rule="evenodd" stroke="none"/>
    <path d="M9.15 -28.95 L10.5 -28.1 11.8 -27.15 11.15 -27.9 Q10.7 -28.35 10.55 -28.75 L12.95 -27.75 12.45 -28.3 Q11.95 -28.55 11.85 -28.75 L12.65 -28.6 Q13.15 -28.5 13.35 -28.75 L12.8 -29.05 12.1 -29.15 Q12.85 -29.1 13.95 -29.6 L15.8 -30.1 Q15.7 -29.9 15.25 -29.85 L14.65 -29.7 14.1 -29.0 13.3 -26.6 12.5 -25.6 11.6 -24.6 11.7 -23.2 12.05 -21.85 Q12.25 -22.05 12.35 -21.35 L12.5 -20.5 Q13.0 -19.25 12.75 -18.65 11.8 -21.9 10.15 -23.95 11.35 -21.65 11.55 -20.15 L10.75 -21.6 11.1 -20.5 11.25 -19.4 Q10.9 -19.65 10.75 -20.7 10.6 -21.65 10.15 -21.85 10.4 -22.25 9.65 -23.65 L10.05 -21.95 Q10.2 -20.95 9.95 -20.25 L9.6 -21.3 9.2 -22.4 Q9.55 -20.65 9.2 -18.45 L8.3 -14.65 Q9.5 -17.0 9.8 -19.55 L9.9 -18.2 9.8 -16.9 10.4 -18.75 10.0 -17.05 Q9.7 -16.05 9.75 -15.4 L10.0 -16.2 10.3 -16.95 10.25 -16.4 Q10.2 -16.1 10.3 -15.95 L11.25 -18.4 11.1 -17.2 10.9 -16.05 11.2 -16.3 11.45 -16.35 9.6 -14.05 11.05 -15.3 12.25 -16.75 11.7 -15.45 11.05 -14.25 Q11.8 -14.8 12.35 -15.45 L12.6 -16.05 13.0 -16.55 12.4 -15.35 Q14.15 -17.05 15.25 -20.1 15.4 -18.3 12.9 -15.1 10.95 -12.8 8.35 -12.65 L8.55 -12.6 8.65 -12.4 7.4 -12.45 6.15 -12.2 Q6.2 -12.15 6.5 -12.05 L6.65 -11.75 4.4 -11.8 2.15 -11.5 Q0.85 -11.5 0.1 -12.05 L-1.4 -13.65 Q-3.1 -15.6 -3.65 -18.3 L-3.7 -19.25 -3.75 -20.15 -4.15 -20.75 -4.7 -21.15 Q-3.85 -21.15 -3.25 -22.9 L-2.55 -25.4 Q-1.25 -28.75 0.0 -30.65 L-1.45 -25.95 0.15 -27.9 1.75 -29.85 1.1 -28.6 0.55 -27.3 2.4 -28.45 Q3.5 -29.15 4.35 -29.4 L6.3 -29.6 Q7.6 -29.5 7.85 -28.65 6.3 -29.85 3.95 -28.85 8.05 -28.2 10.35 -25.0 L9.35 -27.45 9.8 -26.9 10.15 -26.3 9.65 -28.0 11.15 -25.75 Q11.1 -26.65 10.45 -27.5 L9.15 -28.95 M9.1 -24.55 L8.8 -24.8 9.15 -24.25 9.1 -24.55 M7.45 -15.6 L7.65 -15.2 Q7.85 -15.4 7.5 -15.85 7.3 -15.8 7.45 -15.6 M7.7 -16.3 L7.65 -16.0 Q7.8 -15.85 7.9 -16.0 L7.8 -16.15 Q7.7 -16.15 7.7 -16.3 M7.55 -14.65 L7.1 -15.45 7.2 -14.95 7.55 -14.65" fill="#000000" fill-rule="evenodd" stroke="none"/>
    <path d="M-7.2 -21.65 L-7.1 -17.8 Q-6.8 -16.15 -6.9 -12.9 L-6.65 -10.45 Q-6.35 -8.9 -6.4 -8.1 -6.45 -6.85 -7.3 -5.35 L-8.8 -2.8 -8.5 -3.9 Q-9.6 -3.6 -10.25 -2.0 -10.95 -0.15 -11.65 0.35 L-13.65 2.1 Q-14.45 3.0 -14.85 4.5 L-14.65 3.25 -16.55 4.2 Q-17.7 4.7 -18.15 5.4 -18.85 6.6 -17.35 7.25 L-14.85 7.65 -17.2 7.5 Q-18.5 7.15 -18.85 6.0 L-18.7 6.1 -18.55 6.15 Q-18.55 5.0 -17.4 4.3 L-15.3 3.4 Q-14.8 3.1 -14.35 2.25 L-13.45 1.0 -12.15 0.2 -11.15 -0.85 -10.4 -2.5 Q-10.0 -3.6 -9.4 -3.9 L-8.6 -4.3 -8.0 -4.9 -7.35 -6.0 Q-6.25 -8.45 -7.85 -12.75 L-7.65 -12.7 -7.5 -12.6 -8.35 -15.2 -8.2 -15.2 -8.1 -15.2 -8.25 -15.6 -7.8 -15.1 -7.5 -14.5 Q-7.45 -14.95 -7.95 -15.65 L-8.45 -16.75 -7.5 -15.6 Q-8.6 -17.0 -8.85 -17.85 L-8.2 -17.05 -7.5 -16.35 -8.25 -17.35 -8.95 -18.4 -8.3 -17.9 -7.7 -17.3 -8.65 -18.7 Q-9.2 -19.55 -9.8 -19.85 L-11.6 -20.0 Q-12.75 -20.05 -13.25 -20.75 L-11.85 -20.55 -12.7 -21.3 -13.35 -22.25 -11.95 -21.3 Q-11.1 -20.7 -10.5 -20.5 -11.95 -21.9 -12.2 -22.55 L-9.95 -20.6 Q-8.6 -19.45 -7.9 -18.4 L-7.95 -20.05 Q-7.95 -20.95 -8.45 -21.6 -9.8 -22.95 -10.2 -23.85 -9.5 -23.55 -8.25 -22.65 -9.05 -24.0 -11.05 -25.6 L-9.7 -24.85 -8.5 -23.95 Q-9.55 -25.9 -11.3 -26.95 -9.9 -26.65 -8.1 -24.95 -8.6 -26.3 -10.35 -27.35 L-13.35 -29.0 Q-11.65 -28.8 -10.1 -27.85 -8.35 -26.85 -7.7 -25.45 -7.15 -24.1 -7.2 -21.65" fill="#000000" fill-rule="evenodd" stroke="none"/>
    <path d="M-26.75 -25.75 L-26.65 -24.6 Q-26.4 -23.75 -26.75 -23.55 L-26.9 -24.7 Q-27.0 -25.4 -26.75 -25.75" fill="#000000" fill-rule="evenodd" stroke="none"/>
    <path d="M-4.15 -22.85 Q-4.1 -22.35 -4.5 -21.95 -4.95 -21.6 -5.25 -21.75 -4.8 -21.8 -4.5 -22.15 L-4.15 -22.85" fill="#000000" fill-rule="evenodd" stroke="none"/>
    <path d="M-18.05 -21.05 Q-17.15 -20.95 -16.55 -20.1 L-15.35 -18.8 Q-15.75 -18.85 -16.05 -19.25 L-16.5 -19.95 -17.15 -20.55 -18.05 -21.05" fill="#000000" fill-rule="evenodd" stroke="none"/>
    <path d="M-16.45 -17.8 L-16.55 -17.25 -17.1 -16.7 -17.5 -16.05 -16.85 -15.85 -16.3 -15.5 Q-16.1 -15.3 -16.2 -15.05 L-16.0 -14.65 -14.9 -13.8 -13.55 -13.75 -13.85 -13.95 -13.1 -13.75 -13.35 -13.7 -12.8 -13.65 -12.8 -13.75 -12.65 -13.85 Q-11.1 -12.9 -10.7 -10.1 -12.05 -14.15 -12.75 -13.5 L-13.55 -13.45 -14.45 -13.5 -16.15 -14.5 -16.0 -14.55 -16.45 -15.0 -16.85 -15.6 -17.45 -15.85 -18.0 -16.3 -17.75 -16.35 -17.5 -16.55 -17.2 -16.85 -16.9 -17.15 -16.65 -17.9 Q-16.45 -18.25 -16.0 -18.15 L-16.45 -17.8" fill="#000000" fill-rule="evenodd" stroke="none"/>
    <path d="M-19.05 -15.8 Q-18.55 -16.2 -18.05 -16.05 L-18.8 -15.95 Q-19.45 -15.05 -19.9 -15.05 L-19.05 -15.8" fill="#000000" fill-rule="evenodd" stroke="none"/>
    <path d="M-21.8 -13.75 L-23.0 -13.35 Q-23.1 -12.85 -23.6 -12.45 L-24.5 -11.85 -25.4 -11.3 Q-26.4 -10.15 -27.3 -10.3 L-27.55 -10.9 -27.6 -11.45 Q-27.4 -10.15 -26.4 -10.7 L-24.9 -11.8 -23.4 -13.15 Q-22.5 -14.05 -21.8 -13.75" fill="#000000" fill-rule="evenodd" stroke="none"/>
    <path d="M-19.25 -12.35 L-19.75 -13.2 Q-20.15 -13.6 -20.7 -13.45 L-20.15 -13.1 Q-21.0 -13.4 -21.15 -13.55 L-19.8 -13.4 Q-19.0 -13.1 -19.25 -12.35" fill="#000000" fill-rule="evenodd" stroke="none"/>
    <path d="M7.6 -9.95 L8.3 -10.8 8.95 -11.55 Q8.7 -11.4 8.55 -10.65 8.4 -9.9 8.05 -9.65 L5.45 -7.85 Q4.55 -7.35 4.25 -7.05 3.7 -6.7 3.5 -5.9 L3.1 -4.9 2.45 -4.05 Q2.8 -4.45 3.05 -5.85 3.3 -7.05 3.9 -7.45 3.7 -7.4 3.7 -7.55 L5.1 -8.25 Q4.55 -8.05 4.5 -8.4 5.3 -8.45 5.45 -8.8 4.9 -8.85 4.55 -9.35 6.45 -9.15 7.6 -9.95" fill="#000000" fill-rule="evenodd" stroke="none"/>
    <path d="M31.75 -10.55 Q32.6 -8.85 33.1 -8.25 32.5 -8.55 32.1 -9.25 L31.75 -10.55" fill="#000000" fill-rule="evenodd" stroke="none"/>
    <path d="M30.8 -10.35 Q30.75 -9.55 30.2 -9.0 29.7 -8.5 28.95 -8.45 30.25 -8.8 30.8 -10.35" fill="#000000" fill-rule="evenodd" stroke="none"/>
    <path d="M-39.0 -9.85 L-38.8 -9.65 -38.7 -9.35 -39.0 -9.85" fill="#000000" fill-rule="evenodd" stroke="none"/>
    <path d="M36.45 -7.35 Q37.05 -7.5 38.05 -6.35 L37.2 -6.85 36.45 -7.35" fill="#000000" fill-rule="evenodd" stroke="none"/>
    <path d="M-36.5 -1.9 L-33.95 -0.25 Q-32.45 0.9 -32.45 2.1 L-31.55 2.6 Q-30.65 2.75 -30.4 3.0 L-30.2 3.25 -30.3 3.45 -30.0 3.8 -29.7 4.15 -30.1 3.8 -30.35 3.35 Q-30.35 3.1 -30.85 2.8 L-31.95 2.6 Q-32.45 2.5 -32.6 1.85 -32.85 0.8 -34.25 -0.2 L-36.5 -1.9" fill="#000000" fill-rule="evenodd" stroke="none"/>
    <path d="M-2.3 0.55 L-2.8 1.1 -3.55 1.35 -2.9 0.9 -2.3 0.55" fill="#000000" fill-rule="evenodd" stroke="none"/>
    <path d="M-5.45 1.35 L-6.35 1.55 -5.9 1.25 -5.45 1.35" fill="#000000" fill-rule="evenodd" stroke="none"/>
    <path d="M-10.4 2.15 L-9.85 2.45 Q-9.6 2.65 -9.65 2.8 L-10.4 2.15" fill="#000000" fill-rule="evenodd" stroke="none"/>
    <path d="M-13.75 6.55 Q-13.7 6.25 -14.2 6.0 L-14.3 5.85 Q-13.45 6.1 -13.75 6.55" fill="#000000" fill-rule="evenodd" stroke="none"/>
    <path d="M-27.2 7.45 L-28.8 6.55 Q-25.95 7.6 -25.0 9.8 L-24.7 11.35 -24.25 12.7 -21.75 14.35 Q-24.5 13.45 -25.6 10.75 L-24.75 11.85 -25.2 11.1 -25.65 10.4 -24.75 11.3 -25.15 10.6 -25.55 9.95 Q-25.45 10.1 -25.35 10.05 L-25.65 9.55 -25.8 9.05 -26.1 8.5 Q-25.8 8.85 -25.75 8.7 -26.2 8.05 -27.2 7.45" fill="#000000" fill-rule="evenodd" stroke="none"/>
    <path d="M-21.3 14.75 L-19.75 15.7 Q-18.9 16.35 -18.6 17.1 -18.4 17.75 -17.55 18.25 L-16.25 19.05 Q-16.9 19.0 -17.8 18.3 L-18.9 16.95 Q-19.5 15.85 -20.15 15.5 -21.1 15.15 -21.3 14.75" fill="#000000" fill-rule="evenodd" stroke="none"/>
    <path d="M-3.95 18.85 Q-5.95 16.6 -8.15 15.6 -5.55 16.35 -3.95 18.85" fill="#000000" fill-rule="evenodd" stroke="none"/>
    <path d="M29.9 25.75 L29.7 25.35 31.2 25.85 30.75 26.05 Q30.5 26.15 30.45 26.4 L31.0 26.6 30.15 26.5 29.3 26.2 29.75 26.05 Q30.05 26.0 29.9 25.75" fill="#000000" fill-rule="evenodd" stroke="none"/>
  </g>
</svg>
