<?xml version="1.0" encoding="UTF-8" standalone="no"?>
<svg xmlns:xlink="http://www.w3.org/1999/xlink" height="100.0px" width="68.55px" xmlns="http://www.w3.org/2000/svg">
  <g transform="matrix(1.0, 0.0, 0.0, 1.0, 34.25, 50.0)">
    <path d="M-24.85 -47.3 Q-22.65 -46.55 -21.35 -46.85 -19.95 -47.05 -18.4 -48.65 L-17.2 -46.9 Q-16.8 -45.95 -17.55 -45.45 L-19.25 -44.65 -22.45 -43.6 Q-23.0 -43.4 -23.2 -43.85 L-23.55 -44.75 -24.85 -47.3" fill="#000000" fill-rule="evenodd" stroke="none"/>
    <path d="M-34.25 -39.8 Q-33.85 -39.55 -31.45 -40.55 -29.7 -41.25 -29.95 -39.5 -29.15 -40.4 -29.7 -41.4 L-27.85 -41.45 -26.3 -40.75 -24.7 -40.8 -24.15 -38.75 Q-23.8 -37.45 -23.8 -36.55 L-27.05 -36.4 Q-28.95 -36.4 -29.7 -37.8 -29.95 -36.05 -30.65 -35.5 -31.6 -34.75 -32.1 -35.35 -32.25 -35.65 -32.5 -35.6 L-32.65 -35.25 Q-34.05 -35.6 -34.25 -37.05 L-34.25 -39.8" fill="#000000" fill-rule="evenodd" stroke="none"/>
    <path d="M-15.95 -43.9 Q-13.1 -43.95 -12.45 -41.45 -14.0 -41.25 -14.65 -40.35 L-15.25 -39.65 Q-15.8 -39.15 -16.0 -39.2 L-16.85 -39.7 -18.55 -40.2 -20.2 -40.5 Q-21.05 -40.7 -21.0 -41.1 L-20.3 -42.15 Q-18.6 -43.9 -15.95 -43.9" fill="#000000" fill-rule="evenodd" stroke="none"/>
    <path d="M-29.7 -34.7 L-26.85 -35.25 Q-24.9 -35.3 -24.55 -34.25 L-23.55 -32.1 -22.85 -29.85 Q-22.45 -30.55 -22.8 -32.65 L-23.1 -33.9 -21.55 -34.0 -19.4 -33.2 Q-18.05 -32.6 -17.15 -32.65 -17.2 -33.35 -18.05 -33.9 L-19.45 -34.8 Q-21.8 -36.15 -22.6 -37.75 -20.8 -38.6 -16.65 -38.4 -12.75 -38.15 -10.85 -39.3 L-10.1 -37.8 Q-9.75 -36.85 -10.55 -36.5 L-11.9 -36.2 Q-12.75 -36.15 -13.3 -35.7 -12.65 -34.75 -11.85 -34.75 L-10.1 -35.0 Q-8.9 -35.1 -9.25 -33.55 -9.45 -32.35 -10.1 -31.4 L-10.9 -30.4 Q-11.15 -30.05 -10.65 -29.35 L-9.1 -27.55 Q-7.2 -25.4 -7.9 -23.5 L-15.7 -25.3 Q-20.15 -26.5 -22.15 -29.55 -22.4 -28.25 -23.5 -27.85 L-25.9 -27.6 Q-30.35 -27.9 -32.75 -25.65 L-34.05 -30.9 -34.25 -31.95 Q-34.35 -32.5 -34.0 -32.8 L-33.15 -33.3 Q-30.9 -34.4 -29.7 -34.7" fill="#000000" fill-rule="evenodd" stroke="none"/>
    <path d="M-12.25 -43.35 Q-9.3 -43.7 -6.4 -41.4 -5.7 -40.8 -5.75 -40.4 -5.75 -40.05 -6.6 -39.55 L-9.2 -38.3 Q-10.45 -41.5 -12.25 -43.35" fill="#000000" fill-rule="evenodd" stroke="none"/>
    <path d="M3.95 -40.55 L2.55 -39.3 1.1 -38.05 0.25 -37.45 -0.65 -37.55 -2.05 -38.8 Q-2.8 -39.7 -3.15 -40.55 -3.45 -41.05 -3.05 -41.5 L-2.2 -42.3 Q-0.8 -43.95 -0.5 -46.05 0.8 -45.65 1.7 -43.35 2.7 -40.95 3.95 -40.55" fill="#000000" fill-rule="evenodd" stroke="none"/>
    <path d="M3.05 -43.7 Q4.25 -44.25 5.0 -42.9 5.8 -41.65 4.25 -41.25 L3.4 -42.35 3.05 -43.7" fill="#000000" fill-rule="evenodd" stroke="none"/>
    <path d="M-30.35 -25.1 L-27.55 -26.45 Q-24.4 -27.4 -21.7 -25.65 -19.25 -24.1 -18.0 -21.0 -18.9 -20.5 -20.5 -20.35 L-23.15 -20.2 Q-27.15 -19.7 -29.25 -17.25 -30.15 -18.1 -30.65 -19.7 L-31.6 -22.45 -32.1 -23.15 Q-32.3 -23.5 -31.9 -23.85 -31.1 -24.45 -30.35 -25.1" fill="#000000" fill-rule="evenodd" stroke="none"/>
    <path d="M7.75 -39.3 Q8.45 -37.95 7.85 -37.35 6.8 -36.0 6.8 -35.25 6.75 -34.35 7.75 -32.85 L5.5 -32.7 3.2 -32.45 2.3 -34.1 1.1 -35.6 Q4.75 -37.4 6.15 -39.8 7.05 -40.6 7.75 -39.3" fill="#000000" fill-rule="evenodd" stroke="none"/>
    <path d="M-9.65 -16.1 Q-12.55 -16.8 -15.35 -19.65 L-19.8 -24.8 -15.8 -24.55 -12.05 -22.8 Q-11.0 -22.25 -10.3 -22.1 L-9.25 -21.9 Q-8.85 -21.8 -8.85 -21.2 L-9.25 -18.6 -9.65 -16.1" fill="#000000" fill-rule="evenodd" stroke="none"/>
    <path d="M-27.85 -16.5 L-26.3 -17.6 Q-24.6 -18.75 -23.0 -19.1 -19.6 -20.15 -16.1 -18.75 -12.8 -17.4 -10.65 -14.4 L-14.35 -13.85 -18.2 -13.55 Q-22.4 -13.1 -25.75 -10.0 -25.95 -11.15 -26.85 -12.6 L-28.25 -15.05 Q-28.6 -15.8 -27.85 -16.5" fill="#000000" fill-rule="evenodd" stroke="none"/>
    <path d="M-7.9 -23.5 L-4.7 -23.3 -1.65 -22.45 -0.1 -22.15 0.6 -21.9 0.75 -21.0 0.9 -19.0 1.1 -17.15 Q-1.4 -17.0 -4.75 -18.9 -6.25 -19.7 -7.7 -20.65 -8.0 -21.1 -7.9 -22.05 L-7.9 -23.5" fill="#000000" fill-rule="evenodd" stroke="none"/>
    <path d="M7.25 -30.35 L9.6 -31.2 Q11.15 -31.9 11.3 -32.8 12.55 -33.05 13.05 -31.6 L13.65 -29.2 Q13.05 -29.35 12.6 -28.95 L11.7 -28.25 Q12.55 -27.5 13.65 -28.05 14.7 -25.6 10.95 -24.4 L9.55 -23.9 8.35 -24.05 6.95 -27.35 Q5.55 -28.95 5.65 -29.1 5.85 -29.7 7.25 -30.35" fill="#000000" fill-rule="evenodd" stroke="none"/>
    <path d="M-8.7 -17.75 Q-6.75 -17.9 -2.8 -16.3 -0.85 -15.45 0.35 -15.3 0.9 -15.25 0.9 -14.95 L0.8 -14.15 0.7 -12.5 Q0.45 -9.85 -0.7 -10.1 -2.0 -10.35 -3.75 -11.2 L-6.5 -13.1 -9.2 -15.1 Q-8.6 -15.45 -8.6 -16.3 L-8.7 -17.75" fill="#000000" fill-rule="evenodd" stroke="none"/>
    <path d="M4.75 -22.1 L6.4 -21.95 7.3 -22.1 7.85 -21.55 Q8.3 -20.55 8.45 -18.3 8.65 -16.25 9.2 -15.2 L7.1 -15.4 4.95 -15.45 Q4.8 -15.8 5.35 -16.15 L6.0 -16.85 Q6.05 -17.6 5.0 -17.2 L3.8 -16.45 Q3.1 -15.9 2.7 -15.9 2.3 -15.9 2.2 -16.5 L2.15 -17.55 Q2.0 -20.4 1.15 -21.95 L4.75 -22.1" fill="#000000" fill-rule="evenodd" stroke="none"/>
    <path d="M1.8 -14.55 Q6.25 -14.7 8.7 -13.1 9.2 -12.8 9.0 -11.75 L8.55 -10.0 Q8.35 -8.05 9.15 -5.6 5.85 -5.9 2.35 -8.2 L0.8 -9.25 1.35 -10.9 Q1.8 -12.65 1.8 -14.55" fill="#000000" fill-rule="evenodd" stroke="none"/>
    <path d="M-9.8 -1.75 Q-12.05 -0.1 -14.7 0.15 -17.85 0.35 -18.95 -2.1 -19.1 -2.55 -18.25 -3.25 L-17.0 -4.2 Q-15.45 -5.9 -13.8 -6.3 -12.9 -5.8 -11.85 -3.95 -10.8 -2.2 -9.8 -1.75" fill="#000000" fill-rule="evenodd" stroke="none"/>
    <path d="M-12.4 -7.0 Q-10.5 -7.85 -9.55 -6.0 -9.95 -4.4 -11.5 -5.0 -13.0 -5.45 -12.4 -7.0" fill="#000000" fill-rule="evenodd" stroke="none"/>
    <path d="M-10.5 -4.35 Q-9.25 -4.9 -8.05 -5.55 L-7.15 -3.65 Q-9.95 -2.3 -10.5 -4.35" fill="#000000" fill-rule="evenodd" stroke="none"/>
    <path d="M6.8 29.95 Q9.2 30.8 10.4 34.8 L12.2 41.0 Q11.25 41.3 9.9 42.4 8.45 43.5 7.6 43.85 L6.9 36.95 Q6.5 32.7 6.8 29.95" fill="#000000" fill-rule="evenodd" stroke="none"/>
    <path d="M5.2 35.2 Q5.8 35.3 5.9 35.65 L6.0 36.6 6.2 42.05 6.2 43.1 5.35 43.45 Q1.95 43.75 -0.3 41.1 -2.25 38.75 -2.55 35.15 L1.35 34.8 5.2 35.2" fill="#000000" fill-rule="evenodd" stroke="none"/>
    <path d="M6.9 46.2 L7.15 47.15 Q7.25 48.0 6.8 49.6 L5.7 49.3 Q5.45 49.4 4.65 50.0 4.45 49.1 3.4 48.0 2.35 46.75 2.05 45.95 L4.05 45.75 5.9 46.05 6.9 46.2" fill="#000000" fill-rule="evenodd" stroke="none"/>
    <path d="M13.1 42.95 Q14.35 45.05 11.95 46.8 9.6 48.55 7.8 47.9 7.1 46.25 9.15 45.0 10.25 44.2 13.1 42.95" fill="#000000" fill-rule="evenodd" stroke="none"/>
    <path d="M2.7 -32.0 Q3.05 -31.45 2.5 -31.05 L1.85 -30.85 1.15 -30.6 Q0.55 -30.2 0.95 -29.7 1.3 -29.2 1.95 -29.2 L3.9 -29.55 Q4.5 -29.65 4.95 -28.95 L5.55 -27.6 6.6 -25.25 Q6.9 -24.25 6.4 -24.0 L4.85 -23.75 2.0 -23.85 Q1.35 -23.85 0.8 -24.95 L0.05 -26.7 Q-0.5 -26.0 -0.15 -24.9 0.1 -23.75 -1.4 -24.2 L-3.05 -24.55 Q-3.8 -24.55 -4.55 -23.9 -5.35 -26.85 -7.35 -26.1 L-7.5 -27.5 -7.55 -28.95 -6.5 -29.15 Q-5.8 -29.15 -5.45 -29.45 -7.45 -30.7 -8.35 -33.15 -9.4 -35.95 -7.5 -37.35 -7.3 -37.05 -7.35 -36.5 L-7.3 -35.65 Q-5.4 -36.0 -5.4 -38.1 -5.4 -39.2 -4.3 -39.1 -3.45 -38.95 -2.55 -38.25 -1.35 -37.35 0.45 -34.7 L1.8 -32.95 2.7 -32.0 M-2.8 -34.4 L-1.05 -35.1 Q-2.05 -36.85 -3.95 -36.05 -3.4 -35.45 -4.1 -34.75 -4.75 -34.0 -4.45 -33.5 L-2.8 -34.4" fill="#000000" fill-rule="evenodd" stroke="none"/>
    <path d="M8.2 -35.45 Q8.0 -35.95 8.9 -36.0 9.95 -36.05 10.2 -36.4 L11.1 -34.45 9.2 -33.55 9.15 -34.9 Q9.0 -35.7 8.2 -35.45" fill="#000000" fill-rule="evenodd" stroke="none"/>
    <path d="M14.5 -13.3 Q17.1 -13.35 18.5 -14.35 19.6 -12.15 19.6 -9.8 L19.7 -6.6 19.8 -5.75 Q19.8 -5.45 19.2 -5.35 L10.8 -4.65 Q10.8 -10.45 10.4 -12.75 L14.5 -13.3" fill="#000000" fill-rule="evenodd" stroke="none"/>
    <path d="M27.3 13.1 L28.65 16.5 29.05 17.25 28.7 17.95 27.8 19.2 Q26.6 20.65 24.55 21.35 25.15 23.1 26.75 21.65 28.5 19.95 28.9 20.45 L30.0 22.7 30.45 23.4 Q30.65 23.7 30.8 23.05 31.2 23.2 31.2 25.15 L31.4 26.95 Q31.4 28.15 31.0 28.45 L27.0 31.15 26.25 31.7 Q25.95 31.85 25.5 31.45 24.9 30.85 24.5 29.7 23.8 29.95 24.8 31.5 25.2 32.15 24.9 32.5 L24.0 33.25 21.9 35.05 19.4 35.15 Q19.4 36.55 18.05 37.45 L15.65 38.7 14.35 39.7 Q13.55 40.3 13.25 40.1 12.4 39.45 11.8 37.15 L11.25 35.65 Q10.9 34.5 11.15 34.25 L14.35 31.85 16.55 30.15 Q17.85 28.85 17.1 27.95 18.7 27.85 20.75 25.55 L19.45 25.5 18.05 26.25 16.95 21.95 15.7 17.6 Q15.35 15.45 15.9 13.95 16.25 13.05 17.45 13.8 L18.7 15.2 Q17.75 12.65 20.85 11.3 22.9 10.45 26.1 10.4 26.3 10.4 27.3 13.1 M20.95 21.65 Q21.9 24.35 22.9 23.95 L22.0 20.95 Q21.1 18.45 19.8 17.65 L20.95 21.65" fill="#000000" fill-rule="evenodd" stroke="none"/>
    <path d="M19.4 41.75 Q18.65 42.55 18.65 43.25 17.8 42.45 16.9 42.7 L15.05 43.25 Q16.35 39.8 22.25 36.1 L27.1 33.2 Q29.95 31.35 31.7 29.75 33.45 32.15 34.3 32.7 33.25 32.85 33.15 33.9 33.1 35.0 32.55 35.3 L33.3 35.5 Q33.8 35.55 34.0 35.85 34.2 36.2 33.8 36.6 L33.1 37.45 Q32.8 38.15 32.9 39.4 L32.9 41.35 Q32.7 42.2 32.25 41.5 L31.85 40.3 31.5 38.85 Q31.15 38.05 30.35 38.15 L30.3 39.35 Q30.15 40.6 31.05 42.0 30.1 42.0 29.55 41.1 29.0 40.15 29.9 39.55 29.2 39.05 28.4 38.85 27.25 38.5 27.3 39.35 L27.25 40.75 27.35 42.1 Q27.95 43.25 27.25 42.9 26.65 42.6 26.65 42.1 26.65 41.65 27.25 41.45 27.0 40.8 26.3 41.7 25.6 42.55 26.25 43.1 24.7 43.45 25.25 41.55 25.75 39.75 26.8 39.25 26.1 37.95 24.9 38.55 L22.95 39.95 24.15 40.3 Q24.45 40.45 24.5 41.1 24.55 41.55 24.85 41.45 25.05 41.9 24.2 41.9 23.2 42.0 22.95 42.35 22.15 39.95 20.1 40.15 20.15 40.95 19.4 41.75" fill="#000000" fill-rule="evenodd" stroke="none"/>
    <path d="M-11.0 -48.1 Q-8.55 -47.4 -7.45 -45.7 -6.05 -46.75 -5.9 -47.75 L-5.9 -48.5 Q-5.95 -48.8 -5.4 -49.05 -4.55 -49.4 -3.8 -49.85 -2.25 -50.4 -2.45 -49.15 -2.9 -47.2 -2.6 -46.85 L-3.6 -46.75 -4.55 -47.05 Q-5.25 -47.2 -5.75 -46.5 -6.25 -45.8 -5.25 -45.85 -3.6 -45.95 -3.85 -44.8 -4.35 -43.0 -4.15 -42.55 -6.75 -42.3 -8.7 -44.3 L-10.0 -45.95 -11.7 -47.2 Q-10.9 -47.45 -11.0 -48.1" fill="#000000" fill-rule="evenodd" stroke="none"/>
    <path d="M-7.15 -10.1 Q-7.55 -9.3 -7.35 -8.9 -6.25 -10.35 -4.85 -9.75 -4.0 -9.4 -4.2 -8.75 -4.55 -8.0 -4.2 -7.4 -9.45 -9.5 -15.45 -7.2 -18.25 -6.3 -20.5 -4.3 -21.15 -4.55 -22.1 -6.0 -22.95 -7.3 -23.85 -7.35 -22.4 -12.05 -16.7 -12.85 -11.85 -13.5 -7.3 -11.25 -6.8 -10.7 -7.15 -10.1" fill="#000000" fill-rule="evenodd" stroke="none"/>
    <path d="M15.2 -15.3 L11.7 -14.95 Q11.15 -14.9 10.95 -15.2 L10.55 -16.1 Q10.05 -17.2 9.7 -18.8 L9.05 -21.6 Q12.9 -22.45 16.25 -23.9 16.75 -22.15 18.0 -18.65 18.35 -17.2 18.3 -16.0 L15.2 -15.3" fill="#000000" fill-rule="evenodd" stroke="none"/>
    <path d="M15.9 22.5 Q16.4 25.05 17.1 26.6 L17.15 27.45 16.35 27.95 14.45 29.5 10.4 32.4 Q10.05 31.9 9.85 30.6 9.7 29.4 9.2 28.85 L12.3 26.8 Q14.3 25.0 13.2 23.95 12.05 22.75 9.9 22.65 L6.2 22.55 5.3 20.8 Q4.75 19.7 5.0 19.0 4.05 19.35 4.45 20.6 L5.0 22.55 Q4.45 23.1 2.5 24.25 0.8 25.2 0.2 26.1 4.3 24.05 5.9 23.55 9.7 22.3 11.8 23.9 12.6 24.5 12.4 25.05 L11.45 26.25 8.2 28.5 Q4.5 30.25 1.6 29.0 1.45 29.75 3.4 30.15 5.65 30.75 5.85 31.5 6.25 32.9 4.6 33.05 L1.05 32.9 -2.45 32.6 -3.45 32.75 -3.95 32.05 -5.8 25.55 -6.45 23.95 Q-6.8 23.0 -6.4 22.55 L-3.6 19.2 Q0.95 13.9 3.6 17.3 3.6 16.55 4.15 15.65 L5.1 14.15 8.65 14.75 12.35 14.75 13.6 14.95 Q13.9 15.1 14.3 16.0 L15.05 18.3 15.9 22.5" fill="#000000" fill-rule="evenodd" stroke="none"/>
  </g>
</svg>
