<?xml version="1.0" encoding="UTF-8" standalone="no"?>
<svg xmlns:xlink="http://www.w3.org/1999/xlink" height="100.0px" width="93.55px" xmlns="http://www.w3.org/2000/svg">
  <g transform="matrix(1.0, 0.0, 0.0, 1.0, 46.75, 50.0)">
    <path d="M-6.95 -49.6 Q-5.35 -44.0 -5.0 -41.15 -4.45 -35.9 -6.65 -32.85 -6.9 -32.4 -6.45 -31.35 -5.9 -30.05 -5.9 -29.65 -5.9 -27.8 -6.95 -26.4 -7.95 -24.85 -9.65 -24.6 -11.2 -24.35 -11.6 -27.15 -11.85 -28.75 -11.45 -30.7 L-10.6 -34.2 Q-10.2 -36.1 -10.45 -37.7 L-10.85 -39.85 Q-11.05 -40.95 -10.55 -42.05 L-9.55 -43.35 -10.45 -44.55 Q-11.05 -45.85 -10.95 -47.3 -10.8 -49.1 -9.65 -49.7 L-6.95 -49.6" fill="#000000" fill-rule="evenodd" stroke="none"/>
    <path d="M17.3 -35.85 Q17.7 -32.65 16.8 -30.05 15.85 -27.15 13.65 -26.7 L12.85 -26.4 Q12.65 -26.15 13.0 -25.4 13.8 -23.6 14.95 -23.55 L14.05 -19.3 Q13.25 -16.15 11.85 -16.7 L12.4 -13.7 Q12.85 -11.9 12.75 -10.75 12.6 -8.95 11.6 -8.0 11.2 -7.65 10.2 -7.35 10.2 -6.95 10.55 -6.3 L10.8 -5.2 Q9.8 -5.2 8.2 -6.45 6.55 -7.65 6.65 -8.4 6.7 -8.95 7.2 -8.8 L8.0 -8.5 Q9.0 -8.05 8.65 -8.8 8.2 -9.7 8.2 -8.9 7.45 -9.6 7.45 -10.6 L7.6 -12.55 6.4 -10.75 Q5.4 -9.55 5.35 -11.55 5.25 -13.2 6.5 -14.9 7.6 -16.4 9.25 -17.25 6.8 -18.35 7.6 -21.85 8.35 -24.85 10.2 -26.65 9.4 -30.45 10.7 -34.2 12.2 -38.3 15.5 -40.0 16.25 -40.3 16.8 -38.55 L17.3 -35.85" fill="#000000" fill-rule="evenodd" stroke="none"/>
    <path d="M-10.05 -17.75 L-8.5 -17.75 -8.65 -13.3 Q-8.75 -10.7 -8.5 -8.9 -10.3 -9.3 -10.15 -12.8 -9.95 -17.45 -10.05 -17.75" fill="#000000" fill-rule="evenodd" stroke="none"/>
    <path d="M-20.0 -8.4 L-21.2 -9.05 -22.6 -8.9 -23.4 -11.25 Q-23.9 -12.55 -22.1 -12.55 -20.65 -12.65 -20.05 -11.1 -19.6 -9.8 -20.0 -8.4" fill="#000000" fill-rule="evenodd" stroke="none"/>
    <path d="M-22.1 -3.2 L-22.1 -6.3 Q-20.65 -6.3 -20.55 -6.75 -19.9 -6.6 -20.15 -5.65 -20.3 -5.0 -18.95 -5.2 -19.0 -4.25 -20.15 -3.75 L-22.1 -3.2" fill="#000000" fill-rule="evenodd" stroke="none"/>
    <path d="M-18.95 -2.6 Q-19.35 -1.9 -20.15 -1.7 -20.95 -1.55 -21.55 -2.15 -21.55 -3.0 -20.45 -3.1 -19.5 -3.2 -18.95 -2.6" fill="#000000" fill-rule="evenodd" stroke="none"/>
    <path d="M33.1 23.3 L32.6 22.55 31.8 21.75 Q31.65 21.5 31.9 20.65 L33.2 18.3 33.6 17.15 Q33.85 16.5 34.25 16.7 34.8 16.85 35.15 17.1 L35.6 16.35 Q36.6 14.55 38.7 13.9 L42.95 13.75 Q45.3 14.15 46.8 15.65 43.6 20.45 38.05 22.3 L35.4 23.05 34.0 23.35 33.1 23.3" fill="#000000" fill-rule="evenodd" stroke="none"/>
    <path d="M-39.45 -15.65 Q-38.65 -13.05 -39.85 -11.0 -37.55 -10.35 -37.0 -7.65 -36.5 -5.15 -37.75 -3.2 -35.2 -2.7 -34.55 -0.25 -33.9 1.95 -35.15 4.15 -33.8 4.45 -33.5 5.2 -33.25 5.75 -33.35 6.4 -33.4 7.1 -34.05 6.6 L-35.35 5.05 Q-36.1 4.25 -37.25 4.7 -38.15 1.35 -41.9 -4.75 -45.65 -10.7 -46.35 -14.35 -46.95 -17.1 -46.7 -20.2 -46.6 -21.35 -44.75 -20.85 -43.2 -20.45 -42.15 -19.65 -40.2 -18.15 -39.45 -15.65" fill="#000000" fill-rule="evenodd" stroke="none"/>
    <path d="M-16.3 -2.3 Q-12.75 -3.75 -7.45 -4.15 -7.7 -2.85 -6.2 -1.8 -4.75 -0.6 -4.85 0.5 -3.7 -0.1 -2.8 -1.05 L-2.05 -2.05 Q-1.75 -2.6 -1.25 -2.6 L-0.3 -2.45 6.05 -2.15 Q6.7 -1.9 6.95 -0.8 7.3 0.3 7.7 0.65 L8.5 1.2 8.5 2.2 7.8 4.8 Q5.9 8.85 1.0 10.25 L-4.35 10.9 Q-4.85 10.4 -4.9 9.5 -5.1 8.4 -4.35 8.3 -4.45 7.95 -5.55 8.05 -6.8 8.05 -6.95 7.3 -8.2 7.75 -8.2 9.1 -8.2 11.05 -8.5 11.45 L-10.85 11.25 -13.15 12.1 -15.35 11.95 Q-16.1 13.45 -17.45 14.55 -20.4 17.0 -22.65 16.2 L-23.65 15.7 Q-24.2 15.45 -24.45 16.05 L-24.6 17.0 Q-24.7 17.65 -25.2 17.75 -21.6 19.35 -19.0 23.45 L-16.95 26.95 Q-16.5 27.9 -16.55 29.15 L-16.8 31.4 Q-16.9 33.3 -16.5 35.8 L-15.85 40.2 Q-15.4 42.5 -15.4 44.45 -15.4 47.15 -15.75 47.3 L-16.1 46.1 -17.45 46.15 -19.1 48.1 -19.15 49.25 -19.15 50.0 Q-20.15 46.8 -21.55 47.0 -20.95 46.4 -21.05 45.45 -21.2 44.35 -22.1 44.35 -21.6 43.05 -19.5 42.75 -20.3 42.0 -20.55 40.8 L-20.65 38.5 Q-20.45 37.3 -21.1 36.45 L-21.95 35.65 Q-22.6 35.25 -22.35 36.0 -21.7 39.1 -23.55 37.45 -24.7 36.55 -25.75 34.35 L-27.25 30.75 Q-28.15 28.55 -29.2 27.35 -30.3 26.05 -32.1 26.05 -33.75 26.05 -33.5 22.2 L-33.5 20.0 Q-33.75 18.8 -34.65 18.25 -34.55 17.35 -33.75 16.1 -32.75 14.8 -32.6 14.15 -32.35 13.2 -33.6 12.95 -34.7 12.7 -34.5 12.1 -33.6 9.75 -31.4 8.45 -30.25 7.95 -29.5 7.95 -29.25 7.95 -28.35 8.55 -27.7 8.85 -27.4 8.55 -26.75 7.9 -26.25 6.4 L-25.45 4.05 Q-24.95 3.1 -23.55 3.55 -22.25 4.05 -22.2 3.8 L-22.2 2.7 -21.05 2.6 -21.35 0.95 Q-21.55 0.4 -20.4 -0.25 -18.2 -1.65 -16.3 -2.3 M-2.65 3.65 Q-2.15 1.95 -2.8 2.1 -2.9 2.6 -3.7 3.25 -4.5 3.75 -4.35 4.7 -3.05 5.3 -2.65 3.65 M-26.75 26.6 Q-27.4 26.8 -27.15 27.1 L-26.6 27.75 -25.6 29.45 Q-24.95 30.55 -24.15 30.75 L-24.45 27.7 Q-24.4 26.05 -23.15 25.0 L-25.2 24.9 -26.8 23.5 Q-27.9 23.3 -27.9 24.2 -27.95 25.05 -27.3 25.55 L-26.15 25.95 Q-25.5 26.2 -25.2 26.6 L-26.75 26.6" fill="#000000" fill-rule="evenodd" stroke="none"/>
    <path d="M12.35 22.95 Q12.4 23.35 12.75 23.3 L13.15 23.2 Q12.9 23.3 13.0 23.7 L13.5 24.35 16.35 26.05 Q19.5 28.0 20.5 30.2 21.3 32.1 17.7 35.6 16.0 37.55 12.9 39.55 L7.85 43.05 Q4.7 44.95 2.25 45.2 L-4.35 44.85 Q-4.25 43.8 -6.15 42.9 -8.0 41.95 -8.0 40.95 -7.7 34.25 -3.3 27.6 -1.6 24.85 1.0 21.9 L1.9 20.85 1.35 18.7 Q1.0 16.95 1.35 15.65 1.6 14.3 2.55 13.0 3.05 12.3 5.25 12.7 7.6 13.2 9.4 15.2 12.1 18.25 12.35 22.95" fill="#000000" fill-rule="evenodd" stroke="none"/>
    <path d="M-21.55 -40.75 Q-19.15 -30.45 -18.85 -26.9 -18.25 -18.15 -22.6 -14.1 -26.5 -19.8 -27.05 -29.1 -27.4 -33.8 -26.6 -36.8 L-25.45 -39.75 Q-24.85 -40.65 -23.75 -40.8 L-21.55 -40.75" fill="#000000" fill-rule="evenodd" stroke="none"/>
  </g>
</svg>
