<?xml version="1.0" encoding="UTF-8" standalone="no"?>
<svg xmlns:xlink="http://www.w3.org/1999/xlink" height="74.15px" width="99.95px" xmlns="http://www.w3.org/2000/svg">
  <g transform="matrix(1.0, 0.0, 0.0, 1.0, 49.95, 37.05)">
    <path d="M2.15 7.2 Q-1.7 7.2 -3.35 9.45 -0.35 8.85 2.15 7.2 M-26.05 11.5 Q-25.05 10.05 -26.0 9.75 -26.75 10.5 -27.55 13.0 -26.9 12.85 -26.05 11.5 M-11.8 16.55 L-9.3 14.15 Q-12.4 15.5 -14.4 18.35 L-11.8 16.55 M-6.0 6.4 Q-6.6 7.3 -7.7 7.85 -9.05 8.5 -9.5 8.95 L-11.3 10.7 Q-12.5 11.9 -12.75 12.6 -10.75 11.85 -8.5 9.9 L-4.8 6.65 -6.0 6.4 M12.9 28.45 Q12.15 28.9 12.6 29.75 13.6 29.7 14.25 28.9 14.9 28.0 13.95 27.4 13.9 27.9 12.9 28.45 M11.3 34.3 Q10.95 35.15 10.25 35.55 9.45 36.1 8.8 35.75 L9.9 34.8 Q10.55 34.3 11.3 34.3 M0.9 9.5 Q4.95 8.05 4.6 7.2 -1.1 9.85 -4.1 10.9 -2.75 10.85 0.9 9.5 M-0.45 11.25 L4.4 9.05 Q3.15 9.35 1.0 10.3 L-2.3 11.6 -4.0 11.85 Q-5.05 12.05 -5.15 12.7 -5.05 13.9 -6.25 13.5 -7.55 13.8 -7.8 15.55 -8.75 15.8 -10.4 17.25 -11.9 18.65 -13.2 18.7 L-13.4 20.15 Q-11.8 19.4 -8.8 16.9 -5.9 14.45 -4.1 13.6 -3.95 12.75 -0.45 11.25 M13.35 16.45 L14.5 15.5 14.5 15.55 14.15 16.35 13.6 16.9 13.0 17.25 10.45 18.75 Q8.4 19.85 7.5 19.75 L6.75 20.1 Q6.05 20.95 3.7 21.85 0.9 22.75 -0.2 23.2 L-2.5 24.55 Q-5.05 26.35 -6.15 27.5 L-7.0 28.7 Q-7.4 29.4 -8.0 29.7 L-8.85 30.35 -10.55 32.75 -12.25 35.4 -13.1 36.35 Q-13.65 35.95 -9.9 30.75 -6.15 25.6 -5.0 25.8 -4.2 24.3 -1.15 22.75 L-1.05 22.45 0.4 22.0 Q4.7 20.3 5.15 20.65 L6.3 19.9 6.35 19.85 7.15 19.4 8.05 18.75 Q7.9 19.2 8.35 19.2 8.8 18.7 10.8 17.7 12.9 16.55 13.1 16.85 L13.35 16.45 M17.1 8.75 L16.6 9.65 Q16.3 10.15 15.75 10.1 L16.05 8.45 16.05 8.4 16.15 8.4 17.1 8.75 M-34.15 24.95 L-33.45 23.6 Q-34.05 23.25 -34.6 23.75 L-34.15 24.95 M-30.15 24.65 Q-30.75 25.6 -30.6 26.55 L-29.6 25.0 Q-29.0 24.0 -29.2 23.15 L-30.15 24.65 M-42.35 9.85 Q-41.65 7.2 -42.3 6.05 L-42.55 8.1 Q-42.65 9.25 -42.35 9.85 M-32.25 20.35 Q-31.6 19.45 -32.55 19.5 L-32.95 20.35 -33.5 21.2 Q-32.8 21.3 -32.25 20.35 M-30.7 17.35 L-31.6 17.05 -32.1 18.05 -31.45 18.85 -30.7 17.35 M-26.7 13.6 Q-28.1 14.45 -29.3 16.9 L-31.3 20.65 -31.8 22.4 Q-32.3 23.55 -31.6 24.1 -30.3 22.35 -28.95 18.95 L-26.7 13.6 M-27.7 10.1 L-28.3 10.0 -30.35 13.45 Q-31.75 16.35 -30.25 16.55 -30.15 15.25 -29.0 13.3 -27.8 11.25 -27.7 10.1 M-30.3 0.5 L-30.0 2.35 Q-29.8 3.45 -30.0 4.2 L-30.4 5.15 -30.95 7.25 -30.95 7.6 -31.4 8.3 Q-31.1 8.5 -31.1 9.45 L-30.75 9.55 -31.15 10.3 Q-31.55 12.6 -32.55 14.15 -33.1 15.35 -33.85 15.35 -33.2 13.15 -32.1 8.05 -31.1 3.15 -30.3 0.5 M-38.7 1.25 Q-38.9 1.0 -38.7 0.35 L-38.55 -0.8 Q-39.15 -0.8 -39.2 0.35 -39.35 1.5 -38.7 1.25 M-32.05 -6.05 Q-32.85 -7.25 -32.8 -7.95 L-32.3 -7.9 Q-31.3 -7.65 -30.65 -5.4 L-30.4 -5.1 -30.05 -3.0 Q-29.8 -1.7 -30.15 -0.95 -30.85 -1.35 -31.0 -2.4 -31.0 -3.6 -31.15 -4.15 L-32.05 -6.05 M-42.45 2.6 Q-42.8 4.7 -42.3 5.5 -42.65 4.9 -42.1 2.75 L-41.4 -0.05 Q-42.1 0.4 -42.45 2.6 M-39.7 3.6 Q-39.9 4.45 -39.5 4.45 -39.05 4.35 -38.9 3.5 -38.8 2.7 -39.25 2.4 L-39.7 3.6 M-45.95 -6.15 Q-46.55 -5.6 -46.35 -4.55 L-46.2 -2.8 Q-45.1 -2.95 -45.45 -4.25 L-45.95 -6.15 M-41.75 -7.85 Q-41.25 -5.85 -41.35 -5.05 -41.35 -4.4 -42.1 -2.7 -42.6 -1.1 -41.4 -0.2 -40.6 -3.8 -40.35 -5.65 -40.0 -9.05 -41.75 -10.7 -42.2 -9.6 -41.75 -7.85 M-31.5 -11.75 L-30.6 -10.2 Q-30.3 -9.35 -30.4 -8.8 -31.25 -8.8 -32.05 -10.35 -32.8 -11.65 -32.8 -12.6 L-32.1 -12.35 -31.55 -12.1 -31.5 -11.75 M-28.75 -31.0 L-28.15 -30.35 -28.45 -29.75 -29.25 -30.6 -30.05 -31.5 Q-29.85 -31.6 -29.75 -31.75 L-29.5 -31.75 Q-29.1 -31.65 -28.75 -31.0 M-44.3 -25.8 L-44.8 -27.6 -44.85 -28.35 Q-44.1 -27.55 -43.65 -26.5 L-43.1 -25.55 -42.25 -23.55 -41.8 -22.2 -40.95 -20.3 Q-40.35 -19.0 -40.3 -18.15 -39.95 -17.45 -38.9 -13.2 -37.2 -8.4 -37.4 -7.3 L-37.35 -7.0 Q-36.8 -7.0 -37.2 0.35 L-37.1 0.9 -37.25 1.85 -37.5 5.2 -37.35 8.9 Q-37.4 10.5 -38.25 13.9 -38.95 22.65 -39.45 24.15 L-39.25 24.0 -39.15 23.75 -39.1 23.7 Q-38.55 22.55 -38.1 18.6 L-37.65 14.05 -36.85 8.95 -36.3 5.05 -36.3 4.7 Q-36.05 2.45 -36.1 -1.3 L-36.25 -6.8 Q-35.95 -9.4 -37.35 -12.75 -39.35 -17.55 -39.55 -18.45 -38.4 -17.65 -37.25 -15.1 -36.35 -13.2 -35.85 -11.2 -35.35 -8.8 -35.25 -5.55 L-35.25 0.15 Q-35.25 5.0 -36.4 12.4 L-38.25 24.55 -36.0 14.9 -36.0 14.7 -35.95 14.6 Q-35.2 11.45 -34.9 8.9 L-34.85 8.7 -34.1 5.8 Q-33.5 3.0 -33.65 -0.25 L-34.15 -6.55 Q-32.8 -5.1 -32.65 -2.55 L-32.45 1.6 Q-32.1 3.0 -32.8 6.15 L-33.75 10.75 Q-34.4 17.25 -35.95 20.45 L-36.5 24.45 Q-36.95 26.85 -37.8 28.3 -38.35 28.0 -38.4 27.3 L-38.3 26.05 Q-38.2 25.3 -38.7 25.0 -39.25 24.7 -39.15 24.25 -39.7 24.45 -39.55 25.6 L-39.5 27.2 Q-40.65 26.75 -40.4 24.75 -40.2 22.55 -40.65 22.05 -41.1 22.65 -41.25 23.7 L-41.6 25.4 -41.9 25.2 Q-42.25 24.75 -42.25 23.5 L-42.25 22.95 -42.05 20.95 Q-41.25 16.2 -42.0 12.15 -42.6 14.05 -42.5 17.85 -42.35 21.75 -43.05 23.55 -43.6 23.55 -43.45 19.0 L-43.35 13.35 Q-43.75 10.35 -43.75 6.3 L-43.7 -0.75 -44.3 -0.05 Q-45.05 1.35 -44.9 4.95 L-44.6 9.5 -44.55 10.9 -44.8 14.0 -45.05 17.05 -44.35 21.15 -44.35 21.3 -44.55 22.0 -45.2 21.6 -45.5 21.25 -45.6 21.05 Q-46.35 19.6 -46.15 15.25 L-45.95 12.75 -45.9 7.9 -46.25 4.9 -46.15 1.2 Q-45.95 -1.1 -46.15 -2.45 L-46.6 0.5 Q-46.9 3.2 -46.8 7.35 L-46.55 11.45 Q-46.5 14.35 -47.05 15.45 L-47.45 16.05 -47.95 15.45 -48.15 15.0 -48.7 12.15 -49.1 9.65 -49.15 9.5 -49.45 8.3 -49.45 8.15 Q-50.35 4.15 -49.7 -0.35 -49.2 -3.7 -49.05 -8.8 L-48.75 -17.3 -48.7 -19.75 Q-47.75 -18.15 -47.5 -13.5 -47.3 -9.35 -45.65 -7.65 L-45.5 -11.85 Q-45.5 -14.25 -45.95 -16.05 L-46.5 -17.6 Q-46.25 -17.95 -46.15 -18.9 L-46.05 -21.9 Q-46.25 -23.25 -46.85 -23.45 -46.5 -23.45 -46.5 -24.1 L-46.3 -24.95 Q-45.65 -24.8 -45.3 -20.5 L-44.75 -15.2 Q-44.05 -13.5 -44.05 -9.6 -44.0 -5.85 -43.25 -4.05 -42.35 -5.35 -42.3 -8.8 -42.25 -12.1 -42.9 -13.55 -43.45 -14.9 -44.0 -17.75 -44.6 -21.25 -43.9 -21.45 L-43.05 -15.9 Q-42.25 -12.5 -40.9 -10.8 -39.05 -8.25 -39.25 -6.55 L-39.5 -5.5 -39.5 -5.35 Q-40.05 -3.1 -39.55 -2.15 L-39.5 -2.1 Q-39.35 -1.6 -38.8 -1.35 -38.35 -2.1 -38.2 -3.0 L-38.05 -3.4 -37.85 -5.05 -37.85 -5.25 Q-37.85 -6.95 -38.35 -9.2 L-38.4 -9.75 -38.65 -10.65 -39.65 -14.4 Q-40.25 -16.7 -41.05 -17.9 -41.4 -18.45 -41.8 -20.3 -42.1 -21.3 -43.35 -21.85 L-43.5 -23.15 -44.3 -25.8 M-43.5 -28.5 Q-43.75 -29.15 -43.2 -29.35 -41.7 -29.75 -41.8 -28.05 L-41.65 -27.75 -38.55 -22.45 -36.5 -18.45 -35.4 -16.65 -34.3 -14.7 -33.55 -13.65 Q-34.05 -13.25 -34.05 -12.65 L-33.4 -10.75 Q-32.9 -9.75 -33.15 -9.25 -33.25 -9.0 -33.45 -8.9 L-34.55 -10.8 -35.95 -14.65 Q-36.8 -16.95 -37.65 -18.15 L-38.4 -19.1 Q-38.95 -19.6 -40.55 -22.45 L-42.85 -27.5 -43.5 -28.5 M14.8 1.3 L14.75 1.25 14.75 0.45 15.1 0.65 16.45 1.65 16.55 1.8 17.1 1.95 17.7 1.55 17.95 1.35 Q18.85 1.85 19.35 3.5 19.7 4.75 19.65 6.05 L19.25 7.85 19.15 8.0 18.45 9.55 17.6 10.7 Q14.6 14.6 8.85 17.35 L6.8 18.1 0.7 20.55 -4.15 23.75 -10.55 29.0 -12.1 30.6 -14.5 34.3 -15.9 36.05 Q-16.35 34.55 -13.35 30.85 -11.3 28.3 -10.35 27.6 L-9.3 26.85 -9.25 26.75 -5.85 24.1 -5.0 23.25 -4.15 22.75 -3.9 22.6 Q-3.55 22.35 -1.4 21.05 L0.65 19.45 0.9 19.15 Q1.85 18.3 6.1 17.35 7.5 17.0 9.35 16.05 L9.65 15.85 12.5 14.05 Q15.75 12.0 17.55 9.45 L17.95 8.85 Q19.7 5.5 18.15 3.0 17.35 3.3 17.65 4.95 17.9 6.7 17.2 7.2 16.9 6.5 16.85 5.35 L16.7 3.45 16.3 2.8 15.1 1.8 14.8 1.3 M16.45 -9.0 L18.8 -6.9 Q20.4 -5.6 21.6 -5.65 20.7 -5.95 18.9 -7.6 17.45 -9.05 16.45 -9.0 M5.35 4.7 L2.7 5.0 Q1.15 5.3 1.0 6.5 1.75 6.0 3.25 5.9 4.5 5.9 5.35 4.7 M6.1 -5.05 Q4.0 -5.95 1.5 -6.15 L-3.25 -5.75 6.1 -5.05 M6.95 3.75 Q6.75 4.2 7.1 4.7 L7.75 5.5 Q8.4 6.45 7.25 6.3 L5.65 5.9 Q5.35 6.4 5.65 7.05 L6.0 8.2 Q6.25 7.5 6.35 8.9 L6.35 10.15 Q8.9 9.45 9.6 5.2 8.75 4.35 6.95 3.75 M1.45 4.05 L4.05 4.0 Q5.9 3.8 6.1 3.15 L3.55 3.3 Q2.0 3.3 1.45 4.05 M0.0 4.1 Q-0.35 4.45 -0.3 5.0 L0.6 4.2 0.0 4.1 M0.8 2.4 L-0.75 2.7 -1.35 3.45 Q-1.9 3.8 -1.75 4.1 -1.2 3.5 0.05 3.2 L2.05 2.5 0.8 2.4 M0.65 -8.55 Q1.5 -8.55 4.0 -7.65 6.1 -7.05 6.35 -8.4 L3.4 -9.25 Q1.4 -9.8 0.65 -8.55 M6.35 -2.15 L4.6 -2.65 Q3.5 -2.95 2.9 -2.45 L4.65 -2.1 6.35 -2.15 M9.45 -20.2 Q8.65 -20.5 8.4 -19.85 L9.7 -19.6 Q10.5 -19.45 10.8 -19.6 L9.45 -20.2 M8.25 -20.7 Q8.35 -21.25 7.5 -21.95 6.65 -22.7 6.0 -22.5 6.2 -22.4 5.8 -21.95 5.4 -21.55 5.65 -21.3 6.0 -21.65 6.95 -21.3 L8.25 -20.7 M9.15 -22.95 L7.2 -23.9 5.15 -23.95 7.45 -22.7 Q8.9 -21.75 9.8 -21.55 L12.0 -21.6 9.15 -22.95 M15.05 -9.4 L10.3 -10.45 5.5 -11.55 Q8.8 -9.9 15.7 -8.45 L15.05 -9.4 M16.5 -21.25 Q18.9 -19.9 20.7 -19.45 19.95 -20.05 19.55 -20.95 18.25 -21.15 15.95 -22.2 13.7 -23.3 12.45 -23.5 L16.5 -21.25 M-4.8 3.9 Q-5.75 4.2 -6.85 4.95 L-8.4 6.3 Q-6.2 5.45 -4.8 3.9 M-8.1 0.5 Q-6.4 -0.5 -3.7 -1.5 L-0.45 -1.9 Q1.7 -2.05 2.65 -2.65 L-1.45 -2.8 -5.45 -1.95 Q-7.05 -0.2 -8.1 0.5 M-8.5 0.75 L-9.85 1.2 Q-10.55 1.25 -12.2 3.5 L-14.1 6.6 Q-15.2 6.65 -16.05 7.9 L-17.45 10.0 -16.2 10.5 Q-16.15 9.2 -15.0 8.1 L-12.95 6.35 -11.3 4.1 -9.8 1.8 -8.5 0.75 M-7.85 -7.65 L-6.5 -7.1 -1.95 -6.65 Q-2.75 -7.3 -4.3 -7.8 -7.65 -8.9 -8.85 -8.25 L-10.85 -8.05 Q-8.7 -7.35 -7.85 -7.65 M-5.65 -3.6 Q-5.85 -2.5 -7.25 -2.45 -8.5 -2.45 -9.1 -3.1 -7.15 -4.45 -5.65 -3.6 M-15.8 -0.4 Q-15.85 3.6 -17.3 4.8 L-18.05 5.65 -18.35 6.0 Q-19.2 7.25 -19.05 9.35 L-19.85 10.05 -20.8 11.35 Q-21.35 12.15 -21.35 12.65 -19.1 11.35 -17.45 8.35 L-14.75 3.0 Q-13.25 0.4 -14.65 -1.5 L-16.15 -2.9 Q-15.8 -2.05 -15.8 -0.4 M-22.95 -8.25 L-22.15 -6.95 -21.25 -4.9 Q-19.2 0.15 -20.4 2.4 L-21.0 3.15 Q-21.45 2.3 -21.3 0.45 L-21.25 -2.35 -22.2 -5.3 Q-22.85 -7.1 -22.95 -8.25 M-19.25 -2.55 Q-19.45 -3.4 -18.9 -3.2 L-18.45 -3.25 Q-18.15 -3.05 -18.1 -2.45 L-18.1 0.05 -18.05 0.4 -17.8 0.65 -17.55 0.65 Q-17.0 0.65 -16.75 1.15 L-18.7 3.0 -18.8 3.2 Q-19.65 4.2 -20.3 5.45 L-20.35 5.55 Q-21.45 7.6 -22.3 10.75 L-22.95 13.35 Q-23.15 14.3 -23.6 14.75 L-24.35 16.4 -24.6 18.0 -26.6 21.05 -28.45 24.35 -28.95 25.2 -30.05 26.65 -30.95 28.25 -31.3 30.0 -31.95 31.7 -31.95 31.75 -32.65 32.6 -31.8 28.65 Q-31.2 26.15 -31.85 24.7 -32.55 25.3 -32.95 28.6 -33.3 31.3 -35.15 31.3 -34.85 30.65 -35.2 30.15 -35.5 29.75 -34.95 28.9 -33.65 26.95 -34.5 26.0 -35.45 26.95 -36.25 29.55 -37.1 29.4 -35.85 24.1 -34.7 18.85 -34.7 18.3 L-34.55 18.05 Q-33.95 16.2 -32.45 15.55 L-31.3 13.9 -30.0 11.25 Q-29.2 9.65 -28.95 8.4 -29.85 8.9 -30.15 8.7 -30.15 6.5 -29.0 6.0 -28.6 6.1 -28.85 6.95 -29.15 7.85 -28.9 8.1 -27.85 7.55 -28.0 5.65 L-28.55 3.65 Q-28.75 2.6 -28.45 2.05 L-28.4 0.05 -29.0 -3.3 -29.75 -7.0 Q-30.15 -8.2 -29.8 -8.55 -28.4 -7.2 -27.85 -5.4 -27.05 -3.2 -27.05 0.6 L-27.2 6.45 Q-27.15 7.0 -27.85 8.3 -28.0 8.95 -27.6 9.2 L-27.3 9.05 Q-26.95 8.6 -26.6 7.0 L-26.15 4.5 -26.1 4.0 Q-26.1 2.3 -25.75 0.9 -25.35 -0.4 -25.8 -1.85 L-26.7 -4.35 -27.25 -6.4 -27.8 -8.65 -29.85 -11.4 Q-31.4 -13.25 -32.0 -14.4 -31.0 -14.6 -28.9 -11.8 -28.15 -11.1 -27.3 -9.55 L-27.25 -9.5 -26.7 -8.5 Q-25.9 -7.1 -25.55 -4.75 L-24.85 -0.85 Q-24.7 -0.5 -24.7 0.4 -24.5 2.35 -24.75 4.1 L-25.0 4.6 Q-24.9 5.55 -24.4 6.05 L-25.5 7.75 -25.5 7.85 Q-26.05 8.95 -25.5 9.2 L-25.0 9.05 -24.45 8.3 -24.3 7.65 -24.2 7.2 Q-23.6 2.5 -24.3 -2.65 L-25.0 -7.2 Q-25.2 -9.0 -26.6 -10.4 L-27.6 -11.85 -28.4 -13.3 -29.6 -14.5 Q-30.35 -15.1 -31.3 -16.65 L-32.9 -18.75 Q-33.75 -19.45 -34.55 -19.6 -34.6 -18.8 -34.0 -18.05 L-33.0 -16.65 Q-34.0 -15.8 -35.15 -18.6 L-35.95 -20.7 Q-36.35 -21.55 -38.0 -21.85 -37.4 -23.05 -39.45 -25.85 -41.5 -28.6 -40.6 -30.65 L-39.5 -29.05 -39.4 -28.85 Q-38.9 -28.05 -38.5 -26.95 L-37.75 -25.35 -37.55 -25.05 -36.55 -23.5 -35.65 -22.7 -35.55 -22.3 -34.95 -21.6 Q-34.5 -21.3 -34.5 -20.65 L-33.95 -20.2 Q-32.9 -19.85 -32.1 -19.1 L-31.8 -18.75 -31.1 -18.4 -30.95 -18.05 Q-28.95 -15.75 -27.75 -13.45 L-26.05 -11.05 -24.9 -9.25 -24.5 -8.2 -24.45 -7.9 -23.3 -3.3 -23.0 -2.7 -23.05 -1.55 -23.15 1.85 Q-23.05 4.2 -22.1 4.8 L-22.65 5.45 -23.35 7.15 -23.6 8.15 -23.8 9.55 -23.5 10.15 -24.65 12.35 -28.3 21.7 -26.1 18.55 -25.35 17.55 Q-26.0 17.0 -24.5 14.75 L-23.55 12.1 Q-22.85 8.6 -21.45 5.75 -19.9 3.0 -19.5 1.8 -18.75 -0.2 -19.25 -2.55 M-17.5 -13.9 Q-17.35 -14.4 -19.6 -15.75 -21.85 -17.0 -22.85 -17.05 -22.75 -15.85 -20.5 -14.15 L-17.2 -12.05 -13.25 -9.75 Q-10.75 -8.55 -8.95 -8.9 -10.0 -8.75 -13.25 -10.8 -16.05 -12.6 -17.5 -13.9 M-23.8 -20.1 L-26.4 -22.2 -27.2 -23.3 Q-27.7 -23.8 -28.35 -23.95 -27.3 -21.55 -25.7 -19.9 -23.7 -17.95 -21.45 -17.8 L-23.8 -20.1 M-19.95 -23.6 L-19.35 -23.2 -19.6 -22.6 -21.45 -24.05 Q-22.45 -25.0 -22.7 -26.05 -21.2 -25.65 -19.95 -23.6 M-11.85 -12.6 L-10.2 -11.85 Q-9.4 -11.3 -5.15 -10.1 -0.6 -8.9 -0.3 -9.4 -0.8 -10.7 -3.3 -11.0 -6.0 -11.3 -6.7 -12.25 -9.25 -12.45 -12.85 -13.8 L-18.9 -15.9 Q-13.5 -12.45 -10.15 -10.8 -5.45 -8.45 -0.75 -7.35 7.9 -5.35 11.05 -4.2 17.15 -1.95 21.55 1.95 21.05 0.2 19.4 -1.4 14.5 -4.45 5.5 -6.65 -6.1 -9.4 -8.85 -10.5 -11.7 -11.55 -12.4 -12.2 -13.2 -13.0 -11.85 -12.6 M-9.4 -27.45 L-8.65 -26.9 -8.75 -26.6 -8.85 -26.45 -9.05 -26.5 -9.85 -27.0 -9.95 -27.15 -10.15 -27.45 -10.2 -27.65 -10.15 -28.1 -9.4 -27.45 M-17.65 -30.5 L-18.95 -31.75 Q-16.9 -31.6 -16.45 -29.35 L-17.65 -30.5 M-20.7 -25.85 Q-21.15 -26.6 -20.9 -27.15 -19.55 -26.45 -19.65 -24.8 L-20.7 -25.85 M-26.2 -27.9 L-26.45 -27.2 -27.45 -28.0 Q-27.85 -28.6 -27.45 -29.15 L-26.65 -28.35 -26.2 -27.9 M-23.25 -30.95 L-22.9 -31.2 Q-21.9 -30.0 -21.65 -29.35 L-21.2 -28.95 -21.5 -28.35 -22.6 -29.45 -23.45 -30.75 -23.25 -30.95 M-1.55 -35.45 L-1.05 -35.15 -1.15 -34.5 Q-2.85 -35.3 -3.6 -36.9 L-2.8 -36.65 Q-2.2 -36.35 -1.55 -35.45 M34.2 21.7 L33.5 23.15 Q33.1 24.0 33.05 24.7 34.05 24.35 34.95 23.0 35.85 21.6 34.2 21.7 M32.9 16.55 L31.0 18.65 29.35 21.0 27.0 24.3 Q28.1 25.3 30.4 21.5 L32.9 16.55 M39.35 14.3 L38.75 14.15 Q36.15 18.45 35.3 21.05 L36.8 20.85 37.55 19.15 Q39.0 16.0 39.35 14.3 M41.35 13.15 L41.75 10.9 Q40.95 10.95 40.65 12.3 40.35 13.85 40.05 14.1 40.95 14.95 41.35 13.15 M42.6 9.2 Q43.05 8.35 42.2 8.1 41.75 8.1 41.5 8.75 41.25 9.35 41.45 9.85 42.15 10.0 42.6 9.2 M48.8 1.05 Q48.4 0.8 47.4 -3.25 46.3 -7.3 46.65 -7.65 48.85 -4.35 49.1 -1.35 49.4 -0.15 48.8 1.05 M23.4 4.65 L23.1 2.95 Q25.4 3.25 23.55 8.1 22.3 11.2 20.6 13.8 L19.45 15.2 18.4 16.2 18.15 16.4 Q16.2 17.9 12.65 19.55 L7.05 22.05 -2.55 27.75 -4.7 29.55 -7.3 32.75 -8.55 34.85 -10.2 36.55 Q-10.65 37.1 -11.2 37.1 L-11.6 36.95 Q-11.4 35.25 -8.0 31.5 L-7.35 30.75 -3.4 27.2 0.55 24.6 2.0 23.75 8.65 20.3 8.75 20.2 12.75 18.3 Q17.35 15.85 19.85 13.35 23.15 10.1 23.4 6.3 L23.4 4.65 M22.8 -1.2 L23.45 0.1 24.75 1.55 Q26.55 3.45 25.6 7.15 24.85 11.9 22.45 14.35 L22.3 14.65 16.85 18.6 15.65 19.5 15.3 19.7 14.6 20.1 11.1 22.0 9.5 22.75 Q8.3 23.5 8.55 22.65 L8.5 22.6 5.35 24.4 0.05 28.25 -4.3 31.85 -4.5 32.05 -6.2 33.85 -6.45 34.15 -8.0 36.45 Q-8.5 34.85 -6.45 32.65 -4.4 30.1 -0.45 27.25 3.2 24.55 6.05 23.25 7.55 22.0 8.55 22.6 L8.85 22.85 Q9.1 22.35 9.65 22.0 L11.45 21.15 Q12.6 20.65 13.2 19.9 L15.0 18.95 15.65 18.4 Q19.45 15.7 19.95 15.45 L21.3 14.15 22.55 12.45 23.65 10.35 24.5 7.55 24.8 5.75 24.85 4.6 Q24.85 3.55 24.2 2.35 23.85 1.85 23.15 1.65 23.0 -1.25 19.55 -3.2 L19.1 -3.4 14.75 -5.5 11.75 -6.5 10.8 -6.8 10.05 -7.2 9.8 -7.25 7.5 -8.35 7.25 -8.25 Q7.45 -7.6 6.85 -7.35 L13.9 -4.9 16.2 -3.85 17.05 -3.5 18.15 -2.9 18.55 -2.55 19.55 -1.9 21.0 -0.7 21.55 0.05 21.7 0.2 Q22.25 0.95 22.25 2.6 L22.2 5.25 Q22.25 7.2 21.15 9.45 20.2 12.75 18.75 12.85 L18.0 13.55 16.7 14.75 Q15.2 16.0 14.5 15.5 L17.3 13.6 Q20.05 10.6 21.05 7.6 L21.3 6.5 21.3 5.35 Q21.25 4.45 20.8 3.45 L19.75 1.65 19.35 1.2 18.3 0.2 17.75 -0.2 16.7 -0.85 15.7 -1.5 11.4 -3.35 Q10.75 -3.4 9.95 -2.15 10.5 -1.85 12.8 -1.65 14.8 -1.55 15.3 -0.85 14.6 -0.15 11.7 -0.2 L7.95 -0.7 6.3 -0.95 4.65 -1.25 Q1.7 -1.5 -0.35 -1.25 L-1.1 -1.1 -3.65 -0.65 -3.95 -0.55 -5.0 -0.2 Q-6.45 0.45 -7.55 1.3 L-7.65 1.35 -9.3 2.75 -10.85 4.8 Q-11.7 6.3 -12.45 6.9 L-14.2 8.65 -15.55 10.75 Q-15.9 11.5 -16.6 11.85 L-18.8 16.15 -14.9 13.15 -13.55 12.0 Q-13.95 11.8 -13.7 11.15 -10.75 10.45 -9.3 6.65 -10.65 7.35 -12.45 9.35 L-15.4 12.4 Q-15.75 11.9 -15.05 10.7 L-15.0 10.65 -14.35 9.85 Q-12.8 7.9 -9.7 5.55 -7.7 3.85 -2.0 0.9 -3.95 0.65 -6.15 2.35 L-9.8 5.05 Q-8.7 2.65 -6.1 1.15 -3.6 -0.35 -0.8 -0.4 L0.9 -0.4 2.7 -0.45 4.7 -0.65 7.15 -0.65 Q13.7 -0.35 15.0 3.25 15.75 5.35 15.35 7.65 15.0 10.15 13.35 11.6 11.3 13.45 6.35 15.75 L1.25 18.1 Q0.35 18.65 -0.25 19.15 L-2.0 20.55 -6.55 22.9 Q-9.55 24.6 -9.8 26.55 -11.95 28.15 -14.1 30.75 L-17.65 35.75 Q-18.65 35.1 -15.2 30.85 -11.9 26.75 -10.5 26.25 L-9.4 24.7 -8.65 23.85 -8.15 23.45 -7.0 22.55 -6.7 22.3 -5.6 21.6 -5.35 21.45 Q-3.1 20.15 -0.05 17.85 1.7 16.7 6.3 14.75 10.55 13.0 12.6 11.35 15.3 9.25 14.3 4.7 13.4 0.05 9.6 0.7 L11.3 3.15 Q12.65 4.95 13.15 5.0 L12.75 5.45 13.15 5.55 Q13.8 6.0 13.3 7.3 L12.85 8.5 Q12.55 9.5 11.65 10.15 L9.9 11.2 2.9 14.9 Q2.7 15.5 1.85 15.8 L0.3 16.3 Q-2.15 17.8 -3.55 18.85 L-5.7 20.7 -9.05 23.5 -12.35 26.1 -12.85 26.65 -14.25 28.15 -17.5 32.3 Q-20.7 36.45 -20.8 35.4 -20.9 34.4 -18.65 31.55 -16.4 28.1 -15.8 28.05 L-15.35 27.85 -13.5 26.0 -12.35 24.65 -10.45 22.95 -6.5 19.4 -6.45 19.3 -3.95 17.6 -3.1 17.2 0.65 15.3 4.3 13.15 6.5 12.05 9.7 10.35 Q13.9 7.55 12.3 6.0 L11.9 6.2 11.8 6.35 Q11.65 6.6 11.65 7.05 L11.6 7.85 Q11.3 8.75 10.9 8.45 10.55 8.4 10.55 8.0 L10.1 7.65 10.9 6.95 11.05 6.8 11.4 6.15 11.4 5.9 11.45 5.35 11.4 4.8 11.4 4.65 Q10.95 3.0 9.4 1.8 L9.1 1.55 8.5 1.25 Q6.55 0.4 4.55 0.4 L0.05 1.05 3.65 0.8 7.1 1.05 Q7.05 1.6 5.45 1.75 L3.2 2.1 5.95 2.05 8.25 1.85 Q9.45 2.2 9.4 3.2 L9.9 4.4 Q10.9 6.1 9.05 8.9 L8.9 9.15 8.3 10.0 6.05 11.8 1.8 13.9 0.9 14.35 -2.6 15.9 -5.75 17.8 -8.45 20.1 Q-10.0 21.45 -11.25 22.15 L-12.85 23.8 -14.65 25.6 -16.1 27.25 -20.6 32.65 -22.0 34.95 -22.0 33.5 -21.85 33.0 -21.65 32.6 Q-20.9 30.3 -17.9 27.1 L-13.5 22.7 -12.55 21.75 -10.65 20.3 -7.3 17.6 -6.95 17.35 -6.4 16.9 -2.15 14.65 Q-1.4 14.3 -1.3 13.75 -1.15 13.25 -0.6 12.95 -1.6 13.05 -2.85 14.0 L-3.1 14.45 -4.85 15.15 Q-5.45 15.3 -5.9 15.7 L-8.25 17.35 -11.9 20.05 Q-14.05 21.6 -15.0 23.0 -16.7 25.25 -17.25 25.6 L-19.2 27.85 -20.15 29.15 -20.2 29.25 -21.9 32.45 Q-23.45 34.95 -24.2 34.9 L-23.7 33.4 -22.1 30.7 -20.4 28.25 -19.95 27.45 Q-19.45 26.05 -17.45 23.75 -15.2 21.2 -14.5 19.9 L-16.7 21.5 Q-17.9 22.4 -18.6 23.45 L-21.45 28.15 -22.65 29.45 -22.85 29.6 Q-23.5 30.1 -23.85 31.2 L-24.0 31.45 -24.4 32.35 -26.55 35.15 Q-27.2 34.25 -26.2 32.55 L-25.8 31.75 Q-24.85 30.35 -23.8 29.45 L-23.5 29.2 -22.15 27.8 Q-21.35 25.7 -18.8 22.45 -15.35 18.0 -13.25 15.85 L-12.8 15.5 -12.75 15.45 Q-11.7 14.3 -9.15 12.6 L-5.25 9.8 -3.9 8.85 -3.7 8.65 -3.25 8.3 -3.15 8.2 Q-1.7 6.9 -2.7 6.75 -3.4 6.6 -4.5 7.5 L-6.7 9.45 -10.95 12.6 Q-13.7 14.5 -14.95 16.0 L-17.8 20.0 -21.85 24.9 -22.2 25.25 -22.65 25.8 Q-26.65 30.75 -27.55 33.55 L-27.85 34.7 Q-28.9 33.8 -27.15 30.95 -25.35 28.1 -25.0 28.35 -24.7 26.7 -22.7 23.6 -20.65 20.45 -19.05 19.45 L-18.1 19.25 -17.95 17.85 -17.6 17.55 Q-16.9 16.45 -13.05 13.5 -16.9 14.7 -18.4 18.45 -18.95 18.55 -19.05 18.0 -19.1 17.45 -18.8 17.05 -19.85 16.9 -20.05 17.05 L-20.4 18.0 -21.55 20.0 -24.4 24.6 -24.85 25.75 -25.55 27.75 Q-26.1 28.85 -26.75 29.0 L-27.5 29.75 -28.55 31.25 -29.3 33.5 Q-29.8 34.7 -30.35 35.1 -31.0 33.8 -29.95 32.0 L-28.05 29.4 Q-26.2 26.65 -24.0 22.15 L-22.3 19.45 Q-21.2 17.75 -20.75 16.3 -19.45 16.0 -18.5 14.1 L-16.95 11.2 Q-17.55 10.0 -18.75 11.6 L-20.05 13.85 -20.8 13.2 Q-21.35 13.7 -21.05 14.4 -20.75 15.05 -20.1 15.15 -20.3 15.7 -21.0 16.05 L-22.2 16.95 -23.5 19.7 Q-24.95 23.2 -25.9 24.4 L-26.65 25.25 -26.65 25.3 -28.6 27.6 -28.65 27.7 -29.45 29.1 -29.85 30.55 -30.0 30.6 Q-30.7 32.95 -31.4 33.6 -32.4 33.3 -31.1 30.6 L-29.2 27.25 -27.8 25.3 -26.85 24.25 -26.55 23.8 Q-25.35 22.3 -24.3 19.75 L-22.95 17.25 Q-22.1 15.25 -22.1 13.6 L-22.1 13.25 -22.3 12.45 -21.85 11.2 -20.2 8.15 Q-19.3 6.4 -18.9 4.95 -17.0 2.95 -16.6 1.85 L-16.4 1.5 -16.2 0.6 -16.2 0.4 -16.35 -0.7 -16.4 -0.8 -17.65 -2.75 -18.2 -3.6 -17.0 -3.65 -18.1 -4.9 Q-18.4 -4.75 -18.35 -4.25 -18.35 -3.7 -18.5 -3.65 -19.1 -3.85 -19.25 -4.8 L-19.85 -6.7 -21.3 -8.15 -22.6 -9.5 -22.0 -9.55 -21.45 -9.35 -21.0 -9.05 -19.35 -6.9 -18.75 -6.25 -16.5 -4.55 -15.5 -3.8 -15.1 -3.4 -14.65 -3.1 -14.25 -2.7 -14.1 -2.45 Q-12.65 -0.7 -13.5 1.55 L-15.35 5.75 -14.35 5.2 -13.85 4.75 -13.55 4.45 -12.4 2.9 -11.85 1.85 Q-11.3 0.95 -10.0 0.4 -8.3 -0.25 -7.85 -0.65 L-8.65 -0.7 Q-9.25 -0.25 -9.6 -0.45 L-9.4 -1.2 Q-9.1 -1.9 -8.3 -1.9 L-7.1 -2.1 -5.9 -2.45 -5.3 -2.7 -4.75 -3.0 -1.6 -3.7 0.35 -3.85 4.55 -3.4 6.9 -2.9 Q9.65 -2.4 9.4 -3.2 L9.15 -3.6 8.6 -3.95 4.6 -4.35 0.95 -4.35 -4.95 -4.55 -10.7 -5.2 Q-10.0 -3.8 -10.45 -1.5 -10.85 1.15 -12.55 0.9 L-11.95 -0.4 -11.2 -1.55 Q-12.2 -1.7 -13.05 -2.45 L-15.3 -4.45 -17.5 -6.5 -17.75 -7.0 -19.45 -8.95 -22.45 -10.75 -22.65 -10.9 -23.5 -11.6 -23.6 -11.2 Q-23.55 -10.75 -23.8 -10.7 -24.75 -12.2 -26.4 -13.95 L-29.3 -17.05 -31.25 -19.55 Q-32.45 -21.0 -33.45 -21.5 -33.3 -22.15 -34.15 -23.25 L-35.35 -24.9 -36.95 -27.6 Q-38.2 -29.5 -38.1 -30.35 -37.55 -30.05 -37.1 -29.45 L-36.5 -28.65 -36.35 -28.4 -34.7 -25.2 Q-34.15 -24.2 -32.85 -22.9 L-32.0 -22.4 Q-31.7 -21.5 -30.65 -20.1 L-29.2 -17.9 -27.7 -16.45 -26.35 -15.0 -24.5 -13.1 Q-24.1 -13.55 -22.65 -12.15 L-20.35 -10.4 -18.7 -9.4 -18.65 -9.35 -18.25 -9.1 Q-17.65 -8.75 -17.25 -7.95 L-16.45 -6.9 -15.65 -6.15 -14.25 -5.4 Q-13.55 -5.0 -13.3 -4.25 L-13.05 -3.5 -12.55 -2.75 Q-12.25 -2.5 -11.9 -2.4 -11.65 -2.75 -11.35 -4.45 L-11.25 -5.1 -11.2 -5.25 Q-14.05 -5.6 -15.95 -7.8 L-17.55 -9.25 -19.25 -10.6 -20.7 -11.75 Q-25.25 -15.2 -25.75 -16.5 L-26.0 -16.7 -26.2 -17.3 Q-27.7 -18.05 -29.5 -20.5 -31.6 -23.45 -32.45 -24.1 L-32.55 -24.45 Q-34.55 -27.5 -35.2 -30.45 -33.4 -30.0 -32.15 -26.95 L-32.05 -26.7 -32.05 -26.6 Q-30.85 -23.3 -30.25 -22.45 L-23.8 -15.6 -21.9 -13.25 Q-20.8 -13.1 -19.65 -11.85 L-19.2 -11.6 -18.5 -10.8 Q-17.75 -10.7 -16.95 -9.9 L-15.65 -8.4 Q-13.7 -6.05 -9.5 -5.6 L-7.05 -5.5 -6.1 -5.55 -4.8 -5.75 Q-6.0 -6.45 -10.1 -6.95 -13.5 -7.3 -14.8 -8.95 L-14.4 -9.05 -14.15 -9.0 -13.65 -8.95 Q-15.25 -9.65 -17.55 -11.3 -22.5 -14.4 -23.45 -16.15 L-24.7 -18.15 -27.7 -21.0 Q-29.2 -22.8 -28.7 -24.1 L-28.55 -24.3 -28.35 -24.75 Q-27.85 -24.65 -26.45 -23.75 L-26.45 -23.65 -24.75 -22.2 -20.15 -17.5 Q-19.3 -16.8 -18.9 -16.75 L-8.2 -13.25 -6.4 -12.7 -4.7 -11.85 -3.3 -11.5 -0.25 -11.05 Q1.55 -10.8 2.65 -10.2 L3.65 -10.2 5.5 -9.8 Q7.35 -9.5 8.9 -8.8 L10.25 -8.65 Q10.25 -8.1 10.5 -7.8 L13.9 -6.35 Q19.05 -4.45 20.9 -3.55 L21.05 -3.05 21.85 -2.4 22.8 -1.2 M26.75 -2.05 Q27.05 -2.7 26.4 -3.2 L25.3 -4.05 25.7 -4.1 Q26.0 -4.15 25.3 -5.1 L23.6 -6.95 22.4 -6.5 Q22.15 -6.75 21.95 -7.5 L21.3 -8.65 Q20.9 -9.05 20.0 -9.3 19.0 -9.5 18.9 -8.7 L22.95 -5.4 26.75 -2.05 M25.85 -5.25 L27.8 -2.65 Q30.05 0.7 30.55 3.35 31.1 6.3 30.05 10.0 28.5 15.15 23.9 19.8 20.6 23.05 14.85 26.9 15.45 27.1 15.3 27.75 L16.8 26.9 21.65 23.25 26.15 19.15 Q26.5 17.75 28.1 16.45 28.2 15.5 29.2 14.05 L30.5 11.7 Q31.35 9.15 31.5 6.2 31.65 1.6 30.35 -2.5 30.15 -2.2 30.2 -1.35 30.25 -0.75 29.8 -0.4 29.4 -0.45 29.3 -1.6 L29.0 -3.35 Q27.7 -5.55 25.55 -7.55 L22.4 -10.05 Q19.6 -12.05 19.15 -11.05 20.0 -10.15 21.4 -9.2 23.0 -8.05 23.9 -7.85 L25.85 -5.25 M28.45 -5.6 Q28.25 -6.55 27.55 -7.4 L25.95 -8.45 Q26.2 -7.65 27.05 -6.9 L28.45 -5.6 M29.1 -4.45 L29.7 -3.6 Q30.25 -4.4 28.65 -5.4 28.7 -5.0 29.1 -4.45 M24.5 -13.35 L27.9 -11.25 30.75 -8.55 32.8 -5.65 Q34.7 -3.2 34.95 -3.3 L32.25 -8.2 Q30.55 -10.9 28.15 -11.75 27.1 -13.9 24.4 -15.2 L19.45 -16.7 15.3 -18.65 Q11.75 -20.2 11.65 -19.1 L12.9 -19.05 Q13.4 -19.1 13.75 -18.5 14.15 -17.9 15.2 -17.5 L17.0 -16.95 Q20.75 -15.65 24.5 -13.35 M23.4 -12.7 L24.0 -12.1 Q26.65 -9.9 26.7 -9.35 26.7 -9.05 26.85 -8.9 L28.4 -7.5 29.3 -6.55 29.8 -5.5 Q30.05 -4.75 30.35 -4.45 L30.9 -4.75 31.0 -4.75 31.35 -4.8 31.4 -4.8 Q32.5 -4.65 33.5 -2.35 L33.55 -2.2 Q34.25 -0.7 34.4 0.95 L34.5 2.75 34.5 4.0 34.4 6.8 33.95 9.45 Q33.35 11.35 31.65 14.15 L29.35 18.55 27.55 21.05 23.9 24.85 23.05 25.6 13.2 33.5 Q12.8 32.6 16.25 29.9 L20.5 26.65 25.0 22.35 Q27.85 19.75 29.1 17.6 32.5 11.85 33.75 6.9 35.55 -0.65 31.35 -3.8 L31.5 -2.05 32.1 2.8 Q32.4 5.6 32.2 7.6 L32.2 7.65 31.85 10.05 31.6 10.6 31.35 11.45 29.25 15.8 26.5 19.75 Q24.15 22.85 19.3 26.1 L17.0 27.85 Q16.2 29.55 12.35 31.6 10.1 32.95 8.65 32.85 L8.95 32.55 10.3 31.8 11.6 30.95 Q11.9 30.7 11.75 30.25 L11.65 30.0 10.25 29.9 Q8.6 30.55 6.95 31.7 5.5 32.65 4.5 33.85 3.8 33.75 4.05 33.0 4.25 32.45 4.7 32.05 5.1 31.7 5.9 31.45 L6.85 30.45 7.15 30.4 Q7.9 29.8 10.3 28.65 L12.9 27.1 Q13.3 26.7 13.6 26.7 L14.15 26.35 14.2 26.0 17.15 24.15 19.7 22.1 21.75 20.15 22.2 19.9 25.8 16.1 28.1 12.35 Q29.2 10.2 29.8 8.1 L30.1 6.35 Q30.25 2.2 27.4 -1.4 L29.3 4.05 Q29.9 6.9 28.7 9.65 26.4 15.3 21.95 19.4 17.6 23.25 11.1 27.4 L6.05 30.6 3.4 32.75 2.25 33.8 0.4 35.25 Q0.8 33.7 3.45 31.75 L3.75 31.5 6.55 29.15 6.8 28.85 9.5 27.45 14.15 24.55 20.3 19.7 Q25.65 15.2 28.0 9.05 L28.5 7.35 28.7 5.45 Q28.65 1.15 23.8 -3.35 24.1 -2.55 25.05 -1.3 L26.25 0.75 26.4 1.2 26.75 1.75 Q27.35 2.65 27.4 3.75 L27.15 5.75 27.05 7.65 27.0 8.05 27.15 8.95 Q26.4 12.45 23.3 15.75 L22.15 16.9 19.3 19.2 17.75 20.3 14.2 22.45 Q12.8 23.5 12.35 24.7 L11.75 24.95 9.8 26.15 7.9 27.2 6.85 28.05 1.5 31.85 Q-3.1 35.2 -3.6 36.15 L-3.35 35.45 -3.05 34.95 -2.9 34.85 -0.7 33.0 Q0.8 31.95 1.15 30.9 L2.1 30.25 4.9 28.25 7.8 26.25 8.9 25.2 Q7.2 25.75 5.05 26.75 L4.4 27.0 1.0 29.1 0.5 29.5 -3.6 33.8 Q-5.0 35.3 -5.55 35.15 -5.1 33.2 -2.8 31.2 -0.5 28.95 2.0 27.55 L2.3 27.45 2.85 27.1 Q4.0 26.25 6.0 25.45 L9.35 24.1 10.0 23.8 16.45 20.1 20.9 16.85 21.25 16.6 Q24.1 13.5 25.35 11.45 L25.8 10.45 Q26.65 7.8 26.65 5.2 L26.3 3.15 25.7 1.65 Q25.3 0.8 25.25 0.2 L24.25 -1.25 21.05 -4.35 Q19.25 -5.95 17.4 -6.75 L17.15 -6.9 15.7 -7.4 10.3 -9.1 4.95 -10.95 1.4 -11.95 Q-2.75 -12.6 -4.6 -13.2 -6.1 -13.6 -8.5 -14.7 L-12.45 -16.35 -14.1 -16.95 -14.1 -17.0 -16.05 -17.75 -19.65 -19.8 -19.95 -20.05 -22.35 -21.9 -24.6 -24.1 -25.5 -25.55 Q-25.2 -25.8 -22.4 -23.25 L-20.45 -21.6 Q-17.95 -19.35 -13.8 -17.55 L-13.05 -17.2 -12.7 -17.05 -6.6 -14.5 Q-2.7 -13.0 -0.05 -12.75 L1.7 -12.7 -4.0 -14.45 Q-7.55 -15.5 -9.55 -16.45 L-12.4 -17.55 -12.5 -17.5 -14.15 -19.05 Q-14.55 -19.1 -14.45 -18.8 -14.9 -19.5 -16.35 -20.2 -17.95 -20.95 -18.1 -21.95 L-14.45 -19.45 Q-12.15 -17.8 -10.7 -17.5 -7.15 -16.65 -0.2 -14.25 L5.4 -12.5 11.05 -10.95 14.9 -10.45 Q17.3 -10.2 18.55 -9.25 18.6 -9.6 19.0 -9.95 16.7 -11.3 13.4 -12.25 L7.5 -13.9 2.3 -15.6 0.1 -16.05 -2.15 -16.5 -6.95 -18.05 Q-10.0 -18.95 -11.6 -19.9 -13.95 -21.0 -15.25 -21.65 -17.75 -22.8 -18.4 -23.95 -18.1 -24.2 -17.35 -23.75 L-15.85 -23.0 -15.85 -23.05 -9.7 -20.05 Q-6.85 -18.7 -3.45 -17.65 L-1.15 -17.25 Q-1.05 -17.0 0.65 -16.6 L2.65 -16.25 4.2 -15.8 4.65 -15.75 8.5 -14.4 16.9 -11.95 15.2 -13.1 13.3 -14.1 9.45 -15.0 7.55 -15.45 2.55 -16.75 1.65 -17.05 -0.35 -17.45 -1.3 -18.4 -2.55 -18.8 -4.5 -19.35 -8.3 -20.9 -9.5 -21.5 -12.45 -23.55 Q-13.0 -24.1 -13.95 -24.2 L-15.65 -24.45 -15.75 -24.5 Q-16.5 -24.9 -17.2 -25.6 L-17.85 -26.5 -18.75 -28.3 -19.05 -29.35 -18.2 -28.85 -18.15 -28.7 -18.05 -28.6 -17.5 -27.3 -16.8 -26.1 Q-16.2 -25.6 -15.25 -25.35 L-13.8 -24.9 Q-13.95 -25.45 -14.8 -26.2 -15.6 -26.95 -15.65 -27.8 L-12.85 -24.6 Q-10.95 -22.65 -9.65 -22.3 L-6.85 -21.05 Q-5.25 -20.3 -3.85 -20.3 -2.8 -19.5 -0.7 -19.0 L2.65 -18.15 Q3.45 -17.6 3.75 -17.65 L4.85 -17.9 5.15 -17.65 5.95 -17.2 6.9 -16.75 8.85 -16.25 9.05 -16.25 10.5 -16.05 11.9 -15.75 Q14.65 -14.15 19.75 -11.8 18.8 -14.45 12.85 -16.25 6.3 -17.85 4.4 -18.7 L1.5 -19.95 -0.5 -19.85 -0.9 -19.95 Q-1.1 -19.95 -2.6 -20.75 L-3.6 -21.2 Q-8.45 -22.3 -12.55 -27.25 -11.65 -27.6 -10.25 -26.0 L-9.25 -24.75 -8.55 -24.15 -5.7 -22.9 Q-4.7 -22.6 -3.95 -22.15 -3.05 -21.5 -1.35 -21.45 L1.25 -21.15 1.45 -21.15 3.55 -19.95 3.75 -19.9 7.4 -18.5 11.05 -17.45 14.65 -16.35 16.7 -15.25 19.45 -13.45 20.6 -13.75 21.15 -13.75 22.2 -13.5 23.4 -12.7 M22.75 -10.9 L23.95 -9.85 Q24.7 -9.25 25.4 -9.2 23.0 -12.25 21.35 -12.75 L22.0 -11.95 Q22.3 -11.2 22.75 -10.9 M36.6 -19.05 L37.35 -18.6 38.35 -17.65 40.95 -14.5 42.3 -13.05 Q42.3 -13.6 41.6 -14.35 41.0 -15.1 41.0 -15.65 42.0 -15.1 43.0 -13.95 L44.6 -11.75 45.45 -10.75 44.85 -10.35 44.85 -10.1 44.35 -8.5 44.9 -6.75 45.7 -4.25 Q47.1 1.05 47.4 3.5 48.1 9.25 45.75 10.75 45.55 10.6 45.7 9.9 L46.45 5.5 46.45 3.75 45.85 -0.85 Q44.85 -6.15 42.35 -10.5 L42.15 -10.75 41.2 -12.25 40.15 -13.6 40.15 -13.05 Q40.3 -12.5 40.95 -11.5 L41.8 -10.05 43.25 -6.45 44.65 -0.8 44.85 0.35 44.9 2.95 44.85 3.5 44.65 4.35 44.35 5.6 44.35 5.65 43.9 6.8 Q42.7 9.75 42.35 11.25 L42.2 12.7 Q42.45 14.65 40.15 15.75 39.35 16.15 39.2 16.9 L38.75 18.55 Q41.25 19.3 43.15 13.05 44.65 6.3 45.25 5.45 46.05 6.65 45.2 9.5 L43.8 13.6 Q44.3 13.75 44.7 12.95 45.05 12.2 45.6 12.35 46.0 13.0 45.25 13.85 L44.05 14.95 Q44.15 16.95 42.85 18.1 42.1 17.6 42.65 16.75 L43.2 15.45 Q42.2 16.0 41.2 18.4 40.15 20.65 38.8 21.05 38.8 20.2 38.3 19.55 37.25 20.3 36.7 22.1 36.3 23.3 35.0 24.7 32.8 27.45 31.95 28.0 L31.55 28.15 31.1 28.25 32.35 26.35 Q33.0 25.3 31.95 24.55 L29.0 27.9 Q26.65 30.75 26.15 30.05 26.25 29.5 27.25 28.6 L28.55 27.25 Q30.1 24.7 31.75 23.0 L30.9 23.05 30.1 23.5 29.8 23.75 29.25 24.4 28.7 25.3 Q28.35 26.15 27.95 26.3 27.6 26.65 27.55 26.3 L27.05 26.4 25.15 27.9 22.2 31.1 20.45 32.55 20.85 31.45 21.0 31.3 23.1 29.15 23.35 28.9 24.15 27.75 25.3 26.7 Q25.95 25.8 25.6 25.8 L21.15 30.1 Q17.7 33.25 16.35 32.75 L24.25 25.8 Q28.65 21.6 30.65 17.55 32.25 16.3 33.3 13.8 L34.65 9.25 35.25 4.75 Q35.85 1.2 36.6 1.0 L36.8 1.55 36.8 1.6 Q36.95 2.2 36.5 3.3 L36.05 4.95 36.05 5.25 36.2 5.75 35.5 9.45 35.45 9.9 34.15 14.15 34.25 14.65 Q34.6 15.25 33.95 16.6 L33.2 18.45 Q34.1 18.45 34.6 17.2 L35.35 15.2 34.9 15.0 34.6 15.35 Q34.45 15.45 34.65 14.9 L35.85 11.2 36.1 10.75 36.35 10.05 36.65 8.6 36.95 6.7 Q36.95 5.65 37.55 5.5 37.9 5.75 37.85 6.3 37.85 6.95 38.1 7.2 38.65 6.6 38.45 5.35 38.2 3.75 38.3 3.35 L37.8 3.55 37.25 3.65 Q38.05 -0.75 35.8 -5.65 33.75 -10.2 30.05 -13.25 L26.45 -15.55 25.55 -16.05 25.15 -16.4 23.65 -17.85 23.05 -18.4 22.85 -18.45 Q22.15 -19.0 20.9 -18.75 L20.7 -18.45 19.65 -18.8 19.55 -18.8 16.85 -19.65 Q16.6 -19.1 18.9 -18.05 L22.75 -16.7 23.85 -16.1 23.9 -16.1 25.1 -15.35 27.0 -14.1 27.15 -13.95 29.05 -12.15 Q29.7 -12.1 30.65 -11.3 L30.95 -11.25 33.0 -8.25 34.1 -6.55 35.25 -4.4 36.3 -1.1 36.5 -0.35 35.9 -0.05 35.5 -0.05 35.05 -0.25 34.65 -0.5 34.65 -0.85 33.9 -3.1 Q32.25 -5.95 30.2 -8.15 L26.7 -11.2 Q24.2 -13.0 19.45 -15.3 L19.0 -15.55 Q16.85 -16.6 14.05 -17.3 L11.15 -17.9 Q9.5 -18.4 8.6 -19.1 L7.65 -19.65 3.15 -21.2 Q2.85 -21.3 1.75 -21.9 1.1 -22.35 0.5 -22.3 L-1.65 -22.45 -1.95 -22.5 -2.5 -22.75 -3.05 -23.15 -3.15 -23.2 Q-3.65 -23.75 -5.05 -24.2 -6.55 -24.8 -7.1 -25.2 L-7.15 -25.25 -7.95 -26.1 -4.0 -24.6 Q-1.7 -23.75 0.05 -23.45 L-3.45 -26.35 Q-6.0 -28.15 -6.8 -28.35 L-6.2 -28.3 Q-3.6 -27.8 -0.75 -25.5 L-0.05 -24.95 Q1.1 -23.9 4.0 -22.45 4.7 -22.2 5.2 -22.65 L3.65 -24.3 3.25 -24.5 -0.05 -26.3 -1.6 -27.3 -2.0 -28.0 -1.75 -28.1 -1.75 -28.4 -1.15 -27.85 -1.1 -27.85 2.7 -25.65 3.8 -25.2 5.45 -25.0 7.05 -24.75 7.8 -24.4 10.05 -23.35 10.65 -23.25 11.2 -23.25 11.75 -23.45 12.3 -23.8 Q11.05 -23.6 8.75 -24.8 L7.25 -25.45 5.5 -26.45 5.15 -26.7 3.0 -27.8 Q2.8 -27.85 2.55 -28.0 L1.3 -28.65 -0.35 -29.75 Q0.1 -30.35 2.55 -29.05 L5.55 -27.35 11.75 -24.9 15.75 -23.15 Q18.25 -22.05 19.75 -21.9 L20.55 -21.6 21.05 -21.15 Q22.2 -19.8 22.75 -19.6 L23.0 -19.45 23.8 -19.0 24.15 -18.7 25.05 -17.8 Q25.85 -16.7 28.15 -15.3 L31.55 -13.0 Q34.65 -10.1 36.3 -6.4 L37.25 -2.4 Q38.05 0.8 38.4 0.95 39.75 5.45 39.6 5.65 40.1 5.85 40.2 4.05 L40.15 2.8 Q40.15 1.45 39.0 -1.55 38.0 -4.25 38.1 -5.8 L39.25 -4.35 Q39.8 -3.05 40.15 -2.7 L39.45 -4.7 38.65 -6.65 38.45 -6.95 37.05 -8.8 32.75 -13.3 31.5 -14.65 28.7 -16.35 25.5 -18.15 Q23.45 -19.0 23.3 -20.1 L23.3 -20.45 Q25.55 -19.35 27.8 -18.3 34.45 -14.4 38.6 -8.2 L38.95 -7.75 39.35 -7.0 Q41.75 -3.05 40.95 4.6 40.65 7.2 40.0 8.3 L39.55 8.85 Q39.05 9.2 39.15 8.6 L39.25 7.75 Q37.45 8.65 36.65 11.45 L35.65 16.05 Q37.5 16.4 37.75 14.65 38.0 12.95 37.0 12.1 37.15 11.6 38.05 11.25 38.9 11.0 38.8 10.15 39.85 10.5 39.35 11.55 40.05 11.25 40.9 8.9 L41.35 6.2 41.3 6.0 Q41.75 4.4 41.75 2.05 L41.8 -1.9 Q42.3 -7.9 36.1 -13.45 L33.85 -15.2 32.15 -16.25 29.1 -18.4 26.1 -20.5 24.95 -21.05 23.4 -21.6 Q21.45 -22.15 16.5 -24.35 L5.55 -29.0 Q4.7 -29.35 3.35 -30.4 L2.65 -30.85 1.5 -31.85 1.45 -32.0 1.2 -32.4 1.1 -32.85 2.6 -32.05 5.75 -29.8 7.25 -28.95 8.35 -28.65 Q12.9 -27.5 16.0 -25.85 L20.6 -23.55 25.65 -21.65 28.75 -19.75 31.65 -17.6 34.45 -15.65 36.6 -14.05 37.0 -13.6 38.95 -11.6 39.25 -11.3 40.9 -8.9 41.0 -8.7 41.5 -7.75 42.3 -5.1 42.6 -2.95 42.6 -2.75 42.3 5.35 42.2 7.25 42.7 7.35 43.4 6.5 43.7 5.8 43.85 5.55 Q45.9 0.6 40.85 -9.95 39.8 -12.25 37.3 -14.75 35.9 -16.05 34.75 -16.75 L30.95 -19.55 27.0 -22.15 25.55 -22.7 Q23.15 -23.25 22.1 -23.75 L19.95 -25.05 17.85 -26.4 Q15.2 -27.5 12.55 -29.05 L12.15 -29.3 Q10.3 -30.5 8.9 -30.65 L7.5 -32.05 Q6.75 -32.75 5.9 -33.0 L4.5 -33.35 3.2 -34.2 2.1 -35.45 Q0.55 -36.0 -0.15 -36.3 L-0.6 -36.65 Q0.5 -37.6 2.5 -36.2 L4.65 -34.6 6.3 -33.35 Q8.75 -32.2 12.9 -29.55 L14.65 -28.5 Q17.35 -26.9 19.25 -26.75 L19.75 -26.2 21.15 -25.35 Q22.15 -24.45 22.7 -24.3 L23.4 -24.05 25.6 -23.35 27.7 -22.6 30.7 -20.6 33.65 -18.4 35.55 -17.2 37.05 -15.5 Q37.25 -15.2 38.05 -14.75 38.8 -14.25 39.25 -14.2 39.65 -14.5 39.3 -15.3 L38.95 -15.9 Q37.9 -17.5 35.85 -18.45 L34.45 -19.6 33.0 -20.65 Q30.1 -21.5 26.3 -24.15 L26.2 -24.2 Q25.05 -24.95 20.75 -26.5 17.2 -27.8 15.6 -29.5 16.05 -29.85 18.2 -28.95 L24.55 -26.1 Q25.5 -25.8 28.35 -24.1 L30.75 -22.75 32.1 -22.4 32.45 -21.8 36.4 -19.25 36.6 -19.05 M41.3 -18.35 L42.85 -17.2 43.0 -17.0 45.55 -13.6 46.6 -12.45 47.7 -11.6 47.95 -11.05 Q49.25 -9.55 49.75 -8.05 L49.95 -7.4 Q50.1 -6.5 49.65 -5.65 49.25 -7.55 47.95 -9.5 L45.3 -12.75 42.95 -15.45 Q41.25 -17.5 41.3 -18.35 M39.45 -24.6 L39.55 -24.8 39.6 -24.8 41.15 -24.9 42.1 -24.6 42.1 -24.35 43.85 -22.7 44.0 -22.5 44.0 -22.45 44.15 -21.85 Q43.15 -21.75 41.7 -22.7 40.05 -23.8 39.25 -23.85 L39.45 -24.6 M30.1 -28.05 Q30.35 -29.05 29.6 -29.15 28.85 -29.25 28.5 -28.45 L30.1 -28.05 M27.15 -29.25 Q28.0 -29.0 28.5 -29.65 29.6 -31.25 29.95 -31.35 L32.35 -31.0 Q32.45 -31.3 32.05 -31.55 31.65 -31.75 31.9 -32.15 33.2 -32.5 33.3 -30.95 33.4 -29.5 31.0 -30.4 30.25 -29.35 31.65 -28.75 33.55 -28.05 33.65 -27.75 33.35 -27.0 32.4 -27.5 31.2 -28.1 30.7 -27.9 L34.5 -25.15 38.9 -21.75 39.75 -21.2 39.6 -20.6 Q37.6 -21.35 33.85 -24.3 30.25 -27.05 27.9 -27.8 28.0 -28.2 26.55 -29.0 L24.55 -29.85 Q23.1 -30.75 21.3 -31.2 20.2 -31.45 19.95 -30.95 19.65 -30.4 19.1 -30.45 20.0 -29.6 21.95 -29.05 L24.95 -27.9 25.95 -27.3 Q28.1 -26.65 29.25 -25.9 L31.65 -24.75 Q33.2 -24.15 33.9 -23.3 L36.8 -21.0 Q37.75 -20.35 37.75 -19.8 L37.05 -19.75 36.75 -19.8 36.65 -19.85 Q35.8 -20.15 34.65 -21.25 L32.75 -23.05 30.4 -24.5 25.95 -26.5 20.6 -28.85 Q15.9 -30.35 12.3 -31.85 5.45 -34.85 6.2 -36.9 9.05 -34.65 13.0 -32.45 L15.0 -31.75 Q16.25 -31.55 17.55 -30.7 L18.05 -30.7 Q19.05 -31.55 18.4 -31.85 18.0 -32.0 17.7 -31.5 17.4 -31.05 16.85 -31.3 L17.05 -32.85 15.5 -33.45 Q12.9 -34.1 12.3 -35.3 13.15 -35.25 14.85 -34.45 16.5 -33.8 17.45 -33.8 L17.2 -34.45 Q17.05 -34.85 17.35 -35.05 L20.75 -32.85 Q22.25 -31.8 23.4 -31.3 L25.0 -30.65 27.15 -29.25" fill="#000000" fill-rule="evenodd" stroke="none"/>
  </g>
</svg>
