<?xml version="1.0" encoding="UTF-8" standalone="no"?>
<svg xmlns:xlink="http://www.w3.org/1999/xlink" height="99.95px" width="98.8px" xmlns="http://www.w3.org/2000/svg">
  <g transform="matrix(1.0, 0.0, 0.0, 1.0, 49.4, 49.95)">
    <path d="M-0.35 0.05 Q-0.7 1.05 -1.7 0.65 -2.7 0.3 -2.35 -0.7 -2.0 -1.7 -0.95 -1.25 0.0 -0.9 -0.35 0.05" fill="#333333" fill-rule="evenodd" stroke="none"/>
    <path d="M-0.85 -4.0 Q-1.15 -3.1 -2.15 -3.45 -3.05 -3.8 -2.7 -4.75 -2.4 -5.65 -1.4 -5.3 -0.45 -4.9 -0.85 -4.0" fill="#333333" fill-rule="evenodd" stroke="none"/>
    <path d="M-4.1 -1.65 Q-4.5 -0.75 -5.4 -1.1 -6.3 -1.45 -6.0 -2.3 -5.65 -3.25 -4.75 -2.85 -3.8 -2.5 -4.1 -1.65" fill="#333333" fill-rule="evenodd" stroke="none"/>
    <path d="M-3.7 2.45 Q-4.05 3.3 -5.0 3.0 -5.9 2.65 -5.6 1.7 -5.3 0.8 -4.3 1.15 -3.4 1.55 -3.7 2.45" fill="#333333" fill-rule="evenodd" stroke="none"/>
    <path d="M0.1 4.15 Q-0.3 5.1 -1.3 4.75 -2.35 4.4 -1.95 3.4 -1.6 2.4 -0.55 2.75 0.45 3.15 0.1 4.15" fill="#333333" fill-rule="evenodd" stroke="none"/>
    <path d="M3.45 1.75 Q3.05 2.85 2.0 2.4 0.9 1.95 1.3 0.95 1.7 0.0 2.75 0.35 3.8 0.8 3.45 1.75" fill="#333333" fill-rule="evenodd" stroke="none"/>
    <path d="M3.0 -2.3 Q2.6 -1.3 1.55 -1.7 0.5 -2.05 0.9 -3.05 1.3 -4.05 2.3 -3.7 3.35 -3.3 3.0 -2.3" fill="#333333" fill-rule="evenodd" stroke="none"/>
    <path d="M-1.3 -8.1 Q-1.6 -7.2 -2.5 -7.5 -3.45 -7.9 -3.15 -8.75 -2.75 -9.7 -1.85 -9.3 -0.95 -8.95 -1.3 -8.1" fill="#333333" fill-rule="evenodd" stroke="none"/>
    <path d="M-5.25 -6.6 Q-5.55 -5.7 -6.4 -6.1 -7.3 -6.4 -7.05 -7.25 -6.7 -8.1 -5.8 -7.75 -4.95 -7.4 -5.25 -6.6" fill="#333333" fill-rule="evenodd" stroke="none"/>
    <path d="M-7.95 -3.3 Q-8.25 -2.5 -9.1 -2.8 -9.95 -3.2 -9.65 -4.0 -9.3 -4.8 -8.5 -4.5 -7.65 -4.1 -7.95 -3.3" fill="#333333" fill-rule="evenodd" stroke="none"/>
    <path d="M-8.6 0.85 Q-8.9 1.65 -9.75 1.35 -10.6 1.05 -10.3 0.25 -10.0 -0.6 -9.15 -0.25 -8.25 0.0 -8.6 0.85" fill="#333333" fill-rule="evenodd" stroke="none"/>
    <path d="M-7.05 4.8 Q-7.35 5.7 -8.25 5.35 -9.2 5.0 -8.9 4.15 -8.6 3.25 -7.65 3.55 -6.7 3.95 -7.05 4.8" fill="#333333" fill-rule="evenodd" stroke="none"/>
    <path d="M-3.7 7.45 Q-4.05 8.45 -5.05 8.1 -6.05 7.7 -5.65 6.8 -5.3 5.8 -4.3 6.15 -3.3 6.55 -3.7 7.45" fill="#333333" fill-rule="evenodd" stroke="none"/>
    <path d="M0.5 8.2 Q0.15 9.25 -0.9 8.85 -1.95 8.45 -1.6 7.4 -1.2 6.35 -0.15 6.8 0.95 7.25 0.5 8.2" fill="#333333" fill-rule="evenodd" stroke="none"/>
    <path d="M4.55 6.75 Q4.1 7.8 3.0 7.35 1.9 6.9 2.3 5.85 2.75 4.8 3.8 5.25 4.9 5.7 4.55 6.75" fill="#333333" fill-rule="evenodd" stroke="none"/>
    <path d="M7.2 3.45 Q6.75 4.55 5.65 4.15 4.55 3.7 5.0 2.6 5.35 1.55 6.45 1.9 7.65 2.35 7.2 3.45" fill="#333333" fill-rule="evenodd" stroke="none"/>
    <path d="M7.9 -0.7 Q7.45 0.35 6.35 -0.1 5.2 -0.5 5.65 -1.55 6.05 -2.6 7.15 -2.25 8.3 -1.8 7.9 -0.7" fill="#333333" fill-rule="evenodd" stroke="none"/>
    <path d="M6.35 -4.65 Q5.95 -3.6 4.9 -4.05 3.8 -4.4 4.15 -5.45 4.6 -6.55 5.65 -6.15 6.7 -5.7 6.35 -4.65" fill="#333333" fill-rule="evenodd" stroke="none"/>
    <path d="M3.0 -7.4 Q2.6 -6.4 1.65 -6.8 0.65 -7.15 0.95 -8.15 1.3 -9.15 2.4 -8.75 3.35 -8.4 3.0 -7.4" fill="#333333" fill-rule="evenodd" stroke="none"/>
    <path d="M-3.5 -12.85 Q-3.2 -13.65 -2.25 -13.35 -1.4 -12.95 -1.7 -12.15 -2.0 -11.3 -2.95 -11.6 -3.8 -12.0 -3.5 -12.85" fill="#333333" fill-rule="evenodd" stroke="none"/>
    <path d="M-5.85 -11.0 Q-6.15 -10.2 -6.95 -10.5 -7.8 -10.8 -7.55 -11.6 -7.2 -12.4 -6.4 -12.1 -5.55 -11.8 -5.85 -11.0" fill="#333333" fill-rule="evenodd" stroke="none"/>
    <path d="M-9.3 -8.5 Q-9.65 -7.75 -10.45 -8.1 -11.2 -8.3 -10.95 -9.15 -10.6 -9.95 -9.8 -9.65 -9.0 -9.3 -9.3 -8.5" fill="#333333" fill-rule="evenodd" stroke="none"/>
    <path d="M-11.75 -5.05 Q-12.0 -4.3 -12.8 -4.55 -13.55 -4.85 -13.3 -5.6 -13.0 -6.35 -12.25 -6.05 -11.45 -5.8 -11.75 -5.05" fill="#333333" fill-rule="evenodd" stroke="none"/>
    <path d="M-12.8 -0.9 Q-13.05 -0.15 -13.85 -0.4 -14.6 -0.7 -14.35 -1.45 -14.1 -2.25 -13.3 -1.95 -12.5 -1.65 -12.8 -0.9" fill="#333333" fill-rule="evenodd" stroke="none"/>
    <path d="M-12.3 3.3 Q-12.55 4.15 -13.4 3.8 -14.2 3.55 -13.9 2.75 -13.65 1.95 -12.8 2.25 -12.0 2.6 -12.3 3.3" fill="#333333" fill-rule="evenodd" stroke="none"/>
    <path d="M-10.4 7.25 Q-10.7 8.1 -11.55 7.7 -12.4 7.4 -12.1 6.55 -11.8 5.7 -10.95 6.05 -10.05 6.35 -10.4 7.25" fill="#333333" fill-rule="evenodd" stroke="none"/>
    <path d="M-7.3 10.2 Q-7.6 11.05 -8.5 10.75 -9.45 10.4 -9.15 9.45 -8.85 8.6 -7.85 8.9 -6.9 9.25 -7.3 10.2" fill="#333333" fill-rule="evenodd" stroke="none"/>
    <path d="M-3.3 11.95 Q-3.7 12.95 -4.7 12.55 -5.75 12.2 -5.35 11.2 -5.0 10.2 -3.95 10.55 -2.95 10.95 -3.3 11.95" fill="#333333" fill-rule="evenodd" stroke="none"/>
    <path d="M1.0 12.25 Q0.6 13.3 -0.45 12.95 -1.6 12.5 -1.15 11.45 -0.8 10.45 0.35 10.8 1.4 11.25 1.0 12.25" fill="#333333" fill-rule="evenodd" stroke="none"/>
    <path d="M5.15 11.15 Q4.75 12.25 3.6 11.8 2.45 11.4 2.85 10.25 3.3 9.15 4.4 9.6 5.6 10.0 5.15 11.15" fill="#333333" fill-rule="evenodd" stroke="none"/>
    <path d="M8.65 8.65 Q8.2 9.75 7.0 9.35 5.85 8.9 6.3 7.8 6.7 6.6 7.9 7.05 9.05 7.45 8.65 8.65" fill="#333333" fill-rule="evenodd" stroke="none"/>
    <path d="M11.05 5.1 Q10.6 6.3 9.35 5.85 8.2 5.45 8.65 4.25 9.05 3.1 10.25 3.5 11.45 3.95 11.05 5.1" fill="#333333" fill-rule="evenodd" stroke="none"/>
    <path d="M12.05 1.05 Q11.6 2.15 10.4 1.7 9.25 1.3 9.7 0.1 10.1 -1.1 11.3 -0.6 12.45 -0.15 12.05 1.05" fill="#333333" fill-rule="evenodd" stroke="none"/>
    <path d="M11.6 -3.25 Q11.1 -1.9 9.8 -2.7 8.5 -3.5 9.5 -4.55 10.15 -5.25 11.05 -4.75 11.9 -4.15 11.6 -3.25" fill="#333333" fill-rule="evenodd" stroke="none"/>
    <path d="M9.7 -7.1 Q9.25 -6.05 8.15 -6.4 7.0 -6.85 7.45 -7.9 7.9 -8.95 8.95 -8.55 10.05 -8.15 9.7 -7.1" fill="#333333" fill-rule="evenodd" stroke="none"/>
    <path d="M6.5 -10.05 Q6.15 -9.0 5.1 -9.45 4.05 -9.8 4.4 -10.85 4.85 -11.85 5.85 -11.5 6.9 -11.1 6.5 -10.05" fill="#333333" fill-rule="evenodd" stroke="none"/>
    <path d="M0.65 -12.55 Q1.0 -13.45 2.0 -13.1 2.95 -12.8 2.55 -11.8 2.25 -10.85 1.25 -11.25 0.35 -11.6 0.65 -12.55" fill="#333333" fill-rule="evenodd" stroke="none"/>
    <path d="M-2.2 -16.2 Q-2.5 -15.4 -3.4 -15.7 -4.2 -16.05 -3.95 -16.85 -3.65 -17.7 -2.75 -17.35 -1.9 -17.0 -2.2 -16.2" fill="#333333" fill-rule="evenodd" stroke="none"/>
    <path d="M-6.25 -15.35 Q-6.5 -14.5 -7.3 -14.85 -8.15 -15.15 -7.85 -15.9 -7.6 -16.7 -6.7 -16.4 -5.9 -16.05 -6.25 -15.35" fill="#333333" fill-rule="evenodd" stroke="none"/>
    <path d="M-9.95 -13.4 Q-10.2 -12.7 -10.95 -12.95 -11.7 -13.3 -11.45 -13.95 -11.1 -14.7 -10.4 -14.4 -9.65 -14.15 -9.95 -13.4" fill="#333333" fill-rule="evenodd" stroke="none"/>
    <path d="M-13.0 -10.7 Q-13.3 -10.0 -13.95 -10.3 -14.65 -10.55 -14.4 -11.25 -14.15 -11.9 -13.45 -11.65 -12.75 -11.35 -13.0 -10.7" fill="#333333" fill-rule="evenodd" stroke="none"/>
    <path d="M-15.25 -7.35 Q-15.5 -6.65 -16.2 -6.9 -16.85 -7.15 -16.65 -7.85 -16.4 -8.45 -15.7 -8.2 -15.0 -7.95 -15.25 -7.35" fill="#333333" fill-rule="evenodd" stroke="none"/>
    <path d="M-16.65 -3.45 Q-16.85 -2.75 -17.55 -3.05 -18.25 -3.3 -18.0 -4.0 -17.75 -4.65 -17.05 -4.35 -16.4 -4.1 -16.65 -3.45" fill="#333333" fill-rule="evenodd" stroke="none"/>
    <path d="M-16.95 0.65 Q-17.2 1.35 -17.95 1.1 -18.6 0.8 -18.35 0.1 -18.05 -0.6 -17.35 -0.35 -16.65 0.0 -16.95 0.65" fill="#333333" fill-rule="evenodd" stroke="none"/>
    <path d="M-16.2 4.7 Q-16.45 5.45 -17.25 5.2 -18.0 4.85 -17.75 4.15 -17.45 3.4 -16.7 3.7 -15.9 3.95 -16.2 4.7" fill="#333333" fill-rule="evenodd" stroke="none"/>
    <path d="M-14.45 8.45 Q-14.75 9.25 -15.55 8.95 -16.4 8.65 -16.15 7.85 -15.8 7.05 -15.0 7.35 -14.15 7.65 -14.45 8.45" fill="#333333" fill-rule="evenodd" stroke="none"/>
    <path d="M-11.85 11.7 Q-12.15 12.55 -13.1 12.2 -13.95 11.85 -13.65 11.0 -13.35 10.2 -12.4 10.5 -11.55 10.9 -11.85 11.7" fill="#333333" fill-rule="evenodd" stroke="none"/>
    <path d="M-8.6 14.15 Q-8.9 15.1 -9.8 14.7 -10.75 14.35 -10.45 13.5 -10.15 12.55 -9.2 12.95 -8.25 13.3 -8.6 14.15" fill="#333333" fill-rule="evenodd" stroke="none"/>
    <path d="M-4.75 15.8 Q-5.1 16.75 -6.1 16.4 -7.1 16.0 -6.8 15.05 -6.4 14.05 -5.35 14.4 -4.35 14.8 -4.75 15.8" fill="#333333" fill-rule="evenodd" stroke="none"/>
    <path d="M-0.6 16.4 Q-1.05 17.45 -2.1 17.1 -3.2 16.65 -2.75 15.6 -2.4 14.55 -1.3 14.95 -0.2 15.35 -0.6 16.4" fill="#333333" fill-rule="evenodd" stroke="none"/>
    <path d="M3.5 16.0 Q3.1 17.15 1.95 16.7 0.75 16.25 1.2 15.15 1.65 14.05 2.75 14.5 3.9 14.9 3.5 16.0" fill="#333333" fill-rule="evenodd" stroke="none"/>
    <path d="M7.4 14.6 Q6.95 15.8 5.8 15.35 4.55 14.85 5.0 13.65 5.45 12.5 6.65 13.0 7.9 13.4 7.4 14.6" fill="#333333" fill-rule="evenodd" stroke="none"/>
    <path d="M10.8 12.3 Q10.35 13.5 9.1 13.0 7.9 12.55 8.3 11.4 8.8 10.2 10.05 10.65 11.3 11.15 10.8 12.3" fill="#333333" fill-rule="evenodd" stroke="none"/>
    <path d="M13.5 9.2 Q13.0 10.45 11.8 9.95 10.55 9.45 11.0 8.2 11.45 7.0 12.7 7.45 13.95 7.95 13.5 9.2" fill="#333333" fill-rule="evenodd" stroke="none"/>
    <path d="M15.3 5.55 Q14.8 6.8 13.6 6.3 12.35 5.8 12.75 4.55 13.25 3.3 14.5 3.8 15.75 4.3 15.3 5.55" fill="#333333" fill-rule="evenodd" stroke="none"/>
    <path d="M16.2 1.55 Q15.75 2.75 14.45 2.25 13.2 1.85 13.65 0.6 14.05 -0.65 15.35 -0.15 16.65 0.3 16.2 1.55" fill="#333333" fill-rule="evenodd" stroke="none"/>
    <path d="M15.95 -2.55 Q15.5 -1.3 14.25 -1.8 13.0 -2.25 13.45 -3.5 13.95 -4.65 15.2 -4.25 16.45 -3.75 15.95 -2.55" fill="#333333" fill-rule="evenodd" stroke="none"/>
    <path d="M14.75 -6.55 Q14.3 -5.35 13.1 -5.8 11.9 -6.2 12.35 -7.4 12.75 -8.55 13.95 -8.1 15.2 -7.65 14.75 -6.55" fill="#333333" fill-rule="evenodd" stroke="none"/>
    <path d="M12.6 -10.0 Q12.15 -8.95 11.05 -9.3 9.85 -9.75 10.3 -10.85 10.75 -12.0 11.85 -11.55 12.95 -11.1 12.6 -10.0" fill="#333333" fill-rule="evenodd" stroke="none"/>
    <path d="M7.45 -13.7 Q7.8 -14.75 8.85 -14.35 10.0 -13.9 9.55 -12.9 9.2 -11.85 8.15 -12.3 7.0 -12.7 7.45 -13.7" fill="#333333" fill-rule="evenodd" stroke="none"/>
    <path d="M5.95 -14.95 Q5.6 -14.0 4.6 -14.4 3.6 -14.75 4.0 -15.75 4.3 -16.7 5.35 -16.3 6.35 -15.95 5.95 -14.95" fill="#333333" fill-rule="evenodd" stroke="none"/>
    <path d="M1.95 -16.15 Q1.65 -15.2 0.7 -15.5 -0.2 -15.9 0.1 -16.8 0.4 -17.7 1.4 -17.35 2.3 -17.0 1.95 -16.15" fill="#333333" fill-rule="evenodd" stroke="none"/>
    <path d="M-2.7 -20.3 Q-2.95 -19.5 -3.8 -19.8 -4.6 -20.1 -4.3 -20.9 -4.0 -21.7 -3.2 -21.4 -2.4 -21.1 -2.7 -20.3" fill="#333333" fill-rule="evenodd" stroke="none"/>
    <path d="M-6.8 -19.5 Q-7.05 -18.75 -7.85 -19.0 -8.6 -19.3 -8.35 -20.05 -8.0 -20.8 -7.3 -20.45 -6.5 -20.2 -6.8 -19.5" fill="#333333" fill-rule="evenodd" stroke="none"/>
    <path d="M-10.6 -17.85 Q-10.85 -17.2 -11.6 -17.45 -12.3 -17.7 -12.05 -18.35 -11.8 -19.05 -11.05 -18.8 -10.3 -18.55 -10.6 -17.85" fill="#333333" fill-rule="evenodd" stroke="none"/>
    <path d="M-14.05 -15.45 Q-14.25 -14.85 -14.95 -15.1 -15.65 -15.4 -15.4 -16.0 -15.15 -16.65 -14.45 -16.4 -13.8 -16.05 -14.05 -15.45" fill="#333333" fill-rule="evenodd" stroke="none"/>
    <path d="M-18.15 -12.95 Q-17.95 -13.6 -17.3 -13.35 -16.65 -13.1 -16.85 -12.5 -17.1 -11.85 -17.75 -12.1 -18.4 -12.35 -18.15 -12.95" fill="#333333" fill-rule="evenodd" stroke="none"/>
    <path d="M-19.1 -9.0 Q-19.3 -8.4 -19.9 -8.65 -20.55 -8.8 -20.35 -9.45 -20.1 -10.05 -19.45 -9.8 -18.85 -9.55 -19.1 -9.0" fill="#333333" fill-rule="evenodd" stroke="none"/>
    <path d="M-20.45 -5.1 Q-20.7 -4.5 -21.35 -4.75 -21.95 -5.0 -21.7 -5.55 -21.5 -6.15 -20.9 -5.9 -20.3 -5.7 -20.45 -5.1" fill="#333333" fill-rule="evenodd" stroke="none"/>
    <path d="M-21.1 -1.0 Q-21.35 -0.4 -21.95 -0.65 -22.55 -0.9 -22.3 -1.5 -22.05 -2.15 -21.45 -1.9 -20.85 -1.65 -21.1 -1.0" fill="#333333" fill-rule="evenodd" stroke="none"/>
    <path d="M-20.85 3.15 Q-21.1 3.8 -21.7 3.55 -22.4 3.3 -22.15 2.65 -21.9 2.0 -21.25 2.25 -20.6 2.5 -20.85 3.15" fill="#333333" fill-rule="evenodd" stroke="none"/>
    <path d="M-19.7 7.1 Q-19.95 7.8 -20.7 7.55 -21.4 7.3 -21.15 6.6 -20.9 5.95 -20.15 6.15 -19.4 6.4 -19.7 7.1" fill="#333333" fill-rule="evenodd" stroke="none"/>
    <path d="M-17.85 10.8 Q-18.1 11.55 -18.85 11.3 -19.6 11.0 -19.35 10.25 -19.1 9.5 -18.3 9.85 -17.55 10.15 -17.85 10.8" fill="#333333" fill-rule="evenodd" stroke="none"/>
    <path d="M-15.2 14.1 Q-15.5 14.95 -16.4 14.65 -17.2 14.35 -16.85 13.5 -16.55 12.7 -15.75 13.0 -14.9 13.3 -15.2 14.1" fill="#333333" fill-rule="evenodd" stroke="none"/>
    <path d="M-12.0 16.85 Q-12.35 17.7 -13.3 17.4 -14.15 17.0 -13.85 16.15 -13.55 15.3 -12.6 15.6 -11.7 15.95 -12.0 16.85" fill="#333333" fill-rule="evenodd" stroke="none"/>
    <path d="M-8.35 18.8 Q-8.7 19.75 -9.65 19.45 -10.6 19.05 -10.25 18.15 -9.95 17.2 -8.95 17.55 -8.0 17.9 -8.35 18.8" fill="#333333" fill-rule="evenodd" stroke="none"/>
    <path d="M-4.3 20.1 Q-4.7 21.1 -5.75 20.75 -6.8 20.3 -6.4 19.3 -6.05 18.3 -5.0 18.7 -3.95 19.1 -4.3 20.1" fill="#333333" fill-rule="evenodd" stroke="none"/>
    <path d="M-0.15 20.5 Q-0.55 21.6 -1.65 21.15 -2.8 20.75 -2.4 19.7 -1.95 18.65 -0.85 19.0 0.25 19.45 -0.15 20.5" fill="#333333" fill-rule="evenodd" stroke="none"/>
    <path d="M4.05 20.1 Q3.6 21.25 2.4 20.8 1.2 20.35 1.65 19.2 2.15 18.05 3.3 18.5 4.5 18.95 4.05 20.1" fill="#333333" fill-rule="evenodd" stroke="none"/>
    <path d="M8.0 18.85 Q7.6 20.1 6.35 19.6 5.1 19.2 5.55 17.95 6.05 16.75 7.25 17.2 8.5 17.7 8.0 18.85" fill="#333333" fill-rule="evenodd" stroke="none"/>
    <path d="M11.65 16.85 Q11.25 18.05 9.95 17.65 8.65 17.15 9.05 15.9 9.5 14.65 10.85 15.15 12.15 15.6 11.65 16.85" fill="#333333" fill-rule="evenodd" stroke="none"/>
    <path d="M14.8 14.15 Q14.3 15.4 13.0 14.9 11.7 14.4 12.15 13.15 12.65 11.95 13.95 12.45 15.3 12.95 14.8 14.15" fill="#333333" fill-rule="evenodd" stroke="none"/>
    <path d="M17.35 10.9 Q16.85 12.2 15.5 11.7 14.2 11.2 14.65 9.9 15.15 8.6 16.5 9.1 17.85 9.6 17.35 10.9" fill="#333333" fill-rule="evenodd" stroke="none"/>
    <path d="M19.15 7.15 Q18.65 8.45 17.3 7.95 16.0 7.45 16.45 6.15 16.9 4.85 18.3 5.35 19.65 5.85 19.15 7.15" fill="#333333" fill-rule="evenodd" stroke="none"/>
    <path d="M20.15 3.2 Q19.7 4.45 18.35 3.95 17.05 3.45 17.5 2.2 17.95 0.9 19.25 1.4 20.65 1.9 20.15 3.2" fill="#333333" fill-rule="evenodd" stroke="none"/>
    <path d="M20.35 -0.95 Q19.85 0.3 18.55 -0.2 17.25 -0.7 17.65 -1.95 18.15 -3.2 19.45 -2.7 20.8 -2.2 20.35 -0.95" fill="#333333" fill-rule="evenodd" stroke="none"/>
    <path d="M19.65 -5.05 Q19.2 -3.8 17.9 -4.3 16.55 -4.75 17.05 -5.95 17.55 -7.2 18.85 -6.8 20.15 -6.3 19.65 -5.05" fill="#333333" fill-rule="evenodd" stroke="none"/>
    <path d="M18.15 -8.95 Q17.75 -7.7 16.5 -8.2 15.25 -8.65 15.7 -9.85 16.1 -11.05 17.35 -10.55 18.6 -10.1 18.15 -8.95" fill="#333333" fill-rule="evenodd" stroke="none"/>
    <path d="M13.5 -13.35 Q13.95 -14.45 15.15 -14.0 16.3 -13.6 15.85 -12.4 15.45 -11.3 14.25 -11.75 13.1 -12.15 13.5 -13.35" fill="#333333" fill-rule="evenodd" stroke="none"/>
    <path d="M12.95 -15.45 Q12.55 -14.4 11.45 -14.75 10.35 -15.2 10.75 -16.25 11.15 -17.3 12.3 -16.95 13.4 -16.5 12.95 -15.45" fill="#333333" fill-rule="evenodd" stroke="none"/>
    <path d="M9.5 -17.8 Q9.1 -16.75 8.05 -17.2 7.0 -17.55 7.4 -18.6 7.75 -19.6 8.8 -19.25 9.85 -18.8 9.5 -17.8" fill="#333333" fill-rule="evenodd" stroke="none"/>
    <path d="M5.6 -19.4 Q5.3 -18.5 4.3 -18.85 3.35 -19.25 3.7 -20.15 4.05 -21.1 5.05 -20.7 5.95 -20.4 5.6 -19.4" fill="#333333" fill-rule="evenodd" stroke="none"/>
    <path d="M1.5 -20.3 Q1.2 -19.4 0.25 -19.7 -0.6 -20.1 -0.3 -20.95 0.0 -21.85 0.95 -21.45 1.8 -21.15 1.5 -20.3" fill="#333333" fill-rule="evenodd" stroke="none"/>
    <path d="M-3.2 -24.35 Q-3.45 -23.55 -4.25 -23.9 -5.05 -24.2 -4.75 -24.95 -4.45 -25.75 -3.7 -25.4 -2.9 -25.1 -3.2 -24.35" fill="#333333" fill-rule="evenodd" stroke="none"/>
    <path d="M-7.3 -23.55 Q-7.55 -22.9 -8.25 -23.15 -9.0 -23.45 -8.75 -24.1 -8.45 -24.8 -7.8 -24.55 -7.05 -24.3 -7.3 -23.55" fill="#333333" fill-rule="evenodd" stroke="none"/>
    <path d="M-11.25 -22.15 Q-11.5 -21.45 -12.15 -21.7 -12.85 -21.95 -12.6 -22.65 -12.35 -23.25 -11.7 -23.0 -11.0 -22.75 -11.25 -22.15" fill="#333333" fill-rule="evenodd" stroke="none"/>
    <path d="M-14.9 -20.05 Q-15.15 -19.4 -15.75 -19.65 -16.4 -19.9 -16.15 -20.55 -15.9 -21.15 -15.25 -20.9 -14.65 -20.65 -14.9 -20.05" fill="#333333" fill-rule="evenodd" stroke="none"/>
    <path d="M-18.1 -17.35 Q-18.3 -16.8 -18.85 -17.0 -19.45 -17.25 -19.25 -17.8 -19.05 -18.35 -18.5 -18.1 -17.85 -17.95 -18.1 -17.35" fill="#333333" fill-rule="evenodd" stroke="none"/>
    <path d="M-20.75 -14.2 Q-21.0 -13.7 -21.5 -13.9 -22.05 -14.1 -21.9 -14.65 -21.7 -15.15 -21.15 -14.95 -20.6 -14.75 -20.75 -14.2" fill="#333333" fill-rule="evenodd" stroke="none"/>
    <path d="M-22.9 -10.6 Q-23.15 -10.1 -23.6 -10.3 -24.2 -10.55 -23.95 -11.05 -23.75 -11.55 -23.2 -11.35 -22.7 -11.1 -22.9 -10.6" fill="#333333" fill-rule="evenodd" stroke="none"/>
    <path d="M-24.35 -6.8 Q-24.55 -6.3 -25.05 -6.45 -25.6 -6.65 -25.4 -7.15 -25.25 -7.65 -24.65 -7.45 -24.2 -7.25 -24.35 -6.8" fill="#333333" fill-rule="evenodd" stroke="none"/>
    <path d="M-25.1 -2.7 Q-25.35 -2.15 -25.85 -2.3 -26.4 -2.55 -26.2 -3.05 -26.05 -3.6 -25.5 -3.45 -24.9 -3.2 -25.1 -2.7" fill="#333333" fill-rule="evenodd" stroke="none"/>
    <path d="M-25.15 1.45 Q-25.4 2.0 -25.95 1.85 -26.55 1.65 -26.35 1.05 -26.1 0.45 -25.55 0.7 -25.0 0.9 -25.15 1.45" fill="#333333" fill-rule="evenodd" stroke="none"/>
    <path d="M-24.55 5.6 Q-24.75 6.25 -25.35 6.0 -25.95 5.75 -25.8 5.1 -25.55 4.55 -24.9 4.8 -24.3 5.0 -24.55 5.6" fill="#333333" fill-rule="evenodd" stroke="none"/>
    <path d="M-23.2 9.6 Q-23.45 10.25 -24.1 10.0 -24.75 9.7 -24.5 9.1 -24.25 8.45 -23.6 8.7 -22.95 8.95 -23.2 9.6" fill="#333333" fill-rule="evenodd" stroke="none"/>
    <path d="M-21.65 12.25 Q-20.9 12.55 -21.15 13.25 -21.4 14.0 -22.15 13.75 -22.95 13.4 -22.65 12.75 -22.4 12.0 -21.65 12.25" fill="#333333" fill-rule="evenodd" stroke="none"/>
    <path d="M-18.55 16.6 Q-18.85 17.35 -19.6 17.0 -20.4 16.75 -20.15 15.95 -19.85 15.15 -19.05 15.45 -18.25 15.8 -18.55 16.6" fill="#333333" fill-rule="evenodd" stroke="none"/>
    <path d="M-15.45 19.35 Q-15.7 20.25 -16.55 19.95 -17.45 19.55 -17.1 18.75 -16.8 17.95 -16.0 18.25 -15.15 18.55 -15.45 19.35" fill="#333333" fill-rule="evenodd" stroke="none"/>
    <path d="M-11.85 21.65 Q-12.15 22.6 -13.15 22.2 -14.1 21.85 -13.7 21.0 -13.4 20.05 -12.5 20.4 -11.55 20.8 -11.85 21.65" fill="#333333" fill-rule="evenodd" stroke="none"/>
    <path d="M-7.95 23.35 Q-8.35 24.35 -9.3 23.95 -10.4 23.6 -10.0 22.6 -9.65 21.6 -8.6 21.95 -7.6 22.35 -7.95 23.35" fill="#333333" fill-rule="evenodd" stroke="none"/>
    <path d="M-3.9 24.35 Q-4.25 25.4 -5.3 24.95 -6.4 24.55 -6.05 23.5 -5.6 22.45 -4.55 22.85 -3.5 23.25 -3.9 24.35" fill="#333333" fill-rule="evenodd" stroke="none"/>
    <path d="M0.35 24.55 Q-0.1 25.7 -1.2 25.25 -2.4 24.8 -1.95 23.7 -1.5 22.65 -0.4 23.05 0.75 23.45 0.35 24.55" fill="#333333" fill-rule="evenodd" stroke="none"/>
    <path d="M4.55 24.2 Q4.1 25.4 2.85 24.9 1.7 24.45 2.15 23.25 2.55 22.1 3.75 22.55 5.0 23.05 4.55 24.2" fill="#333333" fill-rule="evenodd" stroke="none"/>
    <path d="M8.55 23.1 Q8.05 24.35 6.85 23.85 5.6 23.35 6.05 22.1 6.5 20.85 7.75 21.35 9.0 21.85 8.55 23.1" fill="#333333" fill-rule="evenodd" stroke="none"/>
    <path d="M12.35 21.3 Q11.9 22.55 10.6 22.05 9.3 21.55 9.75 20.3 10.25 19.05 11.55 19.55 12.85 20.05 12.35 21.3" fill="#333333" fill-rule="evenodd" stroke="none"/>
    <path d="M15.8 18.85 Q15.3 20.25 13.95 19.7 12.6 19.2 13.1 17.9 13.6 16.6 14.95 17.1 16.3 17.55 15.8 18.85" fill="#333333" fill-rule="evenodd" stroke="none"/>
    <path d="M18.7 15.95 Q18.3 17.35 16.85 16.75 15.5 16.25 16.0 14.9 16.5 13.6 17.85 14.1 19.2 14.6 18.7 15.95" fill="#333333" fill-rule="evenodd" stroke="none"/>
    <path d="M21.15 12.55 Q20.65 13.9 19.2 13.4 17.85 12.95 18.35 11.55 18.85 10.2 20.25 10.7 21.65 11.2 21.15 12.55" fill="#333333" fill-rule="evenodd" stroke="none"/>
    <path d="M22.95 8.85 Q22.45 10.2 21.0 9.65 19.65 9.15 20.15 7.8 20.65 6.4 22.05 7.0 23.4 7.45 22.95 8.85" fill="#333333" fill-rule="evenodd" stroke="none"/>
    <path d="M24.05 4.8 Q23.55 6.15 22.1 5.7 20.75 5.2 21.25 3.8 21.75 2.45 23.15 2.95 24.55 3.45 24.05 4.8" fill="#333333" fill-rule="evenodd" stroke="none"/>
    <path d="M24.45 0.7 Q24.0 2.0 22.6 1.55 21.25 1.05 21.75 -0.35 22.25 -1.7 23.6 -1.15 24.95 -0.65 24.45 0.7" fill="#333333" fill-rule="evenodd" stroke="none"/>
    <path d="M24.15 -3.45 Q23.75 -2.15 22.35 -2.6 21.0 -3.2 21.5 -4.5 22.0 -5.8 23.3 -5.3 24.65 -4.8 24.15 -3.45" fill="#333333" fill-rule="evenodd" stroke="none"/>
    <path d="M23.15 -7.5 Q22.7 -6.3 21.45 -6.7 20.15 -7.2 20.55 -8.5 21.05 -9.75 22.35 -9.25 23.65 -8.75 23.15 -7.5" fill="#333333" fill-rule="evenodd" stroke="none"/>
    <path d="M21.5 -11.35 Q21.05 -10.1 19.75 -10.6 18.45 -11.05 18.95 -12.3 19.45 -13.45 20.7 -13.05 22.0 -12.55 21.5 -11.35" fill="#333333" fill-rule="evenodd" stroke="none"/>
    <path d="M19.2 -14.85 Q18.8 -13.65 17.55 -14.15 16.35 -14.6 16.8 -15.75 17.25 -16.95 18.4 -16.5 19.65 -16.0 19.2 -14.85" fill="#333333" fill-rule="evenodd" stroke="none"/>
    <path d="M16.3 -17.95 Q15.85 -16.8 14.75 -17.25 13.6 -17.7 14.0 -18.8 14.45 -19.9 15.55 -19.5 16.75 -19.05 16.3 -17.95" fill="#333333" fill-rule="evenodd" stroke="none"/>
    <path d="M12.95 -20.45 Q12.6 -19.4 11.55 -19.85 10.4 -20.2 10.8 -21.25 11.25 -22.35 12.3 -21.95 13.4 -21.5 12.95 -20.45" fill="#333333" fill-rule="evenodd" stroke="none"/>
    <path d="M9.25 -22.45 Q8.85 -21.45 7.9 -21.85 6.85 -22.2 7.2 -23.2 7.6 -24.2 8.65 -23.8 9.6 -23.45 9.25 -22.45" fill="#333333" fill-rule="evenodd" stroke="none"/>
    <path d="M5.2 -23.8 Q4.9 -22.9 3.9 -23.2 3.0 -23.55 3.35 -24.5 3.7 -25.35 4.6 -25.05 5.55 -24.7 5.2 -23.8" fill="#333333" fill-rule="evenodd" stroke="none"/>
    <path d="M1.0 -24.45 Q0.75 -23.55 -0.1 -23.9 -0.95 -24.25 -0.65 -25.05 -0.35 -25.9 0.45 -25.55 1.3 -25.25 1.0 -24.45" fill="#333333" fill-rule="evenodd" stroke="none"/>
    <path d="M-3.7 -28.4 Q-3.95 -27.65 -4.7 -27.95 -5.4 -28.25 -5.2 -29.0 -4.85 -29.7 -4.1 -29.45 -3.45 -29.15 -3.7 -28.4" fill="#333333" fill-rule="evenodd" stroke="none"/>
    <path d="M-7.85 -27.7 Q-8.1 -27.05 -8.75 -27.3 -9.5 -27.55 -9.25 -28.2 -9.0 -28.9 -8.25 -28.65 -7.6 -28.4 -7.85 -27.7" fill="#333333" fill-rule="evenodd" stroke="none"/>
    <path d="M-11.85 -26.35 Q-12.1 -25.75 -12.75 -26.0 -13.35 -26.25 -13.1 -26.85 -12.85 -27.45 -12.25 -27.2 -11.6 -26.95 -11.85 -26.35" fill="#333333" fill-rule="evenodd" stroke="none"/>
    <path d="M-15.65 -24.5 Q-15.8 -23.95 -16.4 -24.1 -17.0 -24.35 -16.75 -24.95 -16.55 -25.5 -16.0 -25.25 -15.4 -25.05 -15.65 -24.5" fill="#333333" fill-rule="evenodd" stroke="none"/>
    <path d="M-19.05 -22.1 Q-19.25 -21.6 -19.7 -21.75 -20.3 -22.0 -20.1 -22.5 -19.9 -23.0 -19.35 -22.8 -18.85 -22.55 -19.05 -22.1" fill="#333333" fill-rule="evenodd" stroke="none"/>
    <path d="M-22.05 -19.25 Q-22.25 -18.75 -22.75 -18.9 -23.25 -19.1 -23.05 -19.6 -22.9 -20.05 -22.4 -19.85 -21.9 -19.65 -22.05 -19.25" fill="#333333" fill-rule="evenodd" stroke="none"/>
    <path d="M-24.65 -15.95 Q-24.85 -15.5 -25.3 -15.65 -25.8 -15.8 -25.6 -16.25 -25.4 -16.7 -24.9 -16.55 -24.5 -16.4 -24.65 -15.95" fill="#333333" fill-rule="evenodd" stroke="none"/>
    <path d="M-27.65 -12.65 Q-27.45 -13.1 -26.95 -12.9 -26.55 -12.7 -26.7 -12.3 -26.9 -11.8 -27.35 -12.0 -27.85 -12.15 -27.65 -12.65" fill="#333333" fill-rule="evenodd" stroke="none"/>
    <path d="M-28.2 -8.4 Q-28.4 -7.95 -28.8 -8.15 -29.3 -8.3 -29.15 -8.75 -28.95 -9.2 -28.45 -9.0 -28.0 -8.8 -28.2 -8.4" fill="#333333" fill-rule="evenodd" stroke="none"/>
    <path d="M-29.15 -4.35 Q-29.25 -3.85 -29.75 -4.05 -30.2 -4.15 -30.05 -4.65 -29.85 -5.1 -29.4 -5.0 -28.95 -4.8 -29.15 -4.35" fill="#333333" fill-rule="evenodd" stroke="none"/>
    <path d="M-29.4 -0.15 Q-29.55 0.35 -30.05 0.15 -30.55 0.0 -30.35 -0.5 -30.2 -1.0 -29.7 -0.85 -29.2 -0.65 -29.4 -0.15" fill="#333333" fill-rule="evenodd" stroke="none"/>
    <path d="M-29.05 4.0 Q-29.25 4.5 -29.75 4.3 -30.3 4.15 -30.1 3.65 -29.95 3.15 -29.4 3.3 -28.9 3.5 -29.05 4.0" fill="#333333" fill-rule="evenodd" stroke="none"/>
    <path d="M-28.15 8.1 Q-28.35 8.65 -28.9 8.45 -29.45 8.2 -29.25 7.65 -29.05 7.1 -28.5 7.35 -27.9 7.55 -28.15 8.1" fill="#333333" fill-rule="evenodd" stroke="none"/>
    <path d="M-26.6 12.0 Q-26.85 12.6 -27.45 12.35 -28.1 12.2 -27.85 11.55 -27.6 10.95 -26.95 11.2 -26.35 11.4 -26.6 12.0" fill="#333333" fill-rule="evenodd" stroke="none"/>
    <path d="M-24.5 15.65 Q-24.75 16.35 -25.4 16.1 -26.1 15.85 -25.85 15.15 -25.6 14.55 -24.9 14.8 -24.25 15.05 -24.5 15.65" fill="#333333" fill-rule="evenodd" stroke="none"/>
    <path d="M-22.9 19.5 Q-23.6 19.2 -23.35 18.45 -23.05 17.7 -22.3 18.0 -21.6 18.25 -21.9 19.0 -22.15 19.75 -22.9 19.5" fill="#333333" fill-rule="evenodd" stroke="none"/>
    <path d="M-18.8 21.9 Q-19.1 22.7 -19.9 22.45 -20.7 22.15 -20.45 21.3 -20.15 20.5 -19.35 20.8 -18.5 21.1 -18.8 21.9" fill="#333333" fill-rule="evenodd" stroke="none"/>
    <path d="M-15.35 24.4 Q-15.65 25.25 -16.55 24.95 -17.45 24.55 -17.1 23.7 -16.8 22.85 -15.95 23.15 -15.0 23.5 -15.35 24.4" fill="#333333" fill-rule="evenodd" stroke="none"/>
    <path d="M-11.55 26.3 Q-11.9 27.25 -12.9 26.95 -13.85 26.55 -13.55 25.65 -13.15 24.65 -12.15 25.0 -11.25 25.4 -11.55 26.3" fill="#333333" fill-rule="evenodd" stroke="none"/>
    <path d="M-7.55 27.75 Q-7.95 28.75 -9.0 28.35 -10.05 27.9 -9.65 26.95 -9.25 25.95 -8.2 26.3 -7.15 26.75 -7.55 27.75" fill="#333333" fill-rule="evenodd" stroke="none"/>
    <path d="M-3.4 28.5 Q-3.8 29.6 -4.95 29.15 -6.05 28.75 -5.6 27.65 -5.25 26.55 -4.1 27.0 -2.95 27.4 -3.4 28.5" fill="#333333" fill-rule="evenodd" stroke="none"/>
    <path d="M0.85 28.65 Q0.4 29.85 -0.8 29.4 -1.95 28.95 -1.5 27.8 -1.1 26.6 0.1 27.1 1.25 27.55 0.85 28.65" fill="#333333" fill-rule="evenodd" stroke="none"/>
    <path d="M5.05 28.25 Q4.6 29.45 3.35 28.95 2.15 28.55 2.55 27.3 3.05 26.1 4.25 26.6 5.45 27.05 5.05 28.25" fill="#333333" fill-rule="evenodd" stroke="none"/>
    <path d="M9.1 27.25 Q8.7 28.5 7.4 28.0 6.1 27.5 6.5 26.25 7.0 25.0 8.3 25.5 9.6 26.0 9.1 27.25" fill="#333333" fill-rule="evenodd" stroke="none"/>
    <path d="M13.0 25.65 Q12.55 26.95 11.15 26.45 9.85 25.95 10.3 24.55 10.8 23.25 12.15 23.85 13.5 24.35 13.0 25.65" fill="#333333" fill-rule="evenodd" stroke="none"/>
    <path d="M16.6 23.45 Q16.1 24.8 14.7 24.25 13.35 23.75 13.85 22.4 14.3 21.05 15.75 21.6 17.1 22.1 16.6 23.45" fill="#333333" fill-rule="evenodd" stroke="none"/>
    <path d="M19.85 20.8 Q19.35 22.2 17.9 21.65 16.5 21.15 17.0 19.75 17.5 18.4 18.9 18.95 20.35 19.45 19.85 20.8" fill="#333333" fill-rule="evenodd" stroke="none"/>
    <path d="M22.7 17.7 Q22.1 19.05 20.7 18.55 19.25 18.05 19.75 16.65 20.25 15.3 21.75 15.8 23.15 16.35 22.7 17.7" fill="#333333" fill-rule="evenodd" stroke="none"/>
    <path d="M24.95 14.25 Q24.45 15.65 23.0 15.1 21.55 14.6 22.05 13.15 22.55 11.75 24.05 12.3 25.45 12.8 24.95 14.25" fill="#333333" fill-rule="evenodd" stroke="none"/>
    <path d="M26.75 10.45 Q26.15 12.05 24.6 11.25 23.05 10.45 24.05 9.0 24.8 7.95 26.0 8.6 27.25 9.25 26.75 10.45" fill="#333333" fill-rule="evenodd" stroke="none"/>
    <path d="M27.95 6.5 Q27.45 7.9 25.95 7.35 24.55 6.8 25.05 5.35 25.55 4.0 27.0 4.55 28.45 5.1 27.95 6.5" fill="#333333" fill-rule="evenodd" stroke="none"/>
    <path d="M26.6 3.2 Q25.15 2.7 25.65 1.3 26.15 -0.1 27.65 0.4 29.05 0.95 28.55 2.35 28.05 3.75 26.6 3.2" fill="#333333" fill-rule="evenodd" stroke="none"/>
    <path d="M26.6 -1.0 Q25.2 -1.5 25.7 -2.85 26.2 -4.25 27.65 -3.75 29.0 -3.2 28.5 -1.8 28.0 -0.45 26.6 -1.0" fill="#333333" fill-rule="evenodd" stroke="none"/>
    <path d="M27.9 -5.95 Q27.4 -4.6 25.95 -5.15 24.6 -5.65 25.1 -7.0 25.6 -8.4 27.0 -7.85 28.35 -7.35 27.9 -5.95" fill="#333333" fill-rule="evenodd" stroke="none"/>
    <path d="M26.65 -10.0 Q26.2 -8.65 24.85 -9.2 23.5 -9.7 24.0 -11.0 24.45 -12.3 25.75 -11.8 27.15 -11.3 26.65 -10.0" fill="#333333" fill-rule="evenodd" stroke="none"/>
    <path d="M24.85 -13.8 Q24.35 -12.55 23.1 -12.95 21.8 -13.45 22.25 -14.75 22.75 -16.0 24.05 -15.5 25.35 -15.0 24.85 -13.8" fill="#333333" fill-rule="evenodd" stroke="none"/>
    <path d="M22.5 -17.25 Q22.05 -16.0 20.8 -16.5 19.6 -16.95 20.0 -18.2 20.45 -19.4 21.75 -18.9 23.0 -18.5 22.5 -17.25" fill="#333333" fill-rule="evenodd" stroke="none"/>
    <path d="M19.65 -20.4 Q19.2 -19.25 18.05 -19.65 16.85 -20.1 17.3 -21.25 17.75 -22.45 18.9 -22.0 20.15 -21.6 19.65 -20.4" fill="#333333" fill-rule="evenodd" stroke="none"/>
    <path d="M16.45 -23.05 Q16.0 -22.0 14.9 -22.45 13.75 -22.9 14.15 -23.95 14.55 -25.0 15.7 -24.6 16.8 -24.2 16.45 -23.05" fill="#333333" fill-rule="evenodd" stroke="none"/>
    <path d="M12.75 -25.3 Q12.4 -24.25 11.35 -24.7 10.3 -25.05 10.65 -26.1 11.05 -27.1 12.1 -26.75 13.15 -26.3 12.75 -25.3" fill="#333333" fill-rule="evenodd" stroke="none"/>
    <path d="M8.85 -26.95 Q8.5 -26.0 7.5 -26.35 6.5 -26.75 6.9 -27.7 7.25 -28.65 8.25 -28.25 9.25 -27.9 8.85 -26.95" fill="#333333" fill-rule="evenodd" stroke="none"/>
    <path d="M4.8 -28.05 Q4.5 -27.15 3.55 -27.55 2.6 -27.85 2.95 -28.7 3.25 -29.6 4.15 -29.25 5.1 -28.9 4.8 -28.05" fill="#333333" fill-rule="evenodd" stroke="none"/>
    <path d="M0.6 -28.5 Q0.25 -27.7 -0.6 -28.05 -1.4 -28.35 -1.1 -29.15 -0.8 -29.95 0.0 -29.65 0.9 -29.35 0.6 -28.5" fill="#333333" fill-rule="evenodd" stroke="none"/>
    <path d="M-4.2 -32.5 Q-4.45 -31.8 -5.2 -32.05 -5.9 -32.35 -5.65 -33.05 -5.35 -33.75 -4.6 -33.5 -3.9 -33.15 -4.2 -32.5" fill="#333333" fill-rule="evenodd" stroke="none"/>
    <path d="M-8.25 -31.8 Q-8.5 -31.2 -9.2 -31.35 -9.9 -31.6 -9.65 -32.3 -9.3 -32.9 -8.7 -32.65 -8.0 -32.5 -8.25 -31.8" fill="#333333" fill-rule="evenodd" stroke="none"/>
    <path d="M-12.25 -30.65 Q-12.5 -30.0 -13.1 -30.25 -13.7 -30.5 -13.45 -31.05 -13.2 -31.7 -12.65 -31.45 -12.05 -31.25 -12.25 -30.65" fill="#333333" fill-rule="evenodd" stroke="none"/>
    <path d="M-16.05 -28.95 Q-16.25 -28.45 -16.75 -28.65 -17.3 -28.9 -17.1 -29.4 -16.95 -29.9 -16.4 -29.7 -15.9 -29.45 -16.05 -28.95" fill="#333333" fill-rule="evenodd" stroke="none"/>
    <path d="M-19.6 -26.85 Q-19.8 -26.4 -20.3 -26.55 -20.7 -26.75 -20.6 -27.2 -20.4 -27.65 -19.9 -27.45 -19.4 -27.3 -19.6 -26.85" fill="#333333" fill-rule="evenodd" stroke="none"/>
    <path d="M-22.8 -24.3 Q-23.0 -23.9 -23.45 -24.0 -23.85 -24.2 -23.75 -24.6 -23.55 -25.05 -23.15 -24.95 -22.7 -24.75 -22.8 -24.3" fill="#333333" fill-rule="evenodd" stroke="none"/>
    <path d="M-25.75 -21.4 Q-25.85 -20.95 -26.3 -21.15 -26.7 -21.25 -26.55 -21.7 -26.4 -22.1 -25.95 -21.9 -25.6 -21.75 -25.75 -21.4" fill="#333333" fill-rule="evenodd" stroke="none"/>
    <path d="M-28.2 -18.1 Q-28.35 -17.7 -28.75 -17.85 -29.15 -18.0 -29.0 -18.4 -28.9 -18.8 -28.45 -18.6 -28.1 -18.5 -28.2 -18.1" fill="#333333" fill-rule="evenodd" stroke="none"/>
    <path d="M-30.25 -14.5 Q-30.35 -14.2 -30.75 -14.35 -31.1 -14.45 -31.0 -14.85 -30.85 -15.2 -30.5 -15.0 -30.1 -14.9 -30.25 -14.5" fill="#333333" fill-rule="evenodd" stroke="none"/>
    <path d="M-31.85 -10.75 Q-32.0 -10.45 -32.35 -10.55 -32.7 -10.7 -32.6 -11.05 -32.45 -11.4 -32.1 -11.25 -31.75 -11.1 -31.85 -10.75" fill="#333333" fill-rule="evenodd" stroke="none"/>
    <path d="M-32.9 -6.85 Q-33.05 -6.45 -33.4 -6.6 -33.75 -6.7 -33.65 -7.1 -33.55 -7.45 -33.15 -7.35 -32.8 -7.15 -32.9 -6.85" fill="#333333" fill-rule="evenodd" stroke="none"/>
    <path d="M-33.45 -2.75 Q-33.6 -2.4 -34.0 -2.5 -34.4 -2.6 -34.25 -3.05 -34.15 -3.45 -33.7 -3.25 -33.35 -3.1 -33.45 -2.75" fill="#333333" fill-rule="evenodd" stroke="none"/>
    <path d="M-33.55 1.35 Q-33.65 1.75 -34.1 1.6 -34.5 1.45 -34.35 1.05 -34.2 0.6 -33.75 0.8 -33.35 0.95 -33.55 1.35" fill="#333333" fill-rule="evenodd" stroke="none"/>
    <path d="M-33.05 5.45 Q-33.15 5.95 -33.65 5.75 -34.1 5.6 -33.95 5.1 -33.75 4.7 -33.3 4.8 -32.85 5.0 -33.05 5.45" fill="#333333" fill-rule="evenodd" stroke="none"/>
    <path d="M-32.05 9.45 Q-32.25 9.95 -32.7 9.75 -33.2 9.6 -33.05 9.1 -32.85 8.6 -32.35 8.8 -31.85 8.95 -32.05 9.45" fill="#333333" fill-rule="evenodd" stroke="none"/>
    <path d="M-30.5 13.3 Q-30.75 13.85 -31.3 13.65 -31.85 13.4 -31.65 12.85 -31.4 12.35 -30.85 12.55 -30.3 12.8 -30.5 13.3" fill="#333333" fill-rule="evenodd" stroke="none"/>
    <path d="M-28.55 16.95 Q-28.75 17.55 -29.4 17.35 -30.0 17.15 -29.8 16.5 -29.55 15.9 -28.95 16.15 -28.35 16.35 -28.55 16.95" fill="#333333" fill-rule="evenodd" stroke="none"/>
    <path d="M-26.15 20.35 Q-26.4 21.05 -27.1 20.75 -27.75 20.5 -27.5 19.8 -27.2 19.1 -26.55 19.45 -25.9 19.7 -26.15 20.35" fill="#333333" fill-rule="evenodd" stroke="none"/>
    <path d="M-23.3 23.4 Q-23.55 24.15 -24.3 23.9 -25.05 23.6 -24.8 22.85 -24.5 22.1 -23.75 22.4 -23.0 22.65 -23.3 23.4" fill="#333333" fill-rule="evenodd" stroke="none"/>
    <path d="M-20.1 26.05 Q-20.4 26.85 -21.25 26.6 -22.05 26.3 -21.75 25.5 -21.5 24.7 -20.65 24.95 -19.8 25.25 -20.1 26.05" fill="#333333" fill-rule="evenodd" stroke="none"/>
    <path d="M-16.65 28.35 Q-16.95 29.2 -17.85 28.9 -18.75 28.55 -18.4 27.65 -18.1 26.85 -17.2 27.2 -16.3 27.55 -16.65 28.35" fill="#333333" fill-rule="evenodd" stroke="none"/>
    <path d="M-12.9 30.2 Q-13.2 31.15 -14.2 30.75 -15.15 30.4 -14.85 29.45 -14.45 28.55 -13.45 28.9 -12.55 29.3 -12.9 30.2" fill="#333333" fill-rule="evenodd" stroke="none"/>
    <path d="M-8.95 31.6 Q-9.3 32.65 -10.4 32.2 -11.45 31.75 -11.0 30.75 -10.6 29.7 -9.55 30.15 -8.5 30.6 -8.95 31.6" fill="#333333" fill-rule="evenodd" stroke="none"/>
    <path d="M-4.85 32.45 Q-5.25 33.5 -6.35 33.05 -7.55 32.65 -7.1 31.6 -6.65 30.5 -5.55 30.9 -4.45 31.35 -4.85 32.45" fill="#333333" fill-rule="evenodd" stroke="none"/>
    <path d="M-0.7 32.75 Q-1.15 33.95 -2.35 33.5 -3.5 33.05 -3.05 31.9 -2.65 30.7 -1.45 31.2 -0.3 31.65 -0.7 32.75" fill="#333333" fill-rule="evenodd" stroke="none"/>
    <path d="M3.45 32.65 Q3.0 33.8 1.75 33.3 0.5 32.9 0.95 31.7 1.45 30.5 2.7 30.95 3.9 31.45 3.45 32.65" fill="#333333" fill-rule="evenodd" stroke="none"/>
    <path d="M7.6 31.95 Q7.1 33.2 5.8 32.7 4.5 32.2 4.9 30.95 5.4 29.7 6.7 30.15 8.05 30.65 7.6 31.95" fill="#333333" fill-rule="evenodd" stroke="none"/>
    <path d="M11.55 30.7 Q11.05 32.05 9.7 31.5 8.3 31.0 8.8 29.7 9.3 28.4 10.65 28.9 12.05 29.4 11.55 30.7" fill="#333333" fill-rule="evenodd" stroke="none"/>
    <path d="M15.3 29.1 Q14.8 30.45 13.4 29.9 11.95 29.4 12.45 28.05 12.95 26.7 14.4 27.2 15.8 27.75 15.3 29.1" fill="#333333" fill-rule="evenodd" stroke="none"/>
    <path d="M18.85 26.95 Q18.35 28.35 16.85 27.8 15.45 27.3 15.95 25.9 16.45 24.5 17.9 25.0 19.35 25.55 18.85 26.95" fill="#333333" fill-rule="evenodd" stroke="none"/>
    <path d="M22.05 24.4 Q21.5 25.8 20.0 25.25 18.6 24.7 19.1 23.25 19.65 21.9 21.15 22.45 22.55 22.95 22.05 24.4" fill="#333333" fill-rule="evenodd" stroke="none"/>
    <path d="M24.9 21.5 Q24.4 22.9 22.85 22.35 21.4 21.8 21.95 20.35 22.5 18.95 24.0 19.5 25.45 20.05 24.9 21.5" fill="#333333" fill-rule="evenodd" stroke="none"/>
    <path d="M27.4 18.2 Q26.9 19.6 25.35 19.05 23.85 18.5 24.4 17.1 24.9 15.6 26.45 16.15 27.95 16.7 27.4 18.2" fill="#333333" fill-rule="evenodd" stroke="none"/>
    <path d="M28.5 12.6 Q30.0 13.15 29.45 14.65 28.85 16.1 27.4 15.55 25.85 14.95 26.4 13.5 26.95 12.05 28.5 12.6" fill="#333333" fill-rule="evenodd" stroke="none"/>
    <path d="M31.05 10.8 Q30.5 12.3 29.0 11.75 27.45 11.2 28.0 9.7 28.5 8.2 30.05 8.8 31.6 9.4 31.05 10.8" fill="#333333" fill-rule="evenodd" stroke="none"/>
    <path d="M32.1 6.9 Q31.55 8.35 30.05 7.8 28.5 7.25 29.05 5.75 29.6 4.3 31.15 4.85 32.65 5.45 32.1 6.9" fill="#333333" fill-rule="evenodd" stroke="none"/>
    <path d="M32.65 2.85 Q32.15 4.3 30.6 3.75 29.1 3.15 29.65 1.7 30.15 0.25 31.7 0.8 33.2 1.4 32.65 2.85" fill="#333333" fill-rule="evenodd" stroke="none"/>
    <path d="M32.7 -1.25 Q32.15 0.15 30.65 -0.4 29.25 -0.95 29.75 -2.4 30.3 -3.8 31.8 -3.25 33.25 -2.7 32.7 -1.25" fill="#333333" fill-rule="evenodd" stroke="none"/>
    <path d="M32.2 -5.35 Q31.7 -3.95 30.25 -4.5 28.8 -5.05 29.3 -6.45 29.85 -7.85 31.35 -7.25 32.75 -6.7 32.2 -5.35" fill="#333333" fill-rule="evenodd" stroke="none"/>
    <path d="M31.2 -9.4 Q30.7 -7.95 29.3 -8.5 27.9 -9.05 28.45 -10.45 28.95 -11.8 30.3 -11.25 31.7 -10.75 31.2 -9.4" fill="#333333" fill-rule="evenodd" stroke="none"/>
    <path d="M28.85 -15.1 Q30.25 -14.6 29.75 -13.2 29.3 -11.85 27.9 -12.4 26.5 -12.9 27.0 -14.25 27.5 -15.55 28.85 -15.1" fill="#333333" fill-rule="evenodd" stroke="none"/>
    <path d="M27.8 -16.85 Q27.3 -15.55 25.95 -16.05 24.65 -16.55 25.15 -17.85 25.6 -19.15 26.95 -18.65 28.3 -18.1 27.8 -16.85" fill="#333333" fill-rule="evenodd" stroke="none"/>
    <path d="M25.4 -20.2 Q24.95 -19.0 23.65 -19.5 22.35 -19.95 22.8 -21.2 23.3 -22.45 24.6 -21.95 25.85 -21.45 25.4 -20.2" fill="#333333" fill-rule="evenodd" stroke="none"/>
    <path d="M22.55 -23.25 Q22.1 -22.1 20.9 -22.55 19.7 -23.0 20.15 -24.2 20.55 -25.4 21.8 -24.95 23.05 -24.45 22.55 -23.25" fill="#333333" fill-rule="evenodd" stroke="none"/>
    <path d="M19.4 -26.0 Q18.95 -24.85 17.85 -25.3 16.65 -25.75 17.1 -26.85 17.55 -27.95 18.65 -27.55 19.85 -27.1 19.4 -26.0" fill="#333333" fill-rule="evenodd" stroke="none"/>
    <path d="M15.95 -28.25 Q15.5 -27.2 14.45 -27.6 13.35 -28.05 13.7 -29.1 14.15 -30.05 15.2 -29.7 16.3 -29.35 15.95 -28.25" fill="#333333" fill-rule="evenodd" stroke="none"/>
    <path d="M12.15 -30.05 Q11.8 -29.1 10.8 -29.45 9.75 -29.8 10.1 -30.8 10.5 -31.8 11.55 -31.45 12.55 -31.05 12.15 -30.05" fill="#333333" fill-rule="evenodd" stroke="none"/>
    <path d="M8.2 -31.45 Q7.9 -30.55 6.95 -30.9 6.05 -31.25 6.35 -32.1 6.65 -33.05 7.6 -32.65 8.5 -32.35 8.2 -31.45" fill="#333333" fill-rule="evenodd" stroke="none"/>
    <path d="M4.1 -32.3 Q3.8 -31.5 2.95 -31.8 2.05 -32.1 2.4 -32.9 2.7 -33.75 3.55 -33.4 4.4 -33.1 4.1 -32.3" fill="#333333" fill-rule="evenodd" stroke="none"/>
    <path d="M-0.05 -32.65 Q-0.3 -31.85 -1.1 -32.2 -1.95 -32.5 -1.65 -33.25 -1.35 -34.05 -0.55 -33.75 0.25 -33.4 -0.05 -32.65" fill="#333333" fill-rule="evenodd" stroke="none"/>
    <path d="M-4.75 -36.6 Q-5.0 -35.9 -5.65 -36.15 -6.35 -36.4 -6.1 -37.05 -5.8 -37.7 -5.1 -37.45 -4.45 -37.2 -4.75 -36.6" fill="#333333" fill-rule="evenodd" stroke="none"/>
    <path d="M-8.85 -35.9 Q-9.1 -35.3 -9.7 -35.5 -10.3 -35.75 -10.05 -36.35 -9.8 -36.95 -9.2 -36.7 -8.6 -36.5 -8.85 -35.9" fill="#333333" fill-rule="evenodd" stroke="none"/>
    <path d="M-12.85 -34.8 Q-13.05 -34.3 -13.6 -34.45 -14.15 -34.65 -13.95 -35.2 -13.8 -35.7 -13.2 -35.5 -12.65 -35.35 -12.85 -34.8" fill="#333333" fill-rule="evenodd" stroke="none"/>
    <path d="M-16.7 -33.25 Q-16.85 -32.8 -17.35 -32.9 -17.85 -33.1 -17.75 -33.6 -17.55 -34.1 -17.05 -33.9 -16.55 -33.75 -16.7 -33.25" fill="#333333" fill-rule="evenodd" stroke="none"/>
    <path d="M-20.35 -31.25 Q-20.55 -30.8 -20.95 -31.0 -21.4 -31.2 -21.25 -31.6 -21.15 -32.05 -20.65 -31.85 -20.2 -31.7 -20.35 -31.25" fill="#333333" fill-rule="evenodd" stroke="none"/>
    <path d="M-23.8 -28.9 Q-23.95 -28.5 -24.3 -28.65 -24.65 -28.85 -24.55 -29.2 -24.45 -29.6 -24.05 -29.45 -23.7 -29.35 -23.8 -28.9" fill="#333333" fill-rule="evenodd" stroke="none"/>
    <path d="M-26.9 -26.15 Q-27.05 -25.85 -27.4 -26.0 -27.7 -26.1 -27.6 -26.5 L-27.15 -26.65 Q-26.8 -26.55 -26.9 -26.15" fill="#333333" fill-rule="evenodd" stroke="none"/>
    <path d="M-29.7 -23.15 Q-29.75 -22.8 -30.1 -22.95 -30.45 -23.05 -30.3 -23.4 L-29.85 -23.55 Q-29.55 -23.45 -29.7 -23.15" fill="#333333" fill-rule="evenodd" stroke="none"/>
    <path d="M-32.1 -19.8 L-32.45 -19.6 Q-32.8 -19.7 -32.7 -20.05 L-32.3 -20.15 Q-32.0 -20.05 -32.1 -19.8" fill="#333333" fill-rule="evenodd" stroke="none"/>
    <path d="M-34.1 -16.2 Q-34.15 -15.95 -34.45 -16.0 -34.75 -16.15 -34.65 -16.4 -34.5 -16.65 -34.25 -16.55 -33.95 -16.45 -34.1 -16.2" fill="#333333" fill-rule="evenodd" stroke="none"/>
    <path d="M-36.25 -12.6 L-35.9 -12.8 Q-35.55 -12.65 -35.7 -12.4 -35.75 -12.1 -36.05 -12.25 L-36.25 -12.6" fill="#333333" fill-rule="evenodd" stroke="none"/>
    <path d="M-36.8 -8.45 Q-36.85 -8.15 -37.2 -8.25 -37.55 -8.3 -37.4 -8.65 L-37.0 -8.8 Q-36.7 -8.75 -36.8 -8.45" fill="#333333" fill-rule="evenodd" stroke="none"/>
    <path d="M-37.5 -4.35 Q-37.6 -4.05 -37.9 -4.15 -38.25 -4.3 -38.1 -4.6 -38.0 -4.9 -37.65 -4.8 -37.4 -4.65 -37.5 -4.35" fill="#333333" fill-rule="evenodd" stroke="none"/>
    <path d="M-37.75 -0.25 Q-37.8 0.05 -38.15 -0.1 -38.5 -0.2 -38.35 -0.5 -38.25 -0.85 -37.9 -0.7 -37.6 -0.6 -37.75 -0.25" fill="#333333" fill-rule="evenodd" stroke="none"/>
    <path d="M-37.4 3.9 Q-37.55 4.25 -37.9 4.15 -38.3 3.95 -38.15 3.55 -38.05 3.25 -37.65 3.4 -37.3 3.5 -37.4 3.9" fill="#333333" fill-rule="evenodd" stroke="none"/>
    <path d="M-36.75 7.95 Q-36.85 8.35 -37.3 8.2 L-37.55 7.65 Q-37.4 7.25 -37.0 7.4 -36.55 7.55 -36.75 7.95" fill="#333333" fill-rule="evenodd" stroke="none"/>
    <path d="M-35.55 11.95 Q-35.7 12.45 -36.2 12.25 -36.6 12.05 -36.5 11.55 -36.3 11.15 -35.8 11.3 -35.4 11.5 -35.55 11.95" fill="#333333" fill-rule="evenodd" stroke="none"/>
    <path d="M-33.9 15.8 Q-34.1 16.25 -34.6 16.1 -35.15 15.9 -34.95 15.4 -34.75 14.9 -34.2 15.1 -33.7 15.3 -33.9 15.8" fill="#333333" fill-rule="evenodd" stroke="none"/>
    <path d="M-31.85 19.35 Q-32.1 19.95 -32.65 19.75 -33.3 19.5 -33.05 18.95 -32.85 18.4 -32.25 18.65 -31.65 18.8 -31.85 19.35" fill="#333333" fill-rule="evenodd" stroke="none"/>
    <path d="M-29.45 22.8 Q-29.7 23.45 -30.3 23.2 -31.0 22.95 -30.75 22.3 -30.5 21.65 -29.85 21.9 -29.2 22.15 -29.45 22.8" fill="#333333" fill-rule="evenodd" stroke="none"/>
    <path d="M-26.65 25.9 Q-26.9 26.55 -27.6 26.3 -28.35 26.0 -28.1 25.3 -27.75 24.65 -27.1 24.95 -26.4 25.2 -26.65 25.9" fill="#333333" fill-rule="evenodd" stroke="none"/>
    <path d="M-23.5 28.65 Q-23.8 29.4 -24.55 29.1 -25.3 28.85 -25.05 28.05 -24.75 27.3 -24.0 27.6 -23.2 27.9 -23.5 28.65" fill="#333333" fill-rule="evenodd" stroke="none"/>
    <path d="M-20.1 31.1 Q-20.35 31.95 -21.2 31.6 -22.05 31.2 -21.75 30.4 -21.45 29.6 -20.65 29.9 -19.8 30.25 -20.1 31.1" fill="#333333" fill-rule="evenodd" stroke="none"/>
    <path d="M-16.4 33.1 Q-16.75 34.0 -17.7 33.7 -18.6 33.3 -18.3 32.4 -17.95 31.5 -17.0 31.8 -16.05 32.2 -16.4 33.1" fill="#333333" fill-rule="evenodd" stroke="none"/>
    <path d="M-12.55 34.75 Q-12.9 35.65 -13.9 35.3 -14.9 34.9 -14.5 33.95 -14.15 32.95 -13.15 33.35 -12.15 33.75 -12.55 34.75" fill="#333333" fill-rule="evenodd" stroke="none"/>
    <path d="M-8.5 35.85 Q-8.9 36.9 -9.95 36.55 -11.05 36.15 -10.7 35.1 -10.25 34.05 -9.2 34.45 -8.1 34.8 -8.5 35.85" fill="#333333" fill-rule="evenodd" stroke="none"/>
    <path d="M-4.35 36.6 Q-4.8 37.7 -5.9 37.3 -7.1 36.85 -6.65 35.75 -6.25 34.6 -5.1 35.05 -3.95 35.5 -4.35 36.6" fill="#333333" fill-rule="evenodd" stroke="none"/>
    <path d="M-0.2 36.85 Q-0.65 38.0 -1.85 37.6 -3.05 37.15 -2.65 35.95 -2.15 34.8 -0.95 35.25 0.25 35.65 -0.2 36.85" fill="#333333" fill-rule="evenodd" stroke="none"/>
    <path d="M4.0 36.65 Q3.55 37.9 2.25 37.4 0.9 36.95 1.4 35.75 1.8 34.5 3.2 35.0 4.5 35.4 4.0 36.65" fill="#333333" fill-rule="evenodd" stroke="none"/>
    <path d="M8.05 36.05 Q7.6 37.3 6.3 36.8 5.0 36.3 5.4 35.0 5.9 33.7 7.2 34.25 8.55 34.75 8.05 36.05" fill="#333333" fill-rule="evenodd" stroke="none"/>
    <path d="M12.1 34.9 Q11.6 36.3 10.15 35.75 8.8 35.25 9.3 33.85 9.8 32.5 11.25 33.05 12.6 33.55 12.1 34.9" fill="#333333" fill-rule="evenodd" stroke="none"/>
    <path d="M15.95 33.3 Q15.45 34.75 14.0 34.2 12.6 33.7 13.1 32.25 13.6 30.9 15.0 31.4 16.45 31.95 15.95 33.3" fill="#333333" fill-rule="evenodd" stroke="none"/>
    <path d="M19.6 31.4 Q19.1 32.8 17.6 32.25 16.1 31.7 16.6 30.25 17.15 28.85 18.65 29.4 20.1 29.95 19.6 31.4" fill="#333333" fill-rule="evenodd" stroke="none"/>
    <path d="M23.0 29.05 Q22.45 30.45 20.95 29.9 19.4 29.35 19.95 27.85 20.5 26.45 22.05 27.0 23.55 27.55 23.0 29.05" fill="#333333" fill-rule="evenodd" stroke="none"/>
    <path d="M26.1 26.25 Q25.55 27.75 24.0 27.2 22.45 26.6 23.0 25.15 23.55 23.65 25.1 24.2 26.65 24.75 26.1 26.25" fill="#333333" fill-rule="evenodd" stroke="none"/>
    <path d="M26.75 24.15 Q25.15 23.6 25.7 22.05 26.25 20.55 27.9 21.15 29.45 21.7 28.85 23.2 28.3 24.75 26.75 24.15" fill="#333333" fill-rule="evenodd" stroke="none"/>
    <path d="M31.2 19.85 Q30.65 21.4 29.1 20.8 27.5 20.25 28.15 18.7 28.7 17.15 30.25 17.75 31.85 18.3 31.2 19.85" fill="#333333" fill-rule="evenodd" stroke="none"/>
    <path d="M33.25 16.25 Q32.65 17.8 31.1 17.2 29.5 16.65 30.1 15.1 30.65 13.55 32.25 14.15 33.8 14.7 33.25 16.25" fill="#333333" fill-rule="evenodd" stroke="none"/>
    <path d="M34.8 12.5 Q34.25 14.05 32.7 13.4 31.1 12.85 31.65 11.3 32.25 9.75 33.8 10.4 35.45 10.95 34.8 12.5" fill="#333333" fill-rule="evenodd" stroke="none"/>
    <path d="M36.0 8.55 Q35.45 10.1 33.9 9.45 32.25 8.85 32.85 7.35 33.4 5.8 35.0 6.4 36.55 7.0 36.0 8.55" fill="#333333" fill-rule="evenodd" stroke="none"/>
    <path d="M36.65 4.45 Q36.1 6.0 34.55 5.35 32.95 4.8 33.5 3.25 34.05 1.7 35.7 2.35 37.2 2.9 36.65 4.45" fill="#333333" fill-rule="evenodd" stroke="none"/>
    <path d="M36.85 0.35 Q36.3 1.85 34.75 1.3 33.2 0.65 33.75 -0.85 34.3 -2.3 35.85 -1.75 37.45 -1.2 36.85 0.35" fill="#333333" fill-rule="evenodd" stroke="none"/>
    <path d="M36.6 -3.8 Q36.1 -2.3 34.55 -2.85 33.0 -3.45 33.55 -4.9 34.15 -6.4 35.7 -5.85 37.15 -5.25 36.6 -3.8" fill="#333333" fill-rule="evenodd" stroke="none"/>
    <path d="M35.9 -7.85 Q35.35 -6.4 33.9 -6.95 32.4 -7.5 32.95 -9.0 33.45 -10.45 35.0 -9.85 36.5 -9.3 35.9 -7.85" fill="#333333" fill-rule="evenodd" stroke="none"/>
    <path d="M31.85 -12.9 Q32.35 -14.25 33.8 -13.8 35.25 -13.2 34.75 -11.85 34.25 -10.45 32.75 -11.0 31.35 -11.5 31.85 -12.9" fill="#333333" fill-rule="evenodd" stroke="none"/>
    <path d="M33.15 -15.65 Q32.65 -14.25 31.2 -14.85 29.8 -15.35 30.3 -16.7 30.8 -18.05 32.2 -17.55 33.65 -17.0 33.15 -15.65" fill="#333333" fill-rule="evenodd" stroke="none"/>
    <path d="M31.1 -19.3 Q30.65 -17.95 29.25 -18.5 27.9 -19.0 28.35 -20.3 28.85 -21.65 30.25 -21.1 31.6 -20.6 31.1 -19.3" fill="#333333" fill-rule="evenodd" stroke="none"/>
    <path d="M26.95 -21.9 Q25.6 -22.4 26.1 -23.65 26.6 -24.85 27.9 -24.45 29.2 -23.95 28.7 -22.7 28.25 -21.4 26.95 -21.9" fill="#333333" fill-rule="evenodd" stroke="none"/>
    <path d="M25.9 -25.75 Q25.45 -24.55 24.15 -25.0 22.95 -25.5 23.35 -26.75 23.85 -27.95 25.1 -27.45 26.35 -26.95 25.9 -25.75" fill="#333333" fill-rule="evenodd" stroke="none"/>
    <path d="M22.75 -28.5 Q22.3 -27.35 21.15 -27.85 19.95 -28.25 20.4 -29.45 20.8 -30.65 22.0 -30.15 23.25 -29.7 22.75 -28.5" fill="#333333" fill-rule="evenodd" stroke="none"/>
    <path d="M19.35 -30.95 Q18.9 -29.9 17.8 -30.25 16.65 -30.7 17.1 -31.8 17.55 -32.85 18.65 -32.5 19.75 -32.05 19.35 -30.95" fill="#333333" fill-rule="evenodd" stroke="none"/>
    <path d="M15.7 -33.0 Q15.3 -31.95 14.25 -32.35 13.2 -32.75 13.6 -33.8 13.95 -34.8 15.0 -34.4 16.05 -33.95 15.7 -33.0" fill="#333333" fill-rule="evenodd" stroke="none"/>
    <path d="M11.8 -34.6 Q11.45 -33.6 10.5 -33.95 9.5 -34.35 9.8 -35.35 10.15 -36.25 11.15 -35.9 12.15 -35.5 11.8 -34.6" fill="#333333" fill-rule="evenodd" stroke="none"/>
    <path d="M7.75 -35.75 Q7.45 -34.9 6.5 -35.2 5.65 -35.6 5.95 -36.45 6.3 -37.3 7.2 -37.0 8.05 -36.65 7.75 -35.75" fill="#333333" fill-rule="evenodd" stroke="none"/>
    <path d="M3.6 -36.5 Q3.35 -35.65 2.5 -35.95 1.7 -36.35 2.0 -37.15 2.3 -37.95 3.1 -37.65 3.9 -37.3 3.6 -36.5" fill="#333333" fill-rule="evenodd" stroke="none"/>
    <path d="M-0.55 -36.75 Q-0.8 -36.0 -1.6 -36.25 -2.35 -36.6 -2.1 -37.3 -1.75 -38.05 -1.05 -37.75 -0.2 -37.5 -0.55 -36.75" fill="#333333" fill-rule="evenodd" stroke="none"/>
    <path d="M-5.25 -40.6 Q-5.5 -40.0 -6.1 -40.25 -6.8 -40.5 -6.55 -41.1 -6.3 -41.7 -5.65 -41.45 -5.0 -41.2 -5.25 -40.6" fill="#333333" fill-rule="evenodd" stroke="none"/>
    <path d="M-9.4 -40.0 Q-9.65 -39.45 -10.2 -39.6 -10.75 -39.85 -10.55 -40.4 -10.3 -41.0 -9.75 -40.75 -9.15 -40.55 -9.4 -40.0" fill="#333333" fill-rule="evenodd" stroke="none"/>
    <path d="M-13.4 -38.95 Q-13.6 -38.45 -14.1 -38.6 -14.65 -38.8 -14.45 -39.3 -14.25 -39.8 -13.7 -39.6 -13.2 -39.45 -13.4 -38.95" fill="#333333" fill-rule="evenodd" stroke="none"/>
    <path d="M-17.35 -37.45 Q-17.5 -37.0 -18.0 -37.2 -18.4 -37.4 -18.3 -37.8 -18.1 -38.25 -17.6 -38.05 -17.2 -37.9 -17.35 -37.45" fill="#333333" fill-rule="evenodd" stroke="none"/>
    <path d="M-21.1 -35.65 Q-21.2 -35.3 -21.65 -35.4 -22.0 -35.5 -21.9 -35.95 -21.75 -36.35 -21.35 -36.15 -20.95 -36.0 -21.1 -35.65" fill="#333333" fill-rule="evenodd" stroke="none"/>
    <path d="M-24.6 -33.4 Q-24.75 -33.1 -25.1 -33.25 -25.5 -33.35 -25.35 -33.75 L-24.85 -33.9 Q-24.5 -33.8 -24.6 -33.4" fill="#333333" fill-rule="evenodd" stroke="none"/>
    <path d="M-27.9 -30.9 Q-28.0 -30.55 -28.35 -30.7 -28.65 -30.8 -28.5 -31.1 -28.4 -31.45 -28.1 -31.3 -27.85 -31.2 -27.9 -30.9" fill="#333333" fill-rule="evenodd" stroke="none"/>
    <path d="M-30.95 -28.05 L-31.3 -27.85 Q-31.6 -27.95 -31.5 -28.2 L-31.1 -28.4 Q-30.8 -28.35 -30.95 -28.05" fill="#333333" fill-rule="evenodd" stroke="none"/>
    <path d="M-33.6 -24.85 L-33.9 -24.75 -34.1 -25.05 Q-33.65 -25.35 -33.6 -24.85" fill="#333333" fill-rule="evenodd" stroke="none"/>
    <path d="M-35.95 -21.45 Q-36.35 -21.05 -36.35 -21.65 -36.0 -22.0 -35.95 -21.45" fill="#333333" fill-rule="evenodd" stroke="none"/>
    <path d="M-37.9 -17.8 Q-38.3 -17.45 -38.35 -18.0 -37.9 -18.4 -37.9 -17.8" fill="#333333" fill-rule="evenodd" stroke="none"/>
    <path d="M-39.55 -14.0 L-39.8 -13.9 Q-40.2 -14.0 -39.8 -14.2 -39.35 -14.45 -39.55 -14.0" fill="#333333" fill-rule="evenodd" stroke="none"/>
    <path d="M-40.7 -10.05 Q-41.1 -9.7 -41.15 -10.25 -40.7 -10.7 -40.7 -10.05" fill="#333333" fill-rule="evenodd" stroke="none"/>
    <path d="M-41.45 -5.95 L-41.75 -5.85 -41.95 -6.15 Q-41.55 -6.55 -41.45 -5.95" fill="#333333" fill-rule="evenodd" stroke="none"/>
    <path d="M-41.8 -1.9 Q-41.9 -1.65 -42.15 -1.75 -42.4 -1.8 -42.3 -2.05 L-41.95 -2.2 Q-41.7 -2.15 -41.8 -1.9" fill="#333333" fill-rule="evenodd" stroke="none"/>
    <path d="M-41.75 2.25 Q-41.8 2.6 -42.15 2.45 L-42.3 2.1 Q-42.2 1.85 -41.95 1.9 -41.65 2.0 -41.75 2.25" fill="#333333" fill-rule="evenodd" stroke="none"/>
    <path d="M-41.25 6.4 Q-41.4 6.75 -41.7 6.6 -42.0 6.5 -41.9 6.15 -41.75 5.85 -41.45 6.0 -41.15 6.1 -41.25 6.4" fill="#333333" fill-rule="evenodd" stroke="none"/>
    <path d="M-40.35 10.45 Q-40.45 10.8 -40.85 10.7 L-41.1 10.2 Q-40.95 9.85 -40.6 9.95 -40.2 10.1 -40.35 10.45" fill="#333333" fill-rule="evenodd" stroke="none"/>
    <path d="M-39.05 14.4 Q-39.15 14.8 -39.6 14.65 -39.95 14.5 -39.85 14.1 -39.7 13.65 -39.3 13.85 -38.9 14.0 -39.05 14.4" fill="#333333" fill-rule="evenodd" stroke="none"/>
    <path d="M-37.3 18.2 Q-37.5 18.7 -37.9 18.5 -38.4 18.3 -38.25 17.8 -38.1 17.35 -37.6 17.55 -37.1 17.75 -37.3 18.2" fill="#333333" fill-rule="evenodd" stroke="none"/>
    <path d="M-35.2 21.85 Q-35.4 22.35 -35.9 22.15 -36.45 21.9 -36.25 21.4 -36.05 20.9 -35.5 21.1 -35.0 21.35 -35.2 21.85" fill="#333333" fill-rule="evenodd" stroke="none"/>
    <path d="M-32.7 25.2 Q-32.95 25.8 -33.55 25.55 -34.15 25.4 -33.95 24.75 -33.7 24.15 -33.15 24.4 -32.55 24.65 -32.7 25.2" fill="#333333" fill-rule="evenodd" stroke="none"/>
    <path d="M-29.95 28.35 Q-30.2 29.05 -30.85 28.8 -31.55 28.55 -31.3 27.85 -31.05 27.25 -30.35 27.5 -29.7 27.75 -29.95 28.35" fill="#333333" fill-rule="evenodd" stroke="none"/>
    <path d="M-26.85 31.2 Q-27.1 31.9 -27.85 31.65 -28.55 31.35 -28.35 30.65 -28.0 29.9 -27.25 30.2 -26.55 30.45 -26.85 31.2" fill="#333333" fill-rule="evenodd" stroke="none"/>
    <path d="M-23.5 33.75 Q-23.75 34.55 -24.55 34.25 -25.35 33.95 -25.1 33.1 -24.8 32.3 -24.0 32.65 -23.2 32.95 -23.5 33.75" fill="#333333" fill-rule="evenodd" stroke="none"/>
    <path d="M-19.9 35.9 Q-20.2 36.8 -21.1 36.4 -21.95 36.1 -21.7 35.25 -21.4 34.35 -20.45 34.65 -19.6 35.05 -19.9 35.9" fill="#333333" fill-rule="evenodd" stroke="none"/>
    <path d="M-16.05 37.7 Q-16.45 38.65 -17.35 38.25 -18.35 37.9 -18.0 36.95 -17.7 36.05 -16.7 36.4 -15.75 36.8 -16.05 37.7" fill="#333333" fill-rule="evenodd" stroke="none"/>
    <path d="M-12.1 39.15 Q-12.5 40.15 -13.55 39.75 -14.6 39.3 -14.2 38.35 -13.85 37.35 -12.8 37.7 -11.75 38.15 -12.1 39.15" fill="#333333" fill-rule="evenodd" stroke="none"/>
    <path d="M-8.0 40.15 Q-8.45 41.2 -9.55 40.8 -10.7 40.35 -10.25 39.3 -9.9 38.25 -8.75 38.65 -7.65 39.05 -8.0 40.15" fill="#333333" fill-rule="evenodd" stroke="none"/>
    <path d="M-3.9 40.75 Q-4.3 41.9 -5.5 41.5 -6.65 41.05 -6.25 39.9 -5.8 38.75 -4.6 39.2 -3.45 39.65 -3.9 40.75" fill="#333333" fill-rule="evenodd" stroke="none"/>
    <path d="M0.25 40.95 Q-0.15 42.15 -1.4 41.65 -2.65 41.25 -2.2 40.0 -1.7 38.8 -0.45 39.3 0.75 39.75 0.25 40.95" fill="#333333" fill-rule="evenodd" stroke="none"/>
    <path d="M4.5 40.75 Q4.05 42.0 2.75 41.5 1.45 41.0 1.9 39.75 2.4 38.5 3.7 39.0 5.0 39.5 4.5 40.75" fill="#333333" fill-rule="evenodd" stroke="none"/>
    <path d="M8.65 40.05 Q8.15 41.45 6.75 40.85 5.4 40.35 5.9 39.05 6.4 37.7 7.75 38.25 9.1 38.75 8.65 40.05" fill="#333333" fill-rule="evenodd" stroke="none"/>
    <path d="M12.65 39.0 Q12.15 40.45 10.75 39.9 9.3 39.4 9.8 37.95 10.3 36.6 11.7 37.15 13.15 37.65 12.65 39.0" fill="#333333" fill-rule="evenodd" stroke="none"/>
    <path d="M16.55 37.6 Q16.05 39.0 14.55 38.45 13.15 37.9 13.65 36.45 14.15 35.05 15.6 35.6 17.05 36.15 16.55 37.6" fill="#333333" fill-rule="evenodd" stroke="none"/>
    <path d="M20.35 35.75 Q19.75 37.2 18.3 36.65 16.75 36.05 17.3 34.6 17.8 33.1 19.35 33.7 20.8 34.3 20.35 35.75" fill="#333333" fill-rule="evenodd" stroke="none"/>
    <path d="M23.8 33.5 Q23.25 35.0 21.75 34.45 20.2 33.85 20.75 32.4 21.3 30.9 22.85 31.45 24.35 32.0 23.8 33.5" fill="#333333" fill-rule="evenodd" stroke="none"/>
    <path d="M27.05 30.95 Q26.5 32.5 24.95 31.9 23.35 31.35 23.9 29.8 24.55 28.25 26.1 28.85 27.65 29.4 27.05 30.95" fill="#333333" fill-rule="evenodd" stroke="none"/>
    <path d="M29.05 25.95 Q30.65 26.55 30.05 28.1 29.5 29.65 27.9 29.05 26.25 28.5 26.9 26.95 27.45 25.4 29.05 25.95" fill="#333333" fill-rule="evenodd" stroke="none"/>
    <path d="M32.75 24.95 Q32.15 26.5 30.55 25.95 28.95 25.3 29.5 23.7 30.1 22.15 31.7 22.8 33.3 23.4 32.75 24.95" fill="#333333" fill-rule="evenodd" stroke="none"/>
    <path d="M35.05 21.55 Q34.5 23.15 32.9 22.55 31.2 21.85 31.85 20.3 32.45 18.75 34.05 19.35 35.7 20.0 35.05 21.55" fill="#333333" fill-rule="evenodd" stroke="none"/>
    <path d="M37.05 17.9 Q36.5 19.45 34.85 18.85 33.2 18.25 33.8 16.7 34.4 15.1 36.0 15.7 37.65 16.35 37.05 17.9" fill="#333333" fill-rule="evenodd" stroke="none"/>
    <path d="M38.65 14.1 Q38.05 15.7 36.4 15.1 34.75 14.5 35.35 12.85 36.0 11.3 37.6 11.95 39.25 12.55 38.65 14.1" fill="#333333" fill-rule="evenodd" stroke="none"/>
    <path d="M39.8 10.15 Q39.25 11.75 37.65 11.15 36.0 10.45 36.6 8.9 37.15 7.3 38.75 7.95 40.45 8.6 39.8 10.15" fill="#333333" fill-rule="evenodd" stroke="none"/>
    <path d="M40.65 6.05 Q40.0 7.65 38.4 7.05 36.8 6.5 37.4 4.85 37.95 3.3 39.6 3.9 41.25 4.5 40.65 6.05" fill="#333333" fill-rule="evenodd" stroke="none"/>
    <path d="M41.0 1.95 Q40.4 3.5 38.75 2.9 37.15 2.25 37.8 0.7 38.35 -0.85 39.95 -0.2 41.55 0.4 41.0 1.95" fill="#333333" fill-rule="evenodd" stroke="none"/>
    <path d="M40.95 -2.2 Q40.3 -0.65 38.75 -1.25 37.15 -1.8 37.8 -3.35 38.35 -4.9 39.95 -4.3 41.5 -3.75 40.95 -2.2" fill="#333333" fill-rule="evenodd" stroke="none"/>
    <path d="M40.45 -6.35 Q39.9 -4.8 38.35 -5.4 36.75 -5.95 37.35 -7.45 37.9 -9.0 39.45 -8.4 41.0 -7.85 40.45 -6.35" fill="#333333" fill-rule="evenodd" stroke="none"/>
    <path d="M39.5 -10.35 Q38.95 -8.9 37.45 -9.45 35.9 -10.0 36.5 -11.5 37.05 -12.95 38.6 -12.4 40.05 -11.85 39.5 -10.35" fill="#333333" fill-rule="evenodd" stroke="none"/>
    <path d="M38.2 -14.35 Q37.7 -12.85 36.15 -13.4 34.7 -13.95 35.25 -15.45 35.75 -16.85 37.3 -16.3 38.75 -15.75 38.2 -14.35" fill="#333333" fill-rule="evenodd" stroke="none"/>
    <path d="M36.5 -18.1 Q36.0 -16.7 34.5 -17.25 33.1 -17.8 33.65 -19.15 34.15 -20.6 35.6 -20.05 37.05 -19.5 36.5 -18.1" fill="#333333" fill-rule="evenodd" stroke="none"/>
    <path d="M34.45 -21.7 Q33.95 -20.35 32.5 -20.9 31.1 -21.4 31.6 -22.75 32.1 -24.1 33.5 -23.55 34.95 -23.05 34.45 -21.7" fill="#333333" fill-rule="evenodd" stroke="none"/>
    <path d="M31.95 -25.1 Q31.55 -23.8 30.15 -24.3 28.8 -24.8 29.3 -26.1 29.8 -27.4 31.1 -26.9 32.45 -26.4 31.95 -25.1" fill="#333333" fill-rule="evenodd" stroke="none"/>
    <path d="M27.45 -27.45 Q26.15 -27.95 26.65 -29.2 27.15 -30.45 28.35 -29.95 29.65 -29.45 29.2 -28.2 28.75 -26.95 27.45 -27.45" fill="#333333" fill-rule="evenodd" stroke="none"/>
    <path d="M26.1 -31.05 Q25.65 -29.9 24.4 -30.4 23.25 -30.8 23.65 -32.0 24.1 -33.25 25.35 -32.75 26.6 -32.25 26.1 -31.05" fill="#333333" fill-rule="evenodd" stroke="none"/>
    <path d="M22.75 -33.6 Q22.25 -32.3 21.0 -33.0 19.75 -33.75 20.65 -34.85 21.3 -35.65 22.2 -35.1 23.1 -34.6 22.75 -33.6" fill="#333333" fill-rule="evenodd" stroke="none"/>
    <path d="M19.15 -35.75 Q18.8 -34.7 17.65 -35.15 16.55 -35.5 17.0 -36.6 17.35 -37.65 18.45 -37.25 19.6 -36.8 19.15 -35.75" fill="#333333" fill-rule="evenodd" stroke="none"/>
    <path d="M15.35 -37.55 Q15.0 -36.6 14.0 -36.95 12.95 -37.4 13.35 -38.35 13.7 -39.35 14.75 -39.0 15.75 -38.55 15.35 -37.55" fill="#333333" fill-rule="evenodd" stroke="none"/>
    <path d="M11.4 -39.0 Q11.1 -38.05 10.1 -38.45 9.2 -38.8 9.5 -39.75 9.85 -40.65 10.8 -40.3 11.7 -39.9 11.4 -39.0" fill="#333333" fill-rule="evenodd" stroke="none"/>
    <path d="M7.35 -40.05 Q7.0 -39.2 6.15 -39.5 5.3 -39.8 5.6 -40.65 5.9 -41.55 6.75 -41.2 7.65 -40.9 7.35 -40.05" fill="#333333" fill-rule="evenodd" stroke="none"/>
    <path d="M3.2 -40.65 Q2.85 -39.85 2.05 -40.15 1.25 -40.5 1.55 -41.2 1.8 -42.05 2.7 -41.7 3.5 -41.4 3.2 -40.65" fill="#333333" fill-rule="evenodd" stroke="none"/>
    <path d="M-1.05 -40.85 Q-1.3 -40.15 -2.0 -40.4 -2.75 -40.65 -2.5 -41.4 -2.2 -42.1 -1.45 -41.85 -0.7 -41.55 -1.05 -40.85" fill="#333333" fill-rule="evenodd" stroke="none"/>
    <path d="M-5.8 -44.7 Q-6.0 -44.05 -6.6 -44.3 -7.2 -44.5 -6.95 -45.15 -6.8 -45.75 -6.15 -45.5 -5.55 -45.3 -5.8 -44.7" fill="#333333" fill-rule="evenodd" stroke="none"/>
    <path d="M-9.9 -44.05 Q-10.05 -43.5 -10.6 -43.7 -11.2 -43.95 -10.95 -44.45 -10.75 -45.0 -10.2 -44.8 -9.7 -44.55 -9.9 -44.05" fill="#333333" fill-rule="evenodd" stroke="none"/>
    <path d="M-13.9 -43.1 Q-14.1 -42.6 -14.5 -42.75 -15.0 -42.95 -14.85 -43.45 -14.7 -43.95 -14.2 -43.7 -13.7 -43.5 -13.9 -43.1" fill="#333333" fill-rule="evenodd" stroke="none"/>
    <path d="M-17.8 -41.7 Q-17.95 -41.35 -18.35 -41.45 -18.8 -41.65 -18.6 -42.05 -18.5 -42.45 -18.05 -42.3 -17.7 -42.15 -17.8 -41.7" fill="#333333" fill-rule="evenodd" stroke="none"/>
    <path d="M-21.85 -40.55 Q-21.45 -40.4 -21.6 -40.05 -21.7 -39.75 -22.05 -39.85 -22.4 -40.0 -22.25 -40.35 -22.15 -40.65 -21.85 -40.55" fill="#333333" fill-rule="evenodd" stroke="none"/>
    <path d="M-25.15 -38.05 Q-25.25 -37.75 -25.55 -37.9 -25.9 -37.95 -25.8 -38.25 -25.65 -38.55 -25.35 -38.45 -25.05 -38.35 -25.15 -38.05" fill="#333333" fill-rule="evenodd" stroke="none"/>
    <path d="M-28.5 -35.7 Q-28.55 -35.4 -28.9 -35.5 -29.15 -35.6 -29.05 -35.9 L-28.7 -36.1 Q-28.4 -35.95 -28.5 -35.7" fill="#333333" fill-rule="evenodd" stroke="none"/>
    <path d="M-46.05 -0.35 L-46.3 -0.2 Q-46.7 -0.35 -46.3 -0.5 -45.85 -0.7 -46.05 -0.35" fill="#333333" fill-rule="evenodd" stroke="none"/>
    <path d="M-45.2 7.85 Q-45.3 8.1 -45.55 7.95 -45.8 7.9 -45.7 7.65 L-45.35 7.55 Q-45.1 7.6 -45.2 7.85" fill="#333333" fill-rule="evenodd" stroke="none"/>
    <path d="M-44.25 11.85 Q-44.35 12.2 -44.65 12.05 -45.0 11.95 -44.85 11.65 -44.75 11.3 -44.4 11.45 -44.1 11.55 -44.25 11.85" fill="#333333" fill-rule="evenodd" stroke="none"/>
    <path d="M-42.95 15.8 Q-43.05 16.1 -43.45 15.95 L-43.6 15.45 Q-43.5 15.15 -43.2 15.3 -42.8 15.4 -42.95 15.8" fill="#333333" fill-rule="evenodd" stroke="none"/>
    <path d="M-41.25 19.5 Q-41.4 19.95 -41.8 19.75 -42.2 19.6 -42.05 19.2 -41.95 18.8 -41.5 19.0 -41.15 19.1 -41.25 19.5" fill="#333333" fill-rule="evenodd" stroke="none"/>
    <path d="M-39.2 23.15 Q-39.4 23.6 -39.85 23.4 -40.35 23.2 -40.15 22.8 -40.0 22.35 -39.55 22.55 -39.1 22.7 -39.2 23.15" fill="#333333" fill-rule="evenodd" stroke="none"/>
    <path d="M-36.95 26.55 Q-37.1 27.05 -37.6 26.85 -38.15 26.6 -38.0 26.1 -37.75 25.65 -37.25 25.9 -36.7 26.05 -36.95 26.55" fill="#333333" fill-rule="evenodd" stroke="none"/>
    <path d="M-34.25 29.7 Q-34.45 30.35 -35.05 30.1 -35.7 29.9 -35.45 29.3 -35.25 28.75 -34.65 28.95 -34.0 29.15 -34.25 29.7" fill="#333333" fill-rule="evenodd" stroke="none"/>
    <path d="M-31.3 32.7 Q-31.55 33.35 -32.25 33.1 -32.9 32.9 -32.65 32.2 -32.4 31.6 -31.75 31.8 -31.05 32.05 -31.3 32.7" fill="#333333" fill-rule="evenodd" stroke="none"/>
    <path d="M-28.15 35.35 Q-28.4 36.1 -29.15 35.85 -29.85 35.55 -29.65 34.8 -29.4 34.1 -28.65 34.35 -27.85 34.65 -28.15 35.35" fill="#333333" fill-rule="evenodd" stroke="none"/>
    <path d="M-24.75 37.75 Q-25.05 38.6 -25.85 38.25 -26.65 37.95 -26.4 37.15 -26.1 36.35 -25.3 36.65 -24.45 36.95 -24.75 37.75" fill="#333333" fill-rule="evenodd" stroke="none"/>
    <path d="M-21.7 38.65 Q-20.85 39.0 -21.15 39.9 -21.45 40.75 -22.4 40.35 -23.25 40.05 -22.95 39.2 -22.65 38.35 -21.7 38.65" fill="#333333" fill-rule="evenodd" stroke="none"/>
    <path d="M-17.35 41.6 Q-17.75 42.55 -18.65 42.15 -19.65 41.8 -19.3 40.85 -19.0 39.95 -18.0 40.3 -17.0 40.7 -17.35 41.6" fill="#333333" fill-rule="evenodd" stroke="none"/>
    <path d="M-13.45 43.0 Q-13.85 44.05 -14.9 43.65 -15.95 43.2 -15.5 42.25 -15.15 41.2 -14.1 41.6 -13.05 42.0 -13.45 43.0" fill="#333333" fill-rule="evenodd" stroke="none"/>
    <path d="M-9.45 44.05 Q-9.8 45.1 -10.95 44.7 -12.05 44.3 -11.7 43.2 -11.25 42.15 -10.15 42.55 -9.0 43.0 -9.45 44.05" fill="#333333" fill-rule="evenodd" stroke="none"/>
    <path d="M-5.35 44.7 Q-5.8 45.9 -6.95 45.4 -8.15 44.95 -7.7 43.85 -7.3 42.65 -6.05 43.15 -4.85 43.6 -5.35 44.7" fill="#333333" fill-rule="evenodd" stroke="none"/>
    <path d="M-1.2 45.0 Q-1.65 46.25 -2.9 45.75 -4.1 45.35 -3.7 44.1 -3.2 42.9 -1.95 43.35 -0.7 43.85 -1.2 45.0" fill="#333333" fill-rule="evenodd" stroke="none"/>
    <path d="M2.95 44.95 Q2.5 46.2 1.2 45.7 -0.1 45.2 0.35 43.95 0.85 42.75 2.15 43.2 3.45 43.7 2.95 44.95" fill="#333333" fill-rule="evenodd" stroke="none"/>
    <path d="M7.1 44.5 Q6.6 45.9 5.2 45.35 3.85 44.85 4.35 43.55 4.8 42.15 6.2 42.75 7.6 43.2 7.1 44.5" fill="#333333" fill-rule="evenodd" stroke="none"/>
    <path d="M11.1 43.7 Q10.6 45.1 9.2 44.6 7.75 44.05 8.25 42.65 8.75 41.3 10.15 41.8 11.6 42.35 11.1 43.7" fill="#333333" fill-rule="evenodd" stroke="none"/>
    <path d="M15.05 42.55 Q14.55 43.95 13.1 43.4 11.6 42.85 12.15 41.45 12.65 40.0 14.15 40.6 15.6 41.2 15.05 42.55" fill="#333333" fill-rule="evenodd" stroke="none"/>
    <path d="M18.9 41.05 Q18.35 42.5 16.85 41.9 15.3 41.35 15.85 39.9 16.45 38.45 17.95 39.0 19.45 39.55 18.9 41.05" fill="#333333" fill-rule="evenodd" stroke="none"/>
    <path d="M22.55 39.2 Q22.0 40.7 20.45 40.15 18.9 39.5 19.45 38.0 20.0 36.55 21.55 37.1 23.1 37.65 22.55 39.2" fill="#333333" fill-rule="evenodd" stroke="none"/>
    <path d="M26.0 36.95 Q25.45 38.5 23.9 37.9 22.3 37.35 22.85 35.8 23.4 34.25 25.05 34.85 26.65 35.4 26.0 36.95" fill="#333333" fill-rule="evenodd" stroke="none"/>
    <path d="M28.25 32.3 Q29.9 32.95 29.3 34.5 28.7 36.05 27.05 35.5 25.45 34.85 26.1 33.3 26.65 31.7 28.25 32.3" fill="#333333" fill-rule="evenodd" stroke="none"/>
    <path d="M32.35 31.7 Q31.7 33.3 30.1 32.7 28.45 32.15 29.05 30.5 29.6 28.9 31.3 29.55 32.9 30.1 32.35 31.7" fill="#333333" fill-rule="evenodd" stroke="none"/>
    <path d="M35.05 28.65 Q34.45 30.25 32.75 29.65 31.1 29.05 31.7 27.4 32.35 25.9 34.0 26.5 35.7 27.1 35.05 28.65" fill="#333333" fill-rule="evenodd" stroke="none"/>
    <path d="M37.45 25.45 Q36.85 27.05 35.2 26.45 33.5 25.75 34.15 24.15 34.75 22.55 36.4 23.15 38.15 23.85 37.45 25.45" fill="#333333" fill-rule="evenodd" stroke="none"/>
    <path d="M39.65 21.9 Q39.0 23.6 37.35 22.95 35.6 22.3 36.25 20.65 36.9 19.05 38.6 19.7 40.25 20.3 39.65 21.9" fill="#333333" fill-rule="evenodd" stroke="none"/>
    <path d="M41.45 18.25 Q40.8 19.85 39.15 19.25 37.45 18.65 38.1 17.0 38.7 15.4 40.4 16.0 42.05 16.65 41.45 18.25" fill="#333333" fill-rule="evenodd" stroke="none"/>
    <path d="M42.9 14.5 Q42.3 16.1 40.55 15.45 38.9 14.8 39.5 13.15 40.15 11.55 41.8 12.2 43.55 12.8 42.9 14.5" fill="#333333" fill-rule="evenodd" stroke="none"/>
    <path d="M44.05 10.5 Q43.4 12.1 41.7 11.5 40.0 10.9 40.65 9.25 41.25 7.6 42.9 8.2 44.65 8.9 44.05 10.5" fill="#333333" fill-rule="evenodd" stroke="none"/>
    <path d="M44.7 6.5 Q44.1 8.1 42.4 7.45 40.75 6.85 41.35 5.25 42.0 3.65 43.65 4.25 45.4 4.85 44.7 6.5" fill="#333333" fill-rule="evenodd" stroke="none"/>
    <path d="M45.1 2.4 Q44.45 4.0 42.8 3.4 41.1 2.75 41.75 1.15 42.35 -0.4 44.05 0.25 45.7 0.85 45.1 2.4" fill="#333333" fill-rule="evenodd" stroke="none"/>
    <path d="M45.1 -1.7 Q44.45 -0.1 42.85 -0.7 41.2 -1.3 41.8 -2.95 42.4 -4.5 44.05 -3.85 45.7 -3.25 45.1 -1.7" fill="#333333" fill-rule="evenodd" stroke="none"/>
    <path d="M44.7 -5.7 Q44.1 -4.15 42.5 -4.8 40.9 -5.4 41.45 -6.95 42.05 -8.5 43.65 -7.9 45.25 -7.35 44.7 -5.7" fill="#333333" fill-rule="evenodd" stroke="none"/>
    <path d="M43.9 -9.8 Q43.35 -8.25 41.8 -8.8 40.2 -9.45 40.75 -11.0 41.3 -12.55 42.9 -11.9 44.55 -11.35 43.9 -9.8" fill="#333333" fill-rule="evenodd" stroke="none"/>
    <path d="M42.8 -13.7 Q42.25 -12.25 40.7 -12.8 39.15 -13.4 39.7 -14.9 40.25 -16.45 41.8 -15.8 43.35 -15.25 42.8 -13.7" fill="#333333" fill-rule="evenodd" stroke="none"/>
    <path d="M41.3 -17.55 Q40.75 -16.05 39.25 -16.65 37.7 -17.25 38.3 -18.65 38.85 -20.15 40.4 -19.6 41.85 -19.05 41.3 -17.55" fill="#333333" fill-rule="evenodd" stroke="none"/>
    <path d="M39.45 -21.25 Q38.95 -19.85 37.45 -20.4 36.05 -20.9 36.55 -22.35 37.05 -23.75 38.5 -23.2 40.0 -22.7 39.45 -21.25" fill="#333333" fill-rule="evenodd" stroke="none"/>
    <path d="M37.35 -24.75 Q36.8 -23.4 35.35 -23.95 33.95 -24.5 34.45 -25.85 35.0 -27.2 36.4 -26.65 37.85 -26.1 37.35 -24.75" fill="#333333" fill-rule="evenodd" stroke="none"/>
    <path d="M34.85 -28.1 Q34.4 -26.75 32.95 -27.3 31.6 -27.8 32.1 -29.1 32.6 -30.45 33.95 -29.9 35.35 -29.4 34.85 -28.1" fill="#333333" fill-rule="evenodd" stroke="none"/>
    <path d="M32.1 -31.1 Q31.65 -29.9 30.3 -30.4 29.0 -30.9 29.45 -32.1 29.9 -33.4 31.2 -32.9 32.6 -32.45 32.1 -31.1" fill="#333333" fill-rule="evenodd" stroke="none"/>
    <path d="M27.3 -33.25 Q26.1 -33.65 26.5 -34.9 27.0 -36.1 28.25 -35.65 29.5 -35.2 29.05 -33.95 28.6 -32.75 27.3 -33.25" fill="#333333" fill-rule="evenodd" stroke="none"/>
    <path d="M25.75 -36.5 Q25.35 -35.35 24.1 -35.75 22.95 -36.2 23.35 -37.4 23.8 -38.55 24.95 -38.15 26.2 -37.7 25.75 -36.5" fill="#333333" fill-rule="evenodd" stroke="none"/>
    <path d="M22.25 -38.75 Q21.8 -37.65 20.7 -38.05 19.6 -38.5 20.0 -39.55 20.45 -40.65 21.55 -40.25 22.7 -39.8 22.25 -38.75" fill="#333333" fill-rule="evenodd" stroke="none"/>
    <path d="M18.55 -40.65 Q18.15 -39.6 17.1 -40.0 16.05 -40.35 16.45 -41.4 16.85 -42.4 17.85 -42.05 18.9 -41.65 18.55 -40.65" fill="#333333" fill-rule="evenodd" stroke="none"/>
    <path d="M14.7 -42.2 Q14.4 -41.2 13.4 -41.6 12.4 -41.95 12.7 -42.95 13.1 -43.95 14.05 -43.6 15.05 -43.2 14.7 -42.2" fill="#333333" fill-rule="evenodd" stroke="none"/>
    <path d="M10.75 -43.45 Q10.4 -42.6 9.5 -42.9 8.65 -43.25 8.95 -44.15 9.25 -45.0 10.15 -44.7 11.05 -44.3 10.75 -43.45" fill="#333333" fill-rule="evenodd" stroke="none"/>
    <path d="M6.65 -44.3 Q6.4 -43.5 5.55 -43.85 4.75 -44.15 5.0 -44.95 5.3 -45.75 6.15 -45.45 6.95 -45.15 6.65 -44.3" fill="#333333" fill-rule="evenodd" stroke="none"/>
    <path d="M2.55 -44.8 Q2.3 -44.05 1.5 -44.3 0.75 -44.65 1.0 -45.35 1.3 -46.1 2.05 -45.8 2.85 -45.55 2.55 -44.8" fill="#333333" fill-rule="evenodd" stroke="none"/>
    <path d="M-1.65 -44.95 Q-1.9 -44.25 -2.6 -44.5 -3.25 -44.75 -3.0 -45.45 -2.7 -46.05 -2.0 -45.8 -1.35 -45.55 -1.65 -44.95" fill="#333333" fill-rule="evenodd" stroke="none"/>
    <path d="M-6.3 -48.7 Q-6.55 -48.15 -7.1 -48.35 -7.65 -48.6 -7.45 -49.15 -7.2 -49.7 -6.65 -49.45 -6.1 -49.3 -6.3 -48.7" fill="#333333" fill-rule="evenodd" stroke="none"/>
    <path d="M-10.45 -48.15 Q-10.6 -47.65 -11.1 -47.85 -11.6 -48.05 -11.45 -48.55 -11.25 -49.05 -10.75 -48.85 -10.25 -48.65 -10.45 -48.15" fill="#333333" fill-rule="evenodd" stroke="none"/>
    <path d="M-14.45 -47.15 Q-14.65 -46.75 -15.1 -46.9 -15.5 -47.1 -15.4 -47.55 -15.2 -48.0 -14.75 -47.8 -14.35 -47.6 -14.45 -47.15" fill="#333333" fill-rule="evenodd" stroke="none"/>
    <path d="M-18.4 -45.95 Q-18.55 -45.55 -18.9 -45.7 -19.3 -45.8 -19.15 -46.2 -19.05 -46.55 -18.65 -46.45 -18.3 -46.3 -18.4 -45.95" fill="#333333" fill-rule="evenodd" stroke="none"/>
    <path d="M-22.25 -44.3 Q-22.3 -44.0 -22.7 -44.15 -23.0 -44.25 -22.9 -44.55 L-22.45 -44.75 Q-22.15 -44.65 -22.25 -44.3" fill="#333333" fill-rule="evenodd" stroke="none"/>
    <path d="M-25.9 -42.4 Q-25.95 -42.15 -26.3 -42.2 -26.6 -42.35 -26.45 -42.6 -26.35 -42.85 -26.1 -42.75 -25.8 -42.65 -25.9 -42.4" fill="#333333" fill-rule="evenodd" stroke="none"/>
    <path d="M-29.4 -40.15 Q-29.55 -39.65 -29.8 -40.15 -30.0 -40.65 -29.5 -40.5 L-29.4 -40.15" fill="#333333" fill-rule="evenodd" stroke="none"/>
    <path d="M-32.7 -37.7 L-32.9 -37.65 Q-33.3 -37.75 -32.9 -37.95 -32.6 -38.05 -32.7 -37.7" fill="#333333" fill-rule="evenodd" stroke="none"/>
    <path d="M-48.95 10.3 L-49.2 10.5 Q-49.6 10.3 -49.2 10.15 -48.75 9.9 -48.95 10.3" fill="#333333" fill-rule="evenodd" stroke="none"/>
    <path d="M-47.8 14.35 Q-47.9 14.6 -48.15 14.5 L-48.3 14.15 Q-48.2 13.9 -47.95 14.0 -47.7 14.1 -47.8 14.35" fill="#333333" fill-rule="evenodd" stroke="none"/>
    <path d="M-46.4 18.2 L-46.75 18.4 Q-47.15 18.3 -47.0 18.0 -46.9 17.7 -46.6 17.8 -46.3 17.9 -46.4 18.2" fill="#333333" fill-rule="evenodd" stroke="none"/>
    <path d="M-44.6 21.95 Q-44.75 22.3 -45.1 22.15 L-45.35 21.7 Q-45.2 21.35 -44.85 21.5 -44.5 21.6 -44.6 21.95" fill="#333333" fill-rule="evenodd" stroke="none"/>
    <path d="M-42.55 25.55 Q-42.7 26.0 -43.1 25.8 -43.55 25.7 -43.45 25.25 -43.25 24.8 -42.8 25.0 -42.4 25.15 -42.55 25.55" fill="#333333" fill-rule="evenodd" stroke="none"/>
    <path d="M-40.2 28.95 Q-40.35 29.45 -40.9 29.3 -41.4 29.1 -41.2 28.6 -41.0 28.15 -40.5 28.35 -40.0 28.55 -40.2 28.95" fill="#333333" fill-rule="evenodd" stroke="none"/>
    <path d="M-37.55 32.2 Q-37.75 32.75 -38.3 32.55 -38.9 32.3 -38.65 31.75 -38.5 31.25 -37.9 31.45 -37.35 31.7 -37.55 32.2" fill="#333333" fill-rule="evenodd" stroke="none"/>
    <path d="M-34.65 35.25 Q-34.9 35.85 -35.5 35.6 -36.2 35.35 -35.95 34.75 -35.7 34.1 -35.05 34.35 -34.4 34.6 -34.65 35.25" fill="#333333" fill-rule="evenodd" stroke="none"/>
    <path d="M-31.55 37.95 Q-31.8 38.65 -32.45 38.35 -33.15 38.1 -32.9 37.4 -32.65 36.7 -32.0 37.05 -31.3 37.3 -31.55 37.95" fill="#333333" fill-rule="evenodd" stroke="none"/>
    <path d="M-28.15 40.45 Q-28.45 41.2 -29.2 40.85 -29.95 40.6 -29.7 39.8 -29.4 39.05 -28.65 39.4 -27.85 39.7 -28.15 40.45" fill="#333333" fill-rule="evenodd" stroke="none"/>
    <path d="M-24.6 42.6 Q-24.85 43.45 -25.75 43.15 -26.6 42.8 -26.3 42.0 -25.95 41.1 -25.15 41.5 -24.3 41.8 -24.6 42.6" fill="#333333" fill-rule="evenodd" stroke="none"/>
    <path d="M-21.45 43.3 Q-20.55 43.65 -20.9 44.5 -21.2 45.4 -22.15 45.1 -23.05 44.7 -22.7 43.85 -22.4 42.9 -21.45 43.3" fill="#333333" fill-rule="evenodd" stroke="none"/>
    <path d="M-17.0 46.05 Q-17.35 47.05 -18.35 46.7 -19.35 46.3 -19.05 45.35 -18.65 44.35 -17.6 44.75 -16.65 45.15 -17.0 46.05" fill="#333333" fill-rule="evenodd" stroke="none"/>
    <path d="M-13.05 47.35 Q-13.4 48.45 -14.45 48.0 -15.55 47.6 -15.2 46.55 -14.75 45.5 -13.7 45.9 -12.65 46.3 -13.05 47.35" fill="#333333" fill-rule="evenodd" stroke="none"/>
    <path d="M-11.25 47.45 Q-10.8 46.3 -9.7 46.75 -8.5 47.2 -8.95 48.3 -9.4 49.35 -10.5 49.0 -11.7 48.55 -11.25 47.45" fill="#333333" fill-rule="evenodd" stroke="none"/>
    <path d="M-7.3 48.0 Q-6.85 46.8 -5.6 47.25 -4.35 47.7 -4.85 48.85 -5.3 50.05 -6.5 49.6 -7.7 49.15 -7.3 48.0" fill="#333333" fill-rule="evenodd" stroke="none"/>
    <path d="M-3.25 48.2 Q-2.8 46.95 -1.45 47.45 -0.15 47.85 -0.65 49.1 -1.1 50.35 -2.4 49.9 -3.7 49.4 -3.25 48.2" fill="#333333" fill-rule="evenodd" stroke="none"/>
    <path d="M0.85 48.05 Q1.3 46.75 2.6 47.25 4.0 47.75 3.5 49.05 3.0 50.35 1.65 49.85 0.35 49.3 0.85 48.05" fill="#333333" fill-rule="evenodd" stroke="none"/>
    <path d="M4.8 47.55 Q5.3 46.2 6.7 46.75 8.05 47.25 7.6 48.6 7.15 50.0 5.7 49.4 4.35 48.9 4.8 47.55" fill="#333333" fill-rule="evenodd" stroke="none"/>
    <path d="M11.65 47.8 Q11.15 49.25 9.7 48.7 8.25 48.2 8.75 46.75 9.3 45.35 10.75 45.9 12.15 46.4 11.65 47.8" fill="#333333" fill-rule="evenodd" stroke="none"/>
    <path d="M15.7 46.7 Q15.15 48.1 13.65 47.55 12.15 47.0 12.65 45.6 13.2 44.15 14.7 44.7 16.2 45.25 15.7 46.7" fill="#333333" fill-rule="evenodd" stroke="none"/>
    <path d="M19.5 45.25 Q18.95 46.75 17.4 46.2 15.85 45.6 16.45 44.1 17.0 42.6 18.55 43.15 20.1 43.7 19.5 45.25" fill="#333333" fill-rule="evenodd" stroke="none"/>
    <path d="M23.25 43.45 Q22.7 45.0 21.15 44.4 19.5 43.85 20.1 42.3 20.7 40.75 22.25 41.35 23.85 41.9 23.25 43.45" fill="#333333" fill-rule="evenodd" stroke="none"/>
    <path d="M26.85 41.45 Q26.2 43.0 24.6 42.35 23.0 41.75 23.6 40.2 24.15 38.6 25.75 39.25 27.45 39.9 26.85 41.45" fill="#333333" fill-rule="evenodd" stroke="none"/>
    <path d="M29.1 36.85 Q30.8 37.45 30.15 39.05 29.6 40.7 28.0 40.05 26.35 39.45 26.9 37.85 27.5 36.2 29.1 36.85" fill="#333333" fill-rule="evenodd" stroke="none"/>
    <path d="M33.4 36.4 Q32.75 38.0 31.1 37.4 29.35 36.8 30.0 35.15 30.6 33.55 32.25 34.2 34.0 34.8 33.4 36.4" fill="#333333" fill-rule="evenodd" stroke="none"/>
    <path d="M36.3 33.55 Q35.7 35.15 34.0 34.55 32.25 33.95 32.9 32.25 33.5 30.65 35.2 31.25 36.9 31.9 36.3 33.55" fill="#333333" fill-rule="evenodd" stroke="none"/>
    <path d="M38.95 30.4 Q38.35 32.05 36.6 31.45 34.95 30.75 35.55 29.15 36.15 27.5 37.85 28.1 39.6 28.8 38.95 30.4" fill="#333333" fill-rule="evenodd" stroke="none"/>
    <path d="M41.35 27.1 Q40.75 28.8 39.0 28.15 37.3 27.5 37.9 25.8 38.5 24.1 40.25 24.75 42.0 25.4 41.35 27.1" fill="#333333" fill-rule="evenodd" stroke="none"/>
    <path d="M43.4 23.6 Q42.8 25.25 41.05 24.65 39.4 23.95 40.0 22.3 40.65 20.6 42.35 21.3 44.1 21.9 43.4 23.6" fill="#333333" fill-rule="evenodd" stroke="none"/>
    <path d="M45.25 19.85 Q44.65 21.55 42.85 20.9 41.1 20.25 41.75 18.55 42.4 16.9 44.15 17.55 45.9 18.2 45.25 19.85" fill="#333333" fill-rule="evenodd" stroke="none"/>
    <path d="M46.7 16.0 Q46.1 17.75 44.35 17.1 42.6 16.45 43.25 14.7 43.9 13.05 45.65 13.75 47.4 14.35 46.7 16.0" fill="#333333" fill-rule="evenodd" stroke="none"/>
    <path d="M47.85 12.1 Q47.25 13.8 45.5 13.15 43.8 12.5 44.4 10.8 45.0 9.1 46.75 9.75 48.55 10.45 47.85 12.1" fill="#333333" fill-rule="evenodd" stroke="none"/>
    <path d="M48.7 8.1 Q48.05 9.75 46.3 9.15 44.6 8.45 45.2 6.8 45.9 5.1 47.6 5.8 49.35 6.4 48.7 8.1" fill="#333333" fill-rule="evenodd" stroke="none"/>
    <path d="M49.15 4.0 Q48.55 5.7 46.8 5.05 45.1 4.4 45.7 2.7 46.3 1.1 48.05 1.7 49.8 2.35 49.15 4.0" fill="#333333" fill-rule="evenodd" stroke="none"/>
    <path d="M49.25 -0.1 Q48.6 1.55 46.95 0.9 45.25 0.3 45.9 -1.4 46.5 -3.0 48.2 -2.4 49.85 -1.75 49.25 -0.1" fill="#333333" fill-rule="evenodd" stroke="none"/>
    <path d="M49.05 -4.15 Q48.45 -2.55 46.75 -3.2 45.1 -3.85 45.7 -5.45 46.3 -7.1 48.0 -6.45 49.65 -5.8 49.05 -4.15" fill="#333333" fill-rule="evenodd" stroke="none"/>
    <path d="M48.5 -8.25 Q47.85 -6.65 46.2 -7.25 44.55 -7.9 45.15 -9.5 45.75 -11.1 47.4 -10.5 49.05 -9.85 48.5 -8.25" fill="#333333" fill-rule="evenodd" stroke="none"/>
    <path d="M44.3 -13.55 Q44.9 -15.1 46.5 -14.45 48.1 -13.85 47.55 -12.3 46.95 -10.75 45.35 -11.3 43.7 -11.9 44.3 -13.55" fill="#333333" fill-rule="evenodd" stroke="none"/>
    <path d="M46.3 -16.2 Q45.7 -14.65 44.15 -15.25 42.55 -15.9 43.1 -17.45 43.65 -19.0 45.25 -18.35 46.9 -17.75 46.3 -16.2" fill="#333333" fill-rule="evenodd" stroke="none"/>
    <path d="M44.7 -20.05 Q44.15 -18.55 42.6 -19.1 41.05 -19.65 41.6 -21.2 42.2 -22.7 43.7 -22.1 45.25 -21.5 44.7 -20.05" fill="#333333" fill-rule="evenodd" stroke="none"/>
    <path d="M42.8 -23.7 Q42.3 -22.25 40.75 -22.8 39.25 -23.4 39.8 -24.8 40.3 -26.3 41.85 -25.75 43.35 -25.2 42.8 -23.7" fill="#333333" fill-rule="evenodd" stroke="none"/>
    <path d="M40.65 -27.2 Q40.0 -25.6 38.4 -26.5 36.85 -27.35 37.95 -28.7 38.75 -29.7 39.9 -29.1 41.05 -28.45 40.65 -27.2" fill="#333333" fill-rule="evenodd" stroke="none"/>
    <path d="M38.15 -30.5 Q37.65 -29.15 36.25 -29.7 34.8 -30.2 35.3 -31.55 35.8 -32.9 37.2 -32.45 38.65 -31.85 38.15 -30.5" fill="#333333" fill-rule="evenodd" stroke="none"/>
    <path d="M35.35 -33.6 Q34.85 -32.3 33.5 -32.8 32.2 -33.35 32.65 -34.65 33.15 -35.95 34.5 -35.45 35.85 -34.95 35.35 -33.6" fill="#333333" fill-rule="evenodd" stroke="none"/>
    <path d="M32.35 -36.5 Q31.9 -35.3 30.6 -35.7 29.35 -36.2 29.8 -37.45 30.3 -38.7 31.55 -38.25 32.85 -37.75 32.35 -36.5" fill="#333333" fill-rule="evenodd" stroke="none"/>
    <path d="M27.45 -38.35 Q26.2 -38.8 26.65 -40.05 27.15 -41.2 28.3 -40.75 29.55 -40.3 29.1 -39.1 28.7 -37.95 27.45 -38.35" fill="#333333" fill-rule="evenodd" stroke="none"/>
    <path d="M25.65 -41.4 Q25.2 -40.1 23.9 -40.85 22.7 -41.6 23.55 -42.65 24.25 -43.45 25.1 -42.9 26.0 -42.4 25.65 -41.4" fill="#333333" fill-rule="evenodd" stroke="none"/>
    <path d="M22.0 -43.5 Q21.65 -42.45 20.55 -42.85 19.45 -43.25 19.85 -44.3 20.25 -45.3 21.3 -44.95 22.45 -44.5 22.0 -43.5" fill="#333333" fill-rule="evenodd" stroke="none"/>
    <path d="M18.2 -45.25 Q17.85 -44.25 16.85 -44.65 15.8 -45.0 16.2 -46.0 16.55 -47.0 17.6 -46.6 18.6 -46.25 18.2 -45.25" fill="#333333" fill-rule="evenodd" stroke="none"/>
    <path d="M14.3 -46.7 Q14.0 -45.75 13.0 -46.05 12.1 -46.45 12.4 -47.35 12.75 -48.3 13.7 -47.9 14.65 -47.55 14.3 -46.7" fill="#333333" fill-rule="evenodd" stroke="none"/>
    <path d="M10.3 -47.75 Q10.0 -46.85 9.05 -47.25 8.2 -47.55 8.5 -48.4 8.8 -49.3 9.75 -48.9 10.6 -48.6 10.3 -47.75" fill="#333333" fill-rule="evenodd" stroke="none"/>
    <path d="M6.15 -48.55 Q5.9 -47.75 5.1 -48.05 4.3 -48.35 4.6 -49.1 4.9 -49.9 5.65 -49.6 6.45 -49.3 6.15 -48.55" fill="#333333" fill-rule="evenodd" stroke="none"/>
    <path d="M2.0 -48.9 Q1.75 -48.2 1.0 -48.45 0.35 -48.8 0.6 -49.45 0.85 -50.15 1.55 -49.9 2.25 -49.65 2.0 -48.9" fill="#333333" fill-rule="evenodd" stroke="none"/>
    <path d="M-2.15 -49.05 Q-2.4 -48.35 -3.0 -48.6 -3.7 -48.85 -3.45 -49.55 -3.2 -50.15 -2.6 -49.9 -1.9 -49.65 -2.15 -49.05" fill="#333333" fill-rule="evenodd" stroke="none"/>
  </g>
</svg>
