<?xml version="1.0" encoding="UTF-8" standalone="no"?>
<svg xmlns:xlink="http://www.w3.org/1999/xlink" height="56.75px" width="100.0px" xmlns="http://www.w3.org/2000/svg">
  <g transform="matrix(1.0, 0.0, 0.0, 1.0, 50.0, 28.4)">
    <path d="M-32.2 23.5 L-32.5 23.65 -32.65 23.35 Q-32.4 23.2 -32.35 23.35 L-32.2 23.5" fill="#000000" fill-rule="evenodd" stroke="none"/>
    <path d="M13.65 26.5 L15.5 26.4 17.85 26.6 Q17.25 28.15 15.85 27.95 14.6 27.8 13.65 26.5" fill="#000000" fill-rule="evenodd" stroke="none"/>
    <path d="M-14.6 19.3 Q-13.8 19.2 -13.25 19.75 L-15.6 20.1 -15.25 19.55 -14.6 19.3" fill="#000000" fill-rule="evenodd" stroke="none"/>
    <path d="M-7.65 13.8 Q-7.05 13.6 -6.95 14.25 -6.85 14.95 -7.4 14.75 L-7.75 14.35 -7.65 13.8" fill="#000000" fill-rule="evenodd" stroke="none"/>
    <path d="M6.15 19.3 L5.1 19.25 6.15 19.3" fill="#000000" fill-rule="evenodd" stroke="none"/>
    <path d="M-25.65 12.5 Q-25.05 12.55 -24.75 12.0 L-24.4 11.0 Q-24.1 10.2 -22.65 10.75 -21.5 11.2 -20.75 11.8 -19.75 12.75 -20.05 13.55 -20.35 14.35 -21.7 14.25 L-26.4 13.9 -25.65 12.5" fill="#000000" fill-rule="evenodd" stroke="none"/>
    <path d="M-39.7 15.4 L-40.35 15.4 -39.45 14.5 Q-39.3 15.15 -38.7 15.5 L-38.45 15.0 Q-37.95 15.7 -37.95 16.25 -38.0 16.95 -39.0 17.05 L-40.0 16.9 Q-40.55 16.6 -40.55 16.1 -40.6 15.55 -40.05 15.55 L-39.1 15.7 -39.7 15.4" fill="#000000" fill-rule="evenodd" stroke="none"/>
    <path d="M-8.3 18.15 L-7.8 18.2 Q-7.85 18.55 -8.05 18.45 L-8.3 18.15" fill="#000000" fill-rule="evenodd" stroke="none"/>
    <path d="M-31.9 0.1 Q-31.3 0.35 -31.05 1.1 L-33.2 0.9 -32.8 0.1 Q-32.45 -0.15 -31.9 0.1" fill="#000000" fill-rule="evenodd" stroke="none"/>
    <path d="M-9.85 2.5 Q-10.0 3.05 -10.65 2.7 -10.35 2.25 -9.85 2.5" fill="#000000" fill-rule="evenodd" stroke="none"/>
    <path d="M-8.9 -3.25 L-9.85 -3.3 -10.6 -2.8 Q-11.0 -3.6 -10.8 -4.55 -10.55 -5.55 -9.6 -5.75 L-9.15 -4.8 -8.35 -4.05 Q-7.85 -3.4 -8.55 -2.85 L-9.7 -1.75 -9.45 -2.45 -8.9 -3.25" fill="#000000" fill-rule="evenodd" stroke="none"/>
    <path d="M32.6 14.55 Q32.35 15.3 32.95 15.15 L31.7 15.1 Q31.4 13.85 32.6 14.55" fill="#000000" fill-rule="evenodd" stroke="none"/>
    <path d="M13.65 -23.3 Q12.75 -23.8 12.85 -25.0 L15.4 -24.9 Q17.25 -24.7 16.6 -23.85 16.05 -23.05 15.2 -22.75 14.2 -22.45 13.65 -23.3" fill="#000000" fill-rule="evenodd" stroke="none"/>
    <path d="M-43.7 -27.95 Q-43.05 -27.4 -43.2 -26.6 L-44.2 -26.6 Q-44.85 -26.65 -44.75 -27.2 L-44.4 -27.9 -43.7 -27.95" fill="#000000" fill-rule="evenodd" stroke="none"/>
    <path d="M0.15 -7.05 Q-0.45 -8.3 0.9 -8.55 2.25 -8.8 2.25 -7.85 L1.55 -6.8 Q1.0 -6.1 1.65 -5.55 L-0.8 -5.75 Q-1.15 -6.2 -0.75 -6.7 -0.35 -7.1 0.15 -7.05" fill="#000000" fill-rule="evenodd" stroke="none"/>
    <path d="M-25.55 -28.05 L-25.05 -28.0 -25.1 -27.5 -25.55 -28.05" fill="#000000" fill-rule="evenodd" stroke="none"/>
    <path d="M-26.5 -26.8 Q-26.0 -26.4 -26.15 -25.25 L-27.9 -25.4 Q-27.8 -27.2 -26.5 -26.8" fill="#000000" fill-rule="evenodd" stroke="none"/>
    <path d="M15.4 -17.8 Q15.2 -18.35 15.4 -18.75 L16.0 -18.8 Q16.3 -18.5 16.0 -18.0 15.75 -17.6 15.4 -17.8" fill="#000000" fill-rule="evenodd" stroke="none"/>
    <path d="M36.75 -27.5 Q36.55 -28.1 37.1 -28.4 L37.45 -26.9 Q36.75 -26.8 36.75 -27.5" fill="#000000" fill-rule="evenodd" stroke="none"/>
    <path d="M-2.9 -20.5 L-1.0 -20.4 Q0.05 -20.3 0.65 -19.75 L1.7 -18.6 Q2.2 -17.85 1.8 -17.3 L-6.1 -17.9 Q-5.85 -18.75 -4.45 -19.25 -3.05 -19.75 -2.9 -20.5" fill="#000000" fill-rule="evenodd" stroke="none"/>
    <path d="M33.75 -26.2 L33.15 -26.75 33.75 -26.75 33.75 -26.2" fill="#000000" fill-rule="evenodd" stroke="none"/>
    <path d="M22.6 -24.25 Q23.6 -24.15 23.8 -23.85 L23.4 -23.45 Q21.85 -22.85 22.6 -24.25" fill="#000000" fill-rule="evenodd" stroke="none"/>
    <path d="M-25.85 -14.05 Q-24.9 -13.8 -24.25 -14.65 -23.9 -15.1 -23.45 -16.3 L-21.3 -16.25 Q-20.15 -16.05 -19.95 -15.25 -19.65 -13.7 -19.95 -13.45 L-21.8 -13.35 -24.15 -13.45 Q-25.85 -13.55 -25.85 -14.05" fill="#000000" fill-rule="evenodd" stroke="none"/>
    <path d="M-30.5 -14.0 L-32.45 -14.15 Q-32.25 -14.65 -32.85 -15.45 -33.35 -16.15 -32.65 -16.6 L-31.55 -17.0 Q-30.7 -17.15 -30.6 -16.7 -30.5 -16.45 -31.3 -14.9 -31.5 -14.5 -31.2 -14.35 L-30.5 -14.0" fill="#000000" fill-rule="evenodd" stroke="none"/>
    <path d="M-15.8 -25.45 L-15.95 -24.75 Q-16.85 -24.75 -16.65 -26.15 -15.85 -26.2 -15.8 -25.45" fill="#000000" fill-rule="evenodd" stroke="none"/>
    <path d="M-48.55 -12.35 Q-48.7 -12.05 -49.15 -12.15 -49.55 -12.15 -49.7 -12.45 L-48.55 -12.35" fill="#000000" fill-rule="evenodd" stroke="none"/>
    <path d="M-28.65 -19.7 L-31.95 -19.95 Q-31.85 -21.5 -30.4 -21.25 -28.95 -21.0 -28.65 -19.7" fill="#000000" fill-rule="evenodd" stroke="none"/>
    <path d="M-41.4 -17.7 Q-41.25 -15.45 -43.8 -15.25 -45.0 -15.1 -45.4 -16.0 -45.7 -16.65 -45.55 -18.05 L-41.4 -17.7" fill="#000000" fill-rule="evenodd" stroke="none"/>
    <path d="M-26.8 -21.95 Q-26.0 -22.35 -25.25 -21.75 -24.65 -21.3 -24.45 -20.4 -24.7 -19.5 -25.4 -19.4 L-27.0 -19.55 -26.65 -20.75 Q-26.5 -21.45 -26.8 -21.95" fill="#000000" fill-rule="evenodd" stroke="none"/>
    <path d="M-24.95 -15.5 L-26.25 -15.75 Q-27.0 -16.0 -27.25 -16.6 L-25.95 -16.3 -24.95 -15.5" fill="#000000" fill-rule="evenodd" stroke="none"/>
    <path d="M20.1 -0.95 L19.85 -0.65 19.4 -1.0 20.1 -0.95" fill="#000000" fill-rule="evenodd" stroke="none"/>
    <path d="M38.45 -5.5 L38.35 -5.05 Q37.75 -5.65 38.45 -5.5" fill="#000000" fill-rule="evenodd" stroke="none"/>
    <path d="M-6.4 -12.15 L-6.1 -12.35 -5.85 -12.05 -6.4 -12.15" fill="#000000" fill-rule="evenodd" stroke="none"/>
    <path d="M40.1 -8.45 L41.15 -9.15 Q41.55 -9.25 41.75 -8.25 L40.1 -8.45" fill="#000000" fill-rule="evenodd" stroke="none"/>
    <path d="M39.2 -9.8 Q39.1 -10.15 38.25 -10.4 37.4 -10.7 37.35 -11.05 37.3 -11.8 39.0 -11.4 40.55 -11.0 39.2 -9.8" fill="#000000" fill-rule="evenodd" stroke="none"/>
    <path d="M17.95 -1.1 Q17.45 -0.85 18.35 -0.4 19.45 0.15 18.9 0.8 L17.9 1.15 Q17.1 1.3 17.15 1.7 L-13.9 -0.8 Q-13.15 -1.95 -12.55 -2.0 -12.1 -2.0 -11.15 -1.2 -11.55 -2.2 -10.65 -2.8 -9.85 -3.3 -8.9 -3.25 L-9.65 -2.15 Q-10.05 -1.5 -9.55 -1.05 L-7.65 -2.4 Q-6.5 -3.1 -5.5 -2.8 L-6.1 -2.0 -6.05 -0.85 Q-5.65 -0.7 -5.1 -1.15 L-4.35 -1.85 Q-3.85 -2.2 -3.5 -1.35 -3.1 -0.45 -2.35 -0.8 -1.95 -0.95 -1.35 -1.6 -0.65 -2.3 -1.05 -2.6 L1.65 -2.55 Q3.4 -2.4 3.75 -1.65 4.65 0.25 5.95 0.1 5.6 -0.25 5.5 -0.95 L5.35 -2.1 7.6 -1.95 7.0 -1.05 Q6.6 -0.6 7.1 -0.2 7.35 -0.75 9.05 -0.65 10.3 -0.6 9.55 -1.8 L17.95 -1.1" fill="#000000" fill-rule="evenodd" stroke="none"/>
    <path d="M12.45 -11.0 Q13.0 -10.8 12.0 -10.65 L12.45 -11.0" fill="#000000" fill-rule="evenodd" stroke="none"/>
    <path d="M31.0 -9.15 Q31.35 -9.9 32.0 -10.3 L33.55 -10.4 Q33.95 -10.25 34.0 -9.75 L34.1 -8.9 31.0 -9.15" fill="#000000" fill-rule="evenodd" stroke="none"/>
    <path d="M16.15 -5.2 Q16.6 -5.35 16.85 -5.0 L17.2 -4.35 15.85 -4.45 16.15 -5.2" fill="#000000" fill-rule="evenodd" stroke="none"/>
    <path d="M6.1 -5.2 L6.05 -5.7 Q7.1 -5.7 6.95 -5.15 L6.1 -5.2" fill="#000000" fill-rule="evenodd" stroke="none"/>
    <path d="M40.3 -5.15 Q39.8 -5.0 39.5 -5.4 40.35 -5.75 40.3 -5.15" fill="#000000" fill-rule="evenodd" stroke="none"/>
    <path d="M10.35 -13.6 L9.8 -11.65 Q9.55 -10.85 8.3 -10.95 L7.9 -12.35 7.75 -13.8 10.35 -13.6" fill="#000000" fill-rule="evenodd" stroke="none"/>
    <path d="M10.65 -10.8 Q10.25 -11.6 11.05 -12.6 11.85 -13.65 12.45 -12.8 11.95 -12.75 11.65 -11.75 11.3 -10.8 10.65 -10.8" fill="#000000" fill-rule="evenodd" stroke="none"/>
    <path d="M0.6 -11.6 L0.15 -12.1 1.05 -12.15 Q1.45 -11.5 0.6 -11.6" fill="#000000" fill-rule="evenodd" stroke="none"/>
    <path d="M12.6 -12.0 Q13.5 -11.6 13.8 -12.15 L14.45 -13.3 Q15.45 -13.2 15.4 -12.85 15.2 -12.0 15.3 -11.7 L15.8 -11.0 16.3 -10.3 14.0 -10.6 Q12.5 -11.0 12.6 -12.0" fill="#000000" fill-rule="evenodd" stroke="none"/>
    <path d="M23.8 -10.3 L23.05 -11.1 23.65 -11.15 23.8 -10.3" fill="#000000" fill-rule="evenodd" stroke="none"/>
    <path d="M12.7 -7.3 Q13.4 -6.9 12.85 -6.45 12.35 -6.05 11.85 -6.0 11.9 -5.55 12.45 -5.2 L13.25 -4.65 7.9 -5.05 Q7.8 -6.3 8.75 -7.3 L9.75 -7.75 12.7 -7.3" fill="#000000" fill-rule="evenodd" stroke="none"/>
    <path d="M26.9 -5.8 L30.35 -6.1 Q29.65 -5.25 30.05 -4.8 30.25 -4.55 31.3 -4.15 31.05 -5.2 32.15 -5.65 L34.0 -5.85 35.65 -4.95 Q36.5 -4.3 37.35 -4.6 37.6 -3.8 38.4 -3.9 L39.75 -3.8 41.2 -3.85 42.05 -2.35 17.6 -4.3 Q18.65 -4.75 17.95 -5.8 L16.75 -7.2 19.3 -7.1 Q21.05 -6.9 21.1 -6.35 21.1 -5.5 21.85 -5.3 L23.3 -5.25 26.9 -5.8" fill="#000000" fill-rule="evenodd" stroke="none"/>
    <path d="M20.45 -10.85 Q19.8 -11.0 19.7 -11.65 19.5 -12.3 19.85 -12.85 20.65 -12.8 20.7 -12.2 L20.45 -10.85" fill="#000000" fill-rule="evenodd" stroke="none"/>
    <path d="M6.35 -7.35 L7.0 -7.95 8.15 -7.85 Q8.15 -7.1 6.35 -7.35" fill="#000000" fill-rule="evenodd" stroke="none"/>
    <path d="M-35.4 -8.5 Q-35.85 -8.9 -35.2 -9.2 L-34.1 -9.05 Q-33.5 -8.3 -35.4 -8.5" fill="#000000" fill-rule="evenodd" stroke="none"/>
    <path d="M-49.6 5.8 L-46.3 6.05 Q-46.3 7.15 -47.7 6.75 -48.85 6.5 -49.6 5.8" fill="#000000" fill-rule="evenodd" stroke="none"/>
    <path d="M-49.7 14.9 Q-50.25 13.25 -49.75 12.8 -49.25 12.35 -49.05 12.65 -48.85 12.95 -49.0 13.4 L-47.95 13.6 Q-47.5 13.8 -47.7 14.5 -47.9 15.05 -48.5 15.05 L-49.7 14.9" fill="#000000" fill-rule="evenodd" stroke="none"/>
    <path d="M-30.95 -8.15 Q-30.85 -8.6 -31.1 -9.05 L-32.2 -11.1 -30.35 -10.95 Q-31.0 -9.05 -29.7 -8.2 -29.5 -8.15 -28.5 -9.05 -29.9 -10.35 -28.5 -10.6 L-26.0 -10.6 -21.15 -10.2 -19.25 -10.15 Q-18.0 -10.15 -18.1 -9.45 -17.9 -9.25 -17.15 -9.05 -16.65 -8.8 -17.3 -8.15 -18.05 -9.0 -19.75 -8.7 -19.35 -8.55 -19.2 -8.05 L-19.0 -7.2 -30.95 -8.15" fill="#000000" fill-rule="evenodd" stroke="none"/>
    <path d="M-47.6 19.8 L-47.65 20.65 -48.45 19.75 -47.6 19.8" fill="#000000" fill-rule="evenodd" stroke="none"/>
    <path d="M-41.25 2.0 Q-41.65 2.55 -43.0 2.3 L-44.6 2.5 Q-45.05 3.25 -45.1 2.05 -45.15 0.5 -45.6 0.7 -45.15 -0.05 -44.25 0.0 L-42.4 0.25 Q-40.65 0.5 -41.25 2.0" fill="#000000" fill-rule="evenodd" stroke="none"/>
    <path d="M-46.85 2.1 Q-46.1 2.0 -45.95 2.75 L-46.7 2.65 Q-46.95 2.6 -46.85 2.1" fill="#000000" fill-rule="evenodd" stroke="none"/>
    <path d="M15.7 4.8 L18.25 4.9 Q19.8 5.05 20.45 5.75 20.75 6.45 20.0 6.2 L19.05 5.8 Q18.2 5.8 17.75 6.55 17.25 7.3 17.95 7.8 L-37.05 3.45 Q-35.5 2.05 -37.3 1.5 L-40.35 1.45 Q-39.65 0.2 -36.55 0.4 L-32.1 1.0 15.7 4.8" fill="#000000" fill-rule="evenodd" stroke="none"/>
    <path d="M-40.7 -4.2 Q-40.25 -3.9 -40.15 -3.35 -40.85 -3.2 -41.4 -3.55 -41.9 -3.95 -42.05 -4.55 -41.8 -5.1 -41.4 -4.7 -40.9 -4.2 -40.7 -4.2" fill="#000000" fill-rule="evenodd" stroke="none"/>
    <path d="M-33.75 -5.2 Q-33.8 -4.85 -34.35 -4.5 -34.7 -4.85 -34.4 -5.05 L-33.75 -5.2" fill="#000000" fill-rule="evenodd" stroke="none"/>
    <path d="M30.7 27.6 L28.15 27.4 Q28.65 26.95 29.6 26.75 L30.25 26.85 30.7 27.6" fill="#000000" fill-rule="evenodd" stroke="none"/>
    <path d="M13.45 -6.3 Q13.65 -7.15 14.35 -7.3 L15.75 -7.3 Q14.6 -5.8 14.8 -4.55 L14.55 -4.55 14.6 -6.0 13.95 -6.0 Q13.55 -6.0 13.45 -6.3" fill="#000000" fill-rule="evenodd" stroke="none"/>
    <path d="M44.7 26.75 Q45.4 26.8 45.05 27.6 44.7 28.45 44.25 27.85 44.05 27.6 44.15 27.2 L44.7 26.75" fill="#000000" fill-rule="evenodd" stroke="none"/>
    <path d="M49.75 26.25 L50.0 27.45 48.25 26.7 Q48.85 25.9 49.75 26.25" fill="#000000" fill-rule="evenodd" stroke="none"/>
    <path d="M45.85 28.1 Q45.3 26.75 46.25 26.3 47.2 25.85 48.25 26.7 48.2 27.35 47.35 27.8 L45.85 28.1" fill="#000000" fill-rule="evenodd" stroke="none"/>
    <path d="M-32.65 -5.15 L-25.45 -4.55 -23.1 -4.5 Q-21.5 -4.35 -21.1 -3.8 L-20.15 -2.9 -18.9 -3.0 Q-18.8 -1.95 -17.05 -2.0 -15.3 -2.05 -15.3 -0.9 L-34.0 -2.4 -32.65 -5.15" fill="#000000" fill-rule="evenodd" stroke="none"/>
    <path d="M21.55 5.35 L22.75 5.4 Q23.6 5.15 23.75 5.55 22.75 5.55 21.9 6.85 L21.3 7.85 20.25 8.0 20.95 6.7 21.55 5.35" fill="#000000" fill-rule="evenodd" stroke="none"/>
    <path d="M17.55 11.1 L17.7 13.1 Q17.5 13.95 16.35 13.85 L-35.7 9.7 Q-35.75 8.45 -36.6 9.0 L-36.95 9.65 -37.55 9.1 -38.55 8.4 Q-39.1 8.0 -38.4 7.5 L-37.75 7.55 -37.2 7.6 Q-36.65 7.35 -36.75 6.8 L17.55 11.1" fill="#000000" fill-rule="evenodd" stroke="none"/>
    <path d="M-45.05 9.0 L-44.9 6.3 -41.15 6.45 Q-41.15 7.05 -41.8 8.0 -42.35 8.9 -42.3 9.2 L-45.05 9.0" fill="#000000" fill-rule="evenodd" stroke="none"/>
    <path d="M41.85 8.4 Q40.95 8.8 40.2 8.1 39.85 7.85 39.05 6.65 L44.0 7.05 Q43.5 7.75 41.85 8.4" fill="#000000" fill-rule="evenodd" stroke="none"/>
    <path d="M32.6 15.15 Q32.6 14.05 32.95 13.0 33.5 11.7 34.25 13.15 34.6 13.8 33.95 14.55 33.3 15.2 32.6 15.15" fill="#000000" fill-rule="evenodd" stroke="none"/>
    <path d="M33.6 6.2 L32.85 6.9 32.15 6.1 33.6 6.2" fill="#000000" fill-rule="evenodd" stroke="none"/>
    <path d="M39.25 28.25 L40.1 27.4 Q40.8 26.9 41.25 26.85 41.95 26.85 41.7 27.25 L41.2 27.8 40.35 28.35 39.25 28.25" fill="#000000" fill-rule="evenodd" stroke="none"/>
    <path d="M-10.05 -9.05 Q-9.8 -9.65 -9.35 -9.25 -8.85 -8.85 -9.0 -8.3 -9.2 -7.65 -9.75 -8.05 -10.25 -8.45 -10.05 -9.05" fill="#000000" fill-rule="evenodd" stroke="none"/>
    <path d="M25.55 6.9 L25.35 5.6 30.4 5.95 29.95 7.25 29.25 8.3 27.7 8.6 26.1 8.45 26.4 7.85 24.9 8.0 23.25 8.15 23.5 7.35 Q23.6 6.75 23.85 6.5 24.35 6.15 24.75 6.5 25.25 6.95 25.55 6.9" fill="#000000" fill-rule="evenodd" stroke="none"/>
    <path d="M36.1 1.05 Q35.9 1.1 35.85 0.7 35.75 0.3 36.35 0.35 L36.45 0.75 36.1 1.05" fill="#000000" fill-rule="evenodd" stroke="none"/>
    <path d="M4.05 -12.5 Q4.25 -12.3 4.05 -12.05 L3.4 -12.3 4.05 -12.5" fill="#000000" fill-rule="evenodd" stroke="none"/>
    <path d="M25.05 0.65 L23.7 0.05 Q22.85 -0.3 22.45 -0.75 L33.4 0.1 Q32.55 0.6 32.6 1.65 32.6 2.65 33.4 2.95 L22.6 2.05 Q22.8 1.85 23.95 1.35 25.0 0.9 25.05 0.65" fill="#000000" fill-rule="evenodd" stroke="none"/>
    <path d="M39.4 2.2 L39.0 1.75 39.2 1.55 Q39.5 1.85 39.4 2.2" fill="#000000" fill-rule="evenodd" stroke="none"/>
    <path d="M40.05 0.65 L39.1 0.55 40.05 0.65" fill="#000000" fill-rule="evenodd" stroke="none"/>
    <path d="M34.35 3.05 L34.75 2.1 Q34.9 1.5 35.4 1.45 35.7 2.25 37.2 2.25 L38.0 2.25 Q38.45 2.4 38.35 2.85 38.25 3.45 36.6 3.3 L34.35 3.05" fill="#000000" fill-rule="evenodd" stroke="none"/>
    <path d="M27.15 12.8 L26.9 11.85 30.25 12.1 Q29.65 13.3 28.9 13.25 L27.15 12.8" fill="#000000" fill-rule="evenodd" stroke="none"/>
    <path d="M33.55 21.45 L33.4 21.15 Q34.4 20.8 34.7 20.8 L35.9 21.0 Q35.7 21.6 34.9 21.6 L33.55 21.45" fill="#000000" fill-rule="evenodd" stroke="none"/>
    <path d="M42.7 19.55 L42.5 19.55 42.3 19.35 Q42.8 19.2 42.7 19.55" fill="#000000" fill-rule="evenodd" stroke="none"/>
    <path d="M30.6 24.75 L31.9 25.1 32.35 26.4 Q32.45 27.05 32.7 27.25 L33.6 27.4 Q33.6 27.85 32.55 27.8 L31.15 27.6 Q31.75 26.9 31.0 26.0 30.3 25.05 30.6 24.75" fill="#000000" fill-rule="evenodd" stroke="none"/>
    <path d="M46.25 20.65 Q46.7 20.8 46.8 21.65 46.85 22.55 46.2 22.5 L45.2 22.35 44.3 22.25 43.5 21.8 Q43.1 21.55 43.5 21.05 L44.7 21.1 Q45.25 21.65 45.45 21.2 45.8 20.6 46.25 20.65" fill="#000000" fill-rule="evenodd" stroke="none"/>
    <path d="M18.55 14.0 L20.2 13.9 20.1 14.15 18.55 14.0" fill="#000000" fill-rule="evenodd" stroke="none"/>
    <path d="M-37.95 15.8 L-37.2 15.15 Q-36.85 15.4 -36.95 15.9 L-37.95 15.8" fill="#000000" fill-rule="evenodd" stroke="none"/>
    <path d="M-39.95 15.25 L-39.1 15.7 -46.1 15.15 Q-45.65 14.7 -45.6 13.85 L-45.55 12.4 -43.0 12.6 -42.3 14.25 Q-41.45 16.1 -39.95 15.25" fill="#000000" fill-rule="evenodd" stroke="none"/>
    <path d="M-40.05 13.95 L-40.85 13.9 Q-41.35 13.8 -41.05 13.4 L-40.7 12.8 -40.0 12.8 -40.05 13.95" fill="#000000" fill-rule="evenodd" stroke="none"/>
    <path d="M21.65 13.2 Q21.1 13.05 21.2 12.45 L21.25 11.4 22.55 11.5 Q21.85 12.55 23.65 11.8 L24.1 12.35 24.4 13.0 25.0 13.6 Q25.25 13.85 25.0 14.55 L21.65 14.25 22.05 13.7 Q22.05 13.4 21.65 13.2" fill="#000000" fill-rule="evenodd" stroke="none"/>
    <path d="M-38.7 15.5 Q-39.6 14.95 -39.3 14.1 L-38.95 12.9 28.15 18.25 Q28.6 18.85 28.3 20.15 28.5 21.55 27.1 21.0 L-35.5 16.0 Q-35.25 15.65 -34.05 15.15 -33.05 14.7 -33.05 14.15 -33.05 13.45 -33.95 13.4 L-35.3 13.7 -36.6 14.25 Q-37.35 14.5 -38.0 14.25 -38.3 14.4 -38.7 15.5" fill="#000000" fill-rule="evenodd" stroke="none"/>
  </g>
</svg>
