<?xml version="1.0" encoding="UTF-8" standalone="no"?>
<svg xmlns:xlink="http://www.w3.org/1999/xlink" height="44.95px" width="100.0px" xmlns="http://www.w3.org/2000/svg">
  <g transform="matrix(1.0, 0.0, 0.0, 1.0, 50.0, 22.45)">
    <path d="M19.05 -15.1 L19.75 -15.35 21.0 -14.5 20.65 -15.05 20.2 -15.5 21.6 -15.95 21.8 -15.5 Q22.05 -15.75 21.8 -16.1 L22.65 -16.35 22.45 -16.05 22.4 -15.75 22.65 -15.9 22.95 -15.9 Q22.75 -16.65 23.3 -16.5 L24.15 -16.05 25.0 -15.2 25.05 -14.05 Q25.45 -14.1 25.25 -15.15 26.3 -14.65 25.95 -14.5 26.65 -13.95 26.5 -14.3 L27.15 -13.75 27.15 -13.0 27.45 -13.55 27.85 -12.85 27.8 -11.95 Q27.85 -11.35 28.2 -11.35 28.65 -11.4 28.65 -11.75 L28.45 -12.35 Q28.35 -12.9 28.65 -12.65 29.4 -12.05 29.45 -11.25 29.15 -11.15 29.15 -11.45 28.9 -11.3 29.1 -10.95 L29.3 -10.5 Q29.25 -9.9 28.7 -10.95 L28.55 -10.25 28.5 -9.5 Q28.55 -9.2 28.95 -9.25 29.3 -9.25 29.15 -8.75 29.1 -8.5 28.75 -8.6 28.5 -8.65 28.55 -8.4 28.65 -8.1 29.1 -7.9 L29.8 -7.8 Q29.6 -8.05 29.6 -8.9 L29.95 -9.15 30.0 -9.5 30.2 -9.3 30.55 -9.25 30.65 -8.4 31.15 -7.8 31.15 -8.3 31.55 -7.95 Q32.05 -8.55 31.85 -9.1 31.4 -8.8 31.3 -9.2 L31.25 -10.0 30.9 -9.45 30.75 -9.6 30.35 -9.65 29.6 -9.8 29.6 -10.75 29.65 -11.9 Q30.45 -11.6 29.9 -10.45 L30.25 -10.25 Q30.45 -10.1 30.65 -10.25 L30.8 -11.0 32.25 -9.95 32.6 -9.75 32.8 -9.4 32.6 -9.0 32.2 -8.75 Q32.55 -8.55 32.3 -7.8 L31.9 -6.7 31.3 -7.75 Q31.0 -7.6 31.35 -7.0 L31.65 -6.1 31.2 -4.8 Q30.9 -5.15 30.85 -4.8 30.85 -4.4 31.0 -4.25 L30.75 -3.7 30.6 -2.95 30.35 -2.3 Q30.2 -2.1 29.85 -2.05 L29.65 -2.8 29.1 -3.25 28.8 -3.3 28.6 -3.4 28.5 -1.8 28.8 -2.3 Q28.85 -2.55 29.3 -2.55 L29.45 -2.05 29.55 -2.3 Q29.85 -2.2 29.45 -2.0 L29.05 -1.75 27.7 -1.35 Q28.25 -2.55 27.9 -2.6 27.45 -2.7 27.55 -2.95 L27.65 -3.5 27.9 -3.6 27.65 -3.6 27.35 -3.7 Q26.85 -3.8 27.25 -4.1 L27.85 -4.35 Q27.3 -4.85 27.75 -5.75 L28.2 -7.2 28.45 -7.8 28.2 -8.3 Q27.9 -8.5 27.9 -8.85 L27.8 -9.6 Q27.55 -9.5 27.65 -9.3 27.05 -11.6 26.35 -11.4 L25.55 -11.0 Q25.3 -10.85 25.6 -10.2 L24.45 -11.15 25.2 -11.0 Q25.55 -10.9 25.25 -11.6 L24.85 -11.45 Q24.55 -11.45 24.5 -11.65 24.4 -11.6 24.45 -11.4 L24.35 -11.2 Q23.45 -11.75 22.85 -12.25 21.65 -13.1 21.75 -13.4 21.25 -13.35 20.35 -14.05 L19.05 -15.1 M22.5 -15.35 Q22.8 -15.25 22.8 -15.75 L22.5 -15.6 22.5 -15.35 M30.35 -18.0 L30.7 -17.9 Q30.7 -18.35 30.2 -18.3 L30.35 -18.0 M29.95 -18.85 L31.25 -19.25 31.25 -18.55 31.5 -19.25 31.65 -18.9 Q31.65 -18.65 31.85 -18.85 31.85 -18.15 32.3 -18.45 L32.0 -19.45 33.4 -18.5 Q34.15 -17.65 34.1 -17.0 34.45 -17.2 34.3 -17.55 L34.0 -18.05 35.85 -16.6 Q36.45 -16.2 36.3 -14.75 L36.5 -15.15 36.9 -15.4 36.5 -16.15 37.95 -14.9 37.6 -14.95 37.25 -15.05 Q37.15 -14.8 37.5 -14.7 37.85 -14.55 37.95 -14.85 L38.2 -14.1 37.2 -13.75 Q36.45 -13.5 36.55 -13.85 L36.15 -13.65 Q35.9 -13.5 35.85 -13.5 L35.9 -13.45 36.2 -13.1 Q36.35 -13.0 36.3 -13.4 L36.55 -13.15 36.9 -12.95 Q37.3 -13.25 37.2 -12.7 37.45 -12.9 37.7 -12.7 37.9 -12.55 38.15 -12.9 38.5 -14.05 38.3 -14.1 L38.7 -14.2 Q38.6 -13.85 38.95 -13.5 L39.55 -13.15 Q40.25 -11.2 39.35 -11.35 39.0 -11.45 39.35 -10.95 39.75 -10.55 39.95 -10.65 39.95 -10.3 40.5 -9.55 L40.1 -8.55 Q39.8 -8.9 39.25 -8.9 L39.5 -8.5 39.35 -8.0 39.75 -7.4 39.6 -6.75 39.3 -6.1 38.7 -5.1 37.55 -4.6 Q37.25 -5.05 37.3 -5.35 36.7 -5.15 37.25 -4.55 L36.1 -4.25 34.7 -3.7 35.45 -5.75 35.55 -6.3 36.0 -5.75 36.2 -5.05 Q36.75 -5.3 36.3 -5.85 L35.6 -6.4 35.85 -6.9 36.1 -7.3 Q36.05 -8.3 36.75 -8.45 L36.35 -8.7 Q36.7 -9.6 37.15 -9.2 37.8 -8.65 38.3 -8.85 37.95 -9.2 37.9 -9.95 L37.7 -11.05 Q37.25 -10.5 37.25 -11.35 L36.8 -11.45 36.3 -11.9 35.8 -12.35 35.4 -12.4 Q35.15 -12.4 35.05 -12.55 L34.45 -13.05 Q34.0 -13.1 32.9 -14.0 L31.45 -15.25 27.75 -18.05 28.55 -18.35 28.8 -18.25 29.1 -18.2 Q29.05 -18.5 29.3 -18.6 L29.95 -18.85 M30.25 -17.6 Q30.2 -18.05 29.55 -17.95 L29.85 -17.65 30.25 -17.6 M30.7 -17.15 Q30.35 -16.95 30.7 -16.65 L31.15 -16.25 Q31.35 -16.5 31.05 -16.75 L30.7 -17.15 M38.6 -21.75 Q38.9 -21.8 39.65 -22.15 L40.65 -22.45 Q41.25 -22.35 41.4 -21.95 41.5 -21.55 41.2 -21.15 L41.45 -21.35 41.6 -21.75 Q42.05 -21.5 42.05 -20.75 42.75 -21.35 42.45 -20.85 L42.3 -20.5 41.95 -20.15 Q41.8 -20.4 41.7 -20.15 L41.25 -19.85 41.35 -19.15 41.65 -19.35 41.95 -19.4 41.8 -18.9 41.45 -18.55 41.85 -18.05 42.05 -17.6 42.35 -17.8 42.65 -17.75 42.55 -18.25 42.1 -18.25 Q42.3 -18.45 42.3 -19.0 L42.55 -19.6 43.05 -18.45 43.5 -18.9 Q44.0 -19.2 43.9 -18.75 L44.45 -19.65 45.55 -18.7 45.4 -18.85 45.3 -18.35 45.25 -17.75 Q45.15 -18.0 44.65 -18.15 44.15 -18.2 44.05 -18.65 L43.75 -18.25 43.45 -18.6 43.55 -16.45 44.15 -17.1 44.55 -17.85 Q44.8 -17.5 44.45 -16.9 L44.8 -16.6 44.95 -16.1 44.95 -15.5 Q45.7 -15.6 45.1 -15.9 L45.7 -16.55 Q46.05 -16.8 45.9 -17.35 L46.3 -17.6 46.35 -18.05 Q46.35 -17.9 47.35 -17.45 L46.5 -17.35 47.5 -17.3 48.35 -16.75 48.85 -15.9 Q49.9 -16.05 50.0 -15.25 L49.6 -13.85 48.2 -9.65 47.8 -8.5 Q47.55 -8.0 46.9 -7.8 L43.3 -6.6 43.8 -7.75 44.1 -8.65 Q44.0 -8.65 44.25 -9.45 L44.65 -10.45 45.25 -12.2 Q45.95 -10.7 45.25 -10.15 L44.75 -9.5 44.7 -8.3 44.9 -8.45 45.2 -8.5 45.1 -8.7 Q44.95 -8.85 45.1 -8.85 L45.15 -8.75 45.5 -9.35 45.65 -10.0 46.5 -10.65 Q46.75 -11.0 46.6 -11.65 L47.0 -11.6 Q47.2 -11.4 47.35 -11.45 47.45 -12.05 46.4 -11.95 L46.0 -12.3 Q45.8 -12.7 45.5 -12.7 L45.55 -12.35 Q45.3 -12.2 45.25 -12.2 L45.65 -13.45 Q45.85 -13.8 45.55 -14.15 L44.9 -14.7 44.5 -14.9 44.2 -15.1 44.2 -15.05 43.7 -15.5 43.6 -16.05 43.05 -15.9 Q42.8 -15.95 42.8 -16.5 L43.15 -17.15 Q43.3 -17.45 42.8 -17.3 L42.35 -17.35 41.9 -17.25 41.8 -16.9 Q41.45 -17.05 41.45 -17.55 L41.35 -17.7 41.1 -17.7 41.2 -17.95 41.25 -18.35 Q41.05 -18.35 40.8 -17.6 L39.5 -18.6 39.75 -19.05 39.65 -19.6 38.9 -19.05 Q38.65 -19.1 38.4 -19.65 L38.6 -21.75 M36.7 -21.05 L36.8 -20.65 36.35 -21.0 36.7 -21.05 M34.0 -15.1 L34.7 -14.9 34.05 -15.45 33.75 -15.7 33.45 -15.8 Q33.4 -15.5 34.0 -15.1 M31.75 -16.8 Q31.45 -16.55 31.7 -16.35 L32.25 -16.25 32.9 -17.6 32.35 -17.0 Q32.05 -16.55 31.75 -16.8 M34.5 -16.2 Q33.95 -16.55 34.15 -16.1 L34.55 -15.5 35.0 -14.5 Q35.05 -14.3 35.3 -14.25 35.55 -14.15 35.4 -13.7 L35.65 -14.85 35.5 -14.3 Q35.2 -14.4 35.05 -14.8 34.85 -15.15 35.2 -15.25 L34.9 -15.7 34.5 -16.2 M35.85 -15.2 L36.1 -15.45 35.5 -16.4 Q35.35 -16.2 35.5 -15.8 L35.65 -15.15 35.85 -15.2 M40.0 -20.05 Q40.1 -19.1 40.4 -18.65 L40.65 -19.3 40.7 -20.1 40.45 -19.55 Q40.05 -19.8 40.4 -20.5 40.65 -21.25 40.4 -21.55 39.9 -21.8 39.9 -21.15 L40.0 -20.05 M39.0 -19.95 Q39.8 -20.15 39.15 -21.8 L39.0 -20.75 39.0 -19.95 M43.7 -19.9 L43.25 -19.05 Q43.05 -19.65 42.65 -19.7 43.05 -19.85 43.1 -19.95 L43.35 -20.45 43.95 -19.95 43.7 -19.9 M46.85 -15.1 Q46.6 -15.0 46.7 -14.5 L46.6 -14.15 46.05 -14.05 46.4 -13.8 Q46.8 -13.65 46.8 -12.95 L47.05 -12.85 47.2 -12.65 Q47.35 -12.0 47.6 -12.05 L47.55 -13.05 47.1 -12.85 47.45 -13.5 47.5 -14.2 Q47.1 -13.8 47.2 -14.4 L47.05 -14.85 46.85 -15.1 M46.9 -10.85 L47.2 -11.15 Q47.25 -11.3 47.0 -11.25 L46.9 -10.85 M39.65 -13.85 L40.8 -12.9 41.35 -12.4 41.2 -11.65 40.8 -10.5 40.7 -11.35 40.7 -12.3 Q40.5 -12.1 40.4 -12.45 L39.95 -12.9 39.4 -13.65 38.95 -14.2 39.65 -13.85 M38.55 -13.1 L38.7 -12.75 Q38.9 -12.85 38.9 -13.1 L38.65 -13.45 Q38.45 -13.4 38.55 -13.1 M38.95 -14.2 L38.7 -14.2 38.7 -14.25 38.95 -14.2 M36.8 -14.65 L36.55 -14.3 36.35 -14.05 36.75 -13.8 36.8 -14.65 M39.05 -12.1 Q39.25 -12.35 39.1 -12.6 L38.95 -12.3 38.8 -12.05 39.05 -12.1 M37.5 -8.1 L37.55 -8.05 37.6 -8.05 37.5 -8.1 M37.6 -8.05 L37.9 -7.45 37.95 -6.7 Q38.45 -6.8 38.3 -7.3 L37.9 -8.1 37.6 -8.05 M37.25 -8.0 Q36.95 -7.9 36.8 -7.6 L36.6 -7.0 Q36.45 -5.95 36.75 -6.45 L36.8 -6.8 37.05 -7.05 37.45 -7.45 37.55 -8.05 37.25 -8.0 M37.1 -9.2 L36.7 -9.15 36.85 -8.75 Q37.1 -8.7 37.1 -9.2 M40.0 -8.2 L39.85 -8.15 39.6 -8.15 Q39.6 -8.45 39.75 -8.45 L40.0 -8.2 M37.4 -7.1 Q37.15 -7.05 37.15 -6.8 37.1 -6.6 37.3 -6.65 L37.4 -7.1 M37.9 -5.25 Q38.3 -5.3 38.3 -5.7 L38.45 -5.75 38.6 -5.75 Q38.95 -6.0 37.9 -6.05 L38.0 -5.7 37.9 -5.25 M26.1 -13.45 Q26.15 -13.25 26.4 -13.55 L26.5 -14.05 26.3 -13.75 Q26.3 -13.45 26.1 -13.45 M26.55 -13.35 L26.55 -13.05 Q27.1 -12.9 26.8 -13.4 L26.55 -13.35 M27.95 -10.1 L28.15 -9.45 28.25 -10.15 27.85 -10.7 Q27.75 -10.6 27.95 -10.1 M27.55 -11.0 Q27.35 -10.85 27.4 -10.35 27.45 -9.9 27.65 -9.75 L27.75 -10.3 27.55 -11.0 M26.15 -11.0 Q26.6 -10.95 26.55 -10.45 L26.5 -9.55 26.0 -9.95 25.8 -10.3 25.95 -10.7 26.15 -11.0 M23.7 -13.65 L23.65 -12.95 23.8 -13.45 23.7 -13.65 M24.3 -12.2 Q24.7 -12.1 24.55 -12.55 L24.3 -12.55 24.3 -12.2 M24.4 -14.5 L24.0 -14.9 Q23.85 -14.65 24.2 -14.35 24.55 -14.05 24.85 -14.15 L24.4 -14.5 M21.55 -13.75 L21.8 -13.5 Q21.9 -13.25 22.15 -13.4 22.05 -14.0 21.55 -13.75 M21.0 -14.15 Q21.15 -13.5 21.45 -14.15 21.65 -14.9 21.4 -14.75 L21.2 -14.4 21.0 -14.15 M20.5 -8.6 L20.65 -7.9 20.7 -8.45 20.5 -8.6 M20.7 -9.25 L21.4 -8.7 Q21.9 -8.2 21.45 -8.15 L21.65 -7.95 21.75 -7.7 22.2 -7.95 22.6 -7.8 Q22.95 -7.5 23.25 -7.3 L24.05 -6.65 Q24.4 -6.35 23.75 -6.2 L23.75 -5.25 21.9 0.05 21.5 0.7 20.65 1.05 20.85 0.8 20.9 0.45 Q20.7 0.25 20.85 0.0 L20.15 -1.3 Q19.8 -1.75 19.75 -1.3 L19.75 -0.5 19.95 0.35 20.2 1.2 18.15 1.9 17.75 1.15 18.0 0.4 19.55 -4.2 19.85 -4.35 20.15 -4.65 Q20.4 -5.5 20.25 -5.75 19.75 -4.95 17.95 -6.5 L15.85 -8.3 14.6 -9.15 Q14.2 -9.4 14.25 -10.15 L14.45 -11.4 13.45 -11.05 13.85 -10.35 14.0 -9.55 12.75 -10.5 Q13.05 -10.6 13.0 -10.85 L12.8 -11.4 12.0 -11.2 Q11.85 -11.2 11.3 -11.55 L11.1 -12.05 Q11.05 -12.4 11.25 -12.45 L12.5 -12.95 Q13.25 -13.15 13.2 -12.45 13.35 -12.85 13.8 -12.6 14.2 -12.35 13.95 -12.1 14.1 -11.95 14.4 -12.3 L14.65 -12.8 14.75 -12.8 14.45 -13.0 13.7 -13.35 14.75 -13.55 15.75 -12.95 Q15.4 -12.65 15.5 -12.4 16.1 -12.25 16.0 -12.75 16.5 -12.6 16.45 -12.05 L16.3 -11.5 16.65 -12.25 Q17.3 -11.75 17.9 -11.35 L17.55 -11.4 17.25 -11.45 Q16.8 -11.45 16.9 -11.2 17.0 -10.9 17.3 -11.0 17.2 -10.6 17.4 -10.25 18.3 -10.8 18.05 -11.25 18.35 -11.05 18.25 -10.5 L18.15 -9.55 18.4 -9.6 18.6 -9.3 19.0 -10.5 19.1 -10.45 19.0 -10.15 19.0 -9.95 Q19.35 -10.05 19.15 -10.35 L20.7 -9.25 M22.1 -7.0 L22.6 -7.0 Q22.95 -7.05 22.8 -7.35 L22.1 -7.5 22.1 -7.0 M21.7 -7.45 L21.65 -7.75 21.4 -7.65 21.45 -7.35 21.7 -7.45 M21.25 -6.55 L21.1 -5.85 21.05 -4.7 Q21.05 -3.95 21.4 -3.75 22.55 -4.15 21.7 -6.5 21.5 -7.05 21.25 -6.55 M20.4 -5.05 Q20.4 -4.65 20.65 -4.5 L20.9 -4.9 20.75 -5.4 Q20.4 -5.35 20.4 -5.05 M22.3 -5.4 Q22.75 -5.35 23.2 -5.6 L22.65 -5.85 22.15 -5.95 22.3 -5.4 M20.55 -3.95 L20.25 -3.9 Q20.0 -3.7 20.15 -3.5 19.75 -3.5 19.75 -3.2 19.75 -2.9 19.55 -2.85 L19.75 -2.7 20.0 -2.4 20.35 -3.1 20.55 -3.95 M21.15 -2.1 Q21.1 -2.8 20.3 -2.35 L20.45 -1.8 21.15 -2.1 M21.8 -2.45 L22.25 -2.55 Q21.95 -2.8 22.05 -3.2 L21.95 -3.95 Q21.55 -3.9 21.7 -3.25 L21.8 -2.45 M30.1 -6.7 L30.1 -6.45 Q30.55 -6.3 30.35 -6.75 L30.1 -6.7 M29.35 -7.05 L29.1 -7.35 28.75 -7.75 Q28.4 -7.8 28.45 -7.25 28.45 -6.7 28.65 -6.7 28.45 -6.35 28.35 -4.8 29.45 -4.0 28.8 -3.95 29.3 -3.45 29.3 -4.1 29.3 -4.8 28.75 -4.85 28.7 -5.15 29.05 -5.15 L28.9 -5.4 28.7 -5.7 29.45 -5.8 Q29.8 -5.9 29.25 -6.2 28.95 -6.35 29.25 -6.7 L29.65 -7.1 29.35 -7.05 M30.85 -5.95 Q31.15 -6.1 30.7 -6.5 30.2 -6.5 30.3 -5.85 L30.85 -5.95 M27.3 -2.05 L27.85 -2.2 27.65 -1.85 Q27.4 -1.85 27.3 -2.05 M26.25 -1.45 L26.8 -3.1 27.1 -1.9 Q27.15 -1.0 26.6 -0.95 L26.25 -1.45 M15.45 -11.55 Q16.1 -11.6 15.75 -12.25 15.3 -12.15 15.45 -11.55 M15.2 -10.1 Q15.2 -9.9 15.3 -9.85 L15.4 -9.5 15.75 -10.1 15.9 -10.75 15.65 -10.5 15.4 -10.2 15.5 -10.35 Q15.4 -10.6 15.3 -10.35 L15.2 -10.1 M14.9 -10.9 L14.75 -10.65 15.3 -11.05 Q15.05 -11.2 14.9 -10.9 M16.25 -9.35 L16.25 -9.9 Q15.85 -9.9 15.85 -9.05 L16.25 -9.35 M17.7 -8.5 Q18.05 -7.95 18.2 -8.55 18.3 -9.25 18.05 -9.15 L17.9 -8.8 17.7 -8.5 M13.5 -11.6 Q14.0 -12.1 13.7 -12.05 L13.35 -12.05 13.5 -11.6 M10.45 -12.2 L10.65 -12.3 10.7 -12.0 10.45 -12.2 M11.85 -12.65 Q11.6 -12.65 11.6 -12.3 L11.7 -11.95 11.75 -12.15 Q11.75 -11.7 12.05 -11.75 12.45 -11.85 12.35 -12.35 L11.8 -12.25 11.85 -12.65 M9.8 -7.3 L9.9 -7.9 Q10.35 -7.75 10.45 -7.25 10.6 -6.75 10.2 -6.55 10.85 -6.4 10.85 -6.55 10.5 -6.7 10.5 -6.95 10.5 -7.45 11.35 -6.8 L15.5 -3.7 15.3 -2.8 14.9 -1.75 13.2 3.15 12.45 3.9 11.3 4.2 8.75 5.05 9.45 3.45 9.8 1.95 10.4 0.2 10.7 -0.45 11.05 -0.9 10.9 -0.95 11.15 -2.25 10.2 -3.0 10.55 -3.45 10.3 -4.0 9.7 -3.65 Q9.5 -3.55 9.1 -3.8 L6.1 -6.1 Q5.85 -6.3 6.05 -6.45 L6.3 -6.7 5.75 -7.05 Q6.1 -7.4 6.0 -8.5 L6.25 -8.3 6.15 -7.95 6.95 -7.9 7.85 -7.7 8.3 -7.95 8.6 -7.65 Q8.8 -7.4 8.9 -7.65 L9.1 -7.65 Q8.85 -7.7 8.8 -7.35 8.65 -7.1 8.95 -7.15 8.85 -7.3 9.0 -7.45 L9.05 -7.2 9.45 -7.25 9.8 -7.3 M11.0 -5.6 L10.6 -5.85 Q10.6 -5.4 10.85 -5.15 L11.0 -5.6 M10.7 -4.8 L10.95 -4.4 11.15 -4.7 10.7 -4.8 M12.4 -3.75 Q12.95 -4.1 12.8 -4.3 L12.5 -4.0 12.4 -3.75 M13.1 -3.15 L13.25 -2.85 13.45 -3.45 13.5 -4.1 13.3 -3.75 12.95 -3.45 13.1 -3.15 M19.0 -7.4 L18.7 -7.9 18.3 -7.6 17.95 -7.35 18.4 -6.75 Q18.75 -6.4 19.05 -6.9 19.35 -7.2 19.0 -7.4 M18.25 -7.2 L18.6 -7.25 18.6 -7.05 18.35 -6.95 18.25 -7.2 M5.0 -9.8 L5.0 -9.5 5.5 -9.35 5.7 -9.1 5.6 -8.7 5.75 -8.6 Q5.05 -8.35 5.25 -7.65 L5.6 -6.45 Q5.4 -6.4 4.4 -7.2 L3.25 -8.2 4.0 -7.9 Q4.4 -7.7 4.4 -8.2 L4.15 -9.1 Q4.05 -9.3 3.6 -9.3 3.2 -9.3 3.05 -9.75 L3.85 -10.0 4.65 -9.75 4.75 -10.05 4.75 -9.8 Q4.7 -9.55 5.0 -9.8 M2.2 -9.45 L2.45 -9.35 2.45 -9.1 2.2 -9.45 M2.9 -9.05 Q2.8 -9.1 2.85 -8.75 L2.9 -8.5 2.5 -9.0 Q2.7 -9.0 2.7 -9.15 L2.65 -9.45 3.0 -9.35 2.9 -9.05 M-1.3 -6.55 L-1.45 -5.65 -0.95 -6.7 -0.3 -5.8 -0.75 -6.1 Q-1.05 -5.85 -0.85 -5.5 L-0.1 -6.0 0.55 -5.5 Q0.75 -5.25 0.55 -4.85 L0.4 -3.8 Q0.4 -3.15 0.05 -2.95 L0.0 -3.3 0.05 -3.85 -0.25 -3.3 -0.5 -2.6 -0.15 -2.0 Q0.1 -1.7 0.5 -1.9 L1.25 -2.25 Q1.75 -2.3 1.65 -1.85 L1.65 -1.0 Q2.2 -1.4 2.1 -2.8 L1.75 -4.65 2.45 -4.15 2.7 -3.45 2.65 -2.55 Q3.15 -2.9 3.25 -2.75 L2.95 -3.75 3.9 -3.1 Q4.35 -2.6 4.25 -2.15 L4.6 -2.5 5.0 -2.05 5.1 -1.4 5.6 -1.75 6.85 -0.8 6.75 -0.2 6.45 0.45 5.15 4.3 4.75 5.7 3.9 6.7 0.1 8.0 0.6 6.45 0.9 6.85 Q1.2 6.75 1.05 6.45 L0.8 5.95 1.15 4.95 1.5 5.05 2.0 5.3 Q1.95 5.85 2.25 6.7 2.35 6.55 2.9 6.35 L2.65 6.25 2.3 6.35 2.2 5.75 Q2.8 5.95 2.65 5.45 2.05 5.3 2.2 5.7 L1.75 4.7 Q1.4 4.1 1.55 3.7 L2.05 2.3 Q2.75 2.5 3.0 2.3 L3.05 2.0 2.8 1.9 2.3 1.9 2.3 1.4 2.65 1.05 Q2.75 0.75 2.45 0.35 2.2 0.0 2.0 0.05 L1.6 -0.05 -1.2 -2.15 -1.35 -2.4 -2.0 -2.75 -5.2 -5.2 Q-5.45 -5.35 -5.25 -5.55 L-5.1 -5.95 -4.5 -4.85 Q-3.7 -5.0 -5.4 -6.9 -4.85 -7.25 -4.3 -6.7 L-3.4 -5.8 -3.4 -6.1 -3.1 -6.35 -3.3 -4.35 Q-3.0 -4.35 -2.9 -4.9 L-2.25 -4.1 -1.5 -3.5 Q-1.4 -4.65 -2.25 -6.05 L-2.3 -5.75 -2.65 -6.75 -3.15 -7.65 -2.4 -7.75 -2.1 -7.2 -1.95 -6.6 Q-1.7 -6.95 -1.75 -7.3 -1.35 -6.95 -1.3 -6.55 M1.1 -4.4 L1.3 -5.0 1.35 -4.5 1.15 -3.9 Q0.85 -4.0 1.1 -4.4 M-1.05 -3.0 L-1.3 -2.85 Q-0.65 -2.8 -0.85 -3.15 L-1.05 -3.0 M0.45 -2.2 L0.15 -2.0 0.45 -2.95 0.55 -2.25 Q0.45 -2.4 0.45 -2.2 M7.0 -6.95 L7.75 -7.05 7.45 -7.1 7.0 -6.95 M9.45 -4.25 Q9.8 -4.35 9.6 -4.85 L9.05 -4.65 Q9.1 -4.15 9.45 -4.25 M6.1 -1.15 L4.6 -0.45 4.75 0.05 Q4.8 0.45 5.0 0.4 5.4 0.35 5.15 -0.05 5.0 -0.45 5.15 -0.5 5.6 -0.7 5.6 -0.35 L5.75 0.3 Q6.2 -0.2 6.1 -1.15 M4.15 0.1 Q2.8 0.45 4.2 1.85 4.6 1.45 4.15 -0.15 L4.15 0.1 M2.35 -1.2 L2.15 -1.1 2.2 -0.85 2.45 -0.95 2.35 -1.2 M3.3 4.45 L3.45 4.15 3.25 3.85 Q3.05 4.05 3.3 4.45 M19.55 0.8 L19.75 0.45 19.45 0.0 Q19.15 0.05 19.3 0.45 L19.55 0.8 M17.4 2.15 L17.6 1.4 17.85 1.9 Q17.85 2.1 17.4 2.15 M13.35 1.65 L13.5 1.25 Q13.5 1.05 13.8 1.05 L13.45 0.5 Q13.15 0.75 13.35 1.65 M14.45 -0.85 L14.4 -1.1 14.1 -1.0 14.15 -0.75 14.45 -0.85 M-11.95 -4.65 L-11.25 -4.85 -10.6 -4.3 -10.05 -4.15 -9.55 -3.7 -9.65 -3.55 -9.3 -3.55 -9.0 -3.15 -9.3 -2.7 Q-9.65 -2.35 -9.45 -1.6 L-9.3 -0.4 Q-9.0 -0.35 -8.95 0.1 L-8.75 1.05 Q-8.55 1.05 -8.55 0.75 L-8.55 0.4 -8.4 0.65 -8.25 0.4 Q-8.3 0.05 -8.5 0.25 -8.4 -0.25 -8.6 -0.5 L-8.95 -1.15 -8.55 -3.0 -8.05 -2.45 Q-7.9 -2.55 -7.5 -2.25 L-7.05 -1.65 Q-6.75 -1.65 -6.65 -1.2 -6.55 -0.9 -6.15 -1.0 L-6.2 0.0 -6.05 1.1 Q-5.15 0.75 -5.15 -0.45 L-4.25 0.25 Q-4.0 0.6 -4.65 1.0 L-3.85 0.55 -3.3 1.0 -1.85 2.05 Q-1.7 2.2 -1.9 2.65 L-2.35 3.95 -2.2 3.2 -2.25 3.1 -2.35 2.9 -2.55 2.1 Q-2.75 1.5 -3.05 1.65 L-2.55 2.5 -2.8 2.65 -3.25 2.6 Q-3.25 3.05 -2.85 3.35 L-3.0 3.6 -3.0 4.05 -3.35 4.4 -3.8 4.6 Q-3.65 4.85 -3.65 5.15 L-3.35 4.8 Q-3.25 4.6 -3.25 4.9 L-2.45 4.05 Q-2.45 4.45 -2.8 5.2 -2.8 5.05 -3.0 5.25 L-3.3 5.55 -3.15 6.3 -3.65 7.7 -4.15 9.05 -5.2 9.75 Q-5.05 9.05 -5.35 8.95 L-5.6 8.75 Q-5.8 9.75 -5.95 9.4 L-5.9 9.05 Q-5.8 8.85 -6.05 8.7 L-6.2 8.35 -6.5 8.3 -6.55 7.3 Q-6.4 6.7 -5.95 7.15 L-5.8 7.65 -5.6 8.15 -5.15 7.85 -5.2 7.45 Q-5.5 7.45 -5.65 6.8 L-5.65 5.95 -6.05 6.0 -6.25 6.35 -6.2 5.4 Q-6.15 4.7 -6.4 4.7 L-6.25 4.0 -6.25 3.3 -5.85 3.75 -5.9 2.9 -6.3 3.2 -6.65 3.15 -6.95 1.9 -6.8 0.35 Q-6.65 -0.6 -6.85 -1.2 L-7.9 -1.1 -7.25 -0.9 -7.45 0.3 -7.25 1.2 -7.45 0.75 Q-7.5 1.2 -7.65 1.25 -7.9 1.4 -7.75 1.85 L-7.6 2.45 -8.95 1.4 Q-8.95 1.65 -9.6 0.95 -10.05 0.4 -9.4 0.45 -9.4 0.25 -9.75 -0.2 L-9.95 -0.9 -10.55 -0.4 Q-10.85 -0.2 -11.25 -0.8 L-11.45 -0.45 Q-12.6 -1.15 -13.2 -1.6 -14.3 -2.4 -14.55 -3.1 L-15.0 -3.1 -15.5 -3.5 -14.75 -3.8 Q-14.3 -3.95 -14.25 -3.65 L-14.0 -3.85 -13.8 -4.1 -12.75 -4.4 -12.1 -4.6 Q-11.85 -4.6 -11.8 -4.2 -11.15 -4.25 -11.95 -4.65 M-11.1 -3.65 L-11.0 -3.9 Q-11.0 -4.15 -11.25 -3.9 -11.5 -3.7 -11.35 -3.5 -11.1 -3.4 -11.1 -3.65 M-11.65 -3.15 L-11.95 -2.95 -12.25 -2.85 -12.25 -2.45 Q-12.15 -1.75 -11.9 -1.7 L-11.0 -1.9 -11.4 -3.4 -11.65 -3.15 M-10.7 -2.4 L-10.75 -1.7 -10.65 -1.2 Q-10.05 -2.2 -10.15 -2.3 L-10.7 -2.4 M-2.35 -7.05 L-2.3 -6.65 -2.1 -6.5 Q-2.0 -7.2 -2.35 -7.05 M-6.25 -6.35 Q-6.05 -5.95 -5.75 -6.05 L-6.2 -6.6 Q-5.25 -7.25 -5.85 -5.7 -6.85 -6.2 -6.55 -6.45 -6.4 -6.6 -6.25 -6.35 M-2.7 -3.95 L-2.85 -4.15 -3.05 -4.15 -2.95 -3.8 Q-2.7 -3.9 -2.65 -3.7 -2.35 -3.8 -2.7 -3.95 M-21.15 -1.45 L-20.55 -1.8 -19.65 -1.9 -17.5 -0.3 -15.9 0.95 -15.5 1.4 -15.0 1.6 -14.5 1.95 Q-14.2 2.15 -14.25 2.45 -13.95 2.2 -13.2 2.85 L-12.05 3.8 -10.45 5.3 -11.5 8.4 -12.0 7.35 -12.55 8.45 Q-12.6 9.1 -11.7 8.9 L-12.5 11.25 Q-13.25 13.2 -13.75 12.35 -14.1 12.9 -15.3 13.25 L-17.2 13.8 -15.0 7.55 -14.8 7.05 Q-14.55 6.6 -14.5 7.0 -14.25 6.95 -15.35 4.7 -14.95 4.7 -14.4 5.95 -13.8 7.15 -14.0 7.3 L-13.85 7.35 Q-13.7 7.35 -13.6 7.55 L-13.35 7.85 Q-13.15 7.95 -13.1 7.6 L-13.15 6.65 Q-13.3 6.0 -13.1 5.6 -12.55 5.6 -12.85 7.1 -12.1 6.25 -12.6 5.9 L-12.4 5.4 -12.1 4.85 Q-11.8 4.6 -11.9 4.1 -12.0 3.6 -12.45 3.9 L-12.75 4.7 -12.75 5.7 -13.3 5.3 Q-13.7 5.0 -13.6 4.65 L-13.75 3.9 -13.8 3.1 -13.95 3.4 -14.15 3.2 -14.25 2.85 -14.45 3.0 Q-14.55 3.1 -14.75 2.85 -15.15 2.35 -15.45 2.45 -15.65 2.75 -15.45 3.25 L-15.2 4.1 -15.6 3.75 Q-15.85 3.3 -16.1 3.35 -16.05 4.8 -15.85 4.0 L-15.95 4.65 Q-16.1 4.95 -15.7 5.25 -15.45 5.45 -15.5 5.55 L-15.45 5.95 -24.1 -0.6 -21.15 -1.45 M-13.75 -3.1 L-13.7 -2.6 Q-13.2 -2.75 -13.45 -3.5 L-13.75 -3.1 M-17.2 2.7 L-16.9 3.7 -16.5 4.55 Q-16.35 4.45 -16.55 3.8 -16.7 3.25 -16.4 3.25 -16.4 3.0 -16.65 3.2 -16.65 2.45 -17.2 2.7 M-17.05 4.55 L-16.85 4.85 Q-16.8 4.3 -17.05 4.45 -17.3 4.25 -17.05 4.55 M-13.0 4.4 Q-13.2 3.6 -13.45 3.35 -13.8 3.55 -13.2 5.35 -12.8 5.2 -13.0 4.4 M-12.5 4.1 Q-12.25 4.05 -12.35 4.25 L-12.55 4.55 Q-12.7 4.3 -12.5 4.1 M-18.15 1.95 Q-17.8 1.9 -17.95 1.75 L-18.1 1.5 -18.15 1.95 M-18.3 0.9 L-18.5 1.15 Q-18.7 1.35 -18.4 1.35 L-18.25 1.15 Q-18.2 0.95 -18.3 0.9 M-21.05 -0.75 Q-21.05 -0.45 -20.85 -0.45 L-20.5 -0.35 Q-20.25 -0.5 -20.55 -0.75 -20.85 -0.95 -21.05 -0.75 M-20.85 0.65 L-20.5 1.15 Q-20.35 1.0 -20.55 0.7 L-20.8 0.25 Q-21.05 0.4 -20.85 0.65 M-21.65 0.5 L-21.45 0.9 -21.25 1.25 Q-20.85 1.2 -21.1 0.7 -21.4 0.3 -21.65 0.5 M-19.9 7.3 L-19.0 8.0 -19.35 8.75 Q-19.7 9.2 -19.55 9.5 L-19.85 10.55 -20.3 11.95 Q-20.6 12.95 -21.0 13.05 -20.8 13.35 -21.0 14.05 L-21.45 15.1 Q-21.5 15.25 -22.25 15.5 L-25.85 16.7 -23.65 10.3 -23.4 9.75 Q-23.3 9.5 -23.5 9.35 L-24.95 8.25 -26.45 7.15 Q-27.4 6.4 -27.35 5.7 -27.6 5.95 -27.45 6.35 L-32.8 2.35 -29.95 1.35 -29.1 1.05 Q-28.55 0.8 -28.2 1.05 L-19.9 7.3 M-21.8 7.75 L-21.7 8.3 -21.1 8.3 -21.4 7.7 -21.6 7.05 -21.8 7.75 M-20.55 10.85 Q-20.2 10.85 -20.2 9.05 -20.45 8.95 -20.45 9.25 -20.45 9.55 -20.6 9.55 L-20.55 10.85 M-23.1 9.25 Q-22.85 9.25 -22.85 8.8 L-23.1 8.95 -23.1 9.25 M-22.0 9.85 L-21.75 10.4 Q-21.1 10.35 -21.3 9.9 L-21.9 9.25 Q-22.2 9.5 -22.0 9.85 M-15.4 9.1 Q-15.3 9.35 -15.1 9.0 -14.8 8.7 -15.15 8.5 L-15.35 8.85 Q-15.3 9.1 -15.4 9.1 M-15.8 9.75 L-15.65 10.35 -15.65 10.9 -15.9 11.3 Q-16.05 11.6 -15.7 11.35 L-15.35 11.1 -15.2 10.55 Q-15.1 9.6 -15.8 9.75 M-13.35 9.85 L-13.0 10.3 -12.4 10.5 -12.75 10.15 -13.2 9.75 -13.35 9.85 M-3.7 1.6 L-3.5 1.35 -3.35 1.15 Q-3.45 0.95 -3.65 1.15 L-3.7 1.6 M-4.0 1.65 L-4.25 1.8 -4.2 2.0 -3.95 1.9 -4.0 1.65 M-5.4 1.05 Q-5.15 1.1 -4.9 0.6 -4.7 0.2 -4.8 -0.05 L-5.2 0.5 -5.4 1.05 M-5.35 1.7 L-5.1 1.6 -5.15 1.3 -5.4 1.4 -5.35 1.7 M-4.35 4.65 L-4.05 6.25 Q-3.45 6.15 -4.0 4.65 L-4.55 3.1 -4.35 4.65 M-3.35 2.65 Q-3.3 2.45 -3.05 2.5 L-3.25 1.95 -3.6 2.8 Q-3.4 2.9 -3.35 2.65 M-3.75 3.6 L-3.6 3.85 -3.3 3.95 Q-3.05 3.95 -3.5 3.45 -3.7 3.4 -3.75 3.6 M-2.55 3.5 Q-2.45 3.8 -2.6 3.85 L-2.85 3.6 Q-2.7 3.35 -2.55 3.5 M-7.0 6.35 L-7.25 7.65 -6.85 8.55 -6.75 9.55 -6.45 10.2 Q-8.3 10.85 -7.9 9.45 L-8.05 9.55 -7.0 6.35 M-11.3 6.0 L-11.5 6.15 -11.55 6.4 -11.15 6.05 -10.95 5.5 Q-11.15 5.45 -11.2 5.65 L-11.3 6.0 M-8.2 9.85 L-8.0 10.15 -7.6 10.55 -8.55 10.9 -8.2 9.85 M-7.45 9.2 Q-7.15 9.4 -7.15 9.7 -6.95 9.65 -7.05 9.35 -7.2 8.95 -7.45 9.2 M-3.35 6.6 L-3.4 6.35 Q-3.6 6.35 -3.6 6.45 L-3.55 6.7 -3.35 6.6 M-5.2 5.45 L-5.4 5.65 -5.2 5.9 -5.2 5.45 M-5.15 7.1 L-5.4 6.85 -5.4 7.35 Q-5.05 7.3 -5.15 7.1 M-15.95 12.6 Q-15.6 12.55 -15.4 11.95 -15.5 11.75 -15.7 12.15 L-15.95 12.6 M-14.85 12.6 L-14.75 12.15 -15.2 12.3 -15.1 12.6 -14.85 12.9 -14.85 12.6 M-23.15 12.7 Q-23.5 12.2 -23.65 12.55 L-23.7 13.35 Q-23.25 13.6 -23.05 13.35 -22.9 13.15 -23.15 12.7 M-37.15 4.55 Q-36.9 4.85 -37.05 5.0 L-37.6 5.15 -37.65 4.25 -37.15 4.55 M-37.95 5.15 Q-38.75 6.4 -37.95 7.8 L-40.9 5.6 -40.55 4.95 -40.05 5.0 Q-39.85 5.05 -39.8 4.7 L-37.9 4.1 -38.0 4.7 -37.95 5.15 M-36.4 4.3 Q-37.1 4.55 -36.9 3.95 -36.7 4.0 -36.4 4.3 M-36.2 4.5 L-35.0 5.35 -34.3 6.2 -34.2 6.0 -33.55 6.45 Q-33.3 6.75 -33.4 7.25 -33.1 7.3 -33.1 6.8 L-28.9 9.95 Q-27.6 10.8 -27.7 10.95 L-30.1 18.1 Q-30.2 18.5 -31.95 18.75 L-34.25 19.55 -33.75 17.5 Q-33.7 17.75 -33.45 17.35 -33.1 18.35 -33.2 17.05 -33.5 17.05 -33.5 17.25 -33.7 16.95 -33.3 15.8 L-32.65 14.15 -32.15 13.0 Q-31.95 12.4 -32.45 11.95 L-34.0 10.95 -35.2 9.65 Q-35.65 9.65 -35.9 9.35 L-36.45 8.85 -37.75 8.0 Q-37.5 8.0 -37.5 7.1 L-37.5 6.95 -37.2 7.15 -36.7 7.6 -36.4 6.95 -36.25 6.1 -36.2 4.5 M-43.2 8.65 L-41.55 9.85 Q-41.85 9.75 -41.7 10.15 L-41.85 11.0 -42.45 10.35 -42.6 10.6 Q-42.6 10.95 -42.4 10.95 -42.1 11.05 -42.2 11.25 L-42.15 11.7 Q-42.0 11.5 -41.9 11.6 L-41.7 12.45 Q-41.7 13.1 -41.85 13.3 L-42.05 13.1 -42.0 12.75 Q-42.2 12.7 -42.25 12.95 -42.3 13.15 -42.55 13.1 -42.1 13.7 -42.0 14.25 L-42.8 13.6 -43.2 13.1 Q-43.5 12.7 -43.35 13.2 L-44.8 12.2 -45.9 10.9 -46.15 11.1 -50.0 8.15 -47.05 7.15 Q-46.95 7.45 -47.2 7.6 L-46.65 7.65 Q-46.6 7.35 -46.85 7.05 L-46.2 6.85 -45.6 6.8 Q-45.1 7.15 -45.45 7.7 -44.95 8.0 -44.65 9.05 -44.4 8.95 -45.0 7.25 L-44.4 8.05 -43.85 8.1 -43.2 8.65 M-45.05 9.5 L-44.55 10.85 -44.35 11.3 -44.25 11.7 Q-43.85 11.65 -43.95 11.1 -44.05 10.55 -44.6 10.6 L-44.4 9.75 Q-44.35 9.2 -45.05 9.5 M-43.8 10.3 Q-43.65 11.2 -43.5 10.55 -43.35 9.9 -43.8 10.3 M-40.75 10.4 Q-40.45 10.65 -40.5 10.9 L-39.95 11.0 -39.45 11.45 -38.95 11.8 Q-38.8 11.9 -39.1 12.15 -38.9 12.55 -38.8 11.9 -38.05 12.45 -37.95 13.25 -37.35 13.25 -37.5 12.95 L-36.35 13.75 Q-36.2 13.9 -36.7 15.05 L-36.9 14.85 Q-37.3 17.6 -37.5 16.65 L-37.7 17.95 -38.5 20.25 -38.7 20.9 -39.2 21.2 -40.15 21.6 Q-40.7 21.7 -40.85 21.2 -41.1 21.35 -40.9 21.55 -40.85 21.8 -41.05 21.85 L-43.15 22.5 -41.75 18.55 Q-41.5 18.75 -41.3 18.55 L-41.05 18.15 -40.9 19.6 -40.5 20.95 Q-40.15 20.85 -40.45 19.75 L-40.75 18.7 -40.55 18.85 -40.4 18.8 -40.45 18.05 -40.5 17.25 -40.45 16.15 Q-40.4 15.4 -40.1 15.15 -40.45 14.85 -40.75 16.9 L-41.05 17.1 -41.15 16.85 -40.9 16.2 -40.6 15.25 -41.05 14.85 -41.4 14.4 -41.7 13.4 -41.3 13.2 -41.0 12.95 -41.0 11.8 Q-40.9 10.8 -41.2 10.95 L-41.2 10.1 -40.75 10.4 M-35.3 6.75 L-34.95 6.8 Q-34.7 6.7 -34.95 6.45 L-35.3 6.75 M-35.65 6.1 L-35.45 5.85 -35.65 5.5 -35.65 6.1 M-36.6 6.6 L-36.9 6.6 Q-36.45 5.95 -36.55 5.5 -36.25 5.6 -36.35 6.0 L-36.6 6.6 M-37.05 6.4 L-37.35 6.75 -37.5 6.7 -37.55 5.85 -37.4 6.05 -37.1 5.95 -37.05 6.4 M-39.25 5.5 Q-39.2 5.25 -39.4 5.15 L-39.6 5.75 -39.25 5.5 M-29.8 3.7 L-29.8 4.1 Q-29.4 4.05 -29.5 3.5 -29.8 3.45 -29.8 3.7 M-29.85 2.7 Q-29.4 2.8 -29.55 2.4 L-29.9 2.45 -29.85 2.7 M-30.5 2.7 L-30.05 2.6 -30.25 2.2 -30.4 1.85 -30.55 2.3 -30.5 2.7 M-45.6 10.55 L-45.6 11.0 -45.3 10.65 -45.5 10.3 -45.6 10.55 M-31.6 13.95 L-31.35 14.45 Q-30.85 14.15 -31.65 13.55 L-31.6 13.95 M-30.6 16.0 Q-31.05 16.05 -30.75 16.6 -30.25 16.55 -30.6 16.0 M-39.2 12.9 Q-39.15 13.85 -39.0 13.2 -38.75 12.6 -39.2 12.9 M-38.4 15.2 L-38.6 15.95 -38.8 16.35 Q-38.95 16.6 -38.7 16.7 L-38.3 15.7 -38.0 14.75 Q-38.2 14.6 -38.4 15.2 M-39.1 16.35 L-39.3 16.7 -39.1 17.1 Q-38.95 17.3 -38.95 17.45 -38.8 17.35 -38.9 16.4 L-38.95 15.25 Q-39.25 15.3 -39.2 15.7 L-39.1 16.35 M-39.3 17.15 Q-39.65 17.4 -39.35 18.8 L-38.95 20.6 Q-38.75 20.35 -38.95 20.1 -38.75 19.35 -38.9 18.95 L-39.1 18.1 -39.3 17.15 M-40.2 13.6 Q-40.1 13.7 -39.95 12.25 -40.3 12.3 -40.3 12.85 L-40.2 13.6 M-40.4 12.45 L-40.65 12.85 -40.75 13.3 -40.9 13.6 -41.1 13.8 -41.0 14.25 -40.85 14.65 Q-40.5 14.15 -40.55 12.95 L-40.4 13.45 Q-40.15 13.15 -40.4 12.45 M-40.15 13.7 L-40.35 13.8 -40.35 14.25 -40.15 13.7 M-39.75 16.2 Q-39.4 16.15 -39.8 15.5 L-39.9 15.9 -39.75 16.2 M-41.3 17.3 Q-40.9 17.85 -41.25 17.95 L-41.35 18.1 -41.25 18.35 Q-41.9 18.15 -41.3 17.3 M-39.8 17.15 Q-39.45 17.15 -39.5 16.85 L-39.7 16.4 Q-39.95 16.75 -39.8 17.15 M-41.25 20.45 L-41.45 20.15 Q-41.7 20.2 -41.4 20.7 L-41.1 21.1 Q-40.9 21.2 -41.25 20.45 M-39.25 20.6 L-39.25 20.9 Q-38.8 20.95 -39.0 20.6 L-39.25 20.6" fill="#000000" fill-rule="evenodd" stroke="none"/>
  </g>
</svg>
