<?xml version="1.0" encoding="UTF-8" standalone="no"?>
<svg xmlns:xlink="http://www.w3.org/1999/xlink" height="91.05px" width="100.0px" xmlns="http://www.w3.org/2000/svg">
  <g transform="matrix(1.0, 0.0, 0.0, 1.0, 50.0, 45.5)">
    <path d="M42.25 -0.65 Q32.65 -1.75 23.6 5.6 12.85 14.3 8.85 15.9 5.0 17.45 2.35 14.3 1.9 13.95 2.25 13.2 2.85 11.65 6.45 9.25 L13.0 4.45 Q18.4 0.55 23.2 -1.4 37.85 -7.5 50.0 1.9 47.0 -0.15 42.25 -0.65" fill="#050505" fill-rule="evenodd" stroke="none"/>
    <path d="M0.3 10.65 Q-1.75 12.2 -3.6 10.45 -4.95 9.3 -3.95 8.0 -3.1 6.95 1.0 3.9 L10.4 -3.45 Q16.45 -7.4 18.75 -4.05 19.3 -3.1 17.05 -1.55 L9.55 3.45 Q1.75 8.85 0.3 10.65" fill="#050505" fill-rule="evenodd" stroke="none"/>
    <path d="M13.65 -9.7 Q14.3 -8.75 12.2 -7.15 L4.75 -1.75 Q-2.95 4.05 -4.3 5.95 -4.8 6.35 -5.6 6.55 -7.1 6.95 -8.55 5.85 -10.1 4.65 -9.15 3.3 -8.5 2.15 -4.4 -1.05 L4.75 -8.85 Q10.75 -13.05 13.65 -9.7" fill="#050505" fill-rule="evenodd" stroke="none"/>
    <path d="M-37.7 11.15 L-42.45 10.2 Q-47.75 8.6 -50.0 5.35 -48.6 6.2 -47.35 7.05 -43.75 8.65 -39.3 8.65 -25.15 8.5 -7.45 -8.65 L-2.95 -12.7 Q1.95 -16.5 4.15 -15.4 6.65 -14.15 6.4 -13.2 6.2 -12.5 4.0 -10.8 -1.55 -5.1 -9.5 0.55 -25.5 11.85 -37.7 11.15" fill="#050505" fill-rule="evenodd" stroke="none"/>
    <path d="M15.6 23.0 Q16.35 29.6 18.05 35.55 19.75 41.55 24.55 44.1 26.85 45.4 28.9 45.5 23.45 46.05 18.75 41.65 L15.15 37.1 Q13.8 35.75 11.3 27.2 8.6 17.95 10.05 15.9 11.4 14.05 13.35 15.65 14.4 16.45 15.05 17.65 L15.6 23.0" fill="#050505" fill-rule="evenodd" stroke="none"/>
    <path d="M-18.5 -45.5 Q-8.25 -41.25 -3.7 -29.35 -1.4 -23.4 -1.25 -18.35 -0.7 -16.3 -2.25 -14.85 -3.6 -13.55 -5.6 -13.75 -7.05 -13.9 -7.55 -16.8 L-7.8 -19.65 Q-7.7 -31.7 -13.1 -39.8 L-18.5 -45.5" fill="#050505" fill-rule="evenodd" stroke="none"/>
  </g>
</svg>
