<?xml version="1.0" encoding="UTF-8" standalone="no"?>
<svg xmlns:xlink="http://www.w3.org/1999/xlink" height="97.4px" width="100.0px" xmlns="http://www.w3.org/2000/svg">
  <g transform="matrix(1.0, 0.0, 0.0, 1.0, 50.0, 48.7)">
    <path d="M27.9 -23.6 L28.7 -24.3 Q28.7 -23.9 28.35 -23.6 28.0 -23.3 27.9 -23.6 M28.55 -28.05 Q29.9 -27.6 28.7 -27.45 27.6 -27.2 28.55 -28.05 M30.4 -26.1 L30.05 -25.8 Q29.8 -26.35 30.05 -26.55 L30.4 -26.1 M29.6 -28.45 Q29.25 -27.45 29.1 -28.7 29.95 -29.45 29.6 -28.45 M33.55 -26.55 Q33.2 -26.95 33.65 -27.2 34.0 -27.45 34.3 -27.05 L33.55 -26.55 M30.4 -31.05 L30.65 -30.8 30.5 -30.8 30.4 -31.05 M31.45 -31.55 Q32.15 -31.1 31.0 -31.5 30.7 -32.0 31.45 -31.55 M25.55 -34.35 L25.55 -34.5 25.75 -34.6 25.7 -34.35 25.55 -34.35 M24.45 -34.5 Q24.8 -32.65 25.35 -32.65 L20.6 -33.35 Q19.8 -33.1 18.9 -30.7 18.1 -28.3 18.4 -27.6 L16.95 -29.7 Q16.8 -30.1 18.35 -33.2 22.0 -34.65 23.05 -36.95 23.95 -36.5 24.45 -34.5 M26.2 -34.95 Q26.5 -35.0 26.8 -34.7 L25.85 -34.5 26.2 -34.95 M22.0 -29.05 Q20.7 -29.35 21.65 -29.2 L22.0 -29.05 M-18.25 -35.85 Q-18.8 -35.15 -18.25 -35.25 -17.7 -35.25 -18.25 -35.85 M-18.95 -37.65 Q-18.85 -37.35 -19.15 -37.35 L-19.15 -37.6 -18.95 -37.65 M-17.85 -37.45 L-17.75 -37.45 Q-17.6 -37.45 -17.7 -37.3 L-17.9 -37.3 -17.85 -37.45 M-24.25 -42.1 L-24.1 -41.7 Q-27.75 -48.5 -28.8 -48.7 -26.65 -48.35 -24.25 -42.1 M-14.6 -45.4 Q-14.3 -44.8 -15.45 -43.2 -16.55 -41.55 -17.3 -41.55 -18.1 -41.5 -17.4 -44.35 -14.9 -46.15 -14.6 -45.4 M-13.4 -39.75 Q-13.8 -41.85 -12.95 -39.95 -12.15 -38.05 -13.4 -39.75 M-13.4 -42.3 Q-14.75 -41.5 -13.4 -42.65 -12.15 -43.9 -13.4 -42.3 M-10.1 -42.1 Q-10.3 -41.85 -10.4 -42.15 L-10.25 -42.25 -10.1 -42.1 M24.6 -29.8 Q23.65 -30.0 24.35 -30.3 25.1 -30.55 24.6 -29.8 M43.3 -19.65 L43.3 -19.5 Q43.3 -19.35 43.05 -19.4 L43.05 -19.65 43.3 -19.65 M42.35 -19.2 Q40.95 -18.45 42.25 -19.55 43.75 -19.95 42.35 -19.2 M39.3 -16.05 L39.55 -16.05 39.45 -15.8 39.3 -15.8 39.3 -16.05 M39.1 -21.25 L39.15 -21.05 38.85 -21.1 39.1 -21.25 M40.25 -20.95 L41.4 -20.9 Q42.05 -20.75 42.4 -21.2 42.1 -20.0 41.4 -18.85 L40.2 -19.65 Q39.25 -20.65 40.25 -20.95 M35.55 -23.25 Q36.3 -25.4 36.15 -23.25 34.8 -21.1 35.55 -23.25 M37.55 -24.3 L37.25 -24.0 Q37.05 -24.3 37.2 -24.35 L37.55 -24.3 M43.5 -21.1 L43.75 -21.05 Q43.6 -21.65 45.45 -22.0 L48.45 -22.65 50.0 -21.35 46.95 -20.65 44.25 -20.45 43.9 -20.75 43.2 -20.8 42.9 -21.2 42.65 -21.25 42.65 -21.35 42.8 -21.4 42.85 -21.35 43.5 -21.1 M44.75 -24.65 L44.9 -24.7 44.85 -24.55 44.7 -24.55 44.75 -24.65 M28.5 -20.95 Q29.45 -20.65 28.7 -20.45 28.0 -20.25 28.5 -20.95 M32.75 -13.3 Q32.4 -13.0 32.15 -13.3 31.95 -13.6 32.1 -13.9 L32.75 -13.85 Q33.15 -13.7 32.75 -13.3 M30.85 -14.4 L30.75 -14.65 Q30.85 -14.55 31.0 -14.55 L31.05 -14.4 30.85 -14.4 M30.4 -12.3 Q30.85 -12.35 30.9 -11.85 L30.55 -11.75 Q29.95 -12.15 30.4 -12.3 M23.2 -15.65 L23.95 -15.3 Q24.35 -16.1 23.65 -16.35 22.9 -16.5 23.2 -15.65 M22.45 -19.35 Q22.15 -19.55 22.6 -19.4 L23.1 -19.2 Q22.75 -19.05 22.45 -19.35 M26.05 -17.45 Q27.75 -17.05 26.0 -18.15 24.35 -17.8 26.05 -17.45 M25.55 -24.5 Q23.7 -23.4 24.2 -24.35 20.85 -23.4 24.15 -24.5 L27.55 -25.55 25.55 -24.5 M24.6 -22.65 L25.05 -22.75 24.35 -22.15 24.6 -22.65 M20.3 -21.4 Q22.4 -22.6 22.6 -22.15 L20.3 -20.5 Q21.2 -18.6 23.4 -19.0 23.25 -19.15 23.85 -19.4 L23.5 -19.85 Q23.4 -20.6 23.85 -19.8 L24.0 -19.5 Q24.65 -19.95 24.6 -20.6 24.65 -20.5 25.4 -20.3 L25.55 -20.65 25.6 -20.25 31.0 -19.2 36.95 -18.0 Q36.6 -17.05 35.55 -16.65 35.25 -16.5 36.45 -14.85 36.15 -14.55 30.4 -16.2 32.45 -17.35 30.9 -18.25 L28.2 -19.15 Q28.55 -19.0 28.2 -18.3 L27.75 -17.15 Q29.4 -19.15 29.15 -14.55 L28.85 -11.25 28.85 -11.4 Q29.4 -12.35 29.6 -10.95 L28.8 -10.8 28.8 -10.9 28.7 -10.9 28.8 -10.8 28.65 -10.0 27.3 -10.8 Q25.9 -11.7 25.7 -10.35 L25.9 -9.7 Q26.15 -8.6 26.35 -9.1 L25.6 -7.35 24.8 -7.6 Q23.2 -8.0 24.05 -6.6 L24.2 -6.4 25.2 -6.45 Q25.6 -5.75 24.95 -5.9 L24.45 -6.05 25.6 -3.95 Q24.65 -5.3 26.05 -2.2 L25.05 -2.65 Q26.05 -2.0 23.55 -2.05 24.8 -1.45 24.2 -1.7 L23.2 -2.15 Q23.55 -1.1 22.15 1.85 21.5 1.1 22.15 1.6 L21.55 1.1 20.7 0.75 Q19.9 0.0 21.05 0.65 L21.3 0.8 21.2 0.75 19.95 -0.35 Q19.15 -0.2 18.6 0.15 20.75 2.85 21.35 2.8 L21.3 2.7 21.4 2.55 21.5 2.65 21.65 2.65 21.55 2.85 21.4 2.85 20.25 3.4 Q22.55 3.15 21.05 5.3 L18.5 5.5 Q16.4 5.5 16.1 6.2 15.85 8.6 17.95 9.5 L16.95 7.95 Q18.05 8.85 17.9 7.7 L21.55 8.55 Q24.75 9.2 23.95 10.6 24.2 10.95 21.05 12.8 22.25 12.95 22.15 12.2 L22.55 12.8 21.85 13.4 Q20.75 14.65 21.35 14.55 L23.65 14.95 Q25.2 15.3 25.55 15.65 24.65 15.6 23.95 16.1 23.2 16.65 23.5 16.9 22.8 16.9 22.45 16.2 L21.8 15.15 Q22.25 15.75 21.8 15.8 L21.5 15.75 Q21.5 16.7 20.3 16.75 20.6 18.55 22.1 17.95 L21.3 18.9 Q20.85 19.55 21.65 19.8 21.55 19.2 22.25 18.75 L22.1 18.4 Q22.8 17.95 22.55 18.55 L22.55 18.6 Q23.35 18.25 23.7 18.75 L23.05 19.5 Q22.45 20.45 22.6 20.4 22.95 20.65 23.4 20.1 23.7 19.7 24.45 21.35 24.0 21.35 23.1 23.7 22.3 26.05 24.0 25.8 L23.4 28.3 Q23.2 30.8 25.2 29.15 25.05 28.05 24.8 29.15 24.8 27.35 23.85 27.35 L24.3 26.8 24.9 25.75 24.95 25.6 25.75 25.9 26.8 26.1 Q26.35 26.4 26.8 27.0 27.25 26.1 28.05 27.45 L29.15 25.4 31.35 25.6 Q30.65 27.0 30.2 26.9 30.1 26.9 30.05 27.0 29.5 27.3 29.9 26.8 L29.95 26.8 29.9 26.7 29.75 26.55 Q29.25 26.05 28.85 26.85 29.15 27.15 31.2 27.9 33.05 28.45 33.05 28.6 32.05 28.2 30.9 29.45 L30.05 30.75 26.6 30.95 Q24.65 30.95 25.1 30.15 23.7 32.65 22.6 32.45 L19.15 31.85 Q19.15 32.75 18.2 34.0 17.35 35.0 17.65 36.05 15.85 34.2 16.05 31.1 16.25 28.6 17.9 29.8 L18.6 30.55 Q19.15 27.35 19.6 26.35 18.75 27.05 18.9 26.7 19.15 26.1 18.1 26.5 L18.35 26.55 Q19.15 28.55 15.25 28.3 15.15 27.2 14.45 27.6 13.85 27.8 14.35 28.25 L9.7 27.75 11.05 26.85 11.65 26.4 13.25 24.8 10.5 24.7 Q10.1 24.65 9.5 23.1 L8.75 21.35 8.4 22.5 Q8.1 23.45 7.65 23.25 7.15 22.35 7.5 21.9 7.75 21.65 7.2 21.35 5.45 22.8 6.75 23.05 8.0 23.25 7.05 23.9 6.1 23.15 5.05 23.7 5.95 24.15 5.35 24.15 L7.95 24.0 7.95 24.15 Q7.45 25.65 5.2 26.5 L2.3 26.65 2.2 26.55 2.3 26.55 Q3.15 26.55 2.35 25.55 L1.9 25.8 1.9 25.9 1.85 26.05 1.85 25.8 1.4 25.9 -0.5 25.9 -0.3 27.45 -1.55 27.0 -1.65 28.25 -2.8 27.65 -2.8 27.3 Q-3.25 27.05 -3.15 26.8 L-3.4 26.65 -3.3 26.2 -3.1 26.55 -2.75 26.05 -1.85 25.0 Q-3.1 25.4 -3.1 26.35 L-3.3 26.2 -4.05 25.4 Q-5.45 23.9 -5.4 25.0 L-3.55 27.2 -5.25 26.35 Q-5.95 25.95 -6.2 25.15 -6.5 25.1 -6.25 24.85 -6.5 24.05 -6.25 23.05 L-9.0 22.3 -10.85 22.0 Q-12.75 21.9 -13.4 23.05 -12.5 21.5 -14.0 21.9 L-16.05 26.55 Q-18.35 31.35 -19.65 31.5 -18.85 31.4 -18.85 27.15 L-18.85 27.05 -19.8 26.7 Q-20.9 25.6 -19.45 26.55 L-18.85 27.0 -18.85 25.0 Q-20.1 26.65 -22.75 26.1 L-23.0 26.1 Q-23.2 25.65 -22.55 25.45 -21.75 25.15 -22.25 24.95 -23.55 23.05 -24.0 22.9 -24.6 22.65 -23.85 24.55 -23.35 25.9 -23.95 25.9 -25.55 25.45 -24.45 25.1 L-28.85 22.95 Q-31.3 22.65 -27.75 20.1 -26.0 18.75 -23.4 17.35 L-24.15 17.0 -25.1 16.75 Q-25.4 15.3 -23.7 15.95 L-22.6 16.5 -22.6 16.2 Q-22.25 15.25 -21.15 15.5 L-21.8 14.4 -21.2 15.1 Q-21.5 14.5 -20.9 14.0 L-21.95 14.1 -22.55 13.55 -22.75 14.65 Q-23.05 15.65 -23.85 15.3 -25.4 14.65 -24.3 14.0 -23.2 13.3 -22.4 13.45 -23.15 12.85 -23.15 12.15 -23.2 11.1 -23.4 10.75 L-24.3 11.6 Q-25.2 12.2 -25.25 12.0 L-25.1 11.85 Q-24.45 11.7 -26.15 9.65 -26.6 11.75 -27.25 10.5 -27.05 11.2 -27.85 11.05 -28.35 11.35 -28.45 10.25 L-28.5 8.55 -28.95 9.35 Q-29.3 10.25 -28.85 10.45 L-31.5 10.25 -33.6 9.7 -37.5 8.3 Q-41.3 7.0 -41.45 7.35 -41.0 6.1 -35.95 5.2 -31.15 4.35 -31.4 3.95 L-30.8 5.2 -29.55 6.4 -29.85 5.8 Q-30.05 5.1 -29.25 4.85 -28.0 4.5 -28.05 4.35 -29.25 4.1 -28.2 4.1 L-29.7 3.9 Q-30.0 3.9 -29.0 2.95 -28.8 3.95 -28.35 2.65 -29.4 2.7 -30.2 3.55 -29.9 3.0 -30.85 2.7 -30.5 2.95 -31.25 3.4 L-32.7 4.4 Q-33.3 5.1 -35.7 1.2 L-35.55 1.2 -35.5 1.05 Q-35.5 0.95 -35.8 0.95 L-35.8 1.1 Q-38.2 -2.7 -36.7 -4.55 -37.05 -4.05 -35.7 -4.1 -34.15 -4.2 -34.9 -4.5 L-35.5 -5.35 Q-35.95 -6.35 -34.75 -6.1 L-37.95 -7.85 -37.95 -8.0 -37.7 -8.0 Q-37.2 -8.55 -37.8 -8.25 L-37.95 -8.1 Q-38.2 -9.65 -36.15 -14.0 -33.95 -18.7 -34.1 -19.2 -34.9 -22.35 -33.6 -22.5 -33.0 -22.6 -29.6 -21.2 -29.9 -23.85 -25.4 -23.7 L-23.8 -23.45 -24.1 -23.7 Q-23.8 -23.7 -23.7 -23.9 -23.3 -23.6 -23.5 -23.45 L-23.65 -23.4 Q-21.75 -22.75 -23.5 -20.1 L-20.5 -20.4 Q-21.6 -21.25 -21.65 -23.7 -21.8 -25.65 -21.2 -26.85 -21.5 -26.25 -20.1 -27.8 L-19.25 -28.7 Q-18.8 -27.5 -17.75 -26.8 -16.65 -26.7 -18.7 -28.75 L-18.95 -29.0 -19.0 -29.05 -20.1 -29.95 -19.65 -30.4 Q-19.75 -30.15 -19.3 -29.85 -20.05 -30.4 -19.15 -29.35 L-18.85 -29.2 -18.8 -29.15 Q-17.75 -28.6 -18.95 -29.55 L-19.1 -29.7 -18.5 -29.35 Q-17.95 -29.95 -22.55 -38.75 -20.85 -36.4 -18.8 -36.95 -17.15 -37.2 -17.15 -35.6 L-17.15 -35.25 Q-17.85 -35.6 -17.25 -35.0 L-17.55 -33.6 Q-17.3 -34.6 -18.25 -34.8 -18.5 -33.75 -19.75 -34.45 L-17.6 -30.95 -17.45 -30.75 Q-16.35 -29.45 -15.1 -29.35 L-14.95 -29.7 -14.45 -32.15 -12.9 -29.7 -12.9 -29.2 Q-12.6 -28.25 -12.45 -29.3 -11.4 -28.4 -11.2 -30.4 -11.85 -30.15 -11.05 -32.0 L-9.95 -34.15 -9.8 -30.95 Q-9.65 -28.25 -9.0 -29.05 -9.5 -29.3 -5.15 -29.55 L-4.65 -29.55 Q-4.7 -29.2 -5.4 -28.75 -6.55 -28.05 -6.55 -29.2 -7.15 -28.75 -5.95 -27.05 L-4.35 -25.15 -4.65 -25.95 -4.55 -27.6 Q-4.35 -28.9 -4.65 -29.55 L-3.15 -29.7 -2.3 -29.7 -2.15 -29.7 Q-1.1 -29.7 -1.35 -29.5 L-1.4 -29.2 Q-1.85 -27.8 -1.75 -26.85 L-1.5 -25.15 -0.65 -25.3 Q-0.45 -25.3 -0.35 -22.8 -0.25 -20.65 1.85 -22.3 0.95 -22.8 0.75 -24.3 1.55 -24.2 2.5 -25.15 3.45 -23.9 6.25 -23.55 6.4 -24.05 5.9 -24.65 5.0 -25.65 2.8 -25.45 L4.05 -27.15 Q6.1 -30.3 6.75 -30.45 7.3 -30.55 11.1 -28.4 10.8 -27.45 9.7 -27.05 9.95 -26.35 11.8 -26.35 L12.95 -26.1 13.6 -26.85 14.55 -27.9 17.3 -23.9 Q18.05 -22.5 18.1 -21.55 L18.35 -21.5 Q18.85 -21.2 18.35 -20.65 L18.05 -20.75 17.6 -20.0 20.3 -21.4 M20.7 -24.0 L21.15 -23.6 20.55 -23.55 Q20.3 -23.6 20.7 -24.0 M21.35 -27.8 Q23.1 -27.45 22.9 -25.95 22.65 -24.4 20.7 -25.1 L19.75 -26.8 19.15 -25.95 Q18.5 -25.15 19.05 -26.1 L18.9 -26.35 Q18.75 -26.85 19.6 -27.05 18.55 -29.05 19.35 -28.9 20.0 -28.75 21.35 -27.8 M-17.25 -35.0 L-17.15 -35.25 -16.7 -35.0 Q-15.25 -34.15 -16.95 -34.8 L-17.25 -35.0 M-22.6 -30.25 Q-23.55 -30.75 -23.4 -30.75 L-21.8 -30.1 -21.95 -30.6 -21.2 -29.85 -22.1 -29.2 -21.95 -29.05 -22.15 -29.05 -22.15 -29.15 Q-22.75 -28.85 -22.85 -29.3 L-22.6 -30.25 M-21.45 -33.75 Q-20.6 -33.4 -21.6 -33.45 -22.55 -33.55 -21.45 -33.75 M-23.95 -33.45 Q-23.05 -32.95 -24.0 -33.35 -24.95 -33.6 -23.95 -33.45 M-15.3 -33.7 Q-14.45 -33.6 -14.45 -32.15 L-15.3 -33.7 M-16.15 -33.9 Q-16.45 -32.95 -16.85 -33.9 -17.3 -34.85 -16.15 -33.9 M-13.35 -35.95 Q-14.05 -36.25 -13.55 -36.4 -12.95 -36.65 -13.35 -35.95 M-14.9 -35.4 Q-14.8 -35.15 -14.95 -35.1 -15.2 -34.95 -15.25 -34.95 L-15.1 -35.3 Q-15.1 -35.45 -14.9 -35.4 M-14.45 -34.95 L-14.35 -34.6 -14.6 -34.2 -14.45 -34.95 M-15.9 -35.9 L-15.9 -35.75 -16.15 -35.75 -16.15 -35.9 -15.9 -35.9 M-11.35 -36.55 Q-11.7 -36.95 -11.5 -37.15 -11.25 -37.35 -10.9 -36.85 L-11.35 -36.55 M-11.35 -30.25 L-11.55 -29.95 -11.55 -30.15 Q-11.4 -30.15 -11.35 -30.25 M-0.45 -35.45 Q0.15 -36.8 0.05 -35.25 0.0 -33.6 -0.45 -35.45 M1.85 -36.7 Q2.65 -36.8 1.85 -36.05 0.95 -36.65 1.85 -36.7 M-8.25 -30.6 Q-8.45 -30.45 -8.55 -30.45 -8.75 -30.6 -7.15 -32.2 -7.2 -31.2 -8.25 -30.6 M-6.95 -35.55 L-7.1 -35.6 -7.0 -35.75 -6.95 -35.55 M-5.9 -35.0 Q-6.2 -34.7 -6.35 -34.85 -6.55 -34.95 -6.55 -35.4 -6.1 -35.25 -5.9 -35.0 M-9.05 -36.25 Q-8.75 -36.2 -9.05 -35.25 -9.45 -34.2 -9.95 -34.2 L-9.05 -36.25 M-3.85 -38.55 Q-3.7 -37.95 -3.9 -37.95 -4.3 -38.1 -4.3 -38.45 -4.0 -39.15 -3.85 -38.55 M-7.1 -39.35 L-5.75 -42.0 Q-4.55 -44.2 -4.05 -43.7 -3.85 -43.5 -7.0 -35.75 L-7.35 -36.7 Q-7.9 -37.75 -8.05 -36.7 L-8.1 -35.0 Q-8.35 -33.85 -8.85 -34.15 -8.25 -33.7 -9.0 -32.95 -9.2 -32.95 -8.9 -34.2 L-7.1 -39.35 M-7.5 -43.05 Q-7.0 -42.8 -7.6 -42.5 -8.1 -43.25 -7.5 -43.05 M-3.05 -43.35 Q-3.15 -44.0 -2.75 -43.55 -2.9 -42.6 -3.05 -43.35 M3.8 -41.35 L3.8 -41.0 3.6 -41.1 3.8 -41.35 M17.5 -35.85 Q17.0 -36.35 17.9 -36.65 17.95 -36.25 17.5 -35.85 M14.65 -33.9 L14.7 -34.2 14.95 -34.05 14.65 -33.9 M14.5 -31.5 Q15.55 -31.25 15.75 -30.0 15.95 -28.85 15.45 -28.4 14.5 -27.45 13.9 -28.9 13.4 -30.4 14.5 -31.5 M9.4 -30.55 L9.2 -30.0 Q9.35 -30.6 9.0 -31.05 L9.4 -30.55 M9.8 -32.0 L9.55 -32.0 9.55 -32.2 Q9.85 -32.3 9.8 -32.0 M6.2 -30.8 Q6.05 -30.45 5.8 -30.45 5.5 -30.45 5.35 -30.8 5.75 -31.5 6.2 -30.8 M7.65 -36.2 L7.95 -35.95 Q7.6 -35.75 7.45 -36.05 L7.65 -36.2 M12.35 -36.1 L9.4 -34.6 Q10.15 -33.9 7.15 -32.8 L3.95 -31.8 Q4.35 -32.45 8.4 -34.3 L12.35 -36.1 M6.75 -41.65 Q7.15 -41.65 6.7 -41.25 6.25 -40.9 6.35 -41.5 L6.75 -41.65 M9.0 -44.2 Q8.55 -44.85 9.15 -44.65 9.65 -44.45 9.0 -44.2 M8.3 -42.75 Q10.0 -43.25 8.75 -42.15 6.6 -42.25 8.3 -42.75 M16.25 -39.85 Q16.05 -39.8 16.1 -40.1 L16.25 -40.1 16.25 -39.85 M13.7 -45.1 Q13.2 -45.15 13.1 -45.6 13.05 -46.05 13.55 -46.0 L14.0 -45.45 Q14.15 -45.0 13.7 -45.1 M-23.4 -26.8 Q-23.5 -25.9 -28.6 -29.5 -23.35 -28.05 -23.4 -26.8 M-24.6 -20.75 Q-23.0 -20.45 -23.95 -21.35 -24.9 -22.2 -24.6 -20.75 M-20.55 -18.6 L-20.6 -18.85 Q-20.85 -19.8 -22.0 -19.85 -22.55 -18.9 -21.9 -17.9 -21.15 -16.85 -19.75 -17.5 -20.25 -17.75 -20.55 -18.6 M-22.0 -11.85 Q-22.45 -12.3 -22.55 -11.85 -22.7 -11.4 -22.0 -11.4 L-22.0 -11.85 M-22.9 -23.85 Q-22.6 -24.8 -22.7 -23.4 -23.2 -22.9 -22.9 -23.85 M-21.75 -27.45 L-21.9 -27.6 -21.5 -27.5 -21.75 -27.45 M-23.2 -29.15 L-23.35 -29.15 -23.3 -29.15 -23.2 -29.15 M-9.85 -25.8 Q-9.3 -24.85 -9.95 -25.25 -10.6 -25.6 -9.85 -25.8 M-13.35 -25.0 L-13.8 -25.25 -14.15 -24.8 Q-14.05 -24.7 -14.3 -23.9 -14.35 -23.05 -14.0 -22.75 -13.4 -24.35 -13.35 -25.0 M-15.45 -27.95 L-15.45 -28.05 -15.4 -28.2 -15.4 -28.25 Q-17.55 -29.5 -17.25 -28.05 L-16.55 -27.6 -16.0 -26.4 Q-16.0 -27.0 -15.45 -26.4 -15.2 -25.95 -15.45 -27.95 M-12.45 -29.3 L-12.9 -29.7 -12.45 -29.45 -12.45 -29.3 M-13.1 -26.1 L-13.05 -26.35 Q-11.5 -25.65 -14.95 -27.95 L-13.55 -26.35 -13.35 -26.05 -13.1 -26.1 M-26.65 -16.35 Q-28.0 -14.8 -27.2 -13.0 -25.5 -11.55 -26.65 -16.35 M-29.25 -12.6 Q-28.45 -11.9 -28.5 -12.65 L-29.25 -12.6 M-31.25 -12.2 L-31.45 -12.45 Q-31.9 -11.25 -31.6 -11.35 L-30.95 -11.6 Q-30.0 -11.25 -31.25 -12.2 M-29.75 -16.4 Q-29.85 -17.2 -30.4 -16.55 -29.75 -15.5 -29.75 -16.4 M-29.15 -19.35 L-29.15 -19.15 -28.95 -19.2 -28.95 -19.4 -29.15 -19.35 M-27.9 -17.45 Q-27.45 -17.8 -27.9 -18.0 -28.3 -18.25 -28.6 -17.65 L-27.9 -17.45 M-35.15 -13.55 Q-34.3 -14.1 -35.05 -14.55 -35.35 -14.1 -35.15 -13.55 M-33.2 -12.8 L-33.9 -13.9 Q-33.95 -12.85 -33.5 -11.9 L-34.15 -11.9 -33.8 -11.7 -33.5 -11.9 -33.2 -11.4 Q-32.55 -11.6 -33.2 -12.8 M-32.85 -13.4 Q-33.5 -13.0 -32.55 -12.2 -31.6 -11.5 -32.85 -13.4 M-32.7 -14.55 Q-31.6 -14.5 -32.85 -15.0 -33.75 -14.65 -32.7 -14.55 M-37.4 -20.1 L-37.05 -20.15 Q-37.5 -19.15 -37.4 -20.1 M-37.65 -19.15 Q-37.95 -18.9 -38.2 -18.9 L-37.55 -19.5 Q-37.35 -19.35 -37.65 -19.15 M-39.35 -18.25 Q-38.5 -18.4 -38.75 -17.9 -38.95 -17.35 -39.55 -18.0 L-39.35 -18.25 M-38.1 -16.75 L-37.7 -16.75 Q-34.75 -16.5 -38.2 -16.05 -40.2 -16.85 -38.5 -16.75 L-38.1 -16.75 M-35.5 -19.35 Q-35.3 -18.85 -35.45 -18.55 L-35.95 -19.15 Q-36.0 -19.4 -35.5 -19.35 M-32.85 -19.85 L-32.7 -19.15 Q-32.05 -19.4 -32.85 -19.85 M-38.3 -23.1 L-38.1 -23.1 Q-38.0 -22.9 -38.3 -22.9 L-38.3 -23.1 M-26.35 -25.15 Q-25.55 -25.45 -26.15 -24.7 -27.1 -24.95 -26.35 -25.15 M-27.2 -22.9 Q-27.75 -21.8 -26.75 -22.2 -25.65 -22.65 -27.2 -22.9 M-27.55 -25.3 L-27.55 -25.1 Q-28.0 -24.95 -27.75 -25.3 L-27.55 -25.3 M-31.95 -34.35 Q-31.15 -33.7 -31.9 -33.7 -32.55 -33.6 -31.95 -34.35 M-26.05 -30.7 L-25.95 -31.1 -25.65 -30.9 Q-25.85 -30.6 -26.05 -30.7 M-31.65 -36.2 L-31.65 -36.4 -31.5 -36.5 -31.5 -36.25 -31.65 -36.2 M-25.8 -38.9 L-26.0 -38.9 -26.0 -39.15 Q-25.7 -39.2 -25.8 -38.9 M-29.75 -41.35 Q-29.0 -40.9 -30.0 -41.0 -30.95 -41.1 -29.75 -41.35 M-1.4 -29.2 L-0.65 -29.65 0.0 -30.3 Q-0.1 -29.95 0.15 -29.85 0.65 -30.45 1.45 -30.75 2.55 -31.8 3.0 -31.25 L1.45 -30.75 1.0 -30.45 0.15 -29.85 Q-1.05 -28.7 -1.05 -26.55 -1.4 -27.0 -0.8 -28.45 -0.35 -29.55 -1.4 -29.2 M3.4 -34.05 L3.6 -34.05 3.75 -33.9 Q3.55 -33.75 3.4 -34.05 M-0.95 -30.9 Q0.0 -30.8 -0.8 -30.1 -1.7 -29.35 -0.95 -30.9 M2.5 -25.15 L2.35 -25.45 2.8 -25.45 2.5 -25.15 M12.6 15.25 L11.8 14.65 Q11.5 15.15 11.8 15.45 12.15 15.75 12.6 15.25 M20.0 14.0 Q19.15 13.15 18.4 14.0 L17.1 15.6 Q17.6 16.2 18.35 15.0 18.7 14.5 18.4 15.95 19.8 15.35 20.0 14.0 M20.15 15.15 L19.8 15.1 20.3 15.5 20.15 15.15 M17.65 12.05 L17.45 12.05 Q16.25 11.9 16.7 13.0 L17.65 12.05 M19.3 12.5 L19.5 12.95 19.75 12.5 19.3 12.5 M15.6 11.35 Q14.2 10.45 15.6 12.0 16.1 12.5 16.7 10.8 L17.65 11.85 17.45 11.2 Q16.8 10.15 15.6 11.35 M15.55 13.25 Q15.0 12.75 14.7 13.1 14.7 13.75 14.95 13.55 15.4 13.15 15.95 14.1 L15.55 13.25 M13.6 12.95 L13.3 12.2 Q12.9 11.2 13.7 13.7 13.45 12.95 12.65 13.15 14.0 14.25 13.9 13.75 L13.6 12.95 M19.45 9.4 Q19.65 9.8 20.15 9.65 20.15 9.05 19.75 8.7 19.2 9.05 19.45 9.4 M19.2 9.55 Q17.95 9.95 19.45 10.35 21.0 10.8 19.2 9.55 M3.75 21.25 Q4.55 20.3 3.4 20.8 2.2 21.25 3.75 21.25 M5.05 21.9 Q4.2 22.45 5.05 22.9 5.3 22.45 5.05 21.9 M0.75 21.1 L1.4 21.55 Q0.35 21.65 0.15 22.15 -0.1 22.75 1.1 22.45 2.35 22.15 1.15 21.35 L0.75 21.1 M1.75 19.05 L1.7 18.85 1.4 18.75 1.55 19.0 1.75 19.05 M-6.25 20.95 Q-6.35 21.7 -5.9 22.05 -4.35 20.5 -6.4 19.65 -6.2 20.0 -6.25 20.95 M-6.05 14.35 Q-5.9 13.45 -6.85 14.4 -6.25 15.25 -6.05 14.35 M18.85 6.4 L18.55 5.9 Q19.15 5.65 19.5 6.4 L18.85 6.4 M18.75 3.9 Q19.45 4.35 19.05 3.55 18.1 3.45 18.75 3.9 M18.6 -3.15 Q18.1 -4.7 19.95 -4.5 19.05 -5.2 16.8 -7.8 17.6 -5.8 16.4 -7.0 16.25 -5.6 18.5 -2.85 L19.0 -2.3 18.6 -3.15 M17.3 -9.05 Q17.65 -8.6 18.75 -8.75 19.8 -8.9 19.5 -9.4 19.0 -8.6 18.1 -9.5 L17.9 -9.8 Q17.95 -9.35 17.3 -9.05 M15.1 -21.65 Q13.4 -21.25 14.95 -20.6 16.55 -19.85 15.1 -21.65 M17.65 -16.05 Q17.8 -15.9 18.25 -16.05 L18.35 -15.95 Q19.35 -16.7 18.05 -17.05 16.85 -17.3 17.95 -16.25 L17.65 -16.55 Q17.35 -16.2 17.65 -16.05 M17.15 -13.75 Q19.0 -14.2 17.0 -14.35 15.4 -13.3 17.15 -13.75 M19.9 -15.3 Q19.5 -15.5 19.5 -14.85 L19.9 -14.55 Q20.25 -15.1 19.9 -15.3 M15.75 -12.65 Q15.45 -14.65 14.55 -13.7 14.15 -13.15 14.15 -11.6 14.15 -10.35 13.75 -10.3 L14.5 -10.25 Q14.5 -11.05 15.55 -10.95 16.1 -10.45 15.75 -12.65 M15.75 -17.75 L16.2 -18.15 15.75 -18.0 Q15.6 -18.0 15.75 -17.75 M15.25 -17.95 Q15.6 -18.25 15.45 -18.55 15.3 -18.9 14.85 -18.85 14.45 -18.4 15.25 -17.95 M16.55 -18.3 Q18.05 -17.6 17.25 -19.0 15.15 -19.05 16.55 -18.3 M19.9 -19.2 Q18.7 -19.2 19.2 -18.45 19.75 -17.75 20.4 -18.7 L19.9 -19.2 M16.65 -18.3 L16.65 -18.45 16.85 -18.45 16.85 -18.3 16.65 -18.3 M7.8 -26.7 Q6.75 -26.05 8.15 -25.4 9.65 -24.8 7.8 -26.7 M10.25 -22.3 L9.65 -22.35 10.4 -21.7 10.25 -22.3 M10.3 -25.15 Q10.45 -24.8 10.95 -24.8 11.05 -25.15 10.75 -25.6 10.25 -25.45 10.3 -25.15 M6.75 -27.05 Q6.4 -27.75 5.95 -27.15 5.5 -26.65 6.35 -26.25 L7.2 -27.15 Q7.85 -27.75 8.25 -27.8 7.85 -28.3 7.45 -27.95 L6.75 -27.05 M12.35 -29.8 Q13.2 -29.45 12.3 -29.05 11.5 -28.7 11.8 -29.55 10.65 -30.1 11.85 -30.4 13.1 -30.7 12.35 -29.8 M20.1 -21.8 Q19.75 -20.8 20.0 -22.05 20.45 -22.75 20.1 -21.8 M13.55 -22.0 Q15.15 -21.8 15.0 -24.0 14.2 -25.55 13.3 -24.0 L12.6 -22.3 Q13.1 -22.05 13.55 -22.0 M14.35 -28.05 L14.35 -27.8 14.15 -27.8 Q14.05 -27.95 14.2 -27.95 L14.35 -28.05 M17.5 -29.15 Q17.8 -28.9 17.8 -29.45 L17.45 -29.7 Q17.3 -29.35 17.5 -29.15 M-4.4 -23.1 Q-5.0 -23.05 -4.35 -22.5 -3.85 -23.15 -4.4 -23.1 M-8.9 -24.65 L-8.55 -24.7 -7.95 -24.65 Q-7.0 -26.4 -9.05 -26.65 -11.2 -26.95 -10.85 -25.1 -10.0 -24.3 -8.9 -24.65 M-8.55 -28.45 Q-8.35 -27.65 -7.6 -27.35 -6.5 -28.1 -8.55 -28.45 M-4.65 -29.7 L-4.65 -29.55 -4.65 -29.7 M3.7 -22.5 Q4.25 -22.9 3.4 -23.3 2.2 -23.9 2.05 -24.05 2.85 -23.05 1.55 -22.9 4.05 -21.5 3.7 -22.5 M0.0 -27.15 L0.95 -26.55 1.1 -26.05 1.7 -25.9 Q2.65 -25.55 1.3 -25.75 L1.15 -25.9 Q1.3 -25.0 0.05 -26.4 -1.05 -27.65 0.0 -27.15 M-1.1 -25.55 L-1.25 -25.55 -1.25 -25.65 -1.05 -25.75 Q-0.95 -25.55 -1.1 -25.55 M1.25 -28.6 L1.55 -28.75 1.75 -28.55 Q1.6 -28.3 1.55 -28.4 L1.25 -28.6 M2.4 -27.05 Q2.7 -27.6 3.25 -27.45 3.55 -26.65 2.85 -26.55 2.15 -26.65 2.4 -27.05 M9.8 15.8 Q7.5 16.4 10.75 16.5 13.4 16.55 11.1 16.1 10.9 16.5 10.45 16.1 L10.3 15.95 9.8 15.8 M-35.85 13.25 Q-36.1 13.1 -35.95 12.95 L-35.65 12.85 -35.85 13.25 M-37.1 11.35 Q-37.65 12.35 -37.8 11.35 -37.85 10.35 -37.1 11.35 M-38.75 8.6 Q-38.3 9.1 -39.4 8.75 -39.2 8.0 -38.75 8.6 M-25.05 12.5 Q-25.4 12.8 -25.65 12.75 -25.55 12.0 -25.05 12.5 M-28.6 14.5 Q-28.2 14.55 -28.95 15.0 -29.25 15.3 -29.55 15.3 -29.9 15.3 -29.55 14.85 -29.0 14.5 -28.6 14.5 M-31.0 10.95 L-31.1 10.8 -30.85 10.8 Q-30.8 11.05 -31.0 10.95 M-31.9 8.25 L-31.45 7.8 -31.5 7.95 Q-31.5 8.4 -30.85 8.25 L-30.35 8.75 -30.25 9.25 -29.55 9.35 Q-29.6 8.75 -30.05 8.6 L-30.25 8.7 -31.45 5.8 -31.45 7.65 Q-31.5 7.35 -32.2 7.45 L-32.4 8.55 Q-32.35 8.7 -31.9 8.25 M-29.4 -2.6 Q-28.05 -3.45 -29.9 -3.25 -31.65 -2.95 -29.4 -2.6 M-28.15 6.35 Q-27.1 6.2 -28.6 5.8 -29.1 6.45 -28.15 6.35 M-29.7 0.0 Q-30.25 1.6 -29.25 2.35 -27.7 1.9 -29.7 0.0 M-31.0 -1.25 Q-30.5 -1.45 -30.85 -1.6 L-31.6 -1.75 -31.0 -1.25 M-30.5 -0.8 Q-30.1 0.2 -30.1 -0.65 -30.2 -1.45 -30.5 -0.8 M-30.85 1.1 Q-29.7 1.1 -30.5 0.6 -31.4 0.15 -30.85 1.1 M-38.9 1.45 Q-38.9 -1.4 -38.6 1.55 -38.8 4.25 -38.9 1.45 M-33.9 -1.85 Q-33.3 -0.95 -33.35 -1.7 -33.35 -2.35 -33.9 -1.85 M-34.3 -0.6 Q-34.15 -0.95 -34.4 -1.2 L-34.9 -1.1 -34.3 -0.6 M-35.55 0.65 Q-34.4 0.95 -35.0 0.3 -35.8 -0.8 -35.7 -1.05 -36.55 -1.1 -36.3 -0.15 -36.1 0.9 -35.55 0.65 M-32.4 -2.7 L-32.1 -2.7 -32.25 -2.95 -32.4 -2.7 M-35.2 -2.8 Q-34.55 -4.05 -35.45 -3.45 -36.4 -2.8 -35.2 -2.8 M-32.55 -7.2 L-32.55 -6.85 -32.2 -7.3 -32.55 -7.2 M-38.9 -9.8 L-39.1 -9.8 -39.1 -10.0 Q-38.8 -10.1 -38.9 -9.8 M-33.0 -9.85 L-33.45 -10.5 -33.35 -10.1 -33.0 -9.85 M-34.85 -8.3 Q-34.55 -8.15 -34.25 -8.9 -34.05 -9.65 -34.15 -10.25 -34.55 -10.1 -34.75 -9.35 -35.05 -8.7 -34.85 -8.3 M-31.0 -5.5 Q-29.9 -4.55 -30.25 -5.15 L-30.95 -5.95 Q-31.6 -5.9 -31.0 -5.5 M-31.8 -8.7 L-31.0 -9.25 -30.05 -9.85 -30.7 -10.5 -31.6 -9.1 Q-31.45 -11.05 -33.65 -11.2 L-32.35 -9.0 Q-31.5 -7.6 -31.8 -7.2 -30.7 -5.65 -31.8 -8.7 M16.55 19.95 Q16.65 19.0 16.05 19.25 15.55 19.5 16.55 19.95 M19.15 23.6 Q20.6 22.2 18.75 23.15 17.75 25.1 19.15 23.6 M14.0 21.75 Q13.6 21.1 13.25 21.4 13.4 20.95 12.6 21.4 12.8 22.05 13.2 21.5 13.1 22.2 13.75 22.9 14.35 22.45 14.0 21.75 M13.4 22.9 Q12.75 22.5 13.4 23.25 14.0 23.25 13.4 22.9 M14.65 21.2 Q13.75 20.75 14.7 21.7 15.55 21.55 14.65 21.2 M13.7 16.5 Q14.05 17.95 14.45 16.4 L14.5 16.2 Q14.5 16.5 15.85 15.6 16.4 13.0 15.0 15.1 L14.5 16.05 Q14.65 15.0 13.7 16.5 M14.5 17.95 Q14.0 18.25 15.0 18.55 15.1 17.65 14.5 17.95 M18.75 18.75 Q18.05 18.1 18.5 18.9 18.9 19.65 18.75 18.75 M17.0 17.45 L16.85 16.75 16.5 17.3 Q16.85 17.65 17.0 17.45 M19.95 15.75 Q20.0 16.05 20.15 16.05 L20.4 15.9 19.95 15.75 M19.2 17.0 Q19.75 17.05 19.8 17.75 20.75 17.0 19.8 16.5 18.75 15.9 19.2 17.0 M8.6 20.4 Q9.35 20.4 8.45 19.65 7.6 19.0 8.6 20.4 M9.15 24.0 Q8.0 25.0 8.7 23.15 9.4 21.4 9.15 24.0 M11.4 20.45 L11.8 20.45 11.25 20.1 Q11.25 20.45 11.4 20.45 M10.6 21.9 Q11.25 21.35 10.75 20.8 L9.95 20.4 9.7 21.4 Q9.65 22.45 10.6 21.9 M8.0 19.15 Q8.55 18.75 7.65 18.3 7.3 18.85 8.0 19.15 M11.2 18.7 L12.35 18.75 12.35 18.25 Q12.15 17.15 11.9 18.1 L12.2 18.7 11.25 18.1 Q8.75 18.15 11.2 18.7 M9.7 18.45 L9.7 18.15 9.4 18.15 9.5 18.4 9.7 18.45 M-38.5 11.4 Q-37.65 10.75 -38.45 11.9 -39.4 12.05 -38.5 11.4 M-5.3 28.85 Q-4.4 28.1 -5.0 29.15 -5.6 30.1 -5.3 28.85 M0.6 29.3 Q1.3 29.8 0.3 29.55 L0.6 29.3 M-1.55 26.9 L-0.5 26.65 Q-1.35 26.55 -1.05 26.1 L-1.4 26.35 -1.35 25.55 -1.55 26.9 M-0.15 25.4 Q0.3 25.15 0.2 24.8 L-0.15 24.2 Q-0.65 24.65 -0.15 25.4 M3.3 25.0 L3.15 24.85 Q2.65 24.35 2.3 24.95 L3.3 25.15 3.6 25.25 Q3.6 24.55 3.4 24.85 L3.3 25.0 M14.7 38.25 Q14.85 36.1 15.45 39.35 14.5 40.45 14.7 38.25 M13.2 42.3 Q13.3 42.9 12.8 42.45 12.2 42.1 13.2 42.3 M14.3 33.75 Q15.95 33.75 14.5 35.15 12.8 35.7 12.65 34.0 L14.3 33.75 M19.2 35.9 L18.9 35.6 19.3 35.55 19.2 35.9 M17.95 37.45 Q17.6 37.35 17.6 36.85 L18.1 36.55 Q18.55 36.65 18.55 37.1 L17.95 37.45 M12.15 35.95 L12.5 35.7 12.8 35.9 12.15 35.95 M8.55 34.15 L8.6 34.15 Q8.7 34.05 8.7 34.2 L8.45 34.3 8.55 34.15 M9.25 40.15 L9.8 40.0 Q10.15 40.6 9.8 40.7 9.4 40.75 9.25 40.15 M10.8 30.55 Q10.4 30.45 9.95 29.8 10.65 29.55 10.8 30.55 M10.15 31.7 Q10.0 30.75 10.5 31.55 11.05 32.35 10.15 31.7 M11.55 31.1 Q12.05 30.6 12.75 30.6 11.55 31.35 14.0 32.35 12.6 32.15 11.55 31.1 M8.9 30.1 Q8.1 31.1 8.55 30.25 9.0 29.35 8.9 30.1 M5.6 33.2 L5.9 32.8 5.95 33.2 5.6 33.2 M5.95 25.4 Q4.8 26.1 6.1 25.6 7.45 25.1 5.95 25.4 M5.75 27.05 Q5.95 26.5 6.2 28.7 L6.35 30.1 6.85 30.6 Q7.15 30.8 6.45 31.95 L3.45 32.05 Q1.7 32.05 2.05 29.7 L3.0 30.7 Q4.5 29.95 2.55 29.3 L2.2 29.15 2.05 29.7 1.85 29.35 Q1.7 29.95 1.3 29.55 L0.75 29.15 Q1.7 28.05 2.65 27.8 L4.55 27.2 4.95 28.25 Q4.85 27.75 5.75 27.05 M8.55 28.6 Q8.3 28.2 8.75 28.2 9.15 28.2 9.0 28.45 L8.55 28.6 M9.15 27.75 L9.2 27.6 Q9.5 27.6 9.25 27.9 L9.15 27.75 M9.4 24.85 L9.55 25.15 9.05 25.1 Q9.15 24.8 9.4 24.85 M10.75 25.6 Q10.75 26.2 9.8 25.45 10.8 25.0 10.75 25.6 M10.6 25.15 L10.5 24.85 Q11.35 24.85 10.6 25.15 M12.75 26.7 L12.2 26.65 Q12.05 26.85 12.35 27.15 L12.75 26.7 M17.35 32.5 Q16.1 32.6 17.6 33.3 18.7 32.45 17.35 32.5 M15.85 26.5 L15.15 26.55 15.55 27.2 Q16.2 26.8 15.85 26.5 M17.6 25.25 Q16.95 25.55 17.5 25.95 18.35 25.75 18.7 24.8 17.9 25.0 17.6 25.25 M-12.75 47.1 L-12.5 47.15 -12.5 47.3 -12.65 47.3 -12.75 47.1 M-32.25 39.2 Q-32.75 41.2 -34.45 40.0 -35.65 39.2 -36.3 38.05 L-33.45 37.3 Q-30.95 37.1 -32.25 39.2 M-32.9 34.8 Q-34.55 33.45 -32.7 34.5 -30.85 35.6 -32.9 34.8 M-33.5 27.65 L-33.45 27.65 -33.35 27.8 -33.6 27.8 -33.5 27.65 M-31.65 30.95 Q-31.25 30.25 -31.0 30.75 -30.8 31.35 -31.65 30.95 M-27.85 33.1 L-28.3 33.45 Q-28.85 33.2 -28.5 33.05 L-27.85 33.1 M-27.1 27.65 L-27.35 27.9 -27.4 27.75 -27.1 27.65 M-10.75 33.9 L-10.55 33.9 -10.55 34.05 -10.7 34.05 -10.75 33.9 M-14.9 36.55 L-14.65 36.55 -14.65 36.7 -14.8 36.7 -14.9 36.55 M-23.55 38.1 L-23.35 37.9 -23.35 38.05 -23.55 38.1 M-24.45 40.1 Q-23.0 40.0 -23.4 41.2 -23.7 42.45 -24.95 41.55 L-26.2 40.3 -24.45 40.1 M-21.5 38.05 Q-19.1 38.2 -19.75 40.4 -21.45 42.95 -23.05 41.0 -23.05 39.15 -21.5 38.05 M-22.4 30.8 Q-21.35 30.4 -19.1 32.75 -16.85 35.0 -16.65 34.85 -17.85 35.6 -20.55 36.4 -22.9 37.1 -24.1 38.1 L-25.95 37.8 Q-27.4 37.3 -26.75 36.35 -23.95 32.2 -22.4 30.8 M-23.95 25.9 L-23.0 26.1 -22.55 26.55 Q-23.0 26.2 -23.2 26.4 -23.5 26.7 -23.95 26.65 -24.0 26.05 -24.6 25.65 L-23.95 25.9 M-20.25 28.3 L-20.2 28.25 Q-20.05 28.3 -20.05 29.2 -20.05 31.1 -20.7 29.2 L-20.25 28.3 M-18.55 25.8 L-18.05 25.65 Q-18.25 25.15 -18.5 25.25 -18.8 25.25 -18.55 25.8 M-9.65 29.45 L-9.65 29.05 Q-9.5 28.45 -9.45 29.2 L-9.65 29.45 -9.65 29.5 -9.85 29.5 -9.85 29.3 -9.75 29.35 -9.65 29.45 M-9.95 31.65 Q-10.3 31.85 -10.45 31.65 -10.7 31.2 -9.95 31.2 -9.6 31.35 -9.95 31.65 M-16.05 32.2 Q-16.2 32.8 -16.7 32.5 -17.3 32.2 -16.8 31.8 -16.35 31.65 -16.05 32.2 M-15.4 28.4 L-15.4 28.25 Q-15.1 28.2 -15.2 28.4 L-15.4 28.4 M-12.9 25.65 Q-13.05 26.5 -13.25 25.8 -13.4 25.15 -12.9 25.65 M-32.75 7.2 Q-32.4 7.0 -33.05 6.35 -33.5 7.0 -32.75 7.2 M-13.35 21.25 Q-11.95 21.4 -13.25 20.8 -14.6 20.15 -13.35 21.25 M-16.45 23.4 Q-16.65 25.4 -15.85 23.45 -16.15 21.35 -16.45 23.4 M-15.45 19.4 L-15.6 19.55 -15.4 19.5 -15.3 19.4 -15.45 19.4 M-18.8 22.3 L-19.3 22.5 Q-21.2 23.25 -21.2 23.85 -21.2 24.85 -20.35 24.2 -19.25 23.4 -18.85 24.7 L-18.8 22.3 Q-17.55 23.3 -17.6 22.9 -17.7 22.05 -16.7 22.3 -17.3 21.75 -18.8 22.3 M-17.1 23.9 Q-17.15 23.25 -17.9 23.3 -18.35 25.1 -16.65 25.1 -17.1 24.8 -17.1 23.9 M-18.4 21.35 Q-19.6 21.35 -18.4 22.05 -17.15 21.25 -18.4 21.35 M-22.3 20.8 L-21.3 20.8 -21.0 20.1 -22.3 20.8 M-22.6 21.75 L-22.55 21.65 Q-21.95 20.6 -22.75 21.25 L-22.85 21.75 -23.35 21.65 Q-25.35 21.2 -23.8 21.75 L-22.85 22.0 -22.85 21.75 -22.6 21.75 M-19.95 19.35 Q-19.9 20.3 -19.3 20.0 -18.05 20.9 -18.85 19.35 L-19.6 17.95 -20.55 18.0 Q-20.1 18.15 -19.95 19.35 M-17.1 20.0 Q-17.9 18.75 -18.85 19.2 -17.75 20.0 -17.1 20.0 M-33.2 23.75 L-30.35 23.7 Q-28.5 24.15 -30.2 25.3 -31.4 27.0 -32.35 25.65 L-33.2 23.75 M-30.8 20.8 Q-31.5 20.95 -31.4 20.4 -31.3 19.7 -30.95 20.0 L-30.55 20.45 Q-30.5 20.75 -30.8 20.8 M-28.7 18.45 Q-28.8 19.5 -29.15 18.6 -29.45 17.75 -28.7 18.45 M-30.55 19.95 L-29.85 19.8 Q-28.95 20.5 -29.85 20.5 -30.85 20.5 -30.55 19.95 M-24.95 18.75 L-25.25 18.75 -25.1 19.0 -24.95 18.75 M-27.4 17.0 Q-27.4 17.8 -27.9 17.8 -28.5 17.8 -28.35 17.05 L-27.4 17.0 M-35.15 21.5 L-36.45 21.65 Q-38.1 21.4 -35.15 21.5 M-38.65 17.5 L-38.65 17.45 -38.5 17.35 -38.5 17.6 -38.65 17.5 M-35.85 16.7 Q-35.7 16.7 -35.8 16.85 L-36.0 16.85 -35.95 16.7 -35.85 16.7 M-4.85 27.5 L-4.8 27.6 -5.15 27.8 Q-5.95 28.2 -5.3 27.6 L-4.85 27.5 M5.0 24.05 Q4.25 24.55 5.2 24.7 6.25 24.85 5.0 24.05 M17.75 42.95 L17.95 42.95 17.95 43.1 17.8 43.1 17.75 42.95 M-8.2 46.7 Q-8.35 46.95 -8.4 46.85 L-8.45 46.65 -8.2 46.7 M-8.2 48.65 L-8.2 48.55 -8.05 48.5 -8.05 48.7 -8.2 48.65 M4.7 46.1 L4.8 46.0 5.05 46.2 4.7 46.1 M0.6 36.5 L0.75 36.5 0.8 36.7 0.6 36.65 0.6 36.5 M3.55 41.25 Q4.1 42.25 3.25 41.5 2.3 40.75 3.55 41.25 M-9.15 37.45 Q-9.45 37.1 -9.2 36.7 L-8.9 37.1 -9.15 37.45 M-5.3 39.2 Q-4.95 38.75 -5.0 39.5 -5.15 40.25 -5.3 39.2 M-4.15 30.75 Q-3.4 29.95 -4.0 30.75 -4.5 31.65 -4.15 30.75 M-7.15 32.3 L-7.3 32.6 -7.75 32.65 -7.15 32.3 M-6.55 30.3 L-6.05 29.8 Q-5.7 29.65 -5.7 30.1 L-6.55 30.3 M-9.15 33.25 L-8.75 33.2 Q-9.0 34.0 -9.5 33.85 L-9.15 33.25 M-5.9 33.7 L-5.9 33.55 -5.75 33.55 -5.7 33.75 -5.9 33.7 M36.3 -7.85 Q34.9 -10.1 37.75 -7.8 37.7 -5.6 36.3 -7.85 M-44.4 -15.5 Q-45.9 -14.0 -46.45 -16.1 -44.85 -17.75 -44.4 -15.5 M-41.4 -14.55 L-41.6 -14.65 Q-41.4 -15.3 -41.4 -14.55 M-40.3 -22.95 Q-40.2 -23.9 -39.7 -23.1 -39.2 -22.2 -40.3 -22.95 M-43.4 -24.4 Q-42.7 -24.05 -43.6 -23.4 -44.5 -22.8 -44.8 -24.0 -45.0 -24.95 -44.2 -24.8 L-43.4 -24.4 M-41.75 -26.7 Q-41.4 -25.95 -42.2 -26.5 -42.15 -27.45 -41.75 -26.7 M-41.1 -39.8 L-42.55 -40.9 -39.2 -39.2 Q-39.75 -38.85 -41.1 -39.8 M26.2 -11.55 Q26.6 -13.15 25.6 -12.35 24.65 -11.55 26.2 -11.55 M20.15 20.4 Q19.65 21.2 20.25 21.2 20.9 21.2 20.15 20.4 M27.7 37.2 L26.6 38.1 25.75 38.85 Q24.3 37.6 25.1 36.05 26.2 35.9 26.7 36.5 L27.7 37.2 M21.7 37.65 L22.25 38.2 Q22.4 38.6 22.0 38.9 21.35 38.25 21.7 37.65 M24.2 29.0 Q23.1 28.7 23.95 28.85 25.35 29.2 24.2 29.0 M25.75 33.1 Q25.35 33.4 24.95 32.95 24.6 32.5 24.9 32.05 25.55 31.85 26.0 32.3 26.45 32.8 25.75 33.1 M21.2 30.8 Q22.45 29.65 20.6 29.95 18.75 30.3 21.2 30.8 M21.35 33.45 L21.2 33.25 21.35 33.25 21.35 33.45 M22.6 26.2 L22.4 25.95 22.1 26.05 22.3 26.25 22.6 26.2 M20.85 27.3 Q21.3 26.85 20.9 26.1 20.6 25.55 20.0 25.15 20.15 26.55 20.85 27.3 M24.95 25.6 L24.9 25.6 24.9 25.4 Q25.1 25.25 24.95 25.6 M26.5 24.8 L26.65 24.85 26.45 24.95 26.45 25.0 26.5 24.8 M28.1 29.45 L28.35 29.05 Q27.75 28.2 27.45 28.85 27.15 29.55 28.1 29.45 M29.75 29.85 Q30.35 29.15 29.6 29.3 28.8 29.45 29.75 29.85 M32.75 26.55 L33.0 26.8 32.75 27.0 32.75 26.55 M34.6 27.3 L34.4 27.05 34.75 27.15 34.6 27.3 M41.1 15.25 L40.95 15.25 40.95 15.1 41.1 15.1 41.1 15.25 M29.45 23.7 L29.3 24.2 Q29.0 24.2 29.15 24.0 L29.45 23.7 M29.6 18.1 Q30.5 18.7 31.75 20.75 33.05 22.95 33.2 23.85 33.7 26.65 30.9 25.1 28.55 23.85 30.35 23.05 33.65 26.9 31.15 22.65 L30.35 23.05 28.2 20.5 Q24.3 15.8 29.4 17.95 L29.6 18.1 M31.45 19.35 L31.45 19.5 Q31.3 19.65 31.2 19.4 L31.45 19.35 M25.2 22.05 L25.55 22.15 25.35 22.45 Q25.1 22.3 25.2 22.05 M24.65 23.9 L24.65 23.75 24.75 23.75 24.8 23.9 24.65 23.9 M21.85 17.95 L21.5 17.9 Q21.15 17.75 21.5 17.6 L21.85 17.95 M23.55 17.8 Q23.25 17.75 23.35 17.35 L23.7 17.5 23.55 17.8 M27.0 15.8 L27.15 15.8 27.3 16.1 27.0 15.8 M27.6 11.35 Q26.3 11.75 27.7 10.75 28.85 10.9 27.6 11.35 M24.95 14.1 L24.65 14.4 24.6 14.2 24.95 14.1 M21.05 11.9 L21.5 11.85 20.85 11.35 21.05 11.9 M23.95 7.7 L23.8 8.0 23.4 8.1 23.65 7.7 23.95 7.7 M22.15 10.5 Q21.15 9.55 21.2 10.25 21.35 10.9 22.15 10.5 M25.1 9.55 Q25.7 9.35 25.2 9.8 24.5 9.85 25.1 9.55 M25.2 8.25 L25.1 8.25 Q24.35 8.15 24.6 7.7 L25.2 8.25 25.45 8.1 Q26.5 7.8 26.3 8.4 L25.1 8.25 25.25 8.25 25.2 8.25 M25.2 7.45 Q24.0 7.15 24.45 6.55 L25.25 6.85 25.45 6.25 25.7 6.75 Q26.15 6.45 25.9 6.7 26.35 7.7 25.2 7.45 M27.15 7.7 Q26.8 8.25 26.2 7.05 27.55 7.3 27.15 7.7 M31.9 15.0 Q32.05 14.55 32.4 14.65 L32.25 15.0 31.9 15.0 M32.9 12.65 Q32.6 12.8 32.55 12.5 L32.75 12.45 32.9 12.65 M29.25 12.2 L29.15 12.15 29.25 12.0 Q29.9 12.2 29.25 12.2 M29.6 9.5 Q30.4 9.4 30.05 9.95 29.65 10.45 29.6 9.5 M30.35 7.15 Q30.25 7.5 29.95 7.3 L30.1 7.05 30.35 7.15 M31.8 7.65 Q31.95 6.4 32.45 7.45 32.9 8.55 31.8 7.65 M33.0 6.7 L32.9 6.55 Q32.9 6.45 33.2 6.4 L33.0 6.7 M28.1 -5.75 Q26.95 -4.55 27.45 -6.6 28.0 -8.7 28.1 -5.75 M27.9 -3.15 Q25.4 -2.6 27.15 -3.45 28.95 -4.35 27.9 -3.15 M33.85 3.1 Q33.05 3.0 33.85 2.45 34.75 3.25 33.85 3.1 M30.35 0.15 L29.65 0.2 30.2 -0.35 30.7 -0.5 Q30.75 -0.05 30.35 0.15 M28.55 0.45 Q28.25 0.15 28.5 -0.2 L28.8 0.35 Q28.85 0.75 28.55 0.45 M29.8 -0.8 L29.95 -0.5 29.65 -0.75 29.8 -0.8 M25.2 5.35 Q25.85 5.65 25.55 5.8 25.2 6.05 25.05 5.8 24.8 5.65 25.2 5.35 M23.65 6.35 L23.5 6.1 23.65 6.05 23.7 6.2 23.65 6.35 M22.65 5.5 L22.4 5.9 Q22.25 5.5 22.4 5.35 22.55 5.15 22.65 5.5 M23.85 4.85 L23.35 4.95 23.55 4.7 23.85 4.85 M23.2 4.5 L23.4 4.35 23.1 4.8 23.2 4.5 M20.4 5.2 L20.75 5.3 20.25 4.95 20.4 5.2 M21.5 0.3 Q21.95 1.6 22.45 0.15 21.0 -1.05 21.5 0.3 M22.8 0.15 L22.55 -0.15 22.45 0.05 22.8 0.15 M22.95 -1.4 L22.4 -2.35 Q21.85 -1.7 22.95 -1.4 M25.85 0.9 Q24.65 0.95 25.4 0.5 26.2 0.05 25.85 0.9 M26.5 -4.25 L25.75 -4.35 Q26.15 -4.95 26.5 -4.25 M25.1 -4.65 L24.8 -4.55 24.95 -4.35 25.1 -4.65 M24.2 -4.1 L24.0 -3.85 Q23.7 -3.95 23.8 -4.1 L24.2 -4.1 M26.45 -6.85 L26.3 -7.0 26.5 -7.3 Q27.0 -7.7 26.85 -6.9 L26.45 -6.85 M23.4 -4.25 Q23.65 -4.5 22.8 -4.95 21.65 -3.9 22.9 -4.1 L23.4 -4.25 Q21.85 -2.8 24.2 -2.35 25.25 -3.55 24.8 -4.25 24.45 -5.0 23.4 -4.25 M23.55 -2.95 Q22.65 -3.1 23.1 -3.55 L23.1 -3.85 Q24.3 -2.8 23.55 -2.95 M20.25 -7.05 Q21.15 -5.6 20.7 -6.6 20.25 -7.65 20.25 -7.05 M22.65 -5.75 L23.2 -7.15 22.15 -6.7 21.35 -6.45 21.8 -5.3 Q22.4 -5.1 22.65 -5.75 M22.65 -9.85 L22.4 -10.15 Q21.5 -9.55 22.3 -9.2 23.1 -8.85 22.65 -9.85 M20.4 -10.8 L21.2 -10.9 Q20.75 -11.6 20.4 -10.8 M31.8 -7.0 Q32.45 -5.9 30.5 -7.3 31.15 -8.0 31.8 -7.0 M34.8 -3.75 L35.1 -3.95 Q35.2 -4.05 35.4 -3.75 35.05 -3.6 34.8 -3.75 M28.7 -3.75 Q29.1 -3.4 28.8 -3.15 28.5 -2.85 28.25 -3.3 28.05 -3.7 28.7 -3.75 M31.35 -7.85 Q31.05 -7.85 31.3 -8.1 L31.75 -8.25 31.35 -7.85 M30.65 -9.4 Q31.2 -8.9 30.35 -9.1 29.45 -9.35 30.65 -9.4 M30.55 -8.25 L30.1 -8.55 Q31.05 -9.1 30.55 -8.25 M31.15 -8.7 L31.0 -8.45 30.85 -8.6 31.15 -8.7 M32.75 -10.8 L32.7 -10.6 32.45 -10.9 32.75 -10.8 M45.2 -0.9 Q45.35 -1.45 45.65 -1.25 45.95 -0.95 45.6 -0.6 L45.2 -0.9 M38.6 2.7 Q38.5 3.4 38.3 2.65 L38.6 2.7 M35.5 1.05 L35.5 1.25 35.25 1.25 35.35 1.1 35.5 1.05 M37.1 -0.05 Q36.15 -0.2 36.1 -0.65 L36.75 -0.6 37.1 -0.05 M40.95 1.45 Q40.2 2.15 39.15 0.6 38.6 -0.2 40.15 0.35 41.6 0.9 40.95 1.45 M37.75 -10.3 L37.75 -10.15 Q37.55 -10.0 37.55 -10.3 L37.75 -10.3 M41.1 -11.7 Q39.55 -11.35 38.2 -10.35 42.05 -13.75 41.1 -11.7 M-45.6 -13.1 Q-45.6 -13.6 -45.2 -12.8 -44.9 -12.0 -45.6 -13.1 M-40.3 9.5 L-40.05 9.5 -40.05 9.65 -40.2 9.65 -40.3 9.5 M-48.9 12.6 L-48.7 12.6 -48.7 12.75 -48.85 12.75 -48.9 12.6 M-40.45 0.15 L-40.45 0.35 -40.65 0.35 -40.65 0.15 -40.45 0.15 M-46.1 5.2 Q-45.75 4.95 -45.6 5.3 L-45.95 5.75 Q-46.4 5.5 -46.1 5.2 M-50.0 -2.15 L-49.8 -2.05 -49.7 -1.85 -50.0 -1.9 -50.0 -2.15 M-40.95 -9.05 L-40.95 -8.9 -41.1 -9.0 -40.95 -9.05 M-40.75 -6.4 Q-39.35 -2.8 -41.55 -2.85 L-41.6 -1.7 Q-41.7 0.2 -41.9 -0.65 -45.0 -1.85 -43.8 -6.05 L-42.7 -10.25 -40.75 -6.4 M-45.15 -29.15 Q-44.9 -26.85 -47.0 -27.95 -47.3 -30.4 -45.15 -29.15 M-43.25 -20.75 L-43.6 -20.8 -43.3 -21.1 Q-43.1 -20.8 -43.25 -20.75" fill="#000000" fill-rule="evenodd" stroke="none"/>
  </g>
</svg>
