<?xml version="1.0" encoding="UTF-8" standalone="no"?>
<svg xmlns:xlink="http://www.w3.org/1999/xlink" height="21.5px" width="100.0px" xmlns="http://www.w3.org/2000/svg">
  <g transform="matrix(1.0, 0.0, 0.0, 1.0, 50.0, 10.75)">
    <path d="M-32.8 -0.3 L-34.55 -0.1 Q-37.45 0.05 -42.5 -1.0 L-49.7 -2.05 -49.7 -3.15 -42.3 -2.05 -34.6 -1.15 -32.95 -1.35 -28.9 -2.25 -24.75 -2.95 -22.2 -2.7 -20.05 -1.9 Q-18.65 -1.35 -18.05 -1.15 L-16.15 -0.9 -16.05 0.2 -18.35 -0.15 -20.45 -0.9 -22.5 -1.65 -24.7 -1.9 -28.65 -1.2 -32.8 -0.3" fill="#000000" fill-rule="evenodd" stroke="none"/>
    <path d="M-32.85 -0.95 Q-34.05 -1.55 -36.25 -1.85 L-40.65 -1.95 -44.95 -1.45 -48.1 -0.65 -49.0 -0.2 -49.1 -0.3 -50.0 -0.6 -49.5 -1.15 -48.8 -1.55 -46.75 -2.15 -40.65 -3.0 Q-35.0 -3.3 -32.35 -1.9 -30.85 -1.05 -27.8 -1.2 L-23.55 -1.7 -19.15 -2.2 -16.05 -2.05 -16.25 -1.0 -19.1 -1.15 -23.4 -0.6 -27.75 -0.15 Q-31.0 0.05 -32.85 -0.95" fill="#000000" fill-rule="evenodd" stroke="none"/>
    <path d="M-16.7 -2.15 L-16.0 -2.2 Q-13.85 -2.3 -8.95 -1.25 L-1.6 -0.35 -0.15 -0.5 3.95 -1.4 8.1 -2.1 Q10.2 -2.2 12.8 -1.15 15.9 0.15 16.7 0.3 L16.5 1.35 12.4 -0.15 Q9.95 -1.15 8.15 -1.05 L4.2 -0.35 0.05 0.55 -1.55 0.75 -9.2 -0.2 -15.95 -1.15 -16.55 -1.1 -16.7 -2.15" fill="#000000" fill-rule="evenodd" stroke="none"/>
    <path d="M-16.65 -0.85 L-16.15 -0.85 -12.1 -1.4 -6.45 -2.05 Q-1.75 -2.3 0.5 -1.0 2.4 0.05 6.6 -0.15 L11.25 -0.6 15.65 -1.05 17.3 -1.1 17.25 0.0 15.7 0.05 11.35 0.45 6.7 0.9 Q4.55 1.05 3.05 0.85 1.2 0.6 -0.05 -0.1 -2.0 -1.2 -6.4 -0.95 L-11.9 -0.35 -16.1 0.25 -17.35 0.05 -16.8 -0.85 -16.65 -0.85" fill="#000000" fill-rule="evenodd" stroke="none"/>
    <path d="M2.35 -5.55 L2.3 -5.25 2.3 -5.1 2.2 -4.45 2.2 -4.3 2.2 -4.15 2.05 -3.35 2.0 -3.2 1.9 -2.75 1.8 -2.5 1.85 -2.4 1.9 -2.3 1.95 -2.1 2.0 -1.95 2.0 -1.8 2.45 -0.35 2.5 -0.2 2.7 0.4 2.75 0.55 3.0 1.1 3.0 1.2 3.05 1.25 3.1 1.3 3.4 1.75 3.4 1.85 3.5 1.95 3.55 2.05 3.6 2.05 6.05 5.05 4.95 4.0 4.9 4.0 6.0 5.45 4.7 4.15 4.65 4.25 6.05 6.15 4.55 4.6 5.2 5.75 4.05 4.35 3.85 4.15 3.75 4.0 3.65 3.9 3.6 3.85 3.45 3.7 3.4 3.65 3.35 3.55 3.3 3.5 3.2 3.4 3.15 3.3 3.1 3.25 3.0 3.2 3.0 3.1 2.9 3.05 2.85 3.0 2.8 2.9 2.75 2.85 2.5 2.5 2.15 1.9 2.05 1.8 2.0 1.55 1.9 1.45 1.85 1.3 1.75 1.1 1.7 0.9 1.65 0.8 1.55 0.45 1.5 0.3 1.4 0.0 1.35 -0.15 1.25 -0.5 1.1 -0.1 1.05 0.05 0.85 0.55 0.8 0.7 0.55 1.25 0.5 1.4 0.35 1.65 0.35 1.6 0.3 1.7 Q0.15 1.9 -0.15 1.9 L-0.45 1.75 Q-0.85 1.5 -0.65 1.1 L-0.6 1.1 -0.65 1.1 -0.6 1.05 -0.45 -0.2 -0.4 -0.75 -0.5 -2.25 -0.6 -3.4 -0.55 -3.8 -0.2 -4.05 0.2 -4.0 0.45 -3.65 0.6 -2.3 0.6 -2.2 0.75 -2.75 0.75 -2.9 0.85 -3.2 0.9 -3.45 0.95 -3.6 1.0 -3.9 1.15 -4.75 1.15 -4.9 1.2 -5.35 1.2 -5.5 1.25 -5.65 1.25 -5.8 1.25 -5.95 1.25 -6.2 1.3 -6.4 1.3 -6.85 1.3 -6.95 1.3 -9.9 1.5 -8.35 1.55 -8.35 1.6 -10.15 1.8 -8.35 1.9 -8.35 2.0 -10.75 2.2 -8.6 2.4 -9.9 2.4 -6.0 2.4 -5.85 2.35 -5.7 2.35 -5.55" fill="#000000" fill-rule="evenodd" stroke="none"/>
    <path d="M-4.8 -8.05 L-4.75 -8.05 -4.55 -9.55 -4.55 -6.35 -4.55 -6.2 -4.55 -5.75 -4.5 -5.6 -4.5 -5.45 -4.5 -5.3 -4.5 -5.15 -4.45 -5.0 -4.45 -4.85 -4.25 -3.4 -4.15 -3.0 -3.7 -3.2 -3.3 -3.05 -3.15 -2.65 -3.2 -2.15 -3.15 -2.15 -3.2 -2.0 -3.25 -0.05 -3.2 0.15 -3.1 0.35 -3.0 -0.65 -2.85 -1.95 -2.75 -3.1 -2.6 -3.5 -2.2 -3.65 -1.85 -3.5 Q-1.7 -3.35 -1.7 -3.1 L-1.8 -1.8 -1.9 -0.65 Q-1.9 -0.15 -2.05 0.6 L-2.15 1.6 -2.3 1.95 -2.7 2.1 Q-3.15 2.1 -3.2 1.7 L-3.6 1.95 -3.6 1.9 -4.0 2.05 Q-4.45 2.05 -4.5 1.65 L-4.6 1.95 -4.75 2.55 -4.75 2.8 -4.75 2.9 -4.75 3.05 -4.75 3.15 -4.75 3.3 -4.8 3.4 -4.8 3.5 -4.85 3.7 -4.85 3.9 -4.8 3.9 -5.15 6.1 -5.15 6.15 -5.15 6.25 -5.35 7.75 -5.4 6.45 -5.9 8.55 -5.7 6.15 -5.8 6.15 -6.25 7.95 -6.05 6.15 -6.05 6.1 -6.5 7.6 -6.25 6.1 -6.25 6.0 -6.2 5.55 -6.15 5.2 -6.15 5.1 -6.1 4.85 -6.1 4.75 -6.05 4.55 -6.05 4.4 -6.0 4.15 -6.0 4.05 -5.95 3.95 -5.95 3.85 -5.95 3.6 -5.95 3.5 -5.9 3.4 -5.9 3.3 -5.9 3.15 -5.9 3.05 -5.85 2.95 -5.85 2.85 -5.85 2.7 -5.85 2.5 -5.75 2.0 -5.5 1.05 -5.35 0.75 -5.35 0.6 -4.95 -0.35 -4.9 -0.5 -4.75 -0.8 -4.75 -0.9 -4.75 -0.95 -5.1 -2.15 -5.1 -2.3 -5.2 -2.75 -5.25 -2.9 -5.3 -3.05 -5.35 -3.2 -5.35 -3.5 -5.4 -3.65 -5.55 -4.6 -5.55 -4.75 -5.6 -5.05 -5.6 -5.2 -5.6 -5.4 -5.6 -5.65 -5.7 -5.65 -5.7 -9.55 -5.45 -8.25 -5.25 -10.4 -5.15 -8.05 -5.05 -8.05 -4.85 -9.85 -4.8 -8.05" fill="#000000" fill-rule="evenodd" stroke="none"/>
    <path d="M-1.25 -3.8 L-0.85 -3.75 -0.65 -3.4 -0.55 -2.3 -0.65 -1.2 -0.7 -0.75 -0.7 -0.4 -0.8 0.35 -0.85 0.85 -1.05 1.7 Q-1.15 2.05 -1.55 2.05 L-1.7 2.05 -2.0 1.75 -2.05 1.35 -1.95 0.85 -1.85 0.05 -1.75 -0.4 -1.8 -0.75 -1.7 -1.5 -1.6 -2.3 -1.7 -3.2 -1.6 -3.6 Q-1.5 -3.8 -1.25 -3.8" fill="#000000" fill-rule="evenodd" stroke="none"/>
    <path d="M-34.1 -7.8 L-33.9 -9.35 -33.9 -6.25 -33.85 -6.1 -33.85 -5.65 -33.85 -5.5 -33.85 -5.35 -33.8 -5.2 -33.8 -5.05 -33.8 -4.95 -33.8 -4.8 -33.75 -4.65 -33.75 -4.5 -33.55 -3.2 -33.5 -2.9 -33.45 -2.75 -33.45 -2.6 -33.4 -2.5 -33.35 -2.35 -33.15 -1.65 -33.15 -1.75 -33.05 -3.1 -32.8 -3.4 -32.4 -3.5 Q-32.15 -3.45 -32.05 -3.25 L-32.0 -2.85 -32.1 -1.7 -32.15 0.35 -31.95 1.6 -31.95 1.7 Q-31.75 2.1 -32.1 2.35 L-32.45 2.45 Q-32.7 2.45 -32.9 2.25 L-32.9 2.15 -32.9 2.2 -33.2 1.7 -33.25 1.55 -33.45 1.1 -33.5 0.95 -33.7 0.45 -33.75 0.3 -33.8 0.05 -33.8 0.1 -33.85 0.25 -33.95 0.4 -34.0 0.7 -34.1 0.9 -34.15 1.2 -34.35 1.65 -34.4 1.75 -34.5 2.0 -34.6 2.25 -34.65 2.35 -34.7 2.45 -35.1 3.05 -35.2 3.25 -35.25 3.3 -35.35 3.4 -35.35 3.5 -35.45 3.55 -35.6 3.75 -35.65 3.85 -35.7 3.9 -35.75 3.95 -35.8 4.0 -35.9 4.1 -35.95 4.15 -36.0 4.2 -36.05 4.25 -36.2 4.4 -36.25 4.5 -36.3 4.55 -36.4 4.65 -36.45 4.75 -36.55 4.8 -37.8 6.35 -37.1 5.15 -38.65 6.7 -37.2 4.8 -37.3 4.75 -38.6 6.0 -37.5 4.55 -38.65 5.6 -36.15 2.6 -36.05 2.5 -36.0 2.45 -35.95 2.35 -35.65 1.9 -35.6 1.75 -35.55 1.7 -35.05 0.25 -34.95 0.05 -34.6 -1.15 -34.6 -1.25 -34.5 -1.5 -34.4 -1.95 -34.5 -2.2 -34.5 -2.35 -34.6 -2.65 -34.65 -2.95 -34.7 -3.1 -34.75 -3.4 -34.75 -3.6 -34.85 -4.2 -34.85 -4.4 -34.9 -4.7 -34.9 -4.85 -34.95 -5.0 -34.95 -5.15 -34.95 -5.3 -34.95 -5.4 -35.0 -5.4 -35.0 -9.35 -34.8 -8.05 -34.6 -10.15 -34.5 -7.8 -34.35 -7.8 -34.15 -9.6 -34.1 -7.8" fill="#000000" fill-rule="evenodd" stroke="none"/>
    <path d="M-29.7 -1.4 L-29.6 -0.1 -29.45 0.95 -29.35 2.15 -29.5 2.55 -29.85 2.7 -30.25 2.55 -30.4 2.15 -30.5 1.15 -30.65 -0.1 -30.8 -1.25 -30.9 -2.55 -30.75 -2.9 -30.4 -3.05 -30.0 -2.9 -29.85 -2.55 -29.7 -1.4" fill="#000000" fill-rule="evenodd" stroke="none"/>
    <path d="M-29.25 -2.5 L-28.85 -2.65 -28.5 -2.5 -28.35 -2.1 -28.35 -1.75 -28.3 -1.75 -28.25 -1.5 -28.2 -1.35 -28.2 -1.25 -28.1 -0.95 -28.05 -0.85 -27.95 -0.55 -27.8 -0.25 -27.8 -0.1 -27.3 1.0 -27.25 1.15 -27.15 1.45 -26.85 2.4 -26.75 2.9 -26.75 3.05 -26.75 3.15 -26.75 3.3 -26.7 3.4 -26.7 3.6 -26.7 3.7 -26.7 3.85 -26.65 4.05 -26.65 4.15 -26.6 4.3 -26.6 4.4 -26.6 4.6 -26.6 4.75 -26.55 4.85 -26.55 4.95 -26.5 5.2 -26.5 5.3 -26.45 5.55 -26.45 5.65 -26.4 5.95 -26.4 6.1 -26.4 6.15 -26.35 6.6 -26.3 6.65 -26.1 8.2 -26.5 6.7 -26.55 6.7 -26.35 8.5 -26.8 6.7 -26.9 6.75 -26.65 9.1 -27.2 7.0 -27.2 8.35 -27.45 6.7 -27.45 6.65 -27.75 4.45 -27.75 4.4 -27.75 4.3 -27.75 4.15 -27.8 4.05 -27.8 3.95 -27.8 3.85 -27.8 3.7 -27.8 3.6 -27.8 3.5 -27.85 3.35 -27.85 3.25 -27.85 3.15 -27.85 3.05 -27.95 2.5 -28.05 2.2 Q-28.15 2.6 -28.6 2.6 L-29.0 2.45 -29.15 2.1 -29.25 1.15 -29.35 0.05 -29.4 -1.45 -29.4 -2.1 -29.25 -2.5" fill="#000000" fill-rule="evenodd" stroke="none"/>
    <path d="M-31.95 -2.85 L-31.7 -3.2 -31.3 -3.25 Q-31.1 -3.2 -31.0 -3.0 L-30.9 -2.6 -30.95 -1.75 -30.9 -0.95 -30.8 -0.15 -30.8 0.15 -30.75 0.65 -30.65 1.4 -30.5 1.9 -30.55 2.35 -30.85 2.6 -31.05 2.65 -31.55 2.25 -31.7 1.4 -31.75 0.9 -31.9 0.15 -31.9 -0.15 -31.95 -0.65 -32.05 -1.75 -31.95 -2.85" fill="#000000" fill-rule="evenodd" stroke="none"/>
    <path d="M29.2 -3.7 L29.45 -3.45 29.55 -3.3 29.6 -3.25 29.65 -3.2 29.75 -3.1 29.75 -3.05 29.85 -3.0 30.0 -2.75 30.05 -2.65 30.2 -2.45 30.35 -2.25 30.4 -2.15 30.55 -1.9 30.6 -1.75 30.7 -1.65 30.75 -1.45 30.85 -1.35 31.1 -0.6 31.2 -0.3 31.25 -0.15 31.45 0.5 31.8 -0.35 32.0 -0.8 32.1 -1.1 32.35 -1.6 32.4 -1.6 32.4 -1.65 32.8 -1.85 33.15 -1.75 Q33.5 -1.5 33.3 -1.1 L33.3 -1.05 33.3 -1.0 33.1 0.2 33.1 0.75 33.2 2.3 33.3 3.45 33.2 3.85 32.9 4.1 32.5 4.0 32.25 3.7 32.1 2.3 32.1 2.2 31.8 3.35 31.8 3.5 31.75 3.6 31.7 3.75 31.5 5.05 31.5 5.2 31.45 5.5 31.45 5.65 31.45 5.8 31.45 6.1 31.4 6.25 31.4 6.55 31.4 6.7 31.4 9.9 31.2 8.4 31.15 8.4 31.1 10.2 30.9 8.4 30.8 8.4 30.7 10.75 30.5 8.6 30.25 9.9 30.25 6.0 30.35 6.0 30.35 5.75 30.35 5.55 30.35 5.4 30.4 5.1 30.4 4.95 30.55 4.0 30.55 3.85 30.6 3.5 30.65 3.35 30.7 3.25 30.75 3.1 30.75 2.95 30.85 2.65 30.85 2.5 30.8 2.2 30.75 2.1 30.75 1.95 30.7 1.85 30.65 1.7 30.35 0.65 30.3 0.5 29.85 -0.75 29.8 -0.9 29.7 -1.1 29.7 -1.15 29.65 -1.25 29.6 -1.3 29.55 -1.4 29.45 -1.55 29.15 -2.0 29.15 -2.05 29.1 -2.0 26.65 -5.0 27.75 -4.0 27.8 -4.0 26.7 -5.4 27.95 -4.15 28.1 -4.2 26.65 -6.1 28.15 -4.6 27.5 -5.75 28.75 -4.25 28.8 -4.15 28.9 -4.05 28.95 -4.0 29.05 -3.9 29.1 -3.8 29.15 -3.75 29.2 -3.7" fill="#000000" fill-rule="evenodd" stroke="none"/>
    <path d="M35.95 -1.55 L35.8 -0.4 35.7 0.65 35.55 2.0 35.45 3.1 35.25 3.5 34.9 3.65 34.5 3.5 34.35 3.1 34.5 1.8 34.6 0.65 34.75 -0.55 34.85 -1.55 35.05 -1.95 Q35.2 -2.15 35.4 -2.15 L35.8 -1.95 35.95 -1.55" fill="#000000" fill-rule="evenodd" stroke="none"/>
    <path d="M38.6 -8.5 L38.35 -6.15 38.5 -6.15 38.95 -7.9 38.75 -6.1 39.15 -7.6 38.95 -6.05 38.95 -6.0 38.9 -5.55 38.9 -5.5 38.85 -5.4 38.85 -5.3 38.8 -5.05 38.8 -4.95 38.75 -4.6 38.75 -4.5 38.7 -4.4 38.7 -4.25 38.7 -4.05 38.7 -3.95 38.65 -3.8 38.65 -3.7 38.6 -3.5 38.6 -3.4 38.6 -3.25 38.6 -3.15 38.55 -3.05 38.55 -2.95 38.55 -2.8 38.55 -2.6 38.45 -1.85 38.25 -1.2 38.2 -1.05 38.15 -0.9 37.95 -0.4 37.9 -0.25 37.5 0.65 37.45 0.85 37.3 1.1 37.3 1.3 37.2 1.4 37.1 1.85 37.05 1.95 37.0 2.1 36.95 2.3 36.95 2.7 36.8 3.05 36.4 3.2 36.05 3.05 35.85 2.7 35.85 2.15 35.85 2.05 35.95 0.55 36.05 -0.55 36.15 -1.5 36.3 -1.9 36.7 -2.05 37.2 -1.6 37.3 -1.8 37.3 -1.95 37.35 -2.1 37.4 -2.45 37.4 -2.55 37.45 -2.7 37.45 -2.8 37.45 -2.9 37.45 -3.15 37.5 -3.25 37.5 -3.4 37.5 -3.6 37.5 -3.7 37.55 -3.85 37.55 -3.9 37.5 -3.9 37.85 -6.05 37.85 -6.1 38.1 -7.75 38.1 -6.45 38.6 -8.5" fill="#000000" fill-rule="evenodd" stroke="none"/>
    <path d="M34.75 -1.35 L34.65 -0.8 34.55 -0.05 34.45 0.45 34.45 0.75 34.35 1.5 34.35 3.2 34.3 3.6 33.95 3.85 33.55 3.75 33.3 3.45 33.25 2.3 33.35 1.25 33.4 0.75 33.4 0.45 33.5 -0.35 33.6 -0.85 33.7 -1.65 Q33.85 -2.05 34.25 -2.05 L34.4 -2.0 34.7 -1.75 34.75 -1.35" fill="#000000" fill-rule="evenodd" stroke="none"/>
    <path d="M46.05 0.05 L48.05 0.85 49.95 1.1 50.0 2.15 47.75 1.85 45.65 1.1 43.6 0.35 41.4 0.05 37.45 0.75 33.3 1.7 31.7 1.85 Q28.95 2.0 24.05 0.95 19.2 -0.1 17.3 0.0 L16.7 0.05 16.55 -1.0 17.25 -1.1 24.3 -0.1 Q29.15 0.95 31.65 0.8 L33.1 0.65 37.2 -0.3 41.35 -1.0 43.9 -0.7 46.05 0.05" fill="#000000" fill-rule="evenodd" stroke="none"/>
    <path d="M38.3 1.9 Q35.05 2.05 33.2 1.05 31.25 -0.1 26.9 0.15 L21.35 0.8 17.15 1.35 16.5 1.35 15.9 1.2 16.45 0.25 16.6 0.3 17.1 0.3 21.15 -0.3 26.85 -0.95 Q31.45 -1.15 33.75 0.1 35.25 1.0 38.25 0.85 L42.6 0.3 47.05 -0.2 50.0 -0.1 49.85 0.95 47.1 0.85 42.75 1.4 38.3 1.9" fill="#000000" fill-rule="evenodd" stroke="none"/>
  </g>
</svg>
