<?xml version="1.0" encoding="UTF-8" standalone="no"?>
<svg xmlns:xlink="http://www.w3.org/1999/xlink" height="100.0px" width="85.3px" xmlns="http://www.w3.org/2000/svg">
  <g transform="matrix(1.0, 0.0, 0.0, 1.0, 42.65, 50.0)">
    <path d="M16.65 -50.0 L16.75 -49.8 Q16.65 -49.75 16.6 -49.85 L16.65 -50.0" fill="#000000" fill-rule="evenodd" stroke="none"/>
    <path d="M19.65 -49.25 L19.85 -49.1 19.55 -49.05 19.65 -49.25" fill="#000000" fill-rule="evenodd" stroke="none"/>
    <path d="M15.65 -49.05 L15.75 -49.05 15.65 -48.95 15.65 -49.05" fill="#000000" fill-rule="evenodd" stroke="none"/>
    <path d="M12.85 -48.15 L12.95 -48.0 Q12.85 -47.9 12.75 -47.9 L12.7 -48.05 Q12.7 -48.2 12.85 -48.15" fill="#000000" fill-rule="evenodd" stroke="none"/>
    <path d="M26.35 -47.9 L26.5 -47.75 26.3 -47.7 26.35 -47.9" fill="#000000" fill-rule="evenodd" stroke="none"/>
    <path d="M32.2 -46.95 L32.0 -46.8 31.85 -47.0 32.2 -46.95" fill="#000000" fill-rule="evenodd" stroke="none"/>
    <path d="M22.6 -46.7 L22.4 -46.65 Q22.3 -46.8 22.5 -46.9 L22.6 -46.7" fill="#000000" fill-rule="evenodd" stroke="none"/>
    <path d="M25.0 -45.8 L24.8 -45.9 Q24.8 -46.45 25.1 -46.2 25.4 -45.95 25.0 -45.8" fill="#000000" fill-rule="evenodd" stroke="none"/>
    <path d="M30.35 -45.7 L30.35 -45.35 Q30.25 -45.2 30.05 -45.35 30.0 -45.85 30.35 -45.7" fill="#000000" fill-rule="evenodd" stroke="none"/>
    <path d="M28.45 -45.7 L28.65 -45.65 Q28.65 -45.55 28.45 -45.55 L28.45 -45.7" fill="#000000" fill-rule="evenodd" stroke="none"/>
    <path d="M-10.0 -44.2 L-10.2 -44.4 -10.0 -44.4 -10.0 -44.2" fill="#000000" fill-rule="evenodd" stroke="none"/>
    <path d="M10.05 -44.4 L10.1 -44.05 Q10.0 -43.85 9.75 -43.95 9.55 -44.25 10.05 -44.4" fill="#000000" fill-rule="evenodd" stroke="none"/>
    <path d="M21.5 -44.4 L21.65 -44.3 21.7 -44.1 21.45 -44.2 21.5 -44.4" fill="#000000" fill-rule="evenodd" stroke="none"/>
    <path d="M19.3 -44.1 L19.35 -43.9 19.2 -43.75 19.0 -43.85 Q19.1 -44.1 19.3 -44.1" fill="#000000" fill-rule="evenodd" stroke="none"/>
    <path d="M-5.6 -43.6 Q-5.4 -43.6 -5.5 -43.4 L-5.65 -43.45 -5.6 -43.6" fill="#000000" fill-rule="evenodd" stroke="none"/>
    <path d="M-7.2 -42.8 L-7.15 -42.75 -7.1 -42.6 Q-7.35 -42.6 -7.2 -42.8" fill="#000000" fill-rule="evenodd" stroke="none"/>
    <path d="M-0.8 -42.7 L-0.5 -42.6 -0.7 -42.55 -0.8 -42.7" fill="#000000" fill-rule="evenodd" stroke="none"/>
    <path d="M8.0 -42.1 L8.05 -42.0 Q7.9 -41.9 7.95 -42.05 L8.0 -42.1" fill="#000000" fill-rule="evenodd" stroke="none"/>
    <path d="M36.4 -41.95 L36.5 -41.85 36.4 -41.85 36.4 -41.95" fill="#000000" fill-rule="evenodd" stroke="none"/>
    <path d="M19.5 -41.75 L19.65 -41.55 19.5 -41.5 19.45 -41.6 19.5 -41.75" fill="#000000" fill-rule="evenodd" stroke="none"/>
    <path d="M16.0 -41.25 L15.65 -40.95 Q15.35 -41.4 15.65 -41.55 L16.0 -41.25" fill="#000000" fill-rule="evenodd" stroke="none"/>
    <path d="M-12.5 -41.45 L-12.55 -41.35 -12.6 -41.45 -12.5 -41.45" fill="#000000" fill-rule="evenodd" stroke="none"/>
    <path d="M9.85 -40.95 L10.0 -40.95 9.95 -40.8 9.85 -40.95" fill="#000000" fill-rule="evenodd" stroke="none"/>
    <path d="M5.95 -39.95 L5.95 -39.65 Q5.75 -39.6 5.85 -39.8 L5.95 -39.95" fill="#000000" fill-rule="evenodd" stroke="none"/>
    <path d="M30.85 -39.75 L30.65 -39.7 30.75 -39.8 30.85 -39.75" fill="#000000" fill-rule="evenodd" stroke="none"/>
    <path d="M-3.75 -39.35 L-4.1 -39.3 -3.95 -39.55 -3.75 -39.35" fill="#000000" fill-rule="evenodd" stroke="none"/>
    <path d="M-15.75 -38.85 L-16.1 -38.75 -16.25 -38.95 -16.0 -39.1 -15.75 -38.85" fill="#000000" fill-rule="evenodd" stroke="none"/>
    <path d="M-8.5 -38.65 L-8.4 -38.55 -8.45 -38.45 -8.6 -38.5 -8.5 -38.65" fill="#000000" fill-rule="evenodd" stroke="none"/>
    <path d="M3.3 -38.65 L3.2 -38.55 3.15 -38.65 3.3 -38.65" fill="#000000" fill-rule="evenodd" stroke="none"/>
    <path d="M16.4 -38.55 L16.5 -38.4 16.35 -38.4 16.4 -38.55" fill="#000000" fill-rule="evenodd" stroke="none"/>
    <path d="M22.25 -38.35 L22.1 -38.1 Q21.95 -38.1 21.95 -38.35 L22.25 -38.35" fill="#000000" fill-rule="evenodd" stroke="none"/>
    <path d="M20.0 -38.35 L20.1 -38.35 Q20.1 -38.2 19.9 -38.2 L20.0 -38.35" fill="#000000" fill-rule="evenodd" stroke="none"/>
    <path d="M35.2 -37.35 L34.95 -37.35 Q34.75 -37.75 35.15 -37.7 35.5 -37.65 35.2 -37.35" fill="#000000" fill-rule="evenodd" stroke="none"/>
    <path d="M40.25 -37.75 L40.25 -37.55 40.1 -37.55 Q40.0 -37.55 40.05 -37.65 L40.25 -37.75" fill="#000000" fill-rule="evenodd" stroke="none"/>
    <path d="M-7.95 -37.3 L-8.2 -37.45 Q-8.1 -37.8 -7.85 -37.65 -7.6 -37.45 -7.95 -37.3" fill="#000000" fill-rule="evenodd" stroke="none"/>
    <path d="M-19.2 -37.6 L-19.05 -37.55 Q-19.05 -37.4 -19.2 -37.4 L-19.2 -37.6" fill="#000000" fill-rule="evenodd" stroke="none"/>
    <path d="M-4.15 -37.55 L-4.15 -37.45 -4.3 -37.45 -4.15 -37.55" fill="#000000" fill-rule="evenodd" stroke="none"/>
    <path d="M6.85 -37.3 L7.0 -37.3 6.95 -37.2 6.85 -37.3" fill="#000000" fill-rule="evenodd" stroke="none"/>
    <path d="M7.15 -37.3 L7.25 -37.3 7.25 -37.15 7.15 -37.3" fill="#000000" fill-rule="evenodd" stroke="none"/>
    <path d="M18.1 -36.7 L18.15 -36.5 Q18.05 -36.45 18.05 -36.55 L18.1 -36.7" fill="#000000" fill-rule="evenodd" stroke="none"/>
    <path d="M35.75 -36.7 L35.85 -36.5 35.65 -36.5 35.75 -36.7" fill="#000000" fill-rule="evenodd" stroke="none"/>
    <path d="M33.85 -36.25 L33.65 -36.25 Q33.65 -36.7 33.95 -36.6 34.2 -36.45 33.85 -36.25" fill="#000000" fill-rule="evenodd" stroke="none"/>
    <path d="M-4.25 -36.15 L-4.45 -36.0 -4.6 -36.15 -4.4 -36.25 -4.25 -36.15" fill="#000000" fill-rule="evenodd" stroke="none"/>
    <path d="M34.55 -35.95 Q34.55 -36.45 34.75 -36.2 35.05 -35.9 34.55 -35.95" fill="#000000" fill-rule="evenodd" stroke="none"/>
    <path d="M-11.1 -35.9 L-11.15 -35.85 -11.2 -35.95 -11.1 -35.9" fill="#000000" fill-rule="evenodd" stroke="none"/>
    <path d="M42.4 -35.8 L42.45 -35.7 Q42.35 -35.6 42.25 -35.6 L42.4 -35.8" fill="#000000" fill-rule="evenodd" stroke="none"/>
    <path d="M37.75 -35.4 L37.65 -35.1 Q37.5 -35.1 37.5 -35.35 L37.75 -35.4" fill="#000000" fill-rule="evenodd" stroke="none"/>
    <path d="M17.75 -35.3 L17.7 -35.05 Q17.5 -35.05 17.5 -35.35 L17.75 -35.3" fill="#000000" fill-rule="evenodd" stroke="none"/>
    <path d="M2.75 -35.35 L2.85 -35.25 Q2.85 -35.15 2.75 -35.2 L2.75 -35.35" fill="#000000" fill-rule="evenodd" stroke="none"/>
    <path d="M17.05 -34.95 L17.15 -34.75 17.05 -34.75 17.05 -34.95" fill="#000000" fill-rule="evenodd" stroke="none"/>
    <path d="M25.65 -34.7 Q25.45 -34.6 25.45 -34.8 L25.55 -34.8 25.65 -34.7" fill="#000000" fill-rule="evenodd" stroke="none"/>
    <path d="M2.55 -34.5 L2.5 -34.35 2.45 -34.45 2.55 -34.5" fill="#000000" fill-rule="evenodd" stroke="none"/>
    <path d="M10.2 -34.5 L10.35 -34.4 10.2 -34.4 10.2 -34.5" fill="#000000" fill-rule="evenodd" stroke="none"/>
    <path d="M21.3 -33.85 L21.35 -33.75 21.25 -33.75 21.3 -33.85" fill="#000000" fill-rule="evenodd" stroke="none"/>
    <path d="M14.1 -33.75 L14.05 -33.5 13.85 -33.55 Q13.85 -33.8 14.1 -33.75" fill="#000000" fill-rule="evenodd" stroke="none"/>
    <path d="M33.4 -33.65 L33.45 -33.65 33.35 -33.5 33.4 -33.65" fill="#000000" fill-rule="evenodd" stroke="none"/>
    <path d="M3.05 -33.3 L3.1 -33.05 3.0 -32.9 Q2.65 -32.95 2.7 -33.3 L3.05 -33.3" fill="#000000" fill-rule="evenodd" stroke="none"/>
    <path d="M-1.3 -32.9 Q-1.4 -32.7 -1.55 -32.8 L-1.75 -33.1 Q-1.35 -33.2 -1.3 -32.9" fill="#000000" fill-rule="evenodd" stroke="none"/>
    <path d="M-1.1 -33.0 L-1.0 -32.95 -1.05 -32.9 -1.1 -33.0" fill="#000000" fill-rule="evenodd" stroke="none"/>
    <path d="M36.5 -32.9 L36.4 -32.65 Q36.15 -32.65 36.2 -32.9 L36.5 -32.9" fill="#000000" fill-rule="evenodd" stroke="none"/>
    <path d="M4.35 -32.9 Q4.35 -32.75 4.15 -32.75 L4.2 -32.9 4.35 -32.9" fill="#000000" fill-rule="evenodd" stroke="none"/>
    <path d="M42.5 -32.7 Q42.6 -32.5 42.35 -32.45 42.15 -32.4 42.15 -32.6 L42.25 -32.75 42.5 -32.7" fill="#000000" fill-rule="evenodd" stroke="none"/>
    <path d="M29.55 -32.5 L29.75 -32.45 29.75 -32.25 Q29.45 -32.2 29.55 -32.5" fill="#000000" fill-rule="evenodd" stroke="none"/>
    <path d="M25.3 -32.25 L25.3 -32.05 25.1 -32.1 Q25.0 -32.35 25.3 -32.25" fill="#000000" fill-rule="evenodd" stroke="none"/>
    <path d="M2.25 -31.6 L1.9 -31.8 Q1.75 -32.0 1.85 -32.15 L2.25 -32.0 2.25 -31.6" fill="#000000" fill-rule="evenodd" stroke="none"/>
    <path d="M-1.5 -31.7 Q-1.45 -32.35 -1.2 -31.9 -0.9 -31.5 -1.5 -31.7" fill="#000000" fill-rule="evenodd" stroke="none"/>
    <path d="M20.1 -31.7 L19.85 -31.5 Q19.7 -31.8 20.1 -31.7" fill="#000000" fill-rule="evenodd" stroke="none"/>
    <path d="M-20.0 -31.6 L-19.9 -31.6 -19.9 -31.5 -20.0 -31.5 -20.0 -31.6" fill="#000000" fill-rule="evenodd" stroke="none"/>
    <path d="M38.4 -31.55 L38.45 -31.45 38.35 -31.45 38.4 -31.55" fill="#000000" fill-rule="evenodd" stroke="none"/>
    <path d="M30.2 -31.2 L30.15 -31.05 30.05 -31.15 30.2 -31.2" fill="#000000" fill-rule="evenodd" stroke="none"/>
    <path d="M42.05 -30.7 Q41.75 -30.8 41.95 -31.0 42.2 -31.2 42.25 -30.9 L42.05 -30.7" fill="#000000" fill-rule="evenodd" stroke="none"/>
    <path d="M37.55 -30.7 L37.35 -30.65 Q37.3 -30.8 37.4 -30.8 L37.55 -30.7" fill="#000000" fill-rule="evenodd" stroke="none"/>
    <path d="M1.5 -30.7 L1.5 -30.6 1.4 -30.6 1.5 -30.7" fill="#000000" fill-rule="evenodd" stroke="none"/>
    <path d="M3.55 -30.6 L3.35 -30.45 3.35 -30.6 3.55 -30.6" fill="#000000" fill-rule="evenodd" stroke="none"/>
    <path d="M-8.65 -30.45 L-8.6 -30.3 -8.7 -30.3 -8.65 -30.45" fill="#000000" fill-rule="evenodd" stroke="none"/>
    <path d="M2.05 -30.4 L2.15 -30.25 Q2.1 -30.1 1.95 -30.1 L1.95 -30.25 2.05 -30.4" fill="#000000" fill-rule="evenodd" stroke="none"/>
    <path d="M39.85 -30.25 L39.65 -29.95 Q39.2 -29.85 39.4 -30.2 L39.85 -30.25" fill="#000000" fill-rule="evenodd" stroke="none"/>
    <path d="M19.45 -30.3 L19.5 -30.2 19.3 -30.15 Q19.2 -30.4 19.45 -30.3" fill="#000000" fill-rule="evenodd" stroke="none"/>
    <path d="M-2.55 -30.25 L-2.5 -30.05 -2.6 -30.1 -2.55 -30.25" fill="#000000" fill-rule="evenodd" stroke="none"/>
    <path d="M22.55 -30.15 L22.5 -30.05 22.35 -30.15 22.55 -30.15" fill="#000000" fill-rule="evenodd" stroke="none"/>
    <path d="M13.9 -30.15 L13.85 -29.95 13.7 -30.0 13.75 -30.15 13.9 -30.15" fill="#000000" fill-rule="evenodd" stroke="none"/>
    <path d="M4.0 -30.1 Q3.9 -29.85 3.8 -30.0 L3.85 -30.15 4.0 -30.1" fill="#000000" fill-rule="evenodd" stroke="none"/>
    <path d="M22.95 -29.85 L22.7 -29.8 22.7 -30.1 22.85 -30.0 22.95 -29.85" fill="#000000" fill-rule="evenodd" stroke="none"/>
    <path d="M-0.5 -29.95 L-0.35 -29.75 -0.55 -29.7 -0.5 -29.8 -0.5 -29.95" fill="#000000" fill-rule="evenodd" stroke="none"/>
    <path d="M19.7 -29.9 L19.85 -29.95 19.8 -29.85 19.7 -29.9" fill="#000000" fill-rule="evenodd" stroke="none"/>
    <path d="M5.95 -29.6 L5.75 -29.75 Q5.95 -29.95 5.95 -29.6" fill="#000000" fill-rule="evenodd" stroke="none"/>
    <path d="M11.6 -29.7 L11.55 -29.55 Q11.45 -29.55 11.45 -29.7 L11.6 -29.7" fill="#000000" fill-rule="evenodd" stroke="none"/>
    <path d="M20.5 -29.45 L20.55 -29.25 20.6 -28.95 Q20.3 -28.65 20.1 -29.15 20.0 -29.6 20.5 -29.45" fill="#000000" fill-rule="evenodd" stroke="none"/>
    <path d="M24.5 -29.2 L24.6 -29.05 24.55 -29.0 24.45 -29.1 24.5 -29.2" fill="#000000" fill-rule="evenodd" stroke="none"/>
    <path d="M16.65 -29.2 L16.8 -28.95 16.6 -28.9 16.65 -29.2" fill="#000000" fill-rule="evenodd" stroke="none"/>
    <path d="M39.15 -29.15 Q39.15 -28.7 38.8 -28.85 38.7 -29.15 39.15 -29.15" fill="#000000" fill-rule="evenodd" stroke="none"/>
    <path d="M31.95 -28.9 L32.05 -28.85 31.95 -28.75 31.95 -28.9" fill="#000000" fill-rule="evenodd" stroke="none"/>
    <path d="M35.3 -28.65 Q35.4 -28.45 35.0 -28.4 34.8 -28.55 34.95 -28.65 L35.3 -28.65" fill="#000000" fill-rule="evenodd" stroke="none"/>
    <path d="M30.2 -28.1 L30.0 -28.1 29.75 -28.0 29.7 -28.3 Q30.0 -28.6 30.2 -28.1" fill="#000000" fill-rule="evenodd" stroke="none"/>
    <path d="M6.05 -28.0 L5.65 -27.95 Q5.4 -28.1 5.55 -28.3 5.95 -28.5 6.05 -28.0" fill="#000000" fill-rule="evenodd" stroke="none"/>
    <path d="M33.7 -28.2 L33.75 -28.05 33.45 -28.0 Q33.4 -28.3 33.7 -28.2" fill="#000000" fill-rule="evenodd" stroke="none"/>
    <path d="M7.75 -27.65 Q7.55 -27.75 7.6 -28.0 L7.9 -27.9 Q8.05 -27.65 7.75 -27.65" fill="#000000" fill-rule="evenodd" stroke="none"/>
    <path d="M37.6 -27.8 Q37.6 -27.55 37.35 -27.65 L37.4 -27.8 37.6 -27.8" fill="#000000" fill-rule="evenodd" stroke="none"/>
    <path d="M25.25 -27.75 L25.35 -27.75 25.3 -27.6 25.25 -27.65 25.25 -27.75" fill="#000000" fill-rule="evenodd" stroke="none"/>
    <path d="M7.6 -27.45 Q7.8 -27.5 7.6 -27.25 L7.5 -27.35 7.6 -27.45" fill="#000000" fill-rule="evenodd" stroke="none"/>
    <path d="M-20.35 -27.4 L-20.25 -27.25 -20.4 -27.25 -20.35 -27.4" fill="#000000" fill-rule="evenodd" stroke="none"/>
    <path d="M6.3 -27.35 L6.5 -27.3 6.4 -27.15 6.3 -27.25 6.3 -27.35" fill="#000000" fill-rule="evenodd" stroke="none"/>
    <path d="M8.75 -26.65 L9.05 -26.45 Q9.05 -26.0 8.7 -25.85 L8.25 -25.8 7.8 -25.9 Q7.6 -26.75 8.6 -26.9 L8.75 -26.65" fill="#000000" fill-rule="evenodd" stroke="none"/>
    <path d="M4.5 -26.7 L4.9 -26.45 Q5.15 -26.25 5.0 -26.05 4.35 -25.85 4.5 -26.7" fill="#000000" fill-rule="evenodd" stroke="none"/>
    <path d="M-11.3 -26.55 Q-11.2 -26.35 -11.5 -26.35 L-11.55 -26.55 -11.3 -26.55" fill="#000000" fill-rule="evenodd" stroke="none"/>
    <path d="M9.8 -26.55 L10.3 -26.45 Q10.6 -25.9 10.0 -26.05 9.4 -26.15 9.8 -26.55" fill="#000000" fill-rule="evenodd" stroke="none"/>
    <path d="M28.65 -26.55 L28.75 -26.5 Q28.8 -26.35 28.65 -26.45 L28.65 -26.55" fill="#000000" fill-rule="evenodd" stroke="none"/>
    <path d="M-3.0 -26.45 L-2.9 -26.35 -3.05 -26.4 -3.0 -26.45" fill="#000000" fill-rule="evenodd" stroke="none"/>
    <path d="M34.85 -26.25 L34.7 -26.25 34.6 -26.25 Q34.55 -26.45 34.75 -26.45 L34.85 -26.25" fill="#000000" fill-rule="evenodd" stroke="none"/>
    <path d="M18.15 -26.35 L18.0 -26.05 Q17.85 -26.15 17.85 -26.35 L18.15 -26.35" fill="#000000" fill-rule="evenodd" stroke="none"/>
    <path d="M6.4 -26.35 L6.4 -26.15 6.2 -26.25 6.4 -26.35" fill="#000000" fill-rule="evenodd" stroke="none"/>
    <path d="M15.85 -25.8 L16.15 -25.5 15.75 -25.65 15.85 -25.8" fill="#000000" fill-rule="evenodd" stroke="none"/>
    <path d="M-18.4 -25.45 L-18.5 -25.65 -18.25 -25.6 Q-18.2 -25.45 -18.4 -25.45" fill="#000000" fill-rule="evenodd" stroke="none"/>
    <path d="M16.75 -25.5 L16.95 -25.5 16.8 -25.3 16.75 -25.5" fill="#000000" fill-rule="evenodd" stroke="none"/>
    <path d="M16.05 -25.4 L15.95 -25.2 15.85 -25.35 15.9 -25.5 16.05 -25.4" fill="#000000" fill-rule="evenodd" stroke="none"/>
    <path d="M34.0 -25.3 L33.9 -25.25 33.9 -25.4 34.0 -25.4 34.0 -25.3" fill="#000000" fill-rule="evenodd" stroke="none"/>
    <path d="M17.15 -25.25 L17.25 -25.25 17.15 -25.1 17.15 -25.15 17.15 -25.25" fill="#000000" fill-rule="evenodd" stroke="none"/>
    <path d="M20.1 -25.05 L20.25 -24.9 20.1 -24.85 20.1 -25.05" fill="#000000" fill-rule="evenodd" stroke="none"/>
    <path d="M6.25 -24.85 L6.05 -24.85 5.95 -24.95 6.15 -25.0 6.25 -24.85" fill="#000000" fill-rule="evenodd" stroke="none"/>
    <path d="M23.25 -25.05 L23.35 -24.65 23.15 -24.85 23.25 -25.05" fill="#000000" fill-rule="evenodd" stroke="none"/>
    <path d="M8.4 -24.95 L8.5 -24.95 Q8.55 -24.85 8.6 -24.9 L8.45 -24.75 8.35 -24.85 8.4 -24.95" fill="#000000" fill-rule="evenodd" stroke="none"/>
    <path d="M10.25 -24.85 L10.4 -24.6 10.25 -24.7 10.25 -24.85" fill="#000000" fill-rule="evenodd" stroke="none"/>
    <path d="M15.95 -24.85 L16.05 -24.85 16.05 -24.7 Q15.95 -24.7 15.95 -24.85" fill="#000000" fill-rule="evenodd" stroke="none"/>
    <path d="M16.05 -24.6 L16.05 -24.35 15.75 -24.3 15.75 -24.65 16.05 -24.6" fill="#000000" fill-rule="evenodd" stroke="none"/>
    <path d="M4.05 -24.35 Q3.9 -24.2 3.8 -24.35 L3.75 -24.5 3.95 -24.55 4.05 -24.35" fill="#000000" fill-rule="evenodd" stroke="none"/>
    <path d="M-17.4 -24.55 L-17.3 -24.45 -17.45 -24.45 -17.4 -24.55" fill="#000000" fill-rule="evenodd" stroke="none"/>
    <path d="M1.5 -24.55 L1.55 -24.3 1.4 -24.4 1.5 -24.55" fill="#000000" fill-rule="evenodd" stroke="none"/>
    <path d="M-1.8 -24.4 L-1.65 -24.35 Q-1.65 -24.2 -1.85 -24.25 -1.75 -24.3 -1.8 -24.4" fill="#000000" fill-rule="evenodd" stroke="none"/>
    <path d="M6.4 -24.2 L6.7 -24.05 6.5 -24.05 6.4 -24.2" fill="#000000" fill-rule="evenodd" stroke="none"/>
    <path d="M28.55 -24.1 L28.6 -24.05 28.5 -24.0 28.55 -24.1" fill="#000000" fill-rule="evenodd" stroke="none"/>
    <path d="M2.95 -24.05 L2.95 -23.85 2.8 -23.85 Q2.7 -23.95 2.75 -24.0 L2.95 -24.05" fill="#000000" fill-rule="evenodd" stroke="none"/>
    <path d="M5.3 -24.05 L5.35 -23.8 5.15 -23.95 5.3 -24.05" fill="#000000" fill-rule="evenodd" stroke="none"/>
    <path d="M7.45 -23.95 L7.65 -23.85 7.6 -23.75 7.4 -23.8 7.45 -23.95" fill="#000000" fill-rule="evenodd" stroke="none"/>
    <path d="M36.05 -23.85 L36.25 -23.65 36.05 -23.65 36.05 -23.85" fill="#000000" fill-rule="evenodd" stroke="none"/>
    <path d="M-15.0 -23.75 L-14.85 -23.65 -15.05 -23.6 -15.0 -23.75" fill="#000000" fill-rule="evenodd" stroke="none"/>
    <path d="M7.6 -23.65 L7.9 -23.75 8.15 -23.55 Q8.15 -23.2 7.85 -23.3 7.55 -23.4 7.6 -23.65" fill="#000000" fill-rule="evenodd" stroke="none"/>
    <path d="M-3.2 -23.65 L-3.05 -23.65 -3.1 -23.55 -3.2 -23.65" fill="#000000" fill-rule="evenodd" stroke="none"/>
    <path d="M27.05 -22.85 Q26.8 -22.9 26.7 -23.05 26.55 -23.25 26.7 -23.45 L27.15 -23.6 Q27.35 -23.2 27.05 -22.85" fill="#000000" fill-rule="evenodd" stroke="none"/>
    <path d="M10.4 -23.2 Q11.05 -22.75 10.65 -22.75 10.1 -22.75 10.3 -23.05 9.75 -23.45 10.1 -23.5 10.45 -23.55 10.4 -23.2" fill="#000000" fill-rule="evenodd" stroke="none"/>
    <path d="M2.25 -23.45 L2.25 -23.25 2.15 -23.2 2.05 -23.3 2.25 -23.45" fill="#000000" fill-rule="evenodd" stroke="none"/>
    <path d="M38.2 -23.0 L38.0 -23.3 38.35 -23.25 Q38.45 -23.0 38.2 -23.0" fill="#000000" fill-rule="evenodd" stroke="none"/>
    <path d="M17.05 -23.25 L16.9 -23.1 16.85 -23.25 17.05 -23.25" fill="#000000" fill-rule="evenodd" stroke="none"/>
    <path d="M7.8 -23.25 L7.9 -23.1 7.75 -23.05 7.8 -23.25" fill="#000000" fill-rule="evenodd" stroke="none"/>
    <path d="M9.6 -23.2 L9.8 -23.1 9.65 -22.9 Q9.45 -23.0 9.6 -23.2" fill="#000000" fill-rule="evenodd" stroke="none"/>
    <path d="M33.75 -23.0 Q33.5 -22.95 33.55 -23.1 L33.65 -23.1 33.75 -23.0" fill="#000000" fill-rule="evenodd" stroke="none"/>
    <path d="M-15.8 -23.0 L-15.7 -23.0 -15.6 -23.0 Q-15.55 -22.75 -15.75 -22.75 -16.0 -22.8 -15.8 -23.0" fill="#000000" fill-rule="evenodd" stroke="none"/>
    <path d="M9.45 -23.0 L9.55 -22.9 9.4 -22.85 9.45 -23.0" fill="#000000" fill-rule="evenodd" stroke="none"/>
    <path d="M7.8 -22.95 L7.9 -22.85 8.0 -22.65 7.8 -22.6 Q7.65 -22.75 7.8 -22.95" fill="#000000" fill-rule="evenodd" stroke="none"/>
    <path d="M5.5 -22.85 L5.65 -22.55 Q5.4 -22.45 5.4 -22.65 L5.45 -22.75 5.5 -22.85" fill="#000000" fill-rule="evenodd" stroke="none"/>
    <path d="M20.95 -22.8 L20.95 -22.3 20.6 -22.35 Q20.4 -22.4 20.5 -22.75 L20.95 -22.8" fill="#000000" fill-rule="evenodd" stroke="none"/>
    <path d="M32.05 -22.75 L32.0 -22.7 31.95 -22.75 32.05 -22.75" fill="#000000" fill-rule="evenodd" stroke="none"/>
    <path d="M8.55 -22.75 L8.65 -22.75 8.65 -22.65 8.55 -22.75" fill="#000000" fill-rule="evenodd" stroke="none"/>
    <path d="M17.5 -22.75 L17.7 -22.65 17.5 -22.5 17.5 -22.75" fill="#000000" fill-rule="evenodd" stroke="none"/>
    <path d="M19.75 -22.45 Q19.55 -22.35 19.45 -22.55 L19.65 -22.7 19.75 -22.45" fill="#000000" fill-rule="evenodd" stroke="none"/>
    <path d="M1.35 -22.65 L1.65 -22.6 1.4 -22.35 Q1.3 -22.35 1.35 -22.65" fill="#000000" fill-rule="evenodd" stroke="none"/>
    <path d="M6.6 -22.65 L6.8 -22.3 Q6.8 -21.85 6.2 -22.05 L6.05 -22.5 6.6 -22.65" fill="#000000" fill-rule="evenodd" stroke="none"/>
    <path d="M10.0 -22.3 L10.4 -22.3 9.5 -22.25 Q9.45 -22.55 9.7 -22.5 L10.0 -22.3" fill="#000000" fill-rule="evenodd" stroke="none"/>
    <path d="M0.15 -22.45 L0.25 -22.45 0.2 -22.35 0.15 -22.45" fill="#000000" fill-rule="evenodd" stroke="none"/>
    <path d="M22.3 -22.45 L22.25 -22.3 22.05 -22.3 22.3 -22.45" fill="#000000" fill-rule="evenodd" stroke="none"/>
    <path d="M1.75 -22.45 L1.8 -22.4 1.7 -22.35 1.75 -22.45" fill="#000000" fill-rule="evenodd" stroke="none"/>
    <path d="M23.35 -22.45 L23.35 -22.3 23.25 -22.3 23.35 -22.45" fill="#000000" fill-rule="evenodd" stroke="none"/>
    <path d="M7.35 -21.95 L7.05 -21.95 Q6.95 -22.0 6.95 -22.2 L7.25 -22.25 7.35 -21.95" fill="#000000" fill-rule="evenodd" stroke="none"/>
    <path d="M19.15 -22.25 L19.2 -22.15 19.1 -22.05 19.15 -22.25" fill="#000000" fill-rule="evenodd" stroke="none"/>
    <path d="M5.3 -22.15 L5.4 -22.1 5.3 -22.0 5.3 -22.15" fill="#000000" fill-rule="evenodd" stroke="none"/>
    <path d="M9.2 -21.05 Q8.95 -21.25 9.0 -21.55 L8.85 -22.1 Q9.2 -22.3 9.4 -21.7 9.55 -21.15 9.2 -21.05" fill="#000000" fill-rule="evenodd" stroke="none"/>
    <path d="M19.75 -22.1 L19.7 -22.0 19.55 -22.1 19.75 -22.1" fill="#000000" fill-rule="evenodd" stroke="none"/>
    <path d="M-1.45 -22.1 L-1.15 -22.0 -1.3 -21.7 -1.5 -21.9 -1.45 -22.1" fill="#000000" fill-rule="evenodd" stroke="none"/>
    <path d="M30.2 -22.05 Q30.3 -21.65 30.0 -21.65 L29.9 -21.95 Q29.9 -22.2 30.2 -22.05" fill="#000000" fill-rule="evenodd" stroke="none"/>
    <path d="M4.75 -21.95 L4.65 -21.85 Q4.55 -21.85 4.55 -21.9 L4.55 -22.0 4.75 -21.95" fill="#000000" fill-rule="evenodd" stroke="none"/>
    <path d="M15.95 -21.95 L16.05 -21.9 15.9 -21.8 15.95 -21.95" fill="#000000" fill-rule="evenodd" stroke="none"/>
    <path d="M18.45 -21.85 L18.45 -21.7 18.3 -21.85 18.45 -21.85" fill="#000000" fill-rule="evenodd" stroke="none"/>
    <path d="M23.7 -21.8 L23.8 -21.8 23.75 -21.65 23.7 -21.8" fill="#000000" fill-rule="evenodd" stroke="none"/>
    <path d="M23.6 -21.65 L23.55 -21.45 23.4 -21.65 23.6 -21.65" fill="#000000" fill-rule="evenodd" stroke="none"/>
    <path d="M7.0 -21.65 L7.15 -21.65 7.15 -21.55 7.0 -21.65" fill="#000000" fill-rule="evenodd" stroke="none"/>
    <path d="M15.8 -21.3 L16.0 -21.5 16.25 -21.65 16.5 -21.35 16.55 -20.95 16.2 -20.75 Q15.9 -20.65 15.95 -20.9 L15.75 -20.8 15.7 -21.1 15.8 -21.3" fill="#000000" fill-rule="evenodd" stroke="none"/>
    <path d="M28.25 -21.15 L27.9 -21.05 27.8 -21.45 Q28.25 -21.45 28.25 -21.15" fill="#000000" fill-rule="evenodd" stroke="none"/>
    <path d="M37.2 -21.45 L37.3 -21.4 37.2 -21.3 37.2 -21.45" fill="#000000" fill-rule="evenodd" stroke="none"/>
    <path d="M0.2 -21.45 L0.3 -21.45 0.2 -21.3 0.2 -21.45" fill="#000000" fill-rule="evenodd" stroke="none"/>
    <path d="M33.25 -21.2 L33.3 -20.75 Q33.1 -20.7 32.9 -21.0 32.95 -21.35 33.25 -21.2" fill="#000000" fill-rule="evenodd" stroke="none"/>
    <path d="M37.05 -21.25 L37.15 -21.05 36.95 -21.0 Q36.8 -21.05 36.9 -21.15 L37.05 -21.25" fill="#000000" fill-rule="evenodd" stroke="none"/>
    <path d="M41.05 -20.9 L40.75 -20.95 Q40.7 -21.25 40.95 -21.2 41.25 -21.1 41.05 -20.9" fill="#000000" fill-rule="evenodd" stroke="none"/>
    <path d="M24.85 -21.15 L24.9 -20.9 24.75 -21.0 24.85 -21.15" fill="#000000" fill-rule="evenodd" stroke="none"/>
    <path d="M18.25 -20.9 Q18.55 -21.15 18.8 -21.05 19.0 -20.7 18.75 -20.5 18.45 -20.3 18.25 -20.65 L18.25 -20.9" fill="#000000" fill-rule="evenodd" stroke="none"/>
    <path d="M30.7 -20.8 L30.45 -20.6 Q30.3 -20.7 30.3 -21.05 L30.7 -20.8" fill="#000000" fill-rule="evenodd" stroke="none"/>
    <path d="M5.55 -20.9 L5.4 -20.8 5.3 -20.85 5.4 -21.0 5.55 -20.9" fill="#000000" fill-rule="evenodd" stroke="none"/>
    <path d="M21.05 -21.05 Q21.45 -20.8 21.2 -20.5 L20.85 -20.55 Q20.7 -20.7 20.85 -20.9 L21.05 -21.05" fill="#000000" fill-rule="evenodd" stroke="none"/>
    <path d="M0.35 -20.7 Q0.2 -20.7 0.15 -20.85 L0.35 -20.9 0.35 -20.7" fill="#000000" fill-rule="evenodd" stroke="none"/>
    <path d="M-7.5 -20.9 L-7.4 -20.7 -7.55 -20.75 -7.5 -20.9" fill="#000000" fill-rule="evenodd" stroke="none"/>
    <path d="M19.65 -20.8 L19.8 -20.35 19.75 -19.85 19.55 -19.8 19.35 -19.85 19.0 -19.7 Q18.8 -19.6 18.8 -19.85 19.2 -20.25 19.05 -20.5 L19.0 -20.7 19.15 -20.9 19.35 -20.6 19.7 -20.6 19.65 -20.8" fill="#000000" fill-rule="evenodd" stroke="none"/>
    <path d="M15.85 -20.7 L16.05 -20.5 16.15 -20.2 15.95 -20.15 15.8 -20.4 Q15.75 -20.6 15.85 -20.7" fill="#000000" fill-rule="evenodd" stroke="none"/>
    <path d="M26.15 -20.5 L26.1 -20.35 26.05 -20.2 Q25.75 -20.15 25.85 -20.5 25.95 -20.8 26.15 -20.5" fill="#000000" fill-rule="evenodd" stroke="none"/>
    <path d="M28.8 -20.0 Q28.15 -20.15 28.6 -20.45 29.1 -20.75 28.8 -20.0" fill="#000000" fill-rule="evenodd" stroke="none"/>
    <path d="M8.05 -20.35 Q8.2 -20.05 7.9 -20.0 L7.55 -19.95 Q7.4 -20.1 7.4 -20.35 L7.8 -20.45 8.05 -20.35" fill="#000000" fill-rule="evenodd" stroke="none"/>
    <path d="M5.2 -20.45 L5.45 -20.35 5.55 -20.05 5.2 -20.05 4.9 -20.25 5.2 -20.45" fill="#000000" fill-rule="evenodd" stroke="none"/>
    <path d="M37.9 -20.25 L37.8 -20.15 Q37.65 -20.15 37.6 -20.25 L37.8 -20.4 37.9 -20.25" fill="#000000" fill-rule="evenodd" stroke="none"/>
    <path d="M20.85 -20.25 L20.95 -20.2 20.85 -19.85 20.5 -19.85 20.65 -20.15 Q20.8 -20.0 20.85 -20.25" fill="#000000" fill-rule="evenodd" stroke="none"/>
    <path d="M11.4 -20.05 L11.25 -20.05 11.3 -20.2 11.4 -20.05" fill="#000000" fill-rule="evenodd" stroke="none"/>
    <path d="M18.45 -20.1 L18.55 -20.1 18.5 -19.95 18.45 -20.1" fill="#000000" fill-rule="evenodd" stroke="none"/>
    <path d="M24.7 -20.0 Q24.55 -19.75 24.35 -19.85 L24.45 -20.05 24.7 -20.0" fill="#000000" fill-rule="evenodd" stroke="none"/>
    <path d="M17.95 -20.05 L18.05 -19.8 17.9 -19.8 17.95 -20.05" fill="#000000" fill-rule="evenodd" stroke="none"/>
    <path d="M20.35 -20.0 L20.35 -19.8 20.2 -19.6 Q20.0 -19.6 20.05 -19.85 L20.2 -19.95 20.35 -20.0" fill="#000000" fill-rule="evenodd" stroke="none"/>
    <path d="M22.55 -19.95 L22.5 -19.85 Q22.35 -19.85 22.35 -20.0 L22.55 -19.95" fill="#000000" fill-rule="evenodd" stroke="none"/>
    <path d="M26.25 -19.95 Q26.45 -19.6 26.1 -19.5 25.75 -19.35 25.75 -19.7 L25.9 -19.95 26.25 -19.95" fill="#000000" fill-rule="evenodd" stroke="none"/>
    <path d="M31.5 -19.85 L31.6 -19.85 31.6 -19.6 31.5 -19.6 31.5 -19.85" fill="#000000" fill-rule="evenodd" stroke="none"/>
    <path d="M19.5 -19.7 L19.65 -19.7 19.55 -19.55 19.5 -19.7" fill="#000000" fill-rule="evenodd" stroke="none"/>
    <path d="M7.45 -19.65 L7.6 -19.6 7.5 -19.55 7.45 -19.65" fill="#000000" fill-rule="evenodd" stroke="none"/>
    <path d="M18.45 -19.2 L18.35 -19.55 18.65 -19.55 18.65 -19.3 18.45 -19.2" fill="#000000" fill-rule="evenodd" stroke="none"/>
    <path d="M8.0 -19.45 L8.1 -19.4 Q8.1 -19.2 7.9 -19.4 L8.0 -19.45" fill="#000000" fill-rule="evenodd" stroke="none"/>
    <path d="M1.1 -19.4 L0.95 -19.25 0.95 -19.4 1.1 -19.4" fill="#000000" fill-rule="evenodd" stroke="none"/>
    <path d="M26.75 -19.4 Q27.15 -19.1 26.8 -18.95 L26.65 -19.1 Q26.6 -18.95 26.45 -19.0 L26.45 -19.2 26.65 -19.2 26.75 -19.4" fill="#000000" fill-rule="evenodd" stroke="none"/>
    <path d="M28.55 -19.4 L28.6 -18.95 28.2 -19.05 Q28.25 -19.4 28.55 -19.4" fill="#000000" fill-rule="evenodd" stroke="none"/>
    <path d="M-10.25 -18.7 L-10.55 -18.4 Q-10.7 -18.2 -10.95 -18.25 L-11.3 -18.45 -11.5 -18.85 Q-11.45 -19.45 -10.9 -19.3 -10.35 -19.2 -10.25 -18.7" fill="#000000" fill-rule="evenodd" stroke="none"/>
    <path d="M20.3 -19.3 Q20.25 -19.2 20.35 -19.15 L20.3 -18.95 Q20.05 -18.85 20.0 -19.1 L20.3 -19.3" fill="#000000" fill-rule="evenodd" stroke="none"/>
    <path d="M24.0 -19.2 L23.95 -18.65 Q23.8 -18.35 23.55 -18.65 23.35 -18.85 23.55 -19.05 23.7 -19.3 24.0 -19.2" fill="#000000" fill-rule="evenodd" stroke="none"/>
    <path d="M19.15 -19.2 L19.3 -19.1 19.1 -18.95 19.15 -19.2" fill="#000000" fill-rule="evenodd" stroke="none"/>
    <path d="M7.05 -18.75 L6.65 -18.7 6.5 -18.95 Q7.05 -19.1 7.05 -18.75" fill="#000000" fill-rule="evenodd" stroke="none"/>
    <path d="M32.95 -19.0 L33.15 -18.85 33.15 -18.65 Q32.9 -18.65 32.9 -18.75 L32.95 -19.0" fill="#000000" fill-rule="evenodd" stroke="none"/>
    <path d="M37.6 -19.0 L37.7 -18.95 37.65 -18.8 Q37.5 -18.8 37.6 -19.0" fill="#000000" fill-rule="evenodd" stroke="none"/>
    <path d="M0.2 -18.7 Q0.2 -18.4 -0.15 -18.4 -0.5 -18.5 -0.4 -18.8 L-0.05 -18.9 0.2 -18.7" fill="#000000" fill-rule="evenodd" stroke="none"/>
    <path d="M8.25 -18.9 L8.35 -18.85 8.35 -18.8 8.25 -18.9" fill="#000000" fill-rule="evenodd" stroke="none"/>
    <path d="M19.8 -18.9 L19.85 -18.8 19.75 -18.8 19.8 -18.9" fill="#000000" fill-rule="evenodd" stroke="none"/>
    <path d="M40.85 -18.6 L40.95 -18.6 40.9 -18.5 Q40.8 -18.45 40.85 -18.6" fill="#000000" fill-rule="evenodd" stroke="none"/>
    <path d="M8.05 -18.3 L8.55 -18.2 Q8.6 -17.85 8.25 -17.9 7.9 -18.0 8.05 -18.3" fill="#000000" fill-rule="evenodd" stroke="none"/>
    <path d="M6.6 -18.2 L6.5 -18.0 6.35 -18.2 6.6 -18.2" fill="#000000" fill-rule="evenodd" stroke="none"/>
    <path d="M3.45 -17.65 Q3.15 -17.65 3.05 -17.9 L3.45 -18.0 Q3.75 -17.9 3.45 -17.65" fill="#000000" fill-rule="evenodd" stroke="none"/>
    <path d="M21.85 -18.0 L22.05 -17.65 21.7 -17.8 21.7 -17.95 21.85 -18.0" fill="#000000" fill-rule="evenodd" stroke="none"/>
    <path d="M22.35 -17.65 L22.6 -17.7 22.5 -17.55 22.45 -17.6 22.35 -17.65" fill="#000000" fill-rule="evenodd" stroke="none"/>
    <path d="M27.7 -17.4 L27.5 -17.15 Q27.3 -17.25 27.35 -17.55 27.5 -17.75 27.7 -17.4" fill="#000000" fill-rule="evenodd" stroke="none"/>
    <path d="M25.0 -17.6 Q25.1 -17.4 24.8 -17.35 24.7 -17.45 24.75 -17.55 L25.0 -17.6" fill="#000000" fill-rule="evenodd" stroke="none"/>
    <path d="M23.2 -17.55 L23.1 -17.35 23.05 -17.5 23.2 -17.55" fill="#000000" fill-rule="evenodd" stroke="none"/>
    <path d="M11.05 -16.8 Q11.5 -16.15 11.1 -15.9 L10.7 -16.1 10.3 -16.1 Q9.95 -16.05 10.0 -16.4 10.0 -16.75 10.35 -16.7 L10.2 -16.95 Q10.2 -17.75 10.85 -17.5 11.5 -17.3 11.05 -16.8" fill="#000000" fill-rule="evenodd" stroke="none"/>
    <path d="M22.05 -17.45 L22.1 -17.35 21.95 -17.25 22.05 -17.45" fill="#000000" fill-rule="evenodd" stroke="none"/>
    <path d="M31.8 -16.9 Q31.6 -17.25 31.9 -17.4 32.2 -17.55 32.25 -17.25 L32.15 -16.9 31.8 -16.9" fill="#000000" fill-rule="evenodd" stroke="none"/>
    <path d="M37.05 -17.4 L37.15 -17.4 37.05 -17.25 37.05 -17.4" fill="#000000" fill-rule="evenodd" stroke="none"/>
    <path d="M-15.55 -17.4 L-15.35 -17.3 -15.5 -17.25 -15.55 -17.4" fill="#000000" fill-rule="evenodd" stroke="none"/>
    <path d="M25.0 -16.85 L24.75 -16.9 24.65 -17.2 25.0 -17.25 25.0 -16.85" fill="#000000" fill-rule="evenodd" stroke="none"/>
    <path d="M21.75 -16.6 L21.35 -16.75 Q21.1 -16.9 21.4 -17.15 21.65 -17.25 21.75 -17.0 L21.75 -16.6" fill="#000000" fill-rule="evenodd" stroke="none"/>
    <path d="M5.65 -17.0 L5.6 -16.8 5.45 -16.85 5.65 -17.0" fill="#000000" fill-rule="evenodd" stroke="none"/>
    <path d="M27.4 -17.0 L27.6 -16.7 27.4 -16.6 Q27.25 -16.7 27.35 -16.8 L27.4 -17.0" fill="#000000" fill-rule="evenodd" stroke="none"/>
    <path d="M29.1 -16.8 L29.2 -16.75 29.2 -16.6 29.1 -16.6 29.1 -16.8" fill="#000000" fill-rule="evenodd" stroke="none"/>
    <path d="M24.15 -16.45 L23.9 -16.35 23.9 -16.6 Q24.1 -16.75 24.15 -16.45" fill="#000000" fill-rule="evenodd" stroke="none"/>
    <path d="M36.3 -16.65 L36.15 -16.4 36.05 -16.45 36.05 -16.65 36.3 -16.65" fill="#000000" fill-rule="evenodd" stroke="none"/>
    <path d="M27.05 -16.3 L27.6 -15.9 27.25 -15.4 Q27.05 -15.15 26.8 -15.25 26.5 -15.4 26.35 -15.9 26.15 -16.45 26.45 -16.65 L27.05 -16.3" fill="#000000" fill-rule="evenodd" stroke="none"/>
    <path d="M36.15 -15.75 Q35.85 -16.05 36.4 -16.45 L36.5 -16.0 Q36.55 -15.7 36.15 -15.75" fill="#000000" fill-rule="evenodd" stroke="none"/>
    <path d="M21.4 -16.4 L21.4 -16.25 21.3 -16.2 21.3 -16.4 21.4 -16.4" fill="#000000" fill-rule="evenodd" stroke="none"/>
    <path d="M32.15 -16.4 Q32.25 -16.15 32.0 -16.1 31.7 -16.1 31.85 -16.4 L32.15 -16.4" fill="#000000" fill-rule="evenodd" stroke="none"/>
    <path d="M9.65 -16.25 L9.75 -15.8 Q9.65 -15.5 9.35 -15.65 L9.35 -16.0 9.4 -16.25 9.65 -16.25" fill="#000000" fill-rule="evenodd" stroke="none"/>
    <path d="M40.15 -16.25 L40.25 -16.25 40.15 -16.15 40.15 -16.25" fill="#000000" fill-rule="evenodd" stroke="none"/>
    <path d="M30.35 -16.1 L30.85 -16.05 Q30.95 -15.65 30.5 -15.55 30.1 -15.4 30.0 -15.8 L30.35 -16.1" fill="#000000" fill-rule="evenodd" stroke="none"/>
    <path d="M-15.75 -16.15 L-15.85 -15.8 -16.0 -15.9 -16.0 -16.15 -15.75 -16.15" fill="#000000" fill-rule="evenodd" stroke="none"/>
    <path d="M23.55 -15.95 L23.35 -15.75 23.35 -15.95 23.55 -15.95" fill="#000000" fill-rule="evenodd" stroke="none"/>
    <path d="M22.6 -15.7 L23.15 -15.5 Q23.45 -15.15 23.15 -14.95 L23.15 -15.1 Q22.65 -14.9 22.4 -15.25 L22.6 -15.7" fill="#000000" fill-rule="evenodd" stroke="none"/>
    <path d="M24.55 -15.3 L24.25 -15.3 Q24.15 -15.4 24.2 -15.65 L24.55 -15.65 24.55 -15.3" fill="#000000" fill-rule="evenodd" stroke="none"/>
    <path d="M-2.45 -15.1 L-1.85 -15.6 -1.05 -15.45 Q-0.8 -15.1 -0.95 -14.85 L-1.45 -14.45 -2.15 -14.5 -2.35 -14.85 -2.45 -15.1" fill="#000000" fill-rule="evenodd" stroke="none"/>
    <path d="M9.8 -15.2 Q10.1 -14.95 9.75 -14.7 L9.55 -15.0 9.8 -15.2" fill="#000000" fill-rule="evenodd" stroke="none"/>
    <path d="M-31.4 -15.1 L-31.3 -14.95 -31.4 -15.0 -31.4 -15.1" fill="#000000" fill-rule="evenodd" stroke="none"/>
    <path d="M22.35 -15.1 Q22.55 -14.75 22.35 -14.65 22.15 -14.55 22.0 -14.9 L22.35 -15.1" fill="#000000" fill-rule="evenodd" stroke="none"/>
    <path d="M33.45 -15.05 L33.8 -14.95 33.65 -14.6 Q33.35 -14.6 33.45 -15.05" fill="#000000" fill-rule="evenodd" stroke="none"/>
    <path d="M-17.4 -14.95 Q-17.25 -14.55 -17.6 -14.45 -18.05 -14.4 -18.1 -14.75 L-17.8 -15.05 -17.4 -14.95" fill="#000000" fill-rule="evenodd" stroke="none"/>
    <path d="M29.65 -14.85 L29.55 -14.7 29.35 -14.95 29.65 -14.85" fill="#000000" fill-rule="evenodd" stroke="none"/>
    <path d="M36.2 -14.9 L36.3 -14.8 36.3 -14.6 36.0 -14.6 36.2 -14.9" fill="#000000" fill-rule="evenodd" stroke="none"/>
    <path d="M9.35 -14.8 L9.3 -14.35 8.9 -14.25 Q8.7 -14.5 8.9 -14.7 L9.35 -14.8" fill="#000000" fill-rule="evenodd" stroke="none"/>
    <path d="M10.15 -13.95 L9.55 -14.1 Q9.5 -14.7 10.1 -14.55 10.65 -14.4 10.15 -13.95" fill="#000000" fill-rule="evenodd" stroke="none"/>
    <path d="M29.75 -14.6 L29.85 -14.35 29.55 -14.45 29.75 -14.6" fill="#000000" fill-rule="evenodd" stroke="none"/>
    <path d="M30.0 -14.3 L30.05 -14.2 Q30.05 -14.05 29.9 -14.2 L30.0 -14.3" fill="#000000" fill-rule="evenodd" stroke="none"/>
    <path d="M-4.9 -13.75 Q-5.35 -13.75 -5.15 -14.1 -4.95 -14.5 -4.7 -14.1 L-4.9 -13.75" fill="#000000" fill-rule="evenodd" stroke="none"/>
    <path d="M4.15 -13.95 Q4.05 -13.85 3.95 -13.85 3.85 -13.9 3.9 -14.05 4.1 -14.2 4.15 -13.95" fill="#000000" fill-rule="evenodd" stroke="none"/>
    <path d="M22.75 -14.05 L22.8 -13.85 22.7 -13.9 22.75 -14.05" fill="#000000" fill-rule="evenodd" stroke="none"/>
    <path d="M3.4 -13.75 Q3.45 -13.65 3.65 -13.65 L3.9 -13.65 4.15 -13.15 Q4.0 -12.65 3.35 -12.75 L3.15 -13.3 3.25 -13.55 3.4 -13.75" fill="#000000" fill-rule="evenodd" stroke="none"/>
    <path d="M31.1 -13.2 Q30.85 -13.4 31.0 -13.7 31.4 -13.85 31.45 -13.5 31.5 -13.2 31.1 -13.2" fill="#000000" fill-rule="evenodd" stroke="none"/>
    <path d="M10.0 -13.0 Q9.55 -13.35 10.05 -13.55 10.55 -13.7 10.55 -13.25 L10.3 -13.0 10.0 -13.0" fill="#000000" fill-rule="evenodd" stroke="none"/>
    <path d="M34.05 -13.5 L34.2 -13.4 Q34.25 -13.3 34.0 -13.3 L34.05 -13.5" fill="#000000" fill-rule="evenodd" stroke="none"/>
    <path d="M-2.95 -13.3 L-3.0 -13.1 -2.95 -13.0 Q-3.15 -12.85 -3.4 -13.0 L-3.6 -13.3 -3.25 -13.45 -2.95 -13.3" fill="#000000" fill-rule="evenodd" stroke="none"/>
    <path d="M2.8 -13.25 L2.7 -13.1 2.45 -13.1 Q2.25 -13.3 2.5 -13.4 L2.8 -13.25" fill="#000000" fill-rule="evenodd" stroke="none"/>
    <path d="M35.65 -13.15 L35.45 -13.15 35.5 -13.2 35.65 -13.15" fill="#000000" fill-rule="evenodd" stroke="none"/>
    <path d="M-7.0 -12.75 L-7.3 -12.75 -7.2 -13.0 -7.0 -12.75" fill="#000000" fill-rule="evenodd" stroke="none"/>
    <path d="M36.5 -12.8 L36.25 -12.55 Q36.05 -12.75 36.15 -12.95 L36.5 -12.8" fill="#000000" fill-rule="evenodd" stroke="none"/>
    <path d="M-4.6 -12.75 L-4.7 -12.6 -4.75 -12.7 -4.6 -12.75" fill="#000000" fill-rule="evenodd" stroke="none"/>
    <path d="M35.7 -12.55 L35.95 -12.35 35.8 -12.25 Q35.5 -12.3 35.7 -12.55" fill="#000000" fill-rule="evenodd" stroke="none"/>
    <path d="M34.4 -12.45 L34.3 -12.15 34.15 -12.3 34.4 -12.45" fill="#000000" fill-rule="evenodd" stroke="none"/>
    <path d="M39.3 -12.35 L39.3 -12.2 39.15 -12.15 39.15 -12.35 39.3 -12.35" fill="#000000" fill-rule="evenodd" stroke="none"/>
    <path d="M4.35 -12.25 L4.15 -12.05 4.1 -12.2 4.35 -12.25" fill="#000000" fill-rule="evenodd" stroke="none"/>
    <path d="M2.55 -12.2 L2.95 -11.9 3.05 -11.45 2.8 -11.15 2.4 -11.1 1.95 -11.35 1.85 -11.8 Q1.85 -12.1 2.15 -12.1 L2.55 -12.2" fill="#000000" fill-rule="evenodd" stroke="none"/>
    <path d="M8.45 -11.9 L8.25 -11.85 8.1 -12.1 Q8.45 -12.3 8.45 -11.9" fill="#000000" fill-rule="evenodd" stroke="none"/>
    <path d="M29.1 -12.15 Q29.45 -11.9 29.1 -11.9 28.75 -11.85 29.1 -12.15" fill="#000000" fill-rule="evenodd" stroke="none"/>
    <path d="M-8.35 -11.7 L-8.7 -11.45 Q-8.9 -11.55 -8.95 -11.6 L-8.9 -11.95 Q-8.6 -12.05 -8.25 -11.7 L-8.35 -11.7" fill="#000000" fill-rule="evenodd" stroke="none"/>
    <path d="M35.4 -11.9 L35.45 -11.55 Q35.25 -11.45 35.2 -11.7 35.15 -11.9 35.4 -11.9" fill="#000000" fill-rule="evenodd" stroke="none"/>
    <path d="M22.8 -11.8 L22.75 -11.55 Q22.55 -11.55 22.6 -11.75 L22.8 -11.8" fill="#000000" fill-rule="evenodd" stroke="none"/>
    <path d="M5.4 -11.5 L6.2 -11.35 Q6.6 -11.05 6.45 -10.6 6.3 -9.95 5.65 -10.45 5.05 -10.9 5.4 -11.5" fill="#000000" fill-rule="evenodd" stroke="none"/>
    <path d="M33.65 -11.15 Q33.75 -10.8 33.45 -10.8 33.2 -10.8 33.25 -11.15 33.5 -11.35 33.65 -11.15" fill="#000000" fill-rule="evenodd" stroke="none"/>
    <path d="M41.75 -11.15 L41.7 -10.95 41.45 -11.1 41.75 -11.15" fill="#000000" fill-rule="evenodd" stroke="none"/>
    <path d="M-5.25 -10.35 Q-4.8 -10.6 -4.65 -10.2 -4.45 -9.8 -4.9 -9.65 L-5.35 -9.9 -5.25 -10.35" fill="#000000" fill-rule="evenodd" stroke="none"/>
    <path d="M-20.05 -10.15 L-20.0 -10.0 -20.2 -9.95 -20.05 -10.15" fill="#000000" fill-rule="evenodd" stroke="none"/>
    <path d="M-29.65 -9.85 L-29.75 -9.7 -29.75 -9.85 -29.65 -9.85" fill="#000000" fill-rule="evenodd" stroke="none"/>
    <path d="M5.3 -9.75 L5.4 -9.65 5.25 -9.65 5.3 -9.75" fill="#000000" fill-rule="evenodd" stroke="none"/>
    <path d="M10.2 -9.25 L9.95 -9.25 10.1 -9.4 10.2 -9.25" fill="#000000" fill-rule="evenodd" stroke="none"/>
    <path d="M2.65 -9.35 L2.75 -9.3 2.7 -9.15 Q2.6 -9.2 2.65 -9.35" fill="#000000" fill-rule="evenodd" stroke="none"/>
    <path d="M-1.45 -8.65 L-1.8 -8.85 -1.55 -9.0 Q-1.25 -8.85 -1.45 -8.65" fill="#000000" fill-rule="evenodd" stroke="none"/>
    <path d="M5.95 -8.7 Q5.45 -8.55 5.65 -8.85 5.9 -9.25 5.95 -8.7" fill="#000000" fill-rule="evenodd" stroke="none"/>
    <path d="M31.35 -8.55 L31.4 -8.3 Q31.3 -8.2 31.15 -8.2 31.0 -8.2 30.95 -8.3 31.05 -8.7 31.35 -8.55" fill="#000000" fill-rule="evenodd" stroke="none"/>
    <path d="M-9.95 -8.45 L-9.7 -8.35 -9.75 -8.1 Q-9.95 -8.1 -9.95 -8.2 L-9.95 -8.45" fill="#000000" fill-rule="evenodd" stroke="none"/>
    <path d="M9.6 -8.3 L9.65 -8.1 9.45 -8.05 9.4 -8.25 9.6 -8.3" fill="#000000" fill-rule="evenodd" stroke="none"/>
    <path d="M38.0 -8.2 Q38.35 -8.2 38.15 -7.9 L37.95 -8.0 38.0 -8.2" fill="#000000" fill-rule="evenodd" stroke="none"/>
    <path d="M9.4 -8.0 L9.5 -7.95 9.45 -7.85 9.35 -7.9 9.4 -8.0" fill="#000000" fill-rule="evenodd" stroke="none"/>
    <path d="M28.15 -7.75 Q28.5 -7.8 28.55 -7.45 28.55 -7.1 28.25 -7.0 27.9 -6.95 27.8 -7.35 L27.55 -7.35 27.7 -7.55 27.75 -7.4 Q27.8 -7.75 28.15 -7.75" fill="#000000" fill-rule="evenodd" stroke="none"/>
    <path d="M9.2 -7.45 L9.15 -7.35 9.0 -7.35 9.2 -7.45" fill="#000000" fill-rule="evenodd" stroke="none"/>
    <path d="M4.2 -6.65 L4.0 -7.1 Q4.2 -7.9 4.65 -7.2 5.1 -6.5 4.2 -6.65" fill="#000000" fill-rule="evenodd" stroke="none"/>
    <path d="M-6.0 -7.2 Q-6.0 -7.0 -6.2 -7.1 L-6.25 -7.2 -6.1 -7.3 -6.0 -7.2" fill="#000000" fill-rule="evenodd" stroke="none"/>
    <path d="M18.0 -5.5 L17.4 -5.45 17.05 -5.65 16.8 -5.7 16.5 -5.7 Q16.25 -5.8 16.25 -6.1 16.2 -6.4 16.5 -6.4 L17.0 -6.5 17.5 -6.6 17.9 -6.65 18.25 -6.9 18.75 -7.05 19.3 -6.85 Q19.4 -6.3 19.0 -5.8 L18.45 -5.8 18.15 -5.75 18.0 -5.5" fill="#000000" fill-rule="evenodd" stroke="none"/>
    <path d="M10.75 -6.8 Q10.75 -6.65 10.5 -6.7 L10.6 -6.85 10.75 -6.8" fill="#000000" fill-rule="evenodd" stroke="none"/>
    <path d="M8.65 -6.45 Q8.65 -6.15 8.35 -6.45 L8.45 -6.55 8.65 -6.45" fill="#000000" fill-rule="evenodd" stroke="none"/>
    <path d="M11.9 -6.4 L12.15 -6.2 11.9 -6.2 11.9 -6.4" fill="#000000" fill-rule="evenodd" stroke="none"/>
    <path d="M31.1 -6.15 Q30.95 -5.85 30.75 -6.05 L30.9 -6.25 31.1 -6.15" fill="#000000" fill-rule="evenodd" stroke="none"/>
    <path d="M32.15 -6.3 L32.35 -6.25 32.35 -6.05 32.15 -6.1 32.15 -6.3" fill="#000000" fill-rule="evenodd" stroke="none"/>
    <path d="M11.2 -6.25 L11.2 -6.15 11.05 -6.1 Q10.95 -6.15 10.95 -6.15 L11.2 -6.25" fill="#000000" fill-rule="evenodd" stroke="none"/>
    <path d="M15.95 -6.05 L16.0 -5.9 Q15.85 -5.8 15.85 -6.05 L15.95 -6.05" fill="#000000" fill-rule="evenodd" stroke="none"/>
    <path d="M15.75 -5.7 Q16.4 -5.65 16.05 -5.25 15.55 -4.65 15.65 -4.4 L14.9 -4.6 14.3 -5.05 Q14.0 -5.7 14.75 -6.0 L15.75 -5.7" fill="#000000" fill-rule="evenodd" stroke="none"/>
    <path d="M11.45 -5.9 L11.65 -5.85 11.6 -5.7 11.45 -5.9" fill="#000000" fill-rule="evenodd" stroke="none"/>
    <path d="M13.55 -5.3 L13.8 -5.05 13.45 -5.1 13.55 -5.3" fill="#000000" fill-rule="evenodd" stroke="none"/>
    <path d="M11.4 -4.2 Q10.95 -3.85 10.65 -4.3 10.3 -4.75 10.75 -4.9 L11.3 -4.75 Q11.55 -4.5 11.4 -4.2" fill="#000000" fill-rule="evenodd" stroke="none"/>
    <path d="M-4.45 -4.75 Q-3.95 -4.85 -3.7 -4.5 -3.5 -4.25 -3.6 -3.95 L-3.7 -3.4 Q-4.25 -3.05 -4.7 -3.55 -5.15 -4.05 -4.8 -4.6 L-4.45 -4.75" fill="#000000" fill-rule="evenodd" stroke="none"/>
    <path d="M9.75 -4.6 L9.85 -4.6 9.8 -4.5 Q9.7 -4.5 9.75 -4.6" fill="#000000" fill-rule="evenodd" stroke="none"/>
    <path d="M9.1 -4.55 L9.05 -4.35 8.8 -4.45 Q8.85 -4.65 9.1 -4.55" fill="#000000" fill-rule="evenodd" stroke="none"/>
    <path d="M-7.95 -4.05 L-7.85 -3.95 -7.9 -3.9 -7.95 -4.05" fill="#000000" fill-rule="evenodd" stroke="none"/>
    <path d="M11.55 -3.7 Q11.4 -3.95 11.6 -4.05 11.9 -4.1 11.9 -3.85 11.9 -3.7 11.55 -3.7" fill="#000000" fill-rule="evenodd" stroke="none"/>
    <path d="M14.95 -3.9 Q15.1 -3.55 14.85 -3.25 L14.2 -3.15 Q14.0 -3.55 14.3 -3.85 L14.95 -3.9" fill="#000000" fill-rule="evenodd" stroke="none"/>
    <path d="M-0.65 -3.8 Q-0.75 -3.4 -1.0 -3.45 L-1.1 -3.85 -0.9 -3.9 -0.65 -3.8" fill="#000000" fill-rule="evenodd" stroke="none"/>
    <path d="M31.6 -3.65 L31.7 -3.5 31.4 -3.55 31.6 -3.65" fill="#000000" fill-rule="evenodd" stroke="none"/>
    <path d="M37.7 -3.6 Q38.1 -3.6 37.75 -3.35 L37.9 -3.2 38.0 -3.05 37.8 -2.6 37.45 -2.5 Q36.95 -2.65 37.2 -3.1 L37.7 -3.6" fill="#000000" fill-rule="evenodd" stroke="none"/>
    <path d="M-18.5 -3.3 L-18.4 -3.2 -18.4 -3.1 -18.45 -3.1 -18.55 -3.1 -18.5 -3.3" fill="#000000" fill-rule="evenodd" stroke="none"/>
    <path d="M32.45 -2.65 L32.05 -2.6 Q31.8 -2.65 31.95 -2.9 L32.3 -3.0 32.45 -2.65" fill="#000000" fill-rule="evenodd" stroke="none"/>
    <path d="M-2.45 -2.6 L-2.4 -2.45 -2.65 -2.45 Q-2.75 -2.65 -2.45 -2.6" fill="#000000" fill-rule="evenodd" stroke="none"/>
    <path d="M26.95 -2.6 L27.1 -2.45 26.95 -2.45 26.95 -2.6" fill="#000000" fill-rule="evenodd" stroke="none"/>
    <path d="M-12.8 -2.45 L-12.95 -2.3 Q-13.05 -2.3 -13.15 -2.4 L-12.95 -2.55 Q-12.85 -2.6 -12.8 -2.45" fill="#000000" fill-rule="evenodd" stroke="none"/>
    <path d="M11.05 -2.5 L11.3 -2.25 Q11.2 -2.0 11.0 -2.25 L11.05 -2.5" fill="#000000" fill-rule="evenodd" stroke="none"/>
    <path d="M15.4 -2.05 Q15.25 -2.4 15.5 -2.45 L15.85 -2.3 15.75 -2.0 15.4 -2.05" fill="#000000" fill-rule="evenodd" stroke="none"/>
    <path d="M38.0 -2.05 L37.85 -1.65 Q37.7 -1.45 37.45 -1.55 37.3 -1.7 37.3 -1.9 L37.45 -2.2 38.0 -2.05" fill="#000000" fill-rule="evenodd" stroke="none"/>
    <path d="M16.4 -2.1 L16.35 -1.85 16.05 -1.8 16.15 -2.1 16.4 -2.1" fill="#000000" fill-rule="evenodd" stroke="none"/>
    <path d="M15.95 -2.0 L16.0 -1.85 15.8 -1.8 Q15.75 -2.1 15.95 -2.0" fill="#000000" fill-rule="evenodd" stroke="none"/>
    <path d="M-8.0 -1.8 Q-7.95 -1.55 -8.25 -1.45 -8.45 -1.55 -8.3 -1.8 L-8.0 -1.8" fill="#000000" fill-rule="evenodd" stroke="none"/>
    <path d="M29.35 -1.7 L29.65 -1.75 30.0 -1.8 Q30.75 -1.15 29.75 -0.9 28.85 -0.7 29.35 -1.7" fill="#000000" fill-rule="evenodd" stroke="none"/>
    <path d="M13.9 -1.45 L13.7 -1.2 Q13.55 -0.85 13.25 -0.95 12.95 -1.25 13.35 -1.6 13.8 -2.0 13.9 -1.45" fill="#000000" fill-rule="evenodd" stroke="none"/>
    <path d="M14.25 -1.45 Q14.2 -1.3 14.05 -1.35 L14.1 -1.55 14.25 -1.45" fill="#000000" fill-rule="evenodd" stroke="none"/>
    <path d="M-12.45 -1.55 L-12.35 -1.55 -12.35 -1.35 Q-12.6 -1.35 -12.45 -1.55" fill="#000000" fill-rule="evenodd" stroke="none"/>
    <path d="M-13.5 -1.45 L-13.4 -1.35 -13.5 -1.4 -13.5 -1.45" fill="#000000" fill-rule="evenodd" stroke="none"/>
    <path d="M28.55 -1.2 L28.5 -1.05 28.35 -1.05 28.35 -1.25 28.55 -1.2" fill="#000000" fill-rule="evenodd" stroke="none"/>
    <path d="M12.45 -0.5 L12.4 -0.85 Q12.6 -1.25 12.9 -0.95 13.25 -0.7 12.95 -0.4 L12.7 -0.4 12.45 -0.5" fill="#000000" fill-rule="evenodd" stroke="none"/>
    <path d="M-7.6 -0.75 L-7.5 -0.75 -7.5 -0.65 -7.6 -0.75" fill="#000000" fill-rule="evenodd" stroke="none"/>
    <path d="M9.65 -0.6 L9.75 -0.2 Q9.45 0.25 9.25 -0.3 9.05 -0.8 9.65 -0.6" fill="#000000" fill-rule="evenodd" stroke="none"/>
    <path d="M19.5 -0.3 L19.3 -0.3 19.4 -0.5 19.5 -0.3" fill="#000000" fill-rule="evenodd" stroke="none"/>
    <path d="M5.2 -0.35 Q5.6 -0.35 5.4 -0.05 L5.2 -0.05 5.2 -0.35" fill="#000000" fill-rule="evenodd" stroke="none"/>
    <path d="M16.65 -0.3 L16.45 -0.05 16.45 -0.25 16.65 -0.3" fill="#000000" fill-rule="evenodd" stroke="none"/>
    <path d="M42.45 -0.05 L42.6 0.1 42.65 0.35 42.45 -0.05" fill="#000000" fill-rule="evenodd" stroke="none"/>
    <path d="M18.0 -0.05 L18.45 0.05 18.6 0.4 18.25 0.6 17.8 0.6 18.0 -0.05" fill="#000000" fill-rule="evenodd" stroke="none"/>
    <path d="M-1.6 0.05 L-1.25 0.35 Q-1.1 0.55 -1.45 0.65 -1.8 0.75 -1.75 0.5 L-1.6 0.05" fill="#000000" fill-rule="evenodd" stroke="none"/>
    <path d="M29.45 0.35 L29.2 0.35 Q29.2 0.05 29.35 0.1 L29.45 0.35" fill="#000000" fill-rule="evenodd" stroke="none"/>
    <path d="M31.8 0.05 L31.95 0.2 31.7 0.25 31.8 0.05" fill="#000000" fill-rule="evenodd" stroke="none"/>
    <path d="M9.2 0.2 L9.35 0.2 9.35 0.35 9.2 0.2" fill="#000000" fill-rule="evenodd" stroke="none"/>
    <path d="M39.7 0.35 L39.55 0.7 Q39.2 0.7 39.3 0.4 L39.7 0.35" fill="#000000" fill-rule="evenodd" stroke="none"/>
    <path d="M7.05 0.3 L7.15 0.4 7.05 0.5 6.95 0.4 7.05 0.3" fill="#000000" fill-rule="evenodd" stroke="none"/>
    <path d="M12.05 1.55 L11.25 1.4 Q10.95 1.05 11.25 0.6 11.55 0.15 12.05 0.3 12.4 0.4 12.4 0.95 L12.05 1.55" fill="#000000" fill-rule="evenodd" stroke="none"/>
    <path d="M19.85 0.3 L19.85 0.55 19.7 0.35 19.85 0.3" fill="#000000" fill-rule="evenodd" stroke="none"/>
    <path d="M14.75 0.35 L14.85 0.5 14.75 0.4 14.75 0.35" fill="#000000" fill-rule="evenodd" stroke="none"/>
    <path d="M29.0 0.95 L29.2 0.7 29.55 0.45 29.9 0.7 30.0 1.25 29.4 1.35 29.0 0.95" fill="#000000" fill-rule="evenodd" stroke="none"/>
    <path d="M7.45 0.6 L7.6 0.85 7.3 0.95 7.25 0.75 7.45 0.6" fill="#000000" fill-rule="evenodd" stroke="none"/>
    <path d="M17.15 0.7 L17.05 0.9 17.05 0.75 Q17.05 0.65 17.15 0.7" fill="#000000" fill-rule="evenodd" stroke="none"/>
    <path d="M10.8 0.95 L10.9 0.95 10.8 1.05 10.8 0.95" fill="#000000" fill-rule="evenodd" stroke="none"/>
    <path d="M38.25 1.15 L38.25 1.05 38.35 1.1 Q38.35 1.2 38.45 1.15 L38.35 1.45 38.0 1.5 38.0 1.15 Q38.15 0.95 38.25 1.15" fill="#000000" fill-rule="evenodd" stroke="none"/>
    <path d="M5.2 1.3 L5.0 1.55 4.95 1.45 4.85 1.35 Q4.8 1.1 5.0 1.1 L5.2 1.3" fill="#000000" fill-rule="evenodd" stroke="none"/>
    <path d="M9.1 1.25 Q9.2 1.65 8.9 1.6 8.7 1.55 8.8 1.3 L9.1 1.25" fill="#000000" fill-rule="evenodd" stroke="none"/>
    <path d="M26.45 1.25 L26.25 1.5 26.05 1.25 26.45 1.25" fill="#000000" fill-rule="evenodd" stroke="none"/>
    <path d="M37.9 1.25 L37.7 1.45 37.7 1.25 37.9 1.25" fill="#000000" fill-rule="evenodd" stroke="none"/>
    <path d="M19.85 1.45 L19.75 1.8 19.5 1.75 19.55 1.45 19.85 1.45" fill="#000000" fill-rule="evenodd" stroke="none"/>
    <path d="M34.95 1.55 L34.8 1.75 34.75 1.65 Q34.75 1.45 34.95 1.55" fill="#000000" fill-rule="evenodd" stroke="none"/>
    <path d="M9.4 1.6 L9.6 1.8 9.4 1.8 9.4 1.6" fill="#000000" fill-rule="evenodd" stroke="none"/>
    <path d="M14.8 2.75 L14.35 2.85 13.9 2.8 Q13.6 2.6 13.7 2.25 L14.0 1.75 Q14.45 1.45 14.75 1.9 15.1 2.3 14.8 2.75" fill="#000000" fill-rule="evenodd" stroke="none"/>
    <path d="M8.2 1.75 L8.15 1.9 8.0 1.9 8.2 1.75" fill="#000000" fill-rule="evenodd" stroke="none"/>
    <path d="M-22.5 1.9 L-22.35 1.9 -22.3 2.05 Q-22.5 2.05 -22.5 1.9" fill="#000000" fill-rule="evenodd" stroke="none"/>
    <path d="M-35.55 2.4 L-35.75 2.55 -35.75 2.45 -35.55 2.4" fill="#000000" fill-rule="evenodd" stroke="none"/>
    <path d="M-1.8 2.45 L-1.65 2.5 -1.45 2.55 Q-1.3 2.8 -1.45 3.0 L-1.85 3.15 -1.95 2.8 -1.8 2.45" fill="#000000" fill-rule="evenodd" stroke="none"/>
    <path d="M-21.75 2.75 L-21.8 2.9 -22.1 2.9 -22.2 2.55 Q-22.05 2.45 -21.75 2.75" fill="#000000" fill-rule="evenodd" stroke="none"/>
    <path d="M12.05 2.65 L11.85 2.9 11.5 3.0 11.4 2.9 Q11.65 2.65 12.05 2.65" fill="#000000" fill-rule="evenodd" stroke="none"/>
    <path d="M-21.1 2.95 L-21.15 3.2 -21.45 3.15 -21.4 2.9 -21.1 2.95" fill="#000000" fill-rule="evenodd" stroke="none"/>
    <path d="M39.45 3.2 L39.65 3.5 Q39.45 3.8 39.45 3.2" fill="#000000" fill-rule="evenodd" stroke="none"/>
    <path d="M15.85 3.55 L15.75 3.95 Q15.5 4.05 15.4 3.8 L15.5 3.55 Q15.65 3.4 15.85 3.55" fill="#000000" fill-rule="evenodd" stroke="none"/>
    <path d="M13.95 4.2 L13.75 4.3 13.25 4.1 13.45 3.6 14.0 3.65 13.95 4.2" fill="#000000" fill-rule="evenodd" stroke="none"/>
    <path d="M31.15 4.25 L30.95 4.75 30.7 4.7 30.5 4.55 30.7 4.2 31.15 4.25" fill="#000000" fill-rule="evenodd" stroke="none"/>
    <path d="M36.9 4.35 L36.9 4.7 36.7 4.65 36.6 4.4 36.9 4.35" fill="#000000" fill-rule="evenodd" stroke="none"/>
    <path d="M4.55 4.55 Q4.75 4.75 4.3 4.9 4.2 4.55 4.55 4.55" fill="#000000" fill-rule="evenodd" stroke="none"/>
    <path d="M33.95 4.9 L33.65 4.9 33.8 4.7 33.95 4.9" fill="#000000" fill-rule="evenodd" stroke="none"/>
    <path d="M-24.35 4.75 L-24.2 4.85 -24.35 4.95 -24.35 4.75" fill="#000000" fill-rule="evenodd" stroke="none"/>
    <path d="M33.8 5.25 L33.65 5.3 33.55 5.1 33.75 5.05 33.8 5.25" fill="#000000" fill-rule="evenodd" stroke="none"/>
    <path d="M11.95 5.45 L12.15 6.0 11.85 6.4 Q11.3 6.5 11.3 5.95 11.3 5.35 11.95 5.45" fill="#000000" fill-rule="evenodd" stroke="none"/>
    <path d="M-27.7 6.0 L-27.75 6.15 -27.95 5.95 Q-27.75 5.8 -27.7 6.0" fill="#000000" fill-rule="evenodd" stroke="none"/>
    <path d="M-7.65 6.0 L-7.4 6.1 -7.7 6.15 -7.65 6.0" fill="#000000" fill-rule="evenodd" stroke="none"/>
    <path d="M9.45 6.15 L9.45 6.35 9.25 6.3 9.45 6.15" fill="#000000" fill-rule="evenodd" stroke="none"/>
    <path d="M27.8 6.45 L27.8 6.7 27.6 6.6 Q27.6 6.4 27.8 6.45" fill="#000000" fill-rule="evenodd" stroke="none"/>
    <path d="M33.85 6.6 L33.9 6.8 33.8 6.95 Q33.55 7.0 33.6 6.75 33.65 6.5 33.85 6.6" fill="#000000" fill-rule="evenodd" stroke="none"/>
    <path d="M-2.15 6.7 L-1.85 6.75 -2.1 6.95 -2.15 6.7" fill="#000000" fill-rule="evenodd" stroke="none"/>
    <path d="M7.55 6.9 L7.5 7.2 7.25 7.15 Q7.25 6.8 7.55 6.9" fill="#000000" fill-rule="evenodd" stroke="none"/>
    <path d="M-36.7 7.0 Q-36.75 7.25 -36.95 7.15 L-36.95 7.0 -36.7 7.0" fill="#000000" fill-rule="evenodd" stroke="none"/>
    <path d="M4.2 7.1 L4.3 7.2 4.25 7.3 4.2 7.25 4.2 7.1" fill="#000000" fill-rule="evenodd" stroke="none"/>
    <path d="M33.8 7.6 Q33.25 7.8 33.55 7.4 33.8 7.0 33.8 7.6" fill="#000000" fill-rule="evenodd" stroke="none"/>
    <path d="M14.45 7.5 L14.2 7.65 Q14.15 7.35 14.45 7.5" fill="#000000" fill-rule="evenodd" stroke="none"/>
    <path d="M16.4 7.8 Q16.9 8.0 16.25 8.6 15.85 8.65 15.75 8.3 15.65 8.0 15.85 7.8 L16.2 7.85 16.4 7.8" fill="#000000" fill-rule="evenodd" stroke="none"/>
    <path d="M-14.1 7.95 L-14.0 8.0 -14.05 8.1 -14.15 8.1 -14.1 7.95" fill="#000000" fill-rule="evenodd" stroke="none"/>
    <path d="M36.75 8.15 L37.05 8.25 36.8 8.45 36.75 8.15" fill="#000000" fill-rule="evenodd" stroke="none"/>
    <path d="M28.65 8.5 L28.8 8.55 28.75 8.65 28.65 8.6 28.65 8.5" fill="#000000" fill-rule="evenodd" stroke="none"/>
    <path d="M-30.75 8.75 L-31.1 9.25 -31.65 9.1 -31.3 8.7 -30.75 8.75" fill="#000000" fill-rule="evenodd" stroke="none"/>
    <path d="M42.15 8.85 L42.05 8.85 41.95 8.85 Q41.85 8.7 42.05 8.7 L42.15 8.85" fill="#000000" fill-rule="evenodd" stroke="none"/>
    <path d="M-34.7 9.2 L-34.55 9.2 -34.55 9.3 -34.7 9.2" fill="#000000" fill-rule="evenodd" stroke="none"/>
    <path d="M39.45 9.9 L39.45 10.2 39.25 10.05 Q39.35 9.9 39.45 9.9" fill="#000000" fill-rule="evenodd" stroke="none"/>
    <path d="M17.5 9.95 L17.65 10.15 17.5 10.15 17.5 9.95" fill="#000000" fill-rule="evenodd" stroke="none"/>
    <path d="M34.25 11.0 Q34.2 11.4 34.0 11.1 33.8 10.8 34.25 11.0" fill="#000000" fill-rule="evenodd" stroke="none"/>
    <path d="M-22.0 11.35 L-21.85 11.45 -21.95 11.45 -22.0 11.35" fill="#000000" fill-rule="evenodd" stroke="none"/>
    <path d="M19.1 11.6 L19.0 11.8 18.7 11.7 18.85 11.45 19.1 11.6" fill="#000000" fill-rule="evenodd" stroke="none"/>
    <path d="M42.25 12.8 L42.25 12.45 Q42.5 12.35 42.55 12.55 L42.25 12.8" fill="#000000" fill-rule="evenodd" stroke="none"/>
    <path d="M13.5 12.85 L13.35 12.75 13.45 12.7 13.5 12.85" fill="#000000" fill-rule="evenodd" stroke="none"/>
    <path d="M-20.5 12.8 L-20.45 12.8 -20.45 12.9 -20.55 12.95 -20.5 12.8" fill="#000000" fill-rule="evenodd" stroke="none"/>
    <path d="M40.95 12.8 Q41.1 13.05 40.8 13.05 L40.75 12.85 40.95 12.8" fill="#000000" fill-rule="evenodd" stroke="none"/>
    <path d="M-1.0 13.0 L-1.15 13.15 -1.3 12.95 -1.1 12.9 -1.0 13.0" fill="#000000" fill-rule="evenodd" stroke="none"/>
    <path d="M-18.6 13.65 L-18.9 13.45 Q-19.05 13.3 -18.8 13.05 -18.25 12.85 -18.35 13.3 L-18.6 13.65" fill="#000000" fill-rule="evenodd" stroke="none"/>
    <path d="M-16.8 13.1 Q-16.65 13.25 -16.85 13.3 L-17.05 13.25 Q-17.0 13.1 -16.8 13.1" fill="#000000" fill-rule="evenodd" stroke="none"/>
    <path d="M25.5 13.75 Q25.1 13.9 25.1 13.25 L25.45 13.3 25.5 13.75" fill="#000000" fill-rule="evenodd" stroke="none"/>
    <path d="M-40.05 14.0 L-39.7 14.4 Q-39.7 14.75 -40.15 14.85 L-40.55 14.95 -40.75 14.7 -40.05 14.0" fill="#000000" fill-rule="evenodd" stroke="none"/>
    <path d="M30.35 14.2 L30.2 14.5 Q29.85 14.35 30.0 14.2 30.2 14.0 30.35 14.2" fill="#000000" fill-rule="evenodd" stroke="none"/>
    <path d="M-8.9 14.4 L-9.15 14.4 -9.05 14.3 Q-8.9 14.3 -8.9 14.4" fill="#000000" fill-rule="evenodd" stroke="none"/>
    <path d="M-36.3 14.4 L-36.1 14.45 -36.35 14.8 -36.75 14.9 -36.55 14.65 -36.3 14.4" fill="#000000" fill-rule="evenodd" stroke="none"/>
    <path d="M-41.8 15.4 L-41.75 15.7 -41.8 16.0 -42.05 15.9 -42.35 15.8 -42.15 15.35 -41.8 15.4" fill="#000000" fill-rule="evenodd" stroke="none"/>
    <path d="M33.65 15.65 L33.4 15.4 33.65 15.4 33.65 15.65" fill="#000000" fill-rule="evenodd" stroke="none"/>
    <path d="M-33.9 15.5 L-34.15 15.7 -34.35 15.7 -34.2 15.5 -33.9 15.5" fill="#000000" fill-rule="evenodd" stroke="none"/>
    <path d="M15.65 15.5 L15.6 15.65 15.45 15.75 15.4 15.65 Q15.45 15.5 15.65 15.5" fill="#000000" fill-rule="evenodd" stroke="none"/>
    <path d="M4.45 16.7 L4.6 16.7 4.45 17.05 Q4.25 16.95 4.45 16.7" fill="#000000" fill-rule="evenodd" stroke="none"/>
    <path d="M19.05 17.55 L18.9 17.35 18.9 17.0 Q19.0 16.7 19.3 16.85 L19.35 17.25 19.05 17.55" fill="#000000" fill-rule="evenodd" stroke="none"/>
    <path d="M13.85 16.95 L13.8 17.15 13.55 17.05 13.7 16.9 13.85 16.95" fill="#000000" fill-rule="evenodd" stroke="none"/>
    <path d="M3.35 17.45 L3.3 17.7 3.0 17.45 3.15 17.35 3.35 17.45" fill="#000000" fill-rule="evenodd" stroke="none"/>
    <path d="M-23.7 18.05 Q-23.5 18.05 -23.55 18.2 L-23.7 18.2 -23.7 18.05" fill="#000000" fill-rule="evenodd" stroke="none"/>
    <path d="M-19.6 18.75 L-20.15 18.85 -20.1 18.5 Q-19.45 18.2 -19.6 18.75" fill="#000000" fill-rule="evenodd" stroke="none"/>
    <path d="M-42.6 18.5 L-42.5 18.6 -42.6 18.65 -42.6 18.5" fill="#000000" fill-rule="evenodd" stroke="none"/>
    <path d="M-8.05 18.7 L-7.95 18.7 -8.05 18.85 -8.05 18.7" fill="#000000" fill-rule="evenodd" stroke="none"/>
    <path d="M-40.15 19.6 L-40.45 19.9 -40.9 20.05 -40.65 19.75 -40.15 19.6" fill="#000000" fill-rule="evenodd" stroke="none"/>
    <path d="M3.5 -9.5 L4.1 -9.6 Q4.15 -9.3 4.8 -9.3 4.7 -8.9 4.1 -8.65 L3.8 -8.3 Q3.55 -8.1 3.35 -8.3 L2.7 -8.15 Q2.4 -8.1 2.1 -8.4 1.85 -8.7 2.15 -8.95 L2.9 -9.3 3.5 -9.5" fill="#000000" fill-rule="evenodd" stroke="none"/>
    <path d="M-15.6 20.2 L-15.75 20.1 -15.65 20.1 -15.6 20.2" fill="#000000" fill-rule="evenodd" stroke="none"/>
    <path d="M-11.65 20.1 L-11.55 20.25 -11.75 20.25 -11.65 20.1" fill="#000000" fill-rule="evenodd" stroke="none"/>
    <path d="M28.55 20.9 L28.35 21.25 Q28.0 21.3 28.15 20.9 28.3 20.5 28.55 20.9" fill="#000000" fill-rule="evenodd" stroke="none"/>
    <path d="M5.0 21.2 L4.75 21.25 Q4.65 21.05 4.85 21.0 5.0 20.95 5.0 21.2" fill="#000000" fill-rule="evenodd" stroke="none"/>
    <path d="M-11.4 22.15 L-11.7 22.25 Q-11.95 22.0 -11.65 21.9 -11.4 21.8 -11.4 22.15" fill="#000000" fill-rule="evenodd" stroke="none"/>
    <path d="M-25.7 22.4 L-25.55 22.45 -25.75 22.8 -26.1 23.0 -26.0 22.65 -25.7 22.4" fill="#000000" fill-rule="evenodd" stroke="none"/>
    <path d="M1.9 22.9 Q1.45 23.1 1.4 22.65 1.5 22.35 1.8 22.45 2.05 22.55 1.9 22.9" fill="#000000" fill-rule="evenodd" stroke="none"/>
    <path d="M-9.85 22.8 L-9.6 22.9 -9.85 23.1 -9.85 22.8" fill="#000000" fill-rule="evenodd" stroke="none"/>
    <path d="M-30.1 23.1 L-30.15 23.25 -30.35 23.3 -30.25 23.1 -30.1 23.1" fill="#000000" fill-rule="evenodd" stroke="none"/>
    <path d="M-21.4 23.2 Q-21.35 23.15 -21.3 23.25 L-21.45 23.3 -21.4 23.2" fill="#000000" fill-rule="evenodd" stroke="none"/>
    <path d="M-30.3 23.5 Q-30.1 23.6 -30.2 23.75 L-30.35 23.75 -30.3 23.5" fill="#000000" fill-rule="evenodd" stroke="none"/>
    <path d="M-6.55 23.9 L-6.65 24.15 -6.9 24.15 -6.75 23.85 -6.55 23.9" fill="#000000" fill-rule="evenodd" stroke="none"/>
    <path d="M-40.8 24.1 L-40.6 24.1 -40.35 24.1 -40.6 24.4 -41.0 24.5 -40.9 24.3 -40.8 24.1" fill="#000000" fill-rule="evenodd" stroke="none"/>
    <path d="M-9.25 24.5 L-9.4 24.4 -9.25 24.4 -9.25 24.5" fill="#000000" fill-rule="evenodd" stroke="none"/>
    <path d="M41.05 25.0 L40.55 25.05 40.5 24.8 Q40.6 24.65 40.85 24.65 L41.05 25.0" fill="#000000" fill-rule="evenodd" stroke="none"/>
    <path d="M-15.85 25.3 L-15.65 25.3 -15.8 25.45 -15.85 25.3" fill="#000000" fill-rule="evenodd" stroke="none"/>
    <path d="M-32.95 25.55 L-33.5 26.0 -33.35 25.6 -32.95 25.55" fill="#000000" fill-rule="evenodd" stroke="none"/>
    <path d="M41.85 26.55 L41.95 26.75 41.75 26.75 Q41.7 26.7 41.8 26.6 L41.85 26.55" fill="#000000" fill-rule="evenodd" stroke="none"/>
    <path d="M-13.05 26.75 L-13.2 26.75 -13.2 26.7 Q-13.05 26.65 -13.05 26.75" fill="#000000" fill-rule="evenodd" stroke="none"/>
    <path d="M-4.05 26.75 L-4.0 27.05 -4.25 27.0 Q-4.3 26.75 -4.05 26.75" fill="#000000" fill-rule="evenodd" stroke="none"/>
    <path d="M-37.4 27.9 L-37.75 27.45 Q-37.5 26.7 -37.0 27.4 -36.5 28.1 -37.4 27.9" fill="#000000" fill-rule="evenodd" stroke="none"/>
    <path d="M-1.1 27.15 Q-0.8 27.35 -0.95 27.85 -1.1 28.3 -1.35 28.1 -1.6 27.95 -1.5 27.55 L-1.1 27.15" fill="#000000" fill-rule="evenodd" stroke="none"/>
    <path d="M-3.1 27.6 L-2.95 27.6 -2.95 27.75 -3.1 27.6" fill="#000000" fill-rule="evenodd" stroke="none"/>
    <path d="M27.75 27.85 L27.45 28.15 27.35 28.05 27.5 27.8 27.75 27.85" fill="#000000" fill-rule="evenodd" stroke="none"/>
    <path d="M9.9 28.0 Q10.2 28.6 9.8 28.3 9.45 28.0 9.9 28.0" fill="#000000" fill-rule="evenodd" stroke="none"/>
    <path d="M32.45 28.35 L32.6 28.45 32.45 28.5 32.45 28.35" fill="#000000" fill-rule="evenodd" stroke="none"/>
    <path d="M27.35 29.3 Q26.95 29.45 26.9 29.05 27.05 28.85 27.25 28.95 27.55 29.0 27.35 29.3" fill="#000000" fill-rule="evenodd" stroke="none"/>
    <path d="M-13.05 29.5 L-12.8 29.55 Q-12.6 30.15 -13.15 30.4 -13.35 30.2 -13.05 29.5" fill="#000000" fill-rule="evenodd" stroke="none"/>
    <path d="M-14.6 30.75 L-14.9 30.85 -14.8 30.7 -14.6 30.75" fill="#000000" fill-rule="evenodd" stroke="none"/>
    <path d="M-38.25 31.15 L-38.25 31.05 -38.15 31.0 -38.25 31.15" fill="#000000" fill-rule="evenodd" stroke="none"/>
    <path d="M-32.85 31.4 L-32.5 31.35 Q-32.4 31.7 -32.7 31.7 -33.0 31.65 -32.85 31.4" fill="#000000" fill-rule="evenodd" stroke="none"/>
    <path d="M-30.35 31.45 L-30.25 31.45 -30.25 31.6 -30.35 31.45" fill="#000000" fill-rule="evenodd" stroke="none"/>
    <path d="M25.4 32.4 L25.15 32.55 24.9 32.4 25.0 32.0 Q25.5 31.9 25.4 32.4" fill="#000000" fill-rule="evenodd" stroke="none"/>
    <path d="M-29.15 32.25 Q-29.1 32.6 -29.5 32.6 L-29.15 32.25" fill="#000000" fill-rule="evenodd" stroke="none"/>
    <path d="M-37.95 32.65 L-37.7 32.8 -37.85 33.1 -38.2 33.3 -38.05 33.0 -37.95 32.65" fill="#000000" fill-rule="evenodd" stroke="none"/>
    <path d="M-2.5 32.9 L-2.5 33.1 -2.7 33.1 -2.65 32.9 -2.5 32.9" fill="#000000" fill-rule="evenodd" stroke="none"/>
    <path d="M-36.0 33.0 L-35.75 33.25 -36.1 33.45 -36.2 33.2 -36.0 33.0" fill="#000000" fill-rule="evenodd" stroke="none"/>
    <path d="M-24.9 33.45 Q-24.75 33.7 -25.0 33.8 -25.05 33.65 -25.2 33.7 L-24.9 33.45" fill="#000000" fill-rule="evenodd" stroke="none"/>
    <path d="M-35.2 34.0 L-35.0 34.0 -35.1 34.1 -35.2 34.0" fill="#000000" fill-rule="evenodd" stroke="none"/>
    <path d="M-29.55 34.0 Q-29.4 34.3 -29.8 34.2 L-29.55 34.0" fill="#000000" fill-rule="evenodd" stroke="none"/>
    <path d="M0.2 34.2 L0.0 34.3 0.0 34.15 0.2 34.2" fill="#000000" fill-rule="evenodd" stroke="none"/>
    <path d="M-29.7 34.4 Q-29.55 34.65 -29.8 34.85 L-30.2 35.2 Q-30.0 34.45 -29.7 34.4" fill="#000000" fill-rule="evenodd" stroke="none"/>
    <path d="M-31.95 34.75 L-31.85 34.9 -31.95 34.85 -31.95 34.75" fill="#000000" fill-rule="evenodd" stroke="none"/>
    <path d="M-0.9 34.75 L-0.75 34.95 -0.9 34.95 -0.9 34.75" fill="#000000" fill-rule="evenodd" stroke="none"/>
    <path d="M-35.95 35.0 L-35.85 35.1 Q-35.85 35.2 -35.95 35.15 L-35.95 35.0" fill="#000000" fill-rule="evenodd" stroke="none"/>
    <path d="M1.6 35.55 L1.5 35.6 1.45 35.5 1.55 35.5 1.6 35.55" fill="#000000" fill-rule="evenodd" stroke="none"/>
    <path d="M-22.25 35.9 L-22.1 35.9 -22.25 36.0 -22.25 35.9" fill="#000000" fill-rule="evenodd" stroke="none"/>
    <path d="M-2.4 37.35 L-2.3 37.65 -2.45 37.6 -2.6 37.55 -2.4 37.35" fill="#000000" fill-rule="evenodd" stroke="none"/>
    <path d="M-4.4 39.05 L-4.25 39.05 -4.4 39.15 -4.4 39.05" fill="#000000" fill-rule="evenodd" stroke="none"/>
    <path d="M-21.05 39.15 L-21.0 39.2 -21.0 39.35 Q-21.05 39.25 -21.15 39.3 L-21.05 39.15" fill="#000000" fill-rule="evenodd" stroke="none"/>
    <path d="M1.45 39.65 L1.4 39.75 1.3 39.65 1.45 39.65" fill="#000000" fill-rule="evenodd" stroke="none"/>
    <path d="M-23.4 39.7 Q-22.95 39.85 -23.1 40.05 L-23.25 40.2 -23.5 40.25 -23.5 40.0 -23.4 39.7" fill="#000000" fill-rule="evenodd" stroke="none"/>
    <path d="M-33.0 40.4 L-33.15 40.45 -33.15 40.2 Q-32.95 40.15 -33.0 40.4" fill="#000000" fill-rule="evenodd" stroke="none"/>
    <path d="M-21.55 40.7 L-21.8 40.4 Q-21.75 40.05 -21.45 40.3 -21.2 40.5 -21.55 40.7" fill="#000000" fill-rule="evenodd" stroke="none"/>
    <path d="M-13.55 41.8 Q-13.1 41.5 -12.85 41.8 -12.7 42.3 -13.2 42.35 -13.7 42.35 -13.55 41.8" fill="#000000" fill-rule="evenodd" stroke="none"/>
    <path d="M-6.4 41.65 Q-6.2 41.6 -6.2 41.75 L-6.35 41.8 -6.4 41.65" fill="#000000" fill-rule="evenodd" stroke="none"/>
    <path d="M-10.4 43.65 L-10.6 44.0 -10.75 43.65 -10.4 43.65" fill="#000000" fill-rule="evenodd" stroke="none"/>
    <path d="M-4.85 44.0 L-4.95 43.85 -4.8 43.85 -4.85 44.0" fill="#000000" fill-rule="evenodd" stroke="none"/>
    <path d="M-26.1 44.5 L-26.0 45.0 -26.2 45.45 -26.5 45.7 -26.85 45.6 Q-26.8 44.4 -26.1 44.5" fill="#000000" fill-rule="evenodd" stroke="none"/>
    <path d="M-19.05 44.6 L-19.1 44.85 -19.3 44.8 -19.25 44.6 -19.05 44.6" fill="#000000" fill-rule="evenodd" stroke="none"/>
    <path d="M-24.1 45.5 L-23.95 45.25 -23.65 45.3 -23.75 45.6 -24.1 45.5" fill="#000000" fill-rule="evenodd" stroke="none"/>
    <path d="M-14.3 45.45 L-14.35 46.1 -14.7 46.65 Q-15.0 46.55 -14.8 45.85 -14.7 45.2 -14.3 45.45" fill="#000000" fill-rule="evenodd" stroke="none"/>
    <path d="M-19.5 45.7 L-19.45 45.8 -19.5 45.95 -19.8 45.95 -19.5 45.7" fill="#000000" fill-rule="evenodd" stroke="none"/>
    <path d="M-27.3 46.35 L-27.6 46.35 -27.4 46.25 -27.3 46.35" fill="#000000" fill-rule="evenodd" stroke="none"/>
    <path d="M-17.85 46.6 L-17.85 46.8 Q-18.15 46.8 -17.85 46.6" fill="#000000" fill-rule="evenodd" stroke="none"/>
    <path d="M1.75 46.6 L1.85 46.8 1.7 46.7 1.75 46.6" fill="#000000" fill-rule="evenodd" stroke="none"/>
    <path d="M-13.65 46.7 L-13.6 46.95 -13.75 47.15 Q-13.9 47.45 -13.95 47.0 -14.05 46.65 -13.65 46.7" fill="#000000" fill-rule="evenodd" stroke="none"/>
    <path d="M32.4 47.8 L31.95 48.0 32.1 47.8 32.4 47.8" fill="#000000" fill-rule="evenodd" stroke="none"/>
    <path d="M16.0 47.95 L16.1 47.95 16.2 48.0 16.05 48.1 16.0 47.95" fill="#000000" fill-rule="evenodd" stroke="none"/>
    <path d="M-4.95 48.25 L-5.1 48.55 -5.35 48.5 -5.25 48.2 -4.95 48.25" fill="#000000" fill-rule="evenodd" stroke="none"/>
    <path d="M-8.75 48.95 L-8.65 49.1 -8.7 49.25 -8.75 48.95" fill="#000000" fill-rule="evenodd" stroke="none"/>
    <path d="M-13.0 49.95 L-13.15 50.0 -13.1 49.9 -13.0 49.95" fill="#000000" fill-rule="evenodd" stroke="none"/>
    <path d="M8.45 -17.85 L9.45 -18.3 9.8 -18.65 10.25 -18.75 10.2 -18.85 10.1 -19.0 9.55 -18.95 Q9.15 -19.25 9.6 -19.5 L9.35 -19.75 9.4 -20.05 9.1 -20.4 8.95 -20.8 Q9.1 -21.0 9.65 -20.8 L9.75 -21.1 9.7 -21.45 9.5 -21.8 10.0 -21.8 Q10.3 -21.7 10.2 -21.45 L11.0 -21.25 Q11.3 -21.55 10.95 -23.2 L10.75 -24.1 10.75 -24.6 10.95 -25.2 11.0 -26.25 11.2 -27.3 Q11.6 -28.15 12.65 -28.5 14.2 -28.95 15.2 -26.45 L15.35 -25.5 15.35 -24.95 15.35 -24.35 15.5 -23.5 15.5 -22.5 15.4 -22.55 Q15.2 -22.35 15.4 -22.0 L15.5 -21.45 15.2 -21.65 Q14.9 -21.35 14.85 -20.65 14.8 -19.95 15.05 -19.6 15.2 -19.05 15.65 -19.05 L15.3 -19.5 Q15.3 -20.05 15.75 -20.1 16.2 -20.15 16.1 -19.6 16.05 -19.15 15.65 -19.05 15.75 -18.85 16.2 -18.85 L16.85 -18.9 17.8 -18.75 18.3 -18.65 18.8 -18.55 18.65 -18.9 18.85 -19.25 19.35 -18.75 19.75 -18.5 19.9 -18.0 19.55 -18.1 Q19.25 -18.0 19.3 -18.25 L19.1 -18.2 20.4 -17.15 20.75 -17.05 20.95 -16.85 21.1 -16.3 Q22.2 -14.4 22.1 -13.15 L22.05 -13.15 22.1 -12.65 22.3 -12.7 22.3 -12.5 22.15 -12.5 22.15 -11.55 21.85 -10.7 Q21.55 -10.25 22.0 -10.1 L22.75 -10.15 24.4 -9.9 25.0 -9.5 Q25.3 -9.2 25.6 -9.3 L25.75 -8.7 25.95 -8.0 Q26.1 -7.0 25.85 -6.25 25.5 -6.05 25.35 -5.35 L25.3 -5.1 25.15 -5.0 25.1 -3.75 25.5 -0.9 25.45 0.5 25.4 2.25 25.35 3.1 Q25.3 3.6 25.4 3.9 25.05 4.5 25.2 5.4 L25.05 6.95 25.05 7.9 25.0 8.5 25.0 9.05 25.1 10.4 25.2 11.7 25.1 12.35 25.0 12.9 25.05 14.1 25.1 15.15 25.1 15.95 25.1 16.7 25.1 18.4 24.95 20.05 24.75 21.4 24.8 22.15 24.65 22.8 24.45 23.45 24.45 24.05 Q24.75 24.35 24.3 25.75 L24.3 27.0 24.2 28.2 24.1 29.4 23.95 31.35 Q23.95 32.55 24.1 32.7 L24.1 33.3 23.95 33.95 23.7 35.15 23.8 35.95 23.7 36.35 23.65 36.8 23.6 38.2 Q23.55 39.05 23.75 39.5 L23.65 40.95 23.45 42.3 22.9 43.4 22.5 43.9 22.2 44.5 Q22.0 44.8 21.15 44.95 20.3 45.15 20.35 44.8 L20.3 44.9 19.85 44.75 19.25 44.2 Q18.8 43.95 18.8 43.45 L18.65 42.0 Q18.65 41.2 18.9 40.6 L18.9 40.05 18.9 39.5 19.1 38.35 18.9 36.35 Q19.15 36.05 19.0 35.05 L19.2 33.55 19.15 33.1 19.1 32.7 19.25 32.2 19.3 31.85 19.2 31.5 19.3 30.8 19.45 30.1 19.45 28.65 19.5 26.45 19.55 25.55 19.55 24.5 19.5 23.35 Q19.4 22.65 19.65 22.35 L19.9 21.2 19.85 20.05 19.85 19.1 20.1 17.45 20.1 16.85 20.2 16.25 20.15 15.05 20.2 14.4 20.2 13.65 20.2 13.25 20.25 12.85 20.25 10.4 20.2 9.2 20.2 8.65 20.1 8.15 20.2 7.6 20.2 7.2 20.3 6.8 20.1 5.95 20.1 4.95 20.1 4.5 20.2 4.1 20.15 2.65 20.3 -0.05 19.95 -0.15 Q19.7 -0.2 19.65 -0.5 L19.55 -0.4 19.65 -0.6 19.85 -0.6 20.0 -0.9 20.25 -1.1 Q20.2 -1.9 20.3 -2.35 L20.3 -3.75 20.15 -5.6 19.65 -6.85 Q19.1 -7.55 18.45 -7.2 L16.5 -6.95 16.05 -6.6 Q15.65 -6.45 15.65 -6.7 L15.2 -6.7 Q15.0 -6.6 14.75 -6.8 14.5 -6.9 14.45 -7.25 L13.45 -7.7 12.45 -8.45 11.85 -9.05 Q11.8 -9.6 11.5 -9.6 L11.15 -9.2 10.95 -9.45 11.0 -9.75 10.25 -9.95 10.6 -10.05 Q10.85 -10.05 10.95 -10.25 10.95 -10.65 10.55 -10.55 L9.85 -10.55 Q9.75 -11.15 10.1 -11.15 10.4 -11.2 10.7 -10.85 L10.65 -12.45 10.65 -14.25 10.5 -14.85 Q10.45 -15.15 10.65 -15.25 L10.95 -15.45 11.25 -15.7 11.8 -16.5 11.9 -16.8 11.8 -16.9 11.95 -16.95 11.9 -17.05 12.05 -17.2 11.75 -17.35 Q11.45 -17.3 11.2 -17.65 L10.75 -17.95 Q10.4 -17.9 10.05 -17.45 L9.35 -16.75 8.85 -17.1 Q8.4 -17.5 8.45 -17.85 M12.1 -19.5 L12.0 -19.4 Q12.25 -18.95 11.9 -18.45 L12.25 -18.5 12.65 -18.55 12.5 -19.15 12.25 -19.55 12.1 -19.5 M11.15 -20.2 L11.2 -20.05 11.05 -20.0 10.85 -20.2 10.5 -20.1 10.0 -20.2 9.55 -20.05 9.8 -19.85 9.85 -19.7 9.7 -19.55 10.2 -19.5 10.55 -19.45 10.85 -19.2 11.05 -19.45 11.3 -19.6 Q11.5 -19.65 11.5 -19.95 11.4 -20.4 11.15 -20.2 M20.7 -2.2 L20.85 -2.3 20.75 -2.4 20.7 -2.2" fill="#000000" fill-rule="evenodd" stroke="none"/>
    <path d="M-1.85 -29.2 Q-1.2 -29.2 -1.1 -28.5 -0.95 -27.75 -1.65 -27.7 -2.4 -27.65 -2.5 -28.45 -2.7 -29.2 -1.85 -29.2" fill="#000000" fill-rule="evenodd" stroke="none"/>
    <path d="M1.95 -20.65 Q2.5 -20.7 1.95 -20.2 L1.95 -20.65" fill="#000000" fill-rule="evenodd" stroke="none"/>
    <path d="M17.05 -22.0 L17.45 -22.35 17.8 -21.85 17.8 -21.2 18.2 -20.75 18.1 -20.7 18.05 -20.8 Q17.9 -20.8 17.85 -20.65 L17.7 -20.45 17.85 -20.15 17.4 -20.05 17.55 -19.85 17.75 -19.65 17.7 -19.5 Q17.65 -19.4 17.75 -19.25 L17.55 -18.95 17.25 -18.9 17.2 -19.05 17.0 -18.95 16.6 -19.3 Q16.4 -19.6 16.5 -19.85 L16.55 -20.35 16.9 -20.7 Q16.9 -20.5 17.05 -20.45 L16.85 -20.75 16.7 -21.25 16.95 -21.35 16.95 -21.7 17.05 -22.0" fill="#000000" fill-rule="evenodd" stroke="none"/>
    <path d="M23.25 -14.7 Q23.15 -14.4 22.95 -14.6 L23.2 -14.8 23.2 -14.7 23.25 -14.7" fill="#000000" fill-rule="evenodd" stroke="none"/>
    <path d="M30.6 -11.7 Q30.6 -12.0 30.8 -11.8 30.75 -11.65 30.85 -11.5 L30.7 -11.55 30.6 -11.7" fill="#000000" fill-rule="evenodd" stroke="none"/>
    <path d="M9.85 3.35 L9.55 3.45 Q9.3 3.45 9.35 3.1 9.55 2.9 9.75 3.0 10.0 3.1 9.9 3.35 L9.85 3.35" fill="#000000" fill-rule="evenodd" stroke="none"/>
    <path d="M1.4 5.95 Q2.05 6.75 1.25 7.75 L0.95 7.85 0.75 7.9 0.55 7.85 0.6 7.9 0.45 8.0 0.45 7.85 0.05 7.8 -0.25 7.65 Q-0.75 7.35 -0.65 6.6 -0.5 5.75 0.1 5.7 L0.8 5.6 1.4 5.95" fill="#000000" fill-rule="evenodd" stroke="none"/>
    <path d="M15.25 6.45 L15.3 6.45 15.45 6.35 Q16.5 6.35 16.05 7.15 15.65 8.0 15.05 7.25 L15.25 6.45" fill="#000000" fill-rule="evenodd" stroke="none"/>
    <path d="M0.7 15.35 L1.1 15.05 1.7 14.95 2.05 15.45 1.85 16.05 Q1.2 16.4 0.9 15.95 L0.85 15.6 0.7 15.35" fill="#000000" fill-rule="evenodd" stroke="none"/>
    <path d="M40.7 -34.7 L39.85 -34.95 Q39.3 -35.25 39.75 -35.5 L40.8 -35.4 Q41.4 -35.0 40.7 -34.7" fill="#000000" fill-rule="evenodd" stroke="none"/>
    <path d="M9.3 -34.95 Q9.1 -34.5 8.85 -34.95 8.6 -35.35 9.15 -35.25 L9.3 -34.95" fill="#000000" fill-rule="evenodd" stroke="none"/>
    <path d="M-2.95 -32.35 L-2.95 -32.05 -3.3 -32.3 -2.95 -32.35" fill="#000000" fill-rule="evenodd" stroke="none"/>
    <path d="M28.8 -31.0 Q28.25 -30.9 28.3 -31.35 L28.65 -31.4 Q28.9 -31.3 28.8 -31.0" fill="#000000" fill-rule="evenodd" stroke="none"/>
    <path d="M3.05 -27.9 L3.1 -27.65 3.0 -27.45 Q2.5 -27.45 2.5 -27.9 L2.75 -28.0 3.05 -27.9" fill="#000000" fill-rule="evenodd" stroke="none"/>
    <path d="M32.35 -27.9 L32.7 -27.55 Q32.8 -27.15 32.45 -27.05 31.95 -26.9 31.9 -27.45 31.8 -27.95 32.35 -27.9" fill="#000000" fill-rule="evenodd" stroke="none"/>
    <path d="M-3.8 -24.65 L-3.9 -24.5 Q-4.8 -25.2 -4.7 -25.75 L-4.15 -26.2 -3.5 -26.05 Q-3.05 -25.7 -3.1 -25.15 -3.2 -24.6 -3.8 -24.65" fill="#000000" fill-rule="evenodd" stroke="none"/>
    <path d="M27.5 -25.5 L27.7 -25.4 27.55 -25.2 27.5 -25.5" fill="#000000" fill-rule="evenodd" stroke="none"/>
    <path d="M8.05 -24.9 L7.8 -24.9 7.65 -25.15 7.9 -25.15 8.05 -24.9" fill="#000000" fill-rule="evenodd" stroke="none"/>
    <path d="M7.7 -24.6 L7.7 -24.2 7.35 -24.45 7.7 -24.6" fill="#000000" fill-rule="evenodd" stroke="none"/>
    <path d="M-4.45 -22.9 L-4.45 -23.35 -3.95 -23.45 Q-3.7 -23.2 -3.95 -23.0 L-4.45 -22.9" fill="#000000" fill-rule="evenodd" stroke="none"/>
    <path d="M2.6 -23.0 L2.5 -22.7 Q2.05 -22.65 2.15 -23.0 2.3 -23.35 2.6 -23.0" fill="#000000" fill-rule="evenodd" stroke="none"/>
    <path d="M15.75 -22.5 L15.95 -23.05 Q16.2 -23.2 16.25 -22.95 16.3 -22.65 16.45 -22.65 16.3 -22.8 16.4 -23.0 16.55 -23.25 16.75 -23.1 L16.65 -22.65 Q17.35 -21.95 16.65 -22.0 L15.75 -22.05 15.65 -22.35 15.75 -22.5" fill="#000000" fill-rule="evenodd" stroke="none"/>
    <path d="M19.3 -21.85 L19.1 -21.55 Q18.9 -21.5 18.9 -21.7 18.8 -21.85 19.0 -21.95 L19.3 -21.85" fill="#000000" fill-rule="evenodd" stroke="none"/>
    <path d="M7.7 -21.15 L7.15 -21.2 Q6.95 -21.6 7.35 -21.55 7.85 -21.55 7.7 -21.15" fill="#000000" fill-rule="evenodd" stroke="none"/>
    <path d="M8.45 -20.25 L8.55 -20.05 8.25 -20.25 8.45 -20.25" fill="#000000" fill-rule="evenodd" stroke="none"/>
    <path d="M-4.1 -19.4 Q-4.05 -19.95 -3.35 -19.95 -2.7 -20.0 -2.55 -19.5 -2.35 -18.8 -3.25 -18.8 -3.75 -18.85 -4.1 -19.4" fill="#000000" fill-rule="evenodd" stroke="none"/>
    <path d="M4.7 -20.55 Q4.75 -20.05 5.3 -19.8 L5.55 -19.5 5.9 -19.3 5.9 -19.2 5.65 -19.2 5.95 -18.7 Q6.2 -18.5 6.05 -18.1 L5.6 -17.9 5.1 -17.8 5.05 -17.5 Q5.0 -17.35 4.85 -17.4 L4.9 -17.1 4.7 -17.1 Q4.6 -17.15 4.65 -17.25 L4.8 -17.4 4.55 -17.7 4.1 -17.85 Q3.35 -18.2 3.6 -18.7 L3.6 -19.05 Q3.55 -19.35 3.65 -19.5 L3.7 -20.1 3.7 -20.7 Q3.8 -21.2 4.25 -21.05 L4.7 -20.55" fill="#000000" fill-rule="evenodd" stroke="none"/>
    <path d="M-0.65 -16.8 Q-1.6 -17.3 -0.9 -17.55 -0.45 -17.75 -0.35 -17.4 -0.3 -17.05 -0.65 -16.8" fill="#000000" fill-rule="evenodd" stroke="none"/>
    <path d="M4.4 -16.65 L4.9 -16.9 5.75 -16.7 5.75 -16.45 5.85 -16.3 6.5 -16.1 Q7.5 -16.1 7.2 -17.1 7.15 -17.55 7.5 -17.7 L8.15 -17.55 8.25 -17.2 8.5 -17.0 8.8 -16.3 Q9.0 -16.4 9.1 -16.15 L9.2 -15.8 Q9.2 -15.15 8.2 -15.5 8.45 -15.75 8.3 -16.05 8.0 -16.0 8.05 -15.7 8.1 -15.45 8.3 -15.3 8.7 -15.05 8.5 -13.95 L8.25 -12.9 8.05 -12.2 7.95 -11.9 7.95 -11.6 7.55 -11.65 7.25 -11.8 6.5 -11.75 Q5.9 -11.9 5.55 -12.55 L5.05 -13.75 4.45 -14.15 Q4.2 -14.4 4.4 -14.75 L4.5 -15.15 Q4.8 -15.25 4.9 -15.4 L4.85 -15.85 4.4 -16.15 Q4.15 -16.35 4.4 -16.65" fill="#000000" fill-rule="evenodd" stroke="none"/>
    <path d="M27.4 -12.3 L27.2 -11.35 26.9 -11.0 26.6 -10.4 25.75 -10.25 24.8 -10.15 Q24.2 -10.15 23.8 -10.5 L23.1 -11.3 Q22.75 -11.8 23.0 -12.85 L23.2 -13.75 23.7 -14.5 Q24.3 -15.05 25.45 -14.95 L26.3 -14.75 26.6 -14.5 26.95 -14.25 Q27.45 -13.1 27.4 -12.3" fill="#000000" fill-rule="evenodd" stroke="none"/>
    <path d="M1.95 -12.2 Q1.8 -12.0 1.3 -11.9 L0.55 -11.95 0.0 -12.35 Q-0.25 -12.55 -0.15 -12.95 -0.05 -13.65 1.1 -13.35 2.25 -13.1 1.95 -12.2" fill="#000000" fill-rule="evenodd" stroke="none"/>
    <path d="M40.55 -12.65 Q40.45 -12.35 40.6 -12.0 L40.15 -11.9 Q39.95 -12.1 40.2 -12.35 L40.55 -12.65" fill="#000000" fill-rule="evenodd" stroke="none"/>
    <path d="M9.6 -10.2 L9.65 -9.85 9.0 -8.95 8.55 -8.4 7.8 -8.45 Q7.35 -8.75 7.7 -9.4 L8.25 -10.45 8.1 -10.95 7.95 -11.4 Q8.15 -11.75 8.35 -11.7 L8.8 -11.45 8.9 -10.9 Q9.0 -10.55 9.3 -10.5 L9.6 -10.2" fill="#000000" fill-rule="evenodd" stroke="none"/>
    <path d="M-2.25 -6.7 L-1.95 -6.3 -2.1 -5.85 Q-2.35 -5.5 -2.75 -5.65 -3.25 -5.75 -3.15 -6.3 L-2.8 -6.65 -2.25 -6.7" fill="#000000" fill-rule="evenodd" stroke="none"/>
    <path d="M-11.1 -4.7 Q-11.9 -5.0 -11.55 -5.6 -11.2 -6.15 -10.55 -5.8 -10.2 -5.6 -10.45 -5.05 L-10.75 -4.85 -11.1 -4.7" fill="#000000" fill-rule="evenodd" stroke="none"/>
    <path d="M11.9 -3.5 Q12.15 -2.9 11.65 -3.0 L10.95 -3.2 Q10.95 -3.55 11.3 -3.6 L11.9 -3.5" fill="#000000" fill-rule="evenodd" stroke="none"/>
    <path d="M13.85 -2.3 Q13.8 -2.35 13.7 -2.2 L13.6 -2.05 12.8 -1.9 Q11.85 -2.0 11.9 -2.5 L12.4 -3.2 Q12.7 -3.55 13.15 -3.45 14.0 -3.3 13.85 -2.3" fill="#000000" fill-rule="evenodd" stroke="none"/>
    <path d="M0.75 -2.35 L0.65 -1.9 Q0.4 -1.7 0.1 -1.9 -0.2 -2.05 -0.1 -2.4 -0.05 -2.7 0.3 -2.65 L0.75 -2.35" fill="#000000" fill-rule="evenodd" stroke="none"/>
    <path d="M8.0 -1.7 Q8.05 -1.3 7.75 -1.15 7.45 -0.95 7.15 -1.15 6.75 -1.7 7.25 -1.95 7.7 -2.2 8.0 -1.7" fill="#000000" fill-rule="evenodd" stroke="none"/>
    <path d="M-0.65 2.9 L-0.65 2.95 Q-1.05 2.9 -1.25 2.5 L-1.45 1.7 Q-1.4 1.25 -0.9 1.05 L0.05 0.9 0.5 1.45 0.75 2.05 0.65 2.55 0.3 2.8 -0.65 2.9" fill="#000000" fill-rule="evenodd" stroke="none"/>
    <path d="M13.25 5.45 L13.05 5.65 13.25 5.45" fill="#000000" fill-rule="evenodd" stroke="none"/>
    <path d="M8.1 9.3 Q8.05 10.7 7.3 10.9 L6.5 10.75 Q6.2 10.5 6.05 10.05 5.85 9.3 6.6 8.7 7.25 8.1 8.1 9.3" fill="#000000" fill-rule="evenodd" stroke="none"/>
    <path d="M27.35 11.45 L27.65 11.7 27.85 12.0 27.7 12.35 27.5 12.65 27.05 12.55 26.6 12.35 Q26.45 12.0 26.65 11.7 26.85 11.35 27.35 11.45" fill="#000000" fill-rule="evenodd" stroke="none"/>
    <path d="M25.75 11.15 Q26.25 11.0 26.4 11.65 26.5 12.25 25.85 12.25 25.4 12.25 25.3 11.75 25.3 11.3 25.75 11.15" fill="#000000" fill-rule="evenodd" stroke="none"/>
    <path d="M0.3 15.5 L0.75 15.95 0.8 16.55 Q0.7 17.25 -0.1 17.2 -1.2 17.15 -0.9 16.15 -0.65 15.2 0.3 15.5" fill="#000000" fill-rule="evenodd" stroke="none"/>
    <path d="M9.85 -6.35 L10.1 -5.6 Q10.25 -4.95 10.0 -4.95 L9.45 -4.05 9.2 -3.95 8.9 -3.8 8.55 -3.3 8.35 -2.75 8.05 -2.4 7.85 -2.1 6.7 -1.65 5.5 -1.5 4.9 -1.9 Q4.55 -2.25 4.65 -2.55 L4.6 -2.8 4.55 -3.1 4.8 -3.95 5.3 -4.7 5.95 -5.3 6.6 -5.6 7.25 -6.0 Q7.9 -6.55 8.8 -6.7 L9.35 -6.55 9.85 -6.35" fill="#000000" fill-rule="evenodd" stroke="none"/>
    <path d="M25.2 30.8 L25.5 30.7 25.75 30.95 Q25.7 31.15 25.45 31.1 25.2 31.05 25.2 30.8" fill="#000000" fill-rule="evenodd" stroke="none"/>
    <path d="M-24.8 30.95 L-24.7 31.15 -24.75 31.35 -25.05 31.05 -24.8 30.95" fill="#000000" fill-rule="evenodd" stroke="none"/>
    <path d="M25.5 -24.85 Q25.5 -22.75 24.85 -22.55 25.0 -22.15 24.25 -21.9 L23.25 -21.65 22.5 -21.55 21.8 -21.9 Q20.9 -22.45 20.8 -23.55 20.7 -24.6 21.25 -25.6 L21.95 -26.25 22.75 -26.75 23.55 -26.9 24.05 -26.85 24.5 -26.7 24.85 -26.4 25.1 -26.05 25.35 -25.45 25.5 -24.85" fill="#000000" fill-rule="evenodd" stroke="none"/>
  </g>
</svg>
