<?xml version="1.0" encoding="UTF-8" standalone="no"?>
<svg xmlns:xlink="http://www.w3.org/1999/xlink" height="79.35px" width="100.0px" xmlns="http://www.w3.org/2000/svg">
  <g transform="matrix(1.0, 0.0, 0.0, 1.0, 50.0, 39.7)">
    <path d="M49.9 23.75 Q49.6 23.8 49.6 23.6 49.55 23.35 49.8 23.3 L50.0 23.5 49.9 23.75" fill="#000000" fill-rule="evenodd" stroke="none"/>
    <path d="M47.35 31.75 Q47.1 32.05 46.8 31.95 L46.85 31.45 47.2 31.5 47.35 31.75" fill="#000000" fill-rule="evenodd" stroke="none"/>
    <path d="M47.2 16.6 L46.85 16.65 46.75 16.35 47.1 16.25 47.2 16.6" fill="#000000" fill-rule="evenodd" stroke="none"/>
    <path d="M46.85 14.45 Q46.35 14.45 46.55 14.1 L46.95 14.05 46.85 14.45" fill="#000000" fill-rule="evenodd" stroke="none"/>
    <path d="M44.65 21.85 Q44.05 22.15 44.1 21.45 44.15 21.0 44.9 20.9 45.25 21.55 44.65 21.85" fill="#000000" fill-rule="evenodd" stroke="none"/>
    <path d="M41.95 31.95 Q41.6 31.85 41.85 31.55 L42.05 31.75 41.95 31.95" fill="#000000" fill-rule="evenodd" stroke="none"/>
    <path d="M39.8 33.45 Q39.55 33.45 39.55 33.3 L39.8 33.2 39.8 33.45" fill="#000000" fill-rule="evenodd" stroke="none"/>
    <path d="M38.8 12.25 Q38.65 11.85 38.95 11.75 39.35 11.7 39.25 12.05 39.1 12.45 38.8 12.25" fill="#000000" fill-rule="evenodd" stroke="none"/>
    <path d="M38.5 13.75 L37.95 13.55 37.75 13.0 37.95 12.55 38.25 12.35 Q38.15 12.15 38.35 12.05 L38.65 12.35 38.95 12.7 Q39.2 13.25 38.5 13.75" fill="#000000" fill-rule="evenodd" stroke="none"/>
    <path d="M35.4 26.75 Q34.85 27.05 34.7 26.45 34.55 25.85 35.1 25.85 L35.5 26.2 Q35.65 26.5 35.4 26.75" fill="#000000" fill-rule="evenodd" stroke="none"/>
    <path d="M34.35 2.4 Q33.75 2.4 34.0 2.05 34.55 2.05 34.35 2.4" fill="#000000" fill-rule="evenodd" stroke="none"/>
    <path d="M34.2 22.6 L34.05 22.75 34.1 22.55 34.2 22.6" fill="#000000" fill-rule="evenodd" stroke="none"/>
    <path d="M33.65 7.1 Q33.4 6.95 33.5 6.65 33.6 6.35 33.9 6.35 34.25 6.4 34.2 6.85 34.1 7.3 33.65 7.1" fill="#000000" fill-rule="evenodd" stroke="none"/>
    <path d="M32.15 0.55 L32.0 0.45 32.05 0.2 Q32.25 0.15 32.25 0.35 L32.15 0.55" fill="#000000" fill-rule="evenodd" stroke="none"/>
    <path d="M29.75 27.6 L29.7 27.35 29.75 27.1 Q30.15 27.05 30.15 27.35 30.15 27.65 29.75 27.6" fill="#000000" fill-rule="evenodd" stroke="none"/>
    <path d="M26.15 22.1 L26.05 22.2 26.05 22.05 26.15 22.1" fill="#000000" fill-rule="evenodd" stroke="none"/>
    <path d="M25.6 12.45 L25.2 12.55 25.1 12.15 Q25.2 11.9 25.45 12.05 25.75 12.15 25.6 12.45" fill="#000000" fill-rule="evenodd" stroke="none"/>
    <path d="M25.2 -4.15 L25.1 -4.25 25.2 -4.35 25.2 -4.15" fill="#000000" fill-rule="evenodd" stroke="none"/>
    <path d="M24.95 5.5 Q25.0 6.15 24.35 6.05 23.95 5.8 24.3 5.4 24.65 5.05 24.95 5.5" fill="#000000" fill-rule="evenodd" stroke="none"/>
    <path d="M24.5 -10.65 L24.45 -10.6 Q24.35 -10.55 24.3 -10.65 L24.35 -10.8 24.45 -10.8 24.5 -10.65" fill="#000000" fill-rule="evenodd" stroke="none"/>
    <path d="M24.5 -7.15 Q24.35 -7.0 24.2 -7.0 24.05 -7.15 24.25 -7.35 L24.5 -7.15" fill="#000000" fill-rule="evenodd" stroke="none"/>
    <path d="M23.7 9.25 L23.35 9.05 Q23.4 8.85 23.6 8.95 23.85 9.05 23.7 9.25" fill="#000000" fill-rule="evenodd" stroke="none"/>
    <path d="M23.6 6.35 L23.35 6.15 23.6 5.95 Q23.8 6.25 23.6 6.35" fill="#000000" fill-rule="evenodd" stroke="none"/>
    <path d="M23.55 -3.0 Q23.25 -2.95 23.35 -3.35 L23.55 -3.2 23.55 -3.0" fill="#000000" fill-rule="evenodd" stroke="none"/>
    <path d="M23.45 30.15 Q23.1 30.2 23.1 29.75 23.3 29.6 23.45 29.6 L23.6 29.9 23.45 30.15" fill="#000000" fill-rule="evenodd" stroke="none"/>
    <path d="M23.0 17.6 L23.05 18.05 22.7 18.3 Q22.3 18.35 22.4 17.9 22.5 17.5 23.0 17.6" fill="#000000" fill-rule="evenodd" stroke="none"/>
    <path d="M22.95 -4.7 L22.85 -4.45 22.7 -4.55 22.6 -4.75 22.95 -4.7" fill="#000000" fill-rule="evenodd" stroke="none"/>
    <path d="M22.9 -3.2 L22.55 -3.1 Q22.4 -3.3 22.6 -3.45 L22.9 -3.2" fill="#000000" fill-rule="evenodd" stroke="none"/>
    <path d="M22.3 9.0 L21.95 8.8 Q21.9 8.6 22.15 8.55 22.5 8.6 22.3 9.0" fill="#000000" fill-rule="evenodd" stroke="none"/>
    <path d="M22.3 24.75 L22.3 24.9 22.2 24.85 22.15 24.75 Q22.15 24.55 22.3 24.75" fill="#000000" fill-rule="evenodd" stroke="none"/>
    <path d="M21.35 -1.05 L21.05 -0.95 21.05 -1.15 21.35 -1.05" fill="#000000" fill-rule="evenodd" stroke="none"/>
    <path d="M20.35 3.0 L20.15 3.15 20.15 3.0 20.35 3.0" fill="#000000" fill-rule="evenodd" stroke="none"/>
    <path d="M20.3 5.6 L20.3 5.8 20.15 5.95 Q20.0 5.85 20.1 5.6 L20.3 5.6" fill="#000000" fill-rule="evenodd" stroke="none"/>
    <path d="M19.65 0.35 L19.65 0.05 19.8 -0.2 20.2 -0.05 20.15 0.4 19.65 0.35" fill="#000000" fill-rule="evenodd" stroke="none"/>
    <path d="M20.2 14.05 L20.1 14.35 19.95 14.15 Q20.05 13.95 20.2 14.05" fill="#000000" fill-rule="evenodd" stroke="none"/>
    <path d="M19.65 8.25 Q19.5 8.1 19.7 7.95 L19.9 8.1 19.65 8.25" fill="#000000" fill-rule="evenodd" stroke="none"/>
    <path d="M18.15 12.8 L18.05 12.4 Q18.1 12.15 18.45 12.2 L18.6 12.6 Q18.5 12.85 18.15 12.8" fill="#000000" fill-rule="evenodd" stroke="none"/>
    <path d="M18.5 7.9 L18.2 7.7 18.45 7.65 18.5 7.9" fill="#000000" fill-rule="evenodd" stroke="none"/>
    <path d="M18.4 5.55 L17.65 5.6 17.7 5.25 18.0 5.0 18.35 5.2 18.4 5.55" fill="#000000" fill-rule="evenodd" stroke="none"/>
    <path d="M17.8 -16.2 Q17.35 -15.95 17.15 -16.35 L17.15 -16.65 17.35 -16.95 17.9 -16.7 Q18.05 -16.45 17.8 -16.2" fill="#000000" fill-rule="evenodd" stroke="none"/>
    <path d="M17.65 -7.05 L17.65 -7.35 17.9 -7.2 Q17.95 -7.0 17.65 -7.05" fill="#000000" fill-rule="evenodd" stroke="none"/>
    <path d="M17.25 25.95 Q17.0 25.5 17.25 25.2 17.45 24.85 17.9 25.2 L17.85 25.85 17.25 25.95" fill="#000000" fill-rule="evenodd" stroke="none"/>
    <path d="M17.6 4.3 L17.5 4.1 Q17.65 3.75 17.85 4.0 18.0 4.3 17.6 4.3" fill="#000000" fill-rule="evenodd" stroke="none"/>
    <path d="M16.3 34.3 L17.1 34.35 Q17.25 34.95 16.8 34.85 16.4 34.75 16.3 34.3" fill="#000000" fill-rule="evenodd" stroke="none"/>
    <path d="M16.9 9.25 L16.5 9.35 16.25 9.05 16.6 8.8 16.9 9.25" fill="#000000" fill-rule="evenodd" stroke="none"/>
    <path d="M16.65 25.3 L16.2 25.2 Q16.05 25.05 16.2 24.75 L16.7 24.8 16.65 25.3" fill="#000000" fill-rule="evenodd" stroke="none"/>
    <path d="M16.65 22.95 L16.45 22.7 16.65 22.65 16.7 22.8 16.65 22.95" fill="#000000" fill-rule="evenodd" stroke="none"/>
    <path d="M16.5 27.25 L16.35 27.05 Q16.3 26.9 16.4 26.8 L16.6 26.95 16.5 27.25" fill="#000000" fill-rule="evenodd" stroke="none"/>
    <path d="M16.55 -18.15 L16.35 -17.85 16.25 -18.15 16.55 -18.15" fill="#000000" fill-rule="evenodd" stroke="none"/>
    <path d="M16.4 13.2 Q16.1 13.4 16.05 13.1 15.95 12.8 16.35 12.75 L16.4 13.2" fill="#000000" fill-rule="evenodd" stroke="none"/>
    <path d="M16.3 17.6 Q16.05 17.7 16.0 17.5 16.05 17.3 16.25 17.3 L16.3 17.6" fill="#000000" fill-rule="evenodd" stroke="none"/>
    <path d="M15.7 22.95 L15.45 23.05 15.55 22.95 15.7 22.95" fill="#000000" fill-rule="evenodd" stroke="none"/>
    <path d="M15.55 -6.15 L15.0 -6.25 14.7 -6.65 15.0 -7.05 15.5 -6.95 15.55 -6.15" fill="#000000" fill-rule="evenodd" stroke="none"/>
    <path d="M15.15 0.2 L14.85 0.2 14.75 -0.2 15.0 -0.05 15.15 0.2" fill="#000000" fill-rule="evenodd" stroke="none"/>
    <path d="M14.8 33.45 L14.55 33.35 14.55 33.15 Q14.8 33.0 14.9 33.15 L14.8 33.45" fill="#000000" fill-rule="evenodd" stroke="none"/>
    <path d="M14.8 -20.95 L14.8 -20.75 14.45 -20.85 14.8 -20.95" fill="#000000" fill-rule="evenodd" stroke="none"/>
    <path d="M14.4 -9.7 Q13.95 -9.6 14.05 -10.1 L14.45 -10.05 Q14.6 -9.9 14.4 -9.7" fill="#000000" fill-rule="evenodd" stroke="none"/>
    <path d="M14.05 -15.95 L14.05 -15.7 13.85 -15.75 Q13.8 -16.0 14.05 -15.95" fill="#000000" fill-rule="evenodd" stroke="none"/>
    <path d="M13.6 -11.25 Q13.4 -11.5 13.7 -11.7 L14.0 -11.4 Q13.95 -11.15 13.6 -11.25" fill="#000000" fill-rule="evenodd" stroke="none"/>
    <path d="M13.95 35.25 L13.7 35.45 13.7 35.25 13.95 35.25" fill="#000000" fill-rule="evenodd" stroke="none"/>
    <path d="M11.55 4.1 L11.6 3.85 11.65 3.45 Q11.9 3.05 12.4 3.05 12.9 3.05 13.15 3.35 L13.9 4.4 12.45 4.85 11.9 4.55 11.55 4.1" fill="#000000" fill-rule="evenodd" stroke="none"/>
    <path d="M13.8 25.4 L13.6 25.4 13.8 25.25 13.8 25.4" fill="#000000" fill-rule="evenodd" stroke="none"/>
    <path d="M13.55 5.65 L13.2 5.5 Q13.15 5.4 13.25 5.35 L13.35 5.25 13.6 5.35 13.55 5.65" fill="#000000" fill-rule="evenodd" stroke="none"/>
    <path d="M13.4 -15.15 L13.05 -14.95 12.95 -15.25 13.2 -15.3 13.4 -15.15" fill="#000000" fill-rule="evenodd" stroke="none"/>
    <path d="M13.3 -21.2 L13.25 -20.95 13.05 -21.15 13.3 -21.2" fill="#000000" fill-rule="evenodd" stroke="none"/>
    <path d="M12.65 -15.4 Q12.75 -15.6 12.95 -15.6 L12.95 -15.3 12.65 -15.4" fill="#000000" fill-rule="evenodd" stroke="none"/>
    <path d="M12.65 27.35 L12.55 27.5 12.3 27.45 12.45 27.25 12.65 27.35" fill="#000000" fill-rule="evenodd" stroke="none"/>
    <path d="M12.3 29.35 L11.9 29.35 Q11.6 28.95 12.05 28.95 12.45 28.95 12.3 29.35" fill="#000000" fill-rule="evenodd" stroke="none"/>
    <path d="M12.0 -5.65 Q11.65 -5.6 11.5 -5.85 11.35 -6.1 11.6 -6.3 L12.1 -6.1 Q12.25 -5.85 12.0 -5.65" fill="#000000" fill-rule="evenodd" stroke="none"/>
    <path d="M10.65 -14.05 L11.15 -14.05 11.5 -13.9 Q11.8 -13.45 11.35 -13.15 L10.7 -13.1 Q10.45 -13.25 10.5 -13.55 L10.65 -14.05" fill="#000000" fill-rule="evenodd" stroke="none"/>
    <path d="M11.55 -21.25 L11.55 -20.95 Q11.35 -20.85 11.2 -21.05 11.25 -21.25 11.55 -21.25" fill="#000000" fill-rule="evenodd" stroke="none"/>
    <path d="M11.15 4.25 L11.0 4.45 10.75 4.4 Q10.75 4.05 11.15 4.25" fill="#000000" fill-rule="evenodd" stroke="none"/>
    <path d="M10.05 -18.4 Q10.25 -18.9 10.6 -18.55 10.75 -18.25 10.45 -18.2 10.1 -18.15 10.05 -18.4" fill="#000000" fill-rule="evenodd" stroke="none"/>
    <path d="M10.5 -8.55 L10.4 -8.3 Q10.25 -8.3 10.15 -8.4 10.3 -8.7 10.5 -8.55" fill="#000000" fill-rule="evenodd" stroke="none"/>
    <path d="M10.5 15.8 L10.2 16.0 10.3 15.75 10.5 15.8" fill="#000000" fill-rule="evenodd" stroke="none"/>
    <path d="M10.25 19.35 Q9.95 19.4 9.95 19.2 9.95 18.95 10.25 19.0 10.45 19.15 10.25 19.35" fill="#000000" fill-rule="evenodd" stroke="none"/>
    <path d="M10.15 14.7 Q9.75 14.9 9.75 14.5 9.75 14.25 10.1 14.3 10.4 14.4 10.15 14.7" fill="#000000" fill-rule="evenodd" stroke="none"/>
    <path d="M10.1 6.5 L9.85 6.7 9.95 6.5 10.1 6.5" fill="#000000" fill-rule="evenodd" stroke="none"/>
    <path d="M9.65 4.6 Q9.55 4.3 9.7 4.2 L9.95 4.45 Q9.95 4.75 9.65 4.6" fill="#000000" fill-rule="evenodd" stroke="none"/>
    <path d="M8.7 -0.8 Q9.5 -0.65 9.75 -0.05 L9.6 1.05 Q9.25 1.55 8.65 1.6 L7.8 1.25 Q7.25 0.9 7.4 0.55 L7.35 0.55 7.45 -0.35 Q7.85 -0.95 8.7 -0.8" fill="#000000" fill-rule="evenodd" stroke="none"/>
    <path d="M9.1 -2.1 L9.15 -2.4 9.55 -2.4 Q9.65 -2.1 9.1 -2.1" fill="#000000" fill-rule="evenodd" stroke="none"/>
    <path d="M9.35 8.95 L9.1 8.85 9.0 8.7 Q9.1 8.45 9.35 8.6 9.6 8.7 9.35 8.95" fill="#000000" fill-rule="evenodd" stroke="none"/>
    <path d="M9.3 -7.55 Q9.0 -7.55 9.1 -7.7 L9.25 -7.95 9.4 -7.8 9.3 -7.55" fill="#000000" fill-rule="evenodd" stroke="none"/>
    <path d="M9.1 -16.35 Q8.75 -16.15 8.75 -16.35 L8.75 -16.75 9.1 -16.35" fill="#000000" fill-rule="evenodd" stroke="none"/>
    <path d="M7.95 -23.75 L7.85 -23.8 7.8 -23.85 7.8 -23.9 7.9 -23.95 7.95 -23.75" fill="#000000" fill-rule="evenodd" stroke="none"/>
    <path d="M7.45 -18.9 L7.15 -18.9 7.25 -19.1 7.45 -18.9" fill="#000000" fill-rule="evenodd" stroke="none"/>
    <path d="M5.95 11.4 Q6.0 10.5 6.6 10.7 7.2 10.9 6.85 11.65 L6.3 11.75 5.95 11.4" fill="#000000" fill-rule="evenodd" stroke="none"/>
    <path d="M6.5 3.15 Q6.1 3.45 5.95 2.95 6.0 2.7 6.3 2.8 6.65 2.85 6.5 3.15" fill="#000000" fill-rule="evenodd" stroke="none"/>
    <path d="M6.3 19.3 L6.0 19.3 Q5.8 19.2 5.9 19.1 5.95 18.9 6.15 19.0 L6.3 19.3" fill="#000000" fill-rule="evenodd" stroke="none"/>
    <path d="M5.95 32.25 L5.75 32.15 5.8 32.0 5.95 32.25" fill="#000000" fill-rule="evenodd" stroke="none"/>
    <path d="M5.5 -0.15 L5.35 0.05 Q5.2 0.0 5.2 -0.25 L5.35 -0.2 Q5.45 -0.1 5.5 -0.15" fill="#000000" fill-rule="evenodd" stroke="none"/>
    <path d="M4.8 -23.0 L4.8 -23.3 Q5.0 -23.45 5.05 -23.2 L4.8 -23.0" fill="#000000" fill-rule="evenodd" stroke="none"/>
    <path d="M4.35 16.95 Q4.15 16.75 4.25 16.5 4.4 16.25 4.6 16.3 4.95 16.3 4.85 16.7 4.75 17.05 4.35 16.95" fill="#000000" fill-rule="evenodd" stroke="none"/>
    <path d="M4.75 25.0 Q4.9 25.4 4.55 25.5 4.15 25.6 4.15 25.1 4.25 24.8 4.75 25.0" fill="#000000" fill-rule="evenodd" stroke="none"/>
    <path d="M4.4 -12.45 L4.4 -12.8 Q4.7 -12.95 4.7 -12.7 4.75 -12.4 4.4 -12.45" fill="#000000" fill-rule="evenodd" stroke="none"/>
    <path d="M4.25 8.2 Q3.65 8.4 3.5 7.75 3.3 7.1 3.95 7.05 4.3 7.05 4.4 7.45 L4.25 8.2" fill="#000000" fill-rule="evenodd" stroke="none"/>
    <path d="M3.65 -23.5 Q3.4 -23.85 3.75 -24.15 L4.25 -24.1 Q4.25 -23.35 3.65 -23.5" fill="#000000" fill-rule="evenodd" stroke="none"/>
    <path d="M3.9 28.9 Q3.5 29.25 3.1 29.25 2.75 28.65 3.1 28.3 3.45 28.1 3.65 28.4 L3.9 28.9" fill="#000000" fill-rule="evenodd" stroke="none"/>
    <path d="M3.35 9.3 L3.2 9.6 Q2.8 9.6 2.95 9.35 L3.35 9.3" fill="#000000" fill-rule="evenodd" stroke="none"/>
    <path d="M2.75 15.25 L2.45 15.35 Q2.3 15.25 2.45 14.9 2.8 14.9 2.75 15.25" fill="#000000" fill-rule="evenodd" stroke="none"/>
    <path d="M2.05 22.2 L1.85 21.85 Q1.95 21.65 2.2 21.7 L2.25 22.0 2.05 22.2" fill="#000000" fill-rule="evenodd" stroke="none"/>
    <path d="M1.6 10.3 L1.95 10.75 2.2 11.3 2.1 11.95 Q1.85 12.25 1.45 12.15 L0.95 11.8 Q0.75 11.5 0.85 11.2 L1.2 10.75 1.6 10.3" fill="#000000" fill-rule="evenodd" stroke="none"/>
    <path d="M1.55 -0.4 L1.35 -0.55 1.25 -0.85 1.9 -0.8 Q2.1 -0.35 1.55 -0.4" fill="#000000" fill-rule="evenodd" stroke="none"/>
    <path d="M1.6 5.6 Q2.2 5.95 1.7 6.0 1.15 6.05 1.6 5.6" fill="#000000" fill-rule="evenodd" stroke="none"/>
    <path d="M1.5 15.95 L1.3 16.2 1.15 15.95 1.15 15.7 Q1.5 15.7 1.5 15.95" fill="#000000" fill-rule="evenodd" stroke="none"/>
    <path d="M1.2 5.95 L1.05 6.2 0.75 6.0 0.95 5.7 1.2 5.95" fill="#000000" fill-rule="evenodd" stroke="none"/>
    <path d="M1.05 -1.25 Q1.1 -1.0 0.75 -1.05 L0.75 -1.45 1.05 -1.25" fill="#000000" fill-rule="evenodd" stroke="none"/>
    <path d="M0.25 15.55 Q-0.15 15.75 -0.25 15.4 -0.35 15.05 0.0 15.0 0.25 14.95 0.3 15.15 L0.25 15.55" fill="#000000" fill-rule="evenodd" stroke="none"/>
    <path d="M-0.15 5.75 L0.05 5.5 Q0.5 5.5 0.3 5.8 L-0.15 5.75" fill="#000000" fill-rule="evenodd" stroke="none"/>
    <path d="M-0.75 -0.75 Q-0.75 -0.4 -0.95 -0.45 L-0.95 -0.65 -0.75 -0.75" fill="#000000" fill-rule="evenodd" stroke="none"/>
    <path d="M-1.95 15.05 L-1.75 14.6 -1.3 14.45 Q-1.0 14.5 -1.0 14.9 -1.0 15.35 -1.3 15.45 L-1.65 15.35 -1.95 15.05" fill="#000000" fill-rule="evenodd" stroke="none"/>
    <path d="M-1.4 -5.3 Q-1.85 -5.4 -1.8 -5.8 -1.55 -6.1 -1.3 -5.8 -1.05 -5.5 -1.4 -5.3" fill="#000000" fill-rule="evenodd" stroke="none"/>
    <path d="M-1.6 8.15 L-1.45 7.95 Q-1.15 8.0 -1.3 8.2 L-1.6 8.15" fill="#000000" fill-rule="evenodd" stroke="none"/>
    <path d="M-1.45 -16.6 Q-1.05 -16.2 -1.55 -15.9 -2.0 -15.65 -2.05 -16.15 -2.05 -16.6 -1.45 -16.6" fill="#000000" fill-rule="evenodd" stroke="none"/>
    <path d="M-2.1 -9.8 L-2.15 -10.05 -2.15 -10.35 Q-1.65 -10.65 -1.6 -10.2 -1.55 -9.7 -2.1 -9.8" fill="#000000" fill-rule="evenodd" stroke="none"/>
    <path d="M-1.9 -12.05 L-2.35 -11.75 -2.6 -12.05 -2.5 -12.55 -1.95 -12.5 Q-1.85 -12.4 -1.9 -12.05" fill="#000000" fill-rule="evenodd" stroke="none"/>
    <path d="M-2.9 6.35 L-2.7 6.05 -2.25 6.05 Q-1.9 6.5 -2.4 6.7 -2.85 6.85 -2.9 6.35" fill="#000000" fill-rule="evenodd" stroke="none"/>
    <path d="M-2.15 13.2 Q-2.15 13.55 -2.5 13.55 L-2.5 13.35 -2.5 13.2 -2.15 13.2" fill="#000000" fill-rule="evenodd" stroke="none"/>
    <path d="M-3.55 2.7 Q-3.75 2.15 -3.45 1.75 -2.8 1.55 -2.8 2.25 -2.9 2.95 -3.55 2.7" fill="#000000" fill-rule="evenodd" stroke="none"/>
    <path d="M-2.9 31.55 L-3.35 31.5 -3.15 31.15 Q-2.9 31.3 -2.9 31.55" fill="#000000" fill-rule="evenodd" stroke="none"/>
    <path d="M-3.55 6.45 L-3.45 6.2 Q-3.05 6.15 -3.2 6.4 L-3.55 6.45" fill="#000000" fill-rule="evenodd" stroke="none"/>
    <path d="M-4.3 7.55 Q-2.9 7.95 -3.55 10.1 L-3.8 11.7 Q-4.05 12.65 -4.95 12.6 L-5.15 12.4 -5.35 12.15 -5.55 11.35 -5.9 10.65 -6.1 9.35 -6.45 9.5 -6.9 9.45 -6.9 8.95 -6.35 8.8 Q-6.05 8.95 -6.15 9.2 L-5.7 8.05 Q-5.2 7.3 -4.3 7.55" fill="#000000" fill-rule="evenodd" stroke="none"/>
    <path d="M-4.1 26.25 L-4.25 25.9 -4.2 25.55 Q-4.1 25.4 -3.9 25.4 -3.7 25.4 -3.65 25.6 -3.5 25.85 -3.65 26.05 L-4.1 26.25" fill="#000000" fill-rule="evenodd" stroke="none"/>
    <path d="M-3.7 -18.35 Q-3.7 -18.1 -3.95 -18.1 L-4.0 -18.4 -3.7 -18.35" fill="#000000" fill-rule="evenodd" stroke="none"/>
    <path d="M-3.8 -13.5 Q-3.45 -12.75 -4.5 -12.25 -5.55 -11.8 -5.75 -12.85 -5.9 -13.75 -5.0 -14.1 -4.05 -14.45 -3.8 -13.5" fill="#000000" fill-rule="evenodd" stroke="none"/>
    <path d="M-4.3 28.2 L-4.3 28.1 Q-4.2 28.05 -4.2 28.15 L-4.3 28.2" fill="#000000" fill-rule="evenodd" stroke="none"/>
    <path d="M-4.55 -15.75 Q-4.1 -15.2 -4.55 -14.75 L-5.4 -14.65 -6.2 -14.95 Q-6.9 -15.0 -7.1 -15.6 -7.25 -16.25 -6.65 -16.65 L-5.9 -16.7 -5.3 -16.2 -4.95 -15.95 -4.55 -15.75" fill="#000000" fill-rule="evenodd" stroke="none"/>
    <path d="M-4.65 -5.5 L-4.8 -5.15 -4.95 -5.3 -4.65 -5.5" fill="#000000" fill-rule="evenodd" stroke="none"/>
    <path d="M-5.3 -8.5 L-5.7 -8.65 -5.7 -9.3 Q-5.55 -9.7 -5.2 -9.7 -4.65 -9.65 -4.75 -9.15 -4.85 -8.65 -5.3 -8.5" fill="#000000" fill-rule="evenodd" stroke="none"/>
    <path d="M-4.95 5.05 L-5.3 4.95 Q-5.35 4.6 -5.05 4.65 -4.8 4.75 -4.95 5.05" fill="#000000" fill-rule="evenodd" stroke="none"/>
    <path d="M-4.95 19.0 L-5.1 19.25 -5.2 19.0 -5.05 19.0 -4.95 19.0" fill="#000000" fill-rule="evenodd" stroke="none"/>
    <path d="M-5.0 -23.55 Q-5.05 -23.3 -5.2 -23.4 L-5.3 -23.7 -5.0 -23.55" fill="#000000" fill-rule="evenodd" stroke="none"/>
    <path d="M-5.0 -5.55 Q-5.0 -5.4 -5.15 -5.4 L-5.15 -5.5 -5.0 -5.55" fill="#000000" fill-rule="evenodd" stroke="none"/>
    <path d="M-5.1 -2.4 L-5.15 -2.3 -5.3 -2.45 -5.1 -2.4" fill="#000000" fill-rule="evenodd" stroke="none"/>
    <path d="M-5.6 16.25 L-5.45 16.0 -5.25 16.1 -5.15 16.3 -5.4 16.4 -5.6 16.25" fill="#000000" fill-rule="evenodd" stroke="none"/>
    <path d="M-5.9 5.5 L-6.3 5.5 -6.35 5.15 -6.05 5.2 Q-5.85 5.3 -5.9 5.5" fill="#000000" fill-rule="evenodd" stroke="none"/>
    <path d="M-5.9 7.05 L-6.25 7.4 -6.7 7.3 Q-6.95 6.9 -6.45 6.75 -6.0 6.6 -5.9 7.05" fill="#000000" fill-rule="evenodd" stroke="none"/>
    <path d="M-6.05 3.65 L-6.4 3.5 -6.15 3.25 Q-5.85 3.5 -6.05 3.65" fill="#000000" fill-rule="evenodd" stroke="none"/>
    <path d="M-6.45 15.6 L-6.35 15.4 Q-5.95 15.35 -6.1 15.65 L-6.45 15.6" fill="#000000" fill-rule="evenodd" stroke="none"/>
    <path d="M-6.4 10.35 Q-5.9 10.85 -6.5 11.0 -7.1 11.15 -6.95 10.5 L-6.4 10.35" fill="#000000" fill-rule="evenodd" stroke="none"/>
    <path d="M-8.1 -11.2 Q-7.7 -11.5 -7.25 -11.4 -6.8 -11.35 -6.55 -10.9 -6.35 -10.35 -6.6 -10.1 L-7.3 -9.6 Q-8.5 -9.85 -8.1 -11.2" fill="#000000" fill-rule="evenodd" stroke="none"/>
    <path d="M-7.45 32.05 L-7.35 31.8 -7.25 31.95 Q-7.3 32.15 -7.45 32.05" fill="#000000" fill-rule="evenodd" stroke="none"/>
    <path d="M-8.05 -13.45 Q-8.9 -13.4 -9.05 -14.1 -9.25 -14.75 -8.55 -15.15 -7.65 -15.3 -7.5 -14.5 -7.35 -13.7 -8.05 -13.45" fill="#000000" fill-rule="evenodd" stroke="none"/>
    <path d="M-7.9 4.85 L-8.0 4.45 -7.8 4.15 Q-7.45 4.1 -7.45 4.55 -7.45 4.9 -7.9 4.85" fill="#000000" fill-rule="evenodd" stroke="none"/>
    <path d="M-7.95 5.95 Q-8.15 5.65 -7.95 5.45 L-7.65 5.5 -7.65 5.9 -7.95 5.95" fill="#000000" fill-rule="evenodd" stroke="none"/>
    <path d="M-7.85 -7.25 L-8.05 -7.2 -8.25 -7.25 -8.25 -7.8 Q-7.95 -7.9 -7.85 -7.65 L-7.85 -7.25" fill="#000000" fill-rule="evenodd" stroke="none"/>
    <path d="M-8.35 27.25 L-8.4 26.9 Q-8.2 26.65 -8.05 26.95 -7.95 27.25 -8.35 27.25" fill="#000000" fill-rule="evenodd" stroke="none"/>
    <path d="M-8.55 4.5 L-8.8 4.65 -8.8 4.45 -8.55 4.5" fill="#000000" fill-rule="evenodd" stroke="none"/>
    <path d="M-9.05 -21.25 Q-9.5 -21.1 -9.8 -21.6 -10.05 -22.15 -9.6 -22.2 -9.3 -22.25 -9.05 -21.9 -8.8 -21.6 -9.05 -21.25" fill="#000000" fill-rule="evenodd" stroke="none"/>
    <path d="M-9.05 27.45 Q-8.9 27.65 -9.15 27.75 L-9.35 27.55 -9.2 27.45 -9.05 27.45" fill="#000000" fill-rule="evenodd" stroke="none"/>
    <path d="M-9.35 14.5 L-9.7 14.35 -9.65 13.9 Q-9.35 13.85 -9.3 14.05 L-9.35 14.5" fill="#000000" fill-rule="evenodd" stroke="none"/>
    <path d="M-9.8 -0.6 L-10.1 -0.85 -9.8 -1.25 -9.65 -0.95 Q-9.65 -0.7 -9.8 -0.6" fill="#000000" fill-rule="evenodd" stroke="none"/>
    <path d="M-9.9 15.85 L-9.9 16.0 -10.15 15.8 Q-10.2 15.65 -9.9 15.85" fill="#000000" fill-rule="evenodd" stroke="none"/>
    <path d="M-10.2 3.95 L-10.55 3.85 Q-10.7 3.35 -10.3 3.45 -9.9 3.5 -10.2 3.95" fill="#000000" fill-rule="evenodd" stroke="none"/>
    <path d="M-10.3 4.1 L-10.3 4.25 -10.4 4.2 -10.3 4.1" fill="#000000" fill-rule="evenodd" stroke="none"/>
    <path d="M-10.55 24.95 Q-10.65 25.1 -10.85 25.1 -11.4 25.1 -11.1 24.55 -10.75 24.05 -10.5 24.55 L-10.55 24.95" fill="#000000" fill-rule="evenodd" stroke="none"/>
    <path d="M-10.65 -6.15 L-10.85 -6.3 -10.7 -6.35 -10.65 -6.15" fill="#000000" fill-rule="evenodd" stroke="none"/>
    <path d="M-10.75 4.25 L-10.95 4.3 -11.05 4.1 -10.85 4.1 -10.75 4.25" fill="#000000" fill-rule="evenodd" stroke="none"/>
    <path d="M-11.2 0.45 L-11.35 0.7 -11.6 0.65 -11.45 0.4 -11.2 0.45" fill="#000000" fill-rule="evenodd" stroke="none"/>
    <path d="M-11.4 -0.3 Q-11.25 -0.15 -11.4 0.0 L-11.7 -0.25 -11.4 -0.3" fill="#000000" fill-rule="evenodd" stroke="none"/>
    <path d="M-11.5 5.7 L-11.6 6.05 -11.85 5.95 Q-11.75 5.7 -11.5 5.7" fill="#000000" fill-rule="evenodd" stroke="none"/>
    <path d="M-11.75 26.25 Q-11.35 26.75 -11.6 27.45 -11.85 28.15 -12.5 28.0 -12.9 27.9 -13.1 27.55 L-13.15 26.9 Q-13.05 26.4 -12.65 26.25 L-11.75 26.25" fill="#000000" fill-rule="evenodd" stroke="none"/>
    <path d="M-11.75 -6.8 L-11.8 -6.7 -11.9 -6.8 -11.95 -6.85 -11.75 -6.8" fill="#000000" fill-rule="evenodd" stroke="none"/>
    <path d="M-12.05 7.75 Q-11.8 8.1 -11.85 8.5 L-12.1 8.95 -12.45 9.25 -13.2 9.25 -13.75 8.8 -13.75 8.2 -13.65 7.85 -13.55 7.55 Q-13.2 7.25 -12.8 7.3 -12.35 7.35 -12.05 7.75" fill="#000000" fill-rule="evenodd" stroke="none"/>
    <path d="M-11.9 -11.4 L-11.9 -11.25 Q-12.0 -11.2 -12.0 -11.3 L-11.9 -11.4" fill="#000000" fill-rule="evenodd" stroke="none"/>
    <path d="M-12.0 -11.2 Q-12.0 -11.1 -12.1 -11.15 L-12.15 -11.3 -12.0 -11.2" fill="#000000" fill-rule="evenodd" stroke="none"/>
    <path d="M-12.05 21.15 Q-12.55 21.4 -12.8 20.75 -13.1 20.1 -12.5 20.15 -12.25 20.15 -12.1 20.55 L-12.05 21.15" fill="#000000" fill-rule="evenodd" stroke="none"/>
    <path d="M-12.55 15.95 L-12.45 15.5 Q-12.05 15.45 -12.15 15.8 -12.25 16.15 -12.55 15.95" fill="#000000" fill-rule="evenodd" stroke="none"/>
    <path d="M-12.45 -11.9 L-12.45 -11.75 -12.6 -11.9 -12.45 -11.9" fill="#000000" fill-rule="evenodd" stroke="none"/>
    <path d="M-12.55 5.8 L-12.6 6.0 -12.85 5.9 Q-12.8 5.7 -12.55 5.8" fill="#000000" fill-rule="evenodd" stroke="none"/>
    <path d="M-13.45 -17.15 Q-13.35 -16.9 -13.55 -16.55 L-14.05 -16.05 Q-14.75 -16.0 -15.1 -16.35 L-15.35 -16.9 -15.25 -17.5 -14.9 -17.85 -14.4 -18.1 Q-13.7 -18.15 -13.45 -17.15" fill="#000000" fill-rule="evenodd" stroke="none"/>
    <path d="M-14.3 -9.05 L-14.35 -9.3 -14.1 -9.25 Q-14.0 -9.05 -14.3 -9.05" fill="#000000" fill-rule="evenodd" stroke="none"/>
    <path d="M-14.1 9.05 L-14.15 9.2 -14.3 9.15 Q-14.25 8.95 -14.1 9.05" fill="#000000" fill-rule="evenodd" stroke="none"/>
    <path d="M-14.65 -18.9 Q-14.3 -19.1 -14.2 -18.75 -14.1 -18.4 -14.45 -18.45 L-14.6 -18.6 -14.65 -18.9" fill="#000000" fill-rule="evenodd" stroke="none"/>
    <path d="M-14.3 -14.95 Q-14.3 -14.8 -14.4 -14.8 L-14.5 -14.95 -14.4 -15.0 -14.3 -14.95" fill="#000000" fill-rule="evenodd" stroke="none"/>
    <path d="M-14.3 4.4 Q-14.3 4.85 -14.6 4.8 L-14.8 4.65 Q-14.7 4.2 -14.3 4.4" fill="#000000" fill-rule="evenodd" stroke="none"/>
    <path d="M-14.85 -9.9 L-14.95 -10.15 -15.05 -10.25 -14.75 -10.35 Q-14.4 -10.35 -14.5 -10.05 -14.6 -9.65 -14.85 -9.9" fill="#000000" fill-rule="evenodd" stroke="none"/>
    <path d="M-14.95 7.75 Q-14.7 7.45 -14.5 7.65 -14.3 7.95 -14.6 8.0 -14.95 8.05 -14.95 7.75" fill="#000000" fill-rule="evenodd" stroke="none"/>
    <path d="M-14.55 5.45 L-14.7 5.5 -14.85 5.55 -14.85 5.3 -14.7 5.1 Q-14.5 5.15 -14.55 5.45" fill="#000000" fill-rule="evenodd" stroke="none"/>
    <path d="M-15.65 6.65 Q-15.15 6.6 -14.95 6.9 -14.7 7.25 -15.0 7.6 -15.5 7.95 -15.8 7.45 -16.15 7.0 -15.65 6.65" fill="#000000" fill-rule="evenodd" stroke="none"/>
    <path d="M-15.1 8.65 L-15.25 8.65 -15.15 8.45 -15.1 8.65" fill="#000000" fill-rule="evenodd" stroke="none"/>
    <path d="M-15.45 -20.2 L-15.7 -20.3 -15.7 -20.6 Q-15.35 -20.75 -15.25 -20.5 -15.15 -20.3 -15.45 -20.2" fill="#000000" fill-rule="evenodd" stroke="none"/>
    <path d="M-16.1 31.95 L-16.2 31.4 Q-16.1 30.85 -15.5 31.05 -15.25 31.4 -15.45 31.75 -15.7 32.05 -16.1 31.95" fill="#000000" fill-rule="evenodd" stroke="none"/>
    <path d="M-15.5 13.45 L-15.95 13.65 -16.15 13.25 Q-16.2 12.65 -15.7 12.85 -15.25 13.05 -15.5 13.45" fill="#000000" fill-rule="evenodd" stroke="none"/>
    <path d="M-15.7 3.25 L-15.7 2.95 -15.5 2.95 -15.5 3.15 -15.7 3.25" fill="#000000" fill-rule="evenodd" stroke="none"/>
    <path d="M-15.65 14.5 L-15.9 14.55 -15.85 14.2 Q-15.6 14.1 -15.65 14.5" fill="#000000" fill-rule="evenodd" stroke="none"/>
    <path d="M-16.0 2.8 L-16.05 2.6 -15.9 2.45 Q-15.7 2.5 -15.75 2.7 -15.8 2.85 -16.0 2.8" fill="#000000" fill-rule="evenodd" stroke="none"/>
    <path d="M-16.05 5.3 L-16.65 4.95 -17.2 4.5 -17.2 4.05 -16.75 3.9 -16.45 4.3 Q-16.1 4.2 -15.9 4.45 L-15.8 4.85 -16.05 5.3" fill="#000000" fill-rule="evenodd" stroke="none"/>
    <path d="M-15.9 35.7 Q-16.25 35.95 -16.4 35.5 -16.55 35.05 -16.1 35.2 -15.85 35.5 -15.9 35.7" fill="#000000" fill-rule="evenodd" stroke="none"/>
    <path d="M-15.95 5.6 L-16.1 5.7 -16.05 5.6 -15.95 5.6" fill="#000000" fill-rule="evenodd" stroke="none"/>
    <path d="M-16.0 16.75 Q-16.0 17.05 -16.4 17.05 L-16.3 16.8 -16.0 16.75" fill="#000000" fill-rule="evenodd" stroke="none"/>
    <path d="M-16.7 3.55 L-16.65 3.25 -16.2 3.45 -16.4 3.65 -16.7 3.55" fill="#000000" fill-rule="evenodd" stroke="none"/>
    <path d="M-16.3 13.3 L-16.4 13.25 -16.4 13.2 -16.3 13.3" fill="#000000" fill-rule="evenodd" stroke="none"/>
    <path d="M-16.4 10.45 Q-16.15 11.7 -17.5 11.15 -18.85 10.65 -17.85 9.65 L-16.85 9.7 Q-16.35 9.95 -16.4 10.45" fill="#000000" fill-rule="evenodd" stroke="none"/>
    <path d="M-16.55 7.2 L-16.75 7.45 -17.35 7.4 -18.25 7.05 -18.05 6.6 -17.75 6.2 -17.1 6.7 Q-16.65 7.0 -16.55 7.2" fill="#000000" fill-rule="evenodd" stroke="none"/>
    <path d="M-17.4 -11.85 Q-17.95 -11.95 -17.85 -12.5 L-17.2 -12.45 Q-17.0 -12.05 -17.4 -11.85" fill="#000000" fill-rule="evenodd" stroke="none"/>
    <path d="M-17.35 -23.85 Q-17.15 -22.85 -18.3 -22.75 -19.45 -22.65 -19.6 -23.6 -19.7 -24.5 -18.65 -24.6 -17.6 -24.7 -17.35 -23.85" fill="#000000" fill-rule="evenodd" stroke="none"/>
    <path d="M-17.85 -13.15 L-18.2 -13.15 Q-18.65 -13.8 -18.0 -13.7 -17.3 -13.65 -17.85 -13.15" fill="#000000" fill-rule="evenodd" stroke="none"/>
    <path d="M-17.7 19.95 Q-17.65 20.4 -17.95 20.65 L-18.6 20.5 -18.6 20.15 -18.4 19.8 -18.0 19.7 -17.9 19.85 -17.7 19.95" fill="#000000" fill-rule="evenodd" stroke="none"/>
    <path d="M-18.15 5.15 L-18.45 5.2 Q-18.25 5.5 -18.55 5.7 L-18.8 5.7 -19.1 5.55 -18.9 5.2 Q-18.7 5.05 -18.5 5.2 L-18.5 4.85 -18.35 4.65 Q-18.1 4.4 -17.85 5.05 L-18.15 5.15" fill="#000000" fill-rule="evenodd" stroke="none"/>
    <path d="M-18.7 -15.5 L-18.8 -15.95 Q-18.75 -16.2 -18.4 -16.15 -18.15 -16.0 -18.25 -15.7 -18.35 -15.5 -18.7 -15.5" fill="#000000" fill-rule="evenodd" stroke="none"/>
    <path d="M-19.05 29.0 L-19.45 28.5 -19.4 28.2 -19.25 27.9 Q-18.15 27.65 -18.25 28.65 -18.65 29.0 -19.05 29.0" fill="#000000" fill-rule="evenodd" stroke="none"/>
    <path d="M-18.9 4.7 L-19.35 4.65 Q-19.4 4.1 -19.0 4.2 -18.6 4.3 -18.9 4.7" fill="#000000" fill-rule="evenodd" stroke="none"/>
    <path d="M-20.3 19.55 L-19.85 19.35 -19.35 19.2 Q-19.0 19.3 -18.9 19.7 -18.8 20.05 -18.85 20.4 L-19.35 20.95 -20.0 21.05 Q-20.55 20.75 -20.3 19.55" fill="#000000" fill-rule="evenodd" stroke="none"/>
    <path d="M-19.25 6.15 L-19.3 6.6 -19.7 6.45 Q-19.85 6.25 -19.65 6.05 L-19.25 6.15" fill="#000000" fill-rule="evenodd" stroke="none"/>
    <path d="M-19.6 8.0 L-20.1 7.95 -19.95 7.55 -19.6 7.55 -19.6 8.0" fill="#000000" fill-rule="evenodd" stroke="none"/>
    <path d="M-19.7 11.3 L-19.85 11.15 -19.75 11.1 -19.7 11.3" fill="#000000" fill-rule="evenodd" stroke="none"/>
    <path d="M-19.7 37.65 L-20.0 38.05 -20.4 37.65 Q-20.15 37.3 -19.7 37.65" fill="#000000" fill-rule="evenodd" stroke="none"/>
    <path d="M-20.0 3.55 L-20.05 3.65 -20.1 3.75 -20.25 3.5 -20.0 3.55" fill="#000000" fill-rule="evenodd" stroke="none"/>
    <path d="M-21.95 3.1 L-22.0 2.9 -22.15 2.7 Q-21.6 1.55 -20.4 1.85 L-20.2 2.5 -20.35 3.05 Q-20.5 3.35 -21.1 3.3 L-21.95 3.1" fill="#000000" fill-rule="evenodd" stroke="none"/>
    <path d="M-20.55 5.95 L-20.6 6.25 -20.85 6.45 -21.1 6.15 -20.95 5.8 Q-20.75 5.8 -20.55 5.95" fill="#000000" fill-rule="evenodd" stroke="none"/>
    <path d="M-20.6 4.75 L-20.85 4.8 -20.75 4.45 Q-20.6 4.45 -20.6 4.55 L-20.6 4.75" fill="#000000" fill-rule="evenodd" stroke="none"/>
    <path d="M-20.85 -37.4 L-20.95 -37.15 -21.15 -37.35 -20.85 -37.4" fill="#000000" fill-rule="evenodd" stroke="none"/>
    <path d="M-21.0 3.9 L-21.25 4.2 Q-21.6 4.3 -21.65 4.05 -21.7 3.7 -21.4 3.6 -21.05 3.5 -21.0 3.9" fill="#000000" fill-rule="evenodd" stroke="none"/>
    <path d="M-21.0 1.5 L-21.15 1.75 -21.2 1.5 -21.0 1.5" fill="#000000" fill-rule="evenodd" stroke="none"/>
    <path d="M-21.15 21.45 L-21.3 21.5 -21.4 21.35 -21.15 21.45" fill="#000000" fill-rule="evenodd" stroke="none"/>
    <path d="M-22.1 -12.75 Q-22.2 -13.45 -21.6 -13.45 L-21.3 -13.15 -21.3 -12.7 Q-21.45 -12.5 -21.7 -12.6 L-22.1 -12.75" fill="#000000" fill-rule="evenodd" stroke="none"/>
    <path d="M-21.8 5.3 Q-22.0 5.35 -22.05 5.2 L-22.0 4.95 Q-21.55 4.85 -21.8 5.3" fill="#000000" fill-rule="evenodd" stroke="none"/>
    <path d="M-23.0 -38.75 L-22.95 -39.45 Q-22.75 -39.75 -22.4 -39.45 -22.0 -39.1 -22.3 -38.75 -22.6 -38.3 -23.0 -38.75" fill="#000000" fill-rule="evenodd" stroke="none"/>
    <path d="M-22.35 17.1 Q-22.8 17.2 -22.85 16.8 -22.85 16.35 -22.5 16.35 -22.2 16.3 -22.15 16.65 L-22.35 17.1" fill="#000000" fill-rule="evenodd" stroke="none"/>
    <path d="M-23.2 -8.65 L-23.6 -9.2 Q-23.95 -9.55 -23.9 -9.8 L-23.65 -10.35 -23.1 -10.5 Q-22.35 -10.4 -22.35 -9.4 -22.35 -8.4 -23.2 -8.65" fill="#000000" fill-rule="evenodd" stroke="none"/>
    <path d="M-22.55 -17.85 L-22.65 -17.75 -22.7 -17.75 -22.65 -17.85 -22.55 -17.85" fill="#000000" fill-rule="evenodd" stroke="none"/>
    <path d="M-22.85 -20.7 Q-22.65 -19.95 -23.5 -19.7 -24.3 -19.5 -24.7 -20.1 L-24.5 -20.95 -23.85 -21.35 Q-22.95 -21.5 -22.85 -20.7" fill="#000000" fill-rule="evenodd" stroke="none"/>
    <path d="M-24.35 2.2 L-24.35 2.4 -23.65 2.3 Q-23.2 2.15 -23.05 2.3 -22.8 2.6 -23.05 2.8 L-23.55 2.95 Q-24.05 3.25 -24.5 2.95 L-24.45 2.5 -24.5 2.3 -24.35 2.0 -24.35 2.2" fill="#000000" fill-rule="evenodd" stroke="none"/>
    <path d="M-23.1 14.05 L-23.35 14.2 -23.4 13.95 Q-23.3 13.85 -23.1 14.05" fill="#000000" fill-rule="evenodd" stroke="none"/>
    <path d="M-23.25 -7.65 L-23.5 -7.7 Q-23.5 -7.85 -23.35 -7.8 L-23.25 -7.65" fill="#000000" fill-rule="evenodd" stroke="none"/>
    <path d="M-23.6 -39.0 Q-24.05 -38.5 -24.35 -39.15 -24.6 -39.75 -23.95 -39.7 L-23.65 -39.5 -23.6 -39.0" fill="#000000" fill-rule="evenodd" stroke="none"/>
    <path d="M-23.8 9.15 Q-24.65 9.7 -25.25 8.95 -25.9 8.25 -25.0 7.7 L-24.3 7.55 Q-23.95 7.65 -23.75 7.85 -23.5 8.2 -23.55 8.5 L-23.8 9.15" fill="#000000" fill-rule="evenodd" stroke="none"/>
    <path d="M-23.65 -37.2 L-24.05 -37.25 -24.05 -37.55 -23.7 -37.5 Q-23.55 -37.4 -23.65 -37.2" fill="#000000" fill-rule="evenodd" stroke="none"/>
    <path d="M-24.6 4.25 Q-24.9 4.45 -24.95 4.25 L-24.8 3.85 Q-24.55 3.95 -24.6 4.25" fill="#000000" fill-rule="evenodd" stroke="none"/>
    <path d="M-24.6 6.25 L-24.7 6.15 -24.6 6.1 Q-24.45 6.2 -24.6 6.25" fill="#000000" fill-rule="evenodd" stroke="none"/>
    <path d="M-24.7 1.9 Q-24.6 2.2 -24.8 2.4 L-25.15 2.75 -25.45 2.55 -25.65 2.3 -25.95 2.35 -26.3 2.4 -26.45 1.95 -26.1 1.55 Q-25.75 1.45 -25.55 1.7 L-25.15 1.8 -24.7 1.9" fill="#000000" fill-rule="evenodd" stroke="none"/>
    <path d="M-24.9 -23.0 L-25.25 -23.1 -25.55 -23.1 Q-26.0 -23.25 -26.05 -23.75 L-25.65 -24.0 -25.25 -24.05 Q-24.85 -23.95 -24.8 -23.65 L-24.9 -23.0" fill="#000000" fill-rule="evenodd" stroke="none"/>
    <path d="M-24.8 -21.6 L-24.85 -21.5 -25.0 -21.6 -24.8 -21.6" fill="#000000" fill-rule="evenodd" stroke="none"/>
    <path d="M-24.9 -15.05 Q-24.8 -14.55 -25.25 -14.3 L-25.7 -13.95 -26.15 -14.05 -26.65 -14.4 -26.8 -14.85 Q-26.75 -15.2 -26.85 -15.4 -26.65 -15.6 -26.85 -15.85 L-26.65 -16.15 Q-26.55 -16.65 -25.75 -16.35 L-25.3 -15.75 -24.9 -15.05" fill="#000000" fill-rule="evenodd" stroke="none"/>
    <path d="M-25.1 21.8 L-25.1 22.0 -25.25 21.8 -25.1 21.8" fill="#000000" fill-rule="evenodd" stroke="none"/>
    <path d="M-26.0 7.7 L-26.1 7.05 -25.65 6.6 Q-25.0 6.7 -25.2 7.25 -25.35 7.8 -26.0 7.7" fill="#000000" fill-rule="evenodd" stroke="none"/>
    <path d="M-25.65 -9.45 L-25.75 -9.2 Q-25.9 -9.1 -26.0 -9.1 L-26.1 -9.3 -26.0 -9.5 -25.65 -9.45" fill="#000000" fill-rule="evenodd" stroke="none"/>
    <path d="M-26.05 14.85 Q-26.25 15.1 -26.55 15.1 L-27.0 14.75 Q-26.95 14.15 -26.4 14.15 -25.95 14.15 -26.05 14.85" fill="#000000" fill-rule="evenodd" stroke="none"/>
    <path d="M-28.1 -11.0 Q-27.9 -10.7 -28.1 -10.35 L-27.5 -9.95 -27.15 -9.95 -26.85 -9.9 -26.35 -9.5 Q-26.15 -9.2 -26.3 -8.95 L-26.55 -8.5 Q-26.85 -8.35 -27.3 -8.5 L-28.05 -8.75 -28.6 -8.65 Q-28.95 -8.65 -29.1 -9.0 L-29.0 -9.6 -29.4 -10.15 -29.6 -10.7 -29.4 -11.3 -28.65 -11.4 Q-28.3 -11.3 -28.1 -11.0" fill="#000000" fill-rule="evenodd" stroke="none"/>
    <path d="M-26.2 -4.0 L-26.3 -3.8 -26.55 -3.8 -26.4 -4.05 -26.2 -4.0" fill="#000000" fill-rule="evenodd" stroke="none"/>
    <path d="M-26.45 -33.95 L-26.65 -33.9 -26.75 -34.1 -26.55 -34.25 Q-26.3 -34.15 -26.45 -33.95" fill="#000000" fill-rule="evenodd" stroke="none"/>
    <path d="M-26.85 11.4 Q-27.4 11.4 -27.55 11.05 -27.7 10.7 -27.35 10.3 -27.05 10.05 -26.65 10.45 -26.4 10.75 -26.55 10.95 L-26.85 11.4" fill="#000000" fill-rule="evenodd" stroke="none"/>
    <path d="M-27.2 -0.7 Q-26.25 -0.9 -26.95 0.05 -27.6 0.9 -27.9 -0.1 L-28.05 0.0 -28.25 -0.1 -27.95 -0.35 -27.9 -0.75 Q-27.8 -1.05 -27.6 -0.95 L-27.2 -0.7" fill="#000000" fill-rule="evenodd" stroke="none"/>
    <path d="M-27.1 3.15 Q-27.75 3.8 -28.4 3.35 L-28.7 2.95 -28.95 2.6 -28.8 2.45 -28.65 2.45 -28.55 2.5 -28.4 2.4 Q-27.8 1.75 -27.15 2.05 -26.4 2.45 -27.1 3.15" fill="#000000" fill-rule="evenodd" stroke="none"/>
    <path d="M-28.65 -3.0 Q-29.0 -3.45 -28.2 -3.75 L-27.0 -4.05 Q-26.7 -3.8 -27.05 -3.65 L-27.55 -3.5 -28.65 -3.0" fill="#000000" fill-rule="evenodd" stroke="none"/>
    <path d="M-27.15 -20.6 Q-27.4 -20.6 -27.4 -20.75 L-27.15 -20.75 -27.15 -20.6" fill="#000000" fill-rule="evenodd" stroke="none"/>
    <path d="M-27.15 32.35 L-27.5 32.6 -27.5 32.4 -27.5 32.15 -27.15 32.35" fill="#000000" fill-rule="evenodd" stroke="none"/>
    <path d="M-27.3 1.3 L-27.3 1.4 -27.45 1.4 -27.45 1.25 -27.3 1.3" fill="#000000" fill-rule="evenodd" stroke="none"/>
    <path d="M-29.25 -2.3 L-28.6 -2.65 -27.9 -2.8 Q-26.7 -2.05 -28.1 -1.55 -29.5 -1.05 -29.25 -2.3" fill="#000000" fill-rule="evenodd" stroke="none"/>
    <path d="M-27.9 27.35 Q-28.55 27.25 -28.05 27.0 -27.75 27.05 -27.9 27.35" fill="#000000" fill-rule="evenodd" stroke="none"/>
    <path d="M-28.5 8.95 L-28.65 8.6 Q-28.4 8.4 -28.3 8.7 -28.2 8.95 -28.5 8.95" fill="#000000" fill-rule="evenodd" stroke="none"/>
    <path d="M-28.3 -0.75 Q-28.25 -0.65 -28.35 -0.65 L-28.45 -0.65 -28.3 -0.75" fill="#000000" fill-rule="evenodd" stroke="none"/>
    <path d="M-29.6 7.4 L-29.25 7.0 Q-28.9 7.15 -29.15 7.45 L-29.6 7.4" fill="#000000" fill-rule="evenodd" stroke="none"/>
    <path d="M-29.2 -2.75 L-29.7 -2.75 -29.5 -3.05 -29.1 -3.05 Q-29.05 -2.95 -29.15 -2.9 L-29.2 -2.75" fill="#000000" fill-rule="evenodd" stroke="none"/>
    <path d="M-29.15 -3.7 L-29.3 -3.7 -29.25 -3.9 -29.15 -3.7" fill="#000000" fill-rule="evenodd" stroke="none"/>
    <path d="M-29.25 -18.4 L-29.4 -18.25 -29.4 -18.4 -29.25 -18.4" fill="#000000" fill-rule="evenodd" stroke="none"/>
    <path d="M-30.3 -9.25 L-30.3 -9.9 -30.0 -10.25 Q-29.15 -10.25 -29.35 -9.55 -29.55 -8.85 -30.3 -9.25" fill="#000000" fill-rule="evenodd" stroke="none"/>
    <path d="M-29.4 39.55 L-29.6 39.65 -29.65 39.45 -29.4 39.55" fill="#000000" fill-rule="evenodd" stroke="none"/>
    <path d="M-29.9 13.2 Q-29.85 13.55 -30.15 13.55 L-30.5 13.2 -30.2 12.9 Q-29.95 12.9 -29.9 13.2" fill="#000000" fill-rule="evenodd" stroke="none"/>
    <path d="M-30.05 14.05 Q-30.1 14.3 -30.3 14.15 L-30.2 14.0 -30.05 14.05" fill="#000000" fill-rule="evenodd" stroke="none"/>
    <path d="M-30.6 39.35 Q-31.3 39.4 -31.5 39.0 -31.7 38.6 -31.4 38.0 -30.65 37.45 -30.3 38.15 -29.95 38.9 -30.6 39.35" fill="#000000" fill-rule="evenodd" stroke="none"/>
    <path d="M-30.8 5.7 L-31.05 5.7 -30.8 5.55 -30.8 5.7" fill="#000000" fill-rule="evenodd" stroke="none"/>
    <path d="M-31.25 3.95 L-31.35 3.7 -31.2 3.55 Q-30.9 3.45 -30.9 3.75 -30.9 4.0 -31.25 3.95" fill="#000000" fill-rule="evenodd" stroke="none"/>
    <path d="M-31.1 15.05 L-31.35 14.8 -31.25 14.5 Q-31.0 14.5 -30.95 14.7 L-31.1 15.05" fill="#000000" fill-rule="evenodd" stroke="none"/>
    <path d="M-31.25 -2.85 Q-31.65 -2.75 -31.7 -2.95 L-31.7 -3.15 -31.55 -3.3 -31.25 -3.15 -31.25 -2.85" fill="#000000" fill-rule="evenodd" stroke="none"/>
    <path d="M-31.35 -8.8 Q-31.35 -8.1 -31.85 -7.45 -32.2 -7.05 -32.8 -7.05 -33.4 -7.0 -33.85 -7.3 -34.4 -7.65 -34.45 -8.35 L-34.25 -9.55 -33.3 -10.0 -32.65 -10.05 -32.1 -9.8 Q-31.35 -9.55 -31.35 -8.8" fill="#000000" fill-rule="evenodd" stroke="none"/>
    <path d="M-32.2 -0.2 Q-32.3 0.2 -32.55 0.4 L-33.2 0.45 Q-33.45 0.15 -33.3 -0.15 L-32.9 -0.55 Q-32.4 -0.7 -32.75 -0.8 L-32.3 -1.25 -31.75 -1.35 -31.45 -0.9 Q-31.45 -0.7 -31.8 -0.45 -32.0 -0.25 -32.2 -0.2" fill="#000000" fill-rule="evenodd" stroke="none"/>
    <path d="M-31.5 5.6 L-31.75 5.8 -31.7 5.7 -31.6 5.55 -31.5 5.6" fill="#000000" fill-rule="evenodd" stroke="none"/>
    <path d="M-31.5 7.65 L-31.8 7.7 -31.7 7.45 Q-31.45 7.35 -31.5 7.65" fill="#000000" fill-rule="evenodd" stroke="none"/>
    <path d="M-31.7 -1.55 Q-32.2 -1.4 -32.4 -1.7 -32.45 -2.15 -31.9 -2.05 -31.45 -1.95 -31.7 -1.55" fill="#000000" fill-rule="evenodd" stroke="none"/>
    <path d="M-32.0 14.4 L-32.3 14.15 Q-32.2 13.65 -31.9 13.95 -31.55 14.3 -32.0 14.4" fill="#000000" fill-rule="evenodd" stroke="none"/>
    <path d="M-32.05 -16.55 Q-32.55 -16.6 -32.2 -16.75 -31.85 -16.95 -32.05 -16.55" fill="#000000" fill-rule="evenodd" stroke="none"/>
    <path d="M-32.0 18.8 L-32.15 19.0 -32.2 18.85 -32.0 18.8" fill="#000000" fill-rule="evenodd" stroke="none"/>
    <path d="M-32.65 1.8 Q-32.65 1.7 -32.8 1.7 -32.95 1.15 -32.4 1.15 L-32.3 1.55 -32.65 1.8" fill="#000000" fill-rule="evenodd" stroke="none"/>
    <path d="M-32.55 4.75 L-32.9 4.75 -32.9 4.45 Q-32.55 4.4 -32.55 4.75" fill="#000000" fill-rule="evenodd" stroke="none"/>
    <path d="M-33.2 26.5 L-32.95 26.15 Q-32.75 26.25 -32.85 26.5 -33.0 26.7 -33.2 26.5" fill="#000000" fill-rule="evenodd" stroke="none"/>
    <path d="M-32.95 -34.1 L-33.15 -34.15 -33.2 -34.4 -32.95 -34.35 -32.95 -34.1" fill="#000000" fill-rule="evenodd" stroke="none"/>
    <path d="M-33.25 10.75 Q-33.3 10.9 -33.55 10.85 L-33.5 10.55 -33.25 10.75" fill="#000000" fill-rule="evenodd" stroke="none"/>
    <path d="M-33.75 22.8 Q-34.05 22.6 -33.9 22.2 -33.7 21.9 -33.4 22.05 -33.2 22.25 -33.3 22.55 -33.4 22.85 -33.75 22.8" fill="#000000" fill-rule="evenodd" stroke="none"/>
    <path d="M-33.7 -4.05 L-33.75 -3.85 -33.8 -3.95 -33.7 -4.05" fill="#000000" fill-rule="evenodd" stroke="none"/>
    <path d="M-33.85 -20.15 L-33.9 -20.05 -34.05 -20.1 -33.85 -20.15" fill="#000000" fill-rule="evenodd" stroke="none"/>
    <path d="M-34.05 9.55 L-34.35 9.5 -34.25 9.35 -34.05 9.35 -34.05 9.55" fill="#000000" fill-rule="evenodd" stroke="none"/>
    <path d="M-34.15 26.35 L-34.3 26.45 -34.3 26.35 -34.15 26.35" fill="#000000" fill-rule="evenodd" stroke="none"/>
    <path d="M-34.65 -33.45 L-34.8 -33.75 -34.5 -33.8 Q-34.25 -33.5 -34.65 -33.45" fill="#000000" fill-rule="evenodd" stroke="none"/>
    <path d="M-34.55 5.3 L-34.55 5.4 -34.7 5.25 -34.55 5.3" fill="#000000" fill-rule="evenodd" stroke="none"/>
    <path d="M-34.55 14.25 L-34.75 14.3 -34.7 14.1 Q-34.5 14.1 -34.55 14.25" fill="#000000" fill-rule="evenodd" stroke="none"/>
    <path d="M-35.65 8.8 L-35.7 8.95 -35.8 8.8 -35.65 8.8" fill="#000000" fill-rule="evenodd" stroke="none"/>
    <path d="M-36.0 -30.1 Q-36.15 -30.05 -36.15 -30.3 L-35.95 -30.35 -35.95 -30.2 -36.0 -30.1" fill="#000000" fill-rule="evenodd" stroke="none"/>
    <path d="M-37.3 -3.7 Q-37.05 -3.5 -37.35 -3.4 -37.65 -3.3 -37.6 -3.55 L-37.5 -3.7 -37.3 -3.7" fill="#000000" fill-rule="evenodd" stroke="none"/>
    <path d="M-37.55 20.9 L-37.9 20.6 -37.6 20.6 -37.55 20.9" fill="#000000" fill-rule="evenodd" stroke="none"/>
    <path d="M-37.7 -14.2 L-37.7 -14.05 -37.85 -14.05 -37.7 -14.2" fill="#000000" fill-rule="evenodd" stroke="none"/>
    <path d="M-37.9 5.3 L-38.0 5.2 -37.9 5.2 -37.9 5.3" fill="#000000" fill-rule="evenodd" stroke="none"/>
    <path d="M-38.1 30.7 L-38.35 30.45 -38.0 30.4 -38.1 30.7" fill="#000000" fill-rule="evenodd" stroke="none"/>
    <path d="M-38.15 -33.25 Q-38.3 -33.25 -38.25 -33.5 L-38.05 -33.5 -38.15 -33.25" fill="#000000" fill-rule="evenodd" stroke="none"/>
    <path d="M-38.6 -27.8 Q-38.15 -28.0 -38.1 -27.6 -38.05 -27.25 -38.45 -27.3 L-38.65 -27.5 -38.6 -27.8" fill="#000000" fill-rule="evenodd" stroke="none"/>
    <path d="M-41.0 11.55 Q-41.35 10.95 -41.15 10.3 -40.95 9.55 -40.2 9.75 -39.35 9.9 -39.85 11.0 -40.35 12.1 -41.0 11.55" fill="#000000" fill-rule="evenodd" stroke="none"/>
    <path d="M-39.85 30.3 L-40.0 30.45 -40.0 30.25 -39.85 30.3" fill="#000000" fill-rule="evenodd" stroke="none"/>
    <path d="M-39.95 13.1 L-40.0 13.2 -40.1 13.05 -39.95 13.1" fill="#000000" fill-rule="evenodd" stroke="none"/>
    <path d="M-40.65 -23.55 L-40.65 -23.4 -40.8 -23.5 -40.65 -23.55" fill="#000000" fill-rule="evenodd" stroke="none"/>
    <path d="M-41.55 -3.25 Q-41.3 -3.75 -41.0 -3.35 -40.7 -2.9 -41.15 -2.85 L-41.55 -3.25" fill="#000000" fill-rule="evenodd" stroke="none"/>
    <path d="M-41.0 -2.25 L-41.25 -2.15 -41.25 -2.3 -41.0 -2.25" fill="#000000" fill-rule="evenodd" stroke="none"/>
    <path d="M-41.65 12.1 L-41.65 12.25 -41.9 12.15 -41.65 12.1" fill="#000000" fill-rule="evenodd" stroke="none"/>
    <path d="M-41.8 10.75 L-41.85 10.9 -42.05 10.85 -41.95 10.75 -41.8 10.75" fill="#000000" fill-rule="evenodd" stroke="none"/>
    <path d="M-42.15 -0.7 L-42.5 -0.7 Q-43.15 -1.45 -42.2 -1.3 -41.3 -1.2 -42.15 -0.7" fill="#000000" fill-rule="evenodd" stroke="none"/>
    <path d="M-42.2 -25.5 L-42.4 -25.55 -42.35 -25.65 -42.3 -25.75 -42.2 -25.5" fill="#000000" fill-rule="evenodd" stroke="none"/>
    <path d="M-43.9 11.4 Q-44.05 10.75 -43.35 10.45 -42.7 10.05 -42.45 10.75 -42.2 11.4 -42.85 11.7 -43.5 12.0 -43.9 11.4" fill="#000000" fill-rule="evenodd" stroke="none"/>
    <path d="M-43.45 20.5 L-43.6 20.8 -43.75 20.7 -43.9 20.6 -43.7 20.4 -43.45 20.5" fill="#000000" fill-rule="evenodd" stroke="none"/>
    <path d="M-43.9 0.3 L-43.9 0.4 -44.1 0.4 Q-44.1 0.3 -43.9 0.3" fill="#000000" fill-rule="evenodd" stroke="none"/>
    <path d="M-45.15 -13.4 Q-45.4 -13.3 -45.45 -13.55 L-45.2 -13.8 Q-45.0 -13.55 -45.15 -13.4" fill="#000000" fill-rule="evenodd" stroke="none"/>
    <path d="M-45.65 1.55 L-45.85 1.75 -45.85 1.5 -45.65 1.55" fill="#000000" fill-rule="evenodd" stroke="none"/>
    <path d="M-45.9 18.45 Q-46.1 18.4 -45.95 18.15 L-45.7 18.05 -45.7 18.3 -45.9 18.45" fill="#000000" fill-rule="evenodd" stroke="none"/>
    <path d="M-45.85 4.15 L-46.05 4.1 -45.95 4.0 -45.85 4.15" fill="#000000" fill-rule="evenodd" stroke="none"/>
    <path d="M-46.2 -4.05 Q-46.4 -4.05 -46.4 -4.35 L-46.05 -4.3 Q-46.0 -4.1 -46.2 -4.05" fill="#000000" fill-rule="evenodd" stroke="none"/>
    <path d="M-46.7 4.1 L-46.8 4.25 -46.9 4.1 -46.7 4.1" fill="#000000" fill-rule="evenodd" stroke="none"/>
    <path d="M-46.9 22.15 L-47.0 22.25 -47.05 22.1 -46.9 22.15" fill="#000000" fill-rule="evenodd" stroke="none"/>
    <path d="M-48.55 2.45 Q-48.95 2.45 -48.95 2.0 -49.0 1.55 -48.65 1.55 -48.3 1.55 -48.2 1.95 -48.15 2.3 -48.55 2.45" fill="#000000" fill-rule="evenodd" stroke="none"/>
    <path d="M-49.6 -9.4 L-49.9 -9.35 -50.0 -9.6 -49.7 -9.7 Q-49.5 -9.6 -49.6 -9.4" fill="#000000" fill-rule="evenodd" stroke="none"/>
    <path d="M2.7 -13.2 L2.55 -13.3 2.65 -13.45 2.65 -13.35 2.85 -13.65 Q3.1 -14.0 3.5 -14.0 4.15 -13.9 4.25 -13.25 4.3 -12.4 3.5 -12.4 2.7 -12.35 2.7 -13.2" fill="#000000" fill-rule="evenodd" stroke="none"/>
    <path d="M-12.05 -17.85 L-10.95 -17.75 Q-9.9 -17.25 -10.2 -16.0 -10.45 -15.15 -12.05 -15.1 L-11.95 -14.7 -12.35 -14.6 -12.55 -14.9 Q-12.35 -15.15 -12.45 -15.35 L-12.75 -15.75 -13.0 -16.4 -12.85 -17.1 -12.05 -17.85" fill="#000000" fill-rule="evenodd" stroke="none"/>
    <path d="M-25.25 -4.15 L-24.4 -4.8 -24.05 -5.1 -23.6 -5.5 -23.35 -5.55 -23.15 -5.7 -23.3 -5.8 -23.4 -5.9 -23.0 -5.95 -22.5 -5.95 -22.15 -6.2 -21.8 -6.35 -21.05 -7.1 -20.15 -7.55 -20.2 -7.7 -20.0 -7.85 -19.65 -7.9 -20.0 -8.85 -19.85 -9.75 Q-19.65 -10.15 -19.8 -10.7 L-19.9 -11.65 -19.25 -12.2 Q-18.8 -12.3 -18.5 -12.0 L-18.3 -11.65 -18.15 -11.35 -17.4 -11.05 -16.7 -10.55 -16.35 -9.8 Q-16.25 -9.4 -15.55 -9.3 L-14.5 -9.1 Q-14.2 -8.3 -13.9 -8.3 L-13.45 -8.4 -13.0 -8.4 -12.35 -7.95 Q-12.1 -7.55 -12.15 -7.15 L-12.35 -6.75 -12.3 -6.4 Q-12.1 -6.3 -12.2 -6.05 -12.45 -5.95 -12.15 -5.75 L-11.75 -4.6 -11.35 -4.15 -10.75 -4.05 -10.75 -3.75 -10.8 -3.5 -10.1 -3.75 Q-9.9 -3.8 -9.75 -4.0 L-9.45 -3.9 -8.85 -4.3 -7.95 -4.45 -7.1 -4.3 -6.35 -4.0 Q-6.05 -3.95 -5.9 -3.75 -5.7 -3.5 -6.05 -3.3 L-6.45 -3.05 -6.55 -2.7 -6.75 -2.4 Q-7.3 -1.85 -8.5 -1.9 L-9.6 -1.8 Q-10.25 -1.65 -10.7 -1.8 -11.3 -2.05 -11.2 -2.55 L-10.8 -3.45 -11.4 -3.35 -11.55 -2.85 -11.65 -2.1 -11.95 -1.3 -12.05 -0.95 -12.65 -0.15 -12.7 0.2 -12.55 0.6 -12.1 1.05 -11.55 1.1 -11.3 1.55 -11.0 2.05 Q-10.65 3.1 -11.35 4.05 -12.0 4.85 -12.8 4.45 L-13.65 3.85 Q-13.95 3.25 -14.4 3.25 L-14.3 3.2 -14.7 2.65 Q-14.95 2.3 -14.8 2.0 L-14.2 1.65 Q-13.7 1.4 -14.1 1.2 L-15.15 2.0 Q-15.75 2.4 -16.4 2.4 L-17.6 2.95 -18.45 2.8 -18.8 2.75 -18.85 2.95 -19.05 2.75 -19.25 2.55 Q-19.75 2.7 -19.9 2.35 -19.0 0.45 -20.2 0.15 L-20.85 0.15 -21.5 0.35 -21.9 0.35 Q-22.2 0.45 -22.15 0.7 L-22.85 0.8 -23.5 0.9 Q-23.2 1.3 -23.65 1.5 L-24.4 1.45 -24.4 1.1 -24.6 0.9 -25.75 0.5 -26.65 0.45 Q-26.5 0.05 -26.15 0.05 L-26.5 -0.7 -26.55 -1.15 -26.85 -1.25 -26.75 -1.45 -26.55 -1.35 -26.55 -1.55 -26.65 -1.8 -26.5 -2.0 -26.45 -2.35 -26.75 -2.3 -26.95 -2.55 -26.65 -2.65 -26.4 -2.5 -26.2 -2.75 -26.05 -3.1 -25.45 -3.8 -25.95 -3.9 -25.65 -4.15 -25.25 -4.15 M-19.7 -7.15 L-19.75 -7.25 -19.85 -7.05 -19.7 -7.15" fill="#000000" fill-rule="evenodd" stroke="none"/>
    <path d="M-26.2 11.6 Q-25.75 11.6 -25.45 11.9 -25.2 12.25 -25.3 12.8 -25.45 13.2 -26.0 13.35 -26.6 13.45 -26.85 13.05 -27.15 12.4 -26.7 11.85 L-26.2 11.6" fill="#000000" fill-rule="evenodd" stroke="none"/>
    <path d="M-30.5 -25.95 Q-30.45 -25.55 -30.8 -25.35 L-31.15 -25.25 -31.25 -25.0 Q-31.15 -24.8 -31.6 -24.6 L-32.4 -24.7 -32.7 -25.05 -32.65 -25.05 -32.5 -25.25 -32.35 -25.55 -32.8 -25.8 -33.4 -26.0 Q-33.9 -26.2 -33.9 -27.05 -33.95 -27.9 -32.95 -28.05 -32.0 -28.15 -31.55 -27.5 L-31.35 -27.05 -31.2 -26.75 -30.9 -26.5 Q-30.55 -26.3 -30.5 -25.95" fill="#000000" fill-rule="evenodd" stroke="none"/>
    <path d="M-37.25 -32.9 Q-37.15 -32.6 -37.05 -32.75 L-37.7 -32.4 -37.75 -32.55 -37.75 -32.4 -37.9 -32.5 -37.85 -32.6 -38.0 -32.55 -37.9 -32.6 -38.0 -32.75 -38.1 -32.6 -38.05 -32.5 Q-38.35 -32.65 -38.0 -32.9 -37.65 -33.15 -37.65 -32.75 L-37.3 -33.0 Q-37.05 -33.05 -37.1 -32.85 L-37.25 -32.9 M-37.65 -32.6 L-37.55 -32.6 Q-37.45 -32.55 -37.45 -32.8 L-37.6 -32.75 -37.65 -32.6" fill="#000000" fill-rule="evenodd" stroke="none"/>
    <path d="M-47.95 -1.75 L-48.1 -1.4 -48.45 -1.5 -48.3 -1.8 -47.95 -1.75" fill="#000000" fill-rule="evenodd" stroke="none"/>
    <path d="M7.8 34.1 Q7.7 33.75 7.9 33.5 8.25 33.45 8.4 33.9 8.5 34.25 8.25 34.3 7.9 34.45 7.8 34.1" fill="#000000" fill-rule="evenodd" stroke="none"/>
    <path d="M2.0 -2.3 L1.3 -1.8 0.5 -1.7 Q-0.4 -1.9 -0.35 -3.1 -0.3 -3.65 0.3 -3.9 L1.35 -3.95 1.95 -3.2 2.0 -2.3" fill="#000000" fill-rule="evenodd" stroke="none"/>
    <path d="M-3.55 23.5 L-4.1 22.85 -4.35 21.95 -4.45 21.45 Q-4.3 21.45 -4.3 21.25 L-4.3 20.85 -4.0 20.3 -3.25 20.0 Q-2.8 19.95 -2.6 20.3 -2.15 20.9 -2.2 21.85 -2.2 22.85 -2.7 23.4 L-3.55 23.5" fill="#000000" fill-rule="evenodd" stroke="none"/>
    <path d="M-3.95 0.9 L-3.9 0.8 -3.8 0.8 -3.75 1.1 Q-3.55 1.6 -4.0 2.2 L-4.75 2.95 Q-5.35 3.35 -5.75 3.25 -6.4 3.15 -6.05 2.4 L-5.5 1.45 Q-5.25 0.7 -4.85 0.45 -4.1 0.4 -3.95 0.9" fill="#000000" fill-rule="evenodd" stroke="none"/>
    <path d="M-6.0 -7.3 Q-6.25 -7.75 -5.8 -8.0 L-4.95 -8.1 Q-4.35 -8.05 -4.1 -7.65 -3.9 -7.2 -4.2 -6.65 -4.65 -6.3 -5.3 -6.65 L-5.6 -7.05 -6.0 -7.3" fill="#000000" fill-rule="evenodd" stroke="none"/>
    <path d="M-9.55 -17.0 L-9.05 -17.05 -8.5 -16.95 Q-8.2 -16.55 -8.5 -16.05 L-8.9 -15.7 -9.4 -15.7 Q-9.8 -15.9 -9.8 -16.3 -9.6 -16.7 -9.55 -17.0" fill="#000000" fill-rule="evenodd" stroke="none"/>
    <path d="M-7.85 33.35 Q-7.8 34.75 -8.7 35.25 -10.1 35.15 -10.3 33.3 -10.5 31.4 -8.85 31.5 -7.95 31.9 -7.85 33.35" fill="#000000" fill-rule="evenodd" stroke="none"/>
    <path d="M-9.4 8.9 L-10.95 9.05 -11.5 8.2 Q-11.7 7.75 -11.5 7.2 L-11.1 6.35 -10.45 5.9 -9.8 6.05 -9.15 6.25 Q-8.6 6.8 -8.65 7.55 -8.7 8.4 -9.4 8.9" fill="#000000" fill-rule="evenodd" stroke="none"/>
    <path d="M-16.05 -14.05 L-16.4 -14.15 -16.75 -14.3 Q-17.6 -14.1 -17.95 -14.3 -18.4 -14.55 -18.25 -15.15 L-17.65 -15.85 -16.6 -15.85 -15.65 -15.55 Q-15.4 -15.25 -15.6 -14.75 L-16.05 -14.05" fill="#000000" fill-rule="evenodd" stroke="none"/>
    <path d="M-29.15 -23.45 Q-29.05 -25.05 -27.8 -24.3 -26.55 -23.5 -27.55 -22.75 L-28.65 -22.65 -29.0 -23.0 -29.15 -23.45" fill="#000000" fill-rule="evenodd" stroke="none"/>
    <path d="M-29.15 26.6 L-29.3 26.65 -29.4 26.5 -29.15 26.6" fill="#000000" fill-rule="evenodd" stroke="none"/>
    <path d="M-31.35 -1.55 L-30.8 -1.5 -30.3 -1.8 Q-29.55 -2.1 -29.25 -1.5 L-29.0 -1.0 -28.75 -0.4 Q-28.8 0.3 -29.25 0.9 -29.95 1.0 -30.35 0.7 L-31.05 -0.2 -31.1 -0.55 Q-31.05 -0.8 -31.15 -0.9 L-31.4 -1.15 -31.35 -1.55" fill="#000000" fill-rule="evenodd" stroke="none"/>
    <path d="M-35.0 2.05 Q-35.0 1.2 -34.55 0.9 -33.7 0.35 -33.2 1.3 -33.4 1.95 -33.95 2.3 -34.5 2.6 -35.0 2.05" fill="#000000" fill-rule="evenodd" stroke="none"/>
    <path d="M-43.9 32.55 L-43.8 31.8 -43.35 31.55 -42.85 31.65 Q-42.45 32.0 -42.75 32.55 -42.95 33.05 -43.55 32.8 L-43.9 32.55" fill="#000000" fill-rule="evenodd" stroke="none"/>
    <path d="M-43.65 17.3 Q-42.95 17.6 -43.25 18.35 -43.5 19.0 -44.3 18.95 -45.1 18.85 -44.75 18.0 -44.4 17.1 -43.65 17.3" fill="#000000" fill-rule="evenodd" stroke="none"/>
  </g>
</svg>
