<?xml version="1.0" encoding="UTF-8" standalone="no"?>
<svg xmlns:xlink="http://www.w3.org/1999/xlink" height="100.0px" width="100.0px" xmlns="http://www.w3.org/2000/svg">
  <g transform="matrix(1.0, 0.0, 0.0, 1.0, 50.0, 50.0)">
    <path d="M-0.15 -44.45 Q-18.7 -44.45 -31.7 -31.4 -44.8 -18.5 -44.8 -0.1 -44.8 18.25 -31.7 31.2 -18.7 44.2 -0.15 44.2 18.35 44.2 31.45 31.2 44.45 18.25 44.45 -0.1 44.45 -18.5 31.45 -31.4 18.35 -44.45 -0.15 -44.45 M-35.4 -35.4 Q-20.7 -50.0 0.05 -50.0 20.8 -50.0 35.4 -35.4 50.0 -20.7 50.0 0.05 50.0 20.8 35.4 35.4 20.8 50.0 0.05 50.0 -20.7 50.0 -35.4 35.4 -50.0 20.8 -50.0 0.05 -50.0 -20.7 -35.4 -35.4" fill="#000000" fill-rule="evenodd" stroke="none"/>
    <path d="M-31.6 -25.6 Q-28.25 -29.75 -25.55 -31.05 L-6.45 -9.95 Q-9.0 -8.3 -10.5 -5.65 -12.0 -2.85 -12.0 0.25 L-12.0 0.35 -40.15 -5.05 Q-40.15 -6.6 -39.6 -9.1 -38.65 -14.0 -36.3 -18.6 -34.45 -22.2 -31.6 -25.6" fill="#000000" fill-rule="evenodd" stroke="none"/>
    <path d="M15.45 37.8 Q13.85 38.75 11.15 39.75 5.7 41.6 -0.15 41.5 -3.55 41.5 -8.15 40.5 -12.95 39.45 -14.4 38.25 L-5.6 10.9 Q-2.95 12.2 -0.15 12.2 3.05 12.2 5.95 10.6 L15.45 37.8" fill="#000000" fill-rule="evenodd" stroke="none"/>
    <path d="M26.0 -30.55 L29.25 -27.8 Q33.05 -24.2 35.15 -20.1 37.7 -15.4 38.9 -10.75 40.05 -6.55 39.7 -4.15 L11.85 -0.2 Q11.75 -3.3 10.05 -6.0 8.5 -8.65 5.85 -10.25 L26.0 -30.55" fill="#000000" fill-rule="evenodd" stroke="none"/>
    <path d="M-0.15 8.7 Q-3.75 8.7 -6.2 6.15 -8.75 3.6 -8.75 0.0 -8.75 -3.55 -6.2 -6.1 -3.65 -8.65 -0.15 -8.65 3.5 -8.65 6.05 -6.1 8.6 -3.55 8.6 0.0 8.6 3.6 6.05 6.15 3.5 8.7 -0.15 8.7" fill="#000000" fill-rule="evenodd" stroke="none"/>
  </g>
</svg>
