<?xml version="1.0" encoding="UTF-8" standalone="no"?>
<svg xmlns:xlink="http://www.w3.org/1999/xlink" height="100.0px" width="100.0px" xmlns="http://www.w3.org/2000/svg">
  <g transform="matrix(1.0, 0.0, 0.0, 1.0, 50.0, 50.0)">
    <path d="M-24.0 28.95 Q-28.85 31.9 -31.65 34.8 -24.0 41.7 -13.75 44.85 -19.9 39.75 -24.0 28.95 M-0.05 22.8 L-0.05 46.05 Q5.0 44.85 9.4 39.65 13.85 34.35 16.75 25.95 8.65 22.8 -0.05 22.8 M19.45 27.25 Q14.7 40.95 6.1 46.55 20.3 44.6 31.0 35.15 26.45 30.4 19.45 27.25 M-0.05 19.9 Q9.2 20.05 17.5 23.25 20.55 13.1 20.85 1.6 L-0.05 1.6 -0.05 19.9 M-13.2 41.3 Q-8.25 46.45 -2.95 46.65 L-2.95 22.95 Q-13.1 23.45 -21.4 27.55 -18.0 36.2 -13.2 41.3 M6.6 -46.65 Q15.15 -40.7 19.7 -26.6 26.35 -29.7 31.3 -35.1 20.65 -44.6 6.6 -46.65 M-2.95 1.6 L-26.05 1.6 Q-25.95 14.0 -22.3 24.85 -13.45 20.55 -2.95 20.05 L-2.95 1.6 M-2.95 -47.05 Q-8.4 -46.85 -13.45 -41.45 -18.5 -36.1 -21.75 -27.1 -13.25 -22.8 -2.95 -22.25 L-2.95 -47.05 M-0.05 -19.15 L-0.05 -1.25 20.85 -1.25 Q20.75 -12.75 17.75 -22.7 9.2 -19.25 -0.05 -19.15 M-0.05 -22.05 Q8.7 -22.15 17.0 -25.5 14.15 -34.15 9.55 -39.75 5.1 -45.25 -0.05 -46.55 L-0.05 -22.05 M-22.6 -24.3 Q-26.05 -13.65 -26.15 -1.25 L-2.95 -1.25 -2.95 -19.35 Q-13.85 -19.9 -22.6 -24.3 M-28.95 1.6 L-47.1 1.6 Q-46.75 10.65 -43.3 18.75 -39.85 26.7 -33.75 32.85 -30.35 29.5 -25.0 26.2 -28.65 15.05 -28.95 1.6 M-32.1 -34.55 Q-29.3 -31.55 -24.35 -28.5 -20.65 -39.0 -14.1 -45.0 -24.55 -41.7 -32.1 -34.55 M-25.3 -25.8 Q-30.4 -28.65 -34.25 -32.6 -40.1 -26.35 -43.45 -18.4 -46.9 -10.2 -47.2 -1.25 L-29.0 -1.25 Q-28.75 -14.6 -25.3 -25.8 M47.05 1.6 L23.65 1.6 Q23.55 13.2 20.3 24.35 28.1 28.0 33.25 33.4 39.5 27.15 43.0 19.05 46.65 10.75 47.05 1.6 M47.05 -1.25 Q46.75 -10.4 43.2 -18.8 39.65 -26.9 33.5 -33.15 28.3 -27.35 20.55 -23.75 23.65 -12.85 23.75 -1.25 L47.05 -1.25 M35.4 -35.4 Q50.0 -20.85 50.0 -0.05 50.0 20.65 35.4 35.35 20.75 50.0 -0.05 50.0 -20.35 50.0 -34.8 35.9 -49.25 21.85 -50.0 1.6 L-50.0 -1.25 Q-49.5 -20.85 -35.9 -34.9 -22.3 -48.9 -2.75 -49.9 L-0.05 -50.0 Q20.75 -50.0 35.4 -35.4" fill="#000000" fill-rule="evenodd" stroke="none"/>
  </g>
</svg>
