<?xml version="1.0" encoding="UTF-8" standalone="no"?>
<svg xmlns:xlink="http://www.w3.org/1999/xlink" height="80.3px" width="100.0px" xmlns="http://www.w3.org/2000/svg">
  <g transform="matrix(1.0, 0.0, 0.0, 1.0, 50.0, 40.15)">
    <path d="M0.05 -7.45 Q3.2 -7.45 5.35 -5.2 7.6 -3.0 7.6 0.1 7.6 3.25 5.35 5.5 3.2 7.7 0.05 7.7 -3.1 7.7 -5.3 5.5 -7.55 3.25 -7.55 0.1 -7.55 -3.05 -5.3 -5.2 -3.1 -7.45 0.05 -7.45" fill="#000000" fill-rule="evenodd" stroke="none"/>
    <path d="M-14.75 -7.6 Q-16.6 -4.0 -16.6 0.1 -16.6 4.25 -14.7 7.85 -12.85 11.4 -9.55 13.7 L-12.8 17.6 Q-16.95 14.6 -19.25 10.1 -21.7 5.4 -21.7 0.1 -21.7 -5.15 -19.3 -9.75 -17.1 -14.2 -13.0 -17.25 L-9.7 -13.45 Q-12.95 -11.05 -14.75 -7.6" fill="#000000" fill-rule="evenodd" stroke="none"/>
    <path d="M-31.4 -38.85 L-28.05 -34.95 -31.75 -31.7 Q-38.0 -25.5 -41.45 -17.4 -45.0 -9.05 -45.0 0.1 -45.0 9.25 -41.45 17.6 -38.0 25.7 -31.75 31.9 -30.0 33.75 -27.45 35.65 L-30.7 39.6 Q-39.7 32.6 -44.75 22.45 -50.0 11.95 -50.0 0.1 -50.0 -11.5 -44.9 -21.8 -40.05 -31.8 -31.4 -38.85" fill="#000000" fill-rule="evenodd" stroke="none"/>
    <path d="M-30.85 0.1 Q-30.75 7.55 -27.45 14.1 -24.25 20.4 -18.55 24.7 L-21.75 28.6 Q-28.3 23.6 -32.0 16.3 -35.85 8.7 -35.85 0.1 -35.85 -8.3 -32.15 -15.8 -28.55 -23.05 -22.25 -28.05 L-18.9 -24.2 Q-24.45 -19.9 -27.55 -13.65 -30.75 -7.2 -30.85 0.1" fill="#000000" fill-rule="evenodd" stroke="none"/>
    <path d="M11.65 -18.2 Q16.3 -15.25 18.95 -10.5 21.75 -5.6 21.75 0.1 21.75 5.8 18.95 10.8 16.3 15.55 11.6 18.45 L8.3 14.55 Q12.15 12.4 14.35 8.65 16.65 4.7 16.65 0.1 16.65 -4.35 14.45 -8.3 12.2 -12.05 8.45 -14.25 L11.65 -18.2" fill="#000000" fill-rule="evenodd" stroke="none"/>
    <path d="M31.8 16.75 Q27.8 24.4 20.8 29.3 L17.5 25.45 Q23.65 21.25 27.2 14.6 30.8 7.85 30.9 0.1 30.8 -7.65 27.2 -14.45 23.6 -21.05 17.45 -25.25 L20.65 -29.2 Q27.75 -24.25 31.75 -16.65 35.9 -8.8 35.9 0.1 35.9 9.0 31.8 16.75" fill="#000000" fill-rule="evenodd" stroke="none"/>
    <path d="M26.45 -36.25 L29.65 -40.15 Q39.1 -33.25 44.5 -22.8 50.0 -12.1 50.0 0.1 50.0 12.15 44.55 22.85 39.35 33.15 30.05 40.15 L26.75 36.3 31.8 31.9 Q38.05 25.7 41.5 17.6 45.05 9.25 45.05 0.1 45.05 -9.05 41.5 -17.4 38.05 -25.5 31.8 -31.7 L26.45 -36.25" fill="#000000" fill-rule="evenodd" stroke="none"/>
  </g>
</svg>
