<?xml version="1.0" encoding="UTF-8" standalone="no"?>
<svg xmlns:xlink="http://www.w3.org/1999/xlink" height="14.8px" width="100.05px" xmlns="http://www.w3.org/2000/svg">
  <g transform="matrix(1.0, 0.0, 0.0, 1.0, 50.0, 7.4)">
    <path d="M-46.25 -1.2 Q-48.85 -0.1 -49.45 0.55 L-49.65 -0.15 -48.75 -0.7 -46.4 -1.85 Q-46.0 -1.45 -46.25 -1.2" fill="#050505" fill-rule="evenodd" stroke="none"/>
    <path d="M-46.25 -1.15 L-46.25 -1.2 -45.65 -0.85 -45.55 -0.65 -49.4 2.2 -49.85 1.9 -50.0 1.65 -46.25 -1.15" fill="#050505" fill-rule="evenodd" stroke="none"/>
    <path d="M-46.0 -2.55 L-45.7 -2.7 -45.5 -2.8 -45.3 -1.95 Q-45.0 -1.05 -44.5 -0.8 -43.95 -0.55 -43.35 0.35 L-42.9 1.2 -44.1 0.1 -44.7 -0.25 Q-46.15 -1.15 -46.2 -1.95 L-46.0 -2.55" fill="#050505" fill-rule="evenodd" stroke="none"/>
    <path d="M-45.3 -2.9 L-44.9 -3.35 Q-44.55 -3.7 -44.65 -3.3 -44.75 -3.0 -43.9 -2.2 -43.0 -1.4 -43.05 -1.15 -43.05 -0.9 -43.45 -0.75 L-43.85 -0.65 Q-44.8 -0.9 -45.15 -1.9 L-45.3 -2.9" fill="#050505" fill-rule="evenodd" stroke="none"/>
    <path d="M-44.85 -6.7 Q-44.65 -5.15 -43.25 -3.7 L-41.7 -2.15 Q-41.6 -1.75 -42.15 -1.55 L-42.75 -1.45 Q-44.45 -2.1 -44.8 -4.5 L-44.85 -6.7" fill="#050505" fill-rule="evenodd" stroke="none"/>
    <path d="M-29.4 -1.6 L-35.7 -3.4 -38.65 -3.9 Q-40.9 -4.05 -42.25 -3.15 L-42.65 -3.25 Q-43.0 -3.45 -42.85 -3.75 L-42.3 -4.1 -40.5 -4.6 Q-37.3 -5.05 -33.05 -3.45 -28.75 -1.8 -25.6 -1.4 L-23.25 -1.3 -23.1 -1.0 Q-23.05 -0.65 -23.5 -0.35 -24.0 -0.05 -29.4 -1.6" fill="#050505" fill-rule="evenodd" stroke="none"/>
    <path d="M-27.2 -4.15 Q-25.35 -3.45 -23.8 -2.5 -22.45 -1.65 -22.65 -1.5 L-23.4 -1.35 -23.85 -1.45 Q-27.95 -4.25 -31.75 -4.5 L-33.95 -4.35 -34.75 -4.15 -36.1 -4.55 Q-32.75 -6.3 -27.2 -4.15" fill="#050505" fill-rule="evenodd" stroke="none"/>
    <path d="M-37.7 -3.7 L-36.35 -3.4 -38.75 -2.6 Q-40.95 -1.95 -41.35 -2.05 L-41.75 -2.55 -41.8 -2.9 -38.9 -3.25 -37.7 -3.7" fill="#050505" fill-rule="evenodd" stroke="none"/>
    <path d="M-22.6 0.45 Q-23.25 0.45 -23.35 0.1 L-23.35 -0.2 Q-21.55 -1.4 -21.8 -3.55 L-22.15 -4.9 -22.4 -5.45 Q-21.0 -3.9 -21.35 -1.65 -21.45 -0.75 -21.85 -0.15 -22.25 0.45 -22.6 0.45" fill="#050505" fill-rule="evenodd" stroke="none"/>
    <path d="M-22.15 0.7 L-22.25 0.45 Q-21.6 0.05 -21.3 -0.95 L-21.2 -1.9 -20.75 -2.0 Q-20.25 -2.05 -20.1 -1.7 -19.85 -1.2 -20.25 -0.25 -20.6 0.8 -21.3 0.9 L-22.15 0.7" fill="#050505" fill-rule="evenodd" stroke="none"/>
    <path d="M-19.95 -1.6 Q-19.15 -1.75 -18.8 -1.35 L-18.6 -0.95 Q-18.8 0.55 -20.7 1.55 L-22.55 2.25 Q-20.75 1.45 -20.2 -0.15 L-19.95 -1.6" fill="#050505" fill-rule="evenodd" stroke="none"/>
    <path d="M-3.0 0.5 Q-0.5 1.7 0.5 2.35 L1.05 2.7 1.1 2.95 Q1.05 3.25 0.6 3.25 L-2.4 1.75 Q-5.3 0.2 -7.2 0.05 L-9.2 -0.1 -13.4 0.15 -17.2 0.45 -18.8 0.3 -18.8 -0.25 -18.65 -0.45 -17.3 -0.4 -14.1 -0.65 Q-7.4 -1.65 -3.0 0.5" fill="#050505" fill-rule="evenodd" stroke="none"/>
    <path d="M-6.35 0.95 L-2.9 1.75 0.7 3.45 Q0.95 3.75 0.65 3.95 L0.35 4.1 -2.95 2.85 -5.8 2.05 Q-9.2 1.2 -12.05 1.25 L-17.05 0.9 -18.6 0.5 -14.15 0.35 -13.5 0.35 -11.3 0.25 -6.35 0.95" fill="#050505" fill-rule="evenodd" stroke="none"/>
    <path d="M0.15 -0.1 Q2.65 1.35 2.55 3.35 L2.15 4.6 1.6 5.05 Q1.05 5.05 0.85 4.8 0.6 4.4 1.2 3.2 1.75 2.05 1.0 0.85 L0.15 -0.1" fill="#050505" fill-rule="evenodd" stroke="none"/>
    <path d="M2.55 2.7 L2.95 2.6 3.55 2.8 Q3.85 2.95 3.6 4.15 3.35 5.35 2.8 5.45 L2.0 5.35 1.8 5.15 Q2.6 4.55 2.65 3.6 L2.55 2.7" fill="#050505" fill-rule="evenodd" stroke="none"/>
    <path d="M3.25 6.55 L1.55 7.4 Q3.1 6.45 3.6 4.7 L3.8 3.1 Q4.6 3.0 4.8 3.4 L4.85 3.8 Q4.85 5.4 3.25 6.55" fill="#050505" fill-rule="evenodd" stroke="none"/>
    <path d="M20.05 0.3 Q15.2 2.5 14.2 3.05 L11.65 4.0 Q8.45 4.95 5.2 4.9 L5.05 4.5 Q4.9 4.05 5.2 3.9 L8.1 3.75 Q11.6 3.35 14.5 1.9 19.05 -0.4 24.3 -2.65 L24.6 -2.4 Q24.75 -2.15 24.5 -1.85 L20.05 0.3" fill="#050505" fill-rule="evenodd" stroke="none"/>
    <path d="M19.35 2.7 Q18.4 3.6 16.3 4.45 12.8 5.95 8.6 5.8 L6.75 5.8 4.85 5.7 4.65 5.3 Q4.5 5.05 4.75 4.9 L7.3 5.15 12.95 4.6 Q15.4 4.05 18.55 1.8 L22.6 -0.9 23.2 -1.0 Q23.8 -1.0 23.65 -0.55 L21.6 1.2 Q19.55 2.5 19.35 2.7" fill="#050505" fill-rule="evenodd" stroke="none"/>
    <path d="M25.35 -3.05 L26.05 -2.6 Q26.6 -1.95 25.95 -1.2 25.35 -0.45 25.9 1.05 L26.55 2.45 Q24.35 0.35 24.65 -1.55 24.7 -2.15 25.05 -2.65 L25.35 -3.05" fill="#050505" fill-rule="evenodd" stroke="none"/>
    <path d="M25.75 -3.35 L25.9 -3.65 26.5 -3.75 27.15 -3.1 27.55 -2.15 Q27.7 -1.7 27.0 -1.35 26.25 -1.0 26.45 -1.65 26.6 -2.2 26.2 -2.8 L25.75 -3.35" fill="#050505" fill-rule="evenodd" stroke="none"/>
    <path d="M29.55 -2.4 Q28.65 -3.45 28.5 -5.5 L28.5 -7.4 Q28.7 -5.55 29.75 -4.4 L30.4 -3.7 30.75 -3.1 Q30.75 -2.5 30.15 -2.35 L29.55 -2.4" fill="#050505" fill-rule="evenodd" stroke="none"/>
    <path d="M26.75 -3.8 L27.15 -4.25 Q27.65 -4.5 28.05 -4.25 28.5 -4.05 28.8 -3.15 L29.0 -2.3 Q28.75 -1.8 28.25 -1.8 L27.8 -1.85 Q27.8 -2.65 27.25 -3.3 L26.75 -3.8" fill="#050505" fill-rule="evenodd" stroke="none"/>
    <path d="M44.6 -0.25 Q40.15 -1.4 37.6 -2.6 35.3 -3.7 32.85 -3.85 L30.8 -3.75 Q30.8 -3.55 30.35 -4.0 29.95 -4.4 30.2 -4.65 L30.85 -4.75 32.75 -4.8 Q35.95 -4.6 38.9 -3.05 41.9 -1.45 45.85 -0.75 L49.75 -0.3 50.0 0.05 Q50.15 0.5 49.55 0.65 48.85 0.9 44.6 -0.25" fill="#050505" fill-rule="evenodd" stroke="none"/>
    <path d="M43.35 -2.55 L41.5 -3.2 38.5 -3.8 Q37.35 -3.8 36.95 -4.25 36.55 -4.65 37.75 -4.6 L39.65 -4.45 Q41.85 -4.1 43.65 -3.2 45.55 -2.25 47.6 -1.7 49.25 -1.25 49.6 -1.35 L49.95 -1.1 Q49.95 -0.85 49.4 -0.85 L47.9 -0.95 Q45.9 -1.3 43.35 -2.55" fill="#050505" fill-rule="evenodd" stroke="none"/>
    <path d="M31.1 -3.45 L32.25 -3.4 34.1 -3.55 Q34.7 -3.65 35.1 -3.2 L35.35 -2.75 33.9 -2.55 Q32.25 -2.35 31.3 -2.55 L31.15 -2.65 Q31.0 -2.9 31.1 -3.45" fill="#050505" fill-rule="evenodd" stroke="none"/>
  </g>
</svg>
