<?xml version="1.0" encoding="UTF-8" standalone="no"?>
<svg xmlns:xlink="http://www.w3.org/1999/xlink" height="96.3px" width="99.95px" xmlns="http://www.w3.org/2000/svg">
  <g transform="matrix(1.0, 0.0, 0.0, 1.0, 49.95, 48.15)">
    <path d="M-11.7 -16.45 Q-18.35 -18.45 -19.5 -17.3 -20.95 -15.75 -20.0 -11.1 -19.15 -6.35 -16.7 -6.35 -9.2 -6.35 -8.5 -6.5 -3.05 -7.8 -5.2 -14.2 L-11.7 -16.45 M2.4 4.95 Q2.4 3.05 0.9 0.65 L-0.65 -1.4 -3.05 5.25 -0.3 6.25 Q2.4 6.85 2.4 4.95 M19.5 -16.95 Q18.75 -17.75 12.5 -16.35 L6.35 -14.8 Q4.1 -7.1 11.2 -5.55 17.6 -4.2 20.7 -7.2 22.6 -9.1 21.65 -12.75 20.9 -15.6 19.5 -16.95 M-41.35 14.15 Q-45.25 18.9 -46.7 17.3 -48.6 15.5 -49.55 13.45 -50.85 10.65 -48.15 10.65 -46.25 10.65 -46.45 6.6 -46.7 2.45 -44.1 2.45 -41.5 2.55 -41.0 3.85 -39.95 6.85 -37.0 9.8 L0.15 25.25 38.7 9.2 Q38.8 7.5 39.2 5.75 40.25 2.2 42.3 2.2 44.65 2.2 45.25 3.95 45.7 5.05 45.7 8.6 45.7 10.35 48.7 12.5 51.05 14.15 49.15 16.05 46.75 18.55 44.75 17.65 42.95 16.9 42.95 14.4 42.95 12.5 6.65 27.95 L25.75 35.9 28.6 33.8 Q31.8 32.1 33.25 33.55 34.9 35.2 34.1 36.85 33.7 37.9 31.1 40.45 29.9 41.7 30.5 45.4 31.0 48.15 28.3 48.15 24.8 48.15 24.0 46.15 23.2 44.35 25.05 42.55 26.35 41.35 0.3 30.7 L-24.05 41.4 Q-23.45 47.55 -25.6 47.55 -28.3 47.55 -30.35 46.75 -33.2 45.75 -31.4 43.85 -30.0 42.45 -33.05 39.8 -36.05 37.0 -34.25 35.2 -32.45 33.4 -31.15 34.0 -28.2 35.35 -24.05 35.35 L-6.35 27.95 Q-17.05 23.55 -30.3 18.45 L-41.35 14.15 M-26.15 -34.4 Q-22.65 -40.05 -18.6 -44.95 -9.3 -48.9 5.25 -47.95 12.7 -47.45 19.75 -46.15 21.6 -46.15 26.7 -37.5 31.8 -28.8 31.8 -25.35 31.8 -23.95 28.85 -18.95 25.9 -14.05 25.9 -6.6 25.9 1.5 22.35 3.25 17.7 3.85 15.2 4.65 12.15 5.6 11.45 10.4 11.05 12.85 11.3 15.0 L-11.0 15.0 Q-10.65 13.6 -10.65 11.95 -10.65 8.6 -12.2 7.05 -13.7 5.6 -19.3 3.15 L-24.65 1.0 Q-24.65 -2.95 -25.25 -7.55 -26.55 -16.7 -29.85 -20.0 -33.05 -23.2 -26.15 -34.4" fill="#000000" fill-rule="evenodd" stroke="none"/>
  </g>
</svg>
