<?xml version="1.0" encoding="UTF-8" standalone="no"?>
<svg xmlns:xlink="http://www.w3.org/1999/xlink" height="100.0px" width="73.45px" xmlns="http://www.w3.org/2000/svg">
  <g transform="matrix(1.0, 0.0, 0.0, 1.0, 36.7, 50.0)">
    <path d="M-15.2 -11.3 Q-19.8 -11.3 -21.35 -8.25 -22.7 -7.6 -23.15 -5.45 L-23.4 -1.1 Q-23.4 9.1 -15.2 9.1 -10.7 9.1 -8.35 6.2 -6.1 3.3 -6.1 -2.1 -6.1 -11.3 -15.2 -11.3 M15.4 28.5 L15.45 27.85 Q15.75 27.15 16.35 26.45 L20.45 27.5 17.35 37.7 11.3 42.75 Q9.4 46.35 6.2 47.9 5.45 48.65 3.55 49.35 L0.05 50.0 Q-8.35 50.0 -11.15 42.75 L-17.3 37.7 -20.35 27.5 -16.3 26.45 Q-16.3 27.5 -15.2 28.5 L-12.7 33.2 Q-11.5 34.9 -10.15 35.65 -8.7 37.1 -6.2 37.45 L0.05 37.7 5.9 37.45 Q8.9 37.0 10.25 35.65 11.7 35.0 12.85 33.2 L15.4 28.5 M6.2 17.3 Q6.2 14.25 4.1 13.25 L2.1 10.2 Q0.5 8.1 0.05 7.1 -2.05 11.25 -4.0 13.25 -4.75 13.95 -5.45 15.3 -6.1 16.6 -6.1 17.3 -6.1 19.3 -5.0 19.3 -4.0 20.4 -1.95 20.4 L-0.95 20.3 0.05 19.3 Q1.05 20.4 3.1 20.4 6.2 20.4 6.2 17.3 M24.6 -2.1 Q24.6 -4.9 24.3 -5.95 23.95 -7.6 22.5 -8.25 20.95 -11.3 16.35 -11.3 11.85 -11.3 9.5 -8.5 7.15 -5.8 7.15 -1.1 7.15 3.6 9.5 6.3 11.85 9.1 16.35 9.1 20.25 9.1 22.4 6.2 24.6 3.25 24.6 -2.1 M14.85 -47.75 Q21.15 -45.5 26.55 -40.9 36.75 -33.5 36.75 -18.45 36.75 -4.8 29.65 5.05 29.65 7.1 28.65 9.1 L27.55 17.3 13.3 24.45 11.3 30.6 6.45 31.1 0.05 31.55 -6.1 31.55 Q-8.1 30.6 -10.15 30.6 L-13.2 24.45 -27.5 17.3 -28.45 9.1 Q-28.45 7.85 -29.9 5.2 L-33.6 -1.1 Q-36.7 -5.9 -36.7 -18.45 -36.7 -25.2 -33.9 -31.15 -31.2 -36.95 -26.5 -40.9 -15.75 -50.0 0.05 -50.0 8.35 -50.0 14.85 -47.75" fill="#000000" fill-rule="evenodd" stroke="none"/>
  </g>
</svg>
