<?xml version="1.0" encoding="UTF-8" standalone="no"?>
<svg xmlns:xlink="http://www.w3.org/1999/xlink" height="100.0px" width="23.1px" xmlns="http://www.w3.org/2000/svg">
  <g transform="matrix(1.0, 0.0, 0.0, 1.0, 11.55, 50.0)">
    <path d="M11.55 -38.25 L8.25 -20.85 Q3.9 0.9 0.4 21.9 L-0.75 21.9 Q-4.15 1.7 -8.45 -20.85 -11.55 -36.75 -11.55 -38.05 -11.55 -43.45 -8.0 -46.75 -4.4 -50.0 0.05 -50.0 4.9 -50.0 8.2 -46.55 11.55 -42.9 11.55 -38.25 M-7.25 46.95 Q-10.25 43.95 -10.25 39.65 -10.25 35.55 -7.25 32.5 -4.25 29.5 0.05 29.5 4.15 29.5 7.2 32.5 10.2 35.55 10.2 39.65 10.2 43.95 7.2 46.95 4.15 50.0 0.05 50.0 -4.25 50.0 -7.25 46.95" fill="#000000" fill-rule="evenodd" stroke="none"/>
  </g>
</svg>
