<?xml version="1.0" encoding="UTF-8" standalone="no"?>
<svg xmlns:xlink="http://www.w3.org/1999/xlink" height="100.0px" width="29.4px" xmlns="http://www.w3.org/2000/svg">
  <g transform="matrix(1.0, 0.0, 0.0, 1.0, 14.7, 50.0)">
    <path d="M7.3 -31.75 Q6.5 -32.55 5.1 -32.55 L5.1 -39.9 5.65 -39.9 Q9.4 -39.9 12.1 -37.2 14.7 -34.6 14.7 -30.85 L14.7 -17.15 Q14.7 -13.3 12.1 -10.7 9.5 -8.1 5.65 -8.1 L5.1 -8.1 5.1 -15.2 Q6.5 -15.2 7.3 -16.0 8.2 -16.9 8.2 -18.2 L8.2 -29.8 Q8.2 -31.0 7.3 -31.75 M7.3 2.5 Q6.4 1.7 5.1 1.7 L5.1 -5.55 5.65 -5.55 Q9.5 -5.55 12.1 -2.95 14.7 -0.25 14.7 3.5 L14.7 17.2 Q14.7 21.05 12.1 23.65 9.5 26.25 5.65 26.25 L5.1 26.25 5.1 19.1 Q6.5 19.1 7.3 18.25 8.2 17.45 8.2 16.15 L8.2 4.55 Q8.2 3.35 7.3 2.5 M-12.0 -37.2 Q-9.3 -39.9 -5.55 -39.9 L-5.0 -39.9 -5.0 -32.7 Q-6.4 -32.7 -7.2 -31.9 -8.1 -31.1 -8.1 -29.8 L-8.1 -18.2 Q-8.1 -16.9 -7.2 -16.0 -6.4 -15.2 -5.0 -15.2 L-5.0 -8.1 -5.55 -8.1 Q-9.4 -8.1 -12.0 -10.7 -14.7 -13.4 -14.7 -17.15 L-14.7 -30.85 Q-14.7 -34.6 -12.0 -37.2 M3.15 -46.8 L3.15 -31.75 Q3.15 -30.35 2.25 -29.45 1.35 -28.55 0.05 -28.55 -1.25 -28.55 -2.25 -29.45 -3.1 -30.35 -3.1 -31.75 L-3.1 -46.8 Q-3.1 -48.15 -2.25 -49.1 -1.25 -50.0 0.05 -50.0 1.35 -50.0 2.25 -49.1 3.15 -48.2 3.15 -46.8 M0.05 -18.35 Q1.35 -18.35 2.25 -17.4 3.15 -16.4 3.15 -15.2 L3.15 2.6 Q1.85 5.7 0.05 5.7 -1.35 5.7 -2.25 4.8 -3.1 3.9 -3.1 2.6 L-3.1 -15.2 Q-3.1 -16.5 -2.25 -17.45 -1.25 -18.35 0.05 -18.35 M-12.0 -2.95 Q-9.4 -5.55 -5.55 -5.55 L-5.0 -5.55 -5.0 1.55 Q-6.4 1.55 -7.2 2.35 -8.1 3.25 -8.1 4.55 L-8.1 16.15 Q-8.1 17.45 -7.2 18.25 -6.4 19.1 -5.0 19.1 L-5.0 26.25 -5.55 26.25 Q-9.4 26.25 -12.0 23.65 -14.7 20.95 -14.7 17.2 L-14.7 3.5 Q-14.7 -0.25 -12.0 -2.95 M2.25 18.45 Q3.15 19.4 3.15 20.65 L3.15 38.4 Q1.85 41.5 0.05 41.5 -1.35 41.5 -2.25 40.6 -3.1 39.7 -3.1 38.4 L-3.1 20.65 Q-3.1 19.35 -2.25 18.35 -1.25 17.45 0.05 17.45 1.35 17.45 2.25 18.45 M-5.0 28.95 L-5.0 36.05 Q-6.3 36.05 -7.2 36.85 -8.1 37.7 -8.1 39.0 L-8.1 50.0 -14.7 50.0 -14.7 38.0 Q-14.7 34.25 -12.0 31.55 -9.4 28.95 -5.55 28.95 L-5.0 28.95 M5.65 28.95 Q9.5 28.95 12.1 31.55 14.7 34.25 14.7 38.0 L14.7 50.0 8.2 50.0 8.2 39.0 Q8.2 37.75 7.3 37.05 6.5 36.2 5.1 36.2 L5.1 28.95 5.65 28.95" fill="#000000" fill-rule="evenodd" stroke="none"/>
  </g>
</svg>
