<?xml version="1.0" encoding="UTF-8" standalone="no"?>
<svg xmlns:xlink="http://www.w3.org/1999/xlink" height="100.0px" width="100.0px" xmlns="http://www.w3.org/2000/svg">
  <g transform="matrix(1.0, 0.0, 0.0, 1.0, 50.0, 50.0)">
    <path d="M50.0 -3.35 L50.0 3.35 31.95 3.35 Q30.95 12.85 24.95 20.2 L19.8 15.05 Q23.6 9.95 24.65 3.35 L3.35 3.35 3.35 24.65 Q9.95 23.65 15.05 19.8 L20.2 24.95 Q12.85 31.0 3.35 32.0 L3.35 50.0 -3.35 50.0 -3.35 32.0 Q-12.85 31.0 -20.3 24.95 L-15.0 19.8 Q-9.95 23.65 -3.35 24.65 L-3.35 3.35 -24.6 3.35 Q-23.6 9.95 -19.8 15.05 L-24.95 20.2 Q-30.95 12.85 -31.95 3.35 L-50.0 3.35 -50.0 -3.35 -31.95 -3.35 Q-30.95 -12.85 -24.95 -20.25 L-19.8 -15.0 Q-23.6 -9.9 -24.6 -3.35 L-3.35 -3.35 -3.35 -24.6 Q-9.95 -23.6 -15.0 -19.75 L-20.3 -24.95 Q-12.85 -30.95 -3.35 -31.95 L-3.35 -50.0 3.35 -50.0 3.35 -31.95 Q12.85 -30.95 20.2 -24.95 L15.05 -19.75 Q9.95 -23.6 3.35 -24.6 L3.35 -3.35 24.65 -3.35 Q23.6 -9.9 19.8 -15.0 L24.95 -20.25 Q30.95 -12.85 31.95 -3.35 L50.0 -3.35" fill="#000000" fill-rule="evenodd" stroke="none"/>
  </g>
</svg>
