<?xml version="1.0" encoding="UTF-8" standalone="no"?>
<svg xmlns:xlink="http://www.w3.org/1999/xlink" height="100.0px" width="100.0px" xmlns="http://www.w3.org/2000/svg">
  <g transform="matrix(1.0, 0.0, 0.0, 1.0, 50.0, 50.0)">
    <path d="M3.9 -3.85 L50.0 -3.85 50.0 4.1 3.9 4.1 3.9 50.0 -4.05 50.0 -4.05 4.1 -50.0 4.1 -50.0 -3.85 -4.05 -3.85 -4.05 -50.0 3.9 -50.0 3.9 -3.85" fill="#000000" fill-rule="evenodd" stroke="none"/>
    <path d="M17.35 -14.75 Q22.8 -8.35 22.8 0.1 22.8 8.55 17.35 14.8 L13.0 10.4 Q16.55 5.85 16.55 0.1 16.55 -5.65 13.0 -10.2 L17.35 -14.75 M14.75 -17.35 L10.25 -12.8 Q5.75 -16.45 0.0 -16.45 -5.85 -16.45 -10.4 -12.8 L-14.75 -17.35 Q-8.35 -22.8 0.0 -22.8 8.35 -22.8 14.75 -17.35 M-16.5 0.1 Q-16.5 5.85 -13.0 10.4 L-17.35 14.8 Q-22.8 8.55 -22.8 0.1 -22.8 -8.35 -17.35 -14.75 L-13.0 -10.2 Q-16.5 -5.65 -16.5 0.1 M0.0 23.0 Q-8.35 23.0 -14.75 17.55 L-10.4 13.0 Q-5.85 16.65 0.0 16.65 5.75 16.65 10.25 13.0 L14.75 17.55 Q8.35 23.0 0.0 23.0" fill="#000000" fill-rule="evenodd" stroke="none"/>
  </g>
</svg>
