<?xml version="1.0" encoding="UTF-8" standalone="no"?>
<svg xmlns:xlink="http://www.w3.org/1999/xlink" height="94.1px" width="100.0px" xmlns="http://www.w3.org/2000/svg">
  <g transform="matrix(1.0, 0.0, 0.0, 1.0, 50.0, 47.05)">
    <path d="M11.05 3.3 Q11.05 7.85 7.8 11.15 4.6 14.35 -0.05 14.35 -4.6 14.35 -7.8 11.15 -11.05 7.85 -11.05 3.3 -11.05 -1.3 -7.8 -4.5 -4.6 -7.8 -0.05 -7.8 4.6 -7.8 7.8 -4.5 11.05 -1.3 11.05 3.3" fill="#000000" fill-rule="evenodd" stroke="none"/>
    <path d="M-18.55 5.6 Q-17.55 12.75 -12.0 17.45 L-23.75 47.05 Q-35.2 40.9 -42.25 29.9 -49.4 18.6 -50.0 5.25 L-18.55 5.6 M50.0 4.25 Q49.65 17.0 43.25 28.05 37.05 38.7 26.6 45.35 L10.7 18.3 Q16.75 14.15 18.3 7.0 L50.0 4.25 M-0.05 -47.05 Q13.15 -47.05 24.75 -40.5 L7.7 -14.0 Q3.9 -15.75 -0.05 -15.75 -3.4 -15.75 -6.95 -14.45 L-26.1 -39.75 Q-14.2 -47.05 -0.05 -47.05" fill="#000000" fill-rule="evenodd" stroke="none"/>
  </g>
</svg>
