<?xml version="1.0" encoding="UTF-8" standalone="no"?>
<svg xmlns:xlink="http://www.w3.org/1999/xlink" height="95.65px" width="100.0px" xmlns="http://www.w3.org/2000/svg">
  <g transform="matrix(1.0, 0.0, 0.0, 1.0, 50.0, 47.8)">
    <path d="M-6.7 16.9 L-6.9 11.65 -7.4 10.1 Q-7.75 9.05 -9.55 7.6 -16.95 3.3 -23.25 2.15 L-23.5 5.8 Q-23.5 13.3 -19.3 19.3 -15.15 25.15 -8.45 27.75 -6.9 23.1 -6.7 16.9 M9.95 8.2 L9.95 8.1 7.85 9.75 Q7.25 10.6 6.55 13.6 6.2 22.0 8.1 27.85 14.95 25.35 19.25 19.4 23.55 13.3 23.55 5.8 L23.2 2.05 Q18.7 3.2 13.9 5.8 L9.95 8.2 M0.55 -2.75 L3.2 -3.1 Q11.15 -7.4 15.35 -11.95 8.65 -17.75 0.0 -17.75 -8.7 -17.75 -15.35 -12.05 -11.95 -8.55 -6.8 -5.7 -4.2 -4.2 -2.3 -3.55 L-2.3 -3.45 Q-0.95 -2.85 0.55 -2.75 M46.9 28.25 Q45.35 4.4 32.6 1.55 L32.95 5.6 Q32.95 15.75 27.15 23.95 21.5 32.05 12.25 35.5 18.65 42.65 31.2 41.55 37.5 41.0 42.5 39.05 L41.8 39.65 Q27.0 51.35 13.1 46.35 5.55 43.7 0.8 37.65 L0.35 37.65 Q-17.85 50.4 -32.25 42.75 -36.7 40.35 -40.35 36.2 L-43.0 32.6 Q-21.6 43.85 -12.5 34.75 -20.85 30.85 -25.95 23.1 -31.1 15.15 -31.1 5.6 L-30.95 2.15 Q-40.7 4.05 -45.75 15.95 -48.35 21.9 -48.95 27.5 L-49.1 26.65 Q-52.85 7.15 -40.85 -2.75 -34.9 -7.75 -28.2 -8.85 -31.1 -31.1 -17.65 -40.4 -10.95 -45.05 -3.6 -45.25 -23.85 -31.35 -19.75 -18.85 -10.7 -26.35 0.9 -26.35 11.65 -26.35 20.25 -19.8 23.3 -29.05 15.7 -39.4 L7.5 -47.8 8.3 -47.55 Q26.9 -40.85 29.4 -25.4 30.6 -17.75 28.1 -11.35 48.7 -2.6 49.95 13.7 50.45 21.9 46.9 28.25" fill="#000000" fill-rule="evenodd" stroke="none"/>
  </g>
</svg>
