<?xml version="1.0" encoding="UTF-8" standalone="no"?>
<svg xmlns:xlink="http://www.w3.org/1999/xlink" height="100.0px" width="80.0px" xmlns="http://www.w3.org/2000/svg">
  <g transform="matrix(1.0, 0.0, 0.0, 1.0, 40.0, 50.0)">
    <path d="M-19.0 -22.95 Q-16.15 -27.35 -15.6 -32.05 L-9.95 -21.9 Q-10.05 -23.9 -9.5 -26.45 -8.55 -31.5 -5.8 -33.8 0.65 -39.2 1.0 -39.75 3.65 -43.9 -1.45 -50.0 L1.55 -48.4 Q5.05 -46.2 7.65 -43.55 15.7 -35.15 10.35 -25.15 8.05 -20.75 8.95 -19.4 9.75 -18.25 11.95 -20.1 18.15 -25.4 14.1 -32.85 L19.3 -29.85 Q24.0 -25.15 21.4 -16.55 L24.8 -18.05 Q28.05 -20.3 27.7 -24.1 L29.75 -18.35 Q31.05 -11.35 27.45 -5.45 L32.05 -7.65 Q36.7 -10.45 37.25 -13.65 L39.1 -6.25 Q39.8 3.05 33.95 12.45 L40.0 7.55 39.9 10.05 Q39.55 13.3 38.15 16.85 33.7 28.25 20.65 38.85 20.2 37.55 20.45 35.05 21.0 30.1 24.45 24.55 27.9 18.95 23.35 21.7 L18.15 25.5 18.4 15.1 11.9 21.9 Q11.5 19.5 11.35 16.5 11.0 10.5 12.15 7.55 L9.05 9.25 Q5.85 11.65 5.5 14.65 4.65 11.1 2.95 7.3 -0.4 -0.4 -4.5 -2.05 -4.55 0.5 -4.75 2.95 -4.65 8.45 -2.8 11.2 L-5.0 10.75 Q-7.4 10.05 -8.55 8.35 L-9.25 12.8 Q-9.7 17.65 -8.3 20.4 -9.7 19.6 -11.1 18.25 -14.0 15.7 -14.0 13.4 L-15.8 17.4 Q-17.1 22.15 -14.55 26.2 L-18.2 24.65 Q-21.9 22.7 -22.4 20.65 L-21.1 28.15 Q-19.4 36.3 -17.55 39.3 -23.05 35.4 -28.35 30.4 -38.95 20.4 -38.25 15.1 -38.0 12.8 -39.65 2.25 -40.9 -5.25 -37.45 -8.6 L-33.65 -1.1 Q-34.9 -4.55 -35.05 -8.8 -35.4 -17.35 -30.4 -21.45 -23.5 -26.9 -23.5 -29.9 L-21.65 -19.5 -19.0 -22.95" fill="#000000" fill-rule="evenodd" stroke="none"/>
    <path d="M10.2 35.05 L10.2 40.7 -9.15 40.7 -9.15 35.05 10.2 35.05" fill="#000000" fill-rule="evenodd" stroke="none"/>
    <path d="M28.65 44.6 L28.65 50.0 -27.45 50.0 -27.45 44.6 28.65 44.6" fill="#000000" fill-rule="evenodd" stroke="none"/>
  </g>
</svg>
