<?xml version="1.0" encoding="UTF-8" standalone="no"?>
<!-- Created with Serif DrawPlus 11, 0, 0, 18 (Mar 20, 15:09:53) (http://www.serif.com) -->
<svg version="1.1" xmlns="http://www.w3.org/2000/svg" xmlns:xlink="http://www.w3.org/1999/xlink" width="171.336" height="171.336">
	<g id="dp_group001" transform="matrix(1,0,0,1,-760.799,-597.999)">
		<path id="dp_path002" fill="none" fill-rule="evenodd" stroke="none" stroke-width="1.33333" d="M 761.465,598.665 L 931.467,598.665 L 931.467,768.667 L 761.465,768.667 Z "/>
		<g id="dp_group003">
			<g id="dp_group004">
				<path id="dp_path005" fill="#fb016e" fill-rule="evenodd" stroke="none" stroke-width="1.33333" d="M 826.623,617.103 L 826.623,632.531 L 833.665,639.621 L 859.268,639.621 L 866.311,632.531 L 866.311,617.103 L 859.268,610.013 L 833.665,610.013 Z M 813.655,610.311 L 825.299,598.665 L 867.635,598.665 L 879.279,610.311 L 879.279,633.048 L 867.635,644.692 L 825.299,644.692 L 813.655,633.048 Z "/>
				<path id="dp_path006" fill="#fb016e" fill-rule="evenodd" stroke="none" stroke-width="1.33333" d="M 774.285,630.431 L 780.037,624.679 L 912.896,624.679 L 918.648,630.431 L 918.648,632.429 L 912.896,638.181 L 780.037,638.181 L 774.285,632.429 Z "/>
				<path id="dp_path007" fill="#fb016e" fill-rule="evenodd" stroke="none" stroke-width="1.33333" d="M 774.287,631.271 L 918.648,631.271 L 918.648,650.985 L 774.287,650.985 Z "/>
			</g>
			<path id="dp_path008" fill="#fb016e" fill-rule="evenodd" stroke="none" stroke-width="1.33333" d="M 787.419,657.493 L 799.281,657.493 L 799.281,742.42 L 814.377,757.525 L 878.556,757.525 L 893.651,742.42 L 893.651,657.493 L 905.513,657.493 L 905.513,749.776 L 886.623,768.668 L 806.309,768.668 L 787.419,749.776 Z "/>
			<g id="dp_group009">
				<path id="dp_path010" fill="#fb016e" fill-rule="evenodd" stroke="none" stroke-width="1.33333" d="M 839.559,664.129 L 853.249,664.129 L 853.249,742.607 L 839.559,742.607 Z "/>
				<path id="dp_path011" fill="#fb016e" fill-rule="evenodd" stroke="none" stroke-width="1.33333" d="M 813.443,664.129 L 827.133,664.129 L 827.133,742.607 L 813.443,742.607 Z "/>
				<path id="dp_path012" fill="#fb016e" fill-rule="evenodd" stroke="none" stroke-width="1.33333" d="M 865.8,664.129 L 879.491,664.129 L 879.491,742.607 L 865.8,742.607 Z "/>
			</g>
		</g>
	</g>
</svg>