<?xml version="1.0" encoding="UTF-8" standalone="no"?>
<!-- Created with Serif DrawPlus 11, 0, 0, 18 (Mar 20, 15:09:53) (http://www.serif.com) -->
<svg version="1.1" xmlns="http://www.w3.org/2000/svg" xmlns:xlink="http://www.w3.org/1999/xlink" width="172.128" height="171.625">
	<g id="dp_group001" transform="matrix(1,0,0,1,-495.968,-597.996)">
		<g id="dp_group001">
			<path id="dp_path002" fill="#fb016e" fill-rule="evenodd" stroke="none" stroke-width="1.33333" d="M 598.82,598.665 C 614.555,598.665 627.312,611.732 627.312,627.852 C 627.312,643.971 614.555,657.039 598.82,657.039 C 583.085,657.039 570.329,643.971 570.329,627.852 C 570.329,611.732 583.085,598.665 598.82,598.665 Z "/>
			<path id="dp_path003" fill="#fb016e" fill-rule="evenodd" stroke="none" stroke-width="1.33333" d="M 641.628,659.461 C 644.3,661.171 646.079,664.209 646.079,667.676 C 646.079,673.02 641.851,677.352 636.633,677.352 C 631.416,677.352 627.187,673.02 627.187,667.676 C 627.187,662.332 631.416,658 636.633,658 C 638.467,658 640.179,658.535 641.628,659.461 Z M 666.901,617.996 L 606.793,676.464 L 648.589,693.445 Z "/>
		</g>
		<g id="dp_group002">
			<g id="dp_group003">
				<path id="dp_path004" fill="#fb016e" fill-rule="evenodd" stroke="none" stroke-width="1.33333" d="M 571.681,679.919 L 583.533,679.919 L 583.533,736.209 L 571.681,736.209 Z "/>
				<path id="dp_path005" fill="#fb016e" fill-rule="evenodd" stroke="none" stroke-width="1.33333" d="M 583.533,679.919 L 583.533,692.059 L 528.583,692.059 L 528.583,679.919 Z "/>
			</g>
			<path id="dp_path006" fill="#fb016e" fill-rule="evenodd" stroke="none" stroke-width="1.33333" d="M 575.153,679.919 L 583.535,688.504 L 505.28,768.667 L 496.899,760.081 Z "/>
		</g>
	</g>
</svg>