<?xml version="1.0" encoding="UTF-8" standalone="no"?>
<!-- Created with Serif DrawPlus 11, 0, 0, 18 (Mar 20, 15:09:53) (http://www.serif.com) -->
<svg version="1.1" xmlns="http://www.w3.org/2000/svg" xmlns:xlink="http://www.w3.org/1999/xlink" width="341.952" height="342.232">
	<g id="dp_group001" transform="matrix(1,0,0,1,-191.296,-866.583)">
		<g id="dp_group002">
			<path id="dp_path003" fill="#fb016e" fill-rule="evenodd" stroke="none" stroke-width="1.33333" d="M 448.939,900.587 C 482.884,900.587 510.403,928.105 510.403,962.052 C 510.403,995.999 482.884,1023.52 448.939,1023.52 C 414.993,1023.52 387.475,995.999 387.475,962.052 C 387.475,928.105 414.993,900.587 448.939,900.587 Z "/>
			<path id="dp_path004" fill="#fb016e" fill-rule="evenodd" stroke="none" stroke-width="1.33333" d="M 327.605,867.252 C 349.032,867.252 366.403,884.623 366.403,906.051 C 366.403,927.479 349.032,944.849 327.605,944.849 C 306.179,944.849 288.808,927.479 288.808,906.051 C 288.808,884.623 306.179,867.252 327.605,867.252 Z "/>
			<path id="dp_path005" fill="#fb016e" fill-rule="evenodd" stroke="none" stroke-width="1.33333" d="M 306.939,980.587 C 358.189,980.587 399.736,1022.13 399.736,1073.39 C 399.736,1073.6 399.735,1073.81 399.735,1074.02 C 390.261,1068.73 379.343,1065.71 367.72,1065.71 C 331.424,1065.71 302,1095.13 302,1131.43 C 302,1144.13 305.607,1156 311.853,1166.05 C 310.225,1166.14 308.587,1166.18 306.939,1166.18 C 255.688,1166.18 214.141,1124.64 214.141,1073.39 C 214.141,1022.13 255.688,980.587 306.939,980.587 Z "/>
			<path id="dp_path006" fill="#fb016e" fill-rule="evenodd" stroke="none" stroke-width="1.33333" d="M 367.721,1080.31 C 395.951,1080.31 418.836,1103.2 418.836,1131.43 C 418.836,1143.01 414.983,1153.69 408.488,1162.27 L 443.74,1197.52 L 433.388,1207.87 L 398.076,1172.56 C 389.587,1178.83 379.087,1182.54 367.721,1182.54 C 339.491,1182.54 316.605,1159.66 316.605,1131.43 C 316.605,1103.2 339.491,1080.31 367.721,1080.31 Z M 367.721,1095.15 C 347.683,1095.15 331.439,1111.39 331.439,1131.43 C 331.439,1151.47 347.683,1167.71 367.721,1167.71 C 387.76,1167.71 404.004,1151.47 404.004,1131.43 C 404.004,1111.39 387.76,1095.15 367.721,1095.15 Z "/>
		</g>
		<path id="dp_path007" fill="none" fill-rule="evenodd" stroke="none" stroke-width="1.33333" d="M 191.963,867.252 L 532.58,867.252 L 532.58,1207.87 L 191.963,1207.87 Z "/>
	</g>
</svg>